ISO-10303-21;
HEADER;
FILE_DESCRIPTION (( 'STEP AP214' ),
    '1' );
FILE_NAME ('CNC_Cage_Base_UR.STEP',
    '2026-08-12T22:35:38',
    ( '' ),
    ( '' ),
    'SwSTEP 2.0',
    'SolidWorks 2026',
    '' );
FILE_SCHEMA (( 'AUTOMOTIVE_DESIGN' ));
ENDSEC;

DATA;
#1 = CARTESIAN_POINT ( 'NONE',  ( 10.50000000001851319, 28.29999999999575877, 12.00000000000000000 ) ) ;
#2 = ORIENTED_EDGE ( 'NONE', *, *, #267, .T. ) ;
#3 = ADVANCED_FACE ( 'NONE', ( #806, #818 ), #203, .T. ) ;
#4 = ORIENTED_EDGE ( 'NONE', *, *, #795, .T. ) ;
#5 = DIRECTION ( 'NONE',  ( 0.000000000000000000, -0.000000000000000000, 1.000000000000000000 ) ) ;
#6 = VECTOR ( 'NONE', #677, 1000.000000000000000 ) ;
#7 = AXIS2_PLACEMENT_3D ( 'NONE', #100, #376, #652 ) ;
#8 = CARTESIAN_POINT ( 'NONE',  ( 160.0000000000000000, 90.00000000000000000, 0.000000000000000000 ) ) ;
#9 = ORIENTED_EDGE ( 'NONE', *, *, #34, .T. ) ;
#10 = EDGE_CURVE ( 'NONE', #654, #79, #162, .T. ) ;
#11 = CARTESIAN_POINT ( 'NONE',  ( 4.200000000000000178, 69.70000000000000284, 12.00000000000000000 ) ) ;
#12 = CARTESIAN_POINT ( 'NONE',  ( 90.30000000000001137, 0.000000000000000000, 12.00000000000000000 ) ) ;
#13 = PLANE ( 'NONE',  #846 ) ;
#14 = ORIENTED_EDGE ( 'NONE', *, *, #341, .T. ) ;
#15 = PLANE ( 'NONE',  #41 ) ;
#16 = CARTESIAN_POINT ( 'NONE',  ( 160.0000000000000000, 90.00000000000000000, 12.00000000000000000 ) ) ;
#17 = LINE ( 'NONE', #24, #214 ) ;
#18 = EDGE_LOOP ( 'NONE', ( #350, #819, #516, #599 ) ) ;
#19 = AXIS2_PLACEMENT_3D ( 'NONE', #114, #659, #176 ) ;
#20 = CARTESIAN_POINT ( 'NONE',  ( 0.000000000000000000, 0.000000000000000000, 12.00000000000000000 ) ) ;
#21 = DIRECTION ( 'NONE',  ( 0.000000000000000000, 0.000000000000000000, 1.000000000000000000 ) ) ;
#22 = EDGE_CURVE ( 'NONE', #179, #533, #280, .T. ) ;
#23 = AXIS2_PLACEMENT_3D ( 'NONE', #760, #755, #410 ) ;
#24 = CARTESIAN_POINT ( 'NONE',  ( 4.200000000000000178, 69.70000000000000284, 0.000000000000000000 ) ) ;
#25 = AXIS2_PLACEMENT_3D ( 'NONE', #381, #48, #295 ) ;
#26 = ORIENTED_EDGE ( 'NONE', *, *, #71, .F. ) ;
#27 = CARTESIAN_POINT ( 'NONE',  ( 11.95000000001856932, 28.29999999999581561, 0.000000000000000000 ) ) ;
#28 = DIRECTION ( 'NONE',  ( -0.000000000000000000, -0.000000000000000000, -1.000000000000000000 ) ) ;
#29 = CARTESIAN_POINT ( 'NONE',  ( 160.0000000000000000, 0.000000000000000000, 12.00000000000000000 ) ) ;
#30 = ORIENTED_EDGE ( 'NONE', *, *, #787, .T. ) ;
#31 = CARTESIAN_POINT ( 'NONE',  ( 164.0000000000000000, 90.00000000000000000, 12.00000000000000000 ) ) ;
#32 = CARTESIAN_POINT ( 'NONE',  ( 134.7499999999999716, 155.2500000000000000, 7.000000000000000000 ) ) ;
#33 = VERTEX_POINT ( 'NONE', #609 ) ;
#34 = EDGE_CURVE ( 'NONE', #449, #743, #345, .T. ) ;
#35 = LINE ( 'NONE', #849, #60 ) ;
#36 = DIRECTION ( 'NONE',  ( 0.000000000000000000, 0.000000000000000000, 1.000000000000000000 ) ) ;
#37 = DIRECTION ( 'NONE',  ( -0.000000000000000000, -0.000000000000000000, -1.000000000000000000 ) ) ;
#38 = VERTEX_POINT ( 'NONE', #349 ) ;
#39 = AXIS2_PLACEMENT_3D ( 'NONE', #453, #667, #121 ) ;
#40 = LINE ( 'NONE', #778, #768 ) ;
#41 = AXIS2_PLACEMENT_3D ( 'NONE', #31, #293, #408 ) ;
#42 = PLANE ( 'NONE',  #388 ) ;
#43 = CARTESIAN_POINT ( 'NONE',  ( 8.500000000018513191, 28.29999999999575877, 12.00000000000000000 ) ) ;
#44 = ORIENTED_EDGE ( 'NONE', *, *, #200, .T. ) ;
#45 = DIRECTION ( 'NONE',  ( 0.000000000000000000, -0.000000000000000000, 1.000000000000000000 ) ) ;
#46 = PLANE ( 'NONE',  #585 ) ;
#47 = ORIENTED_EDGE ( 'NONE', *, *, #401, .T. ) ;
#48 = DIRECTION ( 'NONE',  ( 1.000000000000000000, 0.000000000000000000, -0.000000000000000000 ) ) ;
#49 = EDGE_CURVE ( 'NONE', #130, #127, #164, .T. ) ;
#50 = ORIENTED_EDGE ( 'NONE', *, *, #536, .T. ) ;
#51 = DIRECTION ( 'NONE',  ( 0.000000000000000000, -0.000000000000000000, 1.000000000000000000 ) ) ;
#52 = VECTOR ( 'NONE', #521, 1000.000000000000000 ) ;
#53 = LINE ( 'NONE', #187, #414 ) ;
#54 = DIRECTION ( 'NONE',  ( -1.000000000000000000, 0.000000000000000000, -0.000000000000000000 ) ) ;
#55 = LINE ( 'NONE', #530, #539 ) ;
#56 = ORIENTED_EDGE ( 'NONE', *, *, #22, .F. ) ;
#57 = SHAPE_DEFINITION_REPRESENTATION ( #124, #391 ) ;
#58 = ADVANCED_FACE ( 'NONE', ( #217 ), #485, .F. ) ;
#59 = CARTESIAN_POINT ( 'NONE',  ( 160.0000000000000000, 70.00000000000000000, 12.00000000000000000 ) ) ;
#60 = VECTOR ( 'NONE', #518, 1000.000000000000000 ) ;
#61 = EDGE_LOOP ( 'NONE', ( #378, #742, #264, #720 ) ) ;
#62 = ORIENTED_EDGE ( 'NONE', *, *, #134, .T. ) ;
#63 = CARTESIAN_POINT ( 'NONE',  ( 4.200000000000000178, 90.30000000000001137, 12.00000000000000000 ) ) ;
#64 = ORIENTED_EDGE ( 'NONE', *, *, #154, .T. ) ;
#65 = ORIENTED_EDGE ( 'NONE', *, *, #359, .T. ) ;
#66 = DIRECTION ( 'NONE',  ( 1.000000000000000000, 0.000000000000000000, 0.000000000000000000 ) ) ;
#67 = EDGE_CURVE ( 'NONE', #292, #361, #417, .T. ) ;
#68 = EDGE_LOOP ( 'NONE', ( #88, #633 ) ) ;
#69 = VERTEX_POINT ( 'NONE', #495 ) ;
#70 = CARTESIAN_POINT ( 'NONE',  ( 6.500000000018513191, 28.29999999999575877, 8.000000000000000000 ) ) ;
#71 = EDGE_CURVE ( 'NONE', #658, #876, #682, .T. ) ;
#72 = DIRECTION ( 'NONE',  ( 0.000000000000000000, -1.000000000000000000, 0.000000000000000000 ) ) ;
#73 = DIRECTION ( 'NONE',  ( 0.000000000000000000, -0.000000000000000000, -1.000000000000000000 ) ) ;
#74 = AXIS2_PLACEMENT_3D ( 'NONE', #699, #91, #290 ) ;
#75 = CARTESIAN_POINT ( 'NONE',  ( 69.70000000000000284, 0.000000000000000000, 12.00000000000000000 ) ) ;
#76 = AXIS2_PLACEMENT_3D ( 'NONE', #323, #116, #874 ) ;
#77 = VECTOR ( 'NONE', #273, 1000.000000000000000 ) ;
#78 = CARTESIAN_POINT ( 'NONE',  ( 155.2500000000000000, 134.7499999999999716, 7.000000000000000000 ) ) ;
#79 = VERTEX_POINT ( 'NONE', #615 ) ;
#80 = DIRECTION ( 'NONE',  ( -1.000000000000000000, 0.000000000000000000, 0.000000000000000000 ) ) ;
#81 = LINE ( 'NONE', #759, #358 ) ;
#82 = CARTESIAN_POINT ( 'NONE',  ( 69.70000000000000284, 0.000000000000000000, 12.00000000000000000 ) ) ;
#83 = ORIENTED_EDGE ( 'NONE', *, *, #808, .T. ) ;
#84 = CARTESIAN_POINT ( 'NONE',  ( 4.200000000000000178, 90.30000000000001137, 0.000000000000000000 ) ) ;
#85 = EDGE_CURVE ( 'NONE', #462, #127, #152, .T. ) ;
#86 = DIRECTION ( 'NONE',  ( -0.000000000000000000, -0.000000000000000000, 1.000000000000000000 ) ) ;
#87 = LINE ( 'NONE', #353, #317 ) ;
#88 = ORIENTED_EDGE ( 'NONE', *, *, #10, .F. ) ;
#89 = FACE_OUTER_BOUND ( 'NONE', #724, .T. ) ;
#90 = CARTESIAN_POINT ( 'NONE',  ( 164.0000000000000000, 90.00000000000000000, 12.00000000000000000 ) ) ;
#91 = DIRECTION ( 'NONE',  ( -0.000000000000000000, 0.000000000000000000, 1.000000000000000000 ) ) ;
#92 = VECTOR ( 'NONE', #384, 1000.000000000000000 ) ;
#93 = ORIENTED_EDGE ( 'NONE', *, *, #663, .T. ) ;
#94 = CARTESIAN_POINT ( 'NONE',  ( 164.0000000000000000, 70.00000000000000000, 12.00000000000000000 ) ) ;
#95 = DIRECTION ( 'NONE',  ( 1.000000000000000000, 0.000000000000000000, 0.000000000000000000 ) ) ;
#96 = CARTESIAN_POINT ( 'NONE',  ( 0.000000000000000000, 0.000000000000000000, 12.00000000000000000 ) ) ;
#97 = ADVANCED_FACE ( 'NONE', ( #490 ), #13, .F. ) ;
#98 = ORIENTED_EDGE ( 'NONE', *, *, #540, .F. ) ;
#99 = LINE ( 'NONE', #235, #723 ) ;
#100 = CARTESIAN_POINT ( 'NONE',  ( 0.000000000000000000, 0.000000000000000000, 0.000000000000000000 ) ) ;
#101 = PLANE ( 'NONE',  #645 ) ;
#102 = EDGE_LOOP ( 'NONE', ( #149, #700, #395, #496 ) ) ;
#103 = DIRECTION ( 'NONE',  ( -1.000000000000000000, 0.000000000000000000, 0.000000000000000000 ) ) ;
#104 = CARTESIAN_POINT ( 'NONE',  ( 0.000000000000000000, 90.30000000000001137, 12.00000000000000000 ) ) ;
#105 = SURFACE_STYLE_FILL_AREA ( #302 ) ;
#106 = VECTOR ( 'NONE', #750, 1000.000000000000000 ) ;
#107 = ORIENTED_EDGE ( 'NONE', *, *, #739, .T. ) ;
#108 = AXIS2_PLACEMENT_3D ( 'NONE', #230, #576, #506 ) ;
#109 = PLANE ( 'NONE',  #7 ) ;
#110 = ORIENTED_EDGE ( 'NONE', *, *, #798, .T. ) ;
#111 = EDGE_CURVE ( 'NONE', #694, #842, #17, .T. ) ;
#112 = CARTESIAN_POINT ( 'NONE',  ( 69.70000000000000284, 0.000000000000000000, 12.00000000000000000 ) ) ;
#113 = ORIENTED_EDGE ( 'NONE', *, *, #866, .T. ) ;
#114 = CARTESIAN_POINT ( 'NONE',  ( 0.000000000000000000, 0.000000000000000000, 0.000000000000000000 ) ) ;
#115 = PRODUCT_RELATED_PRODUCT_CATEGORY ( 'part', '', ( #297 ) ) ;
#116 = DIRECTION ( 'NONE',  ( 0.000000000000000000, 0.000000000000000000, -1.000000000000000000 ) ) ;
#117 = ORIENTED_EDGE ( 'NONE', *, *, #549, .T. ) ;
#118 = VECTOR ( 'NONE', #688, 1000.000000000000000 ) ;
#119 = VECTOR ( 'NONE', #344, 1000.000000000000000 ) ;
#120 = AXIS2_PLACEMENT_3D ( 'NONE', #695, #843, #282 ) ;
#121 = DIRECTION ( 'NONE',  ( -1.000000000000000000, 0.000000000000000000, 0.000000000000000000 ) ) ;
#122 = EDGE_CURVE ( 'NONE', #654, #527, #286, .T. ) ;
#123 = VERTEX_POINT ( 'NONE', #29 ) ;
#124 = PRODUCT_DEFINITION_SHAPE ( 'NONE', 'NONE',  #586 ) ;
#125 = FACE_OUTER_BOUND ( 'NONE', #365, .T. ) ;
#126 = ORIENTED_EDGE ( 'NONE', *, *, #673, .T. ) ;
#127 = VERTEX_POINT ( 'NONE', #693 ) ;
#128 = CARTESIAN_POINT ( 'NONE',  ( 160.0000000000000000, 70.00000000000000000, 0.000000000000000000 ) ) ;
#129 = ORIENTED_EDGE ( 'NONE', *, *, #808, .F. ) ;
#130 = VERTEX_POINT ( 'NONE', #8 ) ;
#131 =( GEOMETRIC_REPRESENTATION_CONTEXT ( 3 ) GLOBAL_UNCERTAINTY_ASSIGNED_CONTEXT ( ( #698 ) ) GLOBAL_UNIT_ASSIGNED_CONTEXT ( ( #786, #648, #515 ) ) REPRESENTATION_CONTEXT ( 'NONE', 'WORKASPACE' ) );
#132 = LINE ( 'NONE', #674, #526 ) ;
#133 = ORIENTED_EDGE ( 'NONE', *, *, #274, .T. ) ;
#134 = EDGE_CURVE ( 'NONE', #730, #227, #827, .T. ) ;
#135 = CARTESIAN_POINT ( 'NONE',  ( 164.0000000000000000, 90.00000000000000000, 0.000000000000000000 ) ) ;
#136 = PRODUCT_DEFINITION_CONTEXT ( 'detailed design', #322, 'design' ) ;
#137 = ORIENTED_EDGE ( 'NONE', *, *, #405, .F. ) ;
#138 = CARTESIAN_POINT ( 'NONE',  ( 0.000000000000000000, 90.30000000000001137, 12.00000000000000000 ) ) ;
#139 = CARTESIAN_POINT ( 'NONE',  ( 160.0000000000000000, 0.000000000000000000, 12.00000000000000000 ) ) ;
#140 = CARTESIAN_POINT ( 'NONE',  ( 160.0000000000000000, 90.00000000000000000, 0.000000000000000000 ) ) ;
#141 = VERTEX_POINT ( 'NONE', #271 ) ;
#142 = DIRECTION ( 'NONE',  ( -1.000000000000000000, 0.000000000000000000, 0.000000000000000000 ) ) ;
#143 = VECTOR ( 'NONE', #573, 1000.000000000000000 ) ;
#144 = DIRECTION ( 'NONE',  ( -1.000000000000000000, 0.000000000000000000, 0.000000000000000000 ) ) ;
#145 = VECTOR ( 'NONE', #270, 1000.000000000000000 ) ;
#146 = VECTOR ( 'NONE', #219, 1000.000000000000000 ) ;
#147 = DIRECTION ( 'NONE',  ( -0.000000000000000000, -0.000000000000000000, -1.000000000000000000 ) ) ;
#148 = EDGE_CURVE ( 'NONE', #398, #743, #87, .T. ) ;
#149 = ORIENTED_EDGE ( 'NONE', *, *, #242, .T. ) ;
#150 = DIRECTION ( 'NONE',  ( 0.000000000000000000, 1.000000000000000000, 0.000000000000000000 ) ) ;
#151 = LINE ( 'NONE', #687, #832 ) ;
#152 = LINE ( 'NONE', #542, #568 ) ;
#153 = ORIENTED_EDGE ( 'NONE', *, *, #122, .F. ) ;
#154 = EDGE_CURVE ( 'NONE', #878, #466, #221, .T. ) ;
#155 = DIRECTION ( 'NONE',  ( -1.000000000000000000, 0.000000000000000000, 0.000000000000000000 ) ) ;
#156 = PLANE ( 'NONE',  #247 ) ;
#157 = PLANE ( 'NONE',  #74 ) ;
#158 = ORIENTED_EDGE ( 'NONE', *, *, #204, .F. ) ;
#159 = CARTESIAN_POINT ( 'NONE',  ( 69.70000000000000284, 4.200000000000000178, 12.00000000000000000 ) ) ;
#160 = ADVANCED_FACE ( 'NONE', ( #556, #764, #340 ), #157, .T. ) ;
#161 = LINE ( 'NONE', #784, #233 ) ;
#162 = CIRCLE ( 'NONE', #498, 2.000000000000000000 ) ;
#163 = VECTOR ( 'NONE', #28, 1000.000000000000000 ) ;
#164 = LINE ( 'NONE', #140, #283 ) ;
#165 = AXIS2_PLACEMENT_3D ( 'NONE', #413, #552, #824 ) ;
#166 = EDGE_LOOP ( 'NONE', ( #93, #234, #833, #393 ) ) ;
#167 = FACE_OUTER_BOUND ( 'NONE', #434, .T. ) ;
#168 = DIRECTION ( 'NONE',  ( -1.000000000000000000, 0.000000000000000000, 0.000000000000000000 ) ) ;
#169 = EDGE_CURVE ( 'NONE', #508, #334, #560, .T. ) ;
#170 = DIRECTION ( 'NONE',  ( 1.000000000000000000, 0.000000000000000000, -0.000000000000000000 ) ) ;
#171 = EDGE_LOOP ( 'NONE', ( #732, #47, #854, #14 ) ) ;
#172 = DIRECTION ( 'NONE',  ( 0.000000000000000000, -1.000000000000000000, 0.000000000000000000 ) ) ;
#173 = DIRECTION ( 'NONE',  ( 0.000000000000000000, -1.000000000000000000, 0.000000000000000000 ) ) ;
#174 = LINE ( 'NONE', #577, #872 ) ;
#175 = VERTEX_POINT ( 'NONE', #822 ) ;
#176 = DIRECTION ( 'NONE',  ( 1.000000000000000000, 0.000000000000000000, 0.000000000000000000 ) ) ;
#177 = LINE ( 'NONE', #236, #483 ) ;
#178 = DIRECTION ( 'NONE',  ( -0.000000000000000000, 0.000000000000000000, -1.000000000000000000 ) ) ;
#179 = VERTEX_POINT ( 'NONE', #207 ) ;
#180 = EDGE_CURVE ( 'NONE', #253, #427, #653, .T. ) ;
#181 = CARTESIAN_POINT ( 'NONE',  ( 0.000000000000000000, 0.000000000000000000, 12.00000000000000000 ) ) ;
#182 = DIRECTION ( 'NONE',  ( 0.000000000000000000, -0.000000000000000000, 1.000000000000000000 ) ) ;
#183 = ORIENTED_EDGE ( 'NONE', *, *, #49, .F. ) ;
#184 = CARTESIAN_POINT ( 'NONE',  ( 4.200000000000000178, 69.70000000000000284, 12.00000000000000000 ) ) ;
#185 = ORIENTED_EDGE ( 'NONE', *, *, #211, .T. ) ;
#186 = ADVANCED_FACE ( 'NONE', ( #249 ), #101, .F. ) ;
#187 = CARTESIAN_POINT ( 'NONE',  ( 134.7499999999999716, 134.7499999999999716, 12.00000000000000000 ) ) ;
#188 = VERTEX_POINT ( 'NONE', #437 ) ;
#189 = ORIENTED_EDGE ( 'NONE', *, *, #555, .F. ) ;
#190 = VECTOR ( 'NONE', #630, 1000.000000000000000 ) ;
#191 = AXIS2_PLACEMENT_3D ( 'NONE', #617, #558, #142 ) ;
#192 = DIRECTION ( 'NONE',  ( 0.000000000000000000, -0.000000000000000000, 1.000000000000000000 ) ) ;
#193 = ORIENTED_EDGE ( 'NONE', *, *, #274, .F. ) ;
#194 = CARTESIAN_POINT ( 'NONE',  ( 134.7499999999999716, 155.2500000000000000, 7.000000000000000000 ) ) ;
#195 = ORIENTED_EDGE ( 'NONE', *, *, #655, .F. ) ;
#196 = CARTESIAN_POINT ( 'NONE',  ( 11.95000000001856932, 28.29999999999581561, 8.000000000000000000 ) ) ;
#197 = ORIENTED_EDGE ( 'NONE', *, *, #704, .F. ) ;
#198 = ORIENTED_EDGE ( 'NONE', *, *, #430, .F. ) ;
#199 = AXIS2_PLACEMENT_3D ( 'NONE', #471, #746, #54 ) ;
#200 = EDGE_CURVE ( 'NONE', #179, #689, #780, .T. ) ;
#201 = AXIS2_PLACEMENT_3D ( 'NONE', #194, #326, #461 ) ;
#202 = LINE ( 'NONE', #470, #499 ) ;
#203 = PLANE ( 'NONE',  #199 ) ;
#204 = EDGE_CURVE ( 'NONE', #782, #208, #174, .T. ) ;
#205 = CARTESIAN_POINT ( 'NONE',  ( 5.050000000018568969, 28.29999999999581561, 0.000000000000000000 ) ) ;
#206 = MANIFOLD_SOLID_BREP ( 'Cut-Extrude3', #299 ) ;
#207 = CARTESIAN_POINT ( 'NONE',  ( 69.70000000000000284, 0.000000000000000000, 12.00000000000000000 ) ) ;
#208 = VERTEX_POINT ( 'NONE', #642 ) ;
#209 = CARTESIAN_POINT ( 'NONE',  ( 8.500000000018513191, 28.29999999999575877, 12.00000000000000000 ) ) ;
#210 = CARTESIAN_POINT ( 'NONE',  ( 155.2500000000000000, 155.2500000000000000, 12.00000000000000000 ) ) ;
#211 = EDGE_CURVE ( 'NONE', #355, #751, #708, .T. ) ;
#212 = CARTESIAN_POINT ( 'NONE',  ( 0.000000000000000000, 160.0000000000000000, 12.00000000000000000 ) ) ;
#213 = VERTEX_POINT ( 'NONE', #792 ) ;
#214 = VECTOR ( 'NONE', #421, 1000.000000000000000 ) ;
#215 = DIRECTION ( 'NONE',  ( -1.000000000000000000, 0.000000000000000000, 0.000000000000000000 ) ) ;
#216 = AXIS2_PLACEMENT_3D ( 'NONE', #104, #844, #45 ) ;
#217 = FACE_OUTER_BOUND ( 'NONE', #738, .T. ) ;
#218 = EDGE_LOOP ( 'NONE', ( #374, #4, #44, #83, #875, #313, #2, #480, #879, #566, #602, #705, #62, #847, #256, #260 ) ) ;
#219 = DIRECTION ( 'NONE',  ( -0.000000000000000000, -0.000000000000000000, -1.000000000000000000 ) ) ;
#220 = LINE ( 'NONE', #489, #320 ) ;
#221 = LINE ( 'NONE', #678, #429 ) ;
#222 = EDGE_LOOP ( 'NONE', ( #671, #447, #811, #467, #532, #535, #183, #865, #459, #277, #455, #137, #418, #729, #464, #460 ) ) ;
#223 = ADVANCED_FACE ( 'NONE', ( #446 ), #46, .F. ) ;
#224 = DIRECTION ( 'NONE',  ( -0.000000000000000000, -0.000000000000000000, -1.000000000000000000 ) ) ;
#225 = LINE ( 'NONE', #494, #502 ) ;
#226 = DIRECTION ( 'NONE',  ( 0.000000000000000000, -1.000000000000000000, 0.000000000000000000 ) ) ;
#227 = VERTEX_POINT ( 'NONE', #716 ) ;
#228 = DIRECTION ( 'NONE',  ( -0.000000000000000000, -0.000000000000000000, -1.000000000000000000 ) ) ;
#229 = ADVANCED_FACE ( 'NONE', ( #312 ), #377, .F. ) ;
#230 = CARTESIAN_POINT ( 'NONE',  ( 8.500000000018568258, 28.29999999999581561, 8.000000000000000000 ) ) ;
#231 = AXIS2_PLACEMENT_3D ( 'NONE', #503, #864, #507 ) ;
#232 = FACE_OUTER_BOUND ( 'NONE', #61, .T. ) ;
#233 = VECTOR ( 'NONE', #647, 1000.000000000000000 ) ;
#234 = ORIENTED_EDGE ( 'NONE', *, *, #211, .F. ) ;
#235 = CARTESIAN_POINT ( 'NONE',  ( 69.70000000000000284, 4.200000000000000178, 12.00000000000000000 ) ) ;
#236 = CARTESIAN_POINT ( 'NONE',  ( 90.30000000000001137, 4.200000000000000178, 0.000000000000000000 ) ) ;
#237 = PLANE ( 'NONE',  #25 ) ;
#238 = ORIENTED_EDGE ( 'NONE', *, *, #814, .F. ) ;
#239 = DIRECTION ( 'NONE',  ( 0.000000000000000000, 1.000000000000000000, 0.000000000000000000 ) ) ;
#240 = DIRECTION ( 'NONE',  ( 0.000000000000000000, 0.000000000000000000, -1.000000000000000000 ) ) ;
#241 = CARTESIAN_POINT ( 'NONE',  ( 69.70000000000000284, 0.000000000000000000, 0.000000000000000000 ) ) ;
#242 = EDGE_CURVE ( 'NONE', #533, #449, #656, .T. ) ;
#243 = ORIENTED_EDGE ( 'NONE', *, *, #524, .F. ) ;
#244 = DIRECTION ( 'NONE',  ( 1.000000000000000000, 0.000000000000000000, 0.000000000000000000 ) ) ;
#245 = SURFACE_STYLE_USAGE ( .BOTH. , #860 ) ;
#246 = ORIENTED_EDGE ( 'NONE', *, *, #306, .T. ) ;
#247 = AXIS2_PLACEMENT_3D ( 'NONE', #608, #821, #545 ) ;
#248 = CARTESIAN_POINT ( 'NONE',  ( 5.050000000018568969, 28.29999999999581561, 8.000000000000000000 ) ) ;
#249 = FACE_OUTER_BOUND ( 'NONE', #685, .T. ) ;
#250 = VERTEX_POINT ( 'NONE', #719 ) ;
#251 = ADVANCED_FACE ( 'NONE', ( #853 ), #237, .F. ) ;
#252 = CARTESIAN_POINT ( 'NONE',  ( 0.000000000000000000, 69.70000000000000284, 12.00000000000000000 ) ) ;
#253 = VERTEX_POINT ( 'NONE', #845 ) ;
#254 = CARTESIAN_POINT ( 'NONE',  ( 164.0000000000000000, 70.00000000000000000, 0.000000000000000000 ) ) ;
#255 = EDGE_LOOP ( 'NONE', ( #574, #543, #189, #578 ) ) ;
#256 = ORIENTED_EDGE ( 'NONE', *, *, #520, .T. ) ;
#257 = VECTOR ( 'NONE', #510, 1000.000000000000000 ) ;
#258 = DIRECTION ( 'NONE',  ( 0.000000000000000000, 1.000000000000000000, 0.000000000000000000 ) ) ;
#259 = ORIENTED_EDGE ( 'NONE', *, *, #728, .F. ) ;
#260 = ORIENTED_EDGE ( 'NONE', *, *, #318, .T. ) ;
#261 = DIRECTION ( 'NONE',  ( 0.000000000000000000, -1.000000000000000000, 0.000000000000000000 ) ) ;
#262 = ADVANCED_FACE ( 'NONE', ( #232 ), #316, .F. ) ;
#263 = ORIENTED_EDGE ( 'NONE', *, *, #148, .F. ) ;
#264 = ORIENTED_EDGE ( 'NONE', *, *, #704, .T. ) ;
#265 = FACE_OUTER_BOUND ( 'NONE', #406, .T. ) ;
#266 = ORIENTED_EDGE ( 'NONE', *, *, #424, .T. ) ;
#267 = EDGE_CURVE ( 'NONE', #123, #213, #869, .T. ) ;
#268 = ORIENTED_EDGE ( 'NONE', *, *, #739, .F. ) ;
#269 = CIRCLE ( 'NONE', #120, 3.449999999999999734 ) ;
#270 = DIRECTION ( 'NONE',  ( -0.000000000000000000, -0.000000000000000000, 1.000000000000000000 ) ) ;
#271 = CARTESIAN_POINT ( 'NONE',  ( 0.000000000000000000, 160.0000000000000000, 0.000000000000000000 ) ) ;
#272 = ORIENTED_EDGE ( 'NONE', *, *, #520, .F. ) ;
#273 = DIRECTION ( 'NONE',  ( 0.000000000000000000, 1.000000000000000000, 0.000000000000000000 ) ) ;
#274 = EDGE_CURVE ( 'NONE', #334, #876, #53, .T. ) ;
#275 = LINE ( 'NONE', #16, #119 ) ;
#276 = CARTESIAN_POINT ( 'NONE',  ( 90.30000000000001137, 4.200000000000000178, 12.00000000000000000 ) ) ;
#277 = ORIENTED_EDGE ( 'NONE', *, *, #385, .F. ) ;
#278 = CARTESIAN_POINT ( 'NONE',  ( 164.0000000000000000, 90.00000000000000000, 12.00000000000000000 ) ) ;
#279 = FACE_OUTER_BOUND ( 'NONE', #102, .T. ) ;
#280 = LINE ( 'NONE', #82, #802 ) ;
#281 = ORIENTED_EDGE ( 'NONE', *, *, #562, .T. ) ;
#282 = DIRECTION ( 'NONE',  ( -1.000000000000000000, 0.000000000000000000, 0.000000000000000000 ) ) ;
#283 = VECTOR ( 'NONE', #831, 1000.000000000000000 ) ;
#284 = DIRECTION ( 'NONE',  ( -0.000000000000000000, -0.000000000000000000, -1.000000000000000000 ) ) ;
#285 = AXIS2_PLACEMENT_3D ( 'NONE', #59, #258, #192 ) ;
#286 = LINE ( 'NONE', #550, #790 ) ;
#287 = EDGE_LOOP ( 'NONE', ( #561, #296, #411, #557 ) ) ;
#288 = CARTESIAN_POINT ( 'NONE',  ( 0.000000000000000000, 160.0000000000000000, 12.00000000000000000 ) ) ;
#289 = CARTESIAN_POINT ( 'NONE',  ( 90.30000000000001137, 4.200000000000000178, 12.00000000000000000 ) ) ;
#290 = DIRECTION ( 'NONE',  ( 1.000000000000000000, 0.000000000000000000, 0.000000000000000000 ) ) ;
#291 = ADVANCED_FACE ( 'NONE', ( #265 ), #457, .F. ) ;
#292 = VERTEX_POINT ( 'NONE', #731 ) ;
#293 = DIRECTION ( 'NONE',  ( 0.000000000000000000, -1.000000000000000000, 0.000000000000000000 ) ) ;
#294 = FACE_OUTER_BOUND ( 'NONE', #627, .T. ) ;
#295 = DIRECTION ( 'NONE',  ( -0.000000000000000000, 0.000000000000000000, -1.000000000000000000 ) ) ;
#296 = ORIENTED_EDGE ( 'NONE', *, *, #690, .F. ) ;
#297 = PRODUCT ( 'CNC_Cage_Base_UR', 'CNC_Cage_Base_UR', '', ( #810 ) ) ;
#298 = LINE ( 'NONE', #505, #338 ) ;
#299 = CLOSED_SHELL ( 'NONE', ( #262, #229, #744, #160, #651, #825, #223, #473, #837, #97, #492, #606, #291, #749, #767, #721, #58, #186, #596, #251, #754, #369, #463, #623, #820, #325, #581, #3 ) ) ;
#300 = CARTESIAN_POINT ( 'NONE',  ( 160.0000000000000000, 70.00000000000000000, 12.00000000000000000 ) ) ;
#301 = VECTOR ( 'NONE', #144, 1000.000000000000000 ) ;
#302 = FILL_AREA_STYLE ('',( #308 ) ) ;
#303 = AXIS2_PLACEMENT_3D ( 'NONE', #11, #628, #73 ) ;
#304 = ORIENTED_EDGE ( 'NONE', *, *, #500, .T. ) ;
#305 = CARTESIAN_POINT ( 'NONE',  ( 160.0000000000000000, 160.0000000000000000, 12.00000000000000000 ) ) ;
#306 = EDGE_CURVE ( 'NONE', #399, #878, #432, .T. ) ;
#307 = PLANE ( 'NONE',  #216 ) ;
#308 = FILL_AREA_STYLE_COLOUR ( '', #481 ) ;
#309 = ORIENTED_EDGE ( 'NONE', *, *, #85, .F. ) ;
#310 = CARTESIAN_POINT ( 'NONE',  ( 160.0000000000000000, 90.00000000000000000, 12.00000000000000000 ) ) ;
#311 = LINE ( 'NONE', #300, #528 ) ;
#312 = FACE_OUTER_BOUND ( 'NONE', #664, .T. ) ;
#313 = ORIENTED_EDGE ( 'NONE', *, *, #555, .T. ) ;
#314 = CARTESIAN_POINT ( 'NONE',  ( 134.7499999999999716, 134.7499999999999716, 7.000000000000000000 ) ) ;
#315 = VECTOR ( 'NONE', #244, 1000.000000000000000 ) ;
#316 = CYLINDRICAL_SURFACE ( 'NONE', #231, 3.449999999999999734 ) ;
#317 = VECTOR ( 'NONE', #147, 1000.000000000000000 ) ;
#318 = EDGE_CURVE ( 'NONE', #188, #33, #402, .T. ) ;
#319 = ORIENTED_EDGE ( 'NONE', *, *, #632, .T. ) ;
#320 = VECTOR ( 'NONE', #763, 1000.000000000000000 ) ;
#321 = DIRECTION ( 'NONE',  ( 0.000000000000000000, 1.000000000000000000, 0.000000000000000000 ) ) ;
#322 = APPLICATION_CONTEXT ( 'automotive_design' ) ;
#323 = CARTESIAN_POINT ( 'NONE',  ( 8.500000000018568258, 28.29999999999581561, 0.000000000000000000 ) ) ;
#324 = CARTESIAN_POINT ( 'NONE',  ( 8.500000000018513191, 28.29999999999575877, 12.00000000000000000 ) ) ;
#325 = ADVANCED_FACE ( 'NONE', ( #125 ), #807, .T. ) ;
#326 = DIRECTION ( 'NONE',  ( -1.000000000000000000, 0.000000000000000000, -0.000000000000000000 ) ) ;
#327 = ORIENTED_EDGE ( 'NONE', *, *, #85, .T. ) ;
#328 = DIRECTION ( 'NONE',  ( 0.000000000000000000, -1.000000000000000000, 0.000000000000000000 ) ) ;
#329 = EDGE_LOOP ( 'NONE', ( #107, #330, #491, #679 ) ) ;
#330 = ORIENTED_EDGE ( 'NONE', *, *, #549, .F. ) ;
#331 = VECTOR ( 'NONE', #261, 1000.000000000000000 ) ;
#332 = EDGE_CURVE ( 'NONE', #33, #439, #451, .T. ) ;
#333 = LINE ( 'NONE', #877, #331 ) ;
#334 = VERTEX_POINT ( 'NONE', #335 ) ;
#335 = CARTESIAN_POINT ( 'NONE',  ( 134.7499999999999716, 134.7499999999999716, 12.00000000000000000 ) ) ;
#336 = EDGE_CURVE ( 'NONE', #466, #666, #848, .T. ) ;
#337 = ORIENTED_EDGE ( 'NONE', *, *, #696, .F. ) ;
#338 = VECTOR ( 'NONE', #567, 1000.000000000000000 ) ;
#339 = CARTESIAN_POINT ( 'NONE',  ( 134.7499999999999716, 134.7499999999999716, 7.000000000000000000 ) ) ;
#340 = FACE_BOUND ( 'NONE', #68, .T. ) ;
#341 = EDGE_CURVE ( 'NONE', #527, #761, #629, .T. ) ;
#342 = CARTESIAN_POINT ( 'NONE',  ( 90.30000000000001137, 0.000000000000000000, 12.00000000000000000 ) ) ;
#343 = AXIS2_PLACEMENT_3D ( 'NONE', #94, #80, #423 ) ;
#344 = DIRECTION ( 'NONE',  ( 0.000000000000000000, 1.000000000000000000, 0.000000000000000000 ) ) ;
#345 = LINE ( 'NONE', #836, #106 ) ;
#346 = ORIENTED_EDGE ( 'NONE', *, *, #618, .T. ) ;
#347 = PLANE ( 'NONE',  #303 ) ;
#348 = CARTESIAN_POINT ( 'NONE',  ( 0.000000000000000000, 0.000000000000000000, 12.00000000000000000 ) ) ;
#349 = CARTESIAN_POINT ( 'NONE',  ( 134.7499999999999716, 134.7499999999999716, 7.000000000000000000 ) ) ;
#350 = ORIENTED_EDGE ( 'NONE', *, *, #111, .T. ) ;
#351 = LINE ( 'NONE', #488, #415 ) ;
#352 = LINE ( 'NONE', #139, #803 ) ;
#353 = CARTESIAN_POINT ( 'NONE',  ( 90.30000000000001137, 4.200000000000000178, 12.00000000000000000 ) ) ;
#354 =( GEOMETRIC_REPRESENTATION_CONTEXT ( 3 ) GLOBAL_UNCERTAINTY_ASSIGNED_CONTEXT ( ( #605 ) ) GLOBAL_UNIT_ASSIGNED_CONTEXT ( ( #794, #375, #718 ) ) REPRESENTATION_CONTEXT ( 'NONE', 'WORKASPACE' ) );
#355 = VERTEX_POINT ( 'NONE', #63 ) ;
#356 = CARTESIAN_POINT ( 'NONE',  ( 90.30000000000001137, 4.200000000000000178, 0.000000000000000000 ) ) ;
#357 = LINE ( 'NONE', #289, #6 ) ;
#358 = VECTOR ( 'NONE', #478, 1000.000000000000000 ) ;
#359 = EDGE_CURVE ( 'NONE', #33, #842, #55, .T. ) ;
#360 = DIRECTION ( 'NONE',  ( -0.000000000000000000, -0.000000000000000000, 1.000000000000000000 ) ) ;
#361 = VERTEX_POINT ( 'NONE', #254 ) ;
#362 = FACE_OUTER_BOUND ( 'NONE', #287, .T. ) ;
#363 = FACE_OUTER_BOUND ( 'NONE', #166, .T. ) ;
#364 = DIRECTION ( 'NONE',  ( 0.000000000000000000, 1.000000000000000000, 0.000000000000000000 ) ) ;
#365 = EDGE_LOOP ( 'NONE', ( #621, #637, #30, #476 ) ) ;
#366 = FACE_OUTER_BOUND ( 'NONE', #512, .T. ) ;
#367 = DIRECTION ( 'NONE',  ( 1.000000000000000000, 0.000000000000000000, 0.000000000000000000 ) ) ;
#368 = ORIENTED_EDGE ( 'NONE', *, *, #728, .T. ) ;
#369 = ADVANCED_FACE ( 'NONE', ( #392 ), #525, .F. ) ;
#370 = PLANE ( 'NONE',  #624 ) ;
#371 = CARTESIAN_POINT ( 'NONE',  ( 160.0000000000000000, 0.000000000000000000, 12.00000000000000000 ) ) ;
#372 = VECTOR ( 'NONE', #364, 1000.000000000000000 ) ;
#373 = VECTOR ( 'NONE', #707, 1000.000000000000000 ) ;
#374 = ORIENTED_EDGE ( 'NONE', *, *, #332, .T. ) ;
#375 =( NAMED_UNIT ( * ) PLANE_ANGLE_UNIT ( ) SI_UNIT ( $, .RADIAN. ) );
#376 = DIRECTION ( 'NONE',  ( -0.000000000000000000, 0.000000000000000000, 1.000000000000000000 ) ) ;
#377 = CYLINDRICAL_SURFACE ( 'NONE', #725, 2.000000000000000000 ) ;
#378 = ORIENTED_EDGE ( 'NONE', *, *, #306, .F. ) ;
#379 = PLANE ( 'NONE',  #785 ) ;
#380 = EDGE_CURVE ( 'NONE', #213, #292, #592, .T. ) ;
#381 = CARTESIAN_POINT ( 'NONE',  ( 4.200000000000000178, 90.30000000000001137, 12.00000000000000000 ) ) ;
#382 = ORIENTED_EDGE ( 'NONE', *, *, #591, .T. ) ;
#383 = LINE ( 'NONE', #859, #523 ) ;
#384 = DIRECTION ( 'NONE',  ( -0.000000000000000000, -0.000000000000000000, -1.000000000000000000 ) ) ;
#385 = EDGE_CURVE ( 'NONE', #69, #361, #735, .T. ) ;
#386 = CIRCLE ( 'NONE', #570, 2.000000000000000000 ) ;
#387 = ORIENTED_EDGE ( 'NONE', *, *, #690, .T. ) ;
#388 = AXIS2_PLACEMENT_3D ( 'NONE', #559, #501, #240 ) ;
#389 = DIRECTION ( 'NONE',  ( 0.000000000000000000, 1.000000000000000000, 0.000000000000000000 ) ) ;
#390 = EDGE_LOOP ( 'NONE', ( #582, #98, #607, #551 ) ) ;
#391 = ADVANCED_BREP_SHAPE_REPRESENTATION ( 'CNC_Cage_Base_UR', ( #206, #19 ), #354 ) ;
#392 = FACE_OUTER_BOUND ( 'NONE', #390, .T. ) ;
#393 = ORIENTED_EDGE ( 'NONE', *, *, #713, .T. ) ;
#394 = APPLICATION_PROTOCOL_DEFINITION ( 'draft international standard', 'automotive_design', 1998, #638 ) ;
#395 = ORIENTED_EDGE ( 'NONE', *, *, #200, .F. ) ;
#396 = EDGE_CURVE ( 'NONE', #751, #694, #333, .T. ) ;
#397 = DIRECTION ( 'NONE',  ( 1.000000000000000000, 0.000000000000000000, 0.000000000000000000 ) ) ;
#398 = VERTEX_POINT ( 'NONE', #534 ) ;
#399 = VERTEX_POINT ( 'NONE', #196 ) ;
#400 = AXIS2_PLACEMENT_3D ( 'NONE', #597, #670, #665 ) ;
#401 = EDGE_CURVE ( 'NONE', #79, #654, #386, .T. ) ;
#402 = LINE ( 'NONE', #184, #791 ) ;
#403 = ORIENTED_EDGE ( 'NONE', *, *, #632, .F. ) ;
#404 = FACE_OUTER_BOUND ( 'NONE', #255, .T. ) ;
#405 = EDGE_CURVE ( 'NONE', #208, #175, #132, .T. ) ;
#406 = EDGE_LOOP ( 'NONE', ( #547, #813, #797, #736 ) ) ;
#407 = EDGE_LOOP ( 'NONE', ( #862, #195, #595, #757 ) ) ;
#408 = DIRECTION ( 'NONE',  ( 0.000000000000000000, -0.000000000000000000, -1.000000000000000000 ) ) ;
#409 = CARTESIAN_POINT ( 'NONE',  ( 155.2500000000000000, 155.2500000000000000, 7.000000000000000000 ) ) ;
#410 = DIRECTION ( 'NONE',  ( 0.000000000000000000, -0.000000000000000000, -1.000000000000000000 ) ) ;
#411 = ORIENTED_EDGE ( 'NONE', *, *, #851, .F. ) ;
#412 = VECTOR ( 'NONE', #360, 1000.000000000000000 ) ;
#413 = CARTESIAN_POINT ( 'NONE',  ( 160.0000000000000000, 90.00000000000000000, 12.00000000000000000 ) ) ;
#414 = VECTOR ( 'NONE', #537, 1000.000000000000000 ) ;
#415 = VECTOR ( 'NONE', #150, 1000.000000000000000 ) ;
#416 = LINE ( 'NONE', #135, #190 ) ;
#417 = LINE ( 'NONE', #479, #118 ) ;
#418 = ORIENTED_EDGE ( 'NONE', *, *, #591, .F. ) ;
#419 = DIRECTION ( 'NONE',  ( -1.000000000000000000, 0.000000000000000000, 0.000000000000000000 ) ) ;
#420 = LINE ( 'NONE', #625, #301 ) ;
#421 = DIRECTION ( 'NONE',  ( -1.000000000000000000, 0.000000000000000000, 0.000000000000000000 ) ) ;
#422 = ORIENTED_EDGE ( 'NONE', *, *, #180, .F. ) ;
#423 = DIRECTION ( 'NONE',  ( 0.000000000000000000, 0.000000000000000000, 1.000000000000000000 ) ) ;
#424 = EDGE_CURVE ( 'NONE', #79, #761, #604, .T. ) ;
#425 = LINE ( 'NONE', #90, #817 ) ;
#426 = DIRECTION ( 'NONE',  ( -0.000000000000000000, -0.000000000000000000, -1.000000000000000000 ) ) ;
#427 = VERTEX_POINT ( 'NONE', #662 ) ;
#428 = FACE_OUTER_BOUND ( 'NONE', #171, .T. ) ;
#429 = VECTOR ( 'NONE', #626, 1000.000000000000000 ) ;
#430 = EDGE_CURVE ( 'NONE', #38, #658, #151, .T. ) ;
#431 = FACE_OUTER_BOUND ( 'NONE', #329, .T. ) ;
#432 = CIRCLE ( 'NONE', #39, 3.449999999999999734 ) ;
#433 = CARTESIAN_POINT ( 'NONE',  ( 0.000000000000000000, 160.0000000000000000, 12.00000000000000000 ) ) ;
#434 = EDGE_LOOP ( 'NONE', ( #281, #587, #649, #65 ) ) ;
#435 = DIRECTION ( 'NONE',  ( -0.000000000000000000, 0.000000000000000000, -1.000000000000000000 ) ) ;
#436 = FACE_OUTER_BOUND ( 'NONE', #222, .T. ) ;
#437 = CARTESIAN_POINT ( 'NONE',  ( 4.200000000000000178, 69.70000000000000284, 12.00000000000000000 ) ) ;
#438 = EDGE_CURVE ( 'NONE', #793, #462, #275, .T. ) ;
#439 = VERTEX_POINT ( 'NONE', #348 ) ;
#440 = DIRECTION ( 'NONE',  ( 1.000000000000000000, 0.000000000000000000, 0.000000000000000000 ) ) ;
#441 = LINE ( 'NONE', #32, #445 ) ;
#442 = DIRECTION ( 'NONE',  ( -0.000000000000000000, -0.000000000000000000, -1.000000000000000000 ) ) ;
#443 = ORIENTED_EDGE ( 'NONE', *, *, #684, .F. ) ;
#444 = PLANE ( 'NONE',  #714 ) ;
#445 = VECTOR ( 'NONE', #564, 1000.000000000000000 ) ;
#446 = FACE_OUTER_BOUND ( 'NONE', #538, .T. ) ;
#447 = ORIENTED_EDGE ( 'NONE', *, *, #111, .F. ) ;
#448 = DIRECTION ( 'NONE',  ( -1.000000000000000000, 0.000000000000000000, 0.000000000000000000 ) ) ;
#449 = VERTEX_POINT ( 'NONE', #474 ) ;
#450 = EDGE_CURVE ( 'NONE', #669, #130, #416, .T. ) ;
#451 = LINE ( 'NONE', #252, #514 ) ;
#452 = VERTEX_POINT ( 'NONE', #210 ) ;
#453 = CARTESIAN_POINT ( 'NONE',  ( 8.500000000018568258, 28.29999999999581561, 8.000000000000000000 ) ) ;
#454 = VECTOR ( 'NONE', #389, 1000.000000000000000 ) ;
#455 = ORIENTED_EDGE ( 'NONE', *, *, #873, .F. ) ;
#456 = VECTOR ( 'NONE', #168, 1000.000000000000000 ) ;
#457 = PLANE ( 'NONE',  #285 ) ;
#458 = EDGE_CURVE ( 'NONE', #427, #508, #835, .T. ) ;
#459 = ORIENTED_EDGE ( 'NONE', *, *, #866, .F. ) ;
#460 = ORIENTED_EDGE ( 'NONE', *, *, #798, .F. ) ;
#461 = DIRECTION ( 'NONE',  ( -0.000000000000000000, 0.000000000000000000, 1.000000000000000000 ) ) ;
#462 = VERTEX_POINT ( 'NONE', #614 ) ;
#463 = ADVANCED_FACE ( 'NONE', ( #619 ), #156, .F. ) ;
#464 = ORIENTED_EDGE ( 'NONE', *, *, #242, .F. ) ;
#465 = CARTESIAN_POINT ( 'NONE',  ( 8.500000000018513191, 28.29999999999575877, 12.00000000000000000 ) ) ;
#466 = VERTEX_POINT ( 'NONE', #205 ) ;
#467 = ORIENTED_EDGE ( 'NONE', *, *, #663, .F. ) ;
#468 = VECTOR ( 'NONE', #857, 1000.000000000000000 ) ;
#469 = EDGE_CURVE ( 'NONE', #188, #694, #548, .T. ) ;
#470 = CARTESIAN_POINT ( 'NONE',  ( 69.70000000000000284, 4.200000000000000178, 12.00000000000000000 ) ) ;
#471 = CARTESIAN_POINT ( 'NONE',  ( 8.500000000018568258, 28.29999999999581561, 8.000000000000000000 ) ) ;
#472 = PLANE ( 'NONE',  #165 ) ;
#473 = ADVANCED_FACE ( 'NONE', ( #279 ), #830, .F. ) ;
#474 = CARTESIAN_POINT ( 'NONE',  ( 69.70000000000000284, 4.200000000000000178, 0.000000000000000000 ) ) ;
#475 = DIRECTION ( 'NONE',  ( -0.000000000000000000, -0.000000000000000000, -1.000000000000000000 ) ) ;
#476 = ORIENTED_EDGE ( 'NONE', *, *, #180, .T. ) ;
#477 = CARTESIAN_POINT ( 'NONE',  ( 160.0000000000000000, 90.00000000000000000, 12.00000000000000000 ) ) ;
#478 = DIRECTION ( 'NONE',  ( -0.000000000000000000, -0.000000000000000000, -1.000000000000000000 ) ) ;
#479 = CARTESIAN_POINT ( 'NONE',  ( 164.0000000000000000, 70.00000000000000000, 12.00000000000000000 ) ) ;
#480 = ORIENTED_EDGE ( 'NONE', *, *, #380, .T. ) ;
#481 = COLOUR_RGB ( '',0.7921568627450980005, 0.8196078431372548767, 0.9333333333333333481 ) ;
#482 = DIRECTION ( 'NONE',  ( -0.000000000000000000, -0.000000000000000000, -1.000000000000000000 ) ) ;
#483 = VECTOR ( 'NONE', #173, 1000.000000000000000 ) ;
#484 = CARTESIAN_POINT ( 'NONE',  ( 4.200000000000000178, 69.70000000000000284, 12.00000000000000000 ) ) ;
#485 = PLANE ( 'NONE',  #23 ) ;
#486 = EDGE_CURVE ( 'NONE', #730, #141, #81, .T. ) ;
#487 = ORIENTED_EDGE ( 'NONE', *, *, #148, .T. ) ;
#488 = CARTESIAN_POINT ( 'NONE',  ( 155.2500000000000000, 134.7499999999999716, 12.00000000000000000 ) ) ;
#489 = CARTESIAN_POINT ( 'NONE',  ( 4.200000000000000178, 90.30000000000001137, 12.00000000000000000 ) ) ;
#490 = FACE_OUTER_BOUND ( 'NONE', #529, .T. ) ;
#491 = ORIENTED_EDGE ( 'NONE', *, *, #787, .F. ) ;
#492 = ADVANCED_FACE ( 'NONE', ( #404 ), #745, .F. ) ;
#493 = CARTESIAN_POINT ( 'NONE',  ( 10.50000000001851319, 28.29999999999575877, 8.000000000000000000 ) ) ;
#494 = CARTESIAN_POINT ( 'NONE',  ( 0.000000000000000000, 90.30000000000001137, 0.000000000000000000 ) ) ;
#495 = CARTESIAN_POINT ( 'NONE',  ( 160.0000000000000000, 70.00000000000000000, 0.000000000000000000 ) ) ;
#496 = ORIENTED_EDGE ( 'NONE', *, *, #22, .T. ) ;
#497 = LINE ( 'NONE', #513, #594 ) ;
#498 = AXIS2_PLACEMENT_3D ( 'NONE', #324, #590, #770 ) ;
#499 = VECTOR ( 'NONE', #681, 1000.000000000000000 ) ;
#500 = EDGE_CURVE ( 'NONE', #127, #141, #420, .T. ) ;
#501 = DIRECTION ( 'NONE',  ( 1.000000000000000000, -0.000000000000000000, 0.000000000000000000 ) ) ;
#502 = VECTOR ( 'NONE', #95, 1000.000000000000000 ) ;
#503 = CARTESIAN_POINT ( 'NONE',  ( 8.500000000018568258, 28.29999999999581561, 8.000000000000000000 ) ) ;
#504 = EDGE_LOOP ( 'NONE', ( #801, #259 ) ) ;
#505 = CARTESIAN_POINT ( 'NONE',  ( 164.0000000000000000, 70.00000000000000000, 0.000000000000000000 ) ) ;
#506 = DIRECTION ( 'NONE',  ( -1.000000000000000000, 0.000000000000000000, 0.000000000000000000 ) ) ;
#507 = DIRECTION ( 'NONE',  ( -1.000000000000000000, 0.000000000000000000, 0.000000000000000000 ) ) ;
#508 = VERTEX_POINT ( 'NONE', #692 ) ;
#509 = CARTESIAN_POINT ( 'NONE',  ( 155.2500000000000000, 134.7499999999999716, 12.00000000000000000 ) ) ;
#510 = DIRECTION ( 'NONE',  ( -0.000000000000000000, -0.000000000000000000, 1.000000000000000000 ) ) ;
#511 = PRESENTATION_STYLE_ASSIGNMENT (( #245 ) ) ;
#512 = EDGE_LOOP ( 'NONE', ( #133, #26, #198, #788 ) ) ;
#513 = CARTESIAN_POINT ( 'NONE',  ( 155.2500000000000000, 134.7499999999999716, 7.000000000000000000 ) ) ;
#514 = VECTOR ( 'NONE', #328, 1000.000000000000000 ) ;
#515 =( NAMED_UNIT ( * ) SI_UNIT ( $, .STERADIAN. ) SOLID_ANGLE_UNIT ( ) );
#516 = ORIENTED_EDGE ( 'NONE', *, *, #318, .F. ) ;
#517 = EDGE_CURVE ( 'NONE', #123, #175, #352, .T. ) ;
#518 = DIRECTION ( 'NONE',  ( -1.000000000000000000, 0.000000000000000000, 0.000000000000000000 ) ) ;
#519 = EDGE_LOOP ( 'NONE', ( #113, #243, #443, #858 ) ) ;
#520 = EDGE_CURVE ( 'NONE', #355, #188, #220, .T. ) ;
#521 = DIRECTION ( 'NONE',  ( 1.000000000000000000, 0.000000000000000000, 0.000000000000000000 ) ) ;
#522 = ORIENTED_EDGE ( 'NONE', *, *, #49, .T. ) ;
#523 = VECTOR ( 'NONE', #228, 1000.000000000000000 ) ;
#524 = EDGE_CURVE ( 'NONE', #709, #669, #425, .T. ) ;
#525 = PLANE ( 'NONE',  #201 ) ;
#526 = VECTOR ( 'NONE', #66, 1000.000000000000000 ) ;
#527 = VERTEX_POINT ( 'NONE', #70 ) ;
#528 = VECTOR ( 'NONE', #571, 1000.000000000000000 ) ;
#529 = EDGE_LOOP ( 'NONE', ( #382, #158, #611, #487 ) ) ;
#530 = CARTESIAN_POINT ( 'NONE',  ( 0.000000000000000000, 69.70000000000000284, 12.00000000000000000 ) ) ;
#531 = EDGE_CURVE ( 'NONE', #398, #782, #357, .T. ) ;
#532 = ORIENTED_EDGE ( 'NONE', *, *, #618, .F. ) ;
#533 = VERTEX_POINT ( 'NONE', #816 ) ;
#534 = CARTESIAN_POINT ( 'NONE',  ( 90.30000000000001137, 4.200000000000000178, 12.00000000000000000 ) ) ;
#535 = ORIENTED_EDGE ( 'NONE', *, *, #500, .F. ) ;
#536 = EDGE_CURVE ( 'NONE', #689, #449, #202, .T. ) ;
#537 = DIRECTION ( 'NONE',  ( 1.000000000000000000, 0.000000000000000000, 0.000000000000000000 ) ) ;
#538 = EDGE_LOOP ( 'NONE', ( #110, #56, #603, #126 ) ) ;
#539 = VECTOR ( 'NONE', #799, 1000.000000000000000 ) ;
#540 = EDGE_CURVE ( 'NONE', #38, #334, #541, .T. ) ;
#541 = LINE ( 'NONE', #339, #145 ) ;
#542 = CARTESIAN_POINT ( 'NONE',  ( 160.0000000000000000, 160.0000000000000000, 12.00000000000000000 ) ) ;
#543 = ORIENTED_EDGE ( 'NONE', *, *, #517, .F. ) ;
#544 = CARTESIAN_POINT ( 'NONE',  ( 0.000000000000000000, 90.30000000000001137, 12.00000000000000000 ) ) ;
#545 = DIRECTION ( 'NONE',  ( 0.000000000000000000, -0.000000000000000000, 1.000000000000000000 ) ) ;
#546 = DIRECTION ( 'NONE',  ( -0.000000000000000000, 0.000000000000000000, -1.000000000000000000 ) ) ;
#547 = ORIENTED_EDGE ( 'NONE', *, *, #385, .T. ) ;
#548 = LINE ( 'NONE', #484, #163 ) ;
#549 = EDGE_CURVE ( 'NONE', #253, #452, #748, .T. ) ;
#550 = CARTESIAN_POINT ( 'NONE',  ( 6.500000000018513191, 28.29999999999575877, 12.00000000000000000 ) ) ;
#551 = ORIENTED_EDGE ( 'NONE', *, *, #458, .T. ) ;
#552 = DIRECTION ( 'NONE',  ( -1.000000000000000000, 0.000000000000000000, 0.000000000000000000 ) ) ;
#553 = STYLED_ITEM ( 'NONE', ( #511 ), #206 ) ;
#554 = DIRECTION ( 'NONE',  ( 1.000000000000000000, 0.000000000000000000, 0.000000000000000000 ) ) ;
#555 = EDGE_CURVE ( 'NONE', #782, #123, #775, .T. ) ;
#556 = FACE_BOUND ( 'NONE', #672, .T. ) ;
#557 = ORIENTED_EDGE ( 'NONE', *, *, #524, .T. ) ;
#558 = DIRECTION ( 'NONE',  ( 0.000000000000000000, 0.000000000000000000, -1.000000000000000000 ) ) ;
#559 = CARTESIAN_POINT ( 'NONE',  ( 155.2500000000000000, 134.7499999999999716, 7.000000000000000000 ) ) ;
#560 = LINE ( 'NONE', #841, #815 ) ;
#561 = ORIENTED_EDGE ( 'NONE', *, *, #450, .T. ) ;
#562 = EDGE_CURVE ( 'NONE', #842, #809, #711, .T. ) ;
#563 = LINE ( 'NONE', #138, #661 ) ;
#564 = DIRECTION ( 'NONE',  ( 0.000000000000000000, -1.000000000000000000, 0.000000000000000000 ) ) ;
#565 = DIRECTION ( 'NONE',  ( 0.000000000000000000, 1.000000000000000000, 0.000000000000000000 ) ) ;
#566 = ORIENTED_EDGE ( 'NONE', *, *, #851, .T. ) ;
#567 = DIRECTION ( 'NONE',  ( 0.000000000000000000, 1.000000000000000000, 0.000000000000000000 ) ) ;
#568 = VECTOR ( 'NONE', #620, 1000.000000000000000 ) ;
#569 = EDGE_CURVE ( 'NONE', #427, #38, #441, .T. ) ;
#570 = AXIS2_PLACEMENT_3D ( 'NONE', #465, #722, #740 ) ;
#571 = DIRECTION ( 'NONE',  ( -0.000000000000000000, -0.000000000000000000, -1.000000000000000000 ) ) ;
#572 = CIRCLE ( 'NONE', #191, 3.449999999999999734 ) ;
#573 = DIRECTION ( 'NONE',  ( -1.000000000000000000, 0.000000000000000000, 0.000000000000000000 ) ) ;
#574 = ORIENTED_EDGE ( 'NONE', *, *, #405, .T. ) ;
#575 = CARTESIAN_POINT ( 'NONE',  ( 0.000000000000000000, 69.70000000000000284, 12.00000000000000000 ) ) ;
#576 = DIRECTION ( 'NONE',  ( -0.000000000000000000, -0.000000000000000000, -1.000000000000000000 ) ) ;
#577 = CARTESIAN_POINT ( 'NONE',  ( 90.30000000000001137, 0.000000000000000000, 12.00000000000000000 ) ) ;
#578 = ORIENTED_EDGE ( 'NONE', *, *, #204, .T. ) ;
#579 = FACE_OUTER_BOUND ( 'NONE', #593, .T. ) ;
#580 = CARTESIAN_POINT ( 'NONE',  ( 155.2500000000000000, 134.7499999999999716, 7.000000000000000000 ) ) ;
#581 = ADVANCED_FACE ( 'NONE', ( #294 ), #769, .F. ) ;
#582 = ORIENTED_EDGE ( 'NONE', *, *, #169, .T. ) ;
#583 = LINE ( 'NONE', #305, #737 ) ;
#584 = VECTOR ( 'NONE', #72, 1000.000000000000000 ) ;
#585 = AXIS2_PLACEMENT_3D ( 'NONE', #96, #636, #182 ) ;
#586 = PRODUCT_DEFINITION ( 'General', '', #657, #136 ) ;
#587 = ORIENTED_EDGE ( 'NONE', *, *, #673, .F. ) ;
#588 = DIRECTION ( 'NONE',  ( 1.000000000000000000, 0.000000000000000000, 0.000000000000000000 ) ) ;
#589 = CARTESIAN_POINT ( 'NONE',  ( 8.500000000018513191, 28.29999999999575877, 8.000000000000000000 ) ) ;
#590 = DIRECTION ( 'NONE',  ( 0.000000000000000000, 0.000000000000000000, 1.000000000000000000 ) ) ;
#591 = EDGE_CURVE ( 'NONE', #743, #208, #177, .T. ) ;
#592 = LINE ( 'NONE', #805, #52 ) ;
#593 = EDGE_LOOP ( 'NONE', ( #9, #263, #129, #50 ) ) ;
#594 = VECTOR ( 'NONE', #321, 1000.000000000000000 ) ;
#595 = ORIENTED_EDGE ( 'NONE', *, *, #267, .F. ) ;
#596 = ADVANCED_FACE ( 'NONE', ( #363 ), #307, .F. ) ;
#597 = CARTESIAN_POINT ( 'NONE',  ( 0.000000000000000000, 0.000000000000000000, 7.000000000000000000 ) ) ;
#598 = AXIS2_PLACEMENT_3D ( 'NONE', #75, #215, #21 ) ;
#599 = ORIENTED_EDGE ( 'NONE', *, *, #469, .T. ) ;
#600 = ORIENTED_EDGE ( 'NONE', *, *, #396, .T. ) ;
#601 = DIRECTION ( 'NONE',  ( -1.000000000000000000, 0.000000000000000000, 0.000000000000000000 ) ) ;
#602 = ORIENTED_EDGE ( 'NONE', *, *, #438, .T. ) ;
#603 = ORIENTED_EDGE ( 'NONE', *, *, #795, .F. ) ;
#604 = LINE ( 'NONE', #1, #92 ) ;
#605 = UNCERTAINTY_MEASURE_WITH_UNIT (LENGTH_MEASURE( 1.000000000000000082E-05 ), #794, 'distance_accuracy_value', 'NONE');
#606 = ADVANCED_FACE ( 'NONE', ( #779 ), #444, .F. ) ;
#607 = ORIENTED_EDGE ( 'NONE', *, *, #569, .F. ) ;
#608 = CARTESIAN_POINT ( 'NONE',  ( 155.2500000000000000, 155.2500000000000000, 7.000000000000000000 ) ) ;
#609 = CARTESIAN_POINT ( 'NONE',  ( 0.000000000000000000, 69.70000000000000284, 12.00000000000000000 ) ) ;
#610 = MECHANICAL_DESIGN_GEOMETRIC_PRESENTATION_REPRESENTATION (  '', ( #553 ), #131 ) ;
#611 = ORIENTED_EDGE ( 'NONE', *, *, #531, .F. ) ;
#612 = AXIS2_PLACEMENT_3D ( 'NONE', #834, #747, #155 ) ;
#613 = DIRECTION ( 'NONE',  ( -0.000000000000000000, -0.000000000000000000, -1.000000000000000000 ) ) ;
#614 = CARTESIAN_POINT ( 'NONE',  ( 160.0000000000000000, 160.0000000000000000, 12.00000000000000000 ) ) ;
#615 = CARTESIAN_POINT ( 'NONE',  ( 10.50000000001851319, 28.29999999999575877, 12.00000000000000000 ) ) ;
#616 = ORIENTED_EDGE ( 'NONE', *, *, #438, .F. ) ;
#617 = CARTESIAN_POINT ( 'NONE',  ( 8.500000000018568258, 28.29999999999581561, 8.000000000000000000 ) ) ;
#618 = EDGE_CURVE ( 'NONE', #141, #250, #161, .T. ) ;
#619 = FACE_OUTER_BOUND ( 'NONE', #717, .T. ) ;
#620 = DIRECTION ( 'NONE',  ( -0.000000000000000000, -0.000000000000000000, -1.000000000000000000 ) ) ;
#621 = ORIENTED_EDGE ( 'NONE', *, *, #569, .T. ) ;
#622 = CARTESIAN_POINT ( 'NONE',  ( 4.200000000000000178, 69.70000000000000284, 0.000000000000000000 ) ) ;
#623 = ADVANCED_FACE ( 'NONE', ( #431 ), #42, .F. ) ;
#624 = AXIS2_PLACEMENT_3D ( 'NONE', #314, #172, #710 ) ;
#625 = CARTESIAN_POINT ( 'NONE',  ( 70.00000000000000000, 160.0000000000000000, 0.000000000000000000 ) ) ;
#626 = DIRECTION ( 'NONE',  ( -0.000000000000000000, -0.000000000000000000, -1.000000000000000000 ) ) ;
#627 = EDGE_LOOP ( 'NONE', ( #238, #337, #64, #668 ) ) ;
#628 = DIRECTION ( 'NONE',  ( 0.000000000000000000, -1.000000000000000000, 0.000000000000000000 ) ) ;
#629 = CIRCLE ( 'NONE', #772, 2.000000000000000000 ) ;
#630 = DIRECTION ( 'NONE',  ( -1.000000000000000000, 0.000000000000000000, 0.000000000000000000 ) ) ;
#631 = DIRECTION ( 'NONE',  ( 1.000000000000000000, 0.000000000000000000, -0.000000000000000000 ) ) ;
#632 = EDGE_CURVE ( 'NONE', #452, #508, #840, .T. ) ;
#633 = ORIENTED_EDGE ( 'NONE', *, *, #401, .F. ) ;
#634 = LINE ( 'NONE', #829, #77 ) ;
#635 = CARTESIAN_POINT ( 'NONE',  ( 0.000000000000000000, 69.70000000000000284, 0.000000000000000000 ) ) ;
#636 = DIRECTION ( 'NONE',  ( 0.000000000000000000, 1.000000000000000000, 0.000000000000000000 ) ) ;
#637 = ORIENTED_EDGE ( 'NONE', *, *, #430, .T. ) ;
#638 = APPLICATION_CONTEXT ( 'automotive_design' ) ;
#639 = CARTESIAN_POINT ( 'NONE',  ( 69.70000000000000284, 4.200000000000000178, 12.00000000000000000 ) ) ;
#640 = CARTESIAN_POINT ( 'NONE',  ( 6.500000000018513191, 28.29999999999575877, 12.00000000000000000 ) ) ;
#641 = VECTOR ( 'NONE', #239, 1000.000000000000000 ) ;
#642 = CARTESIAN_POINT ( 'NONE',  ( 90.30000000000001137, 0.000000000000000000, 0.000000000000000000 ) ) ;
#643 = ORIENTED_EDGE ( 'NONE', *, *, #486, .T. ) ;
#644 = LINE ( 'NONE', #855, #641 ) ;
#645 = AXIS2_PLACEMENT_3D ( 'NONE', #433, #170, #178 ) ;
#646 = VECTOR ( 'NONE', #397, 1000.000000000000000 ) ;
#647 = DIRECTION ( 'NONE',  ( 0.000000000000000000, -1.000000000000000000, 0.000000000000000000 ) ) ;
#648 =( NAMED_UNIT ( * ) PLANE_ANGLE_UNIT ( ) SI_UNIT ( $, .RADIAN. ) );
#649 = ORIENTED_EDGE ( 'NONE', *, *, #332, .F. ) ;
#650 = LINE ( 'NONE', #181, #315 ) ;
#651 = ADVANCED_FACE ( 'NONE', ( #715, #436 ), #109, .F. ) ;
#652 = DIRECTION ( 'NONE',  ( 1.000000000000000000, 0.000000000000000000, 0.000000000000000000 ) ) ;
#653 = LINE ( 'NONE', #776, #143 ) ;
#654 = VERTEX_POINT ( 'NONE', #640 ) ;
#655 = EDGE_CURVE ( 'NONE', #213, #69, #311, .T. ) ;
#656 = LINE ( 'NONE', #241, #683 ) ;
#657 = PRODUCT_DEFINITION_FORMATION_WITH_SPECIFIED_SOURCE ( 'Symmetric', '', #297, .NOT_KNOWN. ) ;
#658 = VERTEX_POINT ( 'NONE', #580 ) ;
#659 = DIRECTION ( 'NONE',  ( 0.000000000000000000, 0.000000000000000000, 1.000000000000000000 ) ) ;
#660 = PRESENTATION_LAYER_ASSIGNMENT (  '', '', ( #553 ) ) ;
#661 = VECTOR ( 'NONE', #680, 1000.000000000000000 ) ;
#662 = CARTESIAN_POINT ( 'NONE',  ( 134.7499999999999716, 155.2500000000000000, 7.000000000000000000 ) ) ;
#663 = EDGE_CURVE ( 'NONE', #250, #751, #225, .T. ) ;
#664 = EDGE_LOOP ( 'NONE', ( #800, #266, #368, #153 ) ) ;
#665 = DIRECTION ( 'NONE',  ( 1.000000000000000000, 0.000000000000000000, 0.000000000000000000 ) ) ;
#666 = VERTEX_POINT ( 'NONE', #27 ) ;
#667 = DIRECTION ( 'NONE',  ( 0.000000000000000000, 0.000000000000000000, -1.000000000000000000 ) ) ;
#668 = ORIENTED_EDGE ( 'NONE', *, *, #336, .T. ) ;
#669 = VERTEX_POINT ( 'NONE', #691 ) ;
#670 = DIRECTION ( 'NONE',  ( -0.000000000000000000, 0.000000000000000000, 1.000000000000000000 ) ) ;
#671 = ORIENTED_EDGE ( 'NONE', *, *, #562, .F. ) ;
#672 = EDGE_LOOP ( 'NONE', ( #871, #403, #268, #193 ) ) ;
#673 = EDGE_CURVE ( 'NONE', #439, #809, #766, .T. ) ;
#674 = CARTESIAN_POINT ( 'NONE',  ( 90.30000000000001137, 0.000000000000000000, 0.000000000000000000 ) ) ;
#675 = ORIENTED_EDGE ( 'NONE', *, *, #469, .F. ) ;
#676 = ORIENTED_EDGE ( 'NONE', *, *, #713, .F. ) ;
#677 = DIRECTION ( 'NONE',  ( 0.000000000000000000, -1.000000000000000000, 0.000000000000000000 ) ) ;
#678 = CARTESIAN_POINT ( 'NONE',  ( 5.050000000018568969, 28.29999999999581561, 8.000000000000000000 ) ) ;
#679 = ORIENTED_EDGE ( 'NONE', *, *, #71, .T. ) ;
#680 = DIRECTION ( 'NONE',  ( 1.000000000000000000, 0.000000000000000000, 0.000000000000000000 ) ) ;
#681 = DIRECTION ( 'NONE',  ( -0.000000000000000000, -0.000000000000000000, -1.000000000000000000 ) ) ;
#682 = LINE ( 'NONE', #78, #412 ) ;
#683 = VECTOR ( 'NONE', #565, 1000.000000000000000 ) ;
#684 = EDGE_CURVE ( 'NONE', #292, #709, #634, .T. ) ;
#685 = EDGE_LOOP ( 'NONE', ( #346, #676, #828, #643 ) ) ;
#686 = PLANE ( 'NONE',  #343 ) ;
#687 = CARTESIAN_POINT ( 'NONE',  ( 134.7499999999999716, 134.7499999999999716, 7.000000000000000000 ) ) ;
#688 = DIRECTION ( 'NONE',  ( -0.000000000000000000, -0.000000000000000000, -1.000000000000000000 ) ) ;
#689 = VERTEX_POINT ( 'NONE', #159 ) ;
#690 = EDGE_CURVE ( 'NONE', #793, #130, #758, .T. ) ;
#691 = CARTESIAN_POINT ( 'NONE',  ( 164.0000000000000000, 90.00000000000000000, 0.000000000000000000 ) ) ;
#692 = CARTESIAN_POINT ( 'NONE',  ( 134.7499999999999716, 155.2500000000000000, 12.00000000000000000 ) ) ;
#693 = CARTESIAN_POINT ( 'NONE',  ( 160.0000000000000000, 160.0000000000000000, 0.000000000000000000 ) ) ;
#694 = VERTEX_POINT ( 'NONE', #622 ) ;
#695 = CARTESIAN_POINT ( 'NONE',  ( 8.500000000018568258, 28.29999999999581561, 0.000000000000000000 ) ) ;
#696 = EDGE_CURVE ( 'NONE', #878, #399, #572, .T. ) ;
#697 = DIRECTION ( 'NONE',  ( -0.000000000000000000, -0.000000000000000000, -1.000000000000000000 ) ) ;
#698 = UNCERTAINTY_MEASURE_WITH_UNIT (LENGTH_MEASURE( 1.000000000000000082E-05 ), #786, 'distance_accuracy_value', 'NONE');
#699 = CARTESIAN_POINT ( 'NONE',  ( 0.000000000000000000, 0.000000000000000000, 12.00000000000000000 ) ) ;
#700 = ORIENTED_EDGE ( 'NONE', *, *, #536, .F. ) ;
#701 = FACE_OUTER_BOUND ( 'NONE', #519, .T. ) ;
#702 = AXIS2_PLACEMENT_3D ( 'NONE', #12, #753, #5 ) ;
#703 = CARTESIAN_POINT ( 'NONE',  ( 155.2500000000000000, 155.2500000000000000, 12.00000000000000000 ) ) ;
#704 = EDGE_CURVE ( 'NONE', #666, #466, #269, .T. ) ;
#705 = ORIENTED_EDGE ( 'NONE', *, *, #861, .T. ) ;
#706 = DIRECTION ( 'NONE',  ( 0.000000000000000000, 1.000000000000000000, 0.000000000000000000 ) ) ;
#707 = DIRECTION ( 'NONE',  ( 0.000000000000000000, -1.000000000000000000, 0.000000000000000000 ) ) ;
#708 = LINE ( 'NONE', #796, #468 ) ;
#709 = VERTEX_POINT ( 'NONE', #278 ) ;
#710 = DIRECTION ( 'NONE',  ( 0.000000000000000000, -0.000000000000000000, -1.000000000000000000 ) ) ;
#711 = LINE ( 'NONE', #635, #373 ) ;
#712 = ORIENTED_EDGE ( 'NONE', *, *, #336, .F. ) ;
#713 = EDGE_CURVE ( 'NONE', #227, #250, #752, .T. ) ;
#714 = AXIS2_PLACEMENT_3D ( 'NONE', #371, #856, #36 ) ;
#715 = FACE_BOUND ( 'NONE', #777, .T. ) ;
#716 = CARTESIAN_POINT ( 'NONE',  ( 0.000000000000000000, 90.30000000000001137, 12.00000000000000000 ) ) ;
#717 = EDGE_LOOP ( 'NONE', ( #319, #734, #422, #117 ) ) ;
#718 =( NAMED_UNIT ( * ) SI_UNIT ( $, .STERADIAN. ) SOLID_ANGLE_UNIT ( ) );
#719 = CARTESIAN_POINT ( 'NONE',  ( 0.000000000000000000, 90.30000000000001137, 0.000000000000000000 ) ) ;
#720 = ORIENTED_EDGE ( 'NONE', *, *, #154, .F. ) ;
#721 = ADVANCED_FACE ( 'NONE', ( #89 ), #472, .F. ) ;
#722 = DIRECTION ( 'NONE',  ( 0.000000000000000000, 0.000000000000000000, 1.000000000000000000 ) ) ;
#723 = VECTOR ( 'NONE', #588, 1000.000000000000000 ) ;
#724 = EDGE_LOOP ( 'NONE', ( #522, #309, #616, #387 ) ) ;
#725 = AXIS2_PLACEMENT_3D ( 'NONE', #43, #37, #448 ) ;
#726 = CIRCLE ( 'NONE', #612, 2.000000000000000000 ) ;
#727 = CARTESIAN_POINT ( 'NONE',  ( 160.0000000000000000, 0.000000000000000000, 12.00000000000000000 ) ) ;
#728 = EDGE_CURVE ( 'NONE', #761, #527, #726, .T. ) ;
#729 = ORIENTED_EDGE ( 'NONE', *, *, #34, .F. ) ;
#730 = VERTEX_POINT ( 'NONE', #288 ) ;
#731 = CARTESIAN_POINT ( 'NONE',  ( 164.0000000000000000, 70.00000000000000000, 12.00000000000000000 ) ) ;
#732 = ORIENTED_EDGE ( 'NONE', *, *, #424, .F. ) ;
#733 = APPLICATION_PROTOCOL_DEFINITION ( 'draft international standard', 'automotive_design', 1998, #322 ) ;
#734 = ORIENTED_EDGE ( 'NONE', *, *, #458, .F. ) ;
#735 = LINE ( 'NONE', #128, #646 ) ;
#736 = ORIENTED_EDGE ( 'NONE', *, *, #655, .T. ) ;
#737 = VECTOR ( 'NONE', #103, 1000.000000000000000 ) ;
#738 = EDGE_LOOP ( 'NONE', ( #304, #838, #868, #327 ) ) ;
#739 = EDGE_CURVE ( 'NONE', #876, #452, #351, .T. ) ;
#740 = DIRECTION ( 'NONE',  ( 1.000000000000000000, 0.000000000000000000, 0.000000000000000000 ) ) ;
#741 = VECTOR ( 'NONE', #86, 1000.000000000000000 ) ;
#742 = ORIENTED_EDGE ( 'NONE', *, *, #814, .T. ) ;
#743 = VERTEX_POINT ( 'NONE', #356 ) ;
#744 = ADVANCED_FACE ( 'NONE', ( #428 ), #762, .F. ) ;
#745 = PLANE ( 'NONE',  #702 ) ;
#746 = DIRECTION ( 'NONE',  ( 0.000000000000000000, 0.000000000000000000, -1.000000000000000000 ) ) ;
#747 = DIRECTION ( 'NONE',  ( 0.000000000000000000, 0.000000000000000000, -1.000000000000000000 ) ) ;
#748 = LINE ( 'NONE', #409, #257 ) ;
#749 = ADVANCED_FACE ( 'NONE', ( #701 ), #686, .F. ) ;
#750 = DIRECTION ( 'NONE',  ( 1.000000000000000000, 0.000000000000000000, 0.000000000000000000 ) ) ;
#751 = VERTEX_POINT ( 'NONE', #84 ) ;
#752 = LINE ( 'NONE', #544, #774 ) ;
#753 = DIRECTION ( 'NONE',  ( 0.000000000000000000, 1.000000000000000000, 0.000000000000000000 ) ) ;
#754 = ADVANCED_FACE ( 'NONE', ( #839 ), #347, .F. ) ;
#755 = DIRECTION ( 'NONE',  ( 0.000000000000000000, -1.000000000000000000, 0.000000000000000000 ) ) ;
#756 = VECTOR ( 'NONE', #367, 1000.000000000000000 ) ;
#757 = ORIENTED_EDGE ( 'NONE', *, *, #517, .T. ) ;
#758 = LINE ( 'NONE', #477, #850 ) ;
#759 = CARTESIAN_POINT ( 'NONE',  ( 0.000000000000000000, 160.0000000000000000, 12.00000000000000000 ) ) ;
#760 = CARTESIAN_POINT ( 'NONE',  ( 70.00000000000000000, 160.0000000000000000, 12.00000000000000000 ) ) ;
#761 = VERTEX_POINT ( 'NONE', #493 ) ;
#762 = CYLINDRICAL_SURFACE ( 'NONE', #804, 2.000000000000000000 ) ;
#763 = DIRECTION ( 'NONE',  ( 0.000000000000000000, -1.000000000000000000, 0.000000000000000000 ) ) ;
#764 = FACE_OUTER_BOUND ( 'NONE', #218, .T. ) ;
#765 = EDGE_LOOP ( 'NONE', ( #600, #675, #272, #185 ) ) ;
#766 = LINE ( 'NONE', #20, #146 ) ;
#767 = ADVANCED_FACE ( 'NONE', ( #362 ), #15, .F. ) ;
#768 = VECTOR ( 'NONE', #440, 1000.000000000000000 ) ;
#769 = CYLINDRICAL_SURFACE ( 'NONE', #108, 3.449999999999999734 ) ;
#770 = DIRECTION ( 'NONE',  ( 1.000000000000000000, 0.000000000000000000, 0.000000000000000000 ) ) ;
#771 = EDGE_LOOP ( 'NONE', ( #823, #246 ) ) ;
#772 = AXIS2_PLACEMENT_3D ( 'NONE', #589, #812, #601 ) ;
#773 = PLANE ( 'NONE',  #870 ) ;
#774 = VECTOR ( 'NONE', #224, 1000.000000000000000 ) ;
#775 = LINE ( 'NONE', #852, #756 ) ;
#776 = CARTESIAN_POINT ( 'NONE',  ( 155.2500000000000000, 155.2500000000000000, 7.000000000000000000 ) ) ;
#777 = EDGE_LOOP ( 'NONE', ( #712, #197 ) ) ;
#778 = CARTESIAN_POINT ( 'NONE',  ( 0.000000000000000000, 0.000000000000000000, 0.000000000000000000 ) ) ;
#779 = FACE_OUTER_BOUND ( 'NONE', #407, .T. ) ;
#780 = LINE ( 'NONE', #112, #372 ) ;
#781 = EDGE_CURVE ( 'NONE', #227, #355, #563, .T. ) ;
#782 = VERTEX_POINT ( 'NONE', #342 ) ;
#783 = DIRECTION ( 'NONE',  ( 1.000000000000000000, 0.000000000000000000, -0.000000000000000000 ) ) ;
#784 = CARTESIAN_POINT ( 'NONE',  ( 0.000000000000000000, 160.0000000000000000, 0.000000000000000000 ) ) ;
#785 = AXIS2_PLACEMENT_3D ( 'NONE', #575, #783, #435 ) ;
#786 =( LENGTH_UNIT ( ) NAMED_UNIT ( * ) SI_UNIT ( .MILLI., .METRE. ) );
#787 = EDGE_CURVE ( 'NONE', #658, #253, #497, .T. ) ;
#788 = ORIENTED_EDGE ( 'NONE', *, *, #540, .T. ) ;
#789 = CARTESIAN_POINT ( 'NONE',  ( 0.000000000000000000, 69.70000000000000284, 0.000000000000000000 ) ) ;
#790 = VECTOR ( 'NONE', #426, 1000.000000000000000 ) ;
#791 = VECTOR ( 'NONE', #867, 1000.000000000000000 ) ;
#792 = CARTESIAN_POINT ( 'NONE',  ( 160.0000000000000000, 70.00000000000000000, 12.00000000000000000 ) ) ;
#793 = VERTEX_POINT ( 'NONE', #310 ) ;
#794 =( LENGTH_UNIT ( ) NAMED_UNIT ( * ) SI_UNIT ( .MILLI., .METRE. ) );
#795 = EDGE_CURVE ( 'NONE', #439, #179, #650, .T. ) ;
#796 = CARTESIAN_POINT ( 'NONE',  ( 4.200000000000000178, 90.30000000000001137, 12.00000000000000000 ) ) ;
#797 = ORIENTED_EDGE ( 'NONE', *, *, #380, .F. ) ;
#798 = EDGE_CURVE ( 'NONE', #809, #533, #40, .T. ) ;
#799 = DIRECTION ( 'NONE',  ( -0.000000000000000000, -0.000000000000000000, -1.000000000000000000 ) ) ;
#800 = ORIENTED_EDGE ( 'NONE', *, *, #10, .T. ) ;
#801 = ORIENTED_EDGE ( 'NONE', *, *, #341, .F. ) ;
#802 = VECTOR ( 'NONE', #475, 1000.000000000000000 ) ;
#803 = VECTOR ( 'NONE', #284, 1000.000000000000000 ) ;
#804 = AXIS2_PLACEMENT_3D ( 'NONE', #209, #613, #419 ) ;
#805 = CARTESIAN_POINT ( 'NONE',  ( 160.0000000000000000, 70.00000000000000000, 12.00000000000000000 ) ) ;
#806 = FACE_BOUND ( 'NONE', #504, .T. ) ;
#807 = PLANE ( 'NONE',  #400 ) ;
#808 = EDGE_CURVE ( 'NONE', #689, #398, #99, .T. ) ;
#809 = VERTEX_POINT ( 'NONE', #863 ) ;
#810 = PRODUCT_CONTEXT ( 'NONE', #638, 'mechanical' ) ;
#811 = ORIENTED_EDGE ( 'NONE', *, *, #396, .F. ) ;
#812 = DIRECTION ( 'NONE',  ( 0.000000000000000000, 0.000000000000000000, -1.000000000000000000 ) ) ;
#813 = ORIENTED_EDGE ( 'NONE', *, *, #67, .F. ) ;
#814 = EDGE_CURVE ( 'NONE', #399, #666, #383, .T. ) ;
#815 = VECTOR ( 'NONE', #226, 1000.000000000000000 ) ;
#816 = CARTESIAN_POINT ( 'NONE',  ( 69.70000000000000284, 0.000000000000000000, 0.000000000000000000 ) ) ;
#817 = VECTOR ( 'NONE', #697, 1000.000000000000000 ) ;
#818 = FACE_OUTER_BOUND ( 'NONE', #771, .T. ) ;
#819 = ORIENTED_EDGE ( 'NONE', *, *, #359, .F. ) ;
#820 = ADVANCED_FACE ( 'NONE', ( #366 ), #370, .F. ) ;
#821 = DIRECTION ( 'NONE',  ( 0.000000000000000000, 1.000000000000000000, 0.000000000000000000 ) ) ;
#822 = CARTESIAN_POINT ( 'NONE',  ( 160.0000000000000000, 0.000000000000000000, 0.000000000000000000 ) ) ;
#823 = ORIENTED_EDGE ( 'NONE', *, *, #696, .T. ) ;
#824 = DIRECTION ( 'NONE',  ( 0.000000000000000000, 0.000000000000000000, 1.000000000000000000 ) ) ;
#825 = ADVANCED_FACE ( 'NONE', ( #167 ), #379, .F. ) ;
#826 = CARTESIAN_POINT ( 'NONE',  ( 134.7499999999999716, 155.2500000000000000, 7.000000000000000000 ) ) ;
#827 = LINE ( 'NONE', #212, #584 ) ;
#828 = ORIENTED_EDGE ( 'NONE', *, *, #134, .F. ) ;
#829 = CARTESIAN_POINT ( 'NONE',  ( 164.0000000000000000, 70.00000000000000000, 12.00000000000000000 ) ) ;
#830 = PLANE ( 'NONE',  #598 ) ;
#831 = DIRECTION ( 'NONE',  ( 0.000000000000000000, 1.000000000000000000, 0.000000000000000000 ) ) ;
#832 = VECTOR ( 'NONE', #554, 1000.000000000000000 ) ;
#833 = ORIENTED_EDGE ( 'NONE', *, *, #781, .F. ) ;
#834 = CARTESIAN_POINT ( 'NONE',  ( 8.500000000018513191, 28.29999999999575877, 8.000000000000000000 ) ) ;
#835 = LINE ( 'NONE', #826, #741 ) ;
#836 = CARTESIAN_POINT ( 'NONE',  ( 69.70000000000000284, 4.200000000000000178, 0.000000000000000000 ) ) ;
#837 = ADVANCED_FACE ( 'NONE', ( #579 ), #773, .F. ) ;
#838 = ORIENTED_EDGE ( 'NONE', *, *, #486, .F. ) ;
#839 = FACE_OUTER_BOUND ( 'NONE', #18, .T. ) ;
#840 = LINE ( 'NONE', #703, #456 ) ;
#841 = CARTESIAN_POINT ( 'NONE',  ( 134.7499999999999716, 155.2500000000000000, 12.00000000000000000 ) ) ;
#842 = VERTEX_POINT ( 'NONE', #789 ) ;
#843 = DIRECTION ( 'NONE',  ( 0.000000000000000000, 0.000000000000000000, -1.000000000000000000 ) ) ;
#844 = DIRECTION ( 'NONE',  ( 0.000000000000000000, 1.000000000000000000, 0.000000000000000000 ) ) ;
#845 = CARTESIAN_POINT ( 'NONE',  ( 155.2500000000000000, 155.2500000000000000, 7.000000000000000000 ) ) ;
#846 = AXIS2_PLACEMENT_3D ( 'NONE', #276, #631, #546 ) ;
#847 = ORIENTED_EDGE ( 'NONE', *, *, #781, .T. ) ;
#848 = CIRCLE ( 'NONE', #76, 3.449999999999999734 ) ;
#849 = CARTESIAN_POINT ( 'NONE',  ( 164.0000000000000000, 90.00000000000000000, 12.00000000000000000 ) ) ;
#850 = VECTOR ( 'NONE', #482, 1000.000000000000000 ) ;
#851 = EDGE_CURVE ( 'NONE', #709, #793, #35, .T. ) ;
#852 = CARTESIAN_POINT ( 'NONE',  ( 90.30000000000001137, 0.000000000000000000, 12.00000000000000000 ) ) ;
#853 = FACE_OUTER_BOUND ( 'NONE', #765, .T. ) ;
#854 = ORIENTED_EDGE ( 'NONE', *, *, #122, .T. ) ;
#855 = CARTESIAN_POINT ( 'NONE',  ( 160.0000000000000000, 0.000000000000000000, 0.000000000000000000 ) ) ;
#856 = DIRECTION ( 'NONE',  ( -1.000000000000000000, 0.000000000000000000, 0.000000000000000000 ) ) ;
#857 = DIRECTION ( 'NONE',  ( -0.000000000000000000, -0.000000000000000000, -1.000000000000000000 ) ) ;
#858 = ORIENTED_EDGE ( 'NONE', *, *, #67, .T. ) ;
#859 = CARTESIAN_POINT ( 'NONE',  ( 11.95000000001856932, 28.29999999999581561, 8.000000000000000000 ) ) ;
#860 = SURFACE_SIDE_STYLE ('',( #105 ) ) ;
#861 = EDGE_CURVE ( 'NONE', #462, #730, #583, .T. ) ;
#862 = ORIENTED_EDGE ( 'NONE', *, *, #873, .T. ) ;
#863 = CARTESIAN_POINT ( 'NONE',  ( 0.000000000000000000, 0.000000000000000000, 0.000000000000000000 ) ) ;
#864 = DIRECTION ( 'NONE',  ( -0.000000000000000000, -0.000000000000000000, -1.000000000000000000 ) ) ;
#865 = ORIENTED_EDGE ( 'NONE', *, *, #450, .F. ) ;
#866 = EDGE_CURVE ( 'NONE', #361, #669, #298, .T. ) ;
#867 = DIRECTION ( 'NONE',  ( -1.000000000000000000, 0.000000000000000000, 0.000000000000000000 ) ) ;
#868 = ORIENTED_EDGE ( 'NONE', *, *, #861, .F. ) ;
#869 = LINE ( 'NONE', #727, #454 ) ;
#870 = AXIS2_PLACEMENT_3D ( 'NONE', #639, #706, #51 ) ;
#871 = ORIENTED_EDGE ( 'NONE', *, *, #169, .F. ) ;
#872 = VECTOR ( 'NONE', #442, 1000.000000000000000 ) ;
#873 = EDGE_CURVE ( 'NONE', #175, #69, #644, .T. ) ;
#874 = DIRECTION ( 'NONE',  ( -1.000000000000000000, 0.000000000000000000, 0.000000000000000000 ) ) ;
#875 = ORIENTED_EDGE ( 'NONE', *, *, #531, .T. ) ;
#876 = VERTEX_POINT ( 'NONE', #509 ) ;
#877 = CARTESIAN_POINT ( 'NONE',  ( 4.200000000000000178, 90.30000000000001137, 0.000000000000000000 ) ) ;
#878 = VERTEX_POINT ( 'NONE', #248 ) ;
#879 = ORIENTED_EDGE ( 'NONE', *, *, #684, .T. ) ;
ENDSEC;
END-ISO-10303-21;
