ISO-10303-21;
HEADER;
FILE_DESCRIPTION (( 'STEP AP214' ),
    '1' );
FILE_NAME ('CNC_Cage_Base_LR.STEP',
    '2026-08-12T22:35:38',
    ( '' ),
    ( '' ),
    'SwSTEP 2.0',
    'SolidWorks 2026',
    '' );
FILE_SCHEMA (( 'AUTOMOTIVE_DESIGN' ));
ENDSEC;

DATA;
#1 = PLANE ( 'NONE',  #78 ) ;
#2 = ORIENTED_EDGE ( 'NONE', *, *, #241, .T. ) ;
#3 = VERTEX_POINT ( 'NONE', #198 ) ;
#4 = DIRECTION ( 'NONE',  ( 0.000000000000000000, 0.000000000000000000, -1.000000000000000000 ) ) ;
#5 = VECTOR ( 'NONE', #804, 1000.000000000000000 ) ;
#6 = VECTOR ( 'NONE', #827, 1000.000000000000000 ) ;
#7 = CARTESIAN_POINT ( 'NONE',  ( 164.0000000000000000, 70.00000000000000000, 0.000000000000000000 ) ) ;
#8 = CARTESIAN_POINT ( 'NONE',  ( 160.0000000000000000, 160.0000000000000000, 0.000000000000000000 ) ) ;
#9 = PLANE ( 'NONE',  #652 ) ;
#10 = ORIENTED_EDGE ( 'NONE', *, *, #199, .T. ) ;
#11 = ADVANCED_FACE ( 'NONE', ( #744 ), #680, .F. ) ;
#12 = ADVANCED_FACE ( 'NONE', ( #751 ), #532, .F. ) ;
#13 = DIRECTION ( 'NONE',  ( 0.000000000000000000, -1.000000000000000000, 0.000000000000000000 ) ) ;
#14 = CARTESIAN_POINT ( 'NONE',  ( 164.0000000000000000, 70.00000000000000000, 12.00000000000000000 ) ) ;
#15 = ORIENTED_EDGE ( 'NONE', *, *, #611, .F. ) ;
#16 = LINE ( 'NONE', #288, #344 ) ;
#17 = CARTESIAN_POINT ( 'NONE',  ( 164.0000000000000000, 90.00000000000000000, 12.00000000000000000 ) ) ;
#18 = ADVANCED_FACE ( 'NONE', ( #754 ), #221, .F. ) ;
#19 = AXIS2_PLACEMENT_3D ( 'NONE', #830, #758, #414 ) ;
#20 = DIRECTION ( 'NONE',  ( 1.000000000000000000, -0.000000000000000000, 0.000000000000000000 ) ) ;
#21 = VECTOR ( 'NONE', #391, 1000.000000000000000 ) ;
#22 = ORIENTED_EDGE ( 'NONE', *, *, #805, .F. ) ;
#23 = LINE ( 'NONE', #708, #537 ) ;
#24 = CARTESIAN_POINT ( 'NONE',  ( 6.500000000021048052, 133.2999999999957197, 8.000000000000000000 ) ) ;
#25 = CARTESIAN_POINT ( 'NONE',  ( 160.0000000000000000, 160.0000000000000000, 12.00000000000000000 ) ) ;
#26 = ORIENTED_EDGE ( 'NONE', *, *, #264, .T. ) ;
#27 = PLANE ( 'NONE',  #581 ) ;
#28 = CARTESIAN_POINT ( 'NONE',  ( 0.000000000000000000, 69.70000000000000284, 12.00000000000000000 ) ) ;
#29 = VERTEX_POINT ( 'NONE', #86 ) ;
#30 = EDGE_CURVE ( 'NONE', #748, #451, #218, .T. ) ;
#31 = FACE_OUTER_BOUND ( 'NONE', #785, .T. ) ;
#32 = DIRECTION ( 'NONE',  ( 1.000000000000000000, 0.000000000000000000, 0.000000000000000000 ) ) ;
#33 = DIRECTION ( 'NONE',  ( -1.000000000000000000, 0.000000000000000000, 0.000000000000000000 ) ) ;
#34 = VERTEX_POINT ( 'NONE', #820 ) ;
#35 = AXIS2_PLACEMENT_3D ( 'NONE', #57, #324, #683 ) ;
#36 =( NAMED_UNIT ( * ) SI_UNIT ( $, .STERADIAN. ) SOLID_ANGLE_UNIT ( ) );
#37 = AXIS2_PLACEMENT_3D ( 'NONE', #165, #38, #436 ) ;
#38 = DIRECTION ( 'NONE',  ( -0.000000000000000000, -0.000000000000000000, -1.000000000000000000 ) ) ;
#39 = DIRECTION ( 'NONE',  ( -0.000000000000000000, -0.000000000000000000, -1.000000000000000000 ) ) ;
#40 = ORIENTED_EDGE ( 'NONE', *, *, #653, .T. ) ;
#41 = CARTESIAN_POINT ( 'NONE',  ( 70.00000000000000000, 160.0000000000000000, 12.00000000000000000 ) ) ;
#42 = CARTESIAN_POINT ( 'NONE',  ( 134.7499999999999716, 25.25000000000000000, 7.000000000000000000 ) ) ;
#43 = EDGE_CURVE ( 'NONE', #3, #415, #289, .T. ) ;
#44 = CARTESIAN_POINT ( 'NONE',  ( 164.0000000000000000, 90.00000000000000000, 0.000000000000000000 ) ) ;
#45 = ORIENTED_EDGE ( 'NONE', *, *, #54, .T. ) ;
#46 = PLANE ( 'NONE',  #522 ) ;
#47 = LINE ( 'NONE', #235, #802 ) ;
#48 = ORIENTED_EDGE ( 'NONE', *, *, #354, .T. ) ;
#49 = DIRECTION ( 'NONE',  ( -1.000000000000000000, 0.000000000000000000, 0.000000000000000000 ) ) ;
#50 = VECTOR ( 'NONE', #828, 1000.000000000000000 ) ;
#51 = APPLICATION_CONTEXT ( 'automotive_design' ) ;
#52 = AXIS2_PLACEMENT_3D ( 'NONE', #753, #278, #211 ) ;
#53 = CARTESIAN_POINT ( 'NONE',  ( 4.200000000000000178, 69.70000000000000284, 12.00000000000000000 ) ) ;
#54 = EDGE_CURVE ( 'NONE', #385, #261, #212, .T. ) ;
#55 = ORIENTED_EDGE ( 'NONE', *, *, #81, .F. ) ;
#56 = EDGE_CURVE ( 'NONE', #521, #123, #596, .T. ) ;
#57 = CARTESIAN_POINT ( 'NONE',  ( 8.500000000021048052, 133.2999999999957197, 12.00000000000000000 ) ) ;
#58 = ORIENTED_EDGE ( 'NONE', *, *, #327, .T. ) ;
#59 = VERTEX_POINT ( 'NONE', #487 ) ;
#60 = EDGE_CURVE ( 'NONE', #91, #230, #768, .T. ) ;
#61 = LINE ( 'NONE', #603, #815 ) ;
#62 = VECTOR ( 'NONE', #794, 1000.000000000000000 ) ;
#63 = ORIENTED_EDGE ( 'NONE', *, *, #54, .F. ) ;
#64 = VECTOR ( 'NONE', #531, 1000.000000000000000 ) ;
#65 = LINE ( 'NONE', #269, #535 ) ;
#66 = CARTESIAN_POINT ( 'NONE',  ( 8.500000000021048052, 133.2999999999957197, 12.00000000000000000 ) ) ;
#67 = VERTEX_POINT ( 'NONE', #427 ) ;
#68 = DIRECTION ( 'NONE',  ( 0.000000000000000000, 0.000000000000000000, -1.000000000000000000 ) ) ;
#69 = EDGE_CURVE ( 'NONE', #105, #34, #632, .T. ) ;
#70 = DIRECTION ( 'NONE',  ( -0.000000000000000000, -0.000000000000000000, -1.000000000000000000 ) ) ;
#71 = VERTEX_POINT ( 'NONE', #641 ) ;
#72 = LINE ( 'NONE', #557, #418 ) ;
#73 = CARTESIAN_POINT ( 'NONE',  ( 155.2500000000000000, 4.749999999999999112, 7.000000000000000000 ) ) ;
#74 = ORIENTED_EDGE ( 'NONE', *, *, #486, .F. ) ;
#75 = CARTESIAN_POINT ( 'NONE',  ( 4.200000000000000178, 69.70000000000000284, 12.00000000000000000 ) ) ;
#76 = VECTOR ( 'NONE', #636, 1000.000000000000000 ) ;
#77 = DIRECTION ( 'NONE',  ( 0.000000000000000000, -1.000000000000000000, 0.000000000000000000 ) ) ;
#78 = AXIS2_PLACEMENT_3D ( 'NONE', #610, #874, #399 ) ;
#79 = VECTOR ( 'NONE', #434, 1000.000000000000000 ) ;
#80 = CARTESIAN_POINT ( 'NONE',  ( 8.500000000021019630, 133.2999999999957197, 8.000000000000000000 ) ) ;
#81 = EDGE_CURVE ( 'NONE', #616, #71, #161, .T. ) ;
#82 = ORIENTED_EDGE ( 'NONE', *, *, #803, .F. ) ;
#83 = EDGE_CURVE ( 'NONE', #748, #158, #504, .T. ) ;
#84 = SURFACE_STYLE_FILL_AREA ( #752 ) ;
#85 = CARTESIAN_POINT ( 'NONE',  ( 4.200000000000000178, 90.30000000000001137, 12.00000000000000000 ) ) ;
#86 = CARTESIAN_POINT ( 'NONE',  ( 0.000000000000000000, 69.70000000000000284, 12.00000000000000000 ) ) ;
#87 = ORIENTED_EDGE ( 'NONE', *, *, #424, .F. ) ;
#88 = DIRECTION ( 'NONE',  ( -0.000000000000000000, -0.000000000000000000, -1.000000000000000000 ) ) ;
#89 = PLANE ( 'NONE',  #747 ) ;
#90 = FACE_OUTER_BOUND ( 'NONE', #393, .T. ) ;
#91 = VERTEX_POINT ( 'NONE', #700 ) ;
#92 = CIRCLE ( 'NONE', #133, 3.450000000000001510 ) ;
#93 = DIRECTION ( 'NONE',  ( 0.000000000000000000, -0.000000000000000000, -1.000000000000000000 ) ) ;
#94 = DIRECTION ( 'NONE',  ( 1.000000000000000000, 0.000000000000000000, 0.000000000000000000 ) ) ;
#95 = VECTOR ( 'NONE', #33, 1000.000000000000000 ) ;
#96 = VERTEX_POINT ( 'NONE', #686 ) ;
#97 = PRESENTATION_STYLE_ASSIGNMENT (( #761 ) ) ;
#98 = CARTESIAN_POINT ( 'NONE',  ( 70.00000000000000000, 160.0000000000000000, 12.00000000000000000 ) ) ;
#99 = LINE ( 'NONE', #177, #392 ) ;
#100 = ADVANCED_FACE ( 'NONE', ( #90 ), #689, .F. ) ;
#101 = ORIENTED_EDGE ( 'NONE', *, *, #355, .T. ) ;
#102 = LINE ( 'NONE', #782, #62 ) ;
#103 = DIRECTION ( 'NONE',  ( -0.000000000000000000, 0.000000000000000000, 1.000000000000000000 ) ) ;
#104 = LINE ( 'NONE', #792, #759 ) ;
#105 = VERTEX_POINT ( 'NONE', #346 ) ;
#106 = CARTESIAN_POINT ( 'NONE',  ( 70.00000000000000000, 164.0000000000000000, 0.000000000000000000 ) ) ;
#107 = PRODUCT_DEFINITION_FORMATION_WITH_SPECIFIED_SOURCE ( 'Symmetric', '', #365, .NOT_KNOWN. ) ;
#108 = DIRECTION ( 'NONE',  ( -0.000000000000000000, 0.000000000000000000, 1.000000000000000000 ) ) ;
#109 = DIRECTION ( 'NONE',  ( 0.000000000000000000, -0.000000000000000000, -1.000000000000000000 ) ) ;
#110 = AXIS2_PLACEMENT_3D ( 'NONE', #511, #242, #109 ) ;
#111 = ORIENTED_EDGE ( 'NONE', *, *, #114, .T. ) ;
#112 = VECTOR ( 'NONE', #721, 1000.000000000000000 ) ;
#113 = ADVANCED_FACE ( 'NONE', ( #357 ), #157, .F. ) ;
#114 = EDGE_CURVE ( 'NONE', #237, #385, #432, .T. ) ;
#115 = LINE ( 'NONE', #233, #579 ) ;
#116 = LINE ( 'NONE', #454, #607 ) ;
#117 = EDGE_LOOP ( 'NONE', ( #847, #410 ) ) ;
#118 = ADVANCED_FACE ( 'NONE', ( #291 ), #9, .F. ) ;
#119 = PLANE ( 'NONE',  #110 ) ;
#120 = ORIENTED_EDGE ( 'NONE', *, *, #573, .F. ) ;
#121 = CARTESIAN_POINT ( 'NONE',  ( 0.000000000000000000, 90.30000000000001137, 0.000000000000000000 ) ) ;
#122 = DIRECTION ( 'NONE',  ( -1.000000000000000000, 0.000000000000000000, 0.000000000000000000 ) ) ;
#123 = VERTEX_POINT ( 'NONE', #841 ) ;
#124 = VECTOR ( 'NONE', #279, 1000.000000000000000 ) ;
#125 = VECTOR ( 'NONE', #586, 1000.000000000000000 ) ;
#126 = VECTOR ( 'NONE', #445, 1000.000000000000000 ) ;
#127 = DIRECTION ( 'NONE',  ( -0.000000000000000000, 0.000000000000000000, 1.000000000000000000 ) ) ;
#128 = ORIENTED_EDGE ( 'NONE', *, *, #476, .F. ) ;
#129 = ORIENTED_EDGE ( 'NONE', *, *, #30, .T. ) ;
#130 = LINE ( 'NONE', #743, #21 ) ;
#131 = ORIENTED_EDGE ( 'NONE', *, *, #624, .T. ) ;
#132 = CARTESIAN_POINT ( 'NONE',  ( 70.00000000000000000, 164.0000000000000000, 12.00000000000000000 ) ) ;
#133 = AXIS2_PLACEMENT_3D ( 'NONE', #590, #849, #49 ) ;
#134 = EDGE_LOOP ( 'NONE', ( #806, #662, #474, #10 ) ) ;
#135 = EDGE_CURVE ( 'NONE', #755, #722, #772, .T. ) ;
#136 = AXIS2_PLACEMENT_3D ( 'NONE', #711, #181, #845 ) ;
#137 = PLANE ( 'NONE',  #449 ) ;
#138 = ORIENTED_EDGE ( 'NONE', *, *, #805, .T. ) ;
#139 = ORIENTED_EDGE ( 'NONE', *, *, #135, .F. ) ;
#140 = CARTESIAN_POINT ( 'NONE',  ( 90.00000000000000000, 164.0000000000000000, 12.00000000000000000 ) ) ;
#141 = ORIENTED_EDGE ( 'NONE', *, *, #486, .T. ) ;
#142 = CARTESIAN_POINT ( 'NONE',  ( 4.200000000000000178, 69.70000000000000284, 12.00000000000000000 ) ) ;
#143 = FACE_OUTER_BOUND ( 'NONE', #489, .T. ) ;
#144 = EDGE_CURVE ( 'NONE', #468, #657, #481, .T. ) ;
#145 = DIRECTION ( 'NONE',  ( -1.000000000000000000, 0.000000000000000000, 0.000000000000000000 ) ) ;
#146 = ADVANCED_FACE ( 'NONE', ( #795 ), #119, .F. ) ;
#147 = ORIENTED_EDGE ( 'NONE', *, *, #241, .F. ) ;
#148 = CARTESIAN_POINT ( 'NONE',  ( 90.00000000000000000, 160.0000000000000000, 12.00000000000000000 ) ) ;
#149 = VECTOR ( 'NONE', #571, 1000.000000000000000 ) ;
#150 = LINE ( 'NONE', #340, #565 ) ;
#151 = VECTOR ( 'NONE', #678, 1000.000000000000000 ) ;
#152 = VECTOR ( 'NONE', #629, 1000.000000000000000 ) ;
#153 = CARTESIAN_POINT ( 'NONE',  ( 8.500000000021019630, 133.2999999999957197, 8.000000000000000000 ) ) ;
#154 = PRODUCT_RELATED_PRODUCT_CATEGORY ( 'part', '', ( #365 ) ) ;
#155 = EDGE_LOOP ( 'NONE', ( #315, #147, #403, #251 ) ) ;
#156 = LINE ( 'NONE', #8, #331 ) ;
#157 = PLANE ( 'NONE',  #801 ) ;
#158 = VERTEX_POINT ( 'NONE', #645 ) ;
#159 = CARTESIAN_POINT ( 'NONE',  ( 134.7499999999999716, 4.749999999999999112, 12.00000000000000000 ) ) ;
#160 = CARTESIAN_POINT ( 'NONE',  ( 0.000000000000000000, 160.0000000000000000, 12.00000000000000000 ) ) ;
#161 = LINE ( 'NONE', #25, #813 ) ;
#162 = ORIENTED_EDGE ( 'NONE', *, *, #327, .F. ) ;
#163 = CIRCLE ( 'NONE', #503, 2.000000000000000000 ) ;
#164 = CARTESIAN_POINT ( 'NONE',  ( 0.000000000000000000, 90.30000000000001137, 12.00000000000000000 ) ) ;
#165 = CARTESIAN_POINT ( 'NONE',  ( 8.500000000021019630, 133.2999999999957197, 8.000000000000000000 ) ) ;
#166 = AXIS2_PLACEMENT_3D ( 'NONE', #168, #499, #94 ) ;
#167 = AXIS2_PLACEMENT_3D ( 'NONE', #306, #853, #515 ) ;
#168 = CARTESIAN_POINT ( 'NONE',  ( 8.500000000021048052, 133.2999999999957197, 12.00000000000000000 ) ) ;
#169 = COLOUR_RGB ( '',0.7921568627450980005, 0.8196078431372548767, 0.9333333333333333481 ) ;
#170 = ORIENTED_EDGE ( 'NONE', *, *, #355, .F. ) ;
#171 = FACE_OUTER_BOUND ( 'NONE', #364, .T. ) ;
#172 = LINE ( 'NONE', #44, #95 ) ;
#173 = ORIENTED_EDGE ( 'NONE', *, *, #326, .T. ) ;
#174 = LINE ( 'NONE', #302, #703 ) ;
#175 = DIRECTION ( 'NONE',  ( -1.000000000000000000, 0.000000000000000000, -0.000000000000000000 ) ) ;
#176 = EDGE_CURVE ( 'NONE', #268, #217, #588, .T. ) ;
#177 = CARTESIAN_POINT ( 'NONE',  ( 160.0000000000000000, 70.00000000000000000, 12.00000000000000000 ) ) ;
#178 = EDGE_CURVE ( 'NONE', #123, #415, #857, .T. ) ;
#179 = ORIENTED_EDGE ( 'NONE', *, *, #731, .F. ) ;
#180 = CARTESIAN_POINT ( 'NONE',  ( 160.0000000000000000, 0.000000000000000000, 12.00000000000000000 ) ) ;
#181 = DIRECTION ( 'NONE',  ( 0.000000000000000000, -1.000000000000000000, 0.000000000000000000 ) ) ;
#182 = VERTEX_POINT ( 'NONE', #787 ) ;
#183 = ADVANCED_FACE ( 'NONE', ( #656 ), #780, .F. ) ;
#184 = CARTESIAN_POINT ( 'NONE',  ( 70.00000000000000000, 164.0000000000000000, 12.00000000000000000 ) ) ;
#185 = CARTESIAN_POINT ( 'NONE',  ( 90.00000000000000000, 160.0000000000000000, 0.000000000000000000 ) ) ;
#186 = ORIENTED_EDGE ( 'NONE', *, *, #745, .T. ) ;
#187 = CARTESIAN_POINT ( 'NONE',  ( 0.000000000000000000, 90.30000000000001137, 12.00000000000000000 ) ) ;
#188 = CARTESIAN_POINT ( 'NONE',  ( 0.000000000000000000, 160.0000000000000000, 12.00000000000000000 ) ) ;
#189 = ORIENTED_EDGE ( 'NONE', *, *, #677, .T. ) ;
#190 = DIRECTION ( 'NONE',  ( -1.000000000000000000, 0.000000000000000000, 0.000000000000000000 ) ) ;
#191 = ORIENTED_EDGE ( 'NONE', *, *, #422, .F. ) ;
#192 = VECTOR ( 'NONE', #13, 1000.000000000000000 ) ;
#193 = VECTOR ( 'NONE', #280, 1000.000000000000000 ) ;
#194 = CARTESIAN_POINT ( 'NONE',  ( 155.2500000000000000, 25.25000000000000000, 7.000000000000000000 ) ) ;
#195 = VERTEX_POINT ( 'NONE', #663 ) ;
#196 = EDGE_LOOP ( 'NONE', ( #189, #749, #330, #404 ) ) ;
#197 = CARTESIAN_POINT ( 'NONE',  ( 164.0000000000000000, 90.00000000000000000, 12.00000000000000000 ) ) ;
#198 = CARTESIAN_POINT ( 'NONE',  ( 11.95000000002102425, 133.2999999999957197, 0.000000000000000000 ) ) ;
#199 = EDGE_CURVE ( 'NONE', #29, #182, #592, .T. ) ;
#200 = APPLICATION_PROTOCOL_DEFINITION ( 'draft international standard', 'automotive_design', 1998, #266 ) ;
#201 = ORIENTED_EDGE ( 'NONE', *, *, #561, .T. ) ;
#202 = DIRECTION ( 'NONE',  ( 0.000000000000000000, -1.000000000000000000, 0.000000000000000000 ) ) ;
#203 = ORIENTED_EDGE ( 'NONE', *, *, #829, .T. ) ;
#204 = ORIENTED_EDGE ( 'NONE', *, *, #765, .T. ) ;
#205 = CLOSED_SHELL ( 'NONE', ( #100, #396, #11, #375, #585, #621, #18, #118, #818, #12, #183, #367, #281, #676, #488, #292, #146, #387, #831, #544, #682, #587, #555, #113, #256, #651, #659, #851 ) ) ;
#206 = VECTOR ( 'NONE', #431, 1000.000000000000000 ) ;
#207 = CARTESIAN_POINT ( 'NONE',  ( 11.95000000002102247, 133.2999999999957197, 8.000000000000000000 ) ) ;
#208 = DIRECTION ( 'NONE',  ( -1.000000000000000000, 0.000000000000000000, 0.000000000000000000 ) ) ;
#209 = EDGE_CURVE ( 'NONE', #604, #59, #576, .T. ) ;
#210 = EDGE_CURVE ( 'NONE', #478, #737, #116, .T. ) ;
#211 = DIRECTION ( 'NONE',  ( -0.000000000000000000, 0.000000000000000000, -1.000000000000000000 ) ) ;
#212 = LINE ( 'NONE', #7, #790 ) ;
#213 = VERTEX_POINT ( 'NONE', #317 ) ;
#214 = DIRECTION ( 'NONE',  ( 0.000000000000000000, -0.000000000000000000, -1.000000000000000000 ) ) ;
#215 = CARTESIAN_POINT ( 'NONE',  ( 11.95000000002102425, 133.2999999999957197, 8.000000000000000000 ) ) ;
#216 = CARTESIAN_POINT ( 'NONE',  ( 160.0000000000000000, 0.000000000000000000, 12.00000000000000000 ) ) ;
#217 = VERTEX_POINT ( 'NONE', #525 ) ;
#218 = CIRCLE ( 'NONE', #166, 2.000000000000000000 ) ;
#219 = DIRECTION ( 'NONE',  ( -1.000000000000000000, 0.000000000000000000, 0.000000000000000000 ) ) ;
#220 = VECTOR ( 'NONE', #254, 1000.000000000000000 ) ;
#221 = PLANE ( 'NONE',  #19 ) ;
#222 = ORIENTED_EDGE ( 'NONE', *, *, #467, .F. ) ;
#223 = PLANE ( 'NONE',  #510 ) ;
#224 = DIRECTION ( 'NONE',  ( -0.000000000000000000, -0.000000000000000000, -1.000000000000000000 ) ) ;
#225 = CARTESIAN_POINT ( 'NONE',  ( 8.500000000021019630, 133.2999999999957197, 0.000000000000000000 ) ) ;
#226 = ORIENTED_EDGE ( 'NONE', *, *, #210, .F. ) ;
#227 = DIRECTION ( 'NONE',  ( 0.000000000000000000, 0.000000000000000000, 1.000000000000000000 ) ) ;
#228 = CARTESIAN_POINT ( 'NONE',  ( 160.0000000000000000, 70.00000000000000000, 12.00000000000000000 ) ) ;
#229 = CARTESIAN_POINT ( 'NONE',  ( 155.2500000000000000, 4.749999999999999112, 7.000000000000000000 ) ) ;
#230 = VERTEX_POINT ( 'NONE', #438 ) ;
#231 = VECTOR ( 'NONE', #647, 1000.000000000000000 ) ;
#232 = CARTESIAN_POINT ( 'NONE',  ( 155.2500000000000000, 4.749999999999999112, 12.00000000000000000 ) ) ;
#233 = CARTESIAN_POINT ( 'NONE',  ( 90.00000000000000000, 160.0000000000000000, 12.00000000000000000 ) ) ;
#234 = AXIS2_PLACEMENT_3D ( 'NONE', #856, #786, #852 ) ;
#235 = CARTESIAN_POINT ( 'NONE',  ( 0.000000000000000000, 160.0000000000000000, 12.00000000000000000 ) ) ;
#236 = MECHANICAL_DESIGN_GEOMETRIC_PRESENTATION_REPRESENTATION (  '', ( #692 ), #277 ) ;
#237 = VERTEX_POINT ( 'NONE', #598 ) ;
#238 = FACE_OUTER_BOUND ( 'NONE', #650, .T. ) ;
#239 = EDGE_CURVE ( 'NONE', #764, #817, #862, .T. ) ;
#240 = CARTESIAN_POINT ( 'NONE',  ( 160.0000000000000000, 0.000000000000000000, 0.000000000000000000 ) ) ;
#241 = EDGE_CURVE ( 'NONE', #293, #869, #104, .T. ) ;
#242 = DIRECTION ( 'NONE',  ( 0.000000000000000000, -1.000000000000000000, 0.000000000000000000 ) ) ;
#243 = VERTEX_POINT ( 'NONE', #442 ) ;
#244 = DIRECTION ( 'NONE',  ( 0.000000000000000000, 1.000000000000000000, 0.000000000000000000 ) ) ;
#245 = DIRECTION ( 'NONE',  ( 0.000000000000000000, 1.000000000000000000, 0.000000000000000000 ) ) ;
#246 = DIRECTION ( 'NONE',  ( 0.000000000000000000, -0.000000000000000000, -1.000000000000000000 ) ) ;
#247 = EDGE_CURVE ( 'NONE', #833, #237, #99, .T. ) ;
#248 = ORIENTED_EDGE ( 'NONE', *, *, #777, .T. ) ;
#249 = CARTESIAN_POINT ( 'NONE',  ( 160.0000000000000000, 70.00000000000000000, 12.00000000000000000 ) ) ;
#250 = DIRECTION ( 'NONE',  ( -0.000000000000000000, -0.000000000000000000, 1.000000000000000000 ) ) ;
#251 = ORIENTED_EDGE ( 'NONE', *, *, #453, .T. ) ;
#252 = VECTOR ( 'NONE', #224, 1000.000000000000000 ) ;
#253 = CARTESIAN_POINT ( 'NONE',  ( 160.0000000000000000, 70.00000000000000000, 12.00000000000000000 ) ) ;
#254 = DIRECTION ( 'NONE',  ( -1.000000000000000000, 0.000000000000000000, 0.000000000000000000 ) ) ;
#255 = EDGE_LOOP ( 'NONE', ( #26, #22, #788, #602 ) ) ;
#256 = ADVANCED_FACE ( 'NONE', ( #519 ), #582, .F. ) ;
#257 = CARTESIAN_POINT ( 'NONE',  ( 90.30000000000001137, 0.000000000000000000, 0.000000000000000000 ) ) ;
#258 = ORIENTED_EDGE ( 'NONE', *, *, #614, .T. ) ;
#259 =( GEOMETRIC_REPRESENTATION_CONTEXT ( 3 ) GLOBAL_UNCERTAINTY_ASSIGNED_CONTEXT ( ( #824 ) ) GLOBAL_UNIT_ASSIGNED_CONTEXT ( ( #665, #719, #36 ) ) REPRESENTATION_CONTEXT ( 'NONE', 'WORKASPACE' ) );
#260 = CARTESIAN_POINT ( 'NONE',  ( 0.000000000000000000, 160.0000000000000000, 0.000000000000000000 ) ) ;
#261 = VERTEX_POINT ( 'NONE', #726 ) ;
#262 = ORIENTED_EDGE ( 'NONE', *, *, #362, .F. ) ;
#263 = VECTOR ( 'NONE', #314, 1000.000000000000000 ) ;
#264 = EDGE_CURVE ( 'NONE', #842, #213, #729, .T. ) ;
#265 = DIRECTION ( 'NONE',  ( 0.000000000000000000, 1.000000000000000000, 0.000000000000000000 ) ) ;
#266 = APPLICATION_CONTEXT ( 'automotive_design' ) ;
#267 = EDGE_CURVE ( 'NONE', #455, #697, #47, .T. ) ;
#268 = VERTEX_POINT ( 'NONE', #661 ) ;
#269 = CARTESIAN_POINT ( 'NONE',  ( 70.00000000000000000, 164.0000000000000000, 12.00000000000000000 ) ) ;
#270 = EDGE_CURVE ( 'NONE', #261, #217, #172, .T. ) ;
#271 = ORIENTED_EDGE ( 'NONE', *, *, #424, .T. ) ;
#272 = ORIENTED_EDGE ( 'NONE', *, *, #518, .F. ) ;
#273 = DIRECTION ( 'NONE',  ( -0.000000000000000000, -0.000000000000000000, -1.000000000000000000 ) ) ;
#274 = ORIENTED_EDGE ( 'NONE', *, *, #362, .T. ) ;
#275 = ORIENTED_EDGE ( 'NONE', *, *, #495, .F. ) ;
#276 = VECTOR ( 'NONE', #298, 1000.000000000000000 ) ;
#277 =( GEOMETRIC_REPRESENTATION_CONTEXT ( 3 ) GLOBAL_UNCERTAINTY_ASSIGNED_CONTEXT ( ( #695 ) ) GLOBAL_UNIT_ASSIGNED_CONTEXT ( ( #756, #643, #348 ) ) REPRESENTATION_CONTEXT ( 'NONE', 'WORKASPACE' ) );
#278 = DIRECTION ( 'NONE',  ( 1.000000000000000000, 0.000000000000000000, -0.000000000000000000 ) ) ;
#279 = DIRECTION ( 'NONE',  ( -0.000000000000000000, -0.000000000000000000, -1.000000000000000000 ) ) ;
#280 = DIRECTION ( 'NONE',  ( 0.000000000000000000, 1.000000000000000000, 0.000000000000000000 ) ) ;
#281 = ADVANCED_FACE ( 'NONE', ( #372 ), #649, .F. ) ;
#282 = CARTESIAN_POINT ( 'NONE',  ( 160.0000000000000000, 0.000000000000000000, 12.00000000000000000 ) ) ;
#283 = DIRECTION ( 'NONE',  ( -1.000000000000000000, 0.000000000000000000, 0.000000000000000000 ) ) ;
#284 = EDGE_LOOP ( 'NONE', ( #274, #860, #738, #796 ) ) ;
#285 = LINE ( 'NONE', #560, #50 ) ;
#286 = DIRECTION ( 'NONE',  ( -1.000000000000000000, 0.000000000000000000, 0.000000000000000000 ) ) ;
#287 = ORIENTED_EDGE ( 'NONE', *, *, #593, .T. ) ;
#288 = CARTESIAN_POINT ( 'NONE',  ( 160.0000000000000000, 0.000000000000000000, 0.000000000000000000 ) ) ;
#289 = CIRCLE ( 'NONE', #846, 3.450000000000001510 ) ;
#290 = CARTESIAN_POINT ( 'NONE',  ( 155.2500000000000000, 4.749999999999999112, 7.000000000000000000 ) ) ;
#291 = FACE_OUTER_BOUND ( 'NONE', #196, .T. ) ;
#292 = ADVANCED_FACE ( 'NONE', ( #542 ), #333, .F. ) ;
#293 = VERTEX_POINT ( 'NONE', #53 ) ;
#294 = LINE ( 'NONE', #819, #252 ) ;
#295 = DIRECTION ( 'NONE',  ( -0.000000000000000000, -0.000000000000000000, -1.000000000000000000 ) ) ;
#296 = EDGE_LOOP ( 'NONE', ( #707, #423, #458, #352 ) ) ;
#297 = DIRECTION ( 'NONE',  ( 1.000000000000000000, 0.000000000000000000, 0.000000000000000000 ) ) ;
#298 = DIRECTION ( 'NONE',  ( -0.000000000000000000, -0.000000000000000000, 1.000000000000000000 ) ) ;
#299 = CARTESIAN_POINT ( 'NONE',  ( 164.0000000000000000, 90.00000000000000000, 12.00000000000000000 ) ) ;
#300 = EDGE_LOOP ( 'NONE', ( #186, #701, #258, #131, #471, #373, #201, #342, #559, #563, #447, #40, #536, #615, #870, #608 ) ) ;
#301 = EDGE_CURVE ( 'NONE', #34, #261, #322, .T. ) ;
#302 = CARTESIAN_POINT ( 'NONE',  ( 134.7499999999999716, 25.25000000000000000, 12.00000000000000000 ) ) ;
#303 = EDGE_CURVE ( 'NONE', #817, #842, #65, .T. ) ;
#304 = CARTESIAN_POINT ( 'NONE',  ( 0.000000000000000000, 90.30000000000001137, 0.000000000000000000 ) ) ;
#305 = VECTOR ( 'NONE', #39, 1000.000000000000000 ) ;
#306 = CARTESIAN_POINT ( 'NONE',  ( 160.0000000000000000, 160.0000000000000000, 12.00000000000000000 ) ) ;
#307 = ORIENTED_EDGE ( 'NONE', *, *, #199, .F. ) ;
#308 = DIRECTION ( 'NONE',  ( 0.000000000000000000, 1.000000000000000000, 0.000000000000000000 ) ) ;
#309 = FACE_BOUND ( 'NONE', #117, .T. ) ;
#310 = DIRECTION ( 'NONE',  ( -0.000000000000000000, -0.000000000000000000, -1.000000000000000000 ) ) ;
#311 = ORIENTED_EDGE ( 'NONE', *, *, #178, .F. ) ;
#312 = PLANE ( 'NONE',  #374 ) ;
#313 = LINE ( 'NONE', #844, #125 ) ;
#314 = DIRECTION ( 'NONE',  ( 0.000000000000000000, -1.000000000000000000, 0.000000000000000000 ) ) ;
#315 = ORIENTED_EDGE ( 'NONE', *, *, #715, .T. ) ;
#316 = DIRECTION ( 'NONE',  ( 0.000000000000000000, -0.000000000000000000, 1.000000000000000000 ) ) ;
#317 = CARTESIAN_POINT ( 'NONE',  ( 70.00000000000000000, 160.0000000000000000, 0.000000000000000000 ) ) ;
#318 = AXIS2_PLACEMENT_3D ( 'NONE', #153, #421, #145 ) ;
#319 = ORIENTED_EDGE ( 'NONE', *, *, #837, .F. ) ;
#320 = VECTOR ( 'NONE', #811, 1000.000000000000000 ) ;
#321 = LINE ( 'NONE', #232, #459 ) ;
#322 = LINE ( 'NONE', #197, #597 ) ;
#323 = ORIENTED_EDGE ( 'NONE', *, *, #866, .F. ) ;
#324 = DIRECTION ( 'NONE',  ( -0.000000000000000000, -0.000000000000000000, -1.000000000000000000 ) ) ;
#325 = EDGE_LOOP ( 'NONE', ( #334, #541, #55, #712 ) ) ;
#326 = EDGE_CURVE ( 'NONE', #548, #657, #606, .T. ) ;
#327 = EDGE_CURVE ( 'NONE', #230, #96, #864, .T. ) ;
#328 = CARTESIAN_POINT ( 'NONE',  ( 160.0000000000000000, 160.0000000000000000, 0.000000000000000000 ) ) ;
#329 = ORIENTED_EDGE ( 'NONE', *, *, #462, .F. ) ;
#330 = ORIENTED_EDGE ( 'NONE', *, *, #614, .F. ) ;
#331 = VECTOR ( 'NONE', #349, 1000.000000000000000 ) ;
#332 = EDGE_CURVE ( 'NONE', #697, #672, #868, .T. ) ;
#333 = PLANE ( 'NONE',  #639 ) ;
#334 = ORIENTED_EDGE ( 'NONE', *, *, #460, .T. ) ;
#335 = ORIENTED_EDGE ( 'NONE', *, *, #715, .F. ) ;
#336 = CARTESIAN_POINT ( 'NONE',  ( 70.00000000000000000, 160.0000000000000000, 0.000000000000000000 ) ) ;
#337 = ORIENTED_EDGE ( 'NONE', *, *, #518, .T. ) ;
#338 = EDGE_LOOP ( 'NONE', ( #347, #139, #369, #583 ) ) ;
#339 = AXIS2_PLACEMENT_3D ( 'NONE', #253, #244, #513 ) ;
#340 = CARTESIAN_POINT ( 'NONE',  ( 6.500000000021048052, 133.2999999999957197, 12.00000000000000000 ) ) ;
#341 = CARTESIAN_POINT ( 'NONE',  ( 155.2500000000000000, 25.25000000000000000, 12.00000000000000000 ) ) ;
#342 = ORIENTED_EDGE ( 'NONE', *, *, #81, .T. ) ;
#343 = LINE ( 'NONE', #370, #776 ) ;
#344 = VECTOR ( 'NONE', #625, 1000.000000000000000 ) ;
#345 = CARTESIAN_POINT ( 'NONE',  ( 155.2500000000000000, 25.25000000000000000, 7.000000000000000000 ) ) ;
#346 = CARTESIAN_POINT ( 'NONE',  ( 164.0000000000000000, 70.00000000000000000, 12.00000000000000000 ) ) ;
#347 = ORIENTED_EDGE ( 'NONE', *, *, #873, .F. ) ;
#348 =( NAMED_UNIT ( * ) SI_UNIT ( $, .STERADIAN. ) SOLID_ANGLE_UNIT ( ) );
#349 = DIRECTION ( 'NONE',  ( -1.000000000000000000, 0.000000000000000000, 0.000000000000000000 ) ) ;
#350 = ADVANCED_BREP_SHAPE_REPRESENTATION ( 'CNC_Cage_Base_LR', ( #798, #617 ), #259 ) ;
#351 = DIRECTION ( 'NONE',  ( 0.000000000000000000, 0.000000000000000000, -1.000000000000000000 ) ) ;
#352 = ORIENTED_EDGE ( 'NONE', *, *, #176, .T. ) ;
#353 = DIRECTION ( 'NONE',  ( 0.000000000000000000, -1.000000000000000000, 0.000000000000000000 ) ) ;
#354 = EDGE_CURVE ( 'NONE', #213, #195, #469, .T. ) ;
#355 = EDGE_CURVE ( 'NONE', #158, #543, #872, .T. ) ;
#356 = DIRECTION ( 'NONE',  ( -0.000000000000000000, -0.000000000000000000, -1.000000000000000000 ) ) ;
#357 = FACE_OUTER_BOUND ( 'NONE', #668, .T. ) ;
#358 = ORIENTED_EDGE ( 'NONE', *, *, #209, .T. ) ;
#359 = LINE ( 'NONE', #698, #394 ) ;
#360 = FACE_OUTER_BOUND ( 'NONE', #155, .T. ) ;
#361 = CIRCLE ( 'NONE', #475, 2.000000000000000000 ) ;
#362 = EDGE_CURVE ( 'NONE', #195, #672, #461, .T. ) ;
#363 = DIRECTION ( 'NONE',  ( 0.000000000000000000, 1.000000000000000000, 0.000000000000000000 ) ) ;
#364 = EDGE_LOOP ( 'NONE', ( #400, #271, #599, #58 ) ) ;
#365 = PRODUCT ( 'CNC_Cage_Base_LR', 'CNC_Cage_Base_LR', '', ( #671 ) ) ;
#366 = FACE_OUTER_BOUND ( 'NONE', #838, .T. ) ;
#367 = ADVANCED_FACE ( 'NONE', ( #534 ), #1, .F. ) ;
#368 = DIRECTION ( 'NONE',  ( 0.000000000000000000, -1.000000000000000000, 0.000000000000000000 ) ) ;
#369 = ORIENTED_EDGE ( 'NONE', *, *, #809, .F. ) ;
#370 = CARTESIAN_POINT ( 'NONE',  ( 164.0000000000000000, 70.00000000000000000, 12.00000000000000000 ) ) ;
#371 = CARTESIAN_POINT ( 'NONE',  ( 160.0000000000000000, 160.0000000000000000, 12.00000000000000000 ) ) ;
#372 = FACE_OUTER_BOUND ( 'NONE', #325, .T. ) ;
#373 = ORIENTED_EDGE ( 'NONE', *, *, #467, .T. ) ;
#374 = AXIS2_PLACEMENT_3D ( 'NONE', #584, #728, #600 ) ;
#375 = ADVANCED_FACE ( 'NONE', ( #613, #877, #746 ), #547, .T. ) ;
#376 = DIRECTION ( 'NONE',  ( 1.000000000000000000, 0.000000000000000000, 0.000000000000000000 ) ) ;
#377 = CYLINDRICAL_SURFACE ( 'NONE', #37, 3.450000000000001510 ) ;
#378 = AXIS2_PLACEMENT_3D ( 'NONE', #66, #70, #208 ) ;
#379 = VECTOR ( 'NONE', #202, 1000.000000000000000 ) ;
#380 = CARTESIAN_POINT ( 'NONE',  ( 70.00000000000000000, 164.0000000000000000, 0.000000000000000000 ) ) ;
#381 = ORIENTED_EDGE ( 'NONE', *, *, #135, .T. ) ;
#382 = DIRECTION ( 'NONE',  ( 0.000000000000000000, 0.000000000000000000, 1.000000000000000000 ) ) ;
#383 = LINE ( 'NONE', #98, #126 ) ;
#384 = DIRECTION ( 'NONE',  ( 0.000000000000000000, -1.000000000000000000, 0.000000000000000000 ) ) ;
#385 = VERTEX_POINT ( 'NONE', #739 ) ;
#386 = CARTESIAN_POINT ( 'NONE',  ( 4.200000000000000178, 90.30000000000001137, 0.000000000000000000 ) ) ;
#387 = ADVANCED_FACE ( 'NONE', ( #395 ), #137, .F. ) ;
#388 = DIRECTION ( 'NONE',  ( -0.000000000000000000, -0.000000000000000000, -1.000000000000000000 ) ) ;
#389 = ORIENTED_EDGE ( 'NONE', *, *, #837, .T. ) ;
#390 = DIRECTION ( 'NONE',  ( -0.000000000000000000, -0.000000000000000000, -1.000000000000000000 ) ) ;
#391 = DIRECTION ( 'NONE',  ( 0.000000000000000000, -1.000000000000000000, 0.000000000000000000 ) ) ;
#392 = VECTOR ( 'NONE', #450, 1000.000000000000000 ) ;
#393 = EDGE_LOOP ( 'NONE', ( #876, #141, #773, #311 ) ) ;
#394 = VECTOR ( 'NONE', #353, 1000.000000000000000 ) ;
#395 = FACE_OUTER_BOUND ( 'NONE', #284, .T. ) ;
#396 = ADVANCED_FACE ( 'NONE', ( #406 ), #673, .F. ) ;
#397 = ORIENTED_EDGE ( 'NONE', *, *, #210, .T. ) ;
#398 = EDGE_CURVE ( 'NONE', #817, #858, #130, .T. ) ;
#399 = DIRECTION ( 'NONE',  ( 0.000000000000000000, 0.000000000000000000, 1.000000000000000000 ) ) ;
#400 = ORIENTED_EDGE ( 'NONE', *, *, #573, .T. ) ;
#401 = EDGE_CURVE ( 'NONE', #217, #411, #61, .T. ) ;
#402 = DIRECTION ( 'NONE',  ( 1.000000000000000000, 0.000000000000000000, -0.000000000000000000 ) ) ;
#403 = ORIENTED_EDGE ( 'NONE', *, *, #556, .F. ) ;
#404 = ORIENTED_EDGE ( 'NONE', *, *, #144, .T. ) ;
#405 = VECTOR ( 'NONE', #551, 1000.000000000000000 ) ;
#406 = FACE_OUTER_BOUND ( 'NONE', #807, .T. ) ;
#407 = ORIENTED_EDGE ( 'NONE', *, *, #476, .T. ) ;
#408 = ORIENTED_EDGE ( 'NONE', *, *, #443, .F. ) ;
#409 = DIRECTION ( 'NONE',  ( -1.000000000000000000, 0.000000000000000000, 0.000000000000000000 ) ) ;
#410 = ORIENTED_EDGE ( 'NONE', *, *, #43, .F. ) ;
#411 = VERTEX_POINT ( 'NONE', #328 ) ;
#412 = CARTESIAN_POINT ( 'NONE',  ( 160.0000000000000000, 160.0000000000000000, 12.00000000000000000 ) ) ;
#413 = PLANE ( 'NONE',  #550 ) ;
#414 = DIRECTION ( 'NONE',  ( 0.000000000000000000, -0.000000000000000000, 1.000000000000000000 ) ) ;
#415 = VERTEX_POINT ( 'NONE', #539 ) ;
#416 = AXIS2_PLACEMENT_3D ( 'NONE', #80, #295, #562 ) ;
#417 = LINE ( 'NONE', #497, #79 ) ;
#418 = VECTOR ( 'NONE', #409, 1000.000000000000000 ) ;
#419 = VECTOR ( 'NONE', #693, 1000.000000000000000 ) ;
#420 = LINE ( 'NONE', #290, #206 ) ;
#421 = DIRECTION ( 'NONE',  ( 0.000000000000000000, 0.000000000000000000, -1.000000000000000000 ) ) ;
#422 = EDGE_CURVE ( 'NONE', #59, #842, #667, .T. ) ;
#423 = ORIENTED_EDGE ( 'NONE', *, *, #742, .F. ) ;
#424 = EDGE_CURVE ( 'NONE', #478, #91, #750, .T. ) ;
#425 = CARTESIAN_POINT ( 'NONE',  ( 90.00000000000000000, 160.0000000000000000, 12.00000000000000000 ) ) ;
#426 = CARTESIAN_POINT ( 'NONE',  ( 134.7499999999999716, 4.749999999999999112, 7.000000000000000000 ) ) ;
#427 = CARTESIAN_POINT ( 'NONE',  ( 155.2500000000000000, 4.749999999999999112, 12.00000000000000000 ) ) ;
#428 = ORIENTED_EDGE ( 'NONE', *, *, #178, .T. ) ;
#429 = DIRECTION ( 'NONE',  ( 0.000000000000000000, -1.000000000000000000, 0.000000000000000000 ) ) ;
#430 = EDGE_CURVE ( 'NONE', #455, #195, #294, .T. ) ;
#431 = DIRECTION ( 'NONE',  ( -0.000000000000000000, -0.000000000000000000, 1.000000000000000000 ) ) ;
#432 = LINE ( 'NONE', #627, #149 ) ;
#433 = ORIENTED_EDGE ( 'NONE', *, *, #60, .F. ) ;
#434 = DIRECTION ( 'NONE',  ( 0.000000000000000000, -1.000000000000000000, 0.000000000000000000 ) ) ;
#435 = VECTOR ( 'NONE', #363, 1000.000000000000000 ) ;
#436 = DIRECTION ( 'NONE',  ( -1.000000000000000000, 0.000000000000000000, 0.000000000000000000 ) ) ;
#437 = AXIS2_PLACEMENT_3D ( 'NONE', #835, #4, #219 ) ;
#438 = CARTESIAN_POINT ( 'NONE',  ( 155.2500000000000000, 25.25000000000000000, 7.000000000000000000 ) ) ;
#439 = ORIENTED_EDGE ( 'NONE', *, *, #326, .F. ) ;
#440 = DIRECTION ( 'NONE',  ( 0.000000000000000000, 0.000000000000000000, 1.000000000000000000 ) ) ;
#441 = CARTESIAN_POINT ( 'NONE',  ( 0.000000000000000000, 0.000000000000000000, 7.000000000000000000 ) ) ;
#442 = CARTESIAN_POINT ( 'NONE',  ( 0.000000000000000000, 0.000000000000000000, 12.00000000000000000 ) ) ;
#443 = EDGE_CURVE ( 'NONE', #764, #59, #493, .T. ) ;
#444 = ORIENTED_EDGE ( 'NONE', *, *, #809, .T. ) ;
#445 = DIRECTION ( 'NONE',  ( -1.000000000000000000, 0.000000000000000000, 0.000000000000000000 ) ) ;
#446 = CARTESIAN_POINT ( 'NONE',  ( 160.0000000000000000, 90.00000000000000000, 12.00000000000000000 ) ) ;
#447 = ORIENTED_EDGE ( 'NONE', *, *, #398, .T. ) ;
#448 = DIRECTION ( 'NONE',  ( 1.000000000000000000, 0.000000000000000000, 0.000000000000000000 ) ) ;
#449 = AXIS2_PLACEMENT_3D ( 'NONE', #188, #402, #669 ) ;
#450 = DIRECTION ( 'NONE',  ( -0.000000000000000000, -0.000000000000000000, -1.000000000000000000 ) ) ;
#451 = VERTEX_POINT ( 'NONE', #631 ) ;
#452 = DIRECTION ( 'NONE',  ( 0.000000000000000000, 1.000000000000000000, 0.000000000000000000 ) ) ;
#453 = EDGE_CURVE ( 'NONE', #854, #879, #814, .T. ) ;
#454 = CARTESIAN_POINT ( 'NONE',  ( 134.7499999999999716, 4.749999999999999112, 7.000000000000000000 ) ) ;
#455 = VERTEX_POINT ( 'NONE', #160 ) ;
#456 = DIRECTION ( 'NONE',  ( 0.000000000000000000, -1.000000000000000000, 0.000000000000000000 ) ) ;
#457 = CARTESIAN_POINT ( 'NONE',  ( 0.000000000000000000, 90.30000000000001137, 12.00000000000000000 ) ) ;
#458 = ORIENTED_EDGE ( 'NONE', *, *, #561, .F. ) ;
#459 = VECTOR ( 'NONE', #308, 1000.000000000000000 ) ;
#460 = EDGE_CURVE ( 'NONE', #411, #604, #156, .T. ) ;
#461 = LINE ( 'NONE', #260, #379 ) ;
#462 = EDGE_CURVE ( 'NONE', #869, #182, #72, .T. ) ;
#463 = AXIS2_PLACEMENT_3D ( 'NONE', #299, #368, #246 ) ;
#464 = ORIENTED_EDGE ( 'NONE', *, *, #144, .F. ) ;
#465 = EDGE_LOOP ( 'NONE', ( #500, #129, #407, #337 ) ) ;
#466 = DIRECTION ( 'NONE',  ( 1.000000000000000000, 0.000000000000000000, 0.000000000000000000 ) ) ;
#467 = EDGE_CURVE ( 'NONE', #34, #268, #699, .T. ) ;
#468 = VERTEX_POINT ( 'NONE', #282 ) ;
#469 = LINE ( 'NONE', #336, #679 ) ;
#470 = ORIENTED_EDGE ( 'NONE', *, *, #520, .F. ) ;
#471 = ORIENTED_EDGE ( 'NONE', *, *, #69, .T. ) ;
#472 = DIRECTION ( 'NONE',  ( 1.000000000000000000, 0.000000000000000000, -0.000000000000000000 ) ) ;
#473 = ORIENTED_EDGE ( 'NONE', *, *, #83, .T. ) ;
#474 = ORIENTED_EDGE ( 'NONE', *, *, #745, .F. ) ;
#475 = AXIS2_PLACEMENT_3D ( 'NONE', #688, #635, #767 ) ;
#476 = EDGE_CURVE ( 'NONE', #451, #543, #150, .T. ) ;
#477 = DIRECTION ( 'NONE',  ( -1.000000000000000000, 0.000000000000000000, 0.000000000000000000 ) ) ;
#478 = VERTEX_POINT ( 'NONE', #426 ) ;
#479 = LINE ( 'NONE', #159, #850 ) ;
#480 = CARTESIAN_POINT ( 'NONE',  ( 0.000000000000000000, 0.000000000000000000, 0.000000000000000000 ) ) ;
#481 = LINE ( 'NONE', #216, #490 ) ;
#482 = ORIENTED_EDGE ( 'NONE', *, *, #653, .F. ) ;
#483 = CARTESIAN_POINT ( 'NONE',  ( 90.00000000000000000, 164.0000000000000000, 12.00000000000000000 ) ) ;
#484 = VECTOR ( 'NONE', #595, 1000.000000000000000 ) ;
#485 = DIRECTION ( 'NONE',  ( 0.000000000000000000, 1.000000000000000000, 0.000000000000000000 ) ) ;
#486 = EDGE_CURVE ( 'NONE', #521, #3, #618, .T. ) ;
#487 = CARTESIAN_POINT ( 'NONE',  ( 90.00000000000000000, 164.0000000000000000, 0.000000000000000000 ) ) ;
#488 = ADVANCED_FACE ( 'NONE', ( #685 ), #89, .F. ) ;
#489 = EDGE_LOOP ( 'NONE', ( #381, #670, #162, #248 ) ) ;
#490 = VECTOR ( 'NONE', #310, 1000.000000000000000 ) ;
#491 = SURFACE_SIDE_STYLE ('',( #84 ) ) ;
#492 = VECTOR ( 'NONE', #626, 1000.000000000000000 ) ;
#493 = LINE ( 'NONE', #566, #724 ) ;
#494 = CARTESIAN_POINT ( 'NONE',  ( 10.50000000002104805, 133.2999999999957197, 12.00000000000000000 ) ) ;
#495 = EDGE_CURVE ( 'NONE', #123, #521, #508, .T. ) ;
#496 = ORIENTED_EDGE ( 'NONE', *, *, #30, .F. ) ;
#497 = CARTESIAN_POINT ( 'NONE',  ( 4.200000000000000178, 90.30000000000001137, 0.000000000000000000 ) ) ;
#498 = DIRECTION ( 'NONE',  ( -0.000000000000000000, -0.000000000000000000, -1.000000000000000000 ) ) ;
#499 = DIRECTION ( 'NONE',  ( 0.000000000000000000, 0.000000000000000000, 1.000000000000000000 ) ) ;
#500 = ORIENTED_EDGE ( 'NONE', *, *, #83, .F. ) ;
#501 = FACE_OUTER_BOUND ( 'NONE', #741, .T. ) ;
#502 = FACE_OUTER_BOUND ( 'NONE', #134, .T. ) ;
#503 = AXIS2_PLACEMENT_3D ( 'NONE', #861, #440, #376 ) ;
#504 = LINE ( 'NONE', #494, #124 ) ;
#505 = ORIENTED_EDGE ( 'NONE', *, *, #56, .T. ) ;
#506 = FACE_OUTER_BOUND ( 'NONE', #691, .T. ) ;
#507 = AXIS2_PLACEMENT_3D ( 'NONE', #619, #763, #696 ) ;
#508 = CIRCLE ( 'NONE', #437, 3.450000000000001510 ) ;
#509 = PLANE ( 'NONE',  #234 ) ;
#510 = AXIS2_PLACEMENT_3D ( 'NONE', #142, #429, #214 ) ;
#511 = CARTESIAN_POINT ( 'NONE',  ( 70.00000000000000000, 160.0000000000000000, 12.00000000000000000 ) ) ;
#512 = ORIENTED_EDGE ( 'NONE', *, *, #520, .T. ) ;
#513 = DIRECTION ( 'NONE',  ( 0.000000000000000000, -0.000000000000000000, 1.000000000000000000 ) ) ;
#514 = DIRECTION ( 'NONE',  ( 0.000000000000000000, -1.000000000000000000, 0.000000000000000000 ) ) ;
#515 = DIRECTION ( 'NONE',  ( 0.000000000000000000, -0.000000000000000000, -1.000000000000000000 ) ) ;
#516 = ORIENTED_EDGE ( 'NONE', *, *, #301, .F. ) ;
#517 = CARTESIAN_POINT ( 'NONE',  ( 90.00000000000000000, 160.0000000000000000, 0.000000000000000000 ) ) ;
#518 = EDGE_CURVE ( 'NONE', #543, #158, #361, .T. ) ;
#519 = FACE_OUTER_BOUND ( 'NONE', #664, .T. ) ;
#520 = EDGE_CURVE ( 'NONE', #91, #67, #420, .T. ) ;
#521 = VERTEX_POINT ( 'NONE', #215 ) ;
#522 = AXIS2_PLACEMENT_3D ( 'NONE', #187, #452, #316 ) ;
#523 = LINE ( 'NONE', #121, #484 ) ;
#524 = VECTOR ( 'NONE', #498, 1000.000000000000000 ) ;
#525 = CARTESIAN_POINT ( 'NONE',  ( 160.0000000000000000, 90.00000000000000000, 0.000000000000000000 ) ) ;
#526 = ORIENTED_EDGE ( 'NONE', *, *, #401, .F. ) ;
#527 = PRODUCT_DEFINITION ( 'General', '', #107, #705 ) ;
#528 = FACE_BOUND ( 'NONE', #568, .T. ) ;
#529 = DIRECTION ( 'NONE',  ( -0.000000000000000000, -0.000000000000000000, -1.000000000000000000 ) ) ;
#530 = ORIENTED_EDGE ( 'NONE', *, *, #270, .T. ) ;
#531 = DIRECTION ( 'NONE',  ( -0.000000000000000000, -0.000000000000000000, -1.000000000000000000 ) ) ;
#532 = PLANE ( 'NONE',  #507 ) ;
#533 = SHAPE_DEFINITION_REPRESENTATION ( #800, #350 ) ;
#534 = FACE_OUTER_BOUND ( 'NONE', #296, .T. ) ;
#535 = VECTOR ( 'NONE', #732, 1000.000000000000000 ) ;
#536 = ORIENTED_EDGE ( 'NONE', *, *, #267, .T. ) ;
#537 = VECTOR ( 'NONE', #839, 1000.000000000000000 ) ;
#538 = ORIENTED_EDGE ( 'NONE', *, *, #677, .F. ) ;
#539 = CARTESIAN_POINT ( 'NONE',  ( 5.050000000021018565, 133.2999999999957197, 0.000000000000000000 ) ) ;
#540 = ORIENTED_EDGE ( 'NONE', *, *, #462, .T. ) ;
#541 = ORIENTED_EDGE ( 'NONE', *, *, #630, .F. ) ;
#542 = FACE_OUTER_BOUND ( 'NONE', #255, .T. ) ;
#543 = VERTEX_POINT ( 'NONE', #24 ) ;
#544 = ADVANCED_FACE ( 'NONE', ( #360 ), #640, .F. ) ;
#545 = APPLICATION_PROTOCOL_DEFINITION ( 'draft international standard', 'automotive_design', 1998, #51 ) ;
#546 = ORIENTED_EDGE ( 'NONE', *, *, #176, .F. ) ;
#547 = PLANE ( 'NONE',  #791 ) ;
#548 = VERTEX_POINT ( 'NONE', #480 ) ;
#549 = AXIS2_PLACEMENT_3D ( 'NONE', #648, #108, #448 ) ;
#550 = AXIS2_PLACEMENT_3D ( 'NONE', #345, #485, #757 ) ;
#551 = DIRECTION ( 'NONE',  ( 1.000000000000000000, 0.000000000000000000, 0.000000000000000000 ) ) ;
#552 = DIRECTION ( 'NONE',  ( 0.000000000000000000, 0.000000000000000000, -1.000000000000000000 ) ) ;
#553 = ORIENTED_EDGE ( 'NONE', *, *, #740, .F. ) ;
#554 = CARTESIAN_POINT ( 'NONE',  ( 155.2500000000000000, 25.25000000000000000, 7.000000000000000000 ) ) ;
#555 = ADVANCED_FACE ( 'NONE', ( #143 ), #413, .F. ) ;
#556 = EDGE_CURVE ( 'NONE', #854, #293, #694, .T. ) ;
#557 = CARTESIAN_POINT ( 'NONE',  ( 4.200000000000000178, 69.70000000000000284, 0.000000000000000000 ) ) ;
#558 = DIRECTION ( 'NONE',  ( 0.000000000000000000, 0.000000000000000000, 1.000000000000000000 ) ) ;
#559 = ORIENTED_EDGE ( 'NONE', *, *, #779, .T. ) ;
#560 = CARTESIAN_POINT ( 'NONE',  ( 160.0000000000000000, 90.00000000000000000, 12.00000000000000000 ) ) ;
#561 = EDGE_CURVE ( 'NONE', #268, #616, #285, .T. ) ;
#562 = DIRECTION ( 'NONE',  ( -1.000000000000000000, 0.000000000000000000, 0.000000000000000000 ) ) ;
#563 = ORIENTED_EDGE ( 'NONE', *, *, #239, .T. ) ;
#564 = CARTESIAN_POINT ( 'NONE',  ( 134.7499999999999716, 25.25000000000000000, 12.00000000000000000 ) ) ;
#565 = VECTOR ( 'NONE', #823, 1000.000000000000000 ) ;
#566 = CARTESIAN_POINT ( 'NONE',  ( 90.00000000000000000, 164.0000000000000000, 12.00000000000000000 ) ) ;
#567 = CARTESIAN_POINT ( 'NONE',  ( 160.0000000000000000, 0.000000000000000000, 12.00000000000000000 ) ) ;
#568 = EDGE_LOOP ( 'NONE', ( #272, #170 ) ) ;
#569 = LINE ( 'NONE', #75, #419 ) ;
#570 = PLANE ( 'NONE',  #666 ) ;
#571 = DIRECTION ( 'NONE',  ( 1.000000000000000000, 0.000000000000000000, 0.000000000000000000 ) ) ;
#572 = ORIENTED_EDGE ( 'NONE', *, *, #779, .F. ) ;
#573 = EDGE_CURVE ( 'NONE', #96, #478, #840, .T. ) ;
#574 = CARTESIAN_POINT ( 'NONE',  ( 10.50000000002104805, 133.2999999999957197, 12.00000000000000000 ) ) ;
#575 = FACE_OUTER_BOUND ( 'NONE', #875, .T. ) ;
#576 = LINE ( 'NONE', #185, #112 ) ;
#577 = EDGE_LOOP ( 'NONE', ( #74, #275, #428, #203 ) ) ;
#578 = CARTESIAN_POINT ( 'NONE',  ( 0.000000000000000000, 0.000000000000000000, 0.000000000000000000 ) ) ;
#579 = VECTOR ( 'NONE', #778, 1000.000000000000000 ) ;
#580 = DIRECTION ( 'NONE',  ( -0.000000000000000000, 0.000000000000000000, 1.000000000000000000 ) ) ;
#581 = AXIS2_PLACEMENT_3D ( 'NONE', #148, #770, #227 ) ;
#582 = PLANE ( 'NONE',  #136 ) ;
#583 = ORIENTED_EDGE ( 'NONE', *, *, #765, .F. ) ;
#584 = CARTESIAN_POINT ( 'NONE',  ( 8.500000000021019630, 133.2999999999957197, 8.000000000000000000 ) ) ;
#585 = ADVANCED_FACE ( 'NONE', ( #309, #710 ), #720, .F. ) ;
#586 = DIRECTION ( 'NONE',  ( 1.000000000000000000, 0.000000000000000000, 0.000000000000000000 ) ) ;
#587 = ADVANCED_FACE ( 'NONE', ( #575 ), #570, .F. ) ;
#588 = LINE ( 'NONE', #446, #654 ) ;
#589 = ORIENTED_EDGE ( 'NONE', *, *, #867, .F. ) ;
#590 = CARTESIAN_POINT ( 'NONE',  ( 8.500000000021019630, 133.2999999999957197, 0.000000000000000000 ) ) ;
#591 = CARTESIAN_POINT ( 'NONE',  ( 134.7499999999999716, 25.25000000000000000, 7.000000000000000000 ) ) ;
#592 = LINE ( 'NONE', #28, #305 ) ;
#593 = EDGE_CURVE ( 'NONE', #96, #722, #771, .T. ) ;
#594 = ORIENTED_EDGE ( 'NONE', *, *, #717, .T. ) ;
#595 = DIRECTION ( 'NONE',  ( 1.000000000000000000, 0.000000000000000000, 0.000000000000000000 ) ) ;
#596 = CIRCLE ( 'NONE', #318, 3.450000000000001510 ) ;
#597 = VECTOR ( 'NONE', #273, 1000.000000000000000 ) ;
#598 = CARTESIAN_POINT ( 'NONE',  ( 160.0000000000000000, 70.00000000000000000, 0.000000000000000000 ) ) ;
#599 = ORIENTED_EDGE ( 'NONE', *, *, #60, .T. ) ;
#600 = DIRECTION ( 'NONE',  ( -1.000000000000000000, 0.000000000000000000, -0.000000000000000000 ) ) ;
#601 = DIRECTION ( 'NONE',  ( -0.000000000000000000, 0.000000000000000000, -1.000000000000000000 ) ) ;
#602 = ORIENTED_EDGE ( 'NONE', *, *, #303, .T. ) ;
#603 = CARTESIAN_POINT ( 'NONE',  ( 160.0000000000000000, 90.00000000000000000, 0.000000000000000000 ) ) ;
#604 = VERTEX_POINT ( 'NONE', #517 ) ;
#605 = ORIENTED_EDGE ( 'NONE', *, *, #624, .F. ) ;
#606 = LINE ( 'NONE', #257, #5 ) ;
#607 = VECTOR ( 'NONE', #250, 1000.000000000000000 ) ;
#608 = ORIENTED_EDGE ( 'NONE', *, *, #740, .T. ) ;
#609 = ORIENTED_EDGE ( 'NONE', *, *, #354, .F. ) ;
#610 = CARTESIAN_POINT ( 'NONE',  ( 160.0000000000000000, 90.00000000000000000, 12.00000000000000000 ) ) ;
#611 = EDGE_CURVE ( 'NONE', #243, #468, #313, .T. ) ;
#612 = EDGE_LOOP ( 'NONE', ( #179, #329, #335, #589, #262, #609, #684, #191, #730, #799, #526, #633, #63, #816, #538, #439 ) ) ;
#613 = FACE_BOUND ( 'NONE', #338, .T. ) ;
#614 = EDGE_CURVE ( 'NONE', #468, #833, #655, .T. ) ;
#615 = ORIENTED_EDGE ( 'NONE', *, *, #866, .T. ) ;
#616 = VERTEX_POINT ( 'NONE', #371 ) ;
#617 = AXIS2_PLACEMENT_3D ( 'NONE', #578, #382, #658 ) ;
#618 = LINE ( 'NONE', #207, #524 ) ;
#619 = CARTESIAN_POINT ( 'NONE',  ( 164.0000000000000000, 70.00000000000000000, 12.00000000000000000 ) ) ;
#620 = VECTOR ( 'NONE', #245, 1000.000000000000000 ) ;
#621 = ADVANCED_FACE ( 'NONE', ( #502 ), #509, .F. ) ;
#622 = ORIENTED_EDGE ( 'NONE', *, *, #777, .F. ) ;
#623 = VECTOR ( 'NONE', #88, 1000.000000000000000 ) ;
#624 = EDGE_CURVE ( 'NONE', #833, #105, #714, .T. ) ;
#625 = DIRECTION ( 'NONE',  ( 0.000000000000000000, 1.000000000000000000, 0.000000000000000000 ) ) ;
#626 = DIRECTION ( 'NONE',  ( -0.000000000000000000, -0.000000000000000000, -1.000000000000000000 ) ) ;
#627 = CARTESIAN_POINT ( 'NONE',  ( 160.0000000000000000, 70.00000000000000000, 0.000000000000000000 ) ) ;
#628 = EDGE_LOOP ( 'NONE', ( #173, #464, #15, #594 ) ) ;
#629 = DIRECTION ( 'NONE',  ( -0.000000000000000000, -0.000000000000000000, -1.000000000000000000 ) ) ;
#630 = EDGE_CURVE ( 'NONE', #71, #604, #115, .T. ) ;
#631 = CARTESIAN_POINT ( 'NONE',  ( 6.500000000021048052, 133.2999999999957197, 12.00000000000000000 ) ) ;
#632 = LINE ( 'NONE', #14, #76 ) ;
#633 = ORIENTED_EDGE ( 'NONE', *, *, #270, .F. ) ;
#634 = CARTESIAN_POINT ( 'NONE',  ( 155.2500000000000000, 25.25000000000000000, 12.00000000000000000 ) ) ;
#635 = DIRECTION ( 'NONE',  ( 0.000000000000000000, 0.000000000000000000, -1.000000000000000000 ) ) ;
#636 = DIRECTION ( 'NONE',  ( 0.000000000000000000, 1.000000000000000000, 0.000000000000000000 ) ) ;
#637 = EDGE_LOOP ( 'NONE', ( #48, #642, #482, #138 ) ) ;
#638 = LINE ( 'NONE', #412, #623 ) ;
#639 = AXIS2_PLACEMENT_3D ( 'NONE', #132, #472, #601 ) ;
#640 = PLANE ( 'NONE',  #52 ) ;
#641 = CARTESIAN_POINT ( 'NONE',  ( 90.00000000000000000, 160.0000000000000000, 12.00000000000000000 ) ) ;
#642 = ORIENTED_EDGE ( 'NONE', *, *, #430, .F. ) ;
#643 =( NAMED_UNIT ( * ) PLANE_ANGLE_UNIT ( ) SI_UNIT ( $, .RADIAN. ) );
#644 = PLANE ( 'NONE',  #690 ) ;
#645 = CARTESIAN_POINT ( 'NONE',  ( 10.50000000002104805, 133.2999999999957197, 8.000000000000000000 ) ) ;
#646 = ORIENTED_EDGE ( 'NONE', *, *, #332, .T. ) ;
#647 = DIRECTION ( 'NONE',  ( -0.000000000000000000, -0.000000000000000000, -1.000000000000000000 ) ) ;
#648 = CARTESIAN_POINT ( 'NONE',  ( 0.000000000000000000, 0.000000000000000000, 0.000000000000000000 ) ) ;
#649 = PLANE ( 'NONE',  #167 ) ;
#650 = EDGE_LOOP ( 'NONE', ( #111, #82, #605, #810 ) ) ;
#651 = ADVANCED_FACE ( 'NONE', ( #171 ), #644, .T. ) ;
#652 = AXIS2_PLACEMENT_3D ( 'NONE', #567, #706, #558 ) ;
#653 = EDGE_CURVE ( 'NONE', #858, #455, #383, .T. ) ;
#654 = VECTOR ( 'NONE', #388, 1000.000000000000000 ) ;
#655 = LINE ( 'NONE', #180, #620 ) ;
#656 = FACE_OUTER_BOUND ( 'NONE', #793, .T. ) ;
#657 = VERTEX_POINT ( 'NONE', #240 ) ;
#658 = DIRECTION ( 'NONE',  ( 1.000000000000000000, 0.000000000000000000, 0.000000000000000000 ) ) ;
#659 = ADVANCED_FACE ( 'NONE', ( #660 ), #377, .F. ) ;
#660 = FACE_OUTER_BOUND ( 'NONE', #577, .T. ) ;
#661 = CARTESIAN_POINT ( 'NONE',  ( 160.0000000000000000, 90.00000000000000000, 12.00000000000000000 ) ) ;
#662 = ORIENTED_EDGE ( 'NONE', *, *, #717, .F. ) ;
#663 = CARTESIAN_POINT ( 'NONE',  ( 0.000000000000000000, 160.0000000000000000, 0.000000000000000000 ) ) ;
#664 = EDGE_LOOP ( 'NONE', ( #204, #470, #87, #397 ) ) ;
#665 =( LENGTH_UNIT ( ) NAMED_UNIT ( * ) SI_UNIT ( .MILLI., .METRE. ) );
#666 = AXIS2_PLACEMENT_3D ( 'NONE', #783, #175, #103 ) ;
#667 = LINE ( 'NONE', #808, #151 ) ;
#668 = EDGE_LOOP ( 'NONE', ( #444, #622, #433, #512 ) ) ;
#669 = DIRECTION ( 'NONE',  ( -0.000000000000000000, 0.000000000000000000, -1.000000000000000000 ) ) ;
#670 = ORIENTED_EDGE ( 'NONE', *, *, #593, .F. ) ;
#671 = PRODUCT_CONTEXT ( 'NONE', #266, 'mechanical' ) ;
#672 = VERTEX_POINT ( 'NONE', #304 ) ;
#673 = CYLINDRICAL_SURFACE ( 'NONE', #35, 2.000000000000000000 ) ;
#674 = ORIENTED_EDGE ( 'NONE', *, *, #443, .T. ) ;
#675 = ORIENTED_EDGE ( 'NONE', *, *, #873, .T. ) ;
#676 = ADVANCED_FACE ( 'NONE', ( #366 ), #27, .F. ) ;
#677 = EDGE_CURVE ( 'NONE', #657, #237, #16, .T. ) ;
#678 = DIRECTION ( 'NONE',  ( -1.000000000000000000, 0.000000000000000000, 0.000000000000000000 ) ) ;
#679 = VECTOR ( 'NONE', #122, 1000.000000000000000 ) ;
#680 = CYLINDRICAL_SURFACE ( 'NONE', #378, 2.000000000000000000 ) ;
#681 = ORIENTED_EDGE ( 'NONE', *, *, #867, .T. ) ;
#682 = ADVANCED_FACE ( 'NONE', ( #501 ), #223, .F. ) ;
#683 = DIRECTION ( 'NONE',  ( -1.000000000000000000, 0.000000000000000000, 0.000000000000000000 ) ) ;
#684 = ORIENTED_EDGE ( 'NONE', *, *, #264, .F. ) ;
#685 = FACE_OUTER_BOUND ( 'NONE', #821, .T. ) ;
#686 = CARTESIAN_POINT ( 'NONE',  ( 134.7499999999999716, 25.25000000000000000, 7.000000000000000000 ) ) ;
#687 = LINE ( 'NONE', #554, #6 ) ;
#688 = CARTESIAN_POINT ( 'NONE',  ( 8.500000000021048052, 133.2999999999957197, 8.000000000000000000 ) ) ;
#689 = CYLINDRICAL_SURFACE ( 'NONE', #416, 3.450000000000001510 ) ;
#690 = AXIS2_PLACEMENT_3D ( 'NONE', #441, #580, #32 ) ;
#691 = EDGE_LOOP ( 'NONE', ( #681, #812, #323, #646 ) ) ;
#692 = STYLED_ITEM ( 'NONE', ( #97 ), #798 ) ;
#693 = DIRECTION ( 'NONE',  ( -1.000000000000000000, 0.000000000000000000, 0.000000000000000000 ) ) ;
#694 = LINE ( 'NONE', #85, #192 ) ;
#695 = UNCERTAINTY_MEASURE_WITH_UNIT (LENGTH_MEASURE( 1.000000000000000082E-05 ), #756, 'distance_accuracy_value', 'NONE');
#696 = DIRECTION ( 'NONE',  ( 0.000000000000000000, 0.000000000000000000, 1.000000000000000000 ) ) ;
#697 = VERTEX_POINT ( 'NONE', #164 ) ;
#698 = CARTESIAN_POINT ( 'NONE',  ( 0.000000000000000000, 69.70000000000000284, 0.000000000000000000 ) ) ;
#699 = LINE ( 'NONE', #17, #832 ) ;
#700 = CARTESIAN_POINT ( 'NONE',  ( 155.2500000000000000, 4.749999999999999112, 7.000000000000000000 ) ) ;
#701 = ORIENTED_EDGE ( 'NONE', *, *, #611, .T. ) ;
#702 = LINE ( 'NONE', #822, #152 ) ;
#703 = VECTOR ( 'NONE', #456, 1000.000000000000000 ) ;
#704 = CARTESIAN_POINT ( 'NONE',  ( 134.7499999999999716, 4.749999999999999112, 7.000000000000000000 ) ) ;
#705 = PRODUCT_DEFINITION_CONTEXT ( 'detailed design', #51, 'design' ) ;
#706 = DIRECTION ( 'NONE',  ( -1.000000000000000000, 0.000000000000000000, 0.000000000000000000 ) ) ;
#707 = ORIENTED_EDGE ( 'NONE', *, *, #401, .T. ) ;
#708 = CARTESIAN_POINT ( 'NONE',  ( 0.000000000000000000, 69.70000000000000284, 12.00000000000000000 ) ) ;
#709 = AXIS2_PLACEMENT_3D ( 'NONE', #797, #68, #190 ) ;
#710 = FACE_OUTER_BOUND ( 'NONE', #612, .T. ) ;
#711 = CARTESIAN_POINT ( 'NONE',  ( 134.7499999999999716, 4.749999999999999112, 7.000000000000000000 ) ) ;
#712 = ORIENTED_EDGE ( 'NONE', *, *, #742, .T. ) ;
#713 = CARTESIAN_POINT ( 'NONE',  ( 70.00000000000000000, 160.0000000000000000, 12.00000000000000000 ) ) ;
#714 = LINE ( 'NONE', #228, #734 ) ;
#715 = EDGE_CURVE ( 'NONE', #879, #869, #417, .T. ) ;
#716 = DIRECTION ( 'NONE',  ( -0.000000000000000000, -0.000000000000000000, -1.000000000000000000 ) ) ;
#717 = EDGE_CURVE ( 'NONE', #243, #548, #702, .T. ) ;
#718 = ORIENTED_EDGE ( 'NONE', *, *, #301, .T. ) ;
#719 =( NAMED_UNIT ( * ) PLANE_ANGLE_UNIT ( ) SI_UNIT ( $, .RADIAN. ) );
#720 = PLANE ( 'NONE',  #549 ) ;
#721 = DIRECTION ( 'NONE',  ( 0.000000000000000000, 1.000000000000000000, 0.000000000000000000 ) ) ;
#722 = VERTEX_POINT ( 'NONE', #564 ) ;
#723 = CARTESIAN_POINT ( 'NONE',  ( 4.200000000000000178, 69.70000000000000284, 0.000000000000000000 ) ) ;
#724 = VECTOR ( 'NONE', #356, 1000.000000000000000 ) ;
#725 = DIRECTION ( 'NONE',  ( 1.000000000000000000, 0.000000000000000000, 0.000000000000000000 ) ) ;
#726 = CARTESIAN_POINT ( 'NONE',  ( 164.0000000000000000, 90.00000000000000000, 0.000000000000000000 ) ) ;
#727 = ORIENTED_EDGE ( 'NONE', *, *, #422, .T. ) ;
#728 = DIRECTION ( 'NONE',  ( 0.000000000000000000, 0.000000000000000000, -1.000000000000000000 ) ) ;
#729 = LINE ( 'NONE', #380, #263 ) ;
#730 = ORIENTED_EDGE ( 'NONE', *, *, #209, .F. ) ;
#731 = EDGE_CURVE ( 'NONE', #182, #548, #359, .T. ) ;
#732 = DIRECTION ( 'NONE',  ( -0.000000000000000000, -0.000000000000000000, -1.000000000000000000 ) ) ;
#733 = ORIENTED_EDGE ( 'NONE', *, *, #630, .T. ) ;
#734 = VECTOR ( 'NONE', #725, 1000.000000000000000 ) ;
#735 = PRESENTATION_LAYER_ASSIGNMENT (  '', '', ( #692 ) ) ;
#736 = CARTESIAN_POINT ( 'NONE',  ( 0.000000000000000000, 0.000000000000000000, 12.00000000000000000 ) ) ;
#737 = VERTEX_POINT ( 'NONE', #834 ) ;
#738 = ORIENTED_EDGE ( 'NONE', *, *, #267, .F. ) ;
#739 = CARTESIAN_POINT ( 'NONE',  ( 164.0000000000000000, 70.00000000000000000, 0.000000000000000000 ) ) ;
#740 = EDGE_CURVE ( 'NONE', #293, #29, #569, .T. ) ;
#741 = EDGE_LOOP ( 'NONE', ( #540, #307, #553, #2 ) ) ;
#742 = EDGE_CURVE ( 'NONE', #616, #411, #638, .T. ) ;
#743 = CARTESIAN_POINT ( 'NONE',  ( 70.00000000000000000, 164.0000000000000000, 12.00000000000000000 ) ) ;
#744 = FACE_OUTER_BOUND ( 'NONE', #465, .T. ) ;
#745 = EDGE_CURVE ( 'NONE', #29, #243, #23, .T. ) ;
#746 = FACE_BOUND ( 'NONE', #781, .T. ) ;
#747 = AXIS2_PLACEMENT_3D ( 'NONE', #140, #77, #93 ) ;
#748 = VERTEX_POINT ( 'NONE', #574 ) ;
#749 = ORIENTED_EDGE ( 'NONE', *, *, #247, .F. ) ;
#750 = LINE ( 'NONE', #704, #405 ) ;
#751 = FACE_OUTER_BOUND ( 'NONE', #863, .T. ) ;
#752 = FILL_AREA_STYLE ('',( #843 ) ) ;
#753 = CARTESIAN_POINT ( 'NONE',  ( 4.200000000000000178, 90.30000000000001137, 12.00000000000000000 ) ) ;
#754 = FACE_OUTER_BOUND ( 'NONE', #628, .T. ) ;
#755 = VERTEX_POINT ( 'NONE', #634 ) ;
#756 =( LENGTH_UNIT ( ) NAMED_UNIT ( * ) SI_UNIT ( .MILLI., .METRE. ) );
#757 = DIRECTION ( 'NONE',  ( 0.000000000000000000, -0.000000000000000000, 1.000000000000000000 ) ) ;
#758 = DIRECTION ( 'NONE',  ( 0.000000000000000000, 1.000000000000000000, 0.000000000000000000 ) ) ;
#759 = VECTOR ( 'NONE', #716, 1000.000000000000000 ) ;
#760 = ORIENTED_EDGE ( 'NONE', *, *, #69, .F. ) ;
#761 = SURFACE_STYLE_USAGE ( .BOTH. , #491 ) ;
#762 = CARTESIAN_POINT ( 'NONE',  ( 4.200000000000000178, 90.30000000000001137, 12.00000000000000000 ) ) ;
#763 = DIRECTION ( 'NONE',  ( -1.000000000000000000, 0.000000000000000000, 0.000000000000000000 ) ) ;
#764 = VERTEX_POINT ( 'NONE', #483 ) ;
#765 = EDGE_CURVE ( 'NONE', #737, #67, #479, .T. ) ;
#766 = LINE ( 'NONE', #425, #193 ) ;
#767 = DIRECTION ( 'NONE',  ( -1.000000000000000000, 0.000000000000000000, 0.000000000000000000 ) ) ;
#768 = LINE ( 'NONE', #229, #435 ) ;
#769 = ORIENTED_EDGE ( 'NONE', *, *, #495, .T. ) ;
#770 = DIRECTION ( 'NONE',  ( -1.000000000000000000, 0.000000000000000000, 0.000000000000000000 ) ) ;
#771 = LINE ( 'NONE', #42, #276 ) ;
#772 = LINE ( 'NONE', #341, #871 ) ;
#773 = ORIENTED_EDGE ( 'NONE', *, *, #43, .T. ) ;
#774 = VECTOR ( 'NONE', #514, 1000.000000000000000 ) ;
#775 = CARTESIAN_POINT ( 'NONE',  ( 4.200000000000000178, 90.30000000000001137, 12.00000000000000000 ) ) ;
#776 = VECTOR ( 'NONE', #390, 1000.000000000000000 ) ;
#777 = EDGE_CURVE ( 'NONE', #230, #755, #687, .T. ) ;
#778 = DIRECTION ( 'NONE',  ( -0.000000000000000000, -0.000000000000000000, -1.000000000000000000 ) ) ;
#779 = EDGE_CURVE ( 'NONE', #71, #764, #766, .T. ) ;
#780 = PLANE ( 'NONE',  #463 ) ;
#781 = EDGE_LOOP ( 'NONE', ( #319, #496 ) ) ;
#782 = CARTESIAN_POINT ( 'NONE',  ( 0.000000000000000000, 90.30000000000001137, 12.00000000000000000 ) ) ;
#783 = CARTESIAN_POINT ( 'NONE',  ( 134.7499999999999716, 25.25000000000000000, 7.000000000000000000 ) ) ;
#784 = CARTESIAN_POINT ( 'NONE',  ( 90.00000000000000000, 164.0000000000000000, 12.00000000000000000 ) ) ;
#785 = EDGE_LOOP ( 'NONE', ( #769, #505 ) ) ;
#786 = DIRECTION ( 'NONE',  ( 1.000000000000000000, 0.000000000000000000, -0.000000000000000000 ) ) ;
#787 = CARTESIAN_POINT ( 'NONE',  ( 0.000000000000000000, 69.70000000000000284, 0.000000000000000000 ) ) ;
#788 = ORIENTED_EDGE ( 'NONE', *, *, #398, .F. ) ;
#789 = LINE ( 'NONE', #41, #231 ) ;
#790 = VECTOR ( 'NONE', #836, 1000.000000000000000 ) ;
#791 = AXIS2_PLACEMENT_3D ( 'NONE', #736, #127, #466 ) ;
#792 = CARTESIAN_POINT ( 'NONE',  ( 4.200000000000000178, 69.70000000000000284, 12.00000000000000000 ) ) ;
#793 = EDGE_LOOP ( 'NONE', ( #530, #546, #222, #718 ) ) ;
#794 = DIRECTION ( 'NONE',  ( 1.000000000000000000, 0.000000000000000000, 0.000000000000000000 ) ) ;
#795 = FACE_OUTER_BOUND ( 'NONE', #637, .T. ) ;
#796 = ORIENTED_EDGE ( 'NONE', *, *, #430, .T. ) ;
#797 = CARTESIAN_POINT ( 'NONE',  ( 8.500000000021048052, 133.2999999999957197, 8.000000000000000000 ) ) ;
#798 = MANIFOLD_SOLID_BREP ( 'Cut-Extrude2', #205 ) ;
#799 = ORIENTED_EDGE ( 'NONE', *, *, #460, .F. ) ;
#800 = PRODUCT_DEFINITION_SHAPE ( 'NONE', 'NONE',  #527 ) ;
#801 = AXIS2_PLACEMENT_3D ( 'NONE', #73, #20, #552 ) ;
#802 = VECTOR ( 'NONE', #384, 1000.000000000000000 ) ;
#803 = EDGE_CURVE ( 'NONE', #105, #385, #343, .T. ) ;
#804 = DIRECTION ( 'NONE',  ( 1.000000000000000000, 0.000000000000000000, 0.000000000000000000 ) ) ;
#805 = EDGE_CURVE ( 'NONE', #858, #213, #789, .T. ) ;
#806 = ORIENTED_EDGE ( 'NONE', *, *, #731, .T. ) ;
#807 = EDGE_LOOP ( 'NONE', ( #389, #473, #101, #128 ) ) ;
#808 = CARTESIAN_POINT ( 'NONE',  ( 90.00000000000000000, 164.0000000000000000, 0.000000000000000000 ) ) ;
#809 = EDGE_CURVE ( 'NONE', #67, #755, #321, .T. ) ;
#810 = ORIENTED_EDGE ( 'NONE', *, *, #247, .T. ) ;
#811 = DIRECTION ( 'NONE',  ( -1.000000000000000000, 0.000000000000000000, 0.000000000000000000 ) ) ;
#812 = ORIENTED_EDGE ( 'NONE', *, *, #453, .F. ) ;
#813 = VECTOR ( 'NONE', #286, 1000.000000000000000 ) ;
#814 = LINE ( 'NONE', #762, #492 ) ;
#815 = VECTOR ( 'NONE', #265, 1000.000000000000000 ) ;
#816 = ORIENTED_EDGE ( 'NONE', *, *, #114, .F. ) ;
#817 = VERTEX_POINT ( 'NONE', #184 ) ;
#818 = ADVANCED_FACE ( 'NONE', ( #238 ), #855, .F. ) ;
#819 = CARTESIAN_POINT ( 'NONE',  ( 0.000000000000000000, 160.0000000000000000, 12.00000000000000000 ) ) ;
#820 = CARTESIAN_POINT ( 'NONE',  ( 164.0000000000000000, 90.00000000000000000, 12.00000000000000000 ) ) ;
#821 = EDGE_LOOP ( 'NONE', ( #727, #826, #878, #674 ) ) ;
#822 = CARTESIAN_POINT ( 'NONE',  ( 0.000000000000000000, 0.000000000000000000, 12.00000000000000000 ) ) ;
#823 = DIRECTION ( 'NONE',  ( -0.000000000000000000, -0.000000000000000000, -1.000000000000000000 ) ) ;
#824 = UNCERTAINTY_MEASURE_WITH_UNIT (LENGTH_MEASURE( 1.000000000000000082E-05 ), #665, 'distance_accuracy_value', 'NONE');
#825 = DIRECTION ( 'NONE',  ( -1.000000000000000000, 0.000000000000000000, 0.000000000000000000 ) ) ;
#826 = ORIENTED_EDGE ( 'NONE', *, *, #303, .F. ) ;
#827 = DIRECTION ( 'NONE',  ( -0.000000000000000000, -0.000000000000000000, 1.000000000000000000 ) ) ;
#828 = DIRECTION ( 'NONE',  ( 0.000000000000000000, 1.000000000000000000, 0.000000000000000000 ) ) ;
#829 = EDGE_CURVE ( 'NONE', #415, #3, #92, .T. ) ;
#830 = CARTESIAN_POINT ( 'NONE',  ( 90.30000000000001137, 0.000000000000000000, 12.00000000000000000 ) ) ;
#831 = ADVANCED_FACE ( 'NONE', ( #506 ), #46, .F. ) ;
#832 = VECTOR ( 'NONE', #477, 1000.000000000000000 ) ;
#833 = VERTEX_POINT ( 'NONE', #249 ) ;
#834 = CARTESIAN_POINT ( 'NONE',  ( 134.7499999999999716, 4.749999999999999112, 12.00000000000000000 ) ) ;
#835 = CARTESIAN_POINT ( 'NONE',  ( 8.500000000021019630, 133.2999999999957197, 8.000000000000000000 ) ) ;
#836 = DIRECTION ( 'NONE',  ( 0.000000000000000000, 1.000000000000000000, 0.000000000000000000 ) ) ;
#837 = EDGE_CURVE ( 'NONE', #451, #748, #163, .T. ) ;
#838 = EDGE_LOOP ( 'NONE', ( #358, #408, #572, #733 ) ) ;
#839 = DIRECTION ( 'NONE',  ( 0.000000000000000000, -1.000000000000000000, 0.000000000000000000 ) ) ;
#840 = LINE ( 'NONE', #591, #774 ) ;
#841 = CARTESIAN_POINT ( 'NONE',  ( 5.050000000021018565, 133.2999999999957197, 8.000000000000000000 ) ) ;
#842 = VERTEX_POINT ( 'NONE', #106 ) ;
#843 = FILL_AREA_STYLE_COLOUR ( '', #169 ) ;
#844 = CARTESIAN_POINT ( 'NONE',  ( 0.000000000000000000, 0.000000000000000000, 12.00000000000000000 ) ) ;
#845 = DIRECTION ( 'NONE',  ( 0.000000000000000000, -0.000000000000000000, -1.000000000000000000 ) ) ;
#846 = AXIS2_PLACEMENT_3D ( 'NONE', #225, #351, #283 ) ;
#847 = ORIENTED_EDGE ( 'NONE', *, *, #829, .F. ) ;
#848 = VECTOR ( 'NONE', #529, 1000.000000000000000 ) ;
#849 = DIRECTION ( 'NONE',  ( 0.000000000000000000, 0.000000000000000000, -1.000000000000000000 ) ) ;
#850 = VECTOR ( 'NONE', #297, 1000.000000000000000 ) ;
#851 = ADVANCED_FACE ( 'NONE', ( #528, #31 ), #312, .T. ) ;
#852 = DIRECTION ( 'NONE',  ( -0.000000000000000000, 0.000000000000000000, -1.000000000000000000 ) ) ;
#853 = DIRECTION ( 'NONE',  ( 0.000000000000000000, -1.000000000000000000, 0.000000000000000000 ) ) ;
#854 = VERTEX_POINT ( 'NONE', #775 ) ;
#855 = PLANE ( 'NONE',  #339 ) ;
#856 = CARTESIAN_POINT ( 'NONE',  ( 0.000000000000000000, 69.70000000000000284, 12.00000000000000000 ) ) ;
#857 = LINE ( 'NONE', #859, #848 ) ;
#858 = VERTEX_POINT ( 'NONE', #713 ) ;
#859 = CARTESIAN_POINT ( 'NONE',  ( 5.050000000021018565, 133.2999999999957197, 8.000000000000000000 ) ) ;
#860 = ORIENTED_EDGE ( 'NONE', *, *, #332, .F. ) ;
#861 = CARTESIAN_POINT ( 'NONE',  ( 8.500000000021048052, 133.2999999999957197, 12.00000000000000000 ) ) ;
#862 = LINE ( 'NONE', #784, #220 ) ;
#863 = EDGE_LOOP ( 'NONE', ( #45, #516, #760, #865 ) ) ;
#864 = LINE ( 'NONE', #194, #320 ) ;
#865 = ORIENTED_EDGE ( 'NONE', *, *, #803, .T. ) ;
#866 = EDGE_CURVE ( 'NONE', #697, #854, #102, .T. ) ;
#867 = EDGE_CURVE ( 'NONE', #672, #879, #523, .T. ) ;
#868 = LINE ( 'NONE', #457, #64 ) ;
#869 = VERTEX_POINT ( 'NONE', #723 ) ;
#870 = ORIENTED_EDGE ( 'NONE', *, *, #556, .T. ) ;
#871 = VECTOR ( 'NONE', #825, 1000.000000000000000 ) ;
#872 = CIRCLE ( 'NONE', #709, 2.000000000000000000 ) ;
#873 = EDGE_CURVE ( 'NONE', #722, #737, #174, .T. ) ;
#874 = DIRECTION ( 'NONE',  ( -1.000000000000000000, 0.000000000000000000, 0.000000000000000000 ) ) ;
#875 = EDGE_LOOP ( 'NONE', ( #675, #226, #120, #287 ) ) ;
#876 = ORIENTED_EDGE ( 'NONE', *, *, #56, .F. ) ;
#877 = FACE_OUTER_BOUND ( 'NONE', #300, .T. ) ;
#878 = ORIENTED_EDGE ( 'NONE', *, *, #239, .F. ) ;
#879 = VERTEX_POINT ( 'NONE', #386 ) ;
ENDSEC;
END-ISO-10303-21;
