ISO-10303-21;
HEADER;
FILE_DESCRIPTION (( 'STEP AP214' ),
    '1' );
FILE_NAME ('CNC_Cage_Base_UL.STEP',
    '2026-08-12T22:35:38',
    ( '' ),
    ( '' ),
    'SwSTEP 2.0',
    'SolidWorks 2026',
    '' );
FILE_SCHEMA (( 'AUTOMOTIVE_DESIGN' ));
ENDSEC;

DATA;
#1 = CARTESIAN_POINT ( 'NONE',  ( 90.30000000000001137, 4.200000000000000178, 0.000000000000000000 ) ) ;
#2 = LINE ( 'NONE', #390, #19 ) ;
#3 = EDGE_CURVE ( 'NONE', #499, #707, #605, .T. ) ;
#4 = EDGE_LOOP ( 'NONE', ( #482, #651, #185, #731 ) ) ;
#5 = DIRECTION ( 'NONE',  ( 0.000000000000000000, -1.000000000000000000, 0.000000000000000000 ) ) ;
#6 = VECTOR ( 'NONE', #124, 1000.000000000000000 ) ;
#7 = VECTOR ( 'NONE', #360, 1000.000000000000000 ) ;
#8 =( LENGTH_UNIT ( ) NAMED_UNIT ( * ) SI_UNIT ( .MILLI., .METRE. ) );
#9 = ORIENTED_EDGE ( 'NONE', *, *, #675, .F. ) ;
#10 = EDGE_CURVE ( 'NONE', #453, #64, #382, .T. ) ;
#11 = LINE ( 'NONE', #697, #643 ) ;
#12 = DIRECTION ( 'NONE',  ( 1.000000000000000000, 0.000000000000000000, 0.000000000000000000 ) ) ;
#13 = VERTEX_POINT ( 'NONE', #334 ) ;
#14 = DIRECTION ( 'NONE',  ( -1.000000000000000000, 0.000000000000000000, 0.000000000000000000 ) ) ;
#15 = CYLINDRICAL_SURFACE ( 'NONE', #320, 2.000000000000001776 ) ;
#16 = ORIENTED_EDGE ( 'NONE', *, *, #88, .F. ) ;
#17 = LINE ( 'NONE', #301, #657 ) ;
#18 = EDGE_CURVE ( 'NONE', #453, #366, #55, .T. ) ;
#19 = VECTOR ( 'NONE', #630, 1000.000000000000000 ) ;
#20 = DIRECTION ( 'NONE',  ( -0.000000000000000000, 0.000000000000000000, 1.000000000000000000 ) ) ;
#21 = VECTOR ( 'NONE', #310, 1000.000000000000000 ) ;
#22 = ORIENTED_EDGE ( 'NONE', *, *, #363, .F. ) ;
#23 = APPLICATION_PROTOCOL_DEFINITION ( 'draft international standard', 'automotive_design', 1998, #706 ) ;
#24 = DIRECTION ( 'NONE',  ( -0.000000000000000000, 0.000000000000000000, 1.000000000000000000 ) ) ;
#25 = DIRECTION ( 'NONE',  ( 0.000000000000000000, -0.000000000000000000, 1.000000000000000000 ) ) ;
#26 = VERTEX_POINT ( 'NONE', #111 ) ;
#27 = DIRECTION ( 'NONE',  ( 1.000000000000000000, 0.000000000000000000, 0.000000000000000000 ) ) ;
#28 = DIRECTION ( 'NONE',  ( 0.000000000000000000, 0.000000000000000000, 1.000000000000000000 ) ) ;
#29 = EDGE_LOOP ( 'NONE', ( #403, #384, #322, #328 ) ) ;
#30 = ADVANCED_FACE ( 'NONE', ( #677 ), #117, .F. ) ;
#31 = DIRECTION ( 'NONE',  ( -1.000000000000000000, 0.000000000000000000, 0.000000000000000000 ) ) ;
#32 = DIRECTION ( 'NONE',  ( 1.000000000000000000, 0.000000000000000000, 0.000000000000000000 ) ) ;
#33 = ORIENTED_EDGE ( 'NONE', *, *, #405, .T. ) ;
#34 = VECTOR ( 'NONE', #372, 1000.000000000000000 ) ;
#35 = AXIS2_PLACEMENT_3D ( 'NONE', #154, #725, #435 ) ;
#36 = EDGE_CURVE ( 'NONE', #45, #67, #173, .T. ) ;
#37 = DIRECTION ( 'NONE',  ( 0.000000000000000000, 0.000000000000000000, 1.000000000000000000 ) ) ;
#38 = DIRECTION ( 'NONE',  ( 0.000000000000000000, -1.000000000000000000, 0.000000000000000000 ) ) ;
#39 = ORIENTED_EDGE ( 'NONE', *, *, #326, .F. ) ;
#40 =( NAMED_UNIT ( * ) SI_UNIT ( $, .STERADIAN. ) SOLID_ANGLE_UNIT ( ) );
#41 = DIRECTION ( 'NONE',  ( 0.000000000000000000, -1.000000000000000000, 0.000000000000000000 ) ) ;
#42 = ORIENTED_EDGE ( 'NONE', *, *, #286, .F. ) ;
#43 = LINE ( 'NONE', #273, #308 ) ;
#44 = EDGE_CURVE ( 'NONE', #644, #499, #622, .T. ) ;
#45 = VERTEX_POINT ( 'NONE', #515 ) ;
#46 = VECTOR ( 'NONE', #397, 1000.000000000000000 ) ;
#47 = VECTOR ( 'NONE', #54, 1000.000000000000000 ) ;
#48 = DIRECTION ( 'NONE',  ( 0.000000000000000000, 1.000000000000000000, 0.000000000000000000 ) ) ;
#49 = DIRECTION ( 'NONE',  ( -1.000000000000000000, 0.000000000000000000, 0.000000000000000000 ) ) ;
#50 = LINE ( 'NONE', #280, #368 ) ;
#51 = DIRECTION ( 'NONE',  ( 1.000000000000000000, 0.000000000000000000, -0.000000000000000000 ) ) ;
#52 = EDGE_LOOP ( 'NONE', ( #289, #392, #196, #100 ) ) ;
#53 = EDGE_CURVE ( 'NONE', #118, #342, #2, .T. ) ;
#54 = DIRECTION ( 'NONE',  ( -0.000000000000000000, -0.000000000000000000, -1.000000000000000000 ) ) ;
#55 = LINE ( 'NONE', #512, #68 ) ;
#56 = ORIENTED_EDGE ( 'NONE', *, *, #641, .F. ) ;
#57 = AXIS2_PLACEMENT_3D ( 'NONE', #461, #676, #683 ) ;
#58 = LINE ( 'NONE', #575, #571 ) ;
#59 = DIRECTION ( 'NONE',  ( -0.000000000000000000, -0.000000000000000000, -1.000000000000000000 ) ) ;
#60 = ORIENTED_EDGE ( 'NONE', *, *, #584, .F. ) ;
#61 = DIRECTION ( 'NONE',  ( 1.000000000000000000, 0.000000000000000000, 0.000000000000000000 ) ) ;
#62 = EDGE_CURVE ( 'NONE', #475, #568, #274, .T. ) ;
#63 = LINE ( 'NONE', #179, #428 ) ;
#64 = VERTEX_POINT ( 'NONE', #746 ) ;
#65 = DIRECTION ( 'NONE',  ( -1.000000000000000000, 0.000000000000000000, 0.000000000000000000 ) ) ;
#66 = FACE_OUTER_BOUND ( 'NONE', #609, .T. ) ;
#67 = VERTEX_POINT ( 'NONE', #281 ) ;
#68 = VECTOR ( 'NONE', #59, 1000.000000000000000 ) ;
#69 = FACE_OUTER_BOUND ( 'NONE', #728, .T. ) ;
#70 = VECTOR ( 'NONE', #502, 1000.000000000000000 ) ;
#71 = VECTOR ( 'NONE', #5, 1000.000000000000000 ) ;
#72 = VERTEX_POINT ( 'NONE', #402 ) ;
#73 = DIRECTION ( 'NONE',  ( -0.000000000000000000, -0.000000000000000000, -1.000000000000000000 ) ) ;
#74 = CARTESIAN_POINT ( 'NONE',  ( 164.0000000000000000, 90.00000000000000000, 0.000000000000000000 ) ) ;
#75 = ORIENTED_EDGE ( 'NONE', *, *, #560, .F. ) ;
#76 = EDGE_CURVE ( 'NONE', #529, #67, #63, .T. ) ;
#77 = CARTESIAN_POINT ( 'NONE',  ( 151.5000000000185310, 28.49999999999482014, 8.000000000000000000 ) ) ;
#78 = FILL_AREA_STYLE ('',( #195 ) ) ;
#79 = EDGE_LOOP ( 'NONE', ( #434, #689, #226, #557 ) ) ;
#80 = SHAPE_DEFINITION_REPRESENTATION ( #599, #569 ) ;
#81 = ADVANCED_FACE ( 'NONE', ( #292 ), #508, .F. ) ;
#82 = DIRECTION ( 'NONE',  ( -0.000000000000000000, -0.000000000000000000, -1.000000000000000000 ) ) ;
#83 = CARTESIAN_POINT ( 'NONE',  ( 90.30000000000001137, 4.200000000000000178, 12.00000000000000000 ) ) ;
#84 = VECTOR ( 'NONE', #662, 1000.000000000000000 ) ;
#85 = ORIENTED_EDGE ( 'NONE', *, *, #530, .F. ) ;
#86 = CARTESIAN_POINT ( 'NONE',  ( 160.0000000000000000, 0.000000000000000000, 0.000000000000000000 ) ) ;
#87 = FACE_OUTER_BOUND ( 'NONE', #738, .T. ) ;
#88 = EDGE_CURVE ( 'NONE', #612, #72, #95, .T. ) ;
#89 = VERTEX_POINT ( 'NONE', #694 ) ;
#90 = CARTESIAN_POINT ( 'NONE',  ( 69.70000000000000284, 0.000000000000000000, 12.00000000000000000 ) ) ;
#91 = CARTESIAN_POINT ( 'NONE',  ( 160.0000000000000000, 70.00000000000000000, 12.00000000000000000 ) ) ;
#92 = VERTEX_POINT ( 'NONE', #337 ) ;
#93 = LINE ( 'NONE', #484, #239 ) ;
#94 = CARTESIAN_POINT ( 'NONE',  ( 149.5000000000186446, 28.49999999999487699, 12.00000000000000000 ) ) ;
#95 = CIRCLE ( 'NONE', #251, 2.000000000000001776 ) ;
#96 = ORIENTED_EDGE ( 'NONE', *, *, #555, .T. ) ;
#97 = CIRCLE ( 'NONE', #107, 3.450000000000008615 ) ;
#98 =( NAMED_UNIT ( * ) PLANE_ANGLE_UNIT ( ) SI_UNIT ( $, .RADIAN. ) );
#99 = PLANE ( 'NONE',  #170 ) ;
#100 = ORIENTED_EDGE ( 'NONE', *, *, #348, .T. ) ;
#101 = EDGE_CURVE ( 'NONE', #105, #267, #625, .T. ) ;
#102 = CARTESIAN_POINT ( 'NONE',  ( 69.70000000000000284, 0.000000000000000000, 12.00000000000000000 ) ) ;
#103 = ORIENTED_EDGE ( 'NONE', *, *, #555, .F. ) ;
#104 = CARTESIAN_POINT ( 'NONE',  ( 164.0000000000000000, 70.00000000000000000, 12.00000000000000000 ) ) ;
#105 = VERTEX_POINT ( 'NONE', #634 ) ;
#106 = VECTOR ( 'NONE', #288, 1000.000000000000000 ) ;
#107 = AXIS2_PLACEMENT_3D ( 'NONE', #77, #527, #65 ) ;
#108 = VECTOR ( 'NONE', #82, 1000.000000000000000 ) ;
#109 = CARTESIAN_POINT ( 'NONE',  ( 151.5000000000185310, 28.49999999999482014, 8.000000000000000000 ) ) ;
#110 = EDGE_CURVE ( 'NONE', #331, #378, #737, .T. ) ;
#111 = CARTESIAN_POINT ( 'NONE',  ( 154.9500000000185480, 28.49999999999482014, 8.000000000000000000 ) ) ;
#112 = ORIENTED_EDGE ( 'NONE', *, *, #610, .F. ) ;
#113 = DIRECTION ( 'NONE',  ( -1.000000000000000000, 0.000000000000000000, -0.000000000000000000 ) ) ;
#114 = FACE_OUTER_BOUND ( 'NONE', #258, .T. ) ;
#115 = ORIENTED_EDGE ( 'NONE', *, *, #421, .T. ) ;
#116 = CARTESIAN_POINT ( 'NONE',  ( 0.000000000000000000, 0.000000000000000000, 12.00000000000000000 ) ) ;
#117 = PLANE ( 'NONE',  #367 ) ;
#118 = VERTEX_POINT ( 'NONE', #126 ) ;
#119 = VECTOR ( 'NONE', #324, 1000.000000000000000 ) ;
#120 = DIRECTION ( 'NONE',  ( -1.000000000000000000, 0.000000000000000000, 0.000000000000000000 ) ) ;
#121 = DIRECTION ( 'NONE',  ( -0.000000000000000000, -0.000000000000000000, -1.000000000000000000 ) ) ;
#122 = ORIENTED_EDGE ( 'NONE', *, *, #10, .F. ) ;
#123 = ADVANCED_FACE ( 'NONE', ( #284 ), #279, .T. ) ;
#124 = DIRECTION ( 'NONE',  ( 1.000000000000000000, 0.000000000000000000, 0.000000000000000000 ) ) ;
#125 = PRODUCT_DEFINITION_CONTEXT ( 'detailed design', #706, 'design' ) ;
#126 = CARTESIAN_POINT ( 'NONE',  ( 25.25000000000000000, 134.7499999999999716, 7.000000000000000000 ) ) ;
#127 = ORIENTED_EDGE ( 'NONE', *, *, #53, .F. ) ;
#128 = CARTESIAN_POINT ( 'NONE',  ( 90.30000000000001137, 4.200000000000000178, 12.00000000000000000 ) ) ;
#129 = PLANE ( 'NONE',  #319 ) ;
#130 = ORIENTED_EDGE ( 'NONE', *, *, #637, .F. ) ;
#131 = AXIS2_PLACEMENT_3D ( 'NONE', #225, #398, #452 ) ;
#132 = DIRECTION ( 'NONE',  ( -0.000000000000000000, -0.000000000000000000, 1.000000000000000000 ) ) ;
#133 = AXIS2_PLACEMENT_3D ( 'NONE', #647, #582, #25 ) ;
#134 = CIRCLE ( 'NONE', #148, 2.000000000000001776 ) ;
#135 = DIRECTION ( 'NONE',  ( -0.000000000000000000, 0.000000000000000000, 1.000000000000000000 ) ) ;
#136 = ADVANCED_FACE ( 'NONE', ( #114 ), #223, .F. ) ;
#137 = ORIENTED_EDGE ( 'NONE', *, *, #76, .F. ) ;
#138 = DIRECTION ( 'NONE',  ( -0.000000000000000000, -0.000000000000000000, -1.000000000000000000 ) ) ;
#139 = DIRECTION ( 'NONE',  ( -1.000000000000000000, 0.000000000000000000, 0.000000000000000000 ) ) ;
#140 = ORIENTED_EDGE ( 'NONE', *, *, #613, .F. ) ;
#141 = LINE ( 'NONE', #128, #71 ) ;
#142 = FACE_BOUND ( 'NONE', #585, .T. ) ;
#143 = ORIENTED_EDGE ( 'NONE', *, *, #574, .T. ) ;
#144 = EDGE_CURVE ( 'NONE', #707, #45, #567, .T. ) ;
#145 = CARTESIAN_POINT ( 'NONE',  ( 151.5000000000185310, 28.49999999999482014, 8.000000000000000000 ) ) ;
#146 = AXIS2_PLACEMENT_3D ( 'NONE', #563, #345, #572 ) ;
#147 =( GEOMETRIC_REPRESENTATION_CONTEXT ( 3 ) GLOBAL_UNCERTAINTY_ASSIGNED_CONTEXT ( ( #518 ) ) GLOBAL_UNIT_ASSIGNED_CONTEXT ( ( #8, #654, #352 ) ) REPRESENTATION_CONTEXT ( 'NONE', 'WORKASPACE' ) );
#148 = AXIS2_PLACEMENT_3D ( 'NONE', #204, #371, #31 ) ;
#149 = VERTEX_POINT ( 'NONE', #176 ) ;
#150 = CARTESIAN_POINT ( 'NONE',  ( 90.30000000000001137, 4.200000000000000178, 12.00000000000000000 ) ) ;
#151 = ADVANCED_FACE ( 'NONE', ( #685 ), #245, .F. ) ;
#152 = DIRECTION ( 'NONE',  ( -0.000000000000000000, -0.000000000000000000, -1.000000000000000000 ) ) ;
#153 = ORIENTED_EDGE ( 'NONE', *, *, #101, .T. ) ;
#154 = CARTESIAN_POINT ( 'NONE',  ( 0.000000000000000000, 0.000000000000000000, 12.00000000000000000 ) ) ;
#155 = DIRECTION ( 'NONE',  ( 0.000000000000000000, -1.000000000000000000, 0.000000000000000000 ) ) ;
#156 = ORIENTED_EDGE ( 'NONE', *, *, #3, .T. ) ;
#157 = LINE ( 'NONE', #553, #380 ) ;
#158 = DIRECTION ( 'NONE',  ( 1.000000000000000000, 0.000000000000000000, 0.000000000000000000 ) ) ;
#159 = ADVANCED_FACE ( 'NONE', ( #587 ), #129, .F. ) ;
#160 = FACE_OUTER_BOUND ( 'NONE', #211, .T. ) ;
#161 = MANIFOLD_SOLID_BREP ( 'Cut-Extrude2', #262 ) ;
#162 = ORIENTED_EDGE ( 'NONE', *, *, #672, .F. ) ;
#163 = ADVANCED_FACE ( 'NONE', ( #650 ), #523, .F. ) ;
#164 = LINE ( 'NONE', #231, #476 ) ;
#165 = EDGE_LOOP ( 'NONE', ( #660, #543, #359, #492 ) ) ;
#166 = EDGE_CURVE ( 'NONE', #64, #577, #642, .T. ) ;
#167 = DIRECTION ( 'NONE',  ( -1.000000000000000000, 0.000000000000000000, 0.000000000000000000 ) ) ;
#168 = CARTESIAN_POINT ( 'NONE',  ( 4.749999999999999112, 134.7499999999999716, 7.000000000000000000 ) ) ;
#169 = ORIENTED_EDGE ( 'NONE', *, *, #675, .T. ) ;
#170 = AXIS2_PLACEMENT_3D ( 'NONE', #497, #38, #269 ) ;
#171 = CIRCLE ( 'NONE', #391, 3.450000000000008615 ) ;
#172 = FACE_OUTER_BOUND ( 'NONE', #513, .T. ) ;
#173 = LINE ( 'NONE', #520, #691 ) ;
#174 = ORIENTED_EDGE ( 'NONE', *, *, #672, .T. ) ;
#175 = PLANE ( 'NONE',  #330 ) ;
#176 = CARTESIAN_POINT ( 'NONE',  ( 153.5000000000186446, 28.49999999999487699, 12.00000000000000000 ) ) ;
#177 = ORIENTED_EDGE ( 'NONE', *, *, #726, .T. ) ;
#178 = DIRECTION ( 'NONE',  ( 1.000000000000000000, 0.000000000000000000, 0.000000000000000000 ) ) ;
#179 = CARTESIAN_POINT ( 'NONE',  ( 69.70000000000000284, 0.000000000000000000, 0.000000000000000000 ) ) ;
#180 = ORIENTED_EDGE ( 'NONE', *, *, #409, .F. ) ;
#181 = EDGE_CURVE ( 'NONE', #64, #468, #467, .T. ) ;
#182 = VECTOR ( 'NONE', #178, 1000.000000000000000 ) ;
#183 = CARTESIAN_POINT ( 'NONE',  ( 4.749999999999999112, 155.2500000000000000, 7.000000000000000000 ) ) ;
#184 = CARTESIAN_POINT ( 'NONE',  ( 151.5000000000186446, 28.49999999999487699, 8.000000000000000000 ) ) ;
#185 = ORIENTED_EDGE ( 'NONE', *, *, #426, .F. ) ;
#186 = CARTESIAN_POINT ( 'NONE',  ( 160.0000000000000000, 70.00000000000000000, 0.000000000000000000 ) ) ;
#187 = EDGE_LOOP ( 'NONE', ( #546, #509, #241, #445 ) ) ;
#188 = LINE ( 'NONE', #186, #740 ) ;
#189 = ADVANCED_FACE ( 'NONE', ( #142, #538 ), #411, .F. ) ;
#190 = LINE ( 'NONE', #74, #719 ) ;
#191 = ORIENTED_EDGE ( 'NONE', *, *, #421, .F. ) ;
#192 = VECTOR ( 'NONE', #576, 1000.000000000000000 ) ;
#193 = CARTESIAN_POINT ( 'NONE',  ( 4.749999999999999112, 134.7499999999999716, 12.00000000000000000 ) ) ;
#194 = VECTOR ( 'NONE', #701, 1000.000000000000000 ) ;
#195 = FILL_AREA_STYLE_COLOUR ( '', #739 ) ;
#196 = ORIENTED_EDGE ( 'NONE', *, *, #144, .F. ) ;
#197 = DIRECTION ( 'NONE',  ( 1.000000000000000000, 0.000000000000000000, 0.000000000000000000 ) ) ;
#198 = DIRECTION ( 'NONE',  ( 0.000000000000000000, -0.000000000000000000, 1.000000000000000000 ) ) ;
#199 = ORIENTED_EDGE ( 'NONE', *, *, #166, .T. ) ;
#200 = ADVANCED_FACE ( 'NONE', ( #66 ), #638, .F. ) ;
#201 = CARTESIAN_POINT ( 'NONE',  ( 160.0000000000000000, 0.000000000000000000, 12.00000000000000000 ) ) ;
#202 = DIRECTION ( 'NONE',  ( -1.000000000000000000, 0.000000000000000000, 0.000000000000000000 ) ) ;
#203 = ORIENTED_EDGE ( 'NONE', *, *, #44, .T. ) ;
#204 = CARTESIAN_POINT ( 'NONE',  ( 151.5000000000186446, 28.49999999999487699, 8.000000000000000000 ) ) ;
#205 = VECTOR ( 'NONE', #132, 1000.000000000000000 ) ;
#206 = DIRECTION ( 'NONE',  ( 0.000000000000000000, 1.000000000000000000, 0.000000000000000000 ) ) ;
#207 = AXIS2_PLACEMENT_3D ( 'NONE', #201, #661, #375 ) ;
#208 = ORIENTED_EDGE ( 'NONE', *, *, #3, .F. ) ;
#209 = FACE_OUTER_BOUND ( 'NONE', #79, .T. ) ;
#210 = LINE ( 'NONE', #321, #119 ) ;
#211 = EDGE_LOOP ( 'NONE', ( #702, #140, #631, #199 ) ) ;
#212 = DIRECTION ( 'NONE',  ( -0.000000000000000000, -0.000000000000000000, -1.000000000000000000 ) ) ;
#213 = CARTESIAN_POINT ( 'NONE',  ( 25.25000000000000000, 134.7499999999999716, 12.00000000000000000 ) ) ;
#214 = EDGE_CURVE ( 'NONE', #499, #595, #528, .T. ) ;
#215 = VERTEX_POINT ( 'NONE', #83 ) ;
#216 = LINE ( 'NONE', #723, #34 ) ;
#217 = EDGE_LOOP ( 'NONE', ( #686, #370, #174, #516 ) ) ;
#218 = VECTOR ( 'NONE', #32, 1000.000000000000000 ) ;
#219 = LINE ( 'NONE', #91, #607 ) ;
#220 = ORIENTED_EDGE ( 'NONE', *, *, #214, .T. ) ;
#221 = EDGE_CURVE ( 'NONE', #342, #270, #257, .T. ) ;
#222 = PLANE ( 'NONE',  #277 ) ;
#223 = CYLINDRICAL_SURFACE ( 'NONE', #131, 2.000000000000001776 ) ;
#224 = CARTESIAN_POINT ( 'NONE',  ( 160.0000000000000000, 90.00000000000000000, 12.00000000000000000 ) ) ;
#225 = CARTESIAN_POINT ( 'NONE',  ( 151.5000000000186446, 28.49999999999487699, 12.00000000000000000 ) ) ;
#226 = ORIENTED_EDGE ( 'NONE', *, *, #726, .F. ) ;
#227 = VECTOR ( 'NONE', #640, 1000.000000000000000 ) ;
#228 = CARTESIAN_POINT ( 'NONE',  ( 160.0000000000000000, 0.000000000000000000, 12.00000000000000000 ) ) ;
#229 = CARTESIAN_POINT ( 'NONE',  ( 69.70000000000000284, 0.000000000000000000, 12.00000000000000000 ) ) ;
#230 = ORIENTED_EDGE ( 'NONE', *, *, #641, .T. ) ;
#231 = CARTESIAN_POINT ( 'NONE',  ( 90.30000000000001137, 0.000000000000000000, 0.000000000000000000 ) ) ;
#232 = EDGE_CURVE ( 'NONE', #577, #678, #190, .T. ) ;
#233 = DIRECTION ( 'NONE',  ( -0.000000000000000000, -0.000000000000000000, -1.000000000000000000 ) ) ;
#234 = ORIENTED_EDGE ( 'NONE', *, *, #385, .T. ) ;
#235 = CARTESIAN_POINT ( 'NONE',  ( 25.25000000000000000, 134.7499999999999716, 7.000000000000000000 ) ) ;
#236 = CARTESIAN_POINT ( 'NONE',  ( 0.000000000000000000, 69.70000000000000284, 12.00000000000000000 ) ) ;
#237 = ORIENTED_EDGE ( 'NONE', *, *, #606, .T. ) ;
#238 = AXIS2_PLACEMENT_3D ( 'NONE', #556, #441, #436 ) ;
#239 = VECTOR ( 'NONE', #715, 1000.000000000000000 ) ;
#240 = CARTESIAN_POINT ( 'NONE',  ( 149.5000000000186446, 28.49999999999487699, 8.000000000000000000 ) ) ;
#241 = ORIENTED_EDGE ( 'NONE', *, *, #44, .F. ) ;
#242 = DIRECTION ( 'NONE',  ( 0.000000000000000000, 0.000000000000000000, 1.000000000000000000 ) ) ;
#243 = ADVANCED_FACE ( 'NONE', ( #414 ), #15, .F. ) ;
#244 = CARTESIAN_POINT ( 'NONE',  ( 0.000000000000000000, 0.000000000000000000, 0.000000000000000000 ) ) ;
#245 = PLANE ( 'NONE',  #547 ) ;
#246 = ORIENTED_EDGE ( 'NONE', *, *, #348, .F. ) ;
#247 = PRODUCT_CONTEXT ( 'NONE', #565, 'mechanical' ) ;
#248 = LINE ( 'NONE', #589, #227 ) ;
#249 = CARTESIAN_POINT ( 'NONE',  ( 151.5000000000186446, 28.49999999999487699, 12.00000000000000000 ) ) ;
#250 = ORIENTED_EDGE ( 'NONE', *, *, #339, .F. ) ;
#251 = AXIS2_PLACEMENT_3D ( 'NONE', #184, #688, #49 ) ;
#252 = DIRECTION ( 'NONE',  ( 0.000000000000000000, 1.000000000000000000, 0.000000000000000000 ) ) ;
#253 = AXIS2_PLACEMENT_3D ( 'NONE', #388, #628, #120 ) ;
#254 = CARTESIAN_POINT ( 'NONE',  ( 0.000000000000000000, 0.000000000000000000, 12.00000000000000000 ) ) ;
#255 = ORIENTED_EDGE ( 'NONE', *, *, #18, .F. ) ;
#256 = DIRECTION ( 'NONE',  ( 1.000000000000000000, 0.000000000000000000, 0.000000000000000000 ) ) ;
#257 = LINE ( 'NONE', #532, #194 ) ;
#258 = EDGE_LOOP ( 'NONE', ( #42, #588, #143, #525 ) ) ;
#259 = DIRECTION ( 'NONE',  ( -1.000000000000000000, 0.000000000000000000, 0.000000000000000000 ) ) ;
#260 = CARTESIAN_POINT ( 'NONE',  ( 90.30000000000001137, 0.000000000000000000, 0.000000000000000000 ) ) ;
#261 = ORIENTED_EDGE ( 'NONE', *, *, #637, .T. ) ;
#262 = CLOSED_SHELL ( 'NONE', ( #443, #243, #136, #652, #189, #696, #519, #377, #81, #163, #730, #151, #539, #323, #394, #200, #449, #159, #473, #399, #30, #123, #710, #483 ) ) ;
#263 = LINE ( 'NONE', #722, #432 ) ;
#264 = AXIS2_PLACEMENT_3D ( 'NONE', #450, #614, #745 ) ;
#265 = PLANE ( 'NONE',  #238 ) ;
#266 = CIRCLE ( 'NONE', #526, 2.000000000000001776 ) ;
#267 = VERTEX_POINT ( 'NONE', #491 ) ;
#268 = EDGE_CURVE ( 'NONE', #655, #331, #604, .T. ) ;
#269 = DIRECTION ( 'NONE',  ( 0.000000000000000000, -0.000000000000000000, -1.000000000000000000 ) ) ;
#270 = VERTEX_POINT ( 'NONE', #327 ) ;
#271 = CARTESIAN_POINT ( 'NONE',  ( 25.25000000000000000, 155.2500000000000000, 12.00000000000000000 ) ) ;
#272 = ORIENTED_EDGE ( 'NONE', *, *, #275, .T. ) ;
#273 = CARTESIAN_POINT ( 'NONE',  ( 4.749999999999999112, 134.7499999999999716, 7.000000000000000000 ) ) ;
#274 = CIRCLE ( 'NONE', #146, 3.450000000000008615 ) ;
#275 = EDGE_CURVE ( 'NONE', #89, #453, #219, .T. ) ;
#276 = ORIENTED_EDGE ( 'NONE', *, *, #530, .T. ) ;
#277 = AXIS2_PLACEMENT_3D ( 'NONE', #109, #333, #113 ) ;
#278 = CARTESIAN_POINT ( 'NONE',  ( 0.000000000000000000, 160.0000000000000000, 0.000000000000000000 ) ) ;
#279 = PLANE ( 'NONE',  #717 ) ;
#280 = CARTESIAN_POINT ( 'NONE',  ( 164.0000000000000000, 70.00000000000000000, 0.000000000000000000 ) ) ;
#281 = CARTESIAN_POINT ( 'NONE',  ( 69.70000000000000284, 4.200000000000000178, 0.000000000000000000 ) ) ;
#282 = EDGE_LOOP ( 'NONE', ( #674, #127, #648, #635 ) ) ;
#283 = CARTESIAN_POINT ( 'NONE',  ( 160.0000000000000000, 70.00000000000000000, 12.00000000000000000 ) ) ;
#284 = FACE_OUTER_BOUND ( 'NONE', #540, .T. ) ;
#285 = VERTEX_POINT ( 'NONE', #94 ) ;
#286 = EDGE_CURVE ( 'NONE', #149, #72, #210, .T. ) ;
#287 = LINE ( 'NONE', #511, #182 ) ;
#288 = DIRECTION ( 'NONE',  ( -0.000000000000000000, -0.000000000000000000, 1.000000000000000000 ) ) ;
#289 = ORIENTED_EDGE ( 'NONE', *, *, #76, .T. ) ;
#290 = CYLINDRICAL_SURFACE ( 'NONE', #693, 3.450000000000008615 ) ;
#291 = EDGE_CURVE ( 'NONE', #270, #664, #485, .T. ) ;
#292 = FACE_OUTER_BOUND ( 'NONE', #724, .T. ) ;
#293 = ORIENTED_EDGE ( 'NONE', *, *, #627, .F. ) ;
#294 = DIRECTION ( 'NONE',  ( -0.000000000000000000, -0.000000000000000000, -1.000000000000000000 ) ) ;
#295 = EDGE_CURVE ( 'NONE', #655, #664, #439, .T. ) ;
#296 = EDGE_LOOP ( 'NONE', ( #427, #112, #667, #425 ) ) ;
#297 = VECTOR ( 'NONE', #212, 1000.000000000000000 ) ;
#298 = FACE_BOUND ( 'NONE', #590, .T. ) ;
#299 = DIRECTION ( 'NONE',  ( -1.000000000000000000, 0.000000000000000000, 0.000000000000000000 ) ) ;
#300 = ORIENTED_EDGE ( 'NONE', *, *, #741, .F. ) ;
#301 = CARTESIAN_POINT ( 'NONE',  ( 160.0000000000000000, 90.00000000000000000, 12.00000000000000000 ) ) ;
#302 = DIRECTION ( 'NONE',  ( 0.000000000000000000, -1.000000000000000000, 0.000000000000000000 ) ) ;
#303 = ORIENTED_EDGE ( 'NONE', *, *, #221, .F. ) ;
#304 = LINE ( 'NONE', #534, #490 ) ;
#305 = CARTESIAN_POINT ( 'NONE',  ( 4.749999999999999112, 155.2500000000000000, 7.000000000000000000 ) ) ;
#306 = ORIENTED_EDGE ( 'NONE', *, *, #506, .F. ) ;
#307 = FACE_BOUND ( 'NONE', #554, .T. ) ;
#308 = VECTOR ( 'NONE', #732, 1000.000000000000000 ) ;
#309 = EDGE_CURVE ( 'NONE', #678, #267, #376, .T. ) ;
#310 = DIRECTION ( 'NONE',  ( -0.000000000000000000, -0.000000000000000000, -1.000000000000000000 ) ) ;
#311 = ORIENTED_EDGE ( 'NONE', *, *, #317, .F. ) ;
#312 = CARTESIAN_POINT ( 'NONE',  ( 4.749999999999999112, 134.7499999999999716, 7.000000000000000000 ) ) ;
#313 = ORIENTED_EDGE ( 'NONE', *, *, #295, .T. ) ;
#314 = CYLINDRICAL_SURFACE ( 'NONE', #720, 3.450000000000008615 ) ;
#315 = CARTESIAN_POINT ( 'NONE',  ( 151.5000000000186446, 28.49999999999487699, 12.00000000000000000 ) ) ;
#316 = VERTEX_POINT ( 'NONE', #433 ) ;
#317 = EDGE_CURVE ( 'NONE', #149, #285, #488, .T. ) ;
#318 = CARTESIAN_POINT ( 'NONE',  ( 4.749999999999999112, 155.2500000000000000, 12.00000000000000000 ) ) ;
#319 = AXIS2_PLACEMENT_3D ( 'NONE', #305, #709, #135 ) ;
#320 = AXIS2_PLACEMENT_3D ( 'NONE', #249, #474, #139 ) ;
#321 = CARTESIAN_POINT ( 'NONE',  ( 153.5000000000186446, 28.49999999999487699, 12.00000000000000000 ) ) ;
#322 = ORIENTED_EDGE ( 'NONE', *, *, #632, .F. ) ;
#323 = ADVANCED_FACE ( 'NONE', ( #160 ), #99, .F. ) ;
#324 = DIRECTION ( 'NONE',  ( -0.000000000000000000, -0.000000000000000000, -1.000000000000000000 ) ) ;
#325 = ORIENTED_EDGE ( 'NONE', *, *, #275, .F. ) ;
#326 = EDGE_CURVE ( 'NONE', #479, #595, #545, .T. ) ;
#327 = CARTESIAN_POINT ( 'NONE',  ( 25.25000000000000000, 155.2500000000000000, 12.00000000000000000 ) ) ;
#328 = ORIENTED_EDGE ( 'NONE', *, *, #613, .T. ) ;
#329 = FACE_OUTER_BOUND ( 'NONE', #165, .T. ) ;
#330 = AXIS2_PLACEMENT_3D ( 'NONE', #340, #570, #423 ) ;
#331 = VERTEX_POINT ( 'NONE', #312 ) ;
#332 = VECTOR ( 'NONE', #596, 1000.000000000000000 ) ;
#333 = DIRECTION ( 'NONE',  ( 0.000000000000000000, 0.000000000000000000, -1.000000000000000000 ) ) ;
#334 = CARTESIAN_POINT ( 'NONE',  ( 160.0000000000000000, 0.000000000000000000, 12.00000000000000000 ) ) ;
#335 = ORIENTED_EDGE ( 'NONE', *, *, #632, .T. ) ;
#336 = LINE ( 'NONE', #566, #47 ) ;
#337 = CARTESIAN_POINT ( 'NONE',  ( 160.0000000000000000, 70.00000000000000000, 0.000000000000000000 ) ) ;
#338 = ORIENTED_EDGE ( 'NONE', *, *, #721, .T. ) ;
#339 = EDGE_CURVE ( 'NONE', #67, #422, #495, .T. ) ;
#340 = CARTESIAN_POINT ( 'NONE',  ( 69.70000000000000284, 0.000000000000000000, 12.00000000000000000 ) ) ;
#341 = DIRECTION ( 'NONE',  ( 0.000000000000000000, -1.000000000000000000, 0.000000000000000000 ) ) ;
#342 = VERTEX_POINT ( 'NONE', #213 ) ;
#343 = MECHANICAL_DESIGN_GEOMETRIC_PRESENTATION_REPRESENTATION (  '', ( #416 ), #147 ) ;
#344 = LINE ( 'NONE', #235, #583 ) ;
#345 = DIRECTION ( 'NONE',  ( 0.000000000000000000, 0.000000000000000000, -1.000000000000000000 ) ) ;
#346 = EDGE_LOOP ( 'NONE', ( #400, #246, #208, #220 ) ) ;
#347 = DIRECTION ( 'NONE',  ( 0.000000000000000000, 0.000000000000000000, 1.000000000000000000 ) ) ;
#348 = EDGE_CURVE ( 'NONE', #707, #529, #608, .T. ) ;
#349 = CARTESIAN_POINT ( 'NONE',  ( 0.000000000000000000, 0.000000000000000000, 7.000000000000000000 ) ) ;
#350 = VERTEX_POINT ( 'NONE', #666 ) ;
#351 = CARTESIAN_POINT ( 'NONE',  ( 90.30000000000001137, 4.200000000000000178, 0.000000000000000000 ) ) ;
#352 =( NAMED_UNIT ( * ) SI_UNIT ( $, .STERADIAN. ) SOLID_ANGLE_UNIT ( ) );
#353 = EDGE_LOOP ( 'NONE', ( #579, #744, #412, #313 ) ) ;
#354 = VECTOR ( 'NONE', #455, 1000.000000000000000 ) ;
#355 = VECTOR ( 'NONE', #73, 1000.000000000000000 ) ;
#356 =( GEOMETRIC_REPRESENTATION_CONTEXT ( 3 ) GLOBAL_UNCERTAINTY_ASSIGNED_CONTEXT ( ( #593 ) ) GLOBAL_UNIT_ASSIGNED_CONTEXT ( ( #379, #98, #40 ) ) REPRESENTATION_CONTEXT ( 'NONE', 'WORKASPACE' ) );
#357 = LINE ( 'NONE', #586, #7 ) ;
#358 = CARTESIAN_POINT ( 'NONE',  ( 164.0000000000000000, 90.00000000000000000, 12.00000000000000000 ) ) ;
#359 = ORIENTED_EDGE ( 'NONE', *, *, #721, .F. ) ;
#360 = DIRECTION ( 'NONE',  ( -1.000000000000000000, 0.000000000000000000, 0.000000000000000000 ) ) ;
#361 = SURFACE_SIDE_STYLE ('',( #712 ) ) ;
#362 = ORIENTED_EDGE ( 'NONE', *, *, #684, .F. ) ;
#363 = EDGE_CURVE ( 'NONE', #595, #529, #216, .T. ) ;
#364 = LINE ( 'NONE', #592, #108 ) ;
#365 = CARTESIAN_POINT ( 'NONE',  ( 70.00000000000000000, 160.0000000000000000, 12.00000000000000000 ) ) ;
#366 = VERTEX_POINT ( 'NONE', #383 ) ;
#367 = AXIS2_PLACEMENT_3D ( 'NONE', #168, #341, #743 ) ;
#368 = VECTOR ( 'NONE', #736, 1000.000000000000000 ) ;
#369 = PLANE ( 'NONE',  #501 ) ;
#370 = ORIENTED_EDGE ( 'NONE', *, *, #286, .T. ) ;
#371 = DIRECTION ( 'NONE',  ( 0.000000000000000000, 0.000000000000000000, -1.000000000000000000 ) ) ;
#372 = DIRECTION ( 'NONE',  ( 1.000000000000000000, 0.000000000000000000, 0.000000000000000000 ) ) ;
#373 = EDGE_CURVE ( 'NONE', #664, #378, #157, .T. ) ;
#374 = EDGE_LOOP ( 'NONE', ( #56, #300, #276, #115 ) ) ;
#375 = DIRECTION ( 'NONE',  ( 0.000000000000000000, 0.000000000000000000, 1.000000000000000000 ) ) ;
#376 = LINE ( 'NONE', #716, #629 ) ;
#377 = ADVANCED_FACE ( 'NONE', ( #87 ), #265, .F. ) ;
#378 = VERTEX_POINT ( 'NONE', #670 ) ;
#379 =( LENGTH_UNIT ( ) NAMED_UNIT ( * ) SI_UNIT ( .MILLI., .METRE. ) );
#380 = VECTOR ( 'NONE', #41, 1000.000000000000000 ) ;
#381 = CARTESIAN_POINT ( 'NONE',  ( 4.749999999999999112, 155.2500000000000000, 7.000000000000000000 ) ) ;
#382 = LINE ( 'NONE', #447, #192 ) ;
#383 = CARTESIAN_POINT ( 'NONE',  ( 164.0000000000000000, 70.00000000000000000, 0.000000000000000000 ) ) ;
#384 = ORIENTED_EDGE ( 'NONE', *, *, #101, .F. ) ;
#385 = EDGE_CURVE ( 'NONE', #331, #118, #43, .T. ) ;
#386 = DIRECTION ( 'NONE',  ( -0.000000000000000000, -0.000000000000000000, -1.000000000000000000 ) ) ;
#387 = ORIENTED_EDGE ( 'NONE', *, *, #430, .F. ) ;
#388 = CARTESIAN_POINT ( 'NONE',  ( 151.5000000000185310, 28.49999999999482014, 0.000000000000000000 ) ) ;
#389 = AXIS2_PLACEMENT_3D ( 'NONE', #365, #302, #470 ) ;
#390 = CARTESIAN_POINT ( 'NONE',  ( 25.25000000000000000, 134.7499999999999716, 7.000000000000000000 ) ) ;
#391 = AXIS2_PLACEMENT_3D ( 'NONE', #145, #494, #603 ) ;
#392 = ORIENTED_EDGE ( 'NONE', *, *, #36, .F. ) ;
#393 = DIRECTION ( 'NONE',  ( -0.000000000000000000, -0.000000000000000000, -1.000000000000000000 ) ) ;
#394 = ADVANCED_FACE ( 'NONE', ( #673 ), #369, .F. ) ;
#395 = DIRECTION ( 'NONE',  ( 0.000000000000000000, 1.000000000000000000, 0.000000000000000000 ) ) ;
#396 = VERTEX_POINT ( 'NONE', #260 ) ;
#397 = DIRECTION ( 'NONE',  ( -0.000000000000000000, -0.000000000000000000, -1.000000000000000000 ) ) ;
#398 = DIRECTION ( 'NONE',  ( -0.000000000000000000, -0.000000000000000000, -1.000000000000000000 ) ) ;
#399 = ADVANCED_FACE ( 'NONE', ( #687 ), #401, .F. ) ;
#400 = ORIENTED_EDGE ( 'NONE', *, *, #363, .T. ) ;
#401 = PLANE ( 'NONE',  #57 ) ;
#402 = CARTESIAN_POINT ( 'NONE',  ( 153.5000000000186446, 28.49999999999487699, 8.000000000000000000 ) ) ;
#403 = ORIENTED_EDGE ( 'NONE', *, *, #309, .T. ) ;
#404 = VECTOR ( 'NONE', #594, 1000.000000000000000 ) ;
#405 = EDGE_CURVE ( 'NONE', #118, #316, #344, .T. ) ;
#406 = CARTESIAN_POINT ( 'NONE',  ( 151.5000000000186446, 28.49999999999487699, 12.00000000000000000 ) ) ;
#407 = CARTESIAN_POINT ( 'NONE',  ( 160.0000000000000000, 160.0000000000000000, 12.00000000000000000 ) ) ;
#408 = ORIENTED_EDGE ( 'NONE', *, *, #62, .T. ) ;
#409 = EDGE_CURVE ( 'NONE', #105, #644, #58, .T. ) ;
#410 = LINE ( 'NONE', #636, #205 ) ;
#411 = PLANE ( 'NONE',  #548 ) ;
#412 = ORIENTED_EDGE ( 'NONE', *, *, #268, .F. ) ;
#413 = PLANE ( 'NONE',  #463 ) ;
#414 = FACE_OUTER_BOUND ( 'NONE', #217, .T. ) ;
#415 = ORIENTED_EDGE ( 'NONE', *, *, #498, .T. ) ;
#416 = STYLED_ITEM ( 'NONE', ( #420 ), #161 ) ;
#417 = APPLICATION_PROTOCOL_DEFINITION ( 'draft international standard', 'automotive_design', 1998, #565 ) ;
#418 = VECTOR ( 'NONE', #649, 1000.000000000000000 ) ;
#419 = CARTESIAN_POINT ( 'NONE',  ( 148.0500000000185139, 28.49999999999482014, 0.000000000000000000 ) ) ;
#420 = PRESENTATION_STYLE_ASSIGNMENT (( #478 ) ) ;
#421 = EDGE_CURVE ( 'NONE', #568, #475, #451, .T. ) ;
#422 = VERTEX_POINT ( 'NONE', #1 ) ;
#423 = DIRECTION ( 'NONE',  ( 0.000000000000000000, 0.000000000000000000, 1.000000000000000000 ) ) ;
#424 = DIRECTION ( 'NONE',  ( 0.000000000000000000, 1.000000000000000000, 0.000000000000000000 ) ) ;
#425 = ORIENTED_EDGE ( 'NONE', *, *, #53, .T. ) ;
#426 = EDGE_CURVE ( 'NONE', #573, #13, #287, .T. ) ;
#427 = ORIENTED_EDGE ( 'NONE', *, *, #221, .T. ) ;
#428 = VECTOR ( 'NONE', #395, 1000.000000000000000 ) ;
#429 = VECTOR ( 'NONE', #138, 1000.000000000000000 ) ;
#430 = EDGE_CURVE ( 'NONE', #396, #350, #164, .T. ) ;
#431 = PLANE ( 'NONE',  #35 ) ;
#432 = VECTOR ( 'NONE', #489, 1000.000000000000000 ) ;
#433 = CARTESIAN_POINT ( 'NONE',  ( 25.25000000000000000, 155.2500000000000000, 7.000000000000000000 ) ) ;
#434 = ORIENTED_EDGE ( 'NONE', *, *, #684, .T. ) ;
#435 = DIRECTION ( 'NONE',  ( 0.000000000000000000, -0.000000000000000000, 1.000000000000000000 ) ) ;
#436 = DIRECTION ( 'NONE',  ( 0.000000000000000000, -0.000000000000000000, 1.000000000000000000 ) ) ;
#437 = ORIENTED_EDGE ( 'NONE', *, *, #584, .T. ) ;
#438 = LINE ( 'NONE', #86, #332 ) ;
#439 = LINE ( 'NONE', #381, #70 ) ;
#440 = CARTESIAN_POINT ( 'NONE',  ( 0.000000000000000000, 0.000000000000000000, 12.00000000000000000 ) ) ;
#441 = DIRECTION ( 'NONE',  ( 0.000000000000000000, 1.000000000000000000, 0.000000000000000000 ) ) ;
#442 = EDGE_LOOP ( 'NONE', ( #16, #162 ) ) ;
#443 = ADVANCED_FACE ( 'NONE', ( #172 ), #290, .F. ) ;
#444 = CARTESIAN_POINT ( 'NONE',  ( 69.70000000000000284, 4.200000000000000178, 0.000000000000000000 ) ) ;
#445 = ORIENTED_EDGE ( 'NONE', *, *, #506, .T. ) ;
#446 = PLANE ( 'NONE',  #264 ) ;
#447 = CARTESIAN_POINT ( 'NONE',  ( 164.0000000000000000, 70.00000000000000000, 12.00000000000000000 ) ) ;
#448 = PRODUCT_DEFINITION_FORMATION_WITH_SPECIFIED_SOURCE ( 'Symmetric', '', #493, .NOT_KNOWN. ) ;
#449 = ADVANCED_FACE ( 'NONE', ( #517 ), #446, .F. ) ;
#450 = CARTESIAN_POINT ( 'NONE',  ( 0.000000000000000000, 90.30000000000001137, 12.00000000000000000 ) ) ;
#451 = CIRCLE ( 'NONE', #253, 3.450000000000008615 ) ;
#452 = DIRECTION ( 'NONE',  ( -1.000000000000000000, 0.000000000000000000, 0.000000000000000000 ) ) ;
#453 = VERTEX_POINT ( 'NONE', #104 ) ;
#454 = FACE_OUTER_BOUND ( 'NONE', #52, .T. ) ;
#455 = DIRECTION ( 'NONE',  ( 0.000000000000000000, 1.000000000000000000, 0.000000000000000000 ) ) ;
#456 = ORIENTED_EDGE ( 'NONE', *, *, #18, .T. ) ;
#457 = FACE_BOUND ( 'NONE', #442, .T. ) ;
#458 = CARTESIAN_POINT ( 'NONE',  ( 4.749999999999999112, 134.7499999999999716, 7.000000000000000000 ) ) ;
#459 = EDGE_CURVE ( 'NONE', #89, #92, #507, .T. ) ;
#460 = EDGE_LOOP ( 'NONE', ( #437, #255, #325, #711 ) ) ;
#461 = CARTESIAN_POINT ( 'NONE',  ( 25.25000000000000000, 134.7499999999999716, 7.000000000000000000 ) ) ;
#462 = DIRECTION ( 'NONE',  ( -0.000000000000000000, 0.000000000000000000, -1.000000000000000000 ) ) ;
#463 = AXIS2_PLACEMENT_3D ( 'NONE', #708, #14, #347 ) ;
#464 = ORIENTED_EDGE ( 'NONE', *, *, #741, .T. ) ;
#465 = AXIS2_PLACEMENT_3D ( 'NONE', #315, #550, #601 ) ;
#466 = LINE ( 'NONE', #646, #429 ) ;
#467 = LINE ( 'NONE', #358, #616 ) ;
#468 = VERTEX_POINT ( 'NONE', #224 ) ;
#469 = PLANE ( 'NONE',  #617 ) ;
#470 = DIRECTION ( 'NONE',  ( 0.000000000000000000, -0.000000000000000000, -1.000000000000000000 ) ) ;
#471 = ORIENTED_EDGE ( 'NONE', *, *, #181, .T. ) ;
#472 = CARTESIAN_POINT ( 'NONE',  ( 148.0500000000185139, 28.49999999999482014, 8.000000000000000000 ) ) ;
#473 = ADVANCED_FACE ( 'NONE', ( #329 ), #559, .F. ) ;
#474 = DIRECTION ( 'NONE',  ( -0.000000000000000000, -0.000000000000000000, -1.000000000000000000 ) ) ;
#475 = VERTEX_POINT ( 'NONE', #624 ) ;
#476 = VECTOR ( 'NONE', #61, 1000.000000000000000 ) ;
#477 = CARTESIAN_POINT ( 'NONE',  ( 90.30000000000001137, 0.000000000000000000, 12.00000000000000000 ) ) ;
#478 = SURFACE_STYLE_USAGE ( .BOTH. , #361 ) ;
#479 = VERTEX_POINT ( 'NONE', #278 ) ;
#480 = CARTESIAN_POINT ( 'NONE',  ( 0.000000000000000000, 0.000000000000000000, 0.000000000000000000 ) ) ;
#481 = CARTESIAN_POINT ( 'NONE',  ( 160.0000000000000000, 70.00000000000000000, 12.00000000000000000 ) ) ;
#482 = ORIENTED_EDGE ( 'NONE', *, *, #430, .T. ) ;
#483 = ADVANCED_FACE ( 'NONE', ( #457, #734 ), #222, .T. ) ;
#484 = CARTESIAN_POINT ( 'NONE',  ( 25.25000000000000000, 155.2500000000000000, 7.000000000000000000 ) ) ;
#485 = LINE ( 'NONE', #271, #84 ) ;
#486 = ORIENTED_EDGE ( 'NONE', *, *, #291, .F. ) ;
#487 = AXIS2_PLACEMENT_3D ( 'NONE', #619, #51, #462 ) ;
#488 = CIRCLE ( 'NONE', #465, 2.000000000000001776 ) ;
#489 = DIRECTION ( 'NONE',  ( 0.000000000000000000, 1.000000000000000000, 0.000000000000000000 ) ) ;
#490 = VECTOR ( 'NONE', #294, 1000.000000000000000 ) ;
#491 = CARTESIAN_POINT ( 'NONE',  ( 160.0000000000000000, 160.0000000000000000, 0.000000000000000000 ) ) ;
#492 = ORIENTED_EDGE ( 'NONE', *, *, #610, .T. ) ;
#493 = PRODUCT ( 'CNC_Cage_Base_UL', 'CNC_Cage_Base_UL', '', ( #247 ) ) ;
#494 = DIRECTION ( 'NONE',  ( 0.000000000000000000, 0.000000000000000000, -1.000000000000000000 ) ) ;
#495 = LINE ( 'NONE', #444, #218 ) ;
#496 = VERTEX_POINT ( 'NONE', #562 ) ;
#497 = CARTESIAN_POINT ( 'NONE',  ( 164.0000000000000000, 90.00000000000000000, 12.00000000000000000 ) ) ;
#498 = EDGE_CURVE ( 'NONE', #366, #577, #50, .T. ) ;
#499 = VERTEX_POINT ( 'NONE', #116 ) ;
#500 = VECTOR ( 'NONE', #681, 1000.000000000000000 ) ;
#501 = AXIS2_PLACEMENT_3D ( 'NONE', #597, #542, #28 ) ;
#502 = DIRECTION ( 'NONE',  ( -0.000000000000000000, -0.000000000000000000, 1.000000000000000000 ) ) ;
#503 = ORIENTED_EDGE ( 'NONE', *, *, #339, .T. ) ;
#504 = DIRECTION ( 'NONE',  ( 0.000000000000000000, -0.000000000000000000, 1.000000000000000000 ) ) ;
#505 = DIRECTION ( 'NONE',  ( -0.000000000000000000, 0.000000000000000000, 1.000000000000000000 ) ) ;
#506 = EDGE_CURVE ( 'NONE', #644, #479, #336, .T. ) ;
#507 = LINE ( 'NONE', #283, #679 ) ;
#508 = PLANE ( 'NONE',  #487 ) ;
#509 = ORIENTED_EDGE ( 'NONE', *, *, #214, .F. ) ;
#510 = EDGE_CURVE ( 'NONE', #13, #350, #742, .T. ) ;
#511 = CARTESIAN_POINT ( 'NONE',  ( 90.30000000000001137, 0.000000000000000000, 12.00000000000000000 ) ) ;
#512 = CARTESIAN_POINT ( 'NONE',  ( 164.0000000000000000, 70.00000000000000000, 12.00000000000000000 ) ) ;
#513 = EDGE_LOOP ( 'NONE', ( #682, #230, #408, #85 ) ) ;
#514 = DIRECTION ( 'NONE',  ( -1.000000000000000000, 0.000000000000000000, 0.000000000000000000 ) ) ;
#515 = CARTESIAN_POINT ( 'NONE',  ( 69.70000000000000284, 4.200000000000000178, 12.00000000000000000 ) ) ;
#516 = ORIENTED_EDGE ( 'NONE', *, *, #574, .F. ) ;
#517 = FACE_OUTER_BOUND ( 'NONE', #187, .T. ) ;
#518 = UNCERTAINTY_MEASURE_WITH_UNIT (LENGTH_MEASURE( 1.000000000000000082E-05 ), #8, 'distance_accuracy_value', 'NONE');
#519 = ADVANCED_FACE ( 'NONE', ( #454 ), #175, .F. ) ;
#520 = CARTESIAN_POINT ( 'NONE',  ( 69.70000000000000284, 4.200000000000000178, 12.00000000000000000 ) ) ;
#521 = EDGE_LOOP ( 'NONE', ( #22, #39, #293, #602, #620, #615, #60, #362, #387, #718, #250, #137 ) ) ;
#522 = LINE ( 'NONE', #472, #355 ) ;
#523 = PLANE ( 'NONE',  #133 ) ;
#524 = VECTOR ( 'NONE', #152, 1000.000000000000000 ) ;
#525 = ORIENTED_EDGE ( 'NONE', *, *, #88, .T. ) ;
#526 = AXIS2_PLACEMENT_3D ( 'NONE', #406, #37, #27 ) ;
#527 = DIRECTION ( 'NONE',  ( 0.000000000000000000, 0.000000000000000000, -1.000000000000000000 ) ) ;
#528 = LINE ( 'NONE', #254, #404 ) ;
#529 = VERTEX_POINT ( 'NONE', #700 ) ;
#530 = EDGE_CURVE ( 'NONE', #496, #568, #522, .T. ) ;
#531 = CARTESIAN_POINT ( 'NONE',  ( 164.0000000000000000, 90.00000000000000000, 0.000000000000000000 ) ) ;
#532 = CARTESIAN_POINT ( 'NONE',  ( 25.25000000000000000, 134.7499999999999716, 12.00000000000000000 ) ) ;
#533 = ORIENTED_EDGE ( 'NONE', *, *, #268, .T. ) ;
#534 = CARTESIAN_POINT ( 'NONE',  ( 160.0000000000000000, 90.00000000000000000, 12.00000000000000000 ) ) ;
#535 = CARTESIAN_POINT ( 'NONE',  ( 164.0000000000000000, 90.00000000000000000, 12.00000000000000000 ) ) ;
#536 = EDGE_LOOP ( 'NONE', ( #415, #598, #122, #456 ) ) ;
#537 = CARTESIAN_POINT ( 'NONE',  ( 0.000000000000000000, 0.000000000000000000, 12.00000000000000000 ) ) ;
#538 = FACE_OUTER_BOUND ( 'NONE', #521, .T. ) ;
#539 = ADVANCED_FACE ( 'NONE', ( #633 ), #413, .F. ) ;
#540 = EDGE_LOOP ( 'NONE', ( #533, #234, #33, #338 ) ) ;
#541 = LINE ( 'NONE', #150, #297 ) ;
#542 = DIRECTION ( 'NONE',  ( -1.000000000000000000, 0.000000000000000000, 0.000000000000000000 ) ) ;
#543 = ORIENTED_EDGE ( 'NONE', *, *, #295, .F. ) ;
#544 = DIRECTION ( 'NONE',  ( -0.000000000000000000, -0.000000000000000000, -1.000000000000000000 ) ) ;
#545 = LINE ( 'NONE', #729, #705 ) ;
#546 = ORIENTED_EDGE ( 'NONE', *, *, #326, .T. ) ;
#547 = AXIS2_PLACEMENT_3D ( 'NONE', #481, #424, #198 ) ;
#548 = AXIS2_PLACEMENT_3D ( 'NONE', #704, #20, #12 ) ;
#549 = FACE_OUTER_BOUND ( 'NONE', #346, .T. ) ;
#550 = DIRECTION ( 'NONE',  ( 0.000000000000000000, 0.000000000000000000, 1.000000000000000000 ) ) ;
#551 = ORIENTED_EDGE ( 'NONE', *, *, #663, .F. ) ;
#552 = EDGE_CURVE ( 'NONE', #573, #396, #248, .T. ) ;
#553 = CARTESIAN_POINT ( 'NONE',  ( 4.749999999999999112, 155.2500000000000000, 12.00000000000000000 ) ) ;
#554 = EDGE_LOOP ( 'NONE', ( #671, #486, #303, #75 ) ) ;
#555 = EDGE_CURVE ( 'NONE', #45, #215, #11, .T. ) ;
#556 = CARTESIAN_POINT ( 'NONE',  ( 69.70000000000000284, 4.200000000000000178, 12.00000000000000000 ) ) ;
#557 = ORIENTED_EDGE ( 'NONE', *, *, #510, .T. ) ;
#558 = VECTOR ( 'NONE', #155, 1000.000000000000000 ) ;
#559 = PLANE ( 'NONE',  #656 ) ;
#560 = EDGE_CURVE ( 'NONE', #378, #342, #703, .T. ) ;
#561 = ORIENTED_EDGE ( 'NONE', *, *, #144, .T. ) ;
#562 = CARTESIAN_POINT ( 'NONE',  ( 148.0500000000185139, 28.49999999999482014, 8.000000000000000000 ) ) ;
#563 = CARTESIAN_POINT ( 'NONE',  ( 151.5000000000185310, 28.49999999999482014, 0.000000000000000000 ) ) ;
#564 = ORIENTED_EDGE ( 'NONE', *, *, #552, .F. ) ;
#565 = APPLICATION_CONTEXT ( 'automotive_design' ) ;
#566 = CARTESIAN_POINT ( 'NONE',  ( 0.000000000000000000, 160.0000000000000000, 12.00000000000000000 ) ) ;
#567 = LINE ( 'NONE', #229, #354 ) ;
#568 = VERTEX_POINT ( 'NONE', #419 ) ;
#569 = ADVANCED_BREP_SHAPE_REPRESENTATION ( 'CNC_Cage_Base_UL', ( #161, #580 ), #356 ) ;
#570 = DIRECTION ( 'NONE',  ( -1.000000000000000000, 0.000000000000000000, 0.000000000000000000 ) ) ;
#571 = VECTOR ( 'NONE', #167, 1000.000000000000000 ) ;
#572 = DIRECTION ( 'NONE',  ( -1.000000000000000000, 0.000000000000000000, 0.000000000000000000 ) ) ;
#573 = VERTEX_POINT ( 'NONE', #477 ) ;
#574 = EDGE_CURVE ( 'NONE', #285, #612, #466, .T. ) ;
#575 = CARTESIAN_POINT ( 'NONE',  ( 160.0000000000000000, 160.0000000000000000, 12.00000000000000000 ) ) ;
#576 = DIRECTION ( 'NONE',  ( 0.000000000000000000, 1.000000000000000000, 0.000000000000000000 ) ) ;
#577 = VERTEX_POINT ( 'NONE', #531 ) ;
#578 = DIRECTION ( 'NONE',  ( 1.000000000000000000, 0.000000000000000000, 0.000000000000000000 ) ) ;
#579 = ORIENTED_EDGE ( 'NONE', *, *, #373, .T. ) ;
#580 = AXIS2_PLACEMENT_3D ( 'NONE', #480, #242, #645 ) ;
#581 = CARTESIAN_POINT ( 'NONE',  ( 0.000000000000000000, 160.0000000000000000, 12.00000000000000000 ) ) ;
#582 = DIRECTION ( 'NONE',  ( 0.000000000000000000, 1.000000000000000000, 0.000000000000000000 ) ) ;
#583 = VECTOR ( 'NONE', #680, 1000.000000000000000 ) ;
#584 = EDGE_CURVE ( 'NONE', #92, #366, #188, .T. ) ;
#585 = EDGE_LOOP ( 'NONE', ( #191, #623 ) ) ;
#586 = CARTESIAN_POINT ( 'NONE',  ( 70.00000000000000000, 160.0000000000000000, 0.000000000000000000 ) ) ;
#587 = FACE_OUTER_BOUND ( 'NONE', #353, .T. ) ;
#588 = ORIENTED_EDGE ( 'NONE', *, *, #317, .T. ) ;
#589 = CARTESIAN_POINT ( 'NONE',  ( 90.30000000000001137, 0.000000000000000000, 12.00000000000000000 ) ) ;
#590 = EDGE_LOOP ( 'NONE', ( #551, #311 ) ) ;
#591 = EDGE_CURVE ( 'NONE', #422, #396, #692, .T. ) ;
#592 = CARTESIAN_POINT ( 'NONE',  ( 154.9500000000185480, 28.49999999999482014, 8.000000000000000000 ) ) ;
#593 = UNCERTAINTY_MEASURE_WITH_UNIT (LENGTH_MEASURE( 1.000000000000000082E-05 ), #379, 'distance_accuracy_value', 'NONE');
#594 = DIRECTION ( 'NONE',  ( -0.000000000000000000, -0.000000000000000000, -1.000000000000000000 ) ) ;
#595 = VERTEX_POINT ( 'NONE', #244 ) ;
#596 = DIRECTION ( 'NONE',  ( 0.000000000000000000, 1.000000000000000000, 0.000000000000000000 ) ) ;
#597 = CARTESIAN_POINT ( 'NONE',  ( 160.0000000000000000, 90.00000000000000000, 12.00000000000000000 ) ) ;
#598 = ORIENTED_EDGE ( 'NONE', *, *, #166, .F. ) ;
#599 = PRODUCT_DEFINITION_SHAPE ( 'NONE', 'NONE',  #699 ) ;
#600 = CARTESIAN_POINT ( 'NONE',  ( 160.0000000000000000, 90.00000000000000000, 0.000000000000000000 ) ) ;
#601 = DIRECTION ( 'NONE',  ( 1.000000000000000000, 0.000000000000000000, 0.000000000000000000 ) ) ;
#602 = ORIENTED_EDGE ( 'NONE', *, *, #309, .F. ) ;
#603 = DIRECTION ( 'NONE',  ( -1.000000000000000000, 0.000000000000000000, 0.000000000000000000 ) ) ;
#604 = LINE ( 'NONE', #611, #558 ) ;
#605 = LINE ( 'NONE', #440, #690 ) ;
#606 = EDGE_CURVE ( 'NONE', #26, #496, #97, .T. ) ;
#607 = VECTOR ( 'NONE', #727, 1000.000000000000000 ) ;
#608 = LINE ( 'NONE', #102, #524 ) ;
#609 = EDGE_LOOP ( 'NONE', ( #733, #306, #180, #153 ) ) ;
#610 = EDGE_CURVE ( 'NONE', #316, #270, #410, .T. ) ;
#611 = CARTESIAN_POINT ( 'NONE',  ( 4.749999999999999112, 155.2500000000000000, 7.000000000000000000 ) ) ;
#612 = VERTEX_POINT ( 'NONE', #240 ) ;
#613 = EDGE_CURVE ( 'NONE', #468, #678, #304, .T. ) ;
#614 = DIRECTION ( 'NONE',  ( 1.000000000000000000, 0.000000000000000000, -0.000000000000000000 ) ) ;
#615 = ORIENTED_EDGE ( 'NONE', *, *, #498, .F. ) ;
#616 = VECTOR ( 'NONE', #299, 1000.000000000000000 ) ;
#617 = AXIS2_PLACEMENT_3D ( 'NONE', #537, #24, #256 ) ;
#618 = CARTESIAN_POINT ( 'NONE',  ( 151.5000000000185310, 28.49999999999482014, 8.000000000000000000 ) ) ;
#619 = CARTESIAN_POINT ( 'NONE',  ( 90.30000000000001137, 4.200000000000000178, 12.00000000000000000 ) ) ;
#620 = ORIENTED_EDGE ( 'NONE', *, *, #232, .F. ) ;
#621 = CARTESIAN_POINT ( 'NONE',  ( 25.25000000000000000, 155.2500000000000000, 7.000000000000000000 ) ) ;
#622 = LINE ( 'NONE', #236, #500 ) ;
#623 = ORIENTED_EDGE ( 'NONE', *, *, #62, .F. ) ;
#624 = CARTESIAN_POINT ( 'NONE',  ( 154.9500000000185480, 28.49999999999482014, 0.000000000000000000 ) ) ;
#625 = LINE ( 'NONE', #407, #668 ) ;
#626 = ORIENTED_EDGE ( 'NONE', *, *, #36, .T. ) ;
#627 = EDGE_CURVE ( 'NONE', #267, #479, #357, .T. ) ;
#628 = DIRECTION ( 'NONE',  ( 0.000000000000000000, 0.000000000000000000, -1.000000000000000000 ) ) ;
#629 = VECTOR ( 'NONE', #206, 1000.000000000000000 ) ;
#630 = DIRECTION ( 'NONE',  ( -0.000000000000000000, -0.000000000000000000, 1.000000000000000000 ) ) ;
#631 = ORIENTED_EDGE ( 'NONE', *, *, #181, .F. ) ;
#632 = EDGE_CURVE ( 'NONE', #468, #105, #17, .T. ) ;
#633 = FACE_OUTER_BOUND ( 'NONE', #536, .T. ) ;
#634 = CARTESIAN_POINT ( 'NONE',  ( 160.0000000000000000, 160.0000000000000000, 12.00000000000000000 ) ) ;
#635 = ORIENTED_EDGE ( 'NONE', *, *, #110, .T. ) ;
#636 = CARTESIAN_POINT ( 'NONE',  ( 25.25000000000000000, 155.2500000000000000, 7.000000000000000000 ) ) ;
#637 = EDGE_CURVE ( 'NONE', #215, #573, #141, .T. ) ;
#638 = PLANE ( 'NONE',  #389 ) ;
#639 = EDGE_LOOP ( 'NONE', ( #464, #237 ) ) ;
#640 = DIRECTION ( 'NONE',  ( -0.000000000000000000, -0.000000000000000000, -1.000000000000000000 ) ) ;
#641 = EDGE_CURVE ( 'NONE', #26, #475, #364, .T. ) ;
#642 = LINE ( 'NONE', #535, #21 ) ;
#643 = VECTOR ( 'NONE', #578, 1000.000000000000000 ) ;
#644 = VERTEX_POINT ( 'NONE', #581 ) ;
#645 = DIRECTION ( 'NONE',  ( 1.000000000000000000, 0.000000000000000000, 0.000000000000000000 ) ) ;
#646 = CARTESIAN_POINT ( 'NONE',  ( 149.5000000000186446, 28.49999999999487699, 12.00000000000000000 ) ) ;
#647 = CARTESIAN_POINT ( 'NONE',  ( 90.30000000000001137, 0.000000000000000000, 12.00000000000000000 ) ) ;
#648 = ORIENTED_EDGE ( 'NONE', *, *, #385, .F. ) ;
#649 = DIRECTION ( 'NONE',  ( 0.000000000000000000, -1.000000000000000000, 0.000000000000000000 ) ) ;
#650 = FACE_OUTER_BOUND ( 'NONE', #4, .T. ) ;
#651 = ORIENTED_EDGE ( 'NONE', *, *, #510, .F. ) ;
#652 = ADVANCED_FACE ( 'NONE', ( #307, #69, #298 ), #469, .T. ) ;
#653 = PLANE ( 'NONE',  #207 ) ;
#654 =( NAMED_UNIT ( * ) PLANE_ANGLE_UNIT ( ) SI_UNIT ( $, .RADIAN. ) );
#655 = VERTEX_POINT ( 'NONE', #183 ) ;
#656 = AXIS2_PLACEMENT_3D ( 'NONE', #621, #48, #504 ) ;
#657 = VECTOR ( 'NONE', #252, 1000.000000000000000 ) ;
#658 = FACE_OUTER_BOUND ( 'NONE', #374, .T. ) ;
#659 = DIRECTION ( 'NONE',  ( 0.000000000000000000, -1.000000000000000000, 0.000000000000000000 ) ) ;
#660 = ORIENTED_EDGE ( 'NONE', *, *, #291, .T. ) ;
#661 = DIRECTION ( 'NONE',  ( -1.000000000000000000, 0.000000000000000000, 0.000000000000000000 ) ) ;
#662 = DIRECTION ( 'NONE',  ( -1.000000000000000000, 0.000000000000000000, 0.000000000000000000 ) ) ;
#663 = EDGE_CURVE ( 'NONE', #285, #149, #266, .T. ) ;
#664 = VERTEX_POINT ( 'NONE', #318 ) ;
#665 = CARTESIAN_POINT ( 'NONE',  ( 151.5000000000185310, 28.49999999999482014, 8.000000000000000000 ) ) ;
#666 = CARTESIAN_POINT ( 'NONE',  ( 160.0000000000000000, 0.000000000000000000, 0.000000000000000000 ) ) ;
#667 = ORIENTED_EDGE ( 'NONE', *, *, #405, .F. ) ;
#668 = VECTOR ( 'NONE', #233, 1000.000000000000000 ) ;
#669 = PRESENTATION_LAYER_ASSIGNMENT (  '', '', ( #416 ) ) ;
#670 = CARTESIAN_POINT ( 'NONE',  ( 4.749999999999999112, 134.7499999999999716, 12.00000000000000000 ) ) ;
#671 = ORIENTED_EDGE ( 'NONE', *, *, #373, .F. ) ;
#672 = EDGE_CURVE ( 'NONE', #72, #612, #134, .T. ) ;
#673 = FACE_OUTER_BOUND ( 'NONE', #29, .T. ) ;
#674 = ORIENTED_EDGE ( 'NONE', *, *, #560, .T. ) ;
#675 = EDGE_CURVE ( 'NONE', #215, #422, #541, .T. ) ;
#676 = DIRECTION ( 'NONE',  ( 1.000000000000000000, -0.000000000000000000, 0.000000000000000000 ) ) ;
#677 = FACE_OUTER_BOUND ( 'NONE', #282, .T. ) ;
#678 = VERTEX_POINT ( 'NONE', #600 ) ;
#679 = VECTOR ( 'NONE', #393, 1000.000000000000000 ) ;
#680 = DIRECTION ( 'NONE',  ( 0.000000000000000000, 1.000000000000000000, 0.000000000000000000 ) ) ;
#681 = DIRECTION ( 'NONE',  ( 0.000000000000000000, -1.000000000000000000, 0.000000000000000000 ) ) ;
#682 = ORIENTED_EDGE ( 'NONE', *, *, #606, .F. ) ;
#683 = DIRECTION ( 'NONE',  ( 0.000000000000000000, 0.000000000000000000, -1.000000000000000000 ) ) ;
#684 = EDGE_CURVE ( 'NONE', #350, #92, #438, .T. ) ;
#685 = FACE_OUTER_BOUND ( 'NONE', #460, .T. ) ;
#686 = ORIENTED_EDGE ( 'NONE', *, *, #663, .T. ) ;
#687 = FACE_OUTER_BOUND ( 'NONE', #296, .T. ) ;
#688 = DIRECTION ( 'NONE',  ( 0.000000000000000000, 0.000000000000000000, -1.000000000000000000 ) ) ;
#689 = ORIENTED_EDGE ( 'NONE', *, *, #459, .F. ) ;
#690 = VECTOR ( 'NONE', #158, 1000.000000000000000 ) ;
#691 = VECTOR ( 'NONE', #121, 1000.000000000000000 ) ;
#692 = LINE ( 'NONE', #351, #418 ) ;
#693 = AXIS2_PLACEMENT_3D ( 'NONE', #618, #386, #514 ) ;
#694 = CARTESIAN_POINT ( 'NONE',  ( 160.0000000000000000, 70.00000000000000000, 12.00000000000000000 ) ) ;
#695 = ORIENTED_EDGE ( 'NONE', *, *, #10, .T. ) ;
#696 = ADVANCED_FACE ( 'NONE', ( #549 ), #431, .F. ) ;
#697 = CARTESIAN_POINT ( 'NONE',  ( 69.70000000000000284, 4.200000000000000178, 12.00000000000000000 ) ) ;
#698 = ORIENTED_EDGE ( 'NONE', *, *, #591, .T. ) ;
#699 = PRODUCT_DEFINITION ( 'General', '', #448, #125 ) ;
#700 = CARTESIAN_POINT ( 'NONE',  ( 69.70000000000000284, 0.000000000000000000, 0.000000000000000000 ) ) ;
#701 = DIRECTION ( 'NONE',  ( 0.000000000000000000, 1.000000000000000000, 0.000000000000000000 ) ) ;
#702 = ORIENTED_EDGE ( 'NONE', *, *, #232, .T. ) ;
#703 = LINE ( 'NONE', #193, #6 ) ;
#704 = CARTESIAN_POINT ( 'NONE',  ( 0.000000000000000000, 0.000000000000000000, 0.000000000000000000 ) ) ;
#705 = VECTOR ( 'NONE', #659, 1000.000000000000000 ) ;
#706 = APPLICATION_CONTEXT ( 'automotive_design' ) ;
#707 = VERTEX_POINT ( 'NONE', #90 ) ;
#708 = CARTESIAN_POINT ( 'NONE',  ( 164.0000000000000000, 70.00000000000000000, 12.00000000000000000 ) ) ;
#709 = DIRECTION ( 'NONE',  ( -1.000000000000000000, 0.000000000000000000, -0.000000000000000000 ) ) ;
#710 = ADVANCED_FACE ( 'NONE', ( #658 ), #314, .F. ) ;
#711 = ORIENTED_EDGE ( 'NONE', *, *, #459, .T. ) ;
#712 = SURFACE_STYLE_FILL_AREA ( #78 ) ;
#713 = ORIENTED_EDGE ( 'NONE', *, *, #426, .T. ) ;
#714 = PRODUCT_RELATED_PRODUCT_CATEGORY ( 'part', '', ( #493 ) ) ;
#715 = DIRECTION ( 'NONE',  ( -1.000000000000000000, 0.000000000000000000, 0.000000000000000000 ) ) ;
#716 = CARTESIAN_POINT ( 'NONE',  ( 160.0000000000000000, 90.00000000000000000, 0.000000000000000000 ) ) ;
#717 = AXIS2_PLACEMENT_3D ( 'NONE', #349, #505, #735 ) ;
#718 = ORIENTED_EDGE ( 'NONE', *, *, #591, .F. ) ;
#719 = VECTOR ( 'NONE', #202, 1000.000000000000000 ) ;
#720 = AXIS2_PLACEMENT_3D ( 'NONE', #665, #544, #259 ) ;
#721 = EDGE_CURVE ( 'NONE', #316, #655, #93, .T. ) ;
#722 = CARTESIAN_POINT ( 'NONE',  ( 160.0000000000000000, 0.000000000000000000, 12.00000000000000000 ) ) ;
#723 = CARTESIAN_POINT ( 'NONE',  ( 0.000000000000000000, 0.000000000000000000, 0.000000000000000000 ) ) ;
#724 = EDGE_LOOP ( 'NONE', ( #698, #564, #130, #169 ) ) ;
#725 = DIRECTION ( 'NONE',  ( 0.000000000000000000, 1.000000000000000000, 0.000000000000000000 ) ) ;
#726 = EDGE_CURVE ( 'NONE', #13, #89, #263, .T. ) ;
#727 = DIRECTION ( 'NONE',  ( 1.000000000000000000, 0.000000000000000000, 0.000000000000000000 ) ) ;
#728 = EDGE_LOOP ( 'NONE', ( #203, #156, #561, #96, #261, #713, #177, #272, #695, #471, #335, #747 ) ) ;
#729 = CARTESIAN_POINT ( 'NONE',  ( 0.000000000000000000, 90.30000000000001137, 0.000000000000000000 ) ) ;
#730 = ADVANCED_FACE ( 'NONE', ( #209 ), #653, .F. ) ;
#731 = ORIENTED_EDGE ( 'NONE', *, *, #552, .T. ) ;
#732 = DIRECTION ( 'NONE',  ( 1.000000000000000000, 0.000000000000000000, 0.000000000000000000 ) ) ;
#733 = ORIENTED_EDGE ( 'NONE', *, *, #627, .T. ) ;
#734 = FACE_OUTER_BOUND ( 'NONE', #639, .T. ) ;
#735 = DIRECTION ( 'NONE',  ( 1.000000000000000000, 0.000000000000000000, 0.000000000000000000 ) ) ;
#736 = DIRECTION ( 'NONE',  ( 0.000000000000000000, 1.000000000000000000, 0.000000000000000000 ) ) ;
#737 = LINE ( 'NONE', #458, #106 ) ;
#738 = EDGE_LOOP ( 'NONE', ( #503, #9, #103, #626 ) ) ;
#739 = COLOUR_RGB ( '',0.7921568627450980005, 0.8196078431372548767, 0.9333333333333333481 ) ;
#740 = VECTOR ( 'NONE', #197, 1000.000000000000000 ) ;
#741 = EDGE_CURVE ( 'NONE', #496, #26, #171, .T. ) ;
#742 = LINE ( 'NONE', #228, #46 ) ;
#743 = DIRECTION ( 'NONE',  ( 0.000000000000000000, -0.000000000000000000, -1.000000000000000000 ) ) ;
#744 = ORIENTED_EDGE ( 'NONE', *, *, #110, .F. ) ;
#745 = DIRECTION ( 'NONE',  ( -0.000000000000000000, 0.000000000000000000, -1.000000000000000000 ) ) ;
#746 = CARTESIAN_POINT ( 'NONE',  ( 164.0000000000000000, 90.00000000000000000, 12.00000000000000000 ) ) ;
#747 = ORIENTED_EDGE ( 'NONE', *, *, #409, .T. ) ;
ENDSEC;
END-ISO-10303-21;
