ISO-10303-21;
HEADER;
FILE_DESCRIPTION (( 'STEP AP214' ),
    '1' );
FILE_NAME ('CNC_Cage_Assembly.STEP',
    '2026-08-12T22:35:38',
    ( '' ),
    ( '' ),
    'SwSTEP 2.0',
    'SolidWorks 2026',
    '' );
FILE_SCHEMA (( 'AUTOMOTIVE_DESIGN' ));
ENDSEC;

DATA;
#1 = ITEM_DEFINED_TRANSFORMATION ( 'NONE', 'NONE', #185,  #618 ) ;
#2 = CARTESIAN_POINT ( 'NONE',  ( 42.76787082968161258, -148.8466981425566757, 436.5510858518042028 ) ) ;
#3 =( GEOMETRIC_REPRESENTATION_CONTEXT ( 3 ) GLOBAL_UNCERTAINTY_ASSIGNED_CONTEXT ( ( #243 ) ) GLOBAL_UNIT_ASSIGNED_CONTEXT ( ( #481, #589, #359 ) ) REPRESENTATION_CONTEXT ( 'NONE', 'WORKASPACE' ) );
#4 = DOCUMENT_TYPE ( 'geometry' ) ;
#5 = ROLE_ASSOCIATION ( #432, #62 ) ;
#6 = APPLICATION_CONTEXT ( 'automotive_design' ) ;
#7 =( LENGTH_UNIT ( ) NAMED_UNIT ( * ) SI_UNIT ( .MILLI., .METRE. ) );
#8 = PROPERTY_DEFINITION_REPRESENTATION ( #373, #650 ) ;
#9 = PROPERTY_DEFINITION ('document property','', #562 ) ;
#10 = PRODUCT_CONTEXT ( 'NONE', #624, 'mechanical' ) ;
#11 = PRODUCT_RELATED_PRODUCT_CATEGORY ( 'part', '', ( #246 ) ) ;
#12 = PRODUCT_RELATED_PRODUCT_CATEGORY ( 'part', '', ( #147 ) ) ;
#13 = PROPERTY_DEFINITION_REPRESENTATION ( #289, #61 ) ;
#14 = DIRECTION ( 'NONE',  ( 1.000000000000000000, 0.000000000000000000, -6.938893903907226837E-18 ) ) ;
#15 = PRODUCT_DEFINITION_FORMATION_WITH_SPECIFIED_SOURCE ( 'Symmetric', '', #88, .NOT_KNOWN. ) ;
#16 = PRODUCT_DEFINITION_SHAPE ( 'NONE', 'NONE',  #684 ) ;
#17 = DIRECTION ( 'NONE',  ( 0.000000000000000000, 1.000000000000000000, 1.061477294950208261E-14 ) ) ;
#18 = PROPERTY_DEFINITION ('external definition','', #506 ) ;
#19 = CARTESIAN_POINT ( 'NONE',  ( 336.3454570365781251, 111.1533018574440632, 363.9260858518073292 ) ) ;
#20 = DIRECTION ( 'NONE',  ( 1.000000000000000000, 0.000000000000000000, 0.000000000000000000 ) ) ;
#21 = CARTESIAN_POINT ( 'NONE',  ( 115.1428708296807457, 111.1533018574491507, 433.4734996449093956 ) ) ;
#22 = PRODUCT ( 'CNC_Cage_Post_Lower', 'CNC_Cage_Post_Lower', '', ( #501 ) ) ;
#23 = DIRECTION ( 'NONE',  ( 1.000000000000000000, 0.000000000000000000, 0.000000000000000000 ) ) ;
#24 = SHAPE_DEFINITION_REPRESENTATION ( #69, #650 ) ;
#25 =( GEOMETRIC_REPRESENTATION_CONTEXT ( 3 ) GLOBAL_UNCERTAINTY_ASSIGNED_CONTEXT ( ( #407 ) ) GLOBAL_UNIT_ASSIGNED_CONTEXT ( ( #118, #413, #238 ) ) REPRESENTATION_CONTEXT ( 'NONE', 'WORKASPACE' ) );
#26 = PRODUCT_DEFINITION_FORMATION_WITH_SPECIFIED_SOURCE ( 'Symmetric', '', #39, .NOT_KNOWN. ) ;
#27 = ROLE_ASSOCIATION ( #458, #563 ) ;
#28 = PRODUCT_DEFINITION_SHAPE ( 'NONE', 'NONE',  #667 ) ;
#29 = PRODUCT_DEFINITION_CONTEXT ( 'detailed design', #384, 'design' ) ;
#30 = ROLE_ASSOCIATION ( #258, #139 ) ;
#31 = CONTEXT_DEPENDENT_SHAPE_REPRESENTATION ( #491, #28 ) ;
#32 = SHAPE_REPRESENTATION ( 'CNC_Cage_Assembly', ( #301, #349, #480, #174, #415, #659, #66, #185, #572, #290, #325, #111, #36, #212, #44, #460, #449, #54, #429, #505, #149 ), #536 ) ;
#33 =( NAMED_UNIT ( * ) SI_UNIT ( $, .STERADIAN. ) SOLID_ANGLE_UNIT ( ) );
#34 = PRODUCT_DEFINITION_SHAPE ( 'NONE', 'NONE',  #676 ) ;
#35 = SHAPE_DEFINITION_REPRESENTATION ( #494, #609 ) ;
#36 = AXIS2_PLACEMENT_3D ( 'NONE', #338, #537, #385 ) ;
#37 = CARTESIAN_POINT ( 'NONE',  ( 0.000000000000000000, 0.000000000000000000, 0.000000000000000000 ) ) ;
#38 = APPLICATION_CONTEXT ( 'automotive_design' ) ;
#39 = PRODUCT ( 'CNC_Cage_Assembly', 'CNC_Cage_Assembly', '', ( #157 ) ) ;
#40 =( LENGTH_UNIT ( ) NAMED_UNIT ( * ) SI_UNIT ( .MILLI., .METRE. ) );
#41 = ROLE_ASSOCIATION ( #365, #629 ) ;
#42 = DIRECTION ( 'NONE',  ( 1.000000000000000000, 0.000000000000000000, 0.000000000000000000 ) ) ;
#43 = PRODUCT_RELATED_PRODUCT_CATEGORY ( 'part', '', ( #22 ) ) ;
#44 = AXIS2_PLACEMENT_3D ( 'NONE', #19, #241, #374 ) ;
#45 =( LENGTH_UNIT ( ) NAMED_UNIT ( * ) SI_UNIT ( .MILLI., .METRE. ) );
#46 = ROLE_ASSOCIATION ( #530, #529 ) ;
#47 = DIRECTION ( 'NONE',  ( 0.000000000000000000, 1.000000000000000000, 1.061477294950208261E-14 ) ) ;
#48 = PROPERTY_DEFINITION_REPRESENTATION ( #538, #609 ) ;
#49 = APPLICATION_CONTEXT ( 'automotive_design' ) ;
#50 = DIRECTION ( 'NONE',  ( 1.000000000000000000, 0.000000000000000000, 0.000000000000000000 ) ) ;
#51 = PROPERTY_DEFINITION_REPRESENTATION ( #420, #650 ) ;
#52 = APPLIED_EXTERNAL_IDENTIFICATION_ASSIGNMENT ( 'CNC_Cage_TopRail_Male.STEP' , #223, #144,( #544) ) ;
#53 = PRODUCT_DEFINITION_SHAPE ( 'NONE', 'NONE',  #683 ) ;
#54 = AXIS2_PLACEMENT_3D ( 'NONE', #287, #67, #331 ) ;
#55 = APPLIED_EXTERNAL_IDENTIFICATION_ASSIGNMENT ( 'CNC_Cage_Post_Lower.STEP' , #527, #124,( #153) ) ;
#56 = DOCUMENT_FILE ( 'CNC_Cage_Post_Lower.STEP' , '', '', #498, '' ,$ ) ;
#57 = CARTESIAN_POINT ( 'NONE',  ( 42.76787082968161968, 111.1533018574454701, 234.2510858518071757 ) ) ;
#58 = APPLICATION_CONTEXT ( 'automotive_design' ) ;
#59 = DOCUMENT_FILE ( 'CNC_Cage_Post_Upper_UR.STEP' , '', '', #484, '' ,$ ) ;
#60 = CARTESIAN_POINT ( 'NONE',  ( 0.000000000000000000, 0.000000000000000000, 0.000000000000000000 ) ) ;
#61 = SHAPE_REPRESENTATION ( 'CNC_Cage_TopRail_Female', ( #490 ), #645 ) ;
#62 = APPLIED_DOCUMENT_REFERENCE ( #544,'',( #575) ) ;
#63 = DIRECTION ( 'NONE',  ( -1.000000000000000000, 0.000000000000000000, 1.951910855169103343E-14 ) ) ;
#64 = DIRECTION ( 'NONE',  ( 1.000000000000000000, 0.000000000000000000, 0.000000000000000000 ) ) ;
#65 = APPLIED_DOCUMENT_REFERENCE ( #279,'',( #575) ) ;
#66 = AXIS2_PLACEMENT_3D ( 'NONE', #107, #364, #430 ) ;
#67 = DIRECTION ( 'NONE',  ( -1.061477294950205737E-14, 1.000000000000000000, 5.559004191479317566E-30 ) ) ;
#68 = IDENTIFICATION_ROLE ( 'external document id and location', $) ;
#69 = PRODUCT_DEFINITION_SHAPE ( 'NONE', 'NONE',  #575 ) ;
#70 = CARTESIAN_POINT ( 'NONE',  ( 333.2678708296815557, -148.8466981425536346, 146.3010858518046291 ) ) ;
#71 =( LENGTH_UNIT ( ) NAMED_UNIT ( * ) SI_UNIT ( .MILLI., .METRE. ) );
#72 = ROLE_ASSOCIATION ( #298, #520 ) ;
#73 = PRODUCT_DEFINITION_CONTEXT ( 'detailed design', #288, 'design' ) ;
#74 = PRODUCT_DEFINITION_SHAPE ( 'NONE', 'NONE',  #674 ) ;
#75 = UNCERTAINTY_MEASURE_WITH_UNIT (LENGTH_MEASURE( 1.000000000000000082E-05 ), #7, 'distance_accuracy_value', 'NONE');
#76 = ITEM_DEFINED_TRANSFORMATION ( 'NONE', 'NONE', #505,  #490 ) ;
#77 = EXTERNAL_SOURCE (IDENTIFIER('') ) ;
#78 = PROPERTY_DEFINITION_REPRESENTATION ( #137, #161 ) ;
#79 = PRODUCT_DEFINITION_FORMATION_WITH_SPECIFIED_SOURCE ( 'Symmetric', '', #579, .NOT_KNOWN. ) ;
#80 =( REPRESENTATION_RELATIONSHIP ('NONE','NONE', #32, #511 ) REPRESENTATION_RELATIONSHIP_WITH_TRANSFORMATION ( #637 )SHAPE_REPRESENTATION_RELATIONSHIP( ) );
#81 = DOCUMENT_FILE ( 'CNC_Cage_TopRail_Female.STEP' , '', '', #318, '' ,$ ) ;
#82 = PRODUCT_CONTEXT ( 'NONE', #425, 'mechanical' ) ;
#83 = PROPERTY_DEFINITION ('document property','', #219 ) ;
#84 = PROPERTY_DEFINITION_REPRESENTATION ( #587, #61 ) ;
#85 = APPLICATION_PROTOCOL_DEFINITION ( 'draft international standard', 'automotive_design', 1998, #218 ) ;
#86 = APPLICATION_CONTEXT ( 'automotive_design' ) ;
#87 = APPLIED_EXTERNAL_IDENTIFICATION_ASSIGNMENT ( 'CNC_Cage_TopRail_Male.STEP' , #363, #463,( #596) ) ;
#88 = PRODUCT ( 'CNC_Cage_Post_Upper_UL', 'CNC_Cage_Post_Upper_UL', '', ( #248 ) ) ;
#89 = SHAPE_DEFINITION_REPRESENTATION ( #94, #564 ) ;
#90 = AXIS2_PLACEMENT_3D ( 'NONE', #499, #472, #269 ) ;
#91 = PRODUCT_DEFINITION_FORMATION_WITH_SPECIFIED_SOURCE ( 'Symmetric', '', #246, .NOT_KNOWN. ) ;
#92 = APPLIED_DOCUMENT_REFERENCE ( #216,'',( #175) ) ;
#93 = APPLICATION_PROTOCOL_DEFINITION ( 'draft international standard', 'automotive_design', 1998, #517 ) ;
#94 = PRODUCT_DEFINITION_SHAPE ( 'NONE', 'NONE',  #215 ) ;
#95 = PROPERTY_DEFINITION_REPRESENTATION ( #409, #564 ) ;
#96 = DIRECTION ( 'NONE',  ( 0.000000000000000000, 0.000000000000000000, 1.000000000000000000 ) ) ;
#97 = DIRECTION ( 'NONE',  ( 1.000000000000000000, 0.000000000000000000, 0.000000000000000000 ) ) ;
#98 = APPLIED_EXTERNAL_IDENTIFICATION_ASSIGNMENT ( 'CNC_Cage_TopRail_Male.STEP' , #608, #379,( #279) ) ;
#99 = ITEM_DEFINED_TRANSFORMATION ( 'NONE', 'NONE', #415,  #335 ) ;
#100 = PROPERTY_DEFINITION ('document property','', #182 ) ;
#101 = DIRECTION ( 'NONE',  ( 0.000000000000000000, 1.000000000000000000, 1.061477294950208261E-14 ) ) ;
#102 = ROLE_ASSOCIATION ( #378, #262 ) ;
#103 = PRODUCT_DEFINITION_SHAPE ( 'NONE', 'NONE',  #681 ) ;
#104 = IDENTIFICATION_ROLE ( 'external document id and location', $) ;
#105 = UNCERTAINTY_MEASURE_WITH_UNIT (LENGTH_MEASURE( 1.000000000000000082E-05 ), #518, 'distance_accuracy_value', 'NONE');
#106 = PROPERTY_DEFINITION_REPRESENTATION ( #507, #653 ) ;
#107 = CARTESIAN_POINT ( 'NONE',  ( 42.76787082968199627, -8.846698142547408494, 436.5510858518060218 ) ) ;
#108 = PROPERTY_DEFINITION_REPRESENTATION ( #167, #650 ) ;
#109 = APPLIED_EXTERNAL_IDENTIFICATION_ASSIGNMENT ( 'CNC_Cage_TopRail_Female.STEP' , #68, #504,( #398) ) ;
#110 = DIRECTION ( 'NONE',  ( 0.000000000000000000, 0.000000000000000000, 1.000000000000000000 ) ) ;
#111 = AXIS2_PLACEMENT_3D ( 'NONE', #70, #170, #548 ) ;
#112 = PRODUCT_DEFINITION_FORMATION_WITH_SPECIFIED_SOURCE ( 'Symmetric', '', #22, .NOT_KNOWN. ) ;
#113 = PROPERTY_DEFINITION_REPRESENTATION ( #142, #653 ) ;
#114 = IDENTIFICATION_ROLE ( 'external document id and location', $) ;
#115 = DIRECTION ( 'NONE',  ( 0.000000000000000000, -1.061477294950208261E-14, 1.000000000000000000 ) ) ;
#116 =( NAMED_UNIT ( * ) PLANE_ANGLE_UNIT ( ) SI_UNIT ( $, .RADIAN. ) );
#117 = DIRECTION ( 'NONE',  ( 1.000000000000000000, 0.000000000000000000, 0.000000000000000000 ) ) ;
#118 =( LENGTH_UNIT ( ) NAMED_UNIT ( * ) SI_UNIT ( .MILLI., .METRE. ) );
#119 = IDENTIFICATION_ROLE ( 'external document id and location', $) ;
#120 = ITEM_DEFINED_TRANSFORMATION ( 'NONE', 'NONE', #212,  #90 ) ;
#121 = DIRECTION ( 'NONE',  ( -1.000000000000000000, 0.000000000000000000, 6.938893903907226837E-18 ) ) ;
#122 = DOCUMENT_TYPE ( 'geometry' ) ;
#123 = PROPERTY_DEFINITION_REPRESENTATION ( #606, #650 ) ;
#124 = EXTERNAL_SOURCE (IDENTIFIER('') ) ;
#125 = DIRECTION ( 'NONE',  ( 0.000000000000000000, 1.000000000000000000, 1.061477294950208261E-14 ) ) ;
#126 = PRODUCT_DEFINITION_CONTEXT ( 'detailed design', #86, 'design' ) ;
#127 =( NAMED_UNIT ( * ) PLANE_ANGLE_UNIT ( ) SI_UNIT ( $, .RADIAN. ) );
#128 = UNCERTAINTY_MEASURE_WITH_UNIT (LENGTH_MEASURE( 1.000000000000000082E-05 ), #615, 'distance_accuracy_value', 'NONE');
#129 = PROPERTY_DEFINITION ('document property','', #216 ) ;
#130 = PRODUCT_CONTEXT ( 'NONE', #355, 'mechanical' ) ;
#131 = OBJECT_ROLE ('mandatory',$ ) ;
#132 =( NAMED_UNIT ( * ) SI_UNIT ( $, .STERADIAN. ) SOLID_ANGLE_UNIT ( ) );
#133 = PRODUCT_DEFINITION ( 'General', '', #278, #611 ) ;
#134 = APPLICATION_PROTOCOL_DEFINITION ( 'draft international standard', 'automotive_design', 1998, #317 ) ;
#135 = EXTERNAL_SOURCE (IDENTIFIER('') ) ;
#136 = PRODUCT_DEFINITION_CONTEXT ( 'detailed design', #282, 'design' ) ;
#137 = PROPERTY_DEFINITION ('external definition','', #456 ) ;
#138 = IDENTIFICATION_ROLE ( 'external document id and location', $) ;
#139 = APPLIED_DOCUMENT_REFERENCE ( #81,'',( #397) ) ;
#140 = APPLICATION_CONTEXT ( 'automotive_design' ) ;
#141 = PRODUCT_CONTEXT ( 'NONE', #49, 'mechanical' ) ;
#142 = PROPERTY_DEFINITION ('external definition','', #56 ) ;
#143 = CARTESIAN_POINT ( 'NONE',  ( 0.000000000000000000, 0.000000000000000000, 0.000000000000000000 ) ) ;
#144 = EXTERNAL_SOURCE (IDENTIFIER('') ) ;
#145 = APPLICATION_PROTOCOL_DEFINITION ( 'draft international standard', 'automotive_design', 1998, #567 ) ;
#146 = CARTESIAN_POINT ( 'NONE',  ( 0.000000000000000000, 0.000000000000000000, 0.000000000000000000 ) ) ;
#147 = PRODUCT ( 'CNC_Cage_Base_LL', 'CNC_Cage_Base_LL', '', ( #130 ) ) ;
#148 = PROPERTY_DEFINITION_REPRESENTATION ( #249, #255 ) ;
#149 = AXIS2_PLACEMENT_3D ( 'NONE', #21, #443, #334 ) ;
#150 = APPLIED_EXTERNAL_IDENTIFICATION_ASSIGNMENT ( 'CNC_Cage_Post_Upper_LR.STEP' , #566, #591,( #155) ) ;
#151 = DIRECTION ( 'NONE',  ( 0.000000000000000000, 0.000000000000000000, 1.000000000000000000 ) ) ;
#152 = PRODUCT_RELATED_PRODUCT_CATEGORY ( 'part', '', ( #579 ) ) ;
#153 = DOCUMENT_FILE ( 'CNC_Cage_Post_Lower.STEP' , '', '', #171, '' ,$ ) ;
#154 = CARTESIAN_POINT ( 'NONE',  ( 0.000000000000000000, 0.000000000000000000, 0.000000000000000000 ) ) ;
#155 = DOCUMENT_FILE ( 'CNC_Cage_Post_Upper_LR.STEP' , '', '', #122, '' ,$ ) ;
#156 = PRODUCT_RELATED_PRODUCT_CATEGORY ( 'part', '', ( #304 ) ) ;
#157 = PRODUCT_CONTEXT ( 'NONE', #517, 'mechanical' ) ;
#158 =( REPRESENTATION_RELATIONSHIP ('NONE','NONE', #32, #61 ) REPRESENTATION_RELATIONSHIP_WITH_TRANSFORMATION ( #605 )SHAPE_REPRESENTATION_RELATIONSHIP( ) );
#159 = ROLE_ASSOCIATION ( #550, #664 ) ;
#160 = PROPERTY_DEFINITION ('external definition','', #596 ) ;
#161 = SHAPE_REPRESENTATION ( 'CNC_Cage_Base_LL', ( #164 ), #657 ) ;
#162 = EXTERNAL_SOURCE (IDENTIFIER('') ) ;
#163 = DIRECTION ( 'NONE',  ( 0.000000000000000000, 1.000000000000000000, 1.061477294950208261E-14 ) ) ;
#164 = AXIS2_PLACEMENT_3D ( 'NONE', #528, #151, #588 ) ;
#165 =( GEOMETRIC_REPRESENTATION_CONTEXT ( 3 ) GLOBAL_UNCERTAINTY_ASSIGNED_CONTEXT ( ( #128 ) ) GLOBAL_UNIT_ASSIGNED_CONTEXT ( ( #615, #191, #132 ) ) REPRESENTATION_CONTEXT ( 'NONE', 'WORKASPACE' ) );
#166 = PROPERTY_DEFINITION_REPRESENTATION ( #83, #653 ) ;
#167 = PROPERTY_DEFINITION ('document property','', #544 ) ;
#168 = SHAPE_DEFINITION_REPRESENTATION ( #209, #32 ) ;
#169 = ROLE_ASSOCIATION ( #524, #641 ) ;
#170 = DIRECTION ( 'NONE',  ( 0.000000000000000000, 1.000000000000000000, 1.061477294950208261E-14 ) ) ;
#171 = DOCUMENT_TYPE ( 'geometry' ) ;
#172 = IDENTIFICATION_ROLE ( 'external document id and location', $) ;
#173 =( GEOMETRIC_REPRESENTATION_CONTEXT ( 3 ) GLOBAL_UNCERTAINTY_ASSIGNED_CONTEXT ( ( #105 ) ) GLOBAL_UNIT_ASSIGNED_CONTEXT ( ( #518, #377, #285 ) ) REPRESENTATION_CONTEXT ( 'NONE', 'WORKASPACE' ) );
#174 = AXIS2_PLACEMENT_3D ( 'NONE', #211, #586, #42 ) ;
#175 = PRODUCT_DEFINITION ( 'General', '', #112, #29 ) ;
#176 = APPLIED_DOCUMENT_REFERENCE ( #275,'',( #397) ) ;
#177 =( REPRESENTATION_RELATIONSHIP ('NONE','NONE', #32, #653 ) REPRESENTATION_RELATIONSHIP_WITH_TRANSFORMATION ( #632 )SHAPE_REPRESENTATION_RELATIONSHIP( ) );
#178 =( LENGTH_UNIT ( ) NAMED_UNIT ( * ) SI_UNIT ( .MILLI., .METRE. ) );
#179 = IDENTIFICATION_ROLE ( 'external document id and location', $) ;
#180 = APPLIED_DOCUMENT_REFERENCE ( #56,'',( #175) ) ;
#181 = CARTESIAN_POINT ( 'NONE',  ( 115.6428708296815842, 111.1533018574463370, 149.3786720587039270 ) ) ;
#182 = DOCUMENT_FILE ( 'CNC_Cage_TopRail_Male.STEP' , '', '', #519, '' ,$ ) ;
#183 = PRODUCT_DEFINITION_SHAPE ( 'NONE', 'NONE',  #670 ) ;
#184 = OBJECT_ROLE ('mandatory',$ ) ;
#185 = AXIS2_PLACEMENT_3D ( 'NONE', #417, #628, #643 ) ;
#186 = PROPERTY_DEFINITION_REPRESENTATION ( #320, #61 ) ;
#187 = APPLIED_EXTERNAL_IDENTIFICATION_ASSIGNMENT ( 'CNC_Cage_Base_LL.STEP' , #172, #135,( #456) ) ;
#188 = PRODUCT_CONTEXT ( 'NONE', #6, 'mechanical' ) ;
#189 = DOCUMENT_TYPE ( 'geometry' ) ;
#190 = PRODUCT_DEFINITION_CONTEXT ( 'detailed design', #310, 'design' ) ;
#191 =( NAMED_UNIT ( * ) PLANE_ANGLE_UNIT ( ) SI_UNIT ( $, .RADIAN. ) );
#192 = PROPERTY_DEFINITION ('external definition','', #155 ) ;
#193 = APPLICATION_PROTOCOL_DEFINITION ( 'draft international standard', 'automotive_design', 1998, #592 ) ;
#194 = DOCUMENT_TYPE ( 'geometry' ) ;
#195 = APPLICATION_PROTOCOL_DEFINITION ( 'draft international standard', 'automotive_design', 1998, #49 ) ;
#196 = PROPERTY_DEFINITION_REPRESENTATION ( #565, #653 ) ;
#197 = PRODUCT_DEFINITION_SHAPE ( 'NONE', 'NONE',  #669 ) ;
#198 = EXTERNAL_SOURCE (IDENTIFIER('') ) ;
#199 = ROLE_ASSOCIATION ( #642, #526 ) ;
#200 =( GEOMETRIC_REPRESENTATION_CONTEXT ( 3 ) GLOBAL_UNCERTAINTY_ASSIGNED_CONTEXT ( ( #297 ) ) GLOBAL_UNIT_ASSIGNED_CONTEXT ( ( #531, #222, #266 ) ) REPRESENTATION_CONTEXT ( 'NONE', 'WORKASPACE' ) );
#201 = IDENTIFICATION_ROLE ( 'external document id and location', $) ;
#202 = OBJECT_ROLE ('mandatory',$ ) ;
#203 = CONTEXT_DEPENDENT_SHAPE_REPRESENTATION ( #467, #16 ) ;
#204 = IDENTIFICATION_ROLE ( 'external document id and location', $) ;
#205 = PRODUCT_CONTEXT ( 'NONE', #567, 'mechanical' ) ;
#206 = DIRECTION ( 'NONE',  ( 1.000000000000000000, 0.000000000000000000, 0.000000000000000000 ) ) ;
#207 = CONTEXT_DEPENDENT_SHAPE_REPRESENTATION ( #406, #183 ) ;
#208 = APPLIED_EXTERNAL_IDENTIFICATION_ASSIGNMENT ( 'CNC_Cage_Post_Upper_UR.STEP' , #465, #392,( #59) ) ;
#209 = PRODUCT_DEFINITION_SHAPE ( 'NONE', 'NONE',  #476 ) ;
#210 = ITEM_DEFINED_TRANSFORMATION ( 'NONE', 'NONE', #325,  #311 ) ;
#211 = CARTESIAN_POINT ( 'NONE',  ( 28.01787082968160902, -160.8466981425551126, 291.7510858518043051 ) ) ;
#212 = AXIS2_PLACEMENT_3D ( 'NONE', #389, #125, #489 ) ;
#213 = APPLICATION_CONTEXT ( 'automotive_design' ) ;
#214 = IDENTIFICATION_ROLE ( 'external document id and location', $) ;
#215 = PRODUCT_DEFINITION ( 'General', '', #326, #412 ) ;
#216 = DOCUMENT_FILE ( 'CNC_Cage_Post_Lower.STEP' , '', '', #194, '' ,$ ) ;
#217 =( NAMED_UNIT ( * ) PLANE_ANGLE_UNIT ( ) SI_UNIT ( $, .RADIAN. ) );
#218 = APPLICATION_CONTEXT ( 'automotive_design' ) ;
#219 = DOCUMENT_FILE ( 'CNC_Cage_Post_Lower.STEP' , '', '', #357, '' ,$ ) ;
#220 = CARTESIAN_POINT ( 'NONE',  ( 188.0178708296816126, -160.8466981425568747, 451.5510858518044870 ) ) ;
#221 = CONTEXT_DEPENDENT_SHAPE_REPRESENTATION ( #630, #339 ) ;
#222 =( NAMED_UNIT ( * ) PLANE_ANGLE_UNIT ( ) SI_UNIT ( $, .RADIAN. ) );
#223 = IDENTIFICATION_ROLE ( 'external document id and location', $) ;
#224 = EXTERNAL_SOURCE (IDENTIFIER('') ) ;
#225 = PRODUCT_DEFINITION_FORMATION_WITH_SPECIFIED_SOURCE ( 'Symmetric', '', #603, .NOT_KNOWN. ) ;
#226 = PROPERTY_DEFINITION ('external definition','', #398 ) ;
#227 = ITEM_DEFINED_TRANSFORMATION ( 'NONE', 'NONE', #429,  #490 ) ;
#228 = DIRECTION ( 'NONE',  ( 0.000000000000000000, 1.000000000000000000, 1.061477294950208261E-14 ) ) ;
#229 = PRODUCT_RELATED_PRODUCT_CATEGORY ( 'part', '', ( #88 ) ) ;
#230 = OBJECT_ROLE ('mandatory',$ ) ;
#231 = PROPERTY_DEFINITION_REPRESENTATION ( #329, #61 ) ;
#232 = APPLIED_EXTERNAL_IDENTIFICATION_ASSIGNMENT ( 'CNC_Cage_Post_Lower.STEP' , #114, #77,( #216) ) ;
#233 = APPLICATION_PROTOCOL_DEFINITION ( 'draft international standard', 'automotive_design', 1998, #310 ) ;
#234 =( GEOMETRIC_REPRESENTATION_CONTEXT ( 3 ) GLOBAL_UNCERTAINTY_ASSIGNED_CONTEXT ( ( #451 ) ) GLOBAL_UNIT_ASSIGNED_CONTEXT ( ( #655, #343, #492 ) ) REPRESENTATION_CONTEXT ( 'NONE', 'WORKASPACE' ) );
#235 = APPLIED_DOCUMENT_REFERENCE ( #182,'',( #575) ) ;
#236 = DIRECTION ( 'NONE',  ( 0.000000000000000000, 1.000000000000000000, 1.061477294950208261E-14 ) ) ;
#237 = EXTERNAL_SOURCE (IDENTIFIER('') ) ;
#238 =( NAMED_UNIT ( * ) SI_UNIT ( $, .STERADIAN. ) SOLID_ANGLE_UNIT ( ) );
#239 = CONTEXT_DEPENDENT_SHAPE_REPRESENTATION ( #573, #103 ) ;
#240 = PROPERTY_DEFINITION ('external definition','', #279 ) ;
#241 = DIRECTION ( 'NONE',  ( 0.000000000000000000, 1.000000000000000000, 1.061477294950208261E-14 ) ) ;
#242 = APPLICATION_CONTEXT ( 'automotive_design' ) ;
#243 = UNCERTAINTY_MEASURE_WITH_UNIT (LENGTH_MEASURE( 1.000000000000000082E-05 ), #481, 'distance_accuracy_value', 'NONE');
#244 =( NAMED_UNIT ( * ) SI_UNIT ( $, .STERADIAN. ) SOLID_ANGLE_UNIT ( ) );
#245 = SHAPE_DEFINITION_REPRESENTATION ( #610, #277 ) ;
#246 = PRODUCT ( 'CNC_Cage_Base_LR', 'CNC_Cage_Base_LR', '', ( #82 ) ) ;
#247 = PRODUCT_DEFINITION_FORMATION_WITH_SPECIFIED_SOURCE ( 'Symmetric', '', #147, .NOT_KNOWN. ) ;
#248 = PRODUCT_CONTEXT ( 'NONE', #317, 'mechanical' ) ;
#249 = PROPERTY_DEFINITION ('document property','', #155 ) ;
#250 = APPLICATION_CONTEXT ( 'automotive_design' ) ;
#251 = PROPERTY_DEFINITION_REPRESENTATION ( #387, #422 ) ;
#252 = DOCUMENT_FILE ( 'CNC_Cage_Base_UL.STEP' , '', '', #367, '' ,$ ) ;
#253 = APPLIED_EXTERNAL_IDENTIFICATION_ASSIGNMENT ( 'CNC_Cage_Post_Lower.STEP' , #646, #661,( #56) ) ;
#254 = PROPERTY_DEFINITION ('document property','', #456 ) ;
#255 = SHAPE_REPRESENTATION ( 'CNC_Cage_Post_Upper_LR', ( #257 ), #234 ) ;
#256 = SHAPE_DEFINITION_REPRESENTATION ( #395, #422 ) ;
#257 = AXIS2_PLACEMENT_3D ( 'NONE', #441, #340, #555 ) ;
#258 = OBJECT_ROLE ('mandatory',$ ) ;
#259 = DOCUMENT_FILE ( 'CNC_Cage_Base_UR.STEP' , '', '', #4, '' ,$ ) ;
#260 = PRODUCT_DEFINITION_SHAPE ( 'NONE', 'NONE',  #668 ) ;
#261 =( REPRESENTATION_RELATIONSHIP ('NONE','NONE', #32, #422 ) REPRESENTATION_RELATIONSHIP_WITH_TRANSFORMATION ( #306 )SHAPE_REPRESENTATION_RELATIONSHIP( ) );
#262 = APPLIED_DOCUMENT_REFERENCE ( #153,'',( #175) ) ;
#263 = PRODUCT_DEFINITION ( 'General', '', #247, #126 ) ;
#264 = PRODUCT_DEFINITION_SHAPE ( 'NONE', 'NONE',  #666 ) ;
#265 = ITEM_DEFINED_TRANSFORMATION ( 'NONE', 'NONE', #66,  #516 ) ;
#266 =( NAMED_UNIT ( * ) SI_UNIT ( $, .STERADIAN. ) SOLID_ANGLE_UNIT ( ) );
#267 =( NAMED_UNIT ( * ) PLANE_ANGLE_UNIT ( ) SI_UNIT ( $, .RADIAN. ) );
#268 = PROPERTY_DEFINITION_REPRESENTATION ( #558, #277 ) ;
#269 = DIRECTION ( 'NONE',  ( 1.000000000000000000, 0.000000000000000000, 0.000000000000000000 ) ) ;
#270 = DOCUMENT_TYPE ( 'geometry' ) ;
#271 = DOCUMENT_TYPE ( 'geometry' ) ;
#272 = PROPERTY_DEFINITION_REPRESENTATION ( #309, #609 ) ;
#273 = DIRECTION ( 'NONE',  ( 1.000000000000000000, 0.000000000000000000, 0.000000000000000000 ) ) ;
#274 = PRODUCT_DEFINITION_CONTEXT ( 'detailed design', #140, 'design' ) ;
#275 = DOCUMENT_FILE ( 'CNC_Cage_TopRail_Female.STEP' , '', '', #405, '' ,$ ) ;
#276 = PRODUCT_DEFINITION_SHAPE ( 'NONE', 'NONE',  #679 ) ;
#277 = SHAPE_REPRESENTATION ( 'CNC_Cage_Post_Upper_UL', ( #311 ), #25 ) ;
#278 = PRODUCT_DEFINITION_FORMATION_WITH_SPECIFIED_SOURCE ( 'Symmetric', '', #304, .NOT_KNOWN. ) ;
#279 = DOCUMENT_FILE ( 'CNC_Cage_TopRail_Male.STEP' , '', '', #270, '' ,$ ) ;
#280 = PROPERTY_DEFINITION ('external definition','', #81 ) ;
#281 = CONTEXT_DEPENDENT_SHAPE_REPRESENTATION ( #292, #515 ) ;
#282 = APPLICATION_CONTEXT ( 'automotive_design' ) ;
#283 = DIRECTION ( 'NONE',  ( -2.072732028468208519E-28, 0.9999999999999998890, -1.061477294950201950E-14 ) ) ;
#284 = DOCUMENT_TYPE ( 'geometry' ) ;
#285 =( NAMED_UNIT ( * ) SI_UNIT ( $, .STERADIAN. ) SOLID_ANGLE_UNIT ( ) );
#286 = ITEM_DEFINED_TRANSFORMATION ( 'NONE', 'NONE', #54,  #90 ) ;
#287 = CARTESIAN_POINT ( 'NONE',  ( 245.2678708296807315, 111.1533018574505149, 436.5510858518059081 ) ) ;
#288 = APPLICATION_CONTEXT ( 'automotive_design' ) ;
#289 = PROPERTY_DEFINITION ('external definition','', #275 ) ;
#290 = AXIS2_PLACEMENT_3D ( 'NONE', #545, #324, #117 ) ;
#291 = ROLE_ASSOCIATION ( #549, #65 ) ;
#292 =( REPRESENTATION_RELATIONSHIP ('NONE','NONE', #32, #650 ) REPRESENTATION_RELATIONSHIP_WITH_TRANSFORMATION ( #120 )SHAPE_REPRESENTATION_RELATIONSHIP( ) );
#293 =( NAMED_UNIT ( * ) PLANE_ANGLE_UNIT ( ) SI_UNIT ( $, .RADIAN. ) );
#294 = PRODUCT_DEFINITION_SHAPE ( 'NONE', 'NONE',  #595 ) ;
#295 = DIRECTION ( 'NONE',  ( 0.000000000000000000, 0.000000000000000000, 1.000000000000000000 ) ) ;
#296 =( REPRESENTATION_RELATIONSHIP ('NONE','NONE', #32, #653 ) REPRESENTATION_RELATIONSHIP_WITH_TRANSFORMATION ( #1 )SHAPE_REPRESENTATION_RELATIONSHIP( ) );
#297 = UNCERTAINTY_MEASURE_WITH_UNIT (LENGTH_MEASURE( 1.000000000000000082E-05 ), #531, 'distance_accuracy_value', 'NONE');
#298 = OBJECT_ROLE ('mandatory',$ ) ;
#299 = CONTEXT_DEPENDENT_SHAPE_REPRESENTATION ( #261, #264 ) ;
#300 = PROPERTY_DEFINITION ('document property','', #252 ) ;
#301 = AXIS2_PLACEMENT_3D ( 'NONE', #60, #434, #639 ) ;
#302 = PRODUCT_CONTEXT ( 'NONE', #218, 'mechanical' ) ;
#303 = PRODUCT_RELATED_PRODUCT_CATEGORY ( 'part', '', ( #571 ) ) ;
#304 = PRODUCT ( 'CNC_Cage_Base_UL', 'CNC_Cage_Base_UL', '', ( #188 ) ) ;
#305 = PROPERTY_DEFINITION_REPRESENTATION ( #9, #61 ) ;
#306 = ITEM_DEFINED_TRANSFORMATION ( 'NONE', 'NONE', #480,  #390 ) ;
#307 = APPLICATION_PROTOCOL_DEFINITION ( 'draft international standard', 'automotive_design', 1998, #288 ) ;
#308 = IDENTIFICATION_ROLE ( 'external document id and location', $) ;
#309 = PROPERTY_DEFINITION ('document property','', #410 ) ;
#310 = APPLICATION_CONTEXT ( 'automotive_design' ) ;
#311 = AXIS2_PLACEMENT_3D ( 'NONE', #561, #604, #508 ) ;
#312 = APPLICATION_PROTOCOL_DEFINITION ( 'draft international standard', 'automotive_design', 1998, #282 ) ;
#313 = APPLIED_EXTERNAL_IDENTIFICATION_ASSIGNMENT ( 'CNC_Cage_Post_Lower.STEP' , #308, #423,( #219) ) ;
#314 = ROLE_ASSOCIATION ( #230, #92 ) ;
#315 = PRODUCT_DEFINITION_SHAPE ( 'NONE', 'NONE',  #263 ) ;
#316 = PROPERTY_DEFINITION_REPRESENTATION ( #388, #564 ) ;
#317 = APPLICATION_CONTEXT ( 'automotive_design' ) ;
#318 = DOCUMENT_TYPE ( 'geometry' ) ;
#319 = APPLIED_EXTERNAL_IDENTIFICATION_ASSIGNMENT ( 'CNC_Cage_TopRail_Female.STEP' , #104, #444,( #562) ) ;
#320 = PROPERTY_DEFINITION ('document property','', #81 ) ;
#321 = DOCUMENT_FILE ( 'CNC_Cage_Post_Upper_UL.STEP' , '', '', #455, '' ,$ ) ;
#322 =( REPRESENTATION_RELATIONSHIP ('NONE','NONE', #32, #161 ) REPRESENTATION_RELATIONSHIP_WITH_TRANSFORMATION ( #614 )SHAPE_REPRESENTATION_RELATIONSHIP( ) );
#323 = ITEM_DEFINED_TRANSFORMATION ( 'NONE', 'NONE', #572,  #257 ) ;
#324 = DIRECTION ( 'NONE',  ( 0.000000000000000000, 1.000000000000000000, 1.061477294950208261E-14 ) ) ;
#325 = AXIS2_PLACEMENT_3D ( 'NONE', #542, #553, #328 ) ;
#326 = PRODUCT_DEFINITION_FORMATION_WITH_SPECIFIED_SOURCE ( 'Symmetric', '', #521, .NOT_KNOWN. ) ;
#327 = APPLIED_DOCUMENT_REFERENCE ( #596,'',( #575) ) ;
#328 = DIRECTION ( 'NONE',  ( -1.000000000000000000, 0.000000000000000000, -6.397660179402464564E-15 ) ) ;
#329 = PROPERTY_DEFINITION ('document property','', #275 ) ;
#330 = CONTEXT_DEPENDENT_SHAPE_REPRESENTATION ( #158, #485 ) ;
#331 = DIRECTION ( 'NONE',  ( -1.000000000000000000, -1.061477294950205737E-14, 5.117434254131580929E-16 ) ) ;
#332 = DOCUMENT_TYPE ( 'geometry' ) ;
#333 = ROLE_ASSOCIATION ( #487, #235 ) ;
#334 = DIRECTION ( 'NONE',  ( 1.000000000000000000, 1.061477294950205737E-14, -5.117434254131580929E-16 ) ) ;
#335 = AXIS2_PLACEMENT_3D ( 'NONE', #146, #110, #597 ) ;
#336 =( REPRESENTATION_RELATIONSHIP ('NONE','NONE', #32, #653 ) REPRESENTATION_RELATIONSHIP_WITH_TRANSFORMATION ( #525 )SHAPE_REPRESENTATION_RELATIONSHIP( ) );
#337 = PROPERTY_DEFINITION_REPRESENTATION ( #280, #61 ) ;
#338 = CARTESIAN_POINT ( 'NONE',  ( 333.2678708296815557, -8.846698142550492250, 146.3010858518062776 ) ) ;
#339 = PRODUCT_DEFINITION_SHAPE ( 'NONE', 'NONE',  #672 ) ;
#340 = DIRECTION ( 'NONE',  ( 0.000000000000000000, 0.000000000000000000, 1.000000000000000000 ) ) ;
#341 =( REPRESENTATION_RELATIONSHIP ('NONE','NONE', #32, #653 ) REPRESENTATION_RELATIONSHIP_WITH_TRANSFORMATION ( #541 )SHAPE_REPRESENTATION_RELATIONSHIP( ) );
#342 = APPLICATION_PROTOCOL_DEFINITION ( 'draft international standard', 'automotive_design', 1998, #634 ) ;
#343 =( NAMED_UNIT ( * ) PLANE_ANGLE_UNIT ( ) SI_UNIT ( $, .RADIAN. ) );
#344 = SHAPE_REPRESENTATION ( 'CNC_Cage_Base_UL', ( #375 ), #173 ) ;
#345 = PROPERTY_DEFINITION_REPRESENTATION ( #226, #61 ) ;
#346 = PRODUCT_DEFINITION ( 'General', '', #15, #274 ) ;
#347 = SHAPE_DEFINITION_REPRESENTATION ( #294, #511 ) ;
#348 = PRODUCT_DEFINITION_SHAPE ( 'NONE', 'NONE',  #675 ) ;
#349 = AXIS2_PLACEMENT_3D ( 'NONE', #478, #633, #64 ) ;
#350 = CONTEXT_DEPENDENT_SHAPE_REPRESENTATION ( #474, #532 ) ;
#351 = ROLE_ASSOCIATION ( #184, #509 ) ;
#352 = APPLICATION_PROTOCOL_DEFINITION ( 'draft international standard', 'automotive_design', 1998, #242 ) ;
#353 = PROPERTY_DEFINITION ('external definition','', #252 ) ;
#354 = APPLIED_DOCUMENT_REFERENCE ( #155,'',( #594) ) ;
#355 = APPLICATION_CONTEXT ( 'automotive_design' ) ;
#356 =( REPRESENTATION_RELATIONSHIP ('NONE','NONE', #32, #277 ) REPRESENTATION_RELATIONSHIP_WITH_TRANSFORMATION ( #210 )SHAPE_REPRESENTATION_RELATIONSHIP( ) );
#357 = DOCUMENT_TYPE ( 'geometry' ) ;
#358 = PRODUCT_DEFINITION_SHAPE ( 'NONE', 'NONE',  #594 ) ;
#359 =( NAMED_UNIT ( * ) SI_UNIT ( $, .STERADIAN. ) SOLID_ANGLE_UNIT ( ) );
#360 = CARTESIAN_POINT ( 'NONE',  ( 188.0178708296816126, -160.8466981425551694, 291.5510858518044870 ) ) ;
#361 = CARTESIAN_POINT ( 'NONE',  ( 0.000000000000000000, 0.000000000000000000, 0.000000000000000000 ) ) ;
#362 = APPLIED_DOCUMENT_REFERENCE ( #259,'',( #215) ) ;
#363 = IDENTIFICATION_ROLE ( 'external document id and location', $) ;
#364 = DIRECTION ( 'NONE',  ( -1.000867273499158728E-29, 1.000000000000000000, -1.061477294950196901E-14 ) ) ;
#365 = OBJECT_ROLE ('mandatory',$ ) ;
#366 = ROLE_ASSOCIATION ( #382, #362 ) ;
#367 = DOCUMENT_TYPE ( 'geometry' ) ;
#368 =( NAMED_UNIT ( * ) PLANE_ANGLE_UNIT ( ) SI_UNIT ( $, .RADIAN. ) );
#369 = PROPERTY_DEFINITION_REPRESENTATION ( #160, #650 ) ;
#370 = APPLICATION_PROTOCOL_DEFINITION ( 'draft international standard', 'automotive_design', 1998, #624 ) ;
#371 = UNCERTAINTY_MEASURE_WITH_UNIT (LENGTH_MEASURE( 1.000000000000000082E-05 ), #178, 'distance_accuracy_value', 'NONE');
#372 = PROPERTY_DEFINITION_REPRESENTATION ( #616, #511 ) ;
#373 = PROPERTY_DEFINITION ('document property','', #279 ) ;
#374 = DIRECTION ( 'NONE',  ( 0.000000000000000000, -1.061477294950208261E-14, 1.000000000000000000 ) ) ;
#375 = AXIS2_PLACEMENT_3D ( 'NONE', #143, #569, #206 ) ;
#376 = PRODUCT_DEFINITION_FORMATION_WITH_SPECIFIED_SOURCE ( 'Symmetric', '', #403, .NOT_KNOWN. ) ;
#377 =( NAMED_UNIT ( * ) PLANE_ANGLE_UNIT ( ) SI_UNIT ( $, .RADIAN. ) );
#378 = OBJECT_ROLE ('mandatory',$ ) ;
#379 = EXTERNAL_SOURCE (IDENTIFIER('') ) ;
#380 = ITEM_DEFINED_TRANSFORMATION ( 'NONE', 'NONE', #449,  #90 ) ;
#381 = APPLICATION_PROTOCOL_DEFINITION ( 'draft international standard', 'automotive_design', 1998, #396 ) ;
#382 = OBJECT_ROLE ('mandatory',$ ) ;
#383 = ROLE_ASSOCIATION ( #131, #180 ) ;
#384 = APPLICATION_CONTEXT ( 'automotive_design' ) ;
#385 = DIRECTION ( 'NONE',  ( -1.000000000000000000, 0.000000000000000000, 6.938893903907226837E-18 ) ) ;
#386 = DIRECTION ( 'NONE',  ( 0.000000000000000000, 0.000000000000000000, 1.000000000000000000 ) ) ;
#387 = PROPERTY_DEFINITION ('document property','', #506 ) ;
#388 = PROPERTY_DEFINITION ('external definition','', #259 ) ;
#389 = CARTESIAN_POINT ( 'NONE',  ( 333.2678708296815557, 111.1533018574454417, 233.8010858518073860 ) ) ;
#390 = AXIS2_PLACEMENT_3D ( 'NONE', #154, #583, #97 ) ;
#391 =( REPRESENTATION_RELATIONSHIP ('NONE','NONE', #32, #650 ) REPRESENTATION_RELATIONSHIP_WITH_TRANSFORMATION ( #380 )SHAPE_REPRESENTATION_RELATIONSHIP( ) );
#392 = EXTERNAL_SOURCE (IDENTIFIER('') ) ;
#393 = APPLIED_EXTERNAL_IDENTIFICATION_ASSIGNMENT ( 'CNC_Cage_Post_Upper.STEP' , #119, #224,( #410) ) ;
#394 = APPLICATION_PROTOCOL_DEFINITION ( 'draft international standard', 'automotive_design', 1998, #86 ) ;
#395 = PRODUCT_DEFINITION_SHAPE ( 'NONE', 'NONE',  #581 ) ;
#396 = APPLICATION_CONTEXT ( 'automotive_design' ) ;
#397 = PRODUCT_DEFINITION ( 'General', '', #376, #190 ) ;
#398 = DOCUMENT_FILE ( 'CNC_Cage_TopRail_Female.STEP' , '', '', #284, '' ,$ ) ;
#399 = APPLICATION_PROTOCOL_DEFINITION ( 'draft international standard', 'automotive_design', 1998, #38 ) ;
#400 = EXTERNAL_SOURCE (IDENTIFIER('') ) ;
#401 = APPLICATION_PROTOCOL_DEFINITION ( 'draft international standard', 'automotive_design', 1998, #435 ) ;
#402 = PRODUCT_RELATED_PRODUCT_CATEGORY ( 'part', '', ( #39 ) ) ;
#403 = PRODUCT ( 'CNC_Cage_TopRail_Female', 'CNC_Cage_TopRail_Female', '', ( #10 ) ) ;
#404 = PROPERTY_DEFINITION_REPRESENTATION ( #353, #344 ) ;
#405 = DOCUMENT_TYPE ( 'geometry' ) ;
#406 =( REPRESENTATION_RELATIONSHIP ('NONE','NONE', #32, #609 ) REPRESENTATION_RELATIONSHIP_WITH_TRANSFORMATION ( #265 )SHAPE_REPRESENTATION_RELATIONSHIP( ) );
#407 = UNCERTAINTY_MEASURE_WITH_UNIT (LENGTH_MEASURE( 1.000000000000000082E-05 ), #118, 'distance_accuracy_value', 'NONE');
#408 = DIRECTION ( 'NONE',  ( 0.000000000000000000, 0.000000000000000000, 1.000000000000000000 ) ) ;
#409 = PROPERTY_DEFINITION ('document property','', #259 ) ;
#410 = DOCUMENT_FILE ( 'CNC_Cage_Post_Upper.STEP' , '', '', #271, '' ,$ ) ;
#411 = APPLIED_EXTERNAL_IDENTIFICATION_ASSIGNMENT ( 'CNC_Cage_Post_Upper_UL.STEP' , #138, #400,( #321) ) ;
#412 = PRODUCT_DEFINITION_CONTEXT ( 'detailed design', #435, 'design' ) ;
#413 =( NAMED_UNIT ( * ) PLANE_ANGLE_UNIT ( ) SI_UNIT ( $, .RADIAN. ) );
#414 = PRODUCT_DEFINITION_SHAPE ( 'NONE', 'NONE',  #133 ) ;
#415 = AXIS2_PLACEMENT_3D ( 'NONE', #360, #101, #273 ) ;
#416 = PRODUCT_DEFINITION_FORMATION_WITH_SPECIFIED_SOURCE ( 'Symmetric', '', #571, .NOT_KNOWN. ) ;
#417 = CARTESIAN_POINT ( 'NONE',  ( 332.7678708296816126, -148.8466981425567042, 436.5510858518046007 ) ) ;
#418 = PRODUCT_RELATED_PRODUCT_CATEGORY ( 'part', '', ( #603 ) ) ;
#419 = PROPERTY_DEFINITION_REPRESENTATION ( #129, #653 ) ;
#420 = PROPERTY_DEFINITION ('document property','', #596 ) ;
#421 =( NAMED_UNIT ( * ) SI_UNIT ( $, .STERADIAN. ) SOLID_ANGLE_UNIT ( ) );
#422 = SHAPE_REPRESENTATION ( 'CNC_Cage_Base_LR', ( #390 ), #459 ) ;
#423 = EXTERNAL_SOURCE (IDENTIFIER('') ) ;
#424 = CONTEXT_DEPENDENT_SHAPE_REPRESENTATION ( #296, #654 ) ;
#425 = APPLICATION_CONTEXT ( 'automotive_design' ) ;
#426 = APPLIED_EXTERNAL_IDENTIFICATION_ASSIGNMENT ( 'CNC_Cage_TopRail_Female.STEP' , #590, #237,( #81) ) ;
#427 =( NAMED_UNIT ( * ) SI_UNIT ( $, .STERADIAN. ) SOLID_ANGLE_UNIT ( ) );
#428 = CONTEXT_DEPENDENT_SHAPE_REPRESENTATION ( #177, #197 ) ;
#429 = AXIS2_PLACEMENT_3D ( 'NONE', #651, #486, #601 ) ;
#430 = DIRECTION ( 'NONE',  ( -1.000000000000000222, 0.000000000000000000, 8.881784197001252323E-16 ) ) ;
#431 = PRODUCT_RELATED_PRODUCT_CATEGORY ( 'part', '', ( #403 ) ) ;
#432 = OBJECT_ROLE ('mandatory',$ ) ;
#433 = PROPERTY_DEFINITION_REPRESENTATION ( #457, #653 ) ;
#434 = DIRECTION ( 'NONE',  ( 0.000000000000000000, 0.000000000000000000, 1.000000000000000000 ) ) ;
#435 = APPLICATION_CONTEXT ( 'automotive_design' ) ;
#436 = OBJECT_ROLE ('mandatory',$ ) ;
#437 = CONTEXT_DEPENDENT_SHAPE_REPRESENTATION ( #341, #348 ) ;
#438 = CARTESIAN_POINT ( 'NONE',  ( 332.7678708296901959, -8.846698142547428034, 436.5510858517995985 ) ) ;
#439 = CONTEXT_DEPENDENT_SHAPE_REPRESENTATION ( #580, #276 ) ;
#440 = SHAPE_DEFINITION_REPRESENTATION ( #626, #61 ) ;
#441 = CARTESIAN_POINT ( 'NONE',  ( 0.000000000000000000, 0.000000000000000000, 0.000000000000000000 ) ) ;
#442 = ROLE_ASSOCIATION ( #436, #176 ) ;
#443 = DIRECTION ( 'NONE',  ( -1.061477294950206052E-14, 1.000000000000000000, 3.085556137100543272E-29 ) ) ;
#444 = EXTERNAL_SOURCE (IDENTIFIER('') ) ;
#445 = PRODUCT_DEFINITION_SHAPE ( 'NONE', 'NONE',  #680 ) ;
#446 =( REPRESENTATION_RELATIONSHIP ('NONE','NONE', #32, #564 ) REPRESENTATION_RELATIONSHIP_WITH_TRANSFORMATION ( #99 )SHAPE_REPRESENTATION_RELATIONSHIP( ) );
#447 = PROPERTY_DEFINITION ('document property','', #153 ) ;
#448 = APPLICATION_PROTOCOL_DEFINITION ( 'draft international standard', 'automotive_design', 1998, #6 ) ;
#449 = AXIS2_PLACEMENT_3D ( 'NONE', #57, #228, #115 ) ;
#450 = SHAPE_DEFINITION_REPRESENTATION ( #315, #161 ) ;
#451 = UNCERTAINTY_MEASURE_WITH_UNIT (LENGTH_MEASURE( 1.000000000000000082E-05 ), #655, 'distance_accuracy_value', 'NONE');
#452 = APPLICATION_PROTOCOL_DEFINITION ( 'draft international standard', 'automotive_design', 1998, #213 ) ;
#453 = PROPERTY_DEFINITION ('document property','', #321 ) ;
#454 = APPLICATION_PROTOCOL_DEFINITION ( 'draft international standard', 'automotive_design', 1998, #140 ) ;
#455 = DOCUMENT_TYPE ( 'geometry' ) ;
#456 = DOCUMENT_FILE ( 'CNC_Cage_Base_LL.STEP' , '', '', #189, '' ,$ ) ;
#457 = PROPERTY_DEFINITION ('document property','', #56 ) ;
#458 = OBJECT_ROLE ('mandatory',$ ) ;
#459 =( GEOMETRIC_REPRESENTATION_CONTEXT ( 3 ) GLOBAL_UNCERTAINTY_ASSIGNED_CONTEXT ( ( #475 ) ) GLOBAL_UNIT_ASSIGNED_CONTEXT ( ( #45, #217, #631 ) ) REPRESENTATION_CONTEXT ( 'NONE', 'WORKASPACE' ) );
#460 = AXIS2_PLACEMENT_3D ( 'NONE', #652, #236, #14 ) ;
#461 = APPLICATION_PROTOCOL_DEFINITION ( 'draft international standard', 'automotive_design', 1998, #355 ) ;
#462 = PRODUCT_DEFINITION_SHAPE ( 'NONE', 'NONE',  #665 ) ;
#463 = EXTERNAL_SOURCE (IDENTIFIER('') ) ;
#464 = PROPERTY_DEFINITION_REPRESENTATION ( #192, #255 ) ;
#465 = IDENTIFICATION_ROLE ( 'external document id and location', $) ;
#466 = PROPERTY_DEFINITION_REPRESENTATION ( #300, #344 ) ;
#467 =( REPRESENTATION_RELATIONSHIP ('NONE','NONE', #32, #61 ) REPRESENTATION_RELATIONSHIP_WITH_TRANSFORMATION ( #585 )SHAPE_REPRESENTATION_RELATIONSHIP( ) );
#468 = PRODUCT_DEFINITION_SHAPE ( 'NONE', 'NONE',  #175 ) ;
#469 = PRODUCT_RELATED_PRODUCT_CATEGORY ( 'part', '', ( #500 ) ) ;
#470 = PRODUCT_RELATED_PRODUCT_CATEGORY ( 'part', '', ( #521 ) ) ;
#471 = PROPERTY_DEFINITION_REPRESENTATION ( #453, #277 ) ;
#472 = DIRECTION ( 'NONE',  ( 0.000000000000000000, 0.000000000000000000, 1.000000000000000000 ) ) ;
#473 =( LENGTH_UNIT ( ) NAMED_UNIT ( * ) SI_UNIT ( .MILLI., .METRE. ) );
#474 =( REPRESENTATION_RELATIONSHIP ('NONE','NONE', #32, #61 ) REPRESENTATION_RELATIONSHIP_WITH_TRANSFORMATION ( #227 )SHAPE_REPRESENTATION_RELATIONSHIP( ) );
#475 = UNCERTAINTY_MEASURE_WITH_UNIT (LENGTH_MEASURE( 1.000000000000000082E-05 ), #45, 'distance_accuracy_value', 'NONE');
#476 = PRODUCT_DEFINITION ( 'General', '', #26, #539 ) ;
#477 = ROLE_ASSOCIATION ( #202, #354 ) ;
#478 = CARTESIAN_POINT ( 'NONE',  ( 28.01787082968161613, -160.8466981425568747, 451.5510858518043165 ) ) ;
#479 = IDENTIFICATION_ROLE ( 'external document id and location', $) ;
#480 = AXIS2_PLACEMENT_3D ( 'NONE', #220, #163, #50 ) ;
#481 =( LENGTH_UNIT ( ) NAMED_UNIT ( * ) SI_UNIT ( .MILLI., .METRE. ) );
#482 = APPLIED_DOCUMENT_REFERENCE ( #562,'',( #397) ) ;
#483 = PROPERTY_DEFINITION_REPRESENTATION ( #240, #650 ) ;
#484 = DOCUMENT_TYPE ( 'geometry' ) ;
#485 = PRODUCT_DEFINITION_SHAPE ( 'NONE', 'NONE',  #678 ) ;
#486 = DIRECTION ( 'NONE',  ( 0.000000000000000000, 1.000000000000000000, 1.061477294950208261E-14 ) ) ;
#487 = OBJECT_ROLE ('mandatory',$ ) ;
#488 = PROPERTY_DEFINITION_REPRESENTATION ( #100, #650 ) ;
#489 = DIRECTION ( 'NONE',  ( 0.000000000000000000, -1.061477294950208261E-14, 1.000000000000000000 ) ) ;
#490 = AXIS2_PLACEMENT_3D ( 'NONE', #552, #96, #523 ) ;
#491 =( REPRESENTATION_RELATIONSHIP ('NONE','NONE', #32, #344 ) REPRESENTATION_RELATIONSHIP_WITH_TRANSFORMATION ( #510 )SHAPE_REPRESENTATION_RELATIONSHIP( ) );
#492 =( NAMED_UNIT ( * ) SI_UNIT ( $, .STERADIAN. ) SOLID_ANGLE_UNIT ( ) );
#493 =( NAMED_UNIT ( * ) SI_UNIT ( $, .STERADIAN. ) SOLID_ANGLE_UNIT ( ) );
#494 = PRODUCT_DEFINITION_SHAPE ( 'NONE', 'NONE',  #543 ) ;
#495 = DIRECTION ( 'NONE',  ( 1.000000000000000000, 0.000000000000000000, 0.000000000000000000 ) ) ;
#496 = ROLE_ASSOCIATION ( #613, #482 ) ;
#497 = DOCUMENT_TYPE ( 'geometry' ) ;
#498 = DOCUMENT_TYPE ( 'geometry' ) ;
#499 = CARTESIAN_POINT ( 'NONE',  ( 0.000000000000000000, 0.000000000000000000, 0.000000000000000000 ) ) ;
#500 = PRODUCT ( 'CNC_Cage_Post_Upper_UR', 'CNC_Cage_Post_Upper_UR', '', ( #302 ) ) ;
#501 = PRODUCT_CONTEXT ( 'NONE', #634, 'mechanical' ) ;
#502 = PRODUCT_DEFINITION_CONTEXT ( 'detailed design', #38, 'design' ) ;
#503 =( GEOMETRIC_REPRESENTATION_CONTEXT ( 3 ) GLOBAL_UNCERTAINTY_ASSIGNED_CONTEXT ( ( #640 ) ) GLOBAL_UNIT_ASSIGNED_CONTEXT ( ( #473, #116, #427 ) ) REPRESENTATION_CONTEXT ( 'NONE', 'WORKASPACE' ) );
#504 = EXTERNAL_SOURCE (IDENTIFIER('') ) ;
#505 = AXIS2_PLACEMENT_3D ( 'NONE', #181, #17, #121 ) ;
#506 = DOCUMENT_FILE ( 'CNC_Cage_Base_LR.STEP' , '', '', #578, '' ,$ ) ;
#507 = PROPERTY_DEFINITION ('external definition','', #219 ) ;
#508 = DIRECTION ( 'NONE',  ( 1.000000000000000000, 0.000000000000000000, 0.000000000000000000 ) ) ;
#509 = APPLIED_DOCUMENT_REFERENCE ( #398,'',( #397) ) ;
#510 = ITEM_DEFINED_TRANSFORMATION ( 'NONE', 'NONE', #174,  #375 ) ;
#511 = SHAPE_REPRESENTATION ( 'CNC_Cage_Post_Upper_UR', ( #635 ), #3 ) ;
#512 = APPLIED_EXTERNAL_IDENTIFICATION_ASSIGNMENT ( 'CNC_Cage_TopRail_Male.STEP' , #479, #198,( #182) ) ;
#513 = DOCUMENT_TYPE ( 'geometry' ) ;
#514 = APPLICATION_PROTOCOL_DEFINITION ( 'draft international standard', 'automotive_design', 1998, #58 ) ;
#515 = PRODUCT_DEFINITION_SHAPE ( 'NONE', 'NONE',  #677 ) ;
#516 = AXIS2_PLACEMENT_3D ( 'NONE', #37, #386, #23 ) ;
#517 = APPLICATION_CONTEXT ( 'automotive_design' ) ;
#518 =( LENGTH_UNIT ( ) NAMED_UNIT ( * ) SI_UNIT ( .MILLI., .METRE. ) );
#519 = DOCUMENT_TYPE ( 'geometry' ) ;
#520 = APPLIED_DOCUMENT_REFERENCE ( #456,'',( #263) ) ;
#521 = PRODUCT ( 'CNC_Cage_Base_UR', 'CNC_Cage_Base_UR', '', ( #141 ) ) ;
#522 = CONTEXT_DEPENDENT_SHAPE_REPRESENTATION ( #446, #260 ) ;
#523 = DIRECTION ( 'NONE',  ( 1.000000000000000000, 0.000000000000000000, 0.000000000000000000 ) ) ;
#524 = OBJECT_ROLE ('mandatory',$ ) ;
#525 = ITEM_DEFINED_TRANSFORMATION ( 'NONE', 'NONE', #290,  #618 ) ;
#526 = APPLIED_DOCUMENT_REFERENCE ( #252,'',( #133) ) ;
#527 = IDENTIFICATION_ROLE ( 'external document id and location', $) ;
#528 = CARTESIAN_POINT ( 'NONE',  ( 0.000000000000000000, 0.000000000000000000, 0.000000000000000000 ) ) ;
#529 = APPLIED_DOCUMENT_REFERENCE ( #321,'',( #346) ) ;
#530 = OBJECT_ROLE ('mandatory',$ ) ;
#531 =( LENGTH_UNIT ( ) NAMED_UNIT ( * ) SI_UNIT ( .MILLI., .METRE. ) );
#532 = PRODUCT_DEFINITION_SHAPE ( 'NONE', 'NONE',  #682 ) ;
#533 = DIRECTION ( 'NONE',  ( 1.000000000000000000, 0.000000000000000000, 0.000000000000000000 ) ) ;
#534 = OBJECT_ROLE ('mandatory',$ ) ;
#535 = PROPERTY_DEFINITION ('document property','', #398 ) ;
#536 =( GEOMETRIC_REPRESENTATION_CONTEXT ( 3 ) GLOBAL_UNCERTAINTY_ASSIGNED_CONTEXT ( ( #371 ) ) GLOBAL_UNIT_ASSIGNED_CONTEXT ( ( #178, #293, #493 ) ) REPRESENTATION_CONTEXT ( 'NONE', 'WORKASPACE' ) );
#537 = DIRECTION ( 'NONE',  ( -7.365478331065903367E-32, 1.000000000000000000, -1.061477294950203843E-14 ) ) ;
#538 = PROPERTY_DEFINITION ('external definition','', #410 ) ;
#539 = PRODUCT_DEFINITION_CONTEXT ( 'detailed design', #396, 'design' ) ;
#540 = UNCERTAINTY_MEASURE_WITH_UNIT (LENGTH_MEASURE( 1.000000000000000082E-05 ), #40, 'distance_accuracy_value', 'NONE');
#541 = ITEM_DEFINED_TRANSFORMATION ( 'NONE', 'NONE', #111,  #618 ) ;
#542 = CARTESIAN_POINT ( 'NONE',  ( 42.76787082968066755, -8.846698142550492250, 146.7510858518064083 ) ) ;
#543 = PRODUCT_DEFINITION ( 'General', '', #225, #577 ) ;
#544 = DOCUMENT_FILE ( 'CNC_Cage_TopRail_Male.STEP' , '', '', #332, '' ,$ ) ;
#545 = CARTESIAN_POINT ( 'NONE',  ( 42.76787082968161968, -148.8466981425536062, 146.7510858518044756 ) ) ;
#546 = UNCERTAINTY_MEASURE_WITH_UNIT (LENGTH_MEASURE( 1.000000000000000082E-05 ), #71, 'distance_accuracy_value', 'NONE');
#547 = CONTEXT_DEPENDENT_SHAPE_REPRESENTATION ( #391, #445 ) ;
#548 = DIRECTION ( 'NONE',  ( 1.000000000000000000, 0.000000000000000000, 0.000000000000000000 ) ) ;
#549 = OBJECT_ROLE ('mandatory',$ ) ;
#550 = OBJECT_ROLE ('mandatory',$ ) ;
#551 =( GEOMETRIC_REPRESENTATION_CONTEXT ( 3 ) GLOBAL_UNCERTAINTY_ASSIGNED_CONTEXT ( ( #546 ) ) GLOBAL_UNIT_ASSIGNED_CONTEXT ( ( #71, #127, #244 ) ) REPRESENTATION_CONTEXT ( 'NONE', 'WORKASPACE' ) );
#552 = CARTESIAN_POINT ( 'NONE',  ( 0.000000000000000000, 0.000000000000000000, 0.000000000000000000 ) ) ;
#553 = DIRECTION ( 'NONE',  ( 6.764482262270176231E-29, 1.000000000000000000, -1.061477294950200215E-14 ) ) ;
#554 = PROPERTY_DEFINITION ('external definition','', #153 ) ;
#555 = DIRECTION ( 'NONE',  ( 1.000000000000000000, 0.000000000000000000, 0.000000000000000000 ) ) ;
#556 = CONTEXT_DEPENDENT_SHAPE_REPRESENTATION ( #322, #462 ) ;
#557 = APPLIED_EXTERNAL_IDENTIFICATION_ASSIGNMENT ( 'CNC_Cage_TopRail_Female.STEP' , #214, #582,( #275) ) ;
#558 = PROPERTY_DEFINITION ('external definition','', #321 ) ;
#559 = SHAPE_DEFINITION_REPRESENTATION ( #468, #653 ) ;
#560 = PRODUCT_DEFINITION_FORMATION_WITH_SPECIFIED_SOURCE ( 'Symmetric', '', #500, .NOT_KNOWN. ) ;
#561 = CARTESIAN_POINT ( 'NONE',  ( 0.000000000000000000, 0.000000000000000000, 0.000000000000000000 ) ) ;
#562 = DOCUMENT_FILE ( 'CNC_Cage_TopRail_Female.STEP' , '', '', #513, '' ,$ ) ;
#563 = APPLIED_DOCUMENT_REFERENCE ( #506,'',( #581) ) ;
#564 = SHAPE_REPRESENTATION ( 'CNC_Cage_Base_UR', ( #335 ), #503 ) ;
#565 = PROPERTY_DEFINITION ('external definition','', #216 ) ;
#566 = IDENTIFICATION_ROLE ( 'external document id and location', $) ;
#567 = APPLICATION_CONTEXT ( 'automotive_design' ) ;
#568 = APPLICATION_PROTOCOL_DEFINITION ( 'draft international standard', 'automotive_design', 1998, #425 ) ;
#569 = DIRECTION ( 'NONE',  ( 0.000000000000000000, 0.000000000000000000, 1.000000000000000000 ) ) ;
#570 =( REPRESENTATION_RELATIONSHIP ('NONE','NONE', #32, #61 ) REPRESENTATION_RELATIONSHIP_WITH_TRANSFORMATION ( #76 )SHAPE_REPRESENTATION_RELATIONSHIP( ) );
#571 = PRODUCT ( 'CNC_Cage_Post_Upper_LR', 'CNC_Cage_Post_Upper_LR', '', ( #205 ) ) ;
#572 = AXIS2_PLACEMENT_3D ( 'NONE', #438, #283, #63 ) ;
#573 =( REPRESENTATION_RELATIONSHIP ('NONE','NONE', #32, #650 ) REPRESENTATION_RELATIONSHIP_WITH_TRANSFORMATION ( #286 )SHAPE_REPRESENTATION_RELATIONSHIP( ) );
#574 = SHAPE_DEFINITION_REPRESENTATION ( #358, #255 ) ;
#575 = PRODUCT_DEFINITION ( 'General', '', #79, #648 ) ;
#576 = CONTEXT_DEPENDENT_SHAPE_REPRESENTATION ( #336, #663 ) ;
#577 = PRODUCT_DEFINITION_CONTEXT ( 'detailed design', #592, 'design' ) ;
#578 = DOCUMENT_TYPE ( 'geometry' ) ;
#579 = PRODUCT ( 'CNC_Cage_TopRail_Male', 'CNC_Cage_TopRail_Male', '', ( #599 ) ) ;
#580 =( REPRESENTATION_RELATIONSHIP ('NONE','NONE', #32, #650 ) REPRESENTATION_RELATIONSHIP_WITH_TRANSFORMATION ( #598 )SHAPE_REPRESENTATION_RELATIONSHIP( ) );
#581 = PRODUCT_DEFINITION ( 'General', '', #91, #502 ) ;
#582 = EXTERNAL_SOURCE (IDENTIFIER('') ) ;
#583 = DIRECTION ( 'NONE',  ( 0.000000000000000000, 0.000000000000000000, 1.000000000000000000 ) ) ;
#584 = CONTEXT_DEPENDENT_SHAPE_REPRESENTATION ( #356, #74 ) ;
#585 = ITEM_DEFINED_TRANSFORMATION ( 'NONE', 'NONE', #149,  #490 ) ;
#586 = DIRECTION ( 'NONE',  ( 0.000000000000000000, 1.000000000000000000, 1.061477294950208261E-14 ) ) ;
#587 = PROPERTY_DEFINITION ('external definition','', #562 ) ;
#588 = DIRECTION ( 'NONE',  ( 1.000000000000000000, 0.000000000000000000, 0.000000000000000000 ) ) ;
#589 =( NAMED_UNIT ( * ) PLANE_ANGLE_UNIT ( ) SI_UNIT ( $, .RADIAN. ) );
#590 = IDENTIFICATION_ROLE ( 'external document id and location', $) ;
#591 = EXTERNAL_SOURCE (IDENTIFIER('') ) ;
#592 = APPLICATION_CONTEXT ( 'automotive_design' ) ;
#593 = PROPERTY_DEFINITION_REPRESENTATION ( #638, #650 ) ;
#594 = PRODUCT_DEFINITION ( 'General', '', #416, #73 ) ;
#595 = PRODUCT_DEFINITION ( 'General', '', #560, #136 ) ;
#596 = DOCUMENT_FILE ( 'CNC_Cage_TopRail_Male.STEP' , '', '', #497, '' ,$ ) ;
#597 = DIRECTION ( 'NONE',  ( 1.000000000000000000, 0.000000000000000000, 0.000000000000000000 ) ) ;
#598 = ITEM_DEFINED_TRANSFORMATION ( 'NONE', 'NONE', #460,  #90 ) ;
#599 = PRODUCT_CONTEXT ( 'NONE', #250, 'mechanical' ) ;
#600 = CONTEXT_DEPENDENT_SHAPE_REPRESENTATION ( #80, #34 ) ;
#601 = DIRECTION ( 'NONE',  ( 0.000000000000000000, -1.061477294950208261E-14, 1.000000000000000000 ) ) ;
#602 = EXTERNAL_SOURCE (IDENTIFIER('') ) ;
#603 = PRODUCT ( 'CNC_Cage_Post_Upper', 'CNC_Cage_Post_Upper', '', ( #662 ) ) ;
#604 = DIRECTION ( 'NONE',  ( 0.000000000000000000, 0.000000000000000000, 1.000000000000000000 ) ) ;
#605 = ITEM_DEFINED_TRANSFORMATION ( 'NONE', 'NONE', #44,  #490 ) ;
#606 = PROPERTY_DEFINITION ('external definition','', #182 ) ;
#607 = APPLIED_EXTERNAL_IDENTIFICATION_ASSIGNMENT ( 'CNC_Cage_Base_UL.STEP' , #204, #612,( #252) ) ;
#608 = IDENTIFICATION_ROLE ( 'external document id and location', $) ;
#609 = SHAPE_REPRESENTATION ( 'CNC_Cage_Post_Upper', ( #516 ), #165 ) ;
#610 = PRODUCT_DEFINITION_SHAPE ( 'NONE', 'NONE',  #346 ) ;
#611 = PRODUCT_DEFINITION_CONTEXT ( 'detailed design', #242, 'design' ) ;
#612 = EXTERNAL_SOURCE (IDENTIFIER('') ) ;
#613 = OBJECT_ROLE ('mandatory',$ ) ;
#614 = ITEM_DEFINED_TRANSFORMATION ( 'NONE', 'NONE', #349,  #164 ) ;
#615 =( LENGTH_UNIT ( ) NAMED_UNIT ( * ) SI_UNIT ( .MILLI., .METRE. ) );
#616 = PROPERTY_DEFINITION ('external definition','', #59 ) ;
#617 = PROPERTY_DEFINITION_REPRESENTATION ( #18, #422 ) ;
#618 = AXIS2_PLACEMENT_3D ( 'NONE', #361, #408, #495 ) ;
#619 = APPLICATION_PROTOCOL_DEFINITION ( 'draft international standard', 'automotive_design', 1998, #384 ) ;
#620 = PROPERTY_DEFINITION ('document property','', #59 ) ;
#621 = CARTESIAN_POINT ( 'NONE',  ( 0.000000000000000000, 0.000000000000000000, 0.000000000000000000 ) ) ;
#622 = PROPERTY_DEFINITION_REPRESENTATION ( #535, #61 ) ;
#623 = PROPERTY_DEFINITION_REPRESENTATION ( #254, #161 ) ;
#624 = APPLICATION_CONTEXT ( 'automotive_design' ) ;
#625 = PROPERTY_DEFINITION_REPRESENTATION ( #447, #653 ) ;
#626 = PRODUCT_DEFINITION_SHAPE ( 'NONE', 'NONE',  #397 ) ;
#627 = APPLIED_EXTERNAL_IDENTIFICATION_ASSIGNMENT ( 'CNC_Cage_Base_LR.STEP' , #179, #602,( #506) ) ;
#628 = DIRECTION ( 'NONE',  ( 0.000000000000000000, 1.000000000000000000, 1.061477294950208261E-14 ) ) ;
#629 = APPLIED_DOCUMENT_REFERENCE ( #219,'',( #175) ) ;
#630 =( REPRESENTATION_RELATIONSHIP ('NONE','NONE', #32, #255 ) REPRESENTATION_RELATIONSHIP_WITH_TRANSFORMATION ( #323 )SHAPE_REPRESENTATION_RELATIONSHIP( ) );
#631 =( NAMED_UNIT ( * ) SI_UNIT ( $, .STERADIAN. ) SOLID_ANGLE_UNIT ( ) );
#632 = ITEM_DEFINED_TRANSFORMATION ( 'NONE', 'NONE', #659,  #618 ) ;
#633 = DIRECTION ( 'NONE',  ( 0.000000000000000000, 1.000000000000000000, 1.061477294950208261E-14 ) ) ;
#634 = APPLICATION_CONTEXT ( 'automotive_design' ) ;
#635 = AXIS2_PLACEMENT_3D ( 'NONE', #621, #295, #20 ) ;
#636 = PROPERTY_DEFINITION_REPRESENTATION ( #554, #653 ) ;
#637 = ITEM_DEFINED_TRANSFORMATION ( 'NONE', 'NONE', #36,  #635 ) ;
#638 = PROPERTY_DEFINITION ('external definition','', #544 ) ;
#639 = DIRECTION ( 'NONE',  ( 1.000000000000000000, 0.000000000000000000, 0.000000000000000000 ) ) ;
#640 = UNCERTAINTY_MEASURE_WITH_UNIT (LENGTH_MEASURE( 1.000000000000000082E-05 ), #473, 'distance_accuracy_value', 'NONE');
#641 = APPLIED_DOCUMENT_REFERENCE ( #59,'',( #595) ) ;
#642 = OBJECT_ROLE ('mandatory',$ ) ;
#643 = DIRECTION ( 'NONE',  ( 1.000000000000000000, 0.000000000000000000, 0.000000000000000000 ) ) ;
#644 = ROLE_ASSOCIATION ( #534, #327 ) ;
#645 =( GEOMETRIC_REPRESENTATION_CONTEXT ( 3 ) GLOBAL_UNCERTAINTY_ASSIGNED_CONTEXT ( ( #75 ) ) GLOBAL_UNIT_ASSIGNED_CONTEXT ( ( #7, #368, #421 ) ) REPRESENTATION_CONTEXT ( 'NONE', 'WORKASPACE' ) );
#646 = IDENTIFICATION_ROLE ( 'external document id and location', $) ;
#647 = APPLICATION_PROTOCOL_DEFINITION ( 'draft international standard', 'automotive_design', 1998, #250 ) ;
#648 = PRODUCT_DEFINITION_CONTEXT ( 'detailed design', #213, 'design' ) ;
#649 = PROPERTY_DEFINITION_REPRESENTATION ( #620, #511 ) ;
#650 = SHAPE_REPRESENTATION ( 'CNC_Cage_TopRail_Male', ( #90 ), #200 ) ;
#651 = CARTESIAN_POINT ( 'NONE',  ( 45.84545703657817484, 111.1533018574440774, 364.3760858518072610 ) ) ;
#652 = CARTESIAN_POINT ( 'NONE',  ( 245.7678708296815842, 111.1533018574463512, 146.3010858518073860 ) ) ;
#653 = SHAPE_REPRESENTATION ( 'CNC_Cage_Post_Lower', ( #618 ), #551 ) ;
#654 = PRODUCT_DEFINITION_SHAPE ( 'NONE', 'NONE',  #671 ) ;
#655 =( LENGTH_UNIT ( ) NAMED_UNIT ( * ) SI_UNIT ( .MILLI., .METRE. ) );
#656 = CONTEXT_DEPENDENT_SHAPE_REPRESENTATION ( #570, #53 ) ;
#657 =( GEOMETRIC_REPRESENTATION_CONTEXT ( 3 ) GLOBAL_UNCERTAINTY_ASSIGNED_CONTEXT ( ( #540 ) ) GLOBAL_UNIT_ASSIGNED_CONTEXT ( ( #40, #267, #33 ) ) REPRESENTATION_CONTEXT ( 'NONE', 'WORKASPACE' ) );
#658 = SHAPE_DEFINITION_REPRESENTATION ( #414, #344 ) ;
#659 = AXIS2_PLACEMENT_3D ( 'NONE', #2, #47, #533 ) ;
#660 = APPLIED_EXTERNAL_IDENTIFICATION_ASSIGNMENT ( 'CNC_Cage_Base_UR.STEP' , #201, #162,( #259) ) ;
#661 = EXTERNAL_SOURCE (IDENTIFIER('') ) ;
#662 = PRODUCT_CONTEXT ( 'NONE', #58, 'mechanical' ) ;
#663 = PRODUCT_DEFINITION_SHAPE ( 'NONE', 'NONE',  #673 ) ;
#664 = APPLIED_DOCUMENT_REFERENCE ( #410,'',( #543) ) ;
#665 = NEXT_ASSEMBLY_USAGE_OCCURRENCE ( 'NAUO1', ' ', ' ', #476, #263, $ ) ;
#666 = NEXT_ASSEMBLY_USAGE_OCCURRENCE ( 'NAUO2', ' ', ' ', #476, #581, $ ) ;
#667 = NEXT_ASSEMBLY_USAGE_OCCURRENCE ( 'NAUO3', ' ', ' ', #476, #133, $ ) ;
#668 = NEXT_ASSEMBLY_USAGE_OCCURRENCE ( 'NAUO4', ' ', ' ', #476, #215, $ ) ;
#669 = NEXT_ASSEMBLY_USAGE_OCCURRENCE ( 'NAUO5', ' ', ' ', #476, #175, $ ) ;
#670 = NEXT_ASSEMBLY_USAGE_OCCURRENCE ( 'NAUO6', ' ', ' ', #476, #543, $ ) ;
#671 = NEXT_ASSEMBLY_USAGE_OCCURRENCE ( 'NAUO7', ' ', ' ', #476, #175, $ ) ;
#672 = NEXT_ASSEMBLY_USAGE_OCCURRENCE ( 'NAUO8', ' ', ' ', #476, #594, $ ) ;
#673 = NEXT_ASSEMBLY_USAGE_OCCURRENCE ( 'NAUO9', ' ', ' ', #476, #175, $ ) ;
#674 = NEXT_ASSEMBLY_USAGE_OCCURRENCE ( 'NAUO10', ' ', ' ', #476, #346, $ ) ;
#675 = NEXT_ASSEMBLY_USAGE_OCCURRENCE ( 'NAUO11', ' ', ' ', #476, #175, $ ) ;
#676 = NEXT_ASSEMBLY_USAGE_OCCURRENCE ( 'NAUO12', ' ', ' ', #476, #595, $ ) ;
#677 = NEXT_ASSEMBLY_USAGE_OCCURRENCE ( 'NAUO13', ' ', ' ', #476, #575, $ ) ;
#678 = NEXT_ASSEMBLY_USAGE_OCCURRENCE ( 'NAUO14', ' ', ' ', #476, #397, $ ) ;
#679 = NEXT_ASSEMBLY_USAGE_OCCURRENCE ( 'NAUO15', ' ', ' ', #476, #575, $ ) ;
#680 = NEXT_ASSEMBLY_USAGE_OCCURRENCE ( 'NAUO16', ' ', ' ', #476, #575, $ ) ;
#681 = NEXT_ASSEMBLY_USAGE_OCCURRENCE ( 'NAUO17', ' ', ' ', #476, #575, $ ) ;
#682 = NEXT_ASSEMBLY_USAGE_OCCURRENCE ( 'NAUO18', ' ', ' ', #476, #397, $ ) ;
#683 = NEXT_ASSEMBLY_USAGE_OCCURRENCE ( 'NAUO19', ' ', ' ', #476, #397, $ ) ;
#684 = NEXT_ASSEMBLY_USAGE_OCCURRENCE ( 'NAUO20', ' ', ' ', #476, #397, $ ) ;
ENDSEC;
END-ISO-10303-21;
