ISO-10303-21;
HEADER;
FILE_DESCRIPTION (( 'STEP AP214' ),
    '1' );
FILE_NAME ('CNC_Cage_Base_LL.STEP',
    '2026-08-12T22:35:38',
    ( '' ),
    ( '' ),
    'SwSTEP 2.0',
    'SolidWorks 2026',
    '' );
FILE_SCHEMA (( 'AUTOMOTIVE_DESIGN' ));
ENDSEC;

DATA;
#1 = DIRECTION ( 'NONE',  ( 0.000000000000000000, 0.000000000000000000, 1.000000000000000000 ) ) ;
#2 = CARTESIAN_POINT ( 'NONE',  ( 154.9500000000209923, 133.2999999999948102, 8.000000000000000000 ) ) ;
#3 = EDGE_LOOP ( 'NONE', ( #582, #74, #308, #167 ) ) ;
#4 = LINE ( 'NONE', #177, #600 ) ;
#5 = MECHANICAL_DESIGN_GEOMETRIC_PRESENTATION_REPRESENTATION (  '', ( #128 ), #368 ) ;
#6 = VECTOR ( 'NONE', #374, 1000.000000000000000 ) ;
#7 = LINE ( 'NONE', #123, #720 ) ;
#8 = VERTEX_POINT ( 'NONE', #502 ) ;
#9 = DIRECTION ( 'NONE',  ( 0.000000000000000000, -1.000000000000000000, 0.000000000000000000 ) ) ;
#10 = LINE ( 'NONE', #237, #378 ) ;
#11 = ORIENTED_EDGE ( 'NONE', *, *, #706, .F. ) ;
#12 = DIRECTION ( 'NONE',  ( 1.000000000000000000, 0.000000000000000000, 0.000000000000000000 ) ) ;
#13 = EDGE_CURVE ( 'NONE', #715, #542, #208, .T. ) ;
#14 = ADVANCED_FACE ( 'NONE', ( #151, #461 ), #169, .F. ) ;
#15 = CARTESIAN_POINT ( 'NONE',  ( 151.5000000000198668, 133.2999999999948955, 8.000000000000000000 ) ) ;
#16 = FACE_OUTER_BOUND ( 'NONE', #603, .T. ) ;
#17 = VERTEX_POINT ( 'NONE', #49 ) ;
#18 = LINE ( 'NONE', #534, #142 ) ;
#19 = AXIS2_PLACEMENT_3D ( 'NONE', #738, #104, #161 ) ;
#20 = CARTESIAN_POINT ( 'NONE',  ( 4.749999999999999112, 4.749999999999999112, 7.000000000000000000 ) ) ;
#21 = VECTOR ( 'NONE', #442, 1000.000000000000000 ) ;
#22 = ORIENTED_EDGE ( 'NONE', *, *, #304, .F. ) ;
#23 = LINE ( 'NONE', #309, #529 ) ;
#24 = PRODUCT_DEFINITION_SHAPE ( 'NONE', 'NONE',  #286 ) ;
#25 = CARTESIAN_POINT ( 'NONE',  ( 4.749999999999999112, 4.749999999999999112, 7.000000000000000000 ) ) ;
#26 = ORIENTED_EDGE ( 'NONE', *, *, #510, .T. ) ;
#27 = DIRECTION ( 'NONE',  ( -1.000000000000000000, 0.000000000000000000, 0.000000000000000000 ) ) ;
#28 = ORIENTED_EDGE ( 'NONE', *, *, #69, .F. ) ;
#29 = PLANE ( 'NONE',  #721 ) ;
#30 = DIRECTION ( 'NONE',  ( -0.000000000000000000, -0.000000000000000000, 1.000000000000000000 ) ) ;
#31 = ORIENTED_EDGE ( 'NONE', *, *, #97, .T. ) ;
#32 = AXIS2_PLACEMENT_3D ( 'NONE', #40, #153, #501 ) ;
#33 = VECTOR ( 'NONE', #660, 1000.000000000000000 ) ;
#34 = CARTESIAN_POINT ( 'NONE',  ( 160.0000000000000000, 70.00000000000000000, 12.00000000000000000 ) ) ;
#35 = ORIENTED_EDGE ( 'NONE', *, *, #13, .F. ) ;
#36 = CARTESIAN_POINT ( 'NONE',  ( 160.0000000000000000, 70.00000000000000000, 12.00000000000000000 ) ) ;
#37 = EDGE_CURVE ( 'NONE', #86, #595, #746, .T. ) ;
#38 = CARTESIAN_POINT ( 'NONE',  ( 0.000000000000000000, 69.70000000000000284, 12.00000000000000000 ) ) ;
#39 = VERTEX_POINT ( 'NONE', #678 ) ;
#40 = CARTESIAN_POINT ( 'NONE',  ( 151.5000000000209752, 133.2999999999948102, 8.000000000000000000 ) ) ;
#41 = ORIENTED_EDGE ( 'NONE', *, *, #726, .F. ) ;
#42 = VECTOR ( 'NONE', #630, 1000.000000000000000 ) ;
#43 = VECTOR ( 'NONE', #236, 1000.000000000000000 ) ;
#44 = LINE ( 'NONE', #287, #42 ) ;
#45 = EDGE_CURVE ( 'NONE', #629, #329, #499, .T. ) ;
#46 = DIRECTION ( 'NONE',  ( -0.000000000000000000, -0.000000000000000000, -1.000000000000000000 ) ) ;
#47 = ADVANCED_FACE ( 'NONE', ( #569 ), #522, .F. ) ;
#48 = DIRECTION ( 'NONE',  ( -0.000000000000000000, -0.000000000000000000, -1.000000000000000000 ) ) ;
#49 = CARTESIAN_POINT ( 'NONE',  ( 25.25000000000000000, 4.749999999999999112, 12.00000000000000000 ) ) ;
#50 = EDGE_LOOP ( 'NONE', ( #278, #747, #635, #617 ) ) ;
#51 = DIRECTION ( 'NONE',  ( -0.000000000000000000, 0.000000000000000000, 1.000000000000000000 ) ) ;
#52 = CARTESIAN_POINT ( 'NONE',  ( 70.00000000000000000, 164.0000000000000000, 12.00000000000000000 ) ) ;
#53 = ORIENTED_EDGE ( 'NONE', *, *, #170, .T. ) ;
#54 = ADVANCED_FACE ( 'NONE', ( #455 ), #578, .F. ) ;
#55 = VECTOR ( 'NONE', #317, 1000.000000000000000 ) ;
#56 = CARTESIAN_POINT ( 'NONE',  ( 160.0000000000000000, 160.0000000000000000, 12.00000000000000000 ) ) ;
#57 = CARTESIAN_POINT ( 'NONE',  ( 4.749999999999999112, 4.749999999999999112, 7.000000000000000000 ) ) ;
#58 = ORIENTED_EDGE ( 'NONE', *, *, #572, .T. ) ;
#59 = LINE ( 'NONE', #573, #477 ) ;
#60 = DIRECTION ( 'NONE',  ( 0.000000000000000000, -1.000000000000000000, 0.000000000000000000 ) ) ;
#61 = ORIENTED_EDGE ( 'NONE', *, *, #675, .T. ) ;
#62 = LINE ( 'NONE', #471, #695 ) ;
#63 = CARTESIAN_POINT ( 'NONE',  ( 160.0000000000000000, 90.00000000000000000, 0.000000000000000000 ) ) ;
#64 = ORIENTED_EDGE ( 'NONE', *, *, #124, .T. ) ;
#65 = LINE ( 'NONE', #356, #333 ) ;
#66 = VECTOR ( 'NONE', #565, 1000.000000000000000 ) ;
#67 = VECTOR ( 'NONE', #711, 1000.000000000000000 ) ;
#68 = CARTESIAN_POINT ( 'NONE',  ( 160.0000000000000000, 90.00000000000000000, 12.00000000000000000 ) ) ;
#69 = EDGE_CURVE ( 'NONE', #162, #238, #447, .T. ) ;
#70 = VERTEX_POINT ( 'NONE', #458 ) ;
#71 = EDGE_CURVE ( 'NONE', #498, #329, #340, .T. ) ;
#72 = CARTESIAN_POINT ( 'NONE',  ( 148.0500000000209582, 133.2999999999948102, 0.000000000000000000 ) ) ;
#73 = DIRECTION ( 'NONE',  ( 0.000000000000000000, -1.000000000000000000, 0.000000000000000000 ) ) ;
#74 = ORIENTED_EDGE ( 'NONE', *, *, #683, .F. ) ;
#75 = CARTESIAN_POINT ( 'NONE',  ( 164.0000000000000000, 70.00000000000000000, 0.000000000000000000 ) ) ;
#76 = CARTESIAN_POINT ( 'NONE',  ( 160.0000000000000000, 0.000000000000000000, 0.000000000000000000 ) ) ;
#77 = ORIENTED_EDGE ( 'NONE', *, *, #626, .T. ) ;
#78 = DIRECTION ( 'NONE',  ( -1.000000000000000000, 0.000000000000000000, 0.000000000000000000 ) ) ;
#79 = DIRECTION ( 'NONE',  ( -1.000000000000000000, 0.000000000000000000, 0.000000000000000000 ) ) ;
#80 = VECTOR ( 'NONE', #306, 1000.000000000000000 ) ;
#81 = VERTEX_POINT ( 'NONE', #119 ) ;
#82 = PLANE ( 'NONE',  #102 ) ;
#83 = CARTESIAN_POINT ( 'NONE',  ( 25.25000000000000000, 4.749999999999999112, 7.000000000000000000 ) ) ;
#84 = ORIENTED_EDGE ( 'NONE', *, *, #527, .F. ) ;
#85 = CARTESIAN_POINT ( 'NONE',  ( 70.00000000000000000, 160.0000000000000000, 0.000000000000000000 ) ) ;
#86 = VERTEX_POINT ( 'NONE', #166 ) ;
#87 = DIRECTION ( 'NONE',  ( -1.000000000000000000, 0.000000000000000000, 0.000000000000000000 ) ) ;
#88 = FACE_OUTER_BOUND ( 'NONE', #359, .T. ) ;
#89 = AXIS2_PLACEMENT_3D ( 'NONE', #288, #508, #275 ) ;
#90 = ORIENTED_EDGE ( 'NONE', *, *, #516, .F. ) ;
#91 = CIRCLE ( 'NONE', #222, 3.450000000000008615 ) ;
#92 = EDGE_CURVE ( 'NONE', #241, #86, #566, .T. ) ;
#93 = EDGE_CURVE ( 'NONE', #379, #162, #283, .T. ) ;
#94 = DIRECTION ( 'NONE',  ( 0.000000000000000000, 0.000000000000000000, -1.000000000000000000 ) ) ;
#95 = FACE_OUTER_BOUND ( 'NONE', #117, .T. ) ;
#96 = VERTEX_POINT ( 'NONE', #226 ) ;
#97 = EDGE_CURVE ( 'NONE', #312, #8, #690, .T. ) ;
#98 = LINE ( 'NONE', #326, #140 ) ;
#99 = ORIENTED_EDGE ( 'NONE', *, *, #124, .F. ) ;
#100 = ORIENTED_EDGE ( 'NONE', *, *, #465, .F. ) ;
#101 = VECTOR ( 'NONE', #46, 1000.000000000000000 ) ;
#102 = AXIS2_PLACEMENT_3D ( 'NONE', #34, #493, #488 ) ;
#103 = DIRECTION ( 'NONE',  ( -0.000000000000000000, -0.000000000000000000, 1.000000000000000000 ) ) ;
#104 = DIRECTION ( 'NONE',  ( -0.000000000000000000, -0.000000000000000000, -1.000000000000000000 ) ) ;
#105 = ORIENTED_EDGE ( 'NONE', *, *, #605, .T. ) ;
#106 = LINE ( 'NONE', #115, #487 ) ;
#107 = CYLINDRICAL_SURFACE ( 'NONE', #486, 3.450000000000008615 ) ;
#108 = ORIENTED_EDGE ( 'NONE', *, *, #45, .F. ) ;
#109 = FACE_OUTER_BOUND ( 'NONE', #440, .T. ) ;
#110 = ADVANCED_BREP_SHAPE_REPRESENTATION ( 'CNC_Cage_Base_LL', ( #391, #159 ), #129 ) ;
#111 = CARTESIAN_POINT ( 'NONE',  ( 70.00000000000000000, 164.0000000000000000, 12.00000000000000000 ) ) ;
#112 = ORIENTED_EDGE ( 'NONE', *, *, #251, .T. ) ;
#113 = EDGE_CURVE ( 'NONE', #312, #483, #400, .T. ) ;
#114 = AXIS2_PLACEMENT_3D ( 'NONE', #538, #423, #655 ) ;
#115 = CARTESIAN_POINT ( 'NONE',  ( 90.00000000000000000, 160.0000000000000000, 0.000000000000000000 ) ) ;
#116 = FACE_OUTER_BOUND ( 'NONE', #710, .T. ) ;
#117 = EDGE_LOOP ( 'NONE', ( #555, #158, #625, #267 ) ) ;
#118 = FACE_OUTER_BOUND ( 'NONE', #480, .T. ) ;
#119 = CARTESIAN_POINT ( 'NONE',  ( 153.5000000000198668, 133.2999999999948955, 8.000000000000000000 ) ) ;
#120 = EDGE_LOOP ( 'NONE', ( #146, #134, #424, #343 ) ) ;
#121 = PLANE ( 'NONE',  #297 ) ;
#122 = ADVANCED_FACE ( 'NONE', ( #220 ), #178, .F. ) ;
#123 = CARTESIAN_POINT ( 'NONE',  ( 70.00000000000000000, 164.0000000000000000, 12.00000000000000000 ) ) ;
#124 = EDGE_CURVE ( 'NONE', #542, #8, #637, .T. ) ;
#125 = ORIENTED_EDGE ( 'NONE', *, *, #45, .T. ) ;
#126 = VECTOR ( 'NONE', #277, 1000.000000000000000 ) ;
#127 = DIRECTION ( 'NONE',  ( 0.000000000000000000, 1.000000000000000000, 0.000000000000000000 ) ) ;
#128 = STYLED_ITEM ( 'NONE', ( #444 ), #391 ) ;
#129 =( GEOMETRIC_REPRESENTATION_CONTEXT ( 3 ) GLOBAL_UNCERTAINTY_ASSIGNED_CONTEXT ( ( #520 ) ) GLOBAL_UNIT_ASSIGNED_CONTEXT ( ( #209, #200, #496 ) ) REPRESENTATION_CONTEXT ( 'NONE', 'WORKASPACE' ) );
#130 = LINE ( 'NONE', #25, #214 ) ;
#131 = EDGE_LOOP ( 'NONE', ( #100, #203 ) ) ;
#132 = CARTESIAN_POINT ( 'NONE',  ( 151.5000000000209752, 133.2999999999948102, 8.000000000000000000 ) ) ;
#133 = LINE ( 'NONE', #68, #354 ) ;
#134 = ORIENTED_EDGE ( 'NONE', *, *, #675, .F. ) ;
#135 = SHAPE_DEFINITION_REPRESENTATION ( #24, #110 ) ;
#136 = DIRECTION ( 'NONE',  ( -0.000000000000000000, 0.000000000000000000, 1.000000000000000000 ) ) ;
#137 = CARTESIAN_POINT ( 'NONE',  ( 0.000000000000000000, 0.000000000000000000, 12.00000000000000000 ) ) ;
#138 = ORIENTED_EDGE ( 'NONE', *, *, #651, .F. ) ;
#139 = AXIS2_PLACEMENT_3D ( 'NONE', #450, #60, #684 ) ;
#140 = VECTOR ( 'NONE', #662, 1000.000000000000000 ) ;
#141 = DIRECTION ( 'NONE',  ( 1.000000000000000000, 0.000000000000000000, 0.000000000000000000 ) ) ;
#142 = VECTOR ( 'NONE', #9, 1000.000000000000000 ) ;
#143 = ORIENTED_EDGE ( 'NONE', *, *, #492, .T. ) ;
#144 = FILL_AREA_STYLE_COLOUR ( '', #449 ) ;
#145 = ORIENTED_EDGE ( 'NONE', *, *, #93, .T. ) ;
#146 = ORIENTED_EDGE ( 'NONE', *, *, #506, .T. ) ;
#147 = LINE ( 'NONE', #36, #6 ) ;
#148 = ADVANCED_FACE ( 'NONE', ( #116 ), #107, .F. ) ;
#149 = DIRECTION ( 'NONE',  ( 0.000000000000000000, 0.000000000000000000, 1.000000000000000000 ) ) ;
#150 = EDGE_CURVE ( 'NONE', #211, #96, #513, .T. ) ;
#151 = FACE_BOUND ( 'NONE', #459, .T. ) ;
#152 = LINE ( 'NONE', #319, #489 ) ;
#153 = DIRECTION ( 'NONE',  ( -0.000000000000000000, -0.000000000000000000, -1.000000000000000000 ) ) ;
#154 = ORIENTED_EDGE ( 'NONE', *, *, #113, .T. ) ;
#155 = DIRECTION ( 'NONE',  ( -1.000000000000000000, 0.000000000000000000, 0.000000000000000000 ) ) ;
#156 = ORIENTED_EDGE ( 'NONE', *, *, #92, .F. ) ;
#157 = LINE ( 'NONE', #383, #321 ) ;
#158 = ORIENTED_EDGE ( 'NONE', *, *, #150, .F. ) ;
#159 = AXIS2_PLACEMENT_3D ( 'NONE', #436, #428, #12 ) ;
#160 = DIRECTION ( 'NONE',  ( 0.000000000000000000, 1.000000000000000000, 0.000000000000000000 ) ) ;
#161 = DIRECTION ( 'NONE',  ( -1.000000000000000000, 0.000000000000000000, 0.000000000000000000 ) ) ;
#162 = VERTEX_POINT ( 'NONE', #111 ) ;
#163 = VECTOR ( 'NONE', #503, 1000.000000000000000 ) ;
#164 = CIRCLE ( 'NONE', #235, 3.450000000000008615 ) ;
#165 =( NAMED_UNIT ( * ) SI_UNIT ( $, .STERADIAN. ) SOLID_ANGLE_UNIT ( ) );
#166 = CARTESIAN_POINT ( 'NONE',  ( 25.25000000000000000, 4.749999999999999112, 7.000000000000000000 ) ) ;
#167 = ORIENTED_EDGE ( 'NONE', *, *, #69, .T. ) ;
#168 = CARTESIAN_POINT ( 'NONE',  ( 151.5000000000198668, 133.2999999999948955, 12.00000000000000000 ) ) ;
#169 = PLANE ( 'NONE',  #271 ) ;
#170 = EDGE_CURVE ( 'NONE', #39, #312, #342, .T. ) ;
#171 = EDGE_LOOP ( 'NONE', ( #476, #90, #463, #125 ) ) ;
#172 = CARTESIAN_POINT ( 'NONE',  ( 148.0500000000209582, 133.2999999999948102, 8.000000000000000000 ) ) ;
#173 = DIRECTION ( 'NONE',  ( 0.000000000000000000, -0.000000000000000000, -1.000000000000000000 ) ) ;
#174 = EDGE_LOOP ( 'NONE', ( #347, #26, #187, #654 ) ) ;
#175 = CLOSED_SHELL ( 'NONE', ( #148, #358, #54, #180, #14, #681, #280, #736, #324, #47, #623, #335, #223, #122, #661, #360, #242, #607, #628, #376, #260, #437, #387, #530 ) ) ;
#176 = AXIS2_PLACEMENT_3D ( 'NONE', #15, #701, #185 ) ;
#177 = CARTESIAN_POINT ( 'NONE',  ( 160.0000000000000000, 160.0000000000000000, 12.00000000000000000 ) ) ;
#178 = PLANE ( 'NONE',  #139 ) ;
#179 = VERTEX_POINT ( 'NONE', #63 ) ;
#180 = ADVANCED_FACE ( 'NONE', ( #420, #467, #294 ), #475, .T. ) ;
#181 = EDGE_CURVE ( 'NONE', #179, #233, #352, .T. ) ;
#182 = DIRECTION ( 'NONE',  ( 0.000000000000000000, 0.000000000000000000, 1.000000000000000000 ) ) ;
#183 = DIRECTION ( 'NONE',  ( 0.000000000000000000, -1.000000000000000000, 0.000000000000000000 ) ) ;
#184 = ORIENTED_EDGE ( 'NONE', *, *, #644, .F. ) ;
#185 = DIRECTION ( 'NONE',  ( -1.000000000000000000, 0.000000000000000000, 0.000000000000000000 ) ) ;
#186 = FACE_OUTER_BOUND ( 'NONE', #632, .T. ) ;
#187 = ORIENTED_EDGE ( 'NONE', *, *, #304, .T. ) ;
#188 = VECTOR ( 'NONE', #590, 1000.000000000000000 ) ;
#189 = LINE ( 'NONE', #474, #273 ) ;
#190 = VECTOR ( 'NONE', #665, 1000.000000000000000 ) ;
#191 = EDGE_CURVE ( 'NONE', #483, #179, #357, .T. ) ;
#192 = PLANE ( 'NONE',  #709 ) ;
#193 = ORIENTED_EDGE ( 'NONE', *, *, #659, .T. ) ;
#194 = LINE ( 'NONE', #406, #202 ) ;
#195 = CARTESIAN_POINT ( 'NONE',  ( 160.0000000000000000, 160.0000000000000000, 0.000000000000000000 ) ) ;
#196 = VERTEX_POINT ( 'NONE', #532 ) ;
#197 = LINE ( 'NONE', #716, #588 ) ;
#198 = PLANE ( 'NONE',  #114 ) ;
#199 = VERTEX_POINT ( 'NONE', #645 ) ;
#200 =( NAMED_UNIT ( * ) PLANE_ANGLE_UNIT ( ) SI_UNIT ( $, .RADIAN. ) );
#201 = CYLINDRICAL_SURFACE ( 'NONE', #32, 3.450000000000008615 ) ;
#202 = VECTOR ( 'NONE', #78, 1000.000000000000000 ) ;
#203 = ORIENTED_EDGE ( 'NONE', *, *, #510, .F. ) ;
#204 = EDGE_CURVE ( 'NONE', #498, #199, #646, .T. ) ;
#205 = CARTESIAN_POINT ( 'NONE',  ( 90.00000000000000000, 164.0000000000000000, 0.000000000000000000 ) ) ;
#206 = EDGE_CURVE ( 'NONE', #241, #196, #130, .T. ) ;
#207 = DIRECTION ( 'NONE',  ( -0.000000000000000000, -0.000000000000000000, -1.000000000000000000 ) ) ;
#208 = LINE ( 'NONE', #435, #692 ) ;
#209 =( LENGTH_UNIT ( ) NAMED_UNIT ( * ) SI_UNIT ( .MILLI., .METRE. ) );
#210 = PLANE ( 'NONE',  #234 ) ;
#211 = VERTEX_POINT ( 'NONE', #641 ) ;
#212 = DIRECTION ( 'NONE',  ( 1.000000000000000000, -0.000000000000000000, 0.000000000000000000 ) ) ;
#213 = EDGE_LOOP ( 'NONE', ( #564, #591 ) ) ;
#214 = VECTOR ( 'NONE', #472, 1000.000000000000000 ) ;
#215 = SURFACE_STYLE_FILL_AREA ( #731 ) ;
#216 = VERTEX_POINT ( 'NONE', #76 ) ;
#217 = CARTESIAN_POINT ( 'NONE',  ( 4.749999999999999112, 25.25000000000000000, 12.00000000000000000 ) ) ;
#218 = DIRECTION ( 'NONE',  ( -0.000000000000000000, -0.000000000000000000, -1.000000000000000000 ) ) ;
#219 = CARTESIAN_POINT ( 'NONE',  ( 160.0000000000000000, 0.000000000000000000, 0.000000000000000000 ) ) ;
#220 = FACE_OUTER_BOUND ( 'NONE', #468, .T. ) ;
#221 = EDGE_LOOP ( 'NONE', ( #620, #370, #533, #514 ) ) ;
#222 = AXIS2_PLACEMENT_3D ( 'NONE', #393, #231, #282 ) ;
#223 = ADVANCED_FACE ( 'NONE', ( #699 ), #192, .F. ) ;
#224 = DIRECTION ( 'NONE',  ( 1.000000000000000000, 0.000000000000000000, 0.000000000000000000 ) ) ;
#225 = EDGE_CURVE ( 'NONE', #162, #545, #7, .T. ) ;
#226 = CARTESIAN_POINT ( 'NONE',  ( 0.000000000000000000, 160.0000000000000000, 0.000000000000000000 ) ) ;
#227 = VERTEX_POINT ( 'NONE', #137 ) ;
#228 = CARTESIAN_POINT ( 'NONE',  ( 154.9500000000209923, 133.2999999999948102, 8.000000000000000000 ) ) ;
#229 = DIRECTION ( 'NONE',  ( 0.000000000000000000, -1.000000000000000000, 0.000000000000000000 ) ) ;
#230 = VERTEX_POINT ( 'NONE', #417 ) ;
#231 = DIRECTION ( 'NONE',  ( 0.000000000000000000, 0.000000000000000000, -1.000000000000000000 ) ) ;
#232 = CARTESIAN_POINT ( 'NONE',  ( 90.00000000000000000, 164.0000000000000000, 12.00000000000000000 ) ) ;
#233 = VERTEX_POINT ( 'NONE', #195 ) ;
#234 = AXIS2_PLACEMENT_3D ( 'NONE', #83, #212, #616 ) ;
#235 = AXIS2_PLACEMENT_3D ( 'NONE', #316, #601, #553 ) ;
#236 = DIRECTION ( 'NONE',  ( -1.000000000000000000, 0.000000000000000000, 0.000000000000000000 ) ) ;
#237 = CARTESIAN_POINT ( 'NONE',  ( 164.0000000000000000, 90.00000000000000000, 0.000000000000000000 ) ) ;
#238 = VERTEX_POINT ( 'NONE', #407 ) ;
#239 = CARTESIAN_POINT ( 'NONE',  ( 160.0000000000000000, 90.00000000000000000, 12.00000000000000000 ) ) ;
#240 = CARTESIAN_POINT ( 'NONE',  ( 160.0000000000000000, 90.00000000000000000, 0.000000000000000000 ) ) ;
#241 = VERTEX_POINT ( 'NONE', #20 ) ;
#242 = ADVANCED_FACE ( 'NONE', ( #186 ), #302, .F. ) ;
#243 = CARTESIAN_POINT ( 'NONE',  ( 25.25000000000000000, 25.25000000000000000, 7.000000000000000000 ) ) ;
#244 = CARTESIAN_POINT ( 'NONE',  ( 4.749999999999999112, 4.749999999999999112, 7.000000000000000000 ) ) ;
#245 = ORIENTED_EDGE ( 'NONE', *, *, #733, .T. ) ;
#246 = APPLICATION_PROTOCOL_DEFINITION ( 'draft international standard', 'automotive_design', 1998, #427 ) ;
#247 = VECTOR ( 'NONE', #336, 1000.000000000000000 ) ;
#248 = CARTESIAN_POINT ( 'NONE',  ( 25.25000000000000000, 4.749999999999999112, 12.00000000000000000 ) ) ;
#249 = VECTOR ( 'NONE', #48, 1000.000000000000000 ) ;
#250 = CARTESIAN_POINT ( 'NONE',  ( 0.000000000000000000, 0.000000000000000000, 12.00000000000000000 ) ) ;
#251 = EDGE_CURVE ( 'NONE', #227, #289, #598, .T. ) ;
#252 = ORIENTED_EDGE ( 'NONE', *, *, #93, .F. ) ;
#253 = DIRECTION ( 'NONE',  ( -1.000000000000000000, 0.000000000000000000, -0.000000000000000000 ) ) ;
#254 = DIRECTION ( 'NONE',  ( -0.000000000000000000, 0.000000000000000000, -1.000000000000000000 ) ) ;
#255 = ORIENTED_EDGE ( 'NONE', *, *, #181, .T. ) ;
#256 = DIRECTION ( 'NONE',  ( -0.000000000000000000, -0.000000000000000000, -1.000000000000000000 ) ) ;
#257 = CARTESIAN_POINT ( 'NONE',  ( 90.00000000000000000, 164.0000000000000000, 12.00000000000000000 ) ) ;
#258 = ORIENTED_EDGE ( 'NONE', *, *, #305, .T. ) ;
#259 = EDGE_CURVE ( 'NONE', #483, #272, #133, .T. ) ;
#260 = ADVANCED_FACE ( 'NONE', ( #16 ), #299, .F. ) ;
#261 = FACE_OUTER_BOUND ( 'NONE', #338, .T. ) ;
#262 = AXIS2_PLACEMENT_3D ( 'NONE', #276, #1, #457 ) ;
#263 = DIRECTION ( 'NONE',  ( 0.000000000000000000, -0.000000000000000000, -1.000000000000000000 ) ) ;
#264 = ORIENTED_EDGE ( 'NONE', *, *, #385, .T. ) ;
#265 = DIRECTION ( 'NONE',  ( 0.000000000000000000, -0.000000000000000000, 1.000000000000000000 ) ) ;
#266 =( LENGTH_UNIT ( ) NAMED_UNIT ( * ) SI_UNIT ( .MILLI., .METRE. ) );
#267 = ORIENTED_EDGE ( 'NONE', *, *, #683, .T. ) ;
#268 = PLANE ( 'NONE',  #426 ) ;
#269 = ORIENTED_EDGE ( 'NONE', *, *, #279, .F. ) ;
#270 = LINE ( 'NONE', #38, #55 ) ;
#271 = AXIS2_PLACEMENT_3D ( 'NONE', #349, #517, #627 ) ;
#272 = VERTEX_POINT ( 'NONE', #594 ) ;
#273 = VECTOR ( 'NONE', #648, 1000.000000000000000 ) ;
#274 = LINE ( 'NONE', #633, #552 ) ;
#275 = DIRECTION ( 'NONE',  ( -1.000000000000000000, 0.000000000000000000, 0.000000000000000000 ) ) ;
#276 = CARTESIAN_POINT ( 'NONE',  ( 151.5000000000198668, 133.2999999999948955, 12.00000000000000000 ) ) ;
#277 = DIRECTION ( 'NONE',  ( -1.000000000000000000, 0.000000000000000000, 0.000000000000000000 ) ) ;
#278 = ORIENTED_EDGE ( 'NONE', *, *, #494, .T. ) ;
#279 = EDGE_CURVE ( 'NONE', #8, #179, #10, .T. ) ;
#280 = ADVANCED_FACE ( 'NONE', ( #307 ), #198, .F. ) ;
#281 = PRODUCT ( 'CNC_Cage_Base_LL', 'CNC_Cage_Base_LL', '', ( #583 ) ) ;
#282 = DIRECTION ( 'NONE',  ( -1.000000000000000000, 0.000000000000000000, 0.000000000000000000 ) ) ;
#283 = LINE ( 'NONE', #232, #320 ) ;
#284 = ORIENTED_EDGE ( 'NONE', *, *, #521, .F. ) ;
#285 = AXIS2_PLACEMENT_3D ( 'NONE', #244, #183, #362 ) ;
#286 = PRODUCT_DEFINITION ( 'UNKNOWN', '', #668, #597 ) ;
#287 = CARTESIAN_POINT ( 'NONE',  ( 4.749999999999999112, 25.25000000000000000, 7.000000000000000000 ) ) ;
#288 = CARTESIAN_POINT ( 'NONE',  ( 151.5000000000209752, 133.2999999999948102, 0.000000000000000000 ) ) ;
#289 = VERTEX_POINT ( 'NONE', #581 ) ;
#290 = LINE ( 'NONE', #622, #462 ) ;
#291 = CARTESIAN_POINT ( 'NONE',  ( 25.25000000000000000, 4.749999999999999112, 7.000000000000000000 ) ) ;
#292 = ORIENTED_EDGE ( 'NONE', *, *, #470, .F. ) ;
#293 = CARTESIAN_POINT ( 'NONE',  ( 90.00000000000000000, 160.0000000000000000, 12.00000000000000000 ) ) ;
#294 = FACE_BOUND ( 'NONE', #131, .T. ) ;
#295 = PRODUCT_RELATED_PRODUCT_CATEGORY ( 'part', '', ( #281 ) ) ;
#296 = EDGE_LOOP ( 'NONE', ( #258, #112, #642, #495, #53, #154, #509, #518, #579, #145, #558, #373 ) ) ;
#297 = AXIS2_PLACEMENT_3D ( 'NONE', #351, #531, #298 ) ;
#298 = DIRECTION ( 'NONE',  ( -0.000000000000000000, 0.000000000000000000, -1.000000000000000000 ) ) ;
#299 = PLANE ( 'NONE',  #285 ) ;
#300 = ORIENTED_EDGE ( 'NONE', *, *, #13, .T. ) ;
#301 = CARTESIAN_POINT ( 'NONE',  ( 160.0000000000000000, 70.00000000000000000, 12.00000000000000000 ) ) ;
#302 = PLANE ( 'NONE',  #574 ) ;
#303 = VERTEX_POINT ( 'NONE', #727 ) ;
#304 = EDGE_CURVE ( 'NONE', #638, #230, #729, .T. ) ;
#305 = EDGE_CURVE ( 'NONE', #211, #227, #270, .T. ) ;
#306 = DIRECTION ( 'NONE',  ( 0.000000000000000000, 1.000000000000000000, 0.000000000000000000 ) ) ;
#307 = FACE_OUTER_BOUND ( 'NONE', #685, .T. ) ;
#308 = ORIENTED_EDGE ( 'NONE', *, *, #225, .F. ) ;
#309 = CARTESIAN_POINT ( 'NONE',  ( 4.749999999999999112, 25.25000000000000000, 12.00000000000000000 ) ) ;
#310 = AXIS2_PLACEMENT_3D ( 'NONE', #330, #51, #563 ) ;
#311 = CARTESIAN_POINT ( 'NONE',  ( 90.00000000000000000, 160.0000000000000000, 12.00000000000000000 ) ) ;
#312 = VERTEX_POINT ( 'NONE', #676 ) ;
#313 = EDGE_CURVE ( 'NONE', #379, #677, #490, .T. ) ;
#314 = CARTESIAN_POINT ( 'NONE',  ( 160.0000000000000000, 160.0000000000000000, 12.00000000000000000 ) ) ;
#315 = ORIENTED_EDGE ( 'NONE', *, *, #651, .T. ) ;
#316 = CARTESIAN_POINT ( 'NONE',  ( 151.5000000000209752, 133.2999999999948102, 0.000000000000000000 ) ) ;
#317 = DIRECTION ( 'NONE',  ( 0.000000000000000000, -1.000000000000000000, 0.000000000000000000 ) ) ;
#318 = ORIENTED_EDGE ( 'NONE', *, *, #113, .F. ) ;
#319 = CARTESIAN_POINT ( 'NONE',  ( 25.25000000000000000, 25.25000000000000000, 12.00000000000000000 ) ) ;
#320 = VECTOR ( 'NONE', #696, 1000.000000000000000 ) ;
#321 = VECTOR ( 'NONE', #453, 1000.000000000000000 ) ;
#322 = DIRECTION ( 'NONE',  ( 0.000000000000000000, -0.000000000000000000, -1.000000000000000000 ) ) ;
#323 = ORIENTED_EDGE ( 'NONE', *, *, #527, .T. ) ;
#324 = ADVANCED_FACE ( 'NONE', ( #88 ), #372, .F. ) ;
#325 = CARTESIAN_POINT ( 'NONE',  ( 160.0000000000000000, 70.00000000000000000, 12.00000000000000000 ) ) ;
#326 = CARTESIAN_POINT ( 'NONE',  ( 70.00000000000000000, 160.0000000000000000, 12.00000000000000000 ) ) ;
#327 = ORIENTED_EDGE ( 'NONE', *, *, #279, .T. ) ;
#328 = FACE_OUTER_BOUND ( 'NONE', #221, .T. ) ;
#329 = VERTEX_POINT ( 'NONE', #438 ) ;
#330 = CARTESIAN_POINT ( 'NONE',  ( 0.000000000000000000, 0.000000000000000000, 7.000000000000000000 ) ) ;
#331 = AXIS2_PLACEMENT_3D ( 'NONE', #168, #345, #224 ) ;
#332 = ORIENTED_EDGE ( 'NONE', *, *, #181, .F. ) ;
#333 = VECTOR ( 'NONE', #466, 1000.000000000000000 ) ;
#334 = DIRECTION ( 'NONE',  ( 0.000000000000000000, -1.000000000000000000, 0.000000000000000000 ) ) ;
#335 = ADVANCED_FACE ( 'NONE', ( #557 ), #268, .F. ) ;
#336 = DIRECTION ( 'NONE',  ( -0.000000000000000000, -0.000000000000000000, -1.000000000000000000 ) ) ;
#337 = EDGE_CURVE ( 'NONE', #418, #379, #544, .T. ) ;
#338 = EDGE_LOOP ( 'NONE', ( #300, #284, #41, #366 ) ) ;
#339 = DIRECTION ( 'NONE',  ( 0.000000000000000000, 1.000000000000000000, 0.000000000000000000 ) ) ;
#340 = LINE ( 'NONE', #2, #247 ) ;
#341 = ORIENTED_EDGE ( 'NONE', *, *, #465, .T. ) ;
#342 = LINE ( 'NONE', #575, #740 ) ;
#343 = ORIENTED_EDGE ( 'NONE', *, *, #592, .T. ) ;
#344 = AXIS2_PLACEMENT_3D ( 'NONE', #673, #610, #322 ) ;
#345 = DIRECTION ( 'NONE',  ( 0.000000000000000000, 0.000000000000000000, 1.000000000000000000 ) ) ;
#346 = CARTESIAN_POINT ( 'NONE',  ( 151.5000000000209752, 133.2999999999948102, 8.000000000000000000 ) ) ;
#347 = ORIENTED_EDGE ( 'NONE', *, *, #618, .F. ) ;
#348 = DIRECTION ( 'NONE',  ( -0.000000000000000000, -0.000000000000000000, -1.000000000000000000 ) ) ;
#349 = CARTESIAN_POINT ( 'NONE',  ( 0.000000000000000000, 0.000000000000000000, 0.000000000000000000 ) ) ;
#350 = ORIENTED_EDGE ( 'NONE', *, *, #506, .F. ) ;
#351 = CARTESIAN_POINT ( 'NONE',  ( 70.00000000000000000, 164.0000000000000000, 12.00000000000000000 ) ) ;
#352 = LINE ( 'NONE', #240, #671 ) ;
#353 = ORIENTED_EDGE ( 'NONE', *, *, #605, .F. ) ;
#354 = VECTOR ( 'NONE', #714, 1000.000000000000000 ) ;
#355 = AXIS2_PLACEMENT_3D ( 'NONE', #243, #127, #589 ) ;
#356 = CARTESIAN_POINT ( 'NONE',  ( 153.5000000000198668, 133.2999999999948955, 12.00000000000000000 ) ) ;
#357 = LINE ( 'NONE', #411, #188 ) ;
#358 = ADVANCED_FACE ( 'NONE', ( #381 ), #430, .F. ) ;
#359 = EDGE_LOOP ( 'NONE', ( #64, #647, #398, #670 ) ) ;
#360 = ADVANCED_FACE ( 'NONE', ( #95 ), #717, .F. ) ;
#361 = CARTESIAN_POINT ( 'NONE',  ( 90.00000000000000000, 160.0000000000000000, 0.000000000000000000 ) ) ;
#362 = DIRECTION ( 'NONE',  ( 0.000000000000000000, -0.000000000000000000, -1.000000000000000000 ) ) ;
#363 = ORIENTED_EDGE ( 'NONE', *, *, #150, .T. ) ;
#364 = DIRECTION ( 'NONE',  ( -1.000000000000000000, 0.000000000000000000, 0.000000000000000000 ) ) ;
#365 = DIRECTION ( 'NONE',  ( 0.000000000000000000, 1.000000000000000000, 0.000000000000000000 ) ) ;
#366 = ORIENTED_EDGE ( 'NONE', *, *, #708, .T. ) ;
#367 = VECTOR ( 'NONE', #504, 1000.000000000000000 ) ;
#368 =( GEOMETRIC_REPRESENTATION_CONTEXT ( 3 ) GLOBAL_UNCERTAINTY_ASSIGNED_CONTEXT ( ( #702 ) ) GLOBAL_UNIT_ASSIGNED_CONTEXT ( ( #266, #448, #165 ) ) REPRESENTATION_CONTEXT ( 'NONE', 'WORKASPACE' ) );
#369 = CARTESIAN_POINT ( 'NONE',  ( 149.5000000000198668, 133.2999999999948955, 12.00000000000000000 ) ) ;
#370 = ORIENTED_EDGE ( 'NONE', *, *, #385, .F. ) ;
#371 = LINE ( 'NONE', #325, #33 ) ;
#372 = PLANE ( 'NONE',  #526 ) ;
#373 = ORIENTED_EDGE ( 'NONE', *, *, #380, .T. ) ;
#374 = DIRECTION ( 'NONE',  ( -0.000000000000000000, -0.000000000000000000, -1.000000000000000000 ) ) ;
#375 = DIRECTION ( 'NONE',  ( 0.000000000000000000, -1.000000000000000000, 0.000000000000000000 ) ) ;
#376 = ADVANCED_FACE ( 'NONE', ( #328 ), #210, .F. ) ;
#377 = ORIENTED_EDGE ( 'NONE', *, *, #618, .T. ) ;
#378 = VECTOR ( 'NONE', #79, 1000.000000000000000 ) ;
#379 = VERTEX_POINT ( 'NONE', #669 ) ;
#380 = EDGE_CURVE ( 'NONE', #545, #211, #98, .T. ) ;
#381 = FACE_OUTER_BOUND ( 'NONE', #732, .T. ) ;
#382 = ORIENTED_EDGE ( 'NONE', *, *, #469, .T. ) ;
#383 = CARTESIAN_POINT ( 'NONE',  ( 164.0000000000000000, 70.00000000000000000, 12.00000000000000000 ) ) ;
#384 = ORIENTED_EDGE ( 'NONE', *, *, #571, .F. ) ;
#385 = EDGE_CURVE ( 'NONE', #595, #700, #547, .T. ) ;
#386 = CARTESIAN_POINT ( 'NONE',  ( 160.0000000000000000, 90.00000000000000000, 12.00000000000000000 ) ) ;
#387 = ADVANCED_FACE ( 'NONE', ( #559 ), #201, .F. ) ;
#388 = VECTOR ( 'NONE', #160, 1000.000000000000000 ) ;
#389 = CARTESIAN_POINT ( 'NONE',  ( 164.0000000000000000, 90.00000000000000000, 12.00000000000000000 ) ) ;
#390 = AXIS2_PLACEMENT_3D ( 'NONE', #239, #364, #182 ) ;
#391 = MANIFOLD_SOLID_BREP ( 'Cut-Extrude7', #175 ) ;
#392 = ORIENTED_EDGE ( 'NONE', *, *, #410, .F. ) ;
#393 = CARTESIAN_POINT ( 'NONE',  ( 151.5000000000209752, 133.2999999999948102, 8.000000000000000000 ) ) ;
#394 = DIRECTION ( 'NONE',  ( 0.000000000000000000, 1.000000000000000000, 0.000000000000000000 ) ) ;
#395 = ORIENTED_EDGE ( 'NONE', *, *, #71, .T. ) ;
#396 = CARTESIAN_POINT ( 'NONE',  ( 4.749999999999999112, 25.25000000000000000, 7.000000000000000000 ) ) ;
#397 = DIRECTION ( 'NONE',  ( -1.000000000000000000, 0.000000000000000000, 0.000000000000000000 ) ) ;
#398 = ORIENTED_EDGE ( 'NONE', *, *, #170, .F. ) ;
#399 = PLANE ( 'NONE',  #310 ) ;
#400 = LINE ( 'NONE', #631, #126 ) ;
#401 = VERTEX_POINT ( 'NONE', #724 ) ;
#402 = AXIS2_PLACEMENT_3D ( 'NONE', #132, #593, #253 ) ;
#403 = CARTESIAN_POINT ( 'NONE',  ( 25.25000000000000000, 25.25000000000000000, 7.000000000000000000 ) ) ;
#404 = DIRECTION ( 'NONE',  ( -0.000000000000000000, -0.000000000000000000, -1.000000000000000000 ) ) ;
#405 = ORIENTED_EDGE ( 'NONE', *, *, #206, .T. ) ;
#406 = CARTESIAN_POINT ( 'NONE',  ( 160.0000000000000000, 160.0000000000000000, 0.000000000000000000 ) ) ;
#407 = CARTESIAN_POINT ( 'NONE',  ( 70.00000000000000000, 164.0000000000000000, 0.000000000000000000 ) ) ;
#408 = ORIENTED_EDGE ( 'NONE', *, *, #204, .T. ) ;
#409 = LINE ( 'NONE', #248, #80 ) ;
#410 = EDGE_CURVE ( 'NONE', #216, #715, #568, .T. ) ;
#411 = CARTESIAN_POINT ( 'NONE',  ( 160.0000000000000000, 90.00000000000000000, 12.00000000000000000 ) ) ;
#412 = EDGE_CURVE ( 'NONE', #199, #629, #689, .T. ) ;
#413 = ORIENTED_EDGE ( 'NONE', *, *, #659, .F. ) ;
#414 = AXIS2_PLACEMENT_3D ( 'NONE', #250, #649, #653 ) ;
#415 = AXIS2_PLACEMENT_3D ( 'NONE', #484, #207, #27 ) ;
#416 = LINE ( 'NONE', #652, #43 ) ;
#417 = CARTESIAN_POINT ( 'NONE',  ( 149.5000000000198668, 133.2999999999948955, 8.000000000000000000 ) ) ;
#418 = VERTEX_POINT ( 'NONE', #682 ) ;
#419 = DIRECTION ( 'NONE',  ( -1.000000000000000000, 0.000000000000000000, 0.000000000000000000 ) ) ;
#420 = FACE_BOUND ( 'NONE', #739, .T. ) ;
#421 = ORIENTED_EDGE ( 'NONE', *, *, #470, .T. ) ;
#422 = LINE ( 'NONE', #85, #658 ) ;
#423 = DIRECTION ( 'NONE',  ( -1.000000000000000000, 0.000000000000000000, 0.000000000000000000 ) ) ;
#424 = ORIENTED_EDGE ( 'NONE', *, *, #251, .F. ) ;
#425 = VECTOR ( 'NONE', #624, 1000.000000000000000 ) ;
#426 = AXIS2_PLACEMENT_3D ( 'NONE', #314, #375, #263 ) ;
#427 = APPLICATION_CONTEXT ( 'automotive_design' ) ;
#428 = DIRECTION ( 'NONE',  ( 0.000000000000000000, 0.000000000000000000, 1.000000000000000000 ) ) ;
#429 = AXIS2_PLACEMENT_3D ( 'NONE', #609, #94, #87 ) ;
#430 = CYLINDRICAL_SURFACE ( 'NONE', #415, 2.000000000000001776 ) ;
#431 = ORIENTED_EDGE ( 'NONE', *, *, #454, .F. ) ;
#432 = CARTESIAN_POINT ( 'NONE',  ( 25.25000000000000000, 25.25000000000000000, 12.00000000000000000 ) ) ;
#433 = EDGE_CURVE ( 'NONE', #86, #17, #274, .T. ) ;
#434 = SURFACE_SIDE_STYLE ('',( #215 ) ) ;
#435 = CARTESIAN_POINT ( 'NONE',  ( 160.0000000000000000, 70.00000000000000000, 0.000000000000000000 ) ) ;
#436 = CARTESIAN_POINT ( 'NONE',  ( 0.000000000000000000, 0.000000000000000000, 0.000000000000000000 ) ) ;
#437 = ADVANCED_FACE ( 'NONE', ( #460 ), #399, .T. ) ;
#438 = CARTESIAN_POINT ( 'NONE',  ( 154.9500000000209923, 133.2999999999948102, 0.000000000000000000 ) ) ;
#439 = EDGE_CURVE ( 'NONE', #289, #611, #290, .T. ) ;
#440 = EDGE_LOOP ( 'NONE', ( #744, #408 ) ) ;
#441 = VECTOR ( 'NONE', #602, 1000.000000000000000 ) ;
#442 = DIRECTION ( 'NONE',  ( 0.000000000000000000, 1.000000000000000000, 0.000000000000000000 ) ) ;
#443 = ORIENTED_EDGE ( 'NONE', *, *, #410, .T. ) ;
#444 = PRESENTATION_STYLE_ASSIGNMENT (( #554 ) ) ;
#445 = VERTEX_POINT ( 'NONE', #217 ) ;
#446 = DIRECTION ( 'NONE',  ( 1.000000000000000000, 0.000000000000000000, 0.000000000000000000 ) ) ;
#447 = LINE ( 'NONE', #52, #101 ) ;
#448 =( NAMED_UNIT ( * ) PLANE_ANGLE_UNIT ( ) SI_UNIT ( $, .RADIAN. ) );
#449 = COLOUR_RGB ( '',0.7921568627450980005, 0.8196078431372548767, 0.9333333333333333481 ) ;
#450 = CARTESIAN_POINT ( 'NONE',  ( 90.00000000000000000, 164.0000000000000000, 12.00000000000000000 ) ) ;
#451 = VECTOR ( 'NONE', #256, 1000.000000000000000 ) ;
#452 = ORIENTED_EDGE ( 'NONE', *, *, #592, .F. ) ;
#453 = DIRECTION ( 'NONE',  ( -0.000000000000000000, -0.000000000000000000, -1.000000000000000000 ) ) ;
#454 = EDGE_CURVE ( 'NONE', #238, #401, #59, .T. ) ;
#455 = FACE_OUTER_BOUND ( 'NONE', #174, .T. ) ;
#456 = ORIENTED_EDGE ( 'NONE', *, *, #305, .F. ) ;
#457 = DIRECTION ( 'NONE',  ( 1.000000000000000000, 0.000000000000000000, 0.000000000000000000 ) ) ;
#458 = CARTESIAN_POINT ( 'NONE',  ( 153.5000000000198668, 133.2999999999948955, 12.00000000000000000 ) ) ;
#459 = EDGE_LOOP ( 'NONE', ( #108, #679 ) ) ;
#460 = FACE_OUTER_BOUND ( 'NONE', #719, .T. ) ;
#461 = FACE_OUTER_BOUND ( 'NONE', #615, .T. ) ;
#462 = VECTOR ( 'NONE', #737, 1000.000000000000000 ) ;
#463 = ORIENTED_EDGE ( 'NONE', *, *, #412, .T. ) ;
#464 = AXIS2_PLACEMENT_3D ( 'NONE', #584, #537, #136 ) ;
#465 = EDGE_CURVE ( 'NONE', #638, #70, #657, .T. ) ;
#466 = DIRECTION ( 'NONE',  ( -0.000000000000000000, -0.000000000000000000, -1.000000000000000000 ) ) ;
#467 = FACE_OUTER_BOUND ( 'NONE', #296, .T. ) ;
#468 = EDGE_LOOP ( 'NONE', ( #105, #28, #252, #713 ) ) ;
#469 = EDGE_CURVE ( 'NONE', #303, #445, #44, .T. ) ;
#470 = EDGE_CURVE ( 'NONE', #272, #233, #519, .T. ) ;
#471 = CARTESIAN_POINT ( 'NONE',  ( 0.000000000000000000, 0.000000000000000000, 12.00000000000000000 ) ) ;
#472 = DIRECTION ( 'NONE',  ( -0.000000000000000000, -0.000000000000000000, 1.000000000000000000 ) ) ;
#473 = ORIENTED_EDGE ( 'NONE', *, *, #259, .F. ) ;
#474 = CARTESIAN_POINT ( 'NONE',  ( 25.25000000000000000, 25.25000000000000000, 7.000000000000000000 ) ) ;
#475 = PLANE ( 'NONE',  #414 ) ;
#476 = ORIENTED_EDGE ( 'NONE', *, *, #71, .F. ) ;
#477 = VECTOR ( 'NONE', #334, 1000.000000000000000 ) ;
#478 = PLANE ( 'NONE',  #390 ) ;
#479 = DIRECTION ( 'NONE',  ( -1.000000000000000000, 0.000000000000000000, 0.000000000000000000 ) ) ;
#480 = EDGE_LOOP ( 'NONE', ( #245, #704, #599, #264 ) ) ;
#481 = FACE_OUTER_BOUND ( 'NONE', #120, .T. ) ;
#482 = CARTESIAN_POINT ( 'NONE',  ( 151.5000000000209752, 133.2999999999948102, 8.000000000000000000 ) ) ;
#483 = VERTEX_POINT ( 'NONE', #386 ) ;
#484 = CARTESIAN_POINT ( 'NONE',  ( 151.5000000000198668, 133.2999999999948955, 12.00000000000000000 ) ) ;
#485 = ORIENTED_EDGE ( 'NONE', *, *, #733, .F. ) ;
#486 = AXIS2_PLACEMENT_3D ( 'NONE', #346, #218, #397 ) ;
#487 = VECTOR ( 'NONE', #339, 1000.000000000000000 ) ;
#488 = DIRECTION ( 'NONE',  ( 0.000000000000000000, -0.000000000000000000, 1.000000000000000000 ) ) ;
#489 = VECTOR ( 'NONE', #546, 1000.000000000000000 ) ;
#490 = LINE ( 'NONE', #257, #441 ) ;
#491 = ORIENTED_EDGE ( 'NONE', *, *, #37, .T. ) ;
#492 = EDGE_CURVE ( 'NONE', #196, #17, #511, .T. ) ;
#493 = DIRECTION ( 'NONE',  ( 0.000000000000000000, 1.000000000000000000, 0.000000000000000000 ) ) ;
#494 = EDGE_CURVE ( 'NONE', #548, #677, #106, .T. ) ;
#495 = ORIENTED_EDGE ( 'NONE', *, *, #726, .T. ) ;
#496 =( NAMED_UNIT ( * ) SI_UNIT ( $, .STERADIAN. ) SOLID_ANGLE_UNIT ( ) );
#497 = CARTESIAN_POINT ( 'NONE',  ( 25.25000000000000000, 25.25000000000000000, 7.000000000000000000 ) ) ;
#498 = VERTEX_POINT ( 'NONE', #228 ) ;
#499 = CIRCLE ( 'NONE', #89, 3.450000000000008615 ) ;
#500 = CIRCLE ( 'NONE', #176, 2.000000000000001776 ) ;
#501 = DIRECTION ( 'NONE',  ( -1.000000000000000000, 0.000000000000000000, 0.000000000000000000 ) ) ;
#502 = CARTESIAN_POINT ( 'NONE',  ( 164.0000000000000000, 90.00000000000000000, 0.000000000000000000 ) ) ;
#503 = DIRECTION ( 'NONE',  ( 1.000000000000000000, 0.000000000000000000, 0.000000000000000000 ) ) ;
#504 = DIRECTION ( 'NONE',  ( 1.000000000000000000, 0.000000000000000000, 0.000000000000000000 ) ) ;
#505 = APPLICATION_CONTEXT ( 'automotive_design' ) ;
#506 = EDGE_CURVE ( 'NONE', #536, #216, #577, .T. ) ;
#507 = PLANE ( 'NONE',  #402 ) ;
#508 = DIRECTION ( 'NONE',  ( 0.000000000000000000, 0.000000000000000000, -1.000000000000000000 ) ) ;
#509 = ORIENTED_EDGE ( 'NONE', *, *, #259, .T. ) ;
#510 = EDGE_CURVE ( 'NONE', #70, #638, #612, .T. ) ;
#511 = LINE ( 'NONE', #742, #512 ) ;
#512 = VECTOR ( 'NONE', #446, 1000.000000000000000 ) ;
#513 = LINE ( 'NONE', #743, #550 ) ;
#514 = ORIENTED_EDGE ( 'NONE', *, *, #433, .T. ) ;
#515 = CARTESIAN_POINT ( 'NONE',  ( 90.30000000000001137, 0.000000000000000000, 0.000000000000000000 ) ) ;
#516 = EDGE_CURVE ( 'NONE', #199, #498, #91, .T. ) ;
#517 = DIRECTION ( 'NONE',  ( -0.000000000000000000, 0.000000000000000000, 1.000000000000000000 ) ) ;
#518 = ORIENTED_EDGE ( 'NONE', *, *, #571, .T. ) ;
#519 = LINE ( 'NONE', #56, #249 ) ;
#520 = UNCERTAINTY_MEASURE_WITH_UNIT (LENGTH_MEASURE( 1.000000000000000082E-05 ), #209, 'distance_accuracy_value', 'NONE');
#521 = EDGE_CURVE ( 'NONE', #39, #542, #157, .T. ) ;
#522 = PLANE ( 'NONE',  #680 ) ;
#523 = ORIENTED_EDGE ( 'NONE', *, *, #722, .T. ) ;
#524 = CARTESIAN_POINT ( 'NONE',  ( 70.00000000000000000, 160.0000000000000000, 12.00000000000000000 ) ) ;
#525 = DIRECTION ( 'NONE',  ( 0.000000000000000000, 1.000000000000000000, 0.000000000000000000 ) ) ;
#526 = AXIS2_PLACEMENT_3D ( 'NONE', #606, #155, #149 ) ;
#527 = EDGE_CURVE ( 'NONE', #303, #241, #686, .T. ) ;
#528 = ORIENTED_EDGE ( 'NONE', *, *, #92, .T. ) ;
#529 = VECTOR ( 'NONE', #540, 1000.000000000000000 ) ;
#530 = ADVANCED_FACE ( 'NONE', ( #745, #109 ), #507, .T. ) ;
#531 = DIRECTION ( 'NONE',  ( 1.000000000000000000, 0.000000000000000000, -0.000000000000000000 ) ) ;
#532 = CARTESIAN_POINT ( 'NONE',  ( 4.749999999999999112, 4.749999999999999112, 12.00000000000000000 ) ) ;
#533 = ORIENTED_EDGE ( 'NONE', *, *, #37, .F. ) ;
#534 = CARTESIAN_POINT ( 'NONE',  ( 0.000000000000000000, 90.30000000000001137, 0.000000000000000000 ) ) ;
#535 = CARTESIAN_POINT ( 'NONE',  ( 0.000000000000000000, 0.000000000000000000, 12.00000000000000000 ) ) ;
#536 = VERTEX_POINT ( 'NONE', #694 ) ;
#537 = DIRECTION ( 'NONE',  ( -1.000000000000000000, 0.000000000000000000, -0.000000000000000000 ) ) ;
#538 = CARTESIAN_POINT ( 'NONE',  ( 160.0000000000000000, 0.000000000000000000, 12.00000000000000000 ) ) ;
#539 = ORIENTED_EDGE ( 'NONE', *, *, #206, .F. ) ;
#540 = DIRECTION ( 'NONE',  ( 0.000000000000000000, -1.000000000000000000, 0.000000000000000000 ) ) ;
#541 = DIRECTION ( 'NONE',  ( 1.000000000000000000, 0.000000000000000000, -0.000000000000000000 ) ) ;
#542 = VERTEX_POINT ( 'NONE', #75 ) ;
#543 = DIRECTION ( 'NONE',  ( -0.000000000000000000, -0.000000000000000000, -1.000000000000000000 ) ) ;
#544 = LINE ( 'NONE', #614, #21 ) ;
#545 = VERTEX_POINT ( 'NONE', #524 ) ;
#546 = DIRECTION ( 'NONE',  ( -1.000000000000000000, 0.000000000000000000, 0.000000000000000000 ) ) ;
#547 = LINE ( 'NONE', #497, #621 ) ;
#548 = VERTEX_POINT ( 'NONE', #361 ) ;
#549 = EDGE_CURVE ( 'NONE', #17, #700, #409, .T. ) ;
#550 = VECTOR ( 'NONE', #687, 1000.000000000000000 ) ;
#551 = EDGE_CURVE ( 'NONE', #230, #81, #500, .T. ) ;
#552 = VECTOR ( 'NONE', #103, 1000.000000000000000 ) ;
#553 = DIRECTION ( 'NONE',  ( -1.000000000000000000, 0.000000000000000000, 0.000000000000000000 ) ) ;
#554 = SURFACE_STYLE_USAGE ( .BOTH. , #434 ) ;
#555 = ORIENTED_EDGE ( 'NONE', *, *, #706, .T. ) ;
#556 = CARTESIAN_POINT ( 'NONE',  ( 90.30000000000001137, 0.000000000000000000, 12.00000000000000000 ) ) ;
#557 = FACE_OUTER_BOUND ( 'NONE', #576, .T. ) ;
#558 = ORIENTED_EDGE ( 'NONE', *, *, #225, .T. ) ;
#559 = FACE_OUTER_BOUND ( 'NONE', #171, .T. ) ;
#560 = ORIENTED_EDGE ( 'NONE', *, *, #412, .F. ) ;
#561 = PRESENTATION_LAYER_ASSIGNMENT (  '', '', ( #128 ) ) ;
#562 = CIRCLE ( 'NONE', #429, 2.000000000000001776 ) ;
#563 = DIRECTION ( 'NONE',  ( 1.000000000000000000, 0.000000000000000000, 0.000000000000000000 ) ) ;
#564 = ORIENTED_EDGE ( 'NONE', *, *, #551, .F. ) ;
#565 = DIRECTION ( 'NONE',  ( -0.000000000000000000, -0.000000000000000000, -1.000000000000000000 ) ) ;
#566 = LINE ( 'NONE', #57, #367 ) ;
#567 = ORIENTED_EDGE ( 'NONE', *, *, #191, .F. ) ;
#568 = LINE ( 'NONE', #219, #388 ) ;
#569 = FACE_OUTER_BOUND ( 'NONE', #697, .T. ) ;
#570 = ORIENTED_EDGE ( 'NONE', *, *, #626, .F. ) ;
#571 = EDGE_CURVE ( 'NONE', #272, #418, #4, .T. ) ;
#572 = EDGE_CURVE ( 'NONE', #595, #303, #189, .T. ) ;
#573 = CARTESIAN_POINT ( 'NONE',  ( 70.00000000000000000, 164.0000000000000000, 0.000000000000000000 ) ) ;
#574 = AXIS2_PLACEMENT_3D ( 'NONE', #585, #541, #254 ) ;
#575 = CARTESIAN_POINT ( 'NONE',  ( 164.0000000000000000, 70.00000000000000000, 12.00000000000000000 ) ) ;
#576 = EDGE_LOOP ( 'NONE', ( #315, #184, #384, #421 ) ) ;
#577 = LINE ( 'NONE', #515, #163 ) ;
#578 = CYLINDRICAL_SURFACE ( 'NONE', #19, 2.000000000000001776 ) ;
#579 = ORIENTED_EDGE ( 'NONE', *, *, #337, .T. ) ;
#580 = PLANE ( 'NONE',  #355 ) ;
#581 = CARTESIAN_POINT ( 'NONE',  ( 160.0000000000000000, 0.000000000000000000, 12.00000000000000000 ) ) ;
#582 = ORIENTED_EDGE ( 'NONE', *, *, #454, .T. ) ;
#583 = PRODUCT_CONTEXT ( 'NONE', #427, 'mechanical' ) ;
#584 = CARTESIAN_POINT ( 'NONE',  ( 4.749999999999999112, 25.25000000000000000, 7.000000000000000000 ) ) ;
#585 = CARTESIAN_POINT ( 'NONE',  ( 0.000000000000000000, 90.30000000000001137, 12.00000000000000000 ) ) ;
#586 = VECTOR ( 'NONE', #141, 1000.000000000000000 ) ;
#587 = ORIENTED_EDGE ( 'NONE', *, *, #204, .F. ) ;
#588 = VECTOR ( 'NONE', #543, 1000.000000000000000 ) ;
#589 = DIRECTION ( 'NONE',  ( 0.000000000000000000, -0.000000000000000000, 1.000000000000000000 ) ) ;
#590 = DIRECTION ( 'NONE',  ( -0.000000000000000000, -0.000000000000000000, -1.000000000000000000 ) ) ;
#591 = ORIENTED_EDGE ( 'NONE', *, *, #722, .F. ) ;
#592 = EDGE_CURVE ( 'NONE', #227, #536, #62, .T. ) ;
#593 = DIRECTION ( 'NONE',  ( 0.000000000000000000, 0.000000000000000000, -1.000000000000000000 ) ) ;
#594 = CARTESIAN_POINT ( 'NONE',  ( 160.0000000000000000, 160.0000000000000000, 12.00000000000000000 ) ) ;
#595 = VERTEX_POINT ( 'NONE', #403 ) ;
#596 = LINE ( 'NONE', #293, #67 ) ;
#597 = PRODUCT_DEFINITION_CONTEXT ( 'detailed design', #505, 'design' ) ;
#598 = LINE ( 'NONE', #535, #586 ) ;
#599 = ORIENTED_EDGE ( 'NONE', *, *, #572, .F. ) ;
#600 = VECTOR ( 'NONE', #419, 1000.000000000000000 ) ;
#601 = DIRECTION ( 'NONE',  ( 0.000000000000000000, 0.000000000000000000, -1.000000000000000000 ) ) ;
#602 = DIRECTION ( 'NONE',  ( -0.000000000000000000, -0.000000000000000000, -1.000000000000000000 ) ) ;
#603 = EDGE_LOOP ( 'NONE', ( #143, #728, #156, #405 ) ) ;
#604 = CARTESIAN_POINT ( 'NONE',  ( 160.0000000000000000, 0.000000000000000000, 12.00000000000000000 ) ) ;
#605 = EDGE_CURVE ( 'NONE', #677, #238, #416, .T. ) ;
#606 = CARTESIAN_POINT ( 'NONE',  ( 164.0000000000000000, 70.00000000000000000, 12.00000000000000000 ) ) ;
#607 = ADVANCED_FACE ( 'NONE', ( #636 ), #643, .F. ) ;
#608 = ORIENTED_EDGE ( 'NONE', *, *, #708, .F. ) ;
#609 = CARTESIAN_POINT ( 'NONE',  ( 151.5000000000198668, 133.2999999999948955, 8.000000000000000000 ) ) ;
#610 = DIRECTION ( 'NONE',  ( 0.000000000000000000, -1.000000000000000000, 0.000000000000000000 ) ) ;
#611 = VERTEX_POINT ( 'NONE', #301 ) ;
#612 = CIRCLE ( 'NONE', #262, 2.000000000000001776 ) ;
#613 = DIRECTION ( 'NONE',  ( -1.000000000000000000, 0.000000000000000000, 0.000000000000000000 ) ) ;
#614 = CARTESIAN_POINT ( 'NONE',  ( 90.00000000000000000, 160.0000000000000000, 12.00000000000000000 ) ) ;
#615 = EDGE_LOOP ( 'NONE', ( #350, #570, #11, #431, #353, #691, #138, #332, #269, #99, #35, #392 ) ) ;
#616 = DIRECTION ( 'NONE',  ( 0.000000000000000000, 0.000000000000000000, -1.000000000000000000 ) ) ;
#617 = ORIENTED_EDGE ( 'NONE', *, *, #644, .T. ) ;
#618 = EDGE_CURVE ( 'NONE', #70, #81, #65, .T. ) ;
#619 = DIRECTION ( 'NONE',  ( 0.000000000000000000, -1.000000000000000000, 0.000000000000000000 ) ) ;
#620 = ORIENTED_EDGE ( 'NONE', *, *, #549, .T. ) ;
#621 = VECTOR ( 'NONE', #30, 1000.000000000000000 ) ;
#622 = CARTESIAN_POINT ( 'NONE',  ( 160.0000000000000000, 0.000000000000000000, 12.00000000000000000 ) ) ;
#623 = ADVANCED_FACE ( 'NONE', ( #698 ), #478, .F. ) ;
#624 = DIRECTION ( 'NONE',  ( 0.000000000000000000, 1.000000000000000000, 0.000000000000000000 ) ) ;
#625 = ORIENTED_EDGE ( 'NONE', *, *, #380, .F. ) ;
#626 = EDGE_CURVE ( 'NONE', #96, #536, #18, .T. ) ;
#627 = DIRECTION ( 'NONE',  ( 1.000000000000000000, 0.000000000000000000, 0.000000000000000000 ) ) ;
#628 = ADVANCED_FACE ( 'NONE', ( #118 ), #580, .F. ) ;
#629 = VERTEX_POINT ( 'NONE', #72 ) ;
#630 = DIRECTION ( 'NONE',  ( -0.000000000000000000, -0.000000000000000000, 1.000000000000000000 ) ) ;
#631 = CARTESIAN_POINT ( 'NONE',  ( 164.0000000000000000, 90.00000000000000000, 12.00000000000000000 ) ) ;
#632 = EDGE_LOOP ( 'NONE', ( #77, #452, #456, #363 ) ) ;
#633 = CARTESIAN_POINT ( 'NONE',  ( 25.25000000000000000, 4.749999999999999112, 7.000000000000000000 ) ) ;
#634 = CARTESIAN_POINT ( 'NONE',  ( 164.0000000000000000, 70.00000000000000000, 0.000000000000000000 ) ) ;
#635 = ORIENTED_EDGE ( 'NONE', *, *, #337, .F. ) ;
#636 = FACE_OUTER_BOUND ( 'NONE', #674, .T. ) ;
#637 = LINE ( 'NONE', #634, #718 ) ;
#638 = VERTEX_POINT ( 'NONE', #705 ) ;
#639 = APPLICATION_PROTOCOL_DEFINITION ( 'draft international standard', 'automotive_design', 1998, #505 ) ;
#640 = FACE_OUTER_BOUND ( 'NONE', #3, .T. ) ;
#641 = CARTESIAN_POINT ( 'NONE',  ( 0.000000000000000000, 160.0000000000000000, 12.00000000000000000 ) ) ;
#642 = ORIENTED_EDGE ( 'NONE', *, *, #439, .T. ) ;
#643 = PLANE ( 'NONE',  #464 ) ;
#644 = EDGE_CURVE ( 'NONE', #418, #548, #596, .T. ) ;
#645 = CARTESIAN_POINT ( 'NONE',  ( 148.0500000000209582, 133.2999999999948102, 8.000000000000000000 ) ) ;
#646 = CIRCLE ( 'NONE', #741, 3.450000000000008615 ) ;
#647 = ORIENTED_EDGE ( 'NONE', *, *, #97, .F. ) ;
#648 = DIRECTION ( 'NONE',  ( -1.000000000000000000, 0.000000000000000000, 0.000000000000000000 ) ) ;
#649 = DIRECTION ( 'NONE',  ( -0.000000000000000000, 0.000000000000000000, 1.000000000000000000 ) ) ;
#650 = ORIENTED_EDGE ( 'NONE', *, *, #492, .F. ) ;
#651 = EDGE_CURVE ( 'NONE', #233, #548, #194, .T. ) ;
#652 = CARTESIAN_POINT ( 'NONE',  ( 90.00000000000000000, 164.0000000000000000, 0.000000000000000000 ) ) ;
#653 = DIRECTION ( 'NONE',  ( 1.000000000000000000, 0.000000000000000000, 0.000000000000000000 ) ) ;
#654 = ORIENTED_EDGE ( 'NONE', *, *, #551, .T. ) ;
#655 = DIRECTION ( 'NONE',  ( 0.000000000000000000, 0.000000000000000000, 1.000000000000000000 ) ) ;
#656 = ORIENTED_EDGE ( 'NONE', *, *, #735, .T. ) ;
#657 = CIRCLE ( 'NONE', #331, 2.000000000000001776 ) ;
#658 = VECTOR ( 'NONE', #613, 1000.000000000000000 ) ;
#659 = EDGE_CURVE ( 'NONE', #445, #196, #23, .T. ) ;
#660 = DIRECTION ( 'NONE',  ( 1.000000000000000000, 0.000000000000000000, 0.000000000000000000 ) ) ;
#661 = ADVANCED_FACE ( 'NONE', ( #640 ), #121, .F. ) ;
#662 = DIRECTION ( 'NONE',  ( -1.000000000000000000, 0.000000000000000000, 0.000000000000000000 ) ) ;
#663 = ORIENTED_EDGE ( 'NONE', *, *, #439, .F. ) ;
#664 = LINE ( 'NONE', #604, #451 ) ;
#665 = DIRECTION ( 'NONE',  ( -0.000000000000000000, -0.000000000000000000, -1.000000000000000000 ) ) ;
#666 = DIRECTION ( 'NONE',  ( 1.000000000000000000, 0.000000000000000000, 0.000000000000000000 ) ) ;
#667 = CARTESIAN_POINT ( 'NONE',  ( 160.0000000000000000, 70.00000000000000000, 0.000000000000000000 ) ) ;
#668 = PRODUCT_DEFINITION_FORMATION_WITH_SPECIFIED_SOURCE ( 'ANY', '', #281, .NOT_KNOWN. ) ;
#669 = CARTESIAN_POINT ( 'NONE',  ( 90.00000000000000000, 164.0000000000000000, 12.00000000000000000 ) ) ;
#670 = ORIENTED_EDGE ( 'NONE', *, *, #521, .T. ) ;
#671 = VECTOR ( 'NONE', #525, 1000.000000000000000 ) ;
#672 = VECTOR ( 'NONE', #619, 1000.000000000000000 ) ;
#673 = CARTESIAN_POINT ( 'NONE',  ( 70.00000000000000000, 160.0000000000000000, 12.00000000000000000 ) ) ;
#674 = EDGE_LOOP ( 'NONE', ( #193, #539, #84, #382 ) ) ;
#675 = EDGE_CURVE ( 'NONE', #289, #216, #664, .T. ) ;
#676 = CARTESIAN_POINT ( 'NONE',  ( 164.0000000000000000, 90.00000000000000000, 12.00000000000000000 ) ) ;
#677 = VERTEX_POINT ( 'NONE', #205 ) ;
#678 = CARTESIAN_POINT ( 'NONE',  ( 164.0000000000000000, 70.00000000000000000, 12.00000000000000000 ) ) ;
#679 = ORIENTED_EDGE ( 'NONE', *, *, #735, .F. ) ;
#680 = AXIS2_PLACEMENT_3D ( 'NONE', #389, #229, #173 ) ;
#681 = ADVANCED_FACE ( 'NONE', ( #481 ), #29, .F. ) ;
#682 = CARTESIAN_POINT ( 'NONE',  ( 90.00000000000000000, 160.0000000000000000, 12.00000000000000000 ) ) ;
#683 = EDGE_CURVE ( 'NONE', #545, #401, #197, .T. ) ;
#684 = DIRECTION ( 'NONE',  ( 0.000000000000000000, -0.000000000000000000, -1.000000000000000000 ) ) ;
#685 = EDGE_LOOP ( 'NONE', ( #443, #608, #663, #61 ) ) ;
#686 = LINE ( 'NONE', #396, #672 ) ;
#687 = DIRECTION ( 'NONE',  ( -0.000000000000000000, -0.000000000000000000, -1.000000000000000000 ) ) ;
#688 = EDGE_LOOP ( 'NONE', ( #255, #292, #473, #730 ) ) ;
#689 = LINE ( 'NONE', #172, #66 ) ;
#690 = LINE ( 'NONE', #734, #693 ) ;
#691 = ORIENTED_EDGE ( 'NONE', *, *, #494, .F. ) ;
#692 = VECTOR ( 'NONE', #666, 1000.000000000000000 ) ;
#693 = VECTOR ( 'NONE', #404, 1000.000000000000000 ) ;
#694 = CARTESIAN_POINT ( 'NONE',  ( 0.000000000000000000, 0.000000000000000000, 0.000000000000000000 ) ) ;
#695 = VECTOR ( 'NONE', #348, 1000.000000000000000 ) ;
#696 = DIRECTION ( 'NONE',  ( -1.000000000000000000, 0.000000000000000000, 0.000000000000000000 ) ) ;
#697 = EDGE_LOOP ( 'NONE', ( #327, #567, #318, #31 ) ) ;
#698 = FACE_OUTER_BOUND ( 'NONE', #688, .T. ) ;
#699 = FACE_OUTER_BOUND ( 'NONE', #50, .T. ) ;
#700 = VERTEX_POINT ( 'NONE', #432 ) ;
#701 = DIRECTION ( 'NONE',  ( 0.000000000000000000, 0.000000000000000000, -1.000000000000000000 ) ) ;
#702 = UNCERTAINTY_MEASURE_WITH_UNIT (LENGTH_MEASURE( 1.000000000000000082E-05 ), #266, 'distance_accuracy_value', 'NONE');
#703 = DIRECTION ( 'NONE',  ( -1.000000000000000000, 0.000000000000000000, 0.000000000000000000 ) ) ;
#704 = ORIENTED_EDGE ( 'NONE', *, *, #469, .F. ) ;
#705 = CARTESIAN_POINT ( 'NONE',  ( 149.5000000000198668, 133.2999999999948955, 12.00000000000000000 ) ) ;
#706 = EDGE_CURVE ( 'NONE', #401, #96, #422, .T. ) ;
#707 = DIRECTION ( 'NONE',  ( 0.000000000000000000, 0.000000000000000000, -1.000000000000000000 ) ) ;
#708 = EDGE_CURVE ( 'NONE', #611, #715, #147, .T. ) ;
#709 = AXIS2_PLACEMENT_3D ( 'NONE', #311, #703, #712 ) ;
#710 = EDGE_LOOP ( 'NONE', ( #587, #395, #656, #560 ) ) ;
#711 = DIRECTION ( 'NONE',  ( -0.000000000000000000, -0.000000000000000000, -1.000000000000000000 ) ) ;
#712 = DIRECTION ( 'NONE',  ( 0.000000000000000000, 0.000000000000000000, 1.000000000000000000 ) ) ;
#713 = ORIENTED_EDGE ( 'NONE', *, *, #313, .T. ) ;
#714 = DIRECTION ( 'NONE',  ( 0.000000000000000000, 1.000000000000000000, 0.000000000000000000 ) ) ;
#715 = VERTEX_POINT ( 'NONE', #667 ) ;
#716 = CARTESIAN_POINT ( 'NONE',  ( 70.00000000000000000, 160.0000000000000000, 12.00000000000000000 ) ) ;
#717 = PLANE ( 'NONE',  #344 ) ;
#718 = VECTOR ( 'NONE', #394, 1000.000000000000000 ) ;
#719 = EDGE_LOOP ( 'NONE', ( #323, #528, #491, #58 ) ) ;
#720 = VECTOR ( 'NONE', #73, 1000.000000000000000 ) ;
#721 = AXIS2_PLACEMENT_3D ( 'NONE', #556, #723, #265 ) ;
#722 = EDGE_CURVE ( 'NONE', #81, #230, #562, .T. ) ;
#723 = DIRECTION ( 'NONE',  ( 0.000000000000000000, 1.000000000000000000, 0.000000000000000000 ) ) ;
#724 = CARTESIAN_POINT ( 'NONE',  ( 70.00000000000000000, 160.0000000000000000, 0.000000000000000000 ) ) ;
#725 = ORIENTED_EDGE ( 'NONE', *, *, #549, .F. ) ;
#726 = EDGE_CURVE ( 'NONE', #611, #39, #371, .T. ) ;
#727 = CARTESIAN_POINT ( 'NONE',  ( 4.749999999999999112, 25.25000000000000000, 7.000000000000000000 ) ) ;
#728 = ORIENTED_EDGE ( 'NONE', *, *, #433, .F. ) ;
#729 = LINE ( 'NONE', #369, #190 ) ;
#730 = ORIENTED_EDGE ( 'NONE', *, *, #191, .T. ) ;
#731 = FILL_AREA_STYLE ('',( #144 ) ) ;
#732 = EDGE_LOOP ( 'NONE', ( #341, #377, #523, #22 ) ) ;
#733 = EDGE_CURVE ( 'NONE', #700, #445, #152, .T. ) ;
#734 = CARTESIAN_POINT ( 'NONE',  ( 164.0000000000000000, 90.00000000000000000, 12.00000000000000000 ) ) ;
#735 = EDGE_CURVE ( 'NONE', #329, #629, #164, .T. ) ;
#736 = ADVANCED_FACE ( 'NONE', ( #261 ), #82, .F. ) ;
#737 = DIRECTION ( 'NONE',  ( 0.000000000000000000, 1.000000000000000000, 0.000000000000000000 ) ) ;
#738 = CARTESIAN_POINT ( 'NONE',  ( 151.5000000000198668, 133.2999999999948955, 12.00000000000000000 ) ) ;
#739 = EDGE_LOOP ( 'NONE', ( #413, #485, #725, #650 ) ) ;
#740 = VECTOR ( 'NONE', #365, 1000.000000000000000 ) ;
#741 = AXIS2_PLACEMENT_3D ( 'NONE', #482, #707, #479 ) ;
#742 = CARTESIAN_POINT ( 'NONE',  ( 4.749999999999999112, 4.749999999999999112, 12.00000000000000000 ) ) ;
#743 = CARTESIAN_POINT ( 'NONE',  ( 0.000000000000000000, 160.0000000000000000, 12.00000000000000000 ) ) ;
#744 = ORIENTED_EDGE ( 'NONE', *, *, #516, .T. ) ;
#745 = FACE_BOUND ( 'NONE', #213, .T. ) ;
#746 = LINE ( 'NONE', #291, #425 ) ;
#747 = ORIENTED_EDGE ( 'NONE', *, *, #313, .F. ) ;
ENDSEC;
END-ISO-10303-21;
