ISO-10303-21;
HEADER;
FILE_DESCRIPTION (( 'STEP AP214' ),
    '1' );
FILE_NAME ('CNC_Cage_Post_Upper_LR.STEP',
    '2026-08-12T22:35:38',
    ( '' ),
    ( '' ),
    'SwSTEP 2.0',
    'SolidWorks 2026',
    '' );
FILE_SCHEMA (( 'AUTOMOTIVE_DESIGN' ));
ENDSEC;

DATA;
#1 = EDGE_CURVE ( 'NONE', #525, #499, #430, .T. ) ;
#2 = ORIENTED_EDGE ( 'NONE', *, *, #549, .F. ) ;
#3 = VECTOR ( 'NONE', #595, 1000.000000000000000 ) ;
#4 = LINE ( 'NONE', #322, #64 ) ;
#5 = VERTEX_POINT ( 'NONE', #25 ) ;
#6 = FACE_BOUND ( 'NONE', #93, .T. ) ;
#7 = ORIENTED_EDGE ( 'NONE', *, *, #400, .T. ) ;
#8 = LINE ( 'NONE', #373, #249 ) ;
#9 = EDGE_LOOP ( 'NONE', ( #366, #323, #321, #275 ) ) ;
#10 = ADVANCED_FACE ( 'NONE', ( #341 ), #584, .F. ) ;
#11 = VECTOR ( 'NONE', #301, 1000.000000000000000 ) ;
#12 = CARTESIAN_POINT ( 'NONE',  ( 15.00000000000000000, -10.25000000000000000, 130.2500000000000000 ) ) ;
#13 = VECTOR ( 'NONE', #578, 1000.000000000000000 ) ;
#14 = ORIENTED_EDGE ( 'NONE', *, *, #42, .T. ) ;
#15 = VERTEX_POINT ( 'NONE', #72 ) ;
#16 = PRODUCT_DEFINITION ( 'General', '', #131, #94 ) ;
#17 = PLANE ( 'NONE',  #398 ) ;
#18 = CARTESIAN_POINT ( 'NONE',  ( 10.00000000000000000, -10.00000000000000000, 0.000000000000000000 ) ) ;
#19 = VERTEX_POINT ( 'NONE', #536 ) ;
#20 = DIRECTION ( 'NONE',  ( 1.000000000000000000, 0.000000000000000000, 0.000000000000000000 ) ) ;
#21 = EDGE_LOOP ( 'NONE', ( #57, #62, #114, #473 ) ) ;
#22 = ADVANCED_FACE ( 'NONE', ( #126 ), #582, .F. ) ;
#23 = ORIENTED_EDGE ( 'NONE', *, *, #102, .T. ) ;
#24 = DIRECTION ( 'NONE',  ( -0.000000000000000000, -1.000000000000000000, -0.000000000000000000 ) ) ;
#25 = CARTESIAN_POINT ( 'NONE',  ( 0.000000000000000000, 10.25000000000000000, 109.7500000000000000 ) ) ;
#26 = AXIS2_PLACEMENT_3D ( 'NONE', #66, #116, #293 ) ;
#27 = CARTESIAN_POINT ( 'NONE',  ( 15.00000000000000000, 15.00000000000000000, 0.000000000000000000 ) ) ;
#28 = LINE ( 'NONE', #487, #80 ) ;
#29 = PLANE ( 'NONE',  #26 ) ;
#30 = CARTESIAN_POINT ( 'NONE',  ( 15.00000000000000000, -15.00000000000000000, 135.0000000000000000 ) ) ;
#31 = DIRECTION ( 'NONE',  ( 1.000000000000000000, -0.000000000000000000, -0.000000000000000000 ) ) ;
#32 = EDGE_CURVE ( 'NONE', #325, #83, #28, .T. ) ;
#33 = CARTESIAN_POINT ( 'NONE',  ( 0.000000000000000000, 0.000000000000000000, 135.0000000000000000 ) ) ;
#34 = VECTOR ( 'NONE', #24, 1000.000000000000000 ) ;
#35 = VECTOR ( 'NONE', #179, 1000.000000000000000 ) ;
#36 = CARTESIAN_POINT ( 'NONE',  ( 10.00000000000000000, -10.00000000000000000, -10.00000000000000000 ) ) ;
#37 = CARTESIAN_POINT ( 'NONE',  ( -15.00000000000000000, -15.00000000000000000, 135.0000000000000000 ) ) ;
#38 = VERTEX_POINT ( 'NONE', #483 ) ;
#39 = CARTESIAN_POINT ( 'NONE',  ( -15.00000000000000000, -15.00000000000000000, 0.000000000000000000 ) ) ;
#40 = LINE ( 'NONE', #417, #149 ) ;
#41 = ORIENTED_EDGE ( 'NONE', *, *, #247, .T. ) ;
#42 = EDGE_CURVE ( 'NONE', #542, #262, #165, .T. ) ;
#43 = FILL_AREA_STYLE_COLOUR ( '', #543 ) ;
#44 = VERTEX_POINT ( 'NONE', #303 ) ;
#45 = AXIS2_PLACEMENT_3D ( 'NONE', #571, #351, #345 ) ;
#46 = DIRECTION ( 'NONE',  ( 1.000000000000000000, 0.000000000000000000, 0.000000000000000000 ) ) ;
#47 = CARTESIAN_POINT ( 'NONE',  ( -10.25000000000000000, 0.000000000000000000, 109.7500000000000000 ) ) ;
#48 = EDGE_LOOP ( 'NONE', ( #427, #277, #14, #232, #238, #287, #547, #176 ) ) ;
#49 = ADVANCED_FACE ( 'NONE', ( #577 ), #209, .F. ) ;
#50 = ORIENTED_EDGE ( 'NONE', *, *, #379, .F. ) ;
#51 = EDGE_CURVE ( 'NONE', #557, #409, #206, .T. ) ;
#52 = CARTESIAN_POINT ( 'NONE',  ( -10.25000000000000000, 0.000000000000000000, 130.2500000000000000 ) ) ;
#53 = ORIENTED_EDGE ( 'NONE', *, *, #510, .T. ) ;
#54 = VECTOR ( 'NONE', #79, 1000.000000000000000 ) ;
#55 = AXIS2_PLACEMENT_3D ( 'NONE', #132, #185, #221 ) ;
#56 = DIRECTION ( 'NONE',  ( 0.000000000000000000, 0.000000000000000000, 1.000000000000000000 ) ) ;
#57 = ORIENTED_EDGE ( 'NONE', *, *, #294, .F. ) ;
#58 = CARTESIAN_POINT ( 'NONE',  ( -15.00000000000000000, -15.00000000000000000, 135.0000000000000000 ) ) ;
#59 = ORIENTED_EDGE ( 'NONE', *, *, #365, .F. ) ;
#60 = EDGE_CURVE ( 'NONE', #44, #420, #349, .T. ) ;
#61 = CARTESIAN_POINT ( 'NONE',  ( 15.00000000000000000, 10.25000000000000000, 109.7500000000000000 ) ) ;
#62 = ORIENTED_EDGE ( 'NONE', *, *, #225, .F. ) ;
#63 = DIRECTION ( 'NONE',  ( -1.000000000000000000, 0.000000000000000000, -0.000000000000000000 ) ) ;
#64 = VECTOR ( 'NONE', #328, 1000.000000000000000 ) ;
#65 = VERTEX_POINT ( 'NONE', #448 ) ;
#66 = CARTESIAN_POINT ( 'NONE',  ( 15.00000000000000000, -15.00000000000000000, 135.0000000000000000 ) ) ;
#67 = EDGE_CURVE ( 'NONE', #557, #65, #352, .T. ) ;
#68 = EDGE_LOOP ( 'NONE', ( #512, #560, #425, #105 ) ) ;
#69 = CARTESIAN_POINT ( 'NONE',  ( 10.25000000000000000, 0.000000000000000000, 130.2500000000000000 ) ) ;
#70 = DIRECTION ( 'NONE',  ( 0.000000000000000000, 0.000000000000000000, 1.000000000000000000 ) ) ;
#71 = CARTESIAN_POINT ( 'NONE',  ( 15.00000000000000000, 15.00000000000000000, 135.0000000000000000 ) ) ;
#72 = CARTESIAN_POINT ( 'NONE',  ( -15.00000000000000000, 15.00000000000000000, 0.000000000000000000 ) ) ;
#73 = VECTOR ( 'NONE', #162, 1000.000000000000000 ) ;
#74 = CARTESIAN_POINT ( 'NONE',  ( 0.000000000000000000, -10.25000000000000000, 130.2500000000000000 ) ) ;
#75 = CARTESIAN_POINT ( 'NONE',  ( 10.25000000000000000, -15.00000000000000000, 109.7500000000000000 ) ) ;
#76 = EDGE_CURVE ( 'NONE', #19, #354, #259, .T. ) ;
#77 = CARTESIAN_POINT ( 'NONE',  ( 0.000000000000000000, -10.25000000000000000, 109.7500000000000000 ) ) ;
#78 = DIRECTION ( 'NONE',  ( -1.000000000000000000, 0.000000000000000000, 0.000000000000000000 ) ) ;
#79 = DIRECTION ( 'NONE',  ( -0.000000000000000000, -1.000000000000000000, -0.000000000000000000 ) ) ;
#80 = VECTOR ( 'NONE', #439, 1000.000000000000000 ) ;
#81 = ADVANCED_FACE ( 'NONE', ( #246 ), #161, .T. ) ;
#82 = PLANE ( 'NONE',  #591 ) ;
#83 = VERTEX_POINT ( 'NONE', #253 ) ;
#84 = DIRECTION ( 'NONE',  ( 1.000000000000000000, 0.000000000000000000, 0.000000000000000000 ) ) ;
#85 = ORIENTED_EDGE ( 'NONE', *, *, #537, .T. ) ;
#86 = APPLICATION_PROTOCOL_DEFINITION ( 'draft international standard', 'automotive_design', 1998, #489 ) ;
#87 = ADVANCED_BREP_SHAPE_REPRESENTATION ( 'CNC_Cage_Post_Upper_LR', ( #145, #55 ), #494 ) ;
#88 =( NAMED_UNIT ( * ) SI_UNIT ( $, .STERADIAN. ) SOLID_ANGLE_UNIT ( ) );
#89 = ORIENTED_EDGE ( 'NONE', *, *, #319, .T. ) ;
#90 = VECTOR ( 'NONE', #380, 1000.000000000000000 ) ;
#91 = CARTESIAN_POINT ( 'NONE',  ( -10.25000000000000000, 0.000000000000000000, 130.2500000000000000 ) ) ;
#92 = FACE_BOUND ( 'NONE', #383, .T. ) ;
#93 = EDGE_LOOP ( 'NONE', ( #103, #570, #23, #108 ) ) ;
#94 = PRODUCT_DEFINITION_CONTEXT ( 'detailed design', #489, 'design' ) ;
#95 = PLANE ( 'NONE',  #437 ) ;
#96 = ORIENTED_EDGE ( 'NONE', *, *, #567, .T. ) ;
#97 = LINE ( 'NONE', #12, #90 ) ;
#98 = ORIENTED_EDGE ( 'NONE', *, *, #51, .F. ) ;
#99 = VECTOR ( 'NONE', #387, 1000.000000000000000 ) ;
#100 = VECTOR ( 'NONE', #316, 1000.000000000000000 ) ;
#101 = DIRECTION ( 'NONE',  ( 1.000000000000000000, 0.000000000000000000, 0.000000000000000000 ) ) ;
#102 = EDGE_CURVE ( 'NONE', #475, #525, #401, .T. ) ;
#103 = ORIENTED_EDGE ( 'NONE', *, *, #294, .T. ) ;
#104 = LINE ( 'NONE', #468, #141 ) ;
#105 = ORIENTED_EDGE ( 'NONE', *, *, #472, .T. ) ;
#106 = ORIENTED_EDGE ( 'NONE', *, *, #67, .T. ) ;
#107 = CARTESIAN_POINT ( 'NONE',  ( -15.00000000000000000, 15.00000000000000000, 0.000000000000000000 ) ) ;
#108 = ORIENTED_EDGE ( 'NONE', *, *, #1, .T. ) ;
#109 = EDGE_CURVE ( 'NONE', #265, #44, #390, .T. ) ;
#110 = ORIENTED_EDGE ( 'NONE', *, *, #338, .F. ) ;
#111 = AXIS2_PLACEMENT_3D ( 'NONE', #33, #295, #163 ) ;
#112 = AXIS2_PLACEMENT_3D ( 'NONE', #432, #20, #205 ) ;
#113 = DIRECTION ( 'NONE',  ( 1.000000000000000000, -0.000000000000000000, -0.000000000000000000 ) ) ;
#114 = ORIENTED_EDGE ( 'NONE', *, *, #310, .T. ) ;
#115 = ORIENTED_EDGE ( 'NONE', *, *, #414, .T. ) ;
#116 = DIRECTION ( 'NONE',  ( -1.000000000000000000, 0.000000000000000000, 0.000000000000000000 ) ) ;
#117 = FACE_OUTER_BOUND ( 'NONE', #308, .T. ) ;
#118 = LINE ( 'NONE', #297, #168 ) ;
#119 = CARTESIAN_POINT ( 'NONE',  ( 0.000000000000000000, 10.25000000000000000, 130.2500000000000000 ) ) ;
#120 = LINE ( 'NONE', #434, #177 ) ;
#121 = DIRECTION ( 'NONE',  ( 0.000000000000000000, 0.000000000000000000, 1.000000000000000000 ) ) ;
#122 = ADVANCED_FACE ( 'NONE', ( #117 ), #443, .F. ) ;
#123 = DIRECTION ( 'NONE',  ( 0.000000000000000000, 1.000000000000000000, 0.000000000000000000 ) ) ;
#124 = DIRECTION ( 'NONE',  ( -0.000000000000000000, -1.000000000000000000, -0.000000000000000000 ) ) ;
#125 =( NAMED_UNIT ( * ) SI_UNIT ( $, .STERADIAN. ) SOLID_ANGLE_UNIT ( ) );
#126 = FACE_OUTER_BOUND ( 'NONE', #139, .T. ) ;
#127 = EDGE_CURVE ( 'NONE', #354, #557, #435, .T. ) ;
#128 = LINE ( 'NONE', #36, #524 ) ;
#129 = DIRECTION ( 'NONE',  ( 1.000000000000000000, -0.000000000000000000, -0.000000000000000000 ) ) ;
#130 = VERTEX_POINT ( 'NONE', #573 ) ;
#131 = PRODUCT_DEFINITION_FORMATION_WITH_SPECIFIED_SOURCE ( 'Symmetric', '', #257, .NOT_KNOWN. ) ;
#132 = CARTESIAN_POINT ( 'NONE',  ( 0.000000000000000000, 0.000000000000000000, 0.000000000000000000 ) ) ;
#133 = LINE ( 'NONE', #271, #574 ) ;
#134 = ORIENTED_EDGE ( 'NONE', *, *, #529, .F. ) ;
#135 = CARTESIAN_POINT ( 'NONE',  ( 15.00000000000000000, -15.00000000000000000, 135.0000000000000000 ) ) ;
#136 = FILL_AREA_STYLE ('',( #43 ) ) ;
#137 = ORIENTED_EDGE ( 'NONE', *, *, #465, .F. ) ;
#138 = LINE ( 'NONE', #453, #504 ) ;
#139 = EDGE_LOOP ( 'NONE', ( #496, #451, #137, #509 ) ) ;
#140 = EDGE_CURVE ( 'NONE', #562, #325, #527, .T. ) ;
#141 = VECTOR ( 'NONE', #522, 1000.000000000000000 ) ;
#142 = ORIENTED_EDGE ( 'NONE', *, *, #394, .F. ) ;
#143 = CARTESIAN_POINT ( 'NONE',  ( 10.00000000000000000, -10.00000000000000000, -10.00000000000000000 ) ) ;
#144 = ORIENTED_EDGE ( 'NONE', *, *, #520, .F. ) ;
#145 = MANIFOLD_SOLID_BREP ( 'Cut-Extrude3', #204 ) ;
#146 = EDGE_CURVE ( 'NONE', #38, #463, #222, .T. ) ;
#147 = CARTESIAN_POINT ( 'NONE',  ( 10.25000000000000000, 0.000000000000000000, 130.2500000000000000 ) ) ;
#148 = ORIENTED_EDGE ( 'NONE', *, *, #319, .F. ) ;
#149 = VECTOR ( 'NONE', #189, 1000.000000000000000 ) ;
#150 = CARTESIAN_POINT ( 'NONE',  ( -10.25000000000000000, -15.00000000000000000, 109.7500000000000000 ) ) ;
#151 = ORIENTED_EDGE ( 'NONE', *, *, #207, .T. ) ;
#152 = LINE ( 'NONE', #235, #446 ) ;
#153 = VERTEX_POINT ( 'NONE', #264 ) ;
#154 = EDGE_CURVE ( 'NONE', #265, #458, #133, .T. ) ;
#155 = ORIENTED_EDGE ( 'NONE', *, *, #154, .F. ) ;
#156 = DIRECTION ( 'NONE',  ( -1.000000000000000000, -0.000000000000000000, -0.000000000000000000 ) ) ;
#157 = ORIENTED_EDGE ( 'NONE', *, *, #459, .F. ) ;
#158 = ADVANCED_FACE ( 'NONE', ( #498 ), #588, .F. ) ;
#159 = AXIS2_PLACEMENT_3D ( 'NONE', #358, #183, #228 ) ;
#160 = DIRECTION ( 'NONE',  ( -0.000000000000000000, -1.000000000000000000, -0.000000000000000000 ) ) ;
#161 = PLANE ( 'NONE',  #554 ) ;
#162 = DIRECTION ( 'NONE',  ( -0.000000000000000000, -0.000000000000000000, -1.000000000000000000 ) ) ;
#163 = DIRECTION ( 'NONE',  ( -1.000000000000000000, 0.000000000000000000, -0.000000000000000000 ) ) ;
#164 = LINE ( 'NONE', #250, #555 ) ;
#165 = LINE ( 'NONE', #251, #533 ) ;
#166 = DIRECTION ( 'NONE',  ( 1.000000000000000000, 0.000000000000000000, 0.000000000000000000 ) ) ;
#167 = CARTESIAN_POINT ( 'NONE',  ( 15.00000000000000000, -15.00000000000000000, 135.0000000000000000 ) ) ;
#168 = VECTOR ( 'NONE', #482, 1000.000000000000000 ) ;
#169 = APPLICATION_CONTEXT ( 'automotive_design' ) ;
#170 = FACE_OUTER_BOUND ( 'NONE', #48, .T. ) ;
#171 = DIRECTION ( 'NONE',  ( 0.000000000000000000, 0.000000000000000000, 1.000000000000000000 ) ) ;
#172 = EDGE_CURVE ( 'NONE', #589, #130, #505, .T. ) ;
#173 = VERTEX_POINT ( 'NONE', #314 ) ;
#174 =( LENGTH_UNIT ( ) NAMED_UNIT ( * ) SI_UNIT ( .MILLI., .METRE. ) );
#175 = PRESENTATION_STYLE_ASSIGNMENT (( #364 ) ) ;
#176 = ORIENTED_EDGE ( 'NONE', *, *, #284, .F. ) ;
#177 = VECTOR ( 'NONE', #300, 1000.000000000000000 ) ;
#178 = DIRECTION ( 'NONE',  ( 1.000000000000000000, 0.000000000000000000, 0.000000000000000000 ) ) ;
#179 = DIRECTION ( 'NONE',  ( 0.000000000000000000, 0.000000000000000000, 1.000000000000000000 ) ) ;
#180 = ORIENTED_EDGE ( 'NONE', *, *, #350, .T. ) ;
#181 = LINE ( 'NONE', #540, #337 ) ;
#182 = ADVANCED_FACE ( 'NONE', ( #501 ), #82, .F. ) ;
#183 = DIRECTION ( 'NONE',  ( 0.000000000000000000, -1.000000000000000000, -0.000000000000000000 ) ) ;
#184 = EDGE_LOOP ( 'NONE', ( #155, #89, #515, #317 ) ) ;
#185 = DIRECTION ( 'NONE',  ( 0.000000000000000000, 0.000000000000000000, 1.000000000000000000 ) ) ;
#186 = DIRECTION ( 'NONE',  ( 0.000000000000000000, 0.000000000000000000, -1.000000000000000000 ) ) ;
#187 = EDGE_LOOP ( 'NONE', ( #53, #312, #98, #106 ) ) ;
#188 = VECTOR ( 'NONE', #424, 1000.000000000000000 ) ;
#189 = DIRECTION ( 'NONE',  ( -1.000000000000000000, 0.000000000000000000, 0.000000000000000000 ) ) ;
#190 = ORIENTED_EDGE ( 'NONE', *, *, #592, .F. ) ;
#191 = EDGE_CURVE ( 'NONE', #542, #502, #268, .T. ) ;
#192 = DIRECTION ( 'NONE',  ( 0.000000000000000000, 0.000000000000000000, -1.000000000000000000 ) ) ;
#193 = ORIENTED_EDGE ( 'NONE', *, *, #214, .F. ) ;
#194 = CARTESIAN_POINT ( 'NONE',  ( 15.00000000000000000, -10.25000000000000000, 109.7500000000000000 ) ) ;
#195 = ORIENTED_EDGE ( 'NONE', *, *, #172, .F. ) ;
#196 = AXIS2_PLACEMENT_3D ( 'NONE', #539, #215, #171 ) ;
#197 = VECTOR ( 'NONE', #156, 1000.000000000000000 ) ;
#198 = FACE_OUTER_BOUND ( 'NONE', #281, .T. ) ;
#199 = ORIENTED_EDGE ( 'NONE', *, *, #42, .F. ) ;
#200 = DIRECTION ( 'NONE',  ( -1.000000000000000000, 0.000000000000000000, -0.000000000000000000 ) ) ;
#201 = ORIENTED_EDGE ( 'NONE', *, *, #1, .F. ) ;
#202 = PLANE ( 'NONE',  #45 ) ;
#203 = CARTESIAN_POINT ( 'NONE',  ( -15.00000000000000000, -15.00000000000000000, 135.0000000000000000 ) ) ;
#204 = CLOSED_SHELL ( 'NONE', ( #440, #355, #492, #240, #484, #575, #49, #81, #488, #329, #231, #384, #10, #22, #429, #158, #182, #122, #254 ) ) ;
#205 = DIRECTION ( 'NONE',  ( 0.000000000000000000, 0.000000000000000000, -1.000000000000000000 ) ) ;
#206 = LINE ( 'NONE', #30, #397 ) ;
#207 = EDGE_CURVE ( 'NONE', #130, #262, #460, .T. ) ;
#208 = DIRECTION ( 'NONE',  ( 0.000000000000000000, 0.000000000000000000, 1.000000000000000000 ) ) ;
#209 = PLANE ( 'NONE',  #111 ) ;
#210 = CARTESIAN_POINT ( 'NONE',  ( -10.00000000000000000, 10.00000000000000000, 0.000000000000000000 ) ) ;
#211 = DIRECTION ( 'NONE',  ( 0.000000000000000000, 1.000000000000000000, 0.000000000000000000 ) ) ;
#212 = DIRECTION ( 'NONE',  ( 0.000000000000000000, -0.000000000000000000, 1.000000000000000000 ) ) ;
#213 = VECTOR ( 'NONE', #491, 1000.000000000000000 ) ;
#214 = EDGE_CURVE ( 'NONE', #409, #19, #138, .T. ) ;
#215 = DIRECTION ( 'NONE',  ( 0.000000000000000000, 1.000000000000000000, -0.000000000000000000 ) ) ;
#216 = AXIS2_PLACEMENT_3D ( 'NONE', #511, #192, #63 ) ;
#217 = CARTESIAN_POINT ( 'NONE',  ( -15.00000000000000000, 15.00000000000000000, 135.0000000000000000 ) ) ;
#218 = DIRECTION ( 'NONE',  ( 0.000000000000000000, 1.000000000000000000, 0.000000000000000000 ) ) ;
#219 = DIRECTION ( 'NONE',  ( 0.000000000000000000, 0.000000000000000000, -1.000000000000000000 ) ) ;
#220 = ORIENTED_EDGE ( 'NONE', *, *, #558, .F. ) ;
#221 = DIRECTION ( 'NONE',  ( 1.000000000000000000, 0.000000000000000000, 0.000000000000000000 ) ) ;
#222 = LINE ( 'NONE', #593, #35 ) ;
#223 = ORIENTED_EDGE ( 'NONE', *, *, #581, .T. ) ;
#224 = AXIS2_PLACEMENT_3D ( 'NONE', #143, #101, #419 ) ;
#225 = EDGE_CURVE ( 'NONE', #83, #499, #495, .T. ) ;
#226 = CARTESIAN_POINT ( 'NONE',  ( 15.00000000000000000, 10.25000000000000000, 109.7500000000000000 ) ) ;
#227 = EDGE_LOOP ( 'NONE', ( #157, #296, #466, #339 ) ) ;
#228 = DIRECTION ( 'NONE',  ( 0.000000000000000000, 0.000000000000000000, -1.000000000000000000 ) ) ;
#229 = ORIENTED_EDGE ( 'NONE', *, *, #394, .T. ) ;
#230 = PLANE ( 'NONE',  #216 ) ;
#231 = ADVANCED_FACE ( 'NONE', ( #361 ), #95, .T. ) ;
#232 = ORIENTED_EDGE ( 'NONE', *, *, #529, .T. ) ;
#233 = LINE ( 'NONE', #147, #378 ) ;
#234 = ORIENTED_EDGE ( 'NONE', *, *, #214, .T. ) ;
#235 = CARTESIAN_POINT ( 'NONE',  ( -10.00000000000000000, -10.00000000000000000, -10.00000000000000000 ) ) ;
#236 = ORIENTED_EDGE ( 'NONE', *, *, #109, .T. ) ;
#237 = LINE ( 'NONE', #52, #188 ) ;
#238 = ORIENTED_EDGE ( 'NONE', *, *, #109, .F. ) ;
#239 = VECTOR ( 'NONE', #455, 1000.000000000000000 ) ;
#240 = ADVANCED_FACE ( 'NONE', ( #92, #556 ), #274, .F. ) ;
#241 = DIRECTION ( 'NONE',  ( -1.000000000000000000, -0.000000000000000000, -0.000000000000000000 ) ) ;
#242 = EDGE_LOOP ( 'NONE', ( #517, #285, #342, #85 ) ) ;
#243 = PLANE ( 'NONE',  #112 ) ;
#244 = VERTEX_POINT ( 'NONE', #586 ) ;
#245 = FACE_OUTER_BOUND ( 'NONE', #9, .T. ) ;
#246 = FACE_OUTER_BOUND ( 'NONE', #272, .T. ) ;
#247 = EDGE_CURVE ( 'NONE', #420, #130, #40, .T. ) ;
#248 = MECHANICAL_DESIGN_GEOMETRIC_PRESENTATION_REPRESENTATION (  '', ( #278 ), #456 ) ;
#249 = VECTOR ( 'NONE', #113, 1000.000000000000000 ) ;
#250 = CARTESIAN_POINT ( 'NONE',  ( -10.00000000000000000, -10.00000000000000000, 0.000000000000000000 ) ) ;
#251 = CARTESIAN_POINT ( 'NONE',  ( -10.25000000000000000, 0.000000000000000000, 109.7500000000000000 ) ) ;
#252 = LINE ( 'NONE', #386, #279 ) ;
#253 = CARTESIAN_POINT ( 'NONE',  ( 10.00000000000000000, 10.00000000000000000, -10.00000000000000000 ) ) ;
#254 = ADVANCED_FACE ( 'NONE', ( #198 ), #563, .T. ) ;
#255 = LINE ( 'NONE', #393, #306 ) ;
#256 = CARTESIAN_POINT ( 'NONE',  ( -10.25000000000000000, 0.000000000000000000, 130.2500000000000000 ) ) ;
#257 = PRODUCT ( 'CNC_Cage_Post_Upper_LR', 'CNC_Cage_Post_Upper_LR', '', ( #304 ) ) ;
#258 = VECTOR ( 'NONE', #497, 1000.000000000000000 ) ;
#259 = LINE ( 'NONE', #579, #288 ) ;
#260 = CARTESIAN_POINT ( 'NONE',  ( 10.00000000000000000, -10.00000000000000000, 0.000000000000000000 ) ) ;
#261 = DIRECTION ( 'NONE',  ( 0.000000000000000000, -1.000000000000000000, 0.000000000000000000 ) ) ;
#262 = VERTEX_POINT ( 'NONE', #150 ) ;
#263 = CARTESIAN_POINT ( 'NONE',  ( 0.000000000000000000, 10.25000000000000000, 130.2500000000000000 ) ) ;
#264 = CARTESIAN_POINT ( 'NONE',  ( 15.00000000000000000, 10.25000000000000000, 130.2500000000000000 ) ) ;
#265 = VERTEX_POINT ( 'NONE', #331 ) ;
#266 = EDGE_CURVE ( 'NONE', #173, #153, #4, .T. ) ;
#267 = LINE ( 'NONE', #363, #564 ) ;
#268 = LINE ( 'NONE', #47, #408 ) ;
#269 = ORIENTED_EDGE ( 'NONE', *, *, #51, .T. ) ;
#270 = VECTOR ( 'NONE', #462, 1000.000000000000000 ) ;
#271 = CARTESIAN_POINT ( 'NONE',  ( 0.000000000000000000, -10.25000000000000000, 109.7500000000000000 ) ) ;
#272 = EDGE_LOOP ( 'NONE', ( #523, #292, #283, #481 ) ) ;
#273 = EDGE_CURVE ( 'NONE', #562, #475, #152, .T. ) ;
#274 = PLANE ( 'NONE',  #514 ) ;
#275 = ORIENTED_EDGE ( 'NONE', *, *, #465, .T. ) ;
#276 = DIRECTION ( 'NONE',  ( 0.000000000000000000, 0.000000000000000000, -1.000000000000000000 ) ) ;
#277 = ORIENTED_EDGE ( 'NONE', *, *, #191, .F. ) ;
#278 = STYLED_ITEM ( 'NONE', ( #175 ), #145 ) ;
#279 = VECTOR ( 'NONE', #160, 1000.000000000000000 ) ;
#280 = PLANE ( 'NONE',  #224 ) ;
#281 = EDGE_LOOP ( 'NONE', ( #359, #180, #565, #190 ) ) ;
#282 = LINE ( 'NONE', #422, #476 ) ;
#283 = ORIENTED_EDGE ( 'NONE', *, *, #459, .T. ) ;
#284 = EDGE_CURVE ( 'NONE', #5, #330, #8, .T. ) ;
#285 = ORIENTED_EDGE ( 'NONE', *, *, #273, .F. ) ;
#286 = DIRECTION ( 'NONE',  ( 0.000000000000000000, -1.000000000000000000, 0.000000000000000000 ) ) ;
#287 = ORIENTED_EDGE ( 'NONE', *, *, #154, .T. ) ;
#288 = VECTOR ( 'NONE', #346, 1000.000000000000000 ) ;
#289 = VECTOR ( 'NONE', #241, 1000.000000000000000 ) ;
#290 = FACE_OUTER_BOUND ( 'NONE', #21, .T. ) ;
#291 = ORIENTED_EDGE ( 'NONE', *, *, #207, .F. ) ;
#292 = ORIENTED_EDGE ( 'NONE', *, *, #146, .F. ) ;
#293 = DIRECTION ( 'NONE',  ( 0.000000000000000000, 0.000000000000000000, 1.000000000000000000 ) ) ;
#294 = EDGE_CURVE ( 'NONE', #499, #463, #371, .T. ) ;
#295 = DIRECTION ( 'NONE',  ( 0.000000000000000000, 0.000000000000000000, -1.000000000000000000 ) ) ;
#296 = ORIENTED_EDGE ( 'NONE', *, *, #310, .F. ) ;
#297 = CARTESIAN_POINT ( 'NONE',  ( 15.00000000000000000, -15.00000000000000000, 0.000000000000000000 ) ) ;
#298 = DIRECTION ( 'NONE',  ( 1.000000000000000000, 0.000000000000000000, -0.000000000000000000 ) ) ;
#299 = VECTOR ( 'NONE', #46, 1000.000000000000000 ) ;
#300 = DIRECTION ( 'NONE',  ( -0.000000000000000000, -0.000000000000000000, -1.000000000000000000 ) ) ;
#301 = DIRECTION ( 'NONE',  ( 0.000000000000000000, 1.000000000000000000, 0.000000000000000000 ) ) ;
#302 = CARTESIAN_POINT ( 'NONE',  ( 15.00000000000000000, -10.25000000000000000, 109.7500000000000000 ) ) ;
#303 = CARTESIAN_POINT ( 'NONE',  ( 10.25000000000000000, -15.00000000000000000, 109.7500000000000000 ) ) ;
#304 = PRODUCT_CONTEXT ( 'NONE', #169, 'mechanical' ) ;
#305 = DIRECTION ( 'NONE',  ( 1.000000000000000000, 0.000000000000000000, 0.000000000000000000 ) ) ;
#306 = VECTOR ( 'NONE', #208, 1000.000000000000000 ) ;
#307 = CARTESIAN_POINT ( 'NONE',  ( 10.25000000000000000, 0.000000000000000000, 109.7500000000000000 ) ) ;
#308 = EDGE_LOOP ( 'NONE', ( #151, #199, #551, #412 ) ) ;
#309 = APPLICATION_PROTOCOL_DEFINITION ( 'draft international standard', 'automotive_design', 1998, #169 ) ;
#310 = EDGE_CURVE ( 'NONE', #83, #38, #104, .T. ) ;
#311 = CARTESIAN_POINT ( 'NONE',  ( -10.00000000000000000, -10.00000000000000000, -10.00000000000000000 ) ) ;
#312 = ORIENTED_EDGE ( 'NONE', *, *, #567, .F. ) ;
#313 = CARTESIAN_POINT ( 'NONE',  ( -15.00000000000000000, -15.00000000000000000, 0.000000000000000000 ) ) ;
#314 = CARTESIAN_POINT ( 'NONE',  ( 0.000000000000000000, 10.25000000000000000, 130.2500000000000000 ) ) ;
#315 = EDGE_LOOP ( 'NONE', ( #223, #594, #521, #7 ) ) ;
#316 = DIRECTION ( 'NONE',  ( 0.000000000000000000, 0.000000000000000000, 1.000000000000000000 ) ) ;
#317 = ORIENTED_EDGE ( 'NONE', *, *, #375, .T. ) ;
#318 = VECTOR ( 'NONE', #320, 1000.000000000000000 ) ;
#319 = EDGE_CURVE ( 'NONE', #265, #244, #282, .T. ) ;
#320 = DIRECTION ( 'NONE',  ( -0.000000000000000000, -1.000000000000000000, -0.000000000000000000 ) ) ;
#321 = ORIENTED_EDGE ( 'NONE', *, *, #447, .T. ) ;
#322 = CARTESIAN_POINT ( 'NONE',  ( 0.000000000000000000, 10.25000000000000000, 130.2500000000000000 ) ) ;
#323 = ORIENTED_EDGE ( 'NONE', *, *, #592, .T. ) ;
#324 = FACE_OUTER_BOUND ( 'NONE', #471, .T. ) ;
#325 = VERTEX_POINT ( 'NONE', #474 ) ;
#326 = VECTOR ( 'NONE', #530, 1000.000000000000000 ) ;
#327 = VECTOR ( 'NONE', #367, 1000.000000000000000 ) ;
#328 = DIRECTION ( 'NONE',  ( 1.000000000000000000, -0.000000000000000000, -0.000000000000000000 ) ) ;
#329 = ADVANCED_FACE ( 'NONE', ( #470 ), #280, .T. ) ;
#330 = VERTEX_POINT ( 'NONE', #61 ) ;
#331 = CARTESIAN_POINT ( 'NONE',  ( 10.25000000000000000, -10.25000000000000000, 109.7500000000000000 ) ) ;
#332 = VERTEX_POINT ( 'NONE', #464 ) ;
#333 = EDGE_LOOP ( 'NONE', ( #478, #335, #269, #234 ) ) ;
#334 = DIRECTION ( 'NONE',  ( 0.000000000000000000, 0.000000000000000000, 1.000000000000000000 ) ) ;
#335 = ORIENTED_EDGE ( 'NONE', *, *, #127, .T. ) ;
#336 = AXIS2_PLACEMENT_3D ( 'NONE', #119, #70, #298 ) ;
#337 = VECTOR ( 'NONE', #219, 1000.000000000000000 ) ;
#338 = EDGE_CURVE ( 'NONE', #458, #330, #561, .T. ) ;
#339 = ORIENTED_EDGE ( 'NONE', *, *, #140, .F. ) ;
#340 = LINE ( 'NONE', #74, #369 ) ;
#341 = FACE_OUTER_BOUND ( 'NONE', #374, .T. ) ;
#342 = ORIENTED_EDGE ( 'NONE', *, *, #140, .T. ) ;
#343 = PLANE ( 'NONE',  #544 ) ;
#344 = CARTESIAN_POINT ( 'NONE',  ( -10.00000000000000000, -10.00000000000000000, 0.000000000000000000 ) ) ;
#345 = DIRECTION ( 'NONE',  ( -1.000000000000000000, 0.000000000000000000, -0.000000000000000000 ) ) ;
#346 = DIRECTION ( 'NONE',  ( -0.000000000000000000, -1.000000000000000000, -0.000000000000000000 ) ) ;
#347 = AXIS2_PLACEMENT_3D ( 'NONE', #538, #166, #490 ) ;
#348 = CARTESIAN_POINT ( 'NONE',  ( 0.000000000000000000, 0.000000000000000000, 130.2500000000000000 ) ) ;
#349 = LINE ( 'NONE', #75, #590 ) ;
#350 = EDGE_CURVE ( 'NONE', #589, #542, #237, .T. ) ;
#351 = DIRECTION ( 'NONE',  ( 0.000000000000000000, 0.000000000000000000, -1.000000000000000000 ) ) ;
#352 = LINE ( 'NONE', #167, #213 ) ;
#353 = PLANE ( 'NONE',  #357 ) ;
#354 = VERTEX_POINT ( 'NONE', #58 ) ;
#355 = ADVANCED_FACE ( 'NONE', ( #324, #6 ), #230, .T. ) ;
#356 =( NAMED_UNIT ( * ) PLANE_ANGLE_UNIT ( ) SI_UNIT ( $, .RADIAN. ) );
#357 = AXIS2_PLACEMENT_3D ( 'NONE', #217, #405, #503 ) ;
#358 = CARTESIAN_POINT ( 'NONE',  ( 0.000000000000000000, -10.25000000000000000, 130.2500000000000000 ) ) ;
#359 = ORIENTED_EDGE ( 'NONE', *, *, #365, .T. ) ;
#360 = SHAPE_DEFINITION_REPRESENTATION ( #396, #87 ) ;
#361 = FACE_OUTER_BOUND ( 'NONE', #242, .T. ) ;
#362 = ORIENTED_EDGE ( 'NONE', *, *, #379, .T. ) ;
#363 = CARTESIAN_POINT ( 'NONE',  ( -10.25000000000000000, -15.00000000000000000, 109.7500000000000000 ) ) ;
#364 = SURFACE_STYLE_USAGE ( .BOTH. , #411 ) ;
#365 = EDGE_CURVE ( 'NONE', #461, #589, #233, .T. ) ;
#366 = ORIENTED_EDGE ( 'NONE', *, *, #558, .T. ) ;
#367 = DIRECTION ( 'NONE',  ( -0.000000000000000000, -1.000000000000000000, -0.000000000000000000 ) ) ;
#368 = CARTESIAN_POINT ( 'NONE',  ( 10.00000000000000000, 10.00000000000000000, -10.00000000000000000 ) ) ;
#369 = VECTOR ( 'NONE', #31, 1000.000000000000000 ) ;
#370 = EDGE_LOOP ( 'NONE', ( #236, #568, #519, #148 ) ) ;
#371 = LINE ( 'NONE', #516, #197 ) ;
#372 = VERTEX_POINT ( 'NONE', #376 ) ;
#373 = CARTESIAN_POINT ( 'NONE',  ( 0.000000000000000000, 10.25000000000000000, 109.7500000000000000 ) ) ;
#374 = EDGE_LOOP ( 'NONE', ( #416, #115, #41, #195, #59, #220, #431, #229 ) ) ;
#375 = EDGE_CURVE ( 'NONE', #332, #458, #97, .T. ) ;
#376 = CARTESIAN_POINT ( 'NONE',  ( -15.00000000000000000, -15.00000000000000000, 0.000000000000000000 ) ) ;
#377 = ORIENTED_EDGE ( 'NONE', *, *, #400, .F. ) ;
#378 = VECTOR ( 'NONE', #566, 1000.000000000000000 ) ;
#379 = EDGE_CURVE ( 'NONE', #423, #15, #518, .T. ) ;
#380 = DIRECTION ( 'NONE',  ( 0.000000000000000000, 0.000000000000000000, -1.000000000000000000 ) ) ;
#381 = ORIENTED_EDGE ( 'NONE', *, *, #375, .F. ) ;
#382 = LINE ( 'NONE', #399, #13 ) ;
#383 = EDGE_LOOP ( 'NONE', ( #134, #291, #433, #441 ) ) ;
#384 = ADVANCED_FACE ( 'NONE', ( #428 ), #17, .T. ) ;
#385 = ORIENTED_EDGE ( 'NONE', *, *, #537, .F. ) ;
#386 = CARTESIAN_POINT ( 'NONE',  ( -10.00000000000000000, -10.00000000000000000, -10.00000000000000000 ) ) ;
#387 = DIRECTION ( 'NONE',  ( 1.000000000000000000, 0.000000000000000000, 0.000000000000000000 ) ) ;
#388 = AXIS2_PLACEMENT_3D ( 'NONE', #256, #395, #445 ) ;
#389 = CARTESIAN_POINT ( 'NONE',  ( 10.00000000000000000, 10.00000000000000000, 0.000000000000000000 ) ) ;
#390 = LINE ( 'NONE', #493, #54 ) ;
#391 = CARTESIAN_POINT ( 'NONE',  ( -15.00000000000000000, 15.00000000000000000, 135.0000000000000000 ) ) ;
#392 = DIRECTION ( 'NONE',  ( 0.000000000000000000, 0.000000000000000000, 1.000000000000000000 ) ) ;
#393 = CARTESIAN_POINT ( 'NONE',  ( 0.000000000000000000, 10.25000000000000000, 109.7500000000000000 ) ) ;
#394 = EDGE_CURVE ( 'NONE', #153, #332, #382, .T. ) ;
#395 = DIRECTION ( 'NONE',  ( -1.000000000000000000, 0.000000000000000000, 0.000000000000000000 ) ) ;
#396 = PRODUCT_DEFINITION_SHAPE ( 'NONE', 'NONE',  #16 ) ;
#397 = VECTOR ( 'NONE', #211, 1000.000000000000000 ) ;
#398 = AXIS2_PLACEMENT_3D ( 'NONE', #569, #276, #200 ) ;
#399 = CARTESIAN_POINT ( 'NONE',  ( 15.00000000000000000, 10.25000000000000000, 130.2500000000000000 ) ) ;
#400 = EDGE_CURVE ( 'NONE', #19, #15, #580, .T. ) ;
#401 = LINE ( 'NONE', #344, #572 ) ;
#402 = FACE_OUTER_BOUND ( 'NONE', #454, .T. ) ;
#403 = DIRECTION ( 'NONE',  ( 0.000000000000000000, -0.000000000000000000, 1.000000000000000000 ) ) ;
#404 = EDGE_CURVE ( 'NONE', #463, #475, #164, .T. ) ;
#405 = DIRECTION ( 'NONE',  ( 0.000000000000000000, -1.000000000000000000, 0.000000000000000000 ) ) ;
#406 = ORIENTED_EDGE ( 'NONE', *, *, #225, .T. ) ;
#407 = LINE ( 'NONE', #313, #299 ) ;
#408 = VECTOR ( 'NONE', #415, 1000.000000000000000 ) ;
#409 = VERTEX_POINT ( 'NONE', #71 ) ;
#410 = CARTESIAN_POINT ( 'NONE',  ( 15.00000000000000000, 15.00000000000000000, 135.0000000000000000 ) ) ;
#411 = SURFACE_SIDE_STYLE ('',( #508 ) ) ;
#412 = ORIENTED_EDGE ( 'NONE', *, *, #172, .T. ) ;
#413 = UNCERTAINTY_MEASURE_WITH_UNIT (LENGTH_MEASURE( 1.000000000000000082E-05 ), #457, 'distance_accuracy_value', 'NONE');
#414 = EDGE_CURVE ( 'NONE', #244, #420, #438, .T. ) ;
#415 = DIRECTION ( 'NONE',  ( 1.000000000000000000, 0.000000000000000000, 0.000000000000000000 ) ) ;
#416 = ORIENTED_EDGE ( 'NONE', *, *, #421, .F. ) ;
#417 = CARTESIAN_POINT ( 'NONE',  ( 10.25000000000000000, -15.00000000000000000, 130.2500000000000000 ) ) ;
#418 = ORIENTED_EDGE ( 'NONE', *, *, #510, .F. ) ;
#419 = DIRECTION ( 'NONE',  ( 0.000000000000000000, 0.000000000000000000, -1.000000000000000000 ) ) ;
#420 = VERTEX_POINT ( 'NONE', #583 ) ;
#421 = EDGE_CURVE ( 'NONE', #244, #332, #340, .T. ) ;
#422 = CARTESIAN_POINT ( 'NONE',  ( 10.24999999999999822, -10.25000000000000000, 130.2500000000000000 ) ) ;
#423 = VERTEX_POINT ( 'NONE', #27 ) ;
#424 = DIRECTION ( 'NONE',  ( 0.000000000000000000, 0.000000000000000000, -1.000000000000000000 ) ) ;
#425 = ORIENTED_EDGE ( 'NONE', *, *, #127, .F. ) ;
#426 = VECTOR ( 'NONE', #486, 1000.000000000000000 ) ;
#427 = ORIENTED_EDGE ( 'NONE', *, *, #447, .F. ) ;
#428 = FACE_OUTER_BOUND ( 'NONE', #227, .T. ) ;
#429 = ADVANCED_FACE ( 'NONE', ( #170 ), #202, .F. ) ;
#430 = LINE ( 'NONE', #18, #11 ) ;
#431 = ORIENTED_EDGE ( 'NONE', *, *, #266, .T. ) ;
#432 = CARTESIAN_POINT ( 'NONE',  ( -15.00000000000000000, -15.00000000000000000, 135.0000000000000000 ) ) ;
#433 = ORIENTED_EDGE ( 'NONE', *, *, #247, .F. ) ;
#434 = CARTESIAN_POINT ( 'NONE',  ( -15.00000000000000000, -15.00000000000000000, 135.0000000000000000 ) ) ;
#435 = LINE ( 'NONE', #203, #99 ) ;
#436 = PRESENTATION_LAYER_ASSIGNMENT (  '', '', ( #278 ) ) ;
#437 = AXIS2_PLACEMENT_3D ( 'NONE', #311, #261, #550 ) ;
#438 = LINE ( 'NONE', #69, #34 ) ;
#439 = DIRECTION ( 'NONE',  ( 0.000000000000000000, 1.000000000000000000, 0.000000000000000000 ) ) ;
#440 = ADVANCED_FACE ( 'NONE', ( #245 ), #526, .T. ) ;
#441 = ORIENTED_EDGE ( 'NONE', *, *, #60, .F. ) ;
#442 = FACE_BOUND ( 'NONE', #597, .T. ) ;
#443 = PLANE ( 'NONE',  #388 ) ;
#444 = CARTESIAN_POINT ( 'NONE',  ( -10.00000000000000000, 10.00000000000000000, -10.00000000000000000 ) ) ;
#445 = DIRECTION ( 'NONE',  ( 0.000000000000000000, 0.000000000000000000, 1.000000000000000000 ) ) ;
#446 = VECTOR ( 'NONE', #334, 1000.000000000000000 ) ;
#447 = EDGE_CURVE ( 'NONE', #502, #5, #531, .T. ) ;
#448 = CARTESIAN_POINT ( 'NONE',  ( 15.00000000000000000, -15.00000000000000000, 0.000000000000000000 ) ) ;
#449 = CARTESIAN_POINT ( 'NONE',  ( -10.00000000000000000, -10.00000000000000000, -10.00000000000000000 ) ) ;
#450 = DIRECTION ( 'NONE',  ( -1.000000000000000000, -0.000000000000000000, -0.000000000000000000 ) ) ;
#451 = ORIENTED_EDGE ( 'NONE', *, *, #266, .F. ) ;
#452 = LINE ( 'NONE', #39, #327 ) ;
#453 = CARTESIAN_POINT ( 'NONE',  ( -15.00000000000000000, 15.00000000000000000, 135.0000000000000000 ) ) ;
#454 = EDGE_LOOP ( 'NONE', ( #362, #377, #193, #96 ) ) ;
#455 = DIRECTION ( 'NONE',  ( 0.000000000000000000, 0.000000000000000000, 1.000000000000000000 ) ) ;
#456 =( GEOMETRIC_REPRESENTATION_CONTEXT ( 3 ) GLOBAL_UNCERTAINTY_ASSIGNED_CONTEXT ( ( #413 ) ) GLOBAL_UNIT_ASSIGNED_CONTEXT ( ( #457, #552, #88 ) ) REPRESENTATION_CONTEXT ( 'NONE', 'WORKASPACE' ) );
#457 =( LENGTH_UNIT ( ) NAMED_UNIT ( * ) SI_UNIT ( .MILLI., .METRE. ) );
#458 = VERTEX_POINT ( 'NONE', #302 ) ;
#459 = EDGE_CURVE ( 'NONE', #38, #562, #252, .T. ) ;
#460 = LINE ( 'NONE', #546, #534 ) ;
#461 = VERTEX_POINT ( 'NONE', #348 ) ;
#462 = DIRECTION ( 'NONE',  ( 0.000000000000000000, 1.000000000000000000, 0.000000000000000000 ) ) ;
#463 = VERTEX_POINT ( 'NONE', #210 ) ;
#464 = CARTESIAN_POINT ( 'NONE',  ( 15.00000000000000000, -10.25000000000000000, 130.2500000000000000 ) ) ;
#465 = EDGE_CURVE ( 'NONE', #5, #173, #255, .T. ) ;
#466 = ORIENTED_EDGE ( 'NONE', *, *, #32, .F. ) ;
#467 = UNCERTAINTY_MEASURE_WITH_UNIT (LENGTH_MEASURE( 1.000000000000000082E-05 ), #174, 'distance_accuracy_value', 'NONE');
#468 = CARTESIAN_POINT ( 'NONE',  ( -10.00000000000000000, 10.00000000000000000, -10.00000000000000000 ) ) ;
#469 = EDGE_LOOP ( 'NONE', ( #201, #385, #506, #406 ) ) ;
#470 = FACE_OUTER_BOUND ( 'NONE', #469, .T. ) ;
#471 = EDGE_LOOP ( 'NONE', ( #553, #50, #418, #144 ) ) ;
#472 = EDGE_CURVE ( 'NONE', #354, #372, #120, .T. ) ;
#473 = ORIENTED_EDGE ( 'NONE', *, *, #146, .T. ) ;
#474 = CARTESIAN_POINT ( 'NONE',  ( 10.00000000000000000, -10.00000000000000000, -10.00000000000000000 ) ) ;
#475 = VERTEX_POINT ( 'NONE', #576 ) ;
#476 = VECTOR ( 'NONE', #56, 1000.000000000000000 ) ;
#477 = FACE_OUTER_BOUND ( 'NONE', #315, .T. ) ;
#478 = ORIENTED_EDGE ( 'NONE', *, *, #76, .T. ) ;
#479 = DIRECTION ( 'NONE',  ( -0.000000000000000000, -1.000000000000000000, -0.000000000000000000 ) ) ;
#480 = CARTESIAN_POINT ( 'NONE',  ( -10.00000000000000000, -10.00000000000000000, -10.00000000000000000 ) ) ;
#481 = ORIENTED_EDGE ( 'NONE', *, *, #273, .T. ) ;
#482 = DIRECTION ( 'NONE',  ( 0.000000000000000000, 1.000000000000000000, 0.000000000000000000 ) ) ;
#483 = CARTESIAN_POINT ( 'NONE',  ( -10.00000000000000000, 10.00000000000000000, -10.00000000000000000 ) ) ;
#484 = ADVANCED_FACE ( 'NONE', ( #442, #535 ), #29, .F. ) ;
#485 = AXIS2_PLACEMENT_3D ( 'NONE', #513, #286, #559 ) ;
#486 = DIRECTION ( 'NONE',  ( 0.000000000000000000, 1.000000000000000000, 0.000000000000000000 ) ) ;
#487 = CARTESIAN_POINT ( 'NONE',  ( 10.00000000000000000, -10.00000000000000000, -10.00000000000000000 ) ) ;
#488 = ADVANCED_FACE ( 'NONE', ( #290 ), #343, .T. ) ;
#489 = APPLICATION_CONTEXT ( 'automotive_design' ) ;
#490 = DIRECTION ( 'NONE',  ( 0.000000000000000000, 0.000000000000000000, -1.000000000000000000 ) ) ;
#491 = DIRECTION ( 'NONE',  ( -0.000000000000000000, -0.000000000000000000, -1.000000000000000000 ) ) ;
#492 = ADVANCED_FACE ( 'NONE', ( #477 ), #243, .F. ) ;
#493 = CARTESIAN_POINT ( 'NONE',  ( 10.25000000000000000, 0.000000000000000000, 109.7500000000000000 ) ) ;
#494 =( GEOMETRIC_REPRESENTATION_CONTEXT ( 3 ) GLOBAL_UNCERTAINTY_ASSIGNED_CONTEXT ( ( #467 ) ) GLOBAL_UNIT_ASSIGNED_CONTEXT ( ( #174, #356, #125 ) ) REPRESENTATION_CONTEXT ( 'NONE', 'WORKASPACE' ) );
#495 = LINE ( 'NONE', #368, #100 ) ;
#496 = ORIENTED_EDGE ( 'NONE', *, *, #549, .T. ) ;
#497 = DIRECTION ( 'NONE',  ( 0.000000000000000000, -1.000000000000000000, 0.000000000000000000 ) ) ;
#498 = FACE_OUTER_BOUND ( 'NONE', #184, .T. ) ;
#499 = VERTEX_POINT ( 'NONE', #389 ) ;
#500 = LINE ( 'NONE', #226, #239 ) ;
#501 = FACE_OUTER_BOUND ( 'NONE', #370, .T. ) ;
#502 = VERTEX_POINT ( 'NONE', #528 ) ;
#503 = DIRECTION ( 'NONE',  ( 0.000000000000000000, -0.000000000000000000, -1.000000000000000000 ) ) ;
#504 = VECTOR ( 'NONE', #450, 1000.000000000000000 ) ;
#505 = LINE ( 'NONE', #596, #318 ) ;
#506 = ORIENTED_EDGE ( 'NONE', *, *, #32, .T. ) ;
#507 = PRODUCT_RELATED_PRODUCT_CATEGORY ( 'part', '', ( #257 ) ) ;
#508 = SURFACE_STYLE_FILL_AREA ( #136 ) ;
#509 = ORIENTED_EDGE ( 'NONE', *, *, #284, .T. ) ;
#510 = EDGE_CURVE ( 'NONE', #65, #423, #118, .T. ) ;
#511 = CARTESIAN_POINT ( 'NONE',  ( 0.000000000000000000, 0.000000000000000000, 0.000000000000000000 ) ) ;
#512 = ORIENTED_EDGE ( 'NONE', *, *, #520, .T. ) ;
#513 = CARTESIAN_POINT ( 'NONE',  ( 0.000000000000000000, 0.000000000000000000, 0.000000000000000000 ) ) ;
#514 = AXIS2_PLACEMENT_3D ( 'NONE', #37, #218, #403 ) ;
#515 = ORIENTED_EDGE ( 'NONE', *, *, #421, .T. ) ;
#516 = CARTESIAN_POINT ( 'NONE',  ( -10.00000000000000000, 10.00000000000000000, 0.000000000000000000 ) ) ;
#517 = ORIENTED_EDGE ( 'NONE', *, *, #102, .F. ) ;
#518 = LINE ( 'NONE', #107, #289 ) ;
#519 = ORIENTED_EDGE ( 'NONE', *, *, #414, .F. ) ;
#520 = EDGE_CURVE ( 'NONE', #372, #65, #407, .T. ) ;
#521 = ORIENTED_EDGE ( 'NONE', *, *, #76, .F. ) ;
#522 = DIRECTION ( 'NONE',  ( -1.000000000000000000, -0.000000000000000000, -0.000000000000000000 ) ) ;
#523 = ORIENTED_EDGE ( 'NONE', *, *, #404, .F. ) ;
#524 = VECTOR ( 'NONE', #545, 1000.000000000000000 ) ;
#525 = VERTEX_POINT ( 'NONE', #260 ) ;
#526 = PLANE ( 'NONE',  #347 ) ;
#527 = LINE ( 'NONE', #480, #326 ) ;
#528 = CARTESIAN_POINT ( 'NONE',  ( 0.000000000000000000, 0.000000000000000000, 109.7500000000000000 ) ) ;
#529 = EDGE_CURVE ( 'NONE', #262, #44, #267, .T. ) ;
#530 = DIRECTION ( 'NONE',  ( 1.000000000000000000, 0.000000000000000000, 0.000000000000000000 ) ) ;
#531 = LINE ( 'NONE', #77, #426 ) ;
#532 = CARTESIAN_POINT ( 'NONE',  ( -10.00000000000000000, -10.00000000000000000, -10.00000000000000000 ) ) ;
#533 = VECTOR ( 'NONE', #124, 1000.000000000000000 ) ;
#534 = VECTOR ( 'NONE', #186, 1000.000000000000000 ) ;
#535 = FACE_OUTER_BOUND ( 'NONE', #187, .T. ) ;
#536 = CARTESIAN_POINT ( 'NONE',  ( -15.00000000000000000, 15.00000000000000000, 135.0000000000000000 ) ) ;
#537 = EDGE_CURVE ( 'NONE', #325, #525, #128, .T. ) ;
#538 = CARTESIAN_POINT ( 'NONE',  ( 0.000000000000000000, 0.000000000000000000, 0.000000000000000000 ) ) ;
#539 = CARTESIAN_POINT ( 'NONE',  ( 0.000000000000000000, 10.25000000000000000, 109.7500000000000000 ) ) ;
#540 = CARTESIAN_POINT ( 'NONE',  ( 0.000000000000000000, 0.000000000000000000, 0.000000000000000000 ) ) ;
#541 = DIRECTION ( 'NONE',  ( 0.000000000000000000, 0.000000000000000000, -1.000000000000000000 ) ) ;
#542 = VERTEX_POINT ( 'NONE', #587 ) ;
#543 = COLOUR_RGB ( '',0.7921568627450980005, 0.8196078431372548767, 0.9333333333333333481 ) ;
#544 = AXIS2_PLACEMENT_3D ( 'NONE', #444, #123, #212 ) ;
#545 = DIRECTION ( 'NONE',  ( 0.000000000000000000, 0.000000000000000000, 1.000000000000000000 ) ) ;
#546 = CARTESIAN_POINT ( 'NONE',  ( -10.25000000000000000, -15.00000000000000000, 130.2500000000000000 ) ) ;
#547 = ORIENTED_EDGE ( 'NONE', *, *, #338, .T. ) ;
#548 = LINE ( 'NONE', #410, #3 ) ;
#549 = EDGE_CURVE ( 'NONE', #330, #153, #500, .T. ) ;
#550 = DIRECTION ( 'NONE',  ( 0.000000000000000000, -0.000000000000000000, -1.000000000000000000 ) ) ;
#551 = ORIENTED_EDGE ( 'NONE', *, *, #350, .F. ) ;
#552 =( NAMED_UNIT ( * ) PLANE_ANGLE_UNIT ( ) SI_UNIT ( $, .RADIAN. ) );
#553 = ORIENTED_EDGE ( 'NONE', *, *, #581, .F. ) ;
#554 = AXIS2_PLACEMENT_3D ( 'NONE', #532, #78, #121 ) ;
#555 = VECTOR ( 'NONE', #479, 1000.000000000000000 ) ;
#556 = FACE_OUTER_BOUND ( 'NONE', #68, .T. ) ;
#557 = VERTEX_POINT ( 'NONE', #135 ) ;
#558 = EDGE_CURVE ( 'NONE', #173, #461, #585, .T. ) ;
#559 = DIRECTION ( 'NONE',  ( 0.000000000000000000, -0.000000000000000000, -1.000000000000000000 ) ) ;
#560 = ORIENTED_EDGE ( 'NONE', *, *, #67, .F. ) ;
#561 = LINE ( 'NONE', #194, #270 ) ;
#562 = VERTEX_POINT ( 'NONE', #449 ) ;
#563 = PLANE ( 'NONE',  #485 ) ;
#564 = VECTOR ( 'NONE', #178, 1000.000000000000000 ) ;
#565 = ORIENTED_EDGE ( 'NONE', *, *, #191, .T. ) ;
#566 = DIRECTION ( 'NONE',  ( -1.000000000000000000, 0.000000000000000000, 0.000000000000000000 ) ) ;
#567 = EDGE_CURVE ( 'NONE', #409, #423, #548, .T. ) ;
#568 = ORIENTED_EDGE ( 'NONE', *, *, #60, .T. ) ;
#569 = CARTESIAN_POINT ( 'NONE',  ( 0.000000000000000000, 0.000000000000000000, -10.00000000000000000 ) ) ;
#570 = ORIENTED_EDGE ( 'NONE', *, *, #404, .T. ) ;
#571 = CARTESIAN_POINT ( 'NONE',  ( 0.000000000000000000, -10.25000000000000000, 109.7500000000000000 ) ) ;
#572 = VECTOR ( 'NONE', #305, 1000.000000000000000 ) ;
#573 = CARTESIAN_POINT ( 'NONE',  ( -10.25000000000000000, -15.00000000000000000, 130.2500000000000000 ) ) ;
#574 = VECTOR ( 'NONE', #129, 1000.000000000000000 ) ;
#575 = ADVANCED_FACE ( 'NONE', ( #402 ), #353, .F. ) ;
#576 = CARTESIAN_POINT ( 'NONE',  ( -10.00000000000000000, -10.00000000000000000, 0.000000000000000000 ) ) ;
#577 = FACE_OUTER_BOUND ( 'NONE', #333, .T. ) ;
#578 = DIRECTION ( 'NONE',  ( 0.000000000000000000, -1.000000000000000000, 0.000000000000000000 ) ) ;
#579 = CARTESIAN_POINT ( 'NONE',  ( -15.00000000000000000, -15.00000000000000000, 135.0000000000000000 ) ) ;
#580 = LINE ( 'NONE', #391, #73 ) ;
#581 = EDGE_CURVE ( 'NONE', #15, #372, #452, .T. ) ;
#582 = PLANE ( 'NONE',  #196 ) ;
#583 = CARTESIAN_POINT ( 'NONE',  ( 10.25000000000000000, -15.00000000000000000, 130.2500000000000000 ) ) ;
#584 = PLANE ( 'NONE',  #336 ) ;
#585 = LINE ( 'NONE', #263, #258 ) ;
#586 = CARTESIAN_POINT ( 'NONE',  ( 10.25000000000000000, -10.25000000000000000, 130.2500000000000000 ) ) ;
#587 = CARTESIAN_POINT ( 'NONE',  ( -10.25000000000000000, 0.000000000000000000, 109.7500000000000000 ) ) ;
#588 = PLANE ( 'NONE',  #159 ) ;
#589 = VERTEX_POINT ( 'NONE', #91 ) ;
#590 = VECTOR ( 'NONE', #392, 1000.000000000000000 ) ;
#591 = AXIS2_PLACEMENT_3D ( 'NONE', #307, #84, #541 ) ;
#592 = EDGE_CURVE ( 'NONE', #461, #502, #181, .T. ) ;
#593 = CARTESIAN_POINT ( 'NONE',  ( -10.00000000000000000, 10.00000000000000000, -10.00000000000000000 ) ) ;
#594 = ORIENTED_EDGE ( 'NONE', *, *, #472, .F. ) ;
#595 = DIRECTION ( 'NONE',  ( -0.000000000000000000, -0.000000000000000000, -1.000000000000000000 ) ) ;
#596 = CARTESIAN_POINT ( 'NONE',  ( -10.25000000000000000, 0.000000000000000000, 130.2500000000000000 ) ) ;
#597 = EDGE_LOOP ( 'NONE', ( #381, #142, #2, #110 ) ) ;
ENDSEC;
END-ISO-10303-21;
