ISO-10303-21;
HEADER;
FILE_DESCRIPTION (( 'STEP AP214' ),
    '1' );
FILE_NAME ('CNC_Cage_Post_Upper.STEP',
    '2026-08-12T22:35:38',
    ( '' ),
    ( '' ),
    'SwSTEP 2.0',
    'SolidWorks 2026',
    '' );
FILE_SCHEMA (( 'AUTOMOTIVE_DESIGN' ));
ENDSEC;

DATA;
#1 = PLANE ( 'NONE',  #591 ) ;
#2 = EDGE_CURVE ( 'NONE', #402, #502, #468, .T. ) ;
#3 = EDGE_LOOP ( 'NONE', ( #233, #453, #159, #499, #16, #19, #91, #377 ) ) ;
#4 = STYLED_ITEM ( 'NONE', ( #10 ), #341 ) ;
#5 = CARTESIAN_POINT ( 'NONE',  ( -10.00000000000000000, -10.00000000000000000, -10.00000000000000000 ) ) ;
#6 = ORIENTED_EDGE ( 'NONE', *, *, #411, .F. ) ;
#7 = CARTESIAN_POINT ( 'NONE',  ( -15.00000000000000000, -10.25000000000000000, 130.2500000000000000 ) ) ;
#8 = VERTEX_POINT ( 'NONE', #340 ) ;
#9 = ADVANCED_BREP_SHAPE_REPRESENTATION ( 'CNC_Cage_Post_Upper', ( #341, #404 ), #74 ) ;
#10 = PRESENTATION_STYLE_ASSIGNMENT (( #369 ) ) ;
#11 = ORIENTED_EDGE ( 'NONE', *, *, #347, .T. ) ;
#12 = EDGE_CURVE ( 'NONE', #450, #549, #119, .T. ) ;
#13 = VECTOR ( 'NONE', #70, 1000.000000000000000 ) ;
#14 = CARTESIAN_POINT ( 'NONE',  ( -15.00000000000000000, -15.00000000000000000, 0.000000000000000000 ) ) ;
#15 = VECTOR ( 'NONE', #268, 1000.000000000000000 ) ;
#16 = ORIENTED_EDGE ( 'NONE', *, *, #50, .F. ) ;
#17 = LINE ( 'NONE', #59, #112 ) ;
#18 = ORIENTED_EDGE ( 'NONE', *, *, #110, .F. ) ;
#19 = ORIENTED_EDGE ( 'NONE', *, *, #12, .F. ) ;
#20 = FACE_OUTER_BOUND ( 'NONE', #519, .T. ) ;
#21 = ORIENTED_EDGE ( 'NONE', *, *, #574, .T. ) ;
#22 = ADVANCED_FACE ( 'NONE', ( #79, #535 ), #582, .T. ) ;
#23 = ORIENTED_EDGE ( 'NONE', *, *, #347, .F. ) ;
#24 = LINE ( 'NONE', #118, #302 ) ;
#25 = FACE_OUTER_BOUND ( 'NONE', #117, .T. ) ;
#26 = VECTOR ( 'NONE', #85, 1000.000000000000000 ) ;
#27 = LINE ( 'NONE', #204, #191 ) ;
#28 = FACE_OUTER_BOUND ( 'NONE', #515, .T. ) ;
#29 = CARTESIAN_POINT ( 'NONE',  ( -10.25000000000000000, -10.25000000000000000, 130.2500000000000000 ) ) ;
#30 = FACE_OUTER_BOUND ( 'NONE', #259, .T. ) ;
#31 = PRODUCT_DEFINITION_SHAPE ( 'NONE', 'NONE',  #158 ) ;
#32 = CARTESIAN_POINT ( 'NONE',  ( -10.25000000000000000, 0.000000000000000000, 130.2500000000000000 ) ) ;
#33 = ADVANCED_FACE ( 'NONE', ( #491 ), #529, .F. ) ;
#34 = DIRECTION ( 'NONE',  ( 0.000000000000000000, -1.000000000000000000, 0.000000000000000000 ) ) ;
#35 = VECTOR ( 'NONE', #69, 1000.000000000000000 ) ;
#36 = VECTOR ( 'NONE', #481, 1000.000000000000000 ) ;
#37 = DIRECTION ( 'NONE',  ( -1.000000000000000000, 0.000000000000000000, -0.000000000000000000 ) ) ;
#38 =( NAMED_UNIT ( * ) PLANE_ANGLE_UNIT ( ) SI_UNIT ( $, .RADIAN. ) );
#39 = DIRECTION ( 'NONE',  ( 1.000000000000000000, 0.000000000000000000, 0.000000000000000000 ) ) ;
#40 = ORIENTED_EDGE ( 'NONE', *, *, #155, .T. ) ;
#41 = ADVANCED_FACE ( 'NONE', ( #346 ), #253, .F. ) ;
#42 = LINE ( 'NONE', #445, #353 ) ;
#43 = DIRECTION ( 'NONE',  ( -1.000000000000000000, -0.000000000000000000, -0.000000000000000000 ) ) ;
#44 = ORIENTED_EDGE ( 'NONE', *, *, #518, .T. ) ;
#45 = EDGE_CURVE ( 'NONE', #517, #137, #396, .T. ) ;
#46 = CARTESIAN_POINT ( 'NONE',  ( -10.00000000000000000, -10.00000000000000000, -10.00000000000000000 ) ) ;
#47 = CARTESIAN_POINT ( 'NONE',  ( 10.25000000000000000, 0.000000000000000000, 109.7500000000000000 ) ) ;
#48 = ORIENTED_EDGE ( 'NONE', *, *, #141, .F. ) ;
#49 = DIRECTION ( 'NONE',  ( 1.000000000000000000, 0.000000000000000000, 0.000000000000000000 ) ) ;
#50 = EDGE_CURVE ( 'NONE', #549, #52, #170, .T. ) ;
#51 = CARTESIAN_POINT ( 'NONE',  ( -10.00000000000000000, -10.00000000000000000, -10.00000000000000000 ) ) ;
#52 = VERTEX_POINT ( 'NONE', #126 ) ;
#53 = FACE_OUTER_BOUND ( 'NONE', #226, .T. ) ;
#54 = ORIENTED_EDGE ( 'NONE', *, *, #211, .F. ) ;
#55 = VECTOR ( 'NONE', #441, 1000.000000000000000 ) ;
#56 = VECTOR ( 'NONE', #407, 1000.000000000000000 ) ;
#57 = DIRECTION ( 'NONE',  ( 0.000000000000000000, 0.000000000000000000, 1.000000000000000000 ) ) ;
#58 = VERTEX_POINT ( 'NONE', #73 ) ;
#59 = CARTESIAN_POINT ( 'NONE',  ( 10.00000000000000000, 10.00000000000000000, -10.00000000000000000 ) ) ;
#60 = CARTESIAN_POINT ( 'NONE',  ( 15.00000000000000000, -15.00000000000000000, 0.000000000000000000 ) ) ;
#61 = EDGE_CURVE ( 'NONE', #109, #559, #82, .T. ) ;
#62 = CARTESIAN_POINT ( 'NONE',  ( -10.24999999999999822, -10.25000000000000000, 109.7500000000000000 ) ) ;
#63 = ORIENTED_EDGE ( 'NONE', *, *, #399, .F. ) ;
#64 = VECTOR ( 'NONE', #175, 1000.000000000000000 ) ;
#65 = VERTEX_POINT ( 'NONE', #447 ) ;
#66 = DIRECTION ( 'NONE',  ( -0.000000000000000000, -1.000000000000000000, -0.000000000000000000 ) ) ;
#67 = EDGE_CURVE ( 'NONE', #58, #109, #243, .T. ) ;
#68 = ORIENTED_EDGE ( 'NONE', *, *, #177, .F. ) ;
#69 = DIRECTION ( 'NONE',  ( 0.000000000000000000, 0.000000000000000000, 1.000000000000000000 ) ) ;
#70 = DIRECTION ( 'NONE',  ( 1.000000000000000000, 0.000000000000000000, 0.000000000000000000 ) ) ;
#71 = FACE_OUTER_BOUND ( 'NONE', #248, .T. ) ;
#72 = AXIS2_PLACEMENT_3D ( 'NONE', #356, #39, #173 ) ;
#73 = CARTESIAN_POINT ( 'NONE',  ( -15.00000000000000000, 10.25000000000000000, 130.2500000000000000 ) ) ;
#74 =( GEOMETRIC_REPRESENTATION_CONTEXT ( 3 ) GLOBAL_UNCERTAINTY_ASSIGNED_CONTEXT ( ( #560 ) ) GLOBAL_UNIT_ASSIGNED_CONTEXT ( ( #135, #38, #587 ) ) REPRESENTATION_CONTEXT ( 'NONE', 'WORKASPACE' ) );
#75 = DIRECTION ( 'NONE',  ( 0.000000000000000000, 0.000000000000000000, -1.000000000000000000 ) ) ;
#76 = LINE ( 'NONE', #250, #55 ) ;
#77 = EDGE_CURVE ( 'NONE', #228, #513, #197, .T. ) ;
#78 = DIRECTION ( 'NONE',  ( 1.000000000000000000, 0.000000000000000000, 0.000000000000000000 ) ) ;
#79 = FACE_OUTER_BOUND ( 'NONE', #144, .T. ) ;
#80 = ADVANCED_FACE ( 'NONE', ( #28 ), #572, .F. ) ;
#81 = LINE ( 'NONE', #544, #543 ) ;
#82 = LINE ( 'NONE', #525, #532 ) ;
#83 = AXIS2_PLACEMENT_3D ( 'NONE', #479, #387, #432 ) ;
#84 = AXIS2_PLACEMENT_3D ( 'NONE', #32, #120, #164 ) ;
#85 = DIRECTION ( 'NONE',  ( 0.000000000000000000, 1.000000000000000000, 0.000000000000000000 ) ) ;
#86 = ADVANCED_FACE ( 'NONE', ( #25 ), #577, .T. ) ;
#87 = DIRECTION ( 'NONE',  ( -1.000000000000000000, 0.000000000000000000, 0.000000000000000000 ) ) ;
#88 = ORIENTED_EDGE ( 'NONE', *, *, #411, .T. ) ;
#89 = LINE ( 'NONE', #490, #131 ) ;
#90 = DIRECTION ( 'NONE',  ( 1.000000000000000000, 0.000000000000000000, 0.000000000000000000 ) ) ;
#91 = ORIENTED_EDGE ( 'NONE', *, *, #122, .T. ) ;
#92 = APPLICATION_PROTOCOL_DEFINITION ( 'draft international standard', 'automotive_design', 1998, #285 ) ;
#93 = DIRECTION ( 'NONE',  ( 0.000000000000000000, 0.000000000000000000, -1.000000000000000000 ) ) ;
#94 = ORIENTED_EDGE ( 'NONE', *, *, #325, .F. ) ;
#95 = VECTOR ( 'NONE', #567, 1000.000000000000000 ) ;
#96 = PLANE ( 'NONE',  #72 ) ;
#97 = ORIENTED_EDGE ( 'NONE', *, *, #110, .T. ) ;
#98 = CARTESIAN_POINT ( 'NONE',  ( -15.00000000000000000, 15.00000000000000000, 0.000000000000000000 ) ) ;
#99 = ORIENTED_EDGE ( 'NONE', *, *, #366, .F. ) ;
#100 = SURFACE_STYLE_FILL_AREA ( #417 ) ;
#101 = EDGE_LOOP ( 'NONE', ( #63, #280, #505, #68 ) ) ;
#102 = VECTOR ( 'NONE', #488, 1000.000000000000000 ) ;
#103 = PRESENTATION_LAYER_ASSIGNMENT (  '', '', ( #4 ) ) ;
#104 = CARTESIAN_POINT ( 'NONE',  ( 0.000000000000000000, -10.25000000000000000, 130.2500000000000000 ) ) ;
#105 = ADVANCED_FACE ( 'NONE', ( #247 ), #437, .F. ) ;
#106 = ORIENTED_EDGE ( 'NONE', *, *, #536, .F. ) ;
#107 = ORIENTED_EDGE ( 'NONE', *, *, #371, .F. ) ;
#108 = CARTESIAN_POINT ( 'NONE',  ( 0.000000000000000000, 0.000000000000000000, 0.000000000000000000 ) ) ;
#109 = VERTEX_POINT ( 'NONE', #343 ) ;
#110 = EDGE_CURVE ( 'NONE', #561, #189, #531, .T. ) ;
#111 = AXIS2_PLACEMENT_3D ( 'NONE', #163, #294, #482 ) ;
#112 = VECTOR ( 'NONE', #194, 1000.000000000000000 ) ;
#113 = CARTESIAN_POINT ( 'NONE',  ( -15.00000000000000000, -15.00000000000000000, 135.0000000000000000 ) ) ;
#114 = VERTEX_POINT ( 'NONE', #486 ) ;
#115 = CARTESIAN_POINT ( 'NONE',  ( 15.00000000000000000, -15.00000000000000000, 0.000000000000000000 ) ) ;
#116 = CARTESIAN_POINT ( 'NONE',  ( -10.25000000000000000, 0.000000000000000000, 109.7500000000000000 ) ) ;
#117 = EDGE_LOOP ( 'NONE', ( #373, #473, #322, #240 ) ) ;
#118 = CARTESIAN_POINT ( 'NONE',  ( 10.25000000000000000, 0.000000000000000000, 130.2500000000000000 ) ) ;
#119 = LINE ( 'NONE', #291, #102 ) ;
#120 = DIRECTION ( 'NONE',  ( -1.000000000000000000, 0.000000000000000000, 0.000000000000000000 ) ) ;
#121 = CARTESIAN_POINT ( 'NONE',  ( -15.00000000000000000, -15.00000000000000000, 135.0000000000000000 ) ) ;
#122 = EDGE_CURVE ( 'NONE', #450, #109, #76, .T. ) ;
#123 = PLANE ( 'NONE',  #363 ) ;
#124 = DIRECTION ( 'NONE',  ( 0.000000000000000000, -1.000000000000000000, 0.000000000000000000 ) ) ;
#125 = DIRECTION ( 'NONE',  ( -1.000000000000000000, -0.000000000000000000, -0.000000000000000000 ) ) ;
#126 = CARTESIAN_POINT ( 'NONE',  ( 10.25000000000000000, 0.000000000000000000, 109.7500000000000000 ) ) ;
#127 = ADVANCED_FACE ( 'NONE', ( #30 ), #208, .F. ) ;
#128 = CARTESIAN_POINT ( 'NONE',  ( 15.00000000000000000, -15.00000000000000000, 135.0000000000000000 ) ) ;
#129 = FACE_OUTER_BOUND ( 'NONE', #328, .T. ) ;
#130 = ORIENTED_EDGE ( 'NONE', *, *, #12, .T. ) ;
#131 = VECTOR ( 'NONE', #214, 1000.000000000000000 ) ;
#132 = DIRECTION ( 'NONE',  ( -1.000000000000000000, 0.000000000000000000, 0.000000000000000000 ) ) ;
#133 = CARTESIAN_POINT ( 'NONE',  ( -10.25000000000000000, -15.00000000000000000, 130.2500000000000000 ) ) ;
#134 = ORIENTED_EDGE ( 'NONE', *, *, #371, .T. ) ;
#135 =( LENGTH_UNIT ( ) NAMED_UNIT ( * ) SI_UNIT ( .MILLI., .METRE. ) );
#136 = FACE_OUTER_BOUND ( 'NONE', #597, .T. ) ;
#137 = VERTEX_POINT ( 'NONE', #401 ) ;
#138 = CARTESIAN_POINT ( 'NONE',  ( -15.00000000000000000, -10.25000000000000000, 109.7500000000000000 ) ) ;
#139 = CARTESIAN_POINT ( 'NONE',  ( -15.00000000000000000, -10.25000000000000000, 130.2500000000000000 ) ) ;
#140 = VERTEX_POINT ( 'NONE', #313 ) ;
#141 = EDGE_CURVE ( 'NONE', #502, #385, #178, .T. ) ;
#142 = VECTOR ( 'NONE', #66, 1000.000000000000000 ) ;
#143 = CARTESIAN_POINT ( 'NONE',  ( 0.000000000000000000, 0.000000000000000000, 135.0000000000000000 ) ) ;
#144 = EDGE_LOOP ( 'NONE', ( #176, #48, #308, #107 ) ) ;
#145 = ORIENTED_EDGE ( 'NONE', *, *, #528, .F. ) ;
#146 = EDGE_CURVE ( 'NONE', #238, #137, #588, .T. ) ;
#147 = LINE ( 'NONE', #321, #493 ) ;
#148 = ORIENTED_EDGE ( 'NONE', *, *, #558, .F. ) ;
#149 = AXIS2_PLACEMENT_3D ( 'NONE', #443, #34, #349 ) ;
#150 = VECTOR ( 'NONE', #188, 1000.000000000000000 ) ;
#151 = DIRECTION ( 'NONE',  ( -0.000000000000000000, -1.000000000000000000, -0.000000000000000000 ) ) ;
#152 = EDGE_LOOP ( 'NONE', ( #568, #174, #470, #11 ) ) ;
#153 = DIRECTION ( 'NONE',  ( -0.000000000000000000, -1.000000000000000000, -0.000000000000000000 ) ) ;
#154 = ORIENTED_EDGE ( 'NONE', *, *, #227, .T. ) ;
#155 = EDGE_CURVE ( 'NONE', #513, #450, #223, .T. ) ;
#156 = ORIENTED_EDGE ( 'NONE', *, *, #77, .T. ) ;
#157 = ORIENTED_EDGE ( 'NONE', *, *, #352, .T. ) ;
#158 = PRODUCT_DEFINITION ( 'General', '', #295, #466 ) ;
#159 = ORIENTED_EDGE ( 'NONE', *, *, #171, .T. ) ;
#160 = LINE ( 'NONE', #207, #142 ) ;
#161 = DIRECTION ( 'NONE',  ( 0.000000000000000000, 0.000000000000000000, -1.000000000000000000 ) ) ;
#162 = CARTESIAN_POINT ( 'NONE',  ( -15.00000000000000000, -10.25000000000000000, 109.7500000000000000 ) ) ;
#163 = CARTESIAN_POINT ( 'NONE',  ( -10.00000000000000000, 10.00000000000000000, -10.00000000000000000 ) ) ;
#164 = DIRECTION ( 'NONE',  ( 0.000000000000000000, 0.000000000000000000, 1.000000000000000000 ) ) ;
#165 = DIRECTION ( 'NONE',  ( -1.000000000000000000, 0.000000000000000000, -0.000000000000000000 ) ) ;
#166 = CARTESIAN_POINT ( 'NONE',  ( -15.00000000000000000, 15.00000000000000000, 135.0000000000000000 ) ) ;
#167 = CARTESIAN_POINT ( 'NONE',  ( 0.000000000000000000, 0.000000000000000000, 0.000000000000000000 ) ) ;
#168 = APPLICATION_CONTEXT ( 'automotive_design' ) ;
#169 = CARTESIAN_POINT ( 'NONE',  ( 0.000000000000000000, 0.000000000000000000, 0.000000000000000000 ) ) ;
#170 = LINE ( 'NONE', #116, #13 ) ;
#171 = EDGE_CURVE ( 'NONE', #357, #8, #172, .T. ) ;
#172 = LINE ( 'NONE', #354, #245 ) ;
#173 = DIRECTION ( 'NONE',  ( 0.000000000000000000, 0.000000000000000000, -1.000000000000000000 ) ) ;
#174 = ORIENTED_EDGE ( 'NONE', *, *, #146, .F. ) ;
#175 = DIRECTION ( 'NONE',  ( 0.000000000000000000, 0.000000000000000000, -1.000000000000000000 ) ) ;
#176 = ORIENTED_EDGE ( 'NONE', *, *, #334, .F. ) ;
#177 = EDGE_CURVE ( 'NONE', #288, #58, #551, .T. ) ;
#178 = LINE ( 'NONE', #98, #542 ) ;
#179 = ORIENTED_EDGE ( 'NONE', *, *, #67, .T. ) ;
#180 = DIRECTION ( 'NONE',  ( 1.000000000000000000, 0.000000000000000000, 0.000000000000000000 ) ) ;
#181 = ORIENTED_EDGE ( 'NONE', *, *, #2, .T. ) ;
#182 = VECTOR ( 'NONE', #390, 1000.000000000000000 ) ;
#183 = LINE ( 'NONE', #5, #503 ) ;
#184 = VERTEX_POINT ( 'NONE', #504 ) ;
#185 = ADVANCED_FACE ( 'NONE', ( #495 ), #271, .T. ) ;
#186 = SURFACE_SIDE_STYLE ('',( #100 ) ) ;
#187 = ORIENTED_EDGE ( 'NONE', *, *, #141, .T. ) ;
#188 = DIRECTION ( 'NONE',  ( -0.000000000000000000, -1.000000000000000000, -0.000000000000000000 ) ) ;
#189 = VERTEX_POINT ( 'NONE', #215 ) ;
#190 = VECTOR ( 'NONE', #205, 1000.000000000000000 ) ;
#191 = VECTOR ( 'NONE', #530, 1000.000000000000000 ) ;
#192 = LINE ( 'NONE', #62, #220 ) ;
#193 = VERTEX_POINT ( 'NONE', #540 ) ;
#194 = DIRECTION ( 'NONE',  ( 0.000000000000000000, 0.000000000000000000, 1.000000000000000000 ) ) ;
#195 = ORIENTED_EDGE ( 'NONE', *, *, #380, .T. ) ;
#196 = DIRECTION ( 'NONE',  ( -1.000000000000000000, -0.000000000000000000, -0.000000000000000000 ) ) ;
#197 = LINE ( 'NONE', #382, #284 ) ;
#198 = CLOSED_SHELL ( 'NONE', ( #244, #22, #426, #438, #80, #41, #251, #471, #86, #203, #581, #185, #105, #270, #281, #33, #419, #127, #483 ) ) ;
#199 = VERTEX_POINT ( 'NONE', #458 ) ;
#200 = AXIS2_PLACEMENT_3D ( 'NONE', #381, #436, #386 ) ;
#201 = LINE ( 'NONE', #388, #474 ) ;
#202 = CARTESIAN_POINT ( 'NONE',  ( -15.00000000000000000, 10.25000000000000000, 130.2500000000000000 ) ) ;
#203 = ADVANCED_FACE ( 'NONE', ( #129 ), #96, .T. ) ;
#204 = CARTESIAN_POINT ( 'NONE',  ( 10.00000000000000000, -10.00000000000000000, -10.00000000000000000 ) ) ;
#205 = DIRECTION ( 'NONE',  ( -0.000000000000000000, -1.000000000000000000, -0.000000000000000000 ) ) ;
#206 = PRODUCT_RELATED_PRODUCT_CATEGORY ( 'part', '', ( #492 ) ) ;
#207 = CARTESIAN_POINT ( 'NONE',  ( 10.25000000000000000, 0.000000000000000000, 109.7500000000000000 ) ) ;
#208 = PLANE ( 'NONE',  #383 ) ;
#209 = DIRECTION ( 'NONE',  ( 0.000000000000000000, -1.000000000000000000, 0.000000000000000000 ) ) ;
#210 = AXIS2_PLACEMENT_3D ( 'NONE', #167, #538, #212 ) ;
#211 = EDGE_CURVE ( 'NONE', #480, #357, #556, .T. ) ;
#212 = DIRECTION ( 'NONE',  ( -1.000000000000000000, 0.000000000000000000, -0.000000000000000000 ) ) ;
#213 = AXIS2_PLACEMENT_3D ( 'NONE', #104, #469, #564 ) ;
#214 = DIRECTION ( 'NONE',  ( -1.000000000000000000, 0.000000000000000000, 0.000000000000000000 ) ) ;
#215 = CARTESIAN_POINT ( 'NONE',  ( -15.00000000000000000, -15.00000000000000000, 135.0000000000000000 ) ) ;
#216 = DIRECTION ( 'NONE',  ( 0.000000000000000000, 0.000000000000000000, -1.000000000000000000 ) ) ;
#217 = ORIENTED_EDGE ( 'NONE', *, *, #122, .F. ) ;
#218 = LINE ( 'NONE', #593, #424 ) ;
#219 = ORIENTED_EDGE ( 'NONE', *, *, #565, .T. ) ;
#220 = VECTOR ( 'NONE', #422, 1000.000000000000000 ) ;
#221 = EDGE_CURVE ( 'NONE', #52, #65, #408, .T. ) ;
#222 = DIRECTION ( 'NONE',  ( 0.000000000000000000, 0.000000000000000000, 1.000000000000000000 ) ) ;
#223 = LINE ( 'NONE', #317, #433 ) ;
#224 = ORIENTED_EDGE ( 'NONE', *, *, #592, .F. ) ;
#225 = FACE_OUTER_BOUND ( 'NONE', #311, .T. ) ;
#226 = EDGE_LOOP ( 'NONE', ( #331, #145, #461, #496, #477, #338, #541, #569 ) ) ;
#227 = EDGE_CURVE ( 'NONE', #137, #184, #545, .T. ) ;
#228 = VERTEX_POINT ( 'NONE', #307 ) ;
#229 = LINE ( 'NONE', #330, #384 ) ;
#230 = ORIENTED_EDGE ( 'NONE', *, *, #375, .F. ) ;
#231 = CARTESIAN_POINT ( 'NONE',  ( 10.00000000000000000, 10.00000000000000000, 0.000000000000000000 ) ) ;
#232 = ORIENTED_EDGE ( 'NONE', *, *, #211, .T. ) ;
#233 = ORIENTED_EDGE ( 'NONE', *, *, #293, .F. ) ;
#234 = VECTOR ( 'NONE', #520, 1000.000000000000000 ) ;
#235 = EDGE_CURVE ( 'NONE', #238, #546, #405, .T. ) ;
#236 = LINE ( 'NONE', #367, #344 ) ;
#237 = ORIENTED_EDGE ( 'NONE', *, *, #399, .T. ) ;
#238 = VERTEX_POINT ( 'NONE', #51 ) ;
#239 = FACE_OUTER_BOUND ( 'NONE', #329, .T. ) ;
#240 = ORIENTED_EDGE ( 'NONE', *, *, #592, .T. ) ;
#241 = ORIENTED_EDGE ( 'NONE', *, *, #290, .F. ) ;
#242 = LINE ( 'NONE', #478, #484 ) ;
#243 = LINE ( 'NONE', #202, #393 ) ;
#244 = ADVANCED_FACE ( 'NONE', ( #498 ), #1, .T. ) ;
#245 = VECTOR ( 'NONE', #586, 1000.000000000000000 ) ;
#246 = PLANE ( 'NONE',  #84 ) ;
#247 = FACE_OUTER_BOUND ( 'NONE', #3, .T. ) ;
#248 = EDGE_LOOP ( 'NONE', ( #195, #232, #99, #230 ) ) ;
#249 = DIRECTION ( 'NONE',  ( -0.000000000000000000, -0.000000000000000000, -1.000000000000000000 ) ) ;
#250 = CARTESIAN_POINT ( 'NONE',  ( 0.000000000000000000, 10.25000000000000000, 109.7500000000000000 ) ) ;
#251 = ADVANCED_FACE ( 'NONE', ( #225 ), #362, .F. ) ;
#252 = FACE_OUTER_BOUND ( 'NONE', #465, .T. ) ;
#253 = PLANE ( 'NONE',  #149 ) ;
#254 = CARTESIAN_POINT ( 'NONE',  ( 10.00000000000000000, -10.00000000000000000, 0.000000000000000000 ) ) ;
#255 = VECTOR ( 'NONE', #550, 1000.000000000000000 ) ;
#256 = DIRECTION ( 'NONE',  ( 0.000000000000000000, -1.000000000000000000, 0.000000000000000000 ) ) ;
#257 = CARTESIAN_POINT ( 'NONE',  ( 0.000000000000000000, 10.25000000000000000, 130.2500000000000000 ) ) ;
#258 = DIRECTION ( 'NONE',  ( 0.000000000000000000, 0.000000000000000000, 1.000000000000000000 ) ) ;
#259 = EDGE_LOOP ( 'NONE', ( #269, #326, #507, #335 ) ) ;
#260 = LINE ( 'NONE', #595, #276 ) ;
#261 = CARTESIAN_POINT ( 'NONE',  ( 0.000000000000000000, 0.000000000000000000, 0.000000000000000000 ) ) ;
#262 = ORIENTED_EDGE ( 'NONE', *, *, #547, .T. ) ;
#263 = EDGE_CURVE ( 'NONE', #189, #140, #218, .T. ) ;
#264 = SHAPE_DEFINITION_REPRESENTATION ( #31, #9 ) ;
#265 = PLANE ( 'NONE',  #533 ) ;
#266 = ORIENTED_EDGE ( 'NONE', *, *, #457, .T. ) ;
#267 = PRODUCT_CONTEXT ( 'NONE', #168, 'mechanical' ) ;
#268 = DIRECTION ( 'NONE',  ( 1.000000000000000000, 0.000000000000000000, 0.000000000000000000 ) ) ;
#269 = ORIENTED_EDGE ( 'NONE', *, *, #464, .T. ) ;
#270 = ADVANCED_FACE ( 'NONE', ( #136 ), #265, .F. ) ;
#271 = PLANE ( 'NONE',  #323 ) ;
#272 = ORIENTED_EDGE ( 'NONE', *, *, #293, .T. ) ;
#273 = DIRECTION ( 'NONE',  ( -0.000000000000000000, 1.000000000000000000, 0.000000000000000000 ) ) ;
#274 = VERTEX_POINT ( 'NONE', #231 ) ;
#275 = VECTOR ( 'NONE', #506, 1000.000000000000000 ) ;
#276 = VECTOR ( 'NONE', #125, 1000.000000000000000 ) ;
#277 = CARTESIAN_POINT ( 'NONE',  ( -10.25000000000000000, -15.00000000000000000, 109.7500000000000000 ) ) ;
#278 = ORIENTED_EDGE ( 'NONE', *, *, #45, .T. ) ;
#279 = LINE ( 'NONE', #372, #463 ) ;
#280 = ORIENTED_EDGE ( 'NONE', *, *, #61, .F. ) ;
#281 = ADVANCED_FACE ( 'NONE', ( #53 ), #319, .F. ) ;
#282 =( LENGTH_UNIT ( ) NAMED_UNIT ( * ) SI_UNIT ( .MILLI., .METRE. ) );
#283 = ORIENTED_EDGE ( 'NONE', *, *, #558, .T. ) ;
#284 = VECTOR ( 'NONE', #337, 1000.000000000000000 ) ;
#285 = APPLICATION_CONTEXT ( 'automotive_design' ) ;
#286 = VECTOR ( 'NONE', #90, 1000.000000000000000 ) ;
#287 = DIRECTION ( 'NONE',  ( -1.000000000000000000, -0.000000000000000000, -0.000000000000000000 ) ) ;
#288 = VERTEX_POINT ( 'NONE', #7 ) ;
#289 = CARTESIAN_POINT ( 'NONE',  ( -10.00000000000000000, -10.00000000000000000, -10.00000000000000000 ) ) ;
#290 = EDGE_CURVE ( 'NONE', #413, #238, #183, .T. ) ;
#291 = CARTESIAN_POINT ( 'NONE',  ( 0.000000000000000000, 10.25000000000000000, 109.7500000000000000 ) ) ;
#292 = CARTESIAN_POINT ( 'NONE',  ( -10.25000000000000000, 0.000000000000000000, 130.2500000000000000 ) ) ;
#293 = EDGE_CURVE ( 'NONE', #199, #559, #236, .T. ) ;
#294 = DIRECTION ( 'NONE',  ( 0.000000000000000000, 1.000000000000000000, 0.000000000000000000 ) ) ;
#295 = PRODUCT_DEFINITION_FORMATION_WITH_SPECIFIED_SOURCE ( 'Symmetric', '', #492, .NOT_KNOWN. ) ;
#296 = CARTESIAN_POINT ( 'NONE',  ( -15.00000000000000000, -15.00000000000000000, 135.0000000000000000 ) ) ;
#297 = DIRECTION ( 'NONE',  ( -0.000000000000000000, -1.000000000000000000, -0.000000000000000000 ) ) ;
#298 = DIRECTION ( 'NONE',  ( -1.000000000000000000, 0.000000000000000000, 0.000000000000000000 ) ) ;
#299 = DIRECTION ( 'NONE',  ( 0.000000000000000000, -0.000000000000000000, -1.000000000000000000 ) ) ;
#300 = DIRECTION ( 'NONE',  ( 0.000000000000000000, 1.000000000000000000, 0.000000000000000000 ) ) ;
#301 = CARTESIAN_POINT ( 'NONE',  ( -15.00000000000000000, 15.00000000000000000, 135.0000000000000000 ) ) ;
#302 = VECTOR ( 'NONE', #429, 1000.000000000000000 ) ;
#303 = CARTESIAN_POINT ( 'NONE',  ( -10.00000000000000000, -10.00000000000000000, -10.00000000000000000 ) ) ;
#304 = ORIENTED_EDGE ( 'NONE', *, *, #263, .F. ) ;
#305 = CARTESIAN_POINT ( 'NONE',  ( 10.00000000000000000, -10.00000000000000000, -10.00000000000000000 ) ) ;
#306 = EDGE_CURVE ( 'NONE', #189, #566, #516, .T. ) ;
#307 = CARTESIAN_POINT ( 'NONE',  ( 0.000000000000000000, 0.000000000000000000, 130.2500000000000000 ) ) ;
#308 = ORIENTED_EDGE ( 'NONE', *, *, #2, .F. ) ;
#309 = LINE ( 'NONE', #254, #255 ) ;
#310 = CARTESIAN_POINT ( 'NONE',  ( 10.25000000000000000, 0.000000000000000000, 109.7500000000000000 ) ) ;
#311 = EDGE_LOOP ( 'NONE', ( #97, #430, #21, #88 ) ) ;
#312 = APPLICATION_PROTOCOL_DEFINITION ( 'draft international standard', 'automotive_design', 1998, #168 ) ;
#313 = CARTESIAN_POINT ( 'NONE',  ( -15.00000000000000000, -15.00000000000000000, 0.000000000000000000 ) ) ;
#314 = EDGE_LOOP ( 'NONE', ( #241, #320, #418, #459 ) ) ;
#315 = VECTOR ( 'NONE', #196, 1000.000000000000000 ) ;
#316 = EDGE_CURVE ( 'NONE', #549, #228, #514, .T. ) ;
#317 = CARTESIAN_POINT ( 'NONE',  ( 0.000000000000000000, 10.25000000000000000, 130.2500000000000000 ) ) ;
#318 = ORIENTED_EDGE ( 'NONE', *, *, #50, .T. ) ;
#319 = PLANE ( 'NONE',  #213 ) ;
#320 = ORIENTED_EDGE ( 'NONE', *, *, #489, .F. ) ;
#321 = CARTESIAN_POINT ( 'NONE',  ( 10.00000000000000000, -10.00000000000000000, -10.00000000000000000 ) ) ;
#322 = ORIENTED_EDGE ( 'NONE', *, *, #489, .T. ) ;
#323 = AXIS2_PLACEMENT_3D ( 'NONE', #351, #412, #37 ) ;
#324 =( NAMED_UNIT ( * ) PLANE_ANGLE_UNIT ( ) SI_UNIT ( $, .RADIAN. ) );
#325 = EDGE_CURVE ( 'NONE', #416, #288, #229, .T. ) ;
#326 = ORIENTED_EDGE ( 'NONE', *, *, #508, .F. ) ;
#327 = DIRECTION ( 'NONE',  ( 0.000000000000000000, -0.000000000000000000, 1.000000000000000000 ) ) ;
#328 = EDGE_LOOP ( 'NONE', ( #148, #23, #475, #435 ) ) ;
#329 = EDGE_LOOP ( 'NONE', ( #409, #304, #18, #157 ) ) ;
#330 = CARTESIAN_POINT ( 'NONE',  ( 0.000000000000000000, -10.25000000000000000, 130.2500000000000000 ) ) ;
#331 = ORIENTED_EDGE ( 'NONE', *, *, #77, .F. ) ;
#332 = AXIS2_PLACEMENT_3D ( 'NONE', #389, #579, #165 ) ;
#333 = AXIS2_PLACEMENT_3D ( 'NONE', #296, #78, #75 ) ;
#334 = EDGE_CURVE ( 'NONE', #385, #140, #462, .T. ) ;
#335 = ORIENTED_EDGE ( 'NONE', *, *, #391, .T. ) ;
#336 = CARTESIAN_POINT ( 'NONE',  ( 0.000000000000000000, 10.25000000000000000, 109.7500000000000000 ) ) ;
#337 = DIRECTION ( 'NONE',  ( 0.000000000000000000, 1.000000000000000000, 0.000000000000000000 ) ) ;
#338 = ORIENTED_EDGE ( 'NONE', *, *, #325, .T. ) ;
#339 = CARTESIAN_POINT ( 'NONE',  ( 15.00000000000000000, 15.00000000000000000, 135.0000000000000000 ) ) ;
#340 = CARTESIAN_POINT ( 'NONE',  ( 10.25000000000000000, -15.00000000000000000, 109.7500000000000000 ) ) ;
#341 = MANIFOLD_SOLID_BREP ( 'Cut-Extrude4', #198 ) ;
#342 = FACE_BOUND ( 'NONE', #370, .T. ) ;
#343 = CARTESIAN_POINT ( 'NONE',  ( -15.00000000000000000, 10.25000000000000000, 109.7500000000000000 ) ) ;
#344 = VECTOR ( 'NONE', #509, 1000.000000000000000 ) ;
#345 = LINE ( 'NONE', #162, #35 ) ;
#346 = FACE_OUTER_BOUND ( 'NONE', #423, .T. ) ;
#347 = EDGE_CURVE ( 'NONE', #546, #184, #147, .T. ) ;
#348 = DIRECTION ( 'NONE',  ( 0.000000000000000000, -0.000000000000000000, -1.000000000000000000 ) ) ;
#349 = DIRECTION ( 'NONE',  ( 0.000000000000000000, -0.000000000000000000, -1.000000000000000000 ) ) ;
#350 = CARTESIAN_POINT ( 'NONE',  ( 15.00000000000000000, -15.00000000000000000, 135.0000000000000000 ) ) ;
#351 = CARTESIAN_POINT ( 'NONE',  ( 0.000000000000000000, 0.000000000000000000, -10.00000000000000000 ) ) ;
#352 = EDGE_CURVE ( 'NONE', #561, #385, #425, .T. ) ;
#353 = VECTOR ( 'NONE', #585, 1000.000000000000000 ) ;
#354 = CARTESIAN_POINT ( 'NONE',  ( -10.25000000000000000, -15.00000000000000000, 109.7500000000000000 ) ) ;
#355 = ORIENTED_EDGE ( 'NONE', *, *, #316, .F. ) ;
#356 = CARTESIAN_POINT ( 'NONE',  ( 10.00000000000000000, -10.00000000000000000, -10.00000000000000000 ) ) ;
#357 = VERTEX_POINT ( 'NONE', #277 ) ;
#358 = CARTESIAN_POINT ( 'NONE',  ( -10.00000000000000000, -10.00000000000000000, -10.00000000000000000 ) ) ;
#359 = EDGE_CURVE ( 'NONE', #193, #274, #17, .T. ) ;
#360 = EDGE_LOOP ( 'NONE', ( #134, #521, #456, #510 ) ) ;
#361 = DIRECTION ( 'NONE',  ( 0.000000000000000000, -0.000000000000000000, -1.000000000000000000 ) ) ;
#362 = PLANE ( 'NONE',  #555 ) ;
#363 = AXIS2_PLACEMENT_3D ( 'NONE', #289, #298, #487 ) ;
#364 = ORIENTED_EDGE ( 'NONE', *, *, #45, .F. ) ;
#365 = VECTOR ( 'NONE', #151, 1000.000000000000000 ) ;
#366 = EDGE_CURVE ( 'NONE', #199, #357, #378, .T. ) ;
#367 = CARTESIAN_POINT ( 'NONE',  ( 0.000000000000000000, -10.25000000000000000, 109.7500000000000000 ) ) ;
#368 = ORIENTED_EDGE ( 'NONE', *, *, #352, .F. ) ;
#369 = SURFACE_STYLE_USAGE ( .BOTH. , #186 ) ;
#370 = EDGE_LOOP ( 'NONE', ( #575, #54, #106, #406 ) ) ;
#371 = EDGE_CURVE ( 'NONE', #140, #402, #279, .T. ) ;
#372 = CARTESIAN_POINT ( 'NONE',  ( -15.00000000000000000, -15.00000000000000000, 0.000000000000000000 ) ) ;
#373 = ORIENTED_EDGE ( 'NONE', *, *, #565, .F. ) ;
#374 = VECTOR ( 'NONE', #57, 1000.000000000000000 ) ;
#375 = EDGE_CURVE ( 'NONE', #416, #199, #192, .T. ) ;
#376 = ORIENTED_EDGE ( 'NONE', *, *, #316, .T. ) ;
#377 = ORIENTED_EDGE ( 'NONE', *, *, #61, .T. ) ;
#378 = LINE ( 'NONE', #420, #150 ) ;
#379 = VERTEX_POINT ( 'NONE', #339 ) ;
#380 = EDGE_CURVE ( 'NONE', #416, #480, #395, .T. ) ;
#381 = CARTESIAN_POINT ( 'NONE',  ( -15.00000000000000000, -15.00000000000000000, 135.0000000000000000 ) ) ;
#382 = CARTESIAN_POINT ( 'NONE',  ( 0.000000000000000000, -10.25000000000000000, 130.2500000000000000 ) ) ;
#383 = AXIS2_PLACEMENT_3D ( 'NONE', #47, #180, #216 ) ;
#384 = VECTOR ( 'NONE', #460, 1000.000000000000000 ) ;
#385 = VERTEX_POINT ( 'NONE', #580 ) ;
#386 = DIRECTION ( 'NONE',  ( 0.000000000000000000, -0.000000000000000000, 1.000000000000000000 ) ) ;
#387 = DIRECTION ( 'NONE',  ( -1.000000000000000000, 0.000000000000000000, 0.000000000000000000 ) ) ;
#388 = CARTESIAN_POINT ( 'NONE',  ( 15.00000000000000000, 15.00000000000000000, 135.0000000000000000 ) ) ;
#389 = CARTESIAN_POINT ( 'NONE',  ( 0.000000000000000000, 10.25000000000000000, 109.7500000000000000 ) ) ;
#390 = DIRECTION ( 'NONE',  ( 0.000000000000000000, 0.000000000000000000, 1.000000000000000000 ) ) ;
#391 = EDGE_CURVE ( 'NONE', #52, #8, #160, .T. ) ;
#392 = CARTESIAN_POINT ( 'NONE',  ( 0.000000000000000000, -10.25000000000000000, 109.7500000000000000 ) ) ;
#393 = VECTOR ( 'NONE', #161, 1000.000000000000000 ) ;
#394 =( GEOMETRIC_REPRESENTATION_CONTEXT ( 3 ) GLOBAL_UNCERTAINTY_ASSIGNED_CONTEXT ( ( #410 ) ) GLOBAL_UNIT_ASSIGNED_CONTEXT ( ( #282, #324, #472 ) ) REPRESENTATION_CONTEXT ( 'NONE', 'WORKASPACE' ) );
#395 = LINE ( 'NONE', #292, #36 ) ;
#396 = LINE ( 'NONE', #584, #190 ) ;
#397 = FACE_OUTER_BOUND ( 'NONE', #152, .T. ) ;
#398 = CARTESIAN_POINT ( 'NONE',  ( -10.00000000000000000, -10.00000000000000000, 0.000000000000000000 ) ) ;
#399 = EDGE_CURVE ( 'NONE', #559, #288, #345, .T. ) ;
#400 = LINE ( 'NONE', #350, #26 ) ;
#401 = CARTESIAN_POINT ( 'NONE',  ( -10.00000000000000000, -10.00000000000000000, 0.000000000000000000 ) ) ;
#402 = VERTEX_POINT ( 'NONE', #115 ) ;
#403 = CARTESIAN_POINT ( 'NONE',  ( 0.000000000000000000, 0.000000000000000000, 109.7500000000000000 ) ) ;
#404 = AXIS2_PLACEMENT_3D ( 'NONE', #500, #222, #49 ) ;
#405 = LINE ( 'NONE', #303, #286 ) ;
#406 = ORIENTED_EDGE ( 'NONE', *, *, #464, .F. ) ;
#407 = DIRECTION ( 'NONE',  ( -1.000000000000000000, -0.000000000000000000, -0.000000000000000000 ) ) ;
#408 = LINE ( 'NONE', #310, #415 ) ;
#409 = ORIENTED_EDGE ( 'NONE', *, *, #334, .T. ) ;
#410 = UNCERTAINTY_MEASURE_WITH_UNIT (LENGTH_MEASURE( 1.000000000000000082E-05 ), #282, 'distance_accuracy_value', 'NONE');
#411 = EDGE_CURVE ( 'NONE', #379, #561, #578, .T. ) ;
#412 = DIRECTION ( 'NONE',  ( 0.000000000000000000, 0.000000000000000000, -1.000000000000000000 ) ) ;
#413 = VERTEX_POINT ( 'NONE', #527 ) ;
#414 = CARTESIAN_POINT ( 'NONE',  ( -15.00000000000000000, 15.00000000000000000, 135.0000000000000000 ) ) ;
#415 = VECTOR ( 'NONE', #596, 1000.000000000000000 ) ;
#416 = VERTEX_POINT ( 'NONE', #29 ) ;
#417 = FILL_AREA_STYLE ('',( #467 ) ) ;
#418 = ORIENTED_EDGE ( 'NONE', *, *, #446, .F. ) ;
#419 = ADVANCED_FACE ( 'NONE', ( #71 ), #246, .F. ) ;
#420 = CARTESIAN_POINT ( 'NONE',  ( -10.25000000000000000, 0.000000000000000000, 109.7500000000000000 ) ) ;
#421 = ORIENTED_EDGE ( 'NONE', *, *, #528, .T. ) ;
#422 = DIRECTION ( 'NONE',  ( 0.000000000000000000, 0.000000000000000000, -1.000000000000000000 ) ) ;
#423 = EDGE_LOOP ( 'NONE', ( #187, #368, #6, #266 ) ) ;
#424 = VECTOR ( 'NONE', #548, 1000.000000000000000 ) ;
#425 = LINE ( 'NONE', #414, #234 ) ;
#426 = ADVANCED_FACE ( 'NONE', ( #485, #239 ), #524, .F. ) ;
#427 = EDGE_LOOP ( 'NONE', ( #130, #376, #156, #40 ) ) ;
#428 = ORIENTED_EDGE ( 'NONE', *, *, #221, .T. ) ;
#429 = DIRECTION ( 'NONE',  ( -0.000000000000000000, -1.000000000000000000, -0.000000000000000000 ) ) ;
#430 = ORIENTED_EDGE ( 'NONE', *, *, #306, .T. ) ;
#431 = CARTESIAN_POINT ( 'NONE',  ( 15.00000000000000000, 15.00000000000000000, 0.000000000000000000 ) ) ;
#432 = DIRECTION ( 'NONE',  ( 0.000000000000000000, 0.000000000000000000, 1.000000000000000000 ) ) ;
#433 = VECTOR ( 'NONE', #501, 1000.000000000000000 ) ;
#434 = MECHANICAL_DESIGN_GEOMETRIC_PRESENTATION_REPRESENTATION (  '', ( #4 ), #394 ) ;
#435 = ORIENTED_EDGE ( 'NONE', *, *, #359, .T. ) ;
#436 = DIRECTION ( 'NONE',  ( 0.000000000000000000, 1.000000000000000000, 0.000000000000000000 ) ) ;
#437 = PLANE ( 'NONE',  #332 ) ;
#438 = ADVANCED_FACE ( 'NONE', ( #342, #583 ), #534, .F. ) ;
#439 = ORIENTED_EDGE ( 'NONE', *, *, #574, .F. ) ;
#440 = LINE ( 'NONE', #537, #182 ) ;
#441 = DIRECTION ( 'NONE',  ( -1.000000000000000000, -0.000000000000000000, -0.000000000000000000 ) ) ;
#442 = PLANE ( 'NONE',  #444 ) ;
#443 = CARTESIAN_POINT ( 'NONE',  ( -15.00000000000000000, 15.00000000000000000, 135.0000000000000000 ) ) ;
#444 = AXIS2_PLACEMENT_3D ( 'NONE', #169, #209, #348 ) ;
#445 = CARTESIAN_POINT ( 'NONE',  ( -10.00000000000000000, 10.00000000000000000, -10.00000000000000000 ) ) ;
#446 = EDGE_CURVE ( 'NONE', #546, #193, #27, .T. ) ;
#447 = CARTESIAN_POINT ( 'NONE',  ( 10.25000000000000000, 0.000000000000000000, 130.2500000000000000 ) ) ;
#448 = PLANE ( 'NONE',  #512 ) ;
#449 = DIRECTION ( 'NONE',  ( -1.000000000000000000, 0.000000000000000000, -0.000000000000000000 ) ) ;
#450 = VERTEX_POINT ( 'NONE', #336 ) ;
#451 = DIRECTION ( 'NONE',  ( 0.000000000000000000, -1.000000000000000000, 0.000000000000000000 ) ) ;
#452 = DIRECTION ( 'NONE',  ( 0.000000000000000000, 1.000000000000000000, 0.000000000000000000 ) ) ;
#453 = ORIENTED_EDGE ( 'NONE', *, *, #366, .T. ) ;
#454 = LINE ( 'NONE', #257, #56 ) ;
#455 = CARTESIAN_POINT ( 'NONE',  ( 0.000000000000000000, 10.25000000000000000, 130.2500000000000000 ) ) ;
#456 = ORIENTED_EDGE ( 'NONE', *, *, #306, .F. ) ;
#457 = EDGE_CURVE ( 'NONE', #379, #502, #201, .T. ) ;
#458 = CARTESIAN_POINT ( 'NONE',  ( -10.25000000000000000, -10.25000000000000000, 109.7500000000000000 ) ) ;
#459 = ORIENTED_EDGE ( 'NONE', *, *, #235, .F. ) ;
#460 = DIRECTION ( 'NONE',  ( -1.000000000000000000, -0.000000000000000000, -0.000000000000000000 ) ) ;
#461 = ORIENTED_EDGE ( 'NONE', *, *, #508, .T. ) ;
#462 = LINE ( 'NONE', #14, #365 ) ;
#463 = VECTOR ( 'NONE', #562, 1000.000000000000000 ) ;
#464 = EDGE_CURVE ( 'NONE', #8, #114, #440, .T. ) ;
#465 = EDGE_LOOP ( 'NONE', ( #318, #428, #421, #355 ) ) ;
#466 = PRODUCT_DEFINITION_CONTEXT ( 'detailed design', #285, 'design' ) ;
#467 = FILL_AREA_STYLE_COLOUR ( '', #573 ) ;
#468 = LINE ( 'NONE', #60, #553 ) ;
#469 = DIRECTION ( 'NONE',  ( 0.000000000000000000, 0.000000000000000000, 1.000000000000000000 ) ) ;
#470 = ORIENTED_EDGE ( 'NONE', *, *, #235, .T. ) ;
#471 = ADVANCED_FACE ( 'NONE', ( #20 ), #123, .T. ) ;
#472 =( NAMED_UNIT ( * ) SI_UNIT ( $, .STERADIAN. ) SOLID_ANGLE_UNIT ( ) );
#473 = ORIENTED_EDGE ( 'NONE', *, *, #359, .F. ) ;
#474 = VECTOR ( 'NONE', #249, 1000.000000000000000 ) ;
#475 = ORIENTED_EDGE ( 'NONE', *, *, #446, .T. ) ;
#476 = CARTESIAN_POINT ( 'NONE',  ( -10.25000000000000000, -15.00000000000000000, 130.2500000000000000 ) ) ;
#477 = ORIENTED_EDGE ( 'NONE', *, *, #380, .F. ) ;
#478 = CARTESIAN_POINT ( 'NONE',  ( -10.00000000000000000, 10.00000000000000000, -10.00000000000000000 ) ) ;
#479 = CARTESIAN_POINT ( 'NONE',  ( 15.00000000000000000, -15.00000000000000000, 135.0000000000000000 ) ) ;
#480 = VERTEX_POINT ( 'NONE', #476 ) ;
#481 = DIRECTION ( 'NONE',  ( -0.000000000000000000, -1.000000000000000000, -0.000000000000000000 ) ) ;
#482 = DIRECTION ( 'NONE',  ( 0.000000000000000000, -0.000000000000000000, 1.000000000000000000 ) ) ;
#483 = ADVANCED_FACE ( 'NONE', ( #252 ), #442, .T. ) ;
#484 = VECTOR ( 'NONE', #287, 1000.000000000000000 ) ;
#485 = FACE_BOUND ( 'NONE', #101, .T. ) ;
#486 = CARTESIAN_POINT ( 'NONE',  ( 10.25000000000000000, -15.00000000000000000, 130.2500000000000000 ) ) ;
#487 = DIRECTION ( 'NONE',  ( 0.000000000000000000, 0.000000000000000000, 1.000000000000000000 ) ) ;
#488 = DIRECTION ( 'NONE',  ( 0.000000000000000000, -1.000000000000000000, 0.000000000000000000 ) ) ;
#489 = EDGE_CURVE ( 'NONE', #193, #413, #242, .T. ) ;
#490 = CARTESIAN_POINT ( 'NONE',  ( 10.25000000000000000, -15.00000000000000000, 130.2500000000000000 ) ) ;
#491 = FACE_OUTER_BOUND ( 'NONE', #552, .T. ) ;
#492 = PRODUCT ( 'CNC_Cage_Post_Upper', 'CNC_Cage_Post_Upper', '', ( #267 ) ) ;
#493 = VECTOR ( 'NONE', #511, 1000.000000000000000 ) ;
#494 = LINE ( 'NONE', #497, #522 ) ;
#495 = FACE_OUTER_BOUND ( 'NONE', #314, .T. ) ;
#496 = ORIENTED_EDGE ( 'NONE', *, *, #536, .T. ) ;
#497 = CARTESIAN_POINT ( 'NONE',  ( 10.25000000000000000, 0.000000000000000000, 130.2500000000000000 ) ) ;
#498 = FACE_OUTER_BOUND ( 'NONE', #427, .T. ) ;
#499 = ORIENTED_EDGE ( 'NONE', *, *, #391, .F. ) ;
#500 = CARTESIAN_POINT ( 'NONE',  ( 0.000000000000000000, 0.000000000000000000, 0.000000000000000000 ) ) ;
#501 = DIRECTION ( 'NONE',  ( 0.000000000000000000, 0.000000000000000000, -1.000000000000000000 ) ) ;
#502 = VERTEX_POINT ( 'NONE', #431 ) ;
#503 = VECTOR ( 'NONE', #153, 1000.000000000000000 ) ;
#504 = CARTESIAN_POINT ( 'NONE',  ( 10.00000000000000000, -10.00000000000000000, 0.000000000000000000 ) ) ;
#505 = ORIENTED_EDGE ( 'NONE', *, *, #67, .F. ) ;
#506 = DIRECTION ( 'NONE',  ( 0.000000000000000000, 0.000000000000000000, 1.000000000000000000 ) ) ;
#507 = ORIENTED_EDGE ( 'NONE', *, *, #221, .F. ) ;
#508 = EDGE_CURVE ( 'NONE', #65, #114, #24, .T. ) ;
#509 = DIRECTION ( 'NONE',  ( -1.000000000000000000, -0.000000000000000000, -0.000000000000000000 ) ) ;
#510 = ORIENTED_EDGE ( 'NONE', *, *, #263, .T. ) ;
#511 = DIRECTION ( 'NONE',  ( 0.000000000000000000, 0.000000000000000000, 1.000000000000000000 ) ) ;
#512 = AXIS2_PLACEMENT_3D ( 'NONE', #46, #451, #361 ) ;
#513 = VERTEX_POINT ( 'NONE', #576 ) ;
#514 = LINE ( 'NONE', #108, #374 ) ;
#515 = EDGE_LOOP ( 'NONE', ( #181, #523, #439, #262 ) ) ;
#516 = LINE ( 'NONE', #113, #95 ) ;
#517 = VERTEX_POINT ( 'NONE', #570 ) ;
#518 = EDGE_CURVE ( 'NONE', #513, #58, #454, .T. ) ;
#519 = EDGE_LOOP ( 'NONE', ( #364, #224, #563, #557 ) ) ;
#520 = DIRECTION ( 'NONE',  ( -0.000000000000000000, -0.000000000000000000, -1.000000000000000000 ) ) ;
#521 = ORIENTED_EDGE ( 'NONE', *, *, #547, .F. ) ;
#522 = VECTOR ( 'NONE', #132, 1000.000000000000000 ) ;
#523 = ORIENTED_EDGE ( 'NONE', *, *, #457, .F. ) ;
#524 = PLANE ( 'NONE',  #333 ) ;
#525 = CARTESIAN_POINT ( 'NONE',  ( -15.00000000000000000, 10.25000000000000000, 109.7500000000000000 ) ) ;
#526 = EDGE_LOOP ( 'NONE', ( #219, #278, #154, #283 ) ) ;
#527 = CARTESIAN_POINT ( 'NONE',  ( -10.00000000000000000, 10.00000000000000000, -10.00000000000000000 ) ) ;
#528 = EDGE_CURVE ( 'NONE', #65, #228, #494, .T. ) ;
#529 = PLANE ( 'NONE',  #554 ) ;
#530 = DIRECTION ( 'NONE',  ( 0.000000000000000000, 1.000000000000000000, 0.000000000000000000 ) ) ;
#531 = LINE ( 'NONE', #121, #571 ) ;
#532 = VECTOR ( 'NONE', #256, 1000.000000000000000 ) ;
#533 = AXIS2_PLACEMENT_3D ( 'NONE', #455, #273, #327 ) ;
#534 = PLANE ( 'NONE',  #200 ) ;
#535 = FACE_BOUND ( 'NONE', #526, .T. ) ;
#536 = EDGE_CURVE ( 'NONE', #114, #480, #89, .T. ) ;
#537 = CARTESIAN_POINT ( 'NONE',  ( 10.25000000000000000, -15.00000000000000000, 109.7500000000000000 ) ) ;
#538 = DIRECTION ( 'NONE',  ( 0.000000000000000000, 0.000000000000000000, -1.000000000000000000 ) ) ;
#539 = DIRECTION ( 'NONE',  ( -0.000000000000000000, -0.000000000000000000, -1.000000000000000000 ) ) ;
#540 = CARTESIAN_POINT ( 'NONE',  ( 10.00000000000000000, 10.00000000000000000, -10.00000000000000000 ) ) ;
#541 = ORIENTED_EDGE ( 'NONE', *, *, #177, .T. ) ;
#542 = VECTOR ( 'NONE', #43, 1000.000000000000000 ) ;
#543 = VECTOR ( 'NONE', #539, 1000.000000000000000 ) ;
#544 = CARTESIAN_POINT ( 'NONE',  ( 15.00000000000000000, -15.00000000000000000, 135.0000000000000000 ) ) ;
#545 = LINE ( 'NONE', #398, #15 ) ;
#546 = VERTEX_POINT ( 'NONE', #305 ) ;
#547 = EDGE_CURVE ( 'NONE', #566, #402, #81, .T. ) ;
#548 = DIRECTION ( 'NONE',  ( -0.000000000000000000, -0.000000000000000000, -1.000000000000000000 ) ) ;
#549 = VERTEX_POINT ( 'NONE', #403 ) ;
#550 = DIRECTION ( 'NONE',  ( 0.000000000000000000, 1.000000000000000000, 0.000000000000000000 ) ) ;
#551 = LINE ( 'NONE', #139, #590 ) ;
#552 = EDGE_LOOP ( 'NONE', ( #94, #594, #272, #237 ) ) ;
#553 = VECTOR ( 'NONE', #300, 1000.000000000000000 ) ;
#554 = AXIS2_PLACEMENT_3D ( 'NONE', #392, #124, #299 ) ;
#555 = AXIS2_PLACEMENT_3D ( 'NONE', #143, #93, #449 ) ;
#556 = LINE ( 'NONE', #133, #64 ) ;
#557 = ORIENTED_EDGE ( 'NONE', *, *, #146, .T. ) ;
#558 = EDGE_CURVE ( 'NONE', #184, #274, #309, .T. ) ;
#559 = VERTEX_POINT ( 'NONE', #138 ) ;
#560 = UNCERTAINTY_MEASURE_WITH_UNIT (LENGTH_MEASURE( 1.000000000000000082E-05 ), #135, 'distance_accuracy_value', 'NONE');
#561 = VERTEX_POINT ( 'NONE', #301 ) ;
#562 = DIRECTION ( 'NONE',  ( 1.000000000000000000, 0.000000000000000000, 0.000000000000000000 ) ) ;
#563 = ORIENTED_EDGE ( 'NONE', *, *, #290, .T. ) ;
#564 = DIRECTION ( 'NONE',  ( 1.000000000000000000, 0.000000000000000000, -0.000000000000000000 ) ) ;
#565 = EDGE_CURVE ( 'NONE', #274, #517, #260, .T. ) ;
#566 = VERTEX_POINT ( 'NONE', #128 ) ;
#567 = DIRECTION ( 'NONE',  ( 1.000000000000000000, 0.000000000000000000, 0.000000000000000000 ) ) ;
#568 = ORIENTED_EDGE ( 'NONE', *, *, #227, .F. ) ;
#569 = ORIENTED_EDGE ( 'NONE', *, *, #518, .F. ) ;
#570 = CARTESIAN_POINT ( 'NONE',  ( -10.00000000000000000, 10.00000000000000000, 0.000000000000000000 ) ) ;
#571 = VECTOR ( 'NONE', #297, 1000.000000000000000 ) ;
#572 = PLANE ( 'NONE',  #83 ) ;
#573 = COLOUR_RGB ( '',0.7921568627450980005, 0.8196078431372548767, 0.9333333333333333481 ) ;
#574 = EDGE_CURVE ( 'NONE', #566, #379, #400, .T. ) ;
#575 = ORIENTED_EDGE ( 'NONE', *, *, #171, .F. ) ;
#576 = CARTESIAN_POINT ( 'NONE',  ( 0.000000000000000000, 10.25000000000000000, 130.2500000000000000 ) ) ;
#577 = PLANE ( 'NONE',  #111 ) ;
#578 = LINE ( 'NONE', #166, #315 ) ;
#579 = DIRECTION ( 'NONE',  ( 0.000000000000000000, 0.000000000000000000, -1.000000000000000000 ) ) ;
#580 = CARTESIAN_POINT ( 'NONE',  ( -15.00000000000000000, 15.00000000000000000, 0.000000000000000000 ) ) ;
#581 = ADVANCED_FACE ( 'NONE', ( #397 ), #448, .T. ) ;
#582 = PLANE ( 'NONE',  #210 ) ;
#583 = FACE_OUTER_BOUND ( 'NONE', #360, .T. ) ;
#584 = CARTESIAN_POINT ( 'NONE',  ( -10.00000000000000000, -10.00000000000000000, 0.000000000000000000 ) ) ;
#585 = DIRECTION ( 'NONE',  ( 0.000000000000000000, 0.000000000000000000, 1.000000000000000000 ) ) ;
#586 = DIRECTION ( 'NONE',  ( 1.000000000000000000, 0.000000000000000000, 0.000000000000000000 ) ) ;
#587 =( NAMED_UNIT ( * ) SI_UNIT ( $, .STERADIAN. ) SOLID_ANGLE_UNIT ( ) );
#588 = LINE ( 'NONE', #358, #275 ) ;
#589 = ORIENTED_EDGE ( 'NONE', *, *, #155, .F. ) ;
#590 = VECTOR ( 'NONE', #452, 1000.000000000000000 ) ;
#591 = AXIS2_PLACEMENT_3D ( 'NONE', #261, #87, #258 ) ;
#592 = EDGE_CURVE ( 'NONE', #413, #517, #42, .T. ) ;
#593 = CARTESIAN_POINT ( 'NONE',  ( -15.00000000000000000, -15.00000000000000000, 135.0000000000000000 ) ) ;
#594 = ORIENTED_EDGE ( 'NONE', *, *, #375, .T. ) ;
#595 = CARTESIAN_POINT ( 'NONE',  ( -10.00000000000000000, 10.00000000000000000, 0.000000000000000000 ) ) ;
#596 = DIRECTION ( 'NONE',  ( 0.000000000000000000, 0.000000000000000000, 1.000000000000000000 ) ) ;
#597 = EDGE_LOOP ( 'NONE', ( #179, #217, #589, #44 ) ) ;
ENDSEC;
END-ISO-10303-21;
