ISO-10303-21;
HEADER;
FILE_DESCRIPTION (( 'STEP AP214' ),
    '1' );
FILE_NAME ('CNC_Cage_Post_Upper_UR.STEP',
    '2026-08-12T22:35:38',
    ( '' ),
    ( '' ),
    'SwSTEP 2.0',
    'SolidWorks 2026',
    '' );
FILE_SCHEMA (( 'AUTOMOTIVE_DESIGN' ));
ENDSEC;

DATA;
#1 = LINE ( 'NONE', #317, #522 ) ;
#2 = DIRECTION ( 'NONE',  ( 0.000000000000000000, 0.000000000000000000, -1.000000000000000000 ) ) ;
#3 = EDGE_CURVE ( 'NONE', #328, #452, #63, .T. ) ;
#4 = ORIENTED_EDGE ( 'NONE', *, *, #32, .F. ) ;
#5 = CARTESIAN_POINT ( 'NONE',  ( -10.25000000000000000, 15.00000000000000000, 109.7500000000000000 ) ) ;
#6 = ORIENTED_EDGE ( 'NONE', *, *, #472, .T. ) ;
#7 = EDGE_CURVE ( 'NONE', #412, #405, #128, .T. ) ;
#8 = PLANE ( 'NONE',  #25 ) ;
#9 = ORIENTED_EDGE ( 'NONE', *, *, #585, .F. ) ;
#10 = CARTESIAN_POINT ( 'NONE',  ( 10.00000000000000000, -10.00000000000000000, 0.000000000000000000 ) ) ;
#11 = EDGE_LOOP ( 'NONE', ( #289, #383, #238, #147 ) ) ;
#12 = EDGE_CURVE ( 'NONE', #50, #570, #126, .T. ) ;
#13 = VECTOR ( 'NONE', #501, 1000.000000000000000 ) ;
#14 = CARTESIAN_POINT ( 'NONE',  ( -10.00000000000000000, -10.00000000000000000, 0.000000000000000000 ) ) ;
#15 = COLOUR_RGB ( '',0.7921568627450980005, 0.8196078431372548767, 0.9333333333333333481 ) ;
#16 = ORIENTED_EDGE ( 'NONE', *, *, #57, .T. ) ;
#17 = LINE ( 'NONE', #158, #513 ) ;
#18 = CARTESIAN_POINT ( 'NONE',  ( -10.00000000000000000, -10.00000000000000000, -10.00000000000000000 ) ) ;
#19 = VERTEX_POINT ( 'NONE', #124 ) ;
#20 = LINE ( 'NONE', #345, #34 ) ;
#21 = ORIENTED_EDGE ( 'NONE', *, *, #148, .T. ) ;
#22 = EDGE_CURVE ( 'NONE', #559, #328, #305, .T. ) ;
#23 = FACE_OUTER_BOUND ( 'NONE', #236, .T. ) ;
#24 = LINE ( 'NONE', #493, #51 ) ;
#25 = AXIS2_PLACEMENT_3D ( 'NONE', #234, #49, #470 ) ;
#26 = ADVANCED_BREP_SHAPE_REPRESENTATION ( 'CNC_Cage_Post_Upper_UR', ( #528, #358 ), #205 ) ;
#27 = PLANE ( 'NONE',  #477 ) ;
#28 = DIRECTION ( 'NONE',  ( -1.000000000000000000, -0.000000000000000000, -0.000000000000000000 ) ) ;
#29 = CARTESIAN_POINT ( 'NONE',  ( 10.00000000000000000, -10.00000000000000000, -10.00000000000000000 ) ) ;
#30 = CARTESIAN_POINT ( 'NONE',  ( 0.000000000000000000, 0.000000000000000000, -10.00000000000000000 ) ) ;
#31 =( NAMED_UNIT ( * ) SI_UNIT ( $, .STERADIAN. ) SOLID_ANGLE_UNIT ( ) );
#32 = EDGE_CURVE ( 'NONE', #150, #287, #448, .T. ) ;
#33 = CARTESIAN_POINT ( 'NONE',  ( 10.25000000000000000, 0.000000000000000000, 130.2500000000000000 ) ) ;
#34 = VECTOR ( 'NONE', #349, 1000.000000000000000 ) ;
#35 = VECTOR ( 'NONE', #361, 1000.000000000000000 ) ;
#36 = CARTESIAN_POINT ( 'NONE',  ( 10.25000000000000000, 15.00000000000000000, 130.2500000000000000 ) ) ;
#37 = SHAPE_DEFINITION_REPRESENTATION ( #449, #26 ) ;
#38 = PLANE ( 'NONE',  #419 ) ;
#39 = ORIENTED_EDGE ( 'NONE', *, *, #22, .F. ) ;
#40 = EDGE_CURVE ( 'NONE', #319, #220, #524, .T. ) ;
#41 = LINE ( 'NONE', #144, #114 ) ;
#42 = ORIENTED_EDGE ( 'NONE', *, *, #334, .F. ) ;
#43 = LINE ( 'NONE', #543, #103 ) ;
#44 = VERTEX_POINT ( 'NONE', #303 ) ;
#45 = CARTESIAN_POINT ( 'NONE',  ( 15.00000000000000000, 10.25000000000000000, 109.7500000000000000 ) ) ;
#46 = ADVANCED_FACE ( 'NONE', ( #79 ), #488, .T. ) ;
#47 = DIRECTION ( 'NONE',  ( 0.000000000000000000, 1.000000000000000000, 0.000000000000000000 ) ) ;
#48 = ORIENTED_EDGE ( 'NONE', *, *, #566, .F. ) ;
#49 = DIRECTION ( 'NONE',  ( 1.000000000000000000, 0.000000000000000000, 0.000000000000000000 ) ) ;
#50 = VERTEX_POINT ( 'NONE', #264 ) ;
#51 = VECTOR ( 'NONE', #204, 1000.000000000000000 ) ;
#52 = VECTOR ( 'NONE', #194, 1000.000000000000000 ) ;
#53 = FACE_OUTER_BOUND ( 'NONE', #497, .T. ) ;
#54 = EDGE_LOOP ( 'NONE', ( #269, #360, #281, #511 ) ) ;
#55 = CARTESIAN_POINT ( 'NONE',  ( 15.00000000000000000, 15.00000000000000000, 0.000000000000000000 ) ) ;
#56 = ORIENTED_EDGE ( 'NONE', *, *, #113, .T. ) ;
#57 = EDGE_CURVE ( 'NONE', #569, #60, #490, .T. ) ;
#58 = DIRECTION ( 'NONE',  ( 1.000000000000000000, 0.000000000000000000, 0.000000000000000000 ) ) ;
#59 = ORIENTED_EDGE ( 'NONE', *, *, #66, .T. ) ;
#60 = VERTEX_POINT ( 'NONE', #396 ) ;
#61 = CARTESIAN_POINT ( 'NONE',  ( 0.000000000000000000, 10.25000000000000000, 109.7500000000000000 ) ) ;
#62 = AXIS2_PLACEMENT_3D ( 'NONE', #155, #421, #510 ) ;
#63 = LINE ( 'NONE', #18, #552 ) ;
#64 = ORIENTED_EDGE ( 'NONE', *, *, #575, .F. ) ;
#65 = FACE_OUTER_BOUND ( 'NONE', #422, .T. ) ;
#66 = EDGE_CURVE ( 'NONE', #337, #117, #400, .T. ) ;
#67 = EDGE_LOOP ( 'NONE', ( #109, #285, #59, #425 ) ) ;
#68 = CARTESIAN_POINT ( 'NONE',  ( -10.25000000000000000, 0.000000000000000000, 130.2500000000000000 ) ) ;
#69 = DIRECTION ( 'NONE',  ( 0.000000000000000000, -0.000000000000000000, -1.000000000000000000 ) ) ;
#70 = DIRECTION ( 'NONE',  ( 1.000000000000000000, 0.000000000000000000, 0.000000000000000000 ) ) ;
#71 = VECTOR ( 'NONE', #481, 1000.000000000000000 ) ;
#72 = CARTESIAN_POINT ( 'NONE',  ( 15.00000000000000000, -10.25000000000000000, 109.7500000000000000 ) ) ;
#73 = MECHANICAL_DESIGN_GEOMETRIC_PRESENTATION_REPRESENTATION (  '', ( #486 ), #554 ) ;
#74 = ORIENTED_EDGE ( 'NONE', *, *, #377, .T. ) ;
#75 = CARTESIAN_POINT ( 'NONE',  ( 0.000000000000000000, 10.25000000000000000, 130.2500000000000000 ) ) ;
#76 = FACE_OUTER_BOUND ( 'NONE', #330, .T. ) ;
#77 = ADVANCED_FACE ( 'NONE', ( #76 ), #119, .T. ) ;
#78 = CARTESIAN_POINT ( 'NONE',  ( -10.00000000000000000, -10.00000000000000000, -10.00000000000000000 ) ) ;
#79 = FACE_OUTER_BOUND ( 'NONE', #184, .T. ) ;
#80 = EDGE_CURVE ( 'NONE', #60, #367, #445, .T. ) ;
#81 = DIRECTION ( 'NONE',  ( 0.000000000000000000, 1.000000000000000000, 0.000000000000000000 ) ) ;
#82 = VECTOR ( 'NONE', #437, 1000.000000000000000 ) ;
#83 = VECTOR ( 'NONE', #586, 1000.000000000000000 ) ;
#84 = DIRECTION ( 'NONE',  ( 0.000000000000000000, 1.000000000000000000, 0.000000000000000000 ) ) ;
#85 = ADVANCED_FACE ( 'NONE', ( #584, #527 ), #353, .F. ) ;
#86 = CARTESIAN_POINT ( 'NONE',  ( 0.000000000000000000, -10.25000000000000000, 130.2500000000000000 ) ) ;
#87 = EDGE_LOOP ( 'NONE', ( #564, #177, #180, #429 ) ) ;
#88 = CARTESIAN_POINT ( 'NONE',  ( 10.25000000000000000, 15.00000000000000000, 130.2500000000000000 ) ) ;
#89 = CARTESIAN_POINT ( 'NONE',  ( -10.00000000000000000, 10.00000000000000000, 0.000000000000000000 ) ) ;
#90 = ORIENTED_EDGE ( 'NONE', *, *, #415, .F. ) ;
#91 = CARTESIAN_POINT ( 'NONE',  ( 0.000000000000000000, 0.000000000000000000, 0.000000000000000000 ) ) ;
#92 = VERTEX_POINT ( 'NONE', #484 ) ;
#93 = VECTOR ( 'NONE', #487, 1000.000000000000000 ) ;
#94 = APPLICATION_PROTOCOL_DEFINITION ( 'draft international standard', 'automotive_design', 1998, #293 ) ;
#95 = CARTESIAN_POINT ( 'NONE',  ( 15.00000000000000000, 15.00000000000000000, 135.0000000000000000 ) ) ;
#96 = ORIENTED_EDGE ( 'NONE', *, *, #129, .T. ) ;
#97 = PRODUCT_DEFINITION_CONTEXT ( 'detailed design', #293, 'design' ) ;
#98 = DIRECTION ( 'NONE',  ( 0.000000000000000000, -1.000000000000000000, -0.000000000000000000 ) ) ;
#99 = ORIENTED_EDGE ( 'NONE', *, *, #341, .T. ) ;
#100 = DIRECTION ( 'NONE',  ( 0.000000000000000000, 1.000000000000000000, 0.000000000000000000 ) ) ;
#101 = ORIENTED_EDGE ( 'NONE', *, *, #491, .T. ) ;
#102 = VECTOR ( 'NONE', #444, 1000.000000000000000 ) ;
#103 = VECTOR ( 'NONE', #230, 1000.000000000000000 ) ;
#104 = FACE_OUTER_BOUND ( 'NONE', #540, .T. ) ;
#105 = EDGE_CURVE ( 'NONE', #405, #570, #24, .T. ) ;
#106 = ORIENTED_EDGE ( 'NONE', *, *, #171, .T. ) ;
#107 = CARTESIAN_POINT ( 'NONE',  ( 10.25000000000000000, 0.000000000000000000, 130.2500000000000000 ) ) ;
#108 = ORIENTED_EDGE ( 'NONE', *, *, #171, .F. ) ;
#109 = ORIENTED_EDGE ( 'NONE', *, *, #40, .T. ) ;
#110 = DIRECTION ( 'NONE',  ( 0.000000000000000000, 0.000000000000000000, 1.000000000000000000 ) ) ;
#111 = ORIENTED_EDGE ( 'NONE', *, *, #546, .T. ) ;
#112 = APPLICATION_CONTEXT ( 'automotive_design' ) ;
#113 = EDGE_CURVE ( 'NONE', #367, #44, #388, .T. ) ;
#114 = VECTOR ( 'NONE', #505, 1000.000000000000000 ) ;
#115 = VECTOR ( 'NONE', #368, 1000.000000000000000 ) ;
#116 = LINE ( 'NONE', #558, #197 ) ;
#117 = VERTEX_POINT ( 'NONE', #162 ) ;
#118 = CARTESIAN_POINT ( 'NONE',  ( 10.00000000000000000, -10.00000000000000000, -10.00000000000000000 ) ) ;
#119 = PLANE ( 'NONE',  #340 ) ;
#120 = VERTEX_POINT ( 'NONE', #251 ) ;
#121 = DIRECTION ( 'NONE',  ( 0.000000000000000000, 0.000000000000000000, 1.000000000000000000 ) ) ;
#122 = DIRECTION ( 'NONE',  ( 0.000000000000000000, -1.000000000000000000, 0.000000000000000000 ) ) ;
#123 = SURFACE_STYLE_FILL_AREA ( #347 ) ;
#124 = CARTESIAN_POINT ( 'NONE',  ( -15.00000000000000000, 15.00000000000000000, 0.000000000000000000 ) ) ;
#125 = EDGE_CURVE ( 'NONE', #50, #159, #579, .T. ) ;
#126 = LINE ( 'NONE', #33, #438 ) ;
#127 = FACE_BOUND ( 'NONE', #67, .T. ) ;
#128 = LINE ( 'NONE', #577, #572 ) ;
#129 = EDGE_CURVE ( 'NONE', #287, #464, #256, .T. ) ;
#130 = LINE ( 'NONE', #271, #263 ) ;
#131 = DIRECTION ( 'NONE',  ( 1.000000000000000000, 0.000000000000000000, 0.000000000000000000 ) ) ;
#132 = ORIENTED_EDGE ( 'NONE', *, *, #12, .T. ) ;
#133 = AXIS2_PLACEMENT_3D ( 'NONE', #161, #393, #343 ) ;
#134 = CARTESIAN_POINT ( 'NONE',  ( 10.25000000000000000, 0.000000000000000000, 109.7500000000000000 ) ) ;
#135 = VERTEX_POINT ( 'NONE', #394 ) ;
#136 =( NAMED_UNIT ( * ) PLANE_ANGLE_UNIT ( ) SI_UNIT ( $, .RADIAN. ) );
#137 = CARTESIAN_POINT ( 'NONE',  ( -10.25000000000000000, 0.000000000000000000, 130.2500000000000000 ) ) ;
#138 = ORIENTED_EDGE ( 'NONE', *, *, #423, .F. ) ;
#139 = LINE ( 'NONE', #325, #253 ) ;
#140 = ORIENTED_EDGE ( 'NONE', *, *, #377, .F. ) ;
#141 = CLOSED_SHELL ( 'NONE', ( #277, #557, #366, #592, #509, #85, #357, #489, #46, #485, #459, #77, #351, #403, #526, #228, #431, #324, #187 ) ) ;
#142 = EDGE_CURVE ( 'NONE', #464, #279, #166, .T. ) ;
#143 = VECTOR ( 'NONE', #280, 1000.000000000000000 ) ;
#144 = CARTESIAN_POINT ( 'NONE',  ( 15.00000000000000000, -10.25000000000000000, 130.2500000000000000 ) ) ;
#145 = EDGE_LOOP ( 'NONE', ( #106, #518, #74, #506 ) ) ;
#146 = DIRECTION ( 'NONE',  ( 0.000000000000000000, 0.000000000000000000, 1.000000000000000000 ) ) ;
#147 = ORIENTED_EDGE ( 'NONE', *, *, #299, .T. ) ;
#148 = EDGE_CURVE ( 'NONE', #279, #150, #315, .T. ) ;
#149 = PLANE ( 'NONE',  #542 ) ;
#150 = VERTEX_POINT ( 'NONE', #365 ) ;
#151 = VECTOR ( 'NONE', #222, 1000.000000000000000 ) ;
#152 = VECTOR ( 'NONE', #355, 1000.000000000000000 ) ;
#153 = FACE_OUTER_BOUND ( 'NONE', #257, .T. ) ;
#154 = ORIENTED_EDGE ( 'NONE', *, *, #191, .F. ) ;
#155 = CARTESIAN_POINT ( 'NONE',  ( 0.000000000000000000, 0.000000000000000000, 135.0000000000000000 ) ) ;
#156 = ORIENTED_EDGE ( 'NONE', *, *, #66, .F. ) ;
#157 = EDGE_CURVE ( 'NONE', #231, #201, #555, .T. ) ;
#158 = CARTESIAN_POINT ( 'NONE',  ( 15.00000000000000000, -15.00000000000000000, 0.000000000000000000 ) ) ;
#159 = VERTEX_POINT ( 'NONE', #318 ) ;
#160 = AXIS2_PLACEMENT_3D ( 'NONE', #181, #172, #354 ) ;
#161 = CARTESIAN_POINT ( 'NONE',  ( 0.000000000000000000, -10.25000000000000000, 109.7500000000000000 ) ) ;
#162 = CARTESIAN_POINT ( 'NONE',  ( 10.00000000000000000, -10.00000000000000000, 0.000000000000000000 ) ) ;
#163 = DIRECTION ( 'NONE',  ( -0.000000000000000000, 1.000000000000000000, -0.000000000000000000 ) ) ;
#164 = CARTESIAN_POINT ( 'NONE',  ( -10.00000000000000000, 10.00000000000000000, -10.00000000000000000 ) ) ;
#165 = LINE ( 'NONE', #45, #35 ) ;
#166 = LINE ( 'NONE', #348, #282 ) ;
#167 = LINE ( 'NONE', #75, #218 ) ;
#168 = CARTESIAN_POINT ( 'NONE',  ( -10.00000000000000000, -10.00000000000000000, 0.000000000000000000 ) ) ;
#169 = CARTESIAN_POINT ( 'NONE',  ( 15.00000000000000000, -15.00000000000000000, 0.000000000000000000 ) ) ;
#170 = DIRECTION ( 'NONE',  ( 1.000000000000000000, 0.000000000000000000, 0.000000000000000000 ) ) ;
#171 = EDGE_CURVE ( 'NONE', #120, #233, #139, .T. ) ;
#172 = DIRECTION ( 'NONE',  ( 0.000000000000000000, 0.000000000000000000, -1.000000000000000000 ) ) ;
#173 = CARTESIAN_POINT ( 'NONE',  ( -15.00000000000000000, -15.00000000000000000, 0.000000000000000000 ) ) ;
#174 = ORIENTED_EDGE ( 'NONE', *, *, #80, .T. ) ;
#175 = CARTESIAN_POINT ( 'NONE',  ( -15.00000000000000000, -15.00000000000000000, 135.0000000000000000 ) ) ;
#176 = CARTESIAN_POINT ( 'NONE',  ( 15.00000000000000000, 10.25000000000000000, 130.2500000000000000 ) ) ;
#177 = ORIENTED_EDGE ( 'NONE', *, *, #288, .F. ) ;
#178 = CARTESIAN_POINT ( 'NONE',  ( 0.000000000000000000, -10.25000000000000000, 130.2500000000000000 ) ) ;
#179 = DIRECTION ( 'NONE',  ( -0.000000000000000000, 1.000000000000000000, -0.000000000000000000 ) ) ;
#180 = ORIENTED_EDGE ( 'NONE', *, *, #129, .F. ) ;
#181 = CARTESIAN_POINT ( 'NONE',  ( 0.000000000000000000, 0.000000000000000000, 0.000000000000000000 ) ) ;
#182 = EDGE_CURVE ( 'NONE', #135, #367, #41, .T. ) ;
#183 = DIRECTION ( 'NONE',  ( -0.000000000000000000, -0.000000000000000000, -1.000000000000000000 ) ) ;
#184 = EDGE_LOOP ( 'NONE', ( #500, #64, #195, #199 ) ) ;
#185 = LINE ( 'NONE', #450, #439 ) ;
#186 = DIRECTION ( 'NONE',  ( 0.000000000000000000, -0.000000000000000000, 1.000000000000000000 ) ) ;
#187 = ADVANCED_FACE ( 'NONE', ( #550 ), #232, .T. ) ;
#188 = ORIENTED_EDGE ( 'NONE', *, *, #105, .T. ) ;
#189 = LINE ( 'NONE', #512, #372 ) ;
#190 = EDGE_LOOP ( 'NONE', ( #342, #516, #90, #461 ) ) ;
#191 = EDGE_CURVE ( 'NONE', #328, #220, #588, .T. ) ;
#192 = DIRECTION ( 'NONE',  ( 1.000000000000000000, 0.000000000000000000, 0.000000000000000000 ) ) ;
#193 = ORIENTED_EDGE ( 'NONE', *, *, #466, .F. ) ;
#194 = DIRECTION ( 'NONE',  ( 0.000000000000000000, 1.000000000000000000, 0.000000000000000000 ) ) ;
#195 = ORIENTED_EDGE ( 'NONE', *, *, #22, .T. ) ;
#196 = VECTOR ( 'NONE', #81, 1000.000000000000000 ) ;
#197 = VECTOR ( 'NONE', #338, 1000.000000000000000 ) ;
#198 = DIRECTION ( 'NONE',  ( -1.000000000000000000, 0.000000000000000000, 0.000000000000000000 ) ) ;
#199 = ORIENTED_EDGE ( 'NONE', *, *, #191, .T. ) ;
#200 = CARTESIAN_POINT ( 'NONE',  ( -15.00000000000000000, -15.00000000000000000, 0.000000000000000000 ) ) ;
#201 = VERTEX_POINT ( 'NONE', #278 ) ;
#202 = ORIENTED_EDGE ( 'NONE', *, *, #113, .F. ) ;
#203 = CARTESIAN_POINT ( 'NONE',  ( -10.00000000000000000, -10.00000000000000000, -10.00000000000000000 ) ) ;
#204 = DIRECTION ( 'NONE',  ( 1.000000000000000000, 0.000000000000000000, 0.000000000000000000 ) ) ;
#205 =( GEOMETRIC_REPRESENTATION_CONTEXT ( 3 ) GLOBAL_UNCERTAINTY_ASSIGNED_CONTEXT ( ( #474 ) ) GLOBAL_UNIT_ASSIGNED_CONTEXT ( ( #262, #136, #310 ) ) REPRESENTATION_CONTEXT ( 'NONE', 'WORKASPACE' ) );
#206 = DIRECTION ( 'NONE',  ( -1.000000000000000000, 0.000000000000000000, 0.000000000000000000 ) ) ;
#207 = CARTESIAN_POINT ( 'NONE',  ( -10.00000000000000000, 10.00000000000000000, -10.00000000000000000 ) ) ;
#208 = EDGE_CURVE ( 'NONE', #159, #135, #225, .T. ) ;
#209 = LINE ( 'NONE', #255, #390 ) ;
#210 = DIRECTION ( 'NONE',  ( -1.000000000000000000, -0.000000000000000000, -0.000000000000000000 ) ) ;
#211 = PRESENTATION_STYLE_ASSIGNMENT (( #258 ) ) ;
#212 = DIRECTION ( 'NONE',  ( 0.000000000000000000, 0.000000000000000000, -1.000000000000000000 ) ) ;
#213 = PRODUCT ( 'CNC_Cage_Post_Upper_UR', 'CNC_Cage_Post_Upper_UR', '', ( #265 ) ) ;
#214 = LINE ( 'NONE', #298, #93 ) ;
#215 = VECTOR ( 'NONE', #309, 1000.000000000000000 ) ;
#216 = EDGE_CURVE ( 'NONE', #120, #240, #275, .T. ) ;
#217 = DIRECTION ( 'NONE',  ( 0.000000000000000000, -0.000000000000000000, 1.000000000000000000 ) ) ;
#218 = VECTOR ( 'NONE', #399, 1000.000000000000000 ) ;
#219 = LINE ( 'NONE', #173, #152 ) ;
#220 = VERTEX_POINT ( 'NONE', #89 ) ;
#221 = DIRECTION ( 'NONE',  ( 0.000000000000000000, -0.000000000000000000, 1.000000000000000000 ) ) ;
#222 = DIRECTION ( 'NONE',  ( 0.000000000000000000, 0.000000000000000000, 1.000000000000000000 ) ) ;
#223 = ORIENTED_EDGE ( 'NONE', *, *, #299, .F. ) ;
#224 = CARTESIAN_POINT ( 'NONE',  ( 10.00000000000000000, -10.00000000000000000, -10.00000000000000000 ) ) ;
#225 = LINE ( 'NONE', #176, #83 ) ;
#226 = EDGE_LOOP ( 'NONE', ( #138, #473, #339, #376 ) ) ;
#227 = VECTOR ( 'NONE', #560, 1000.000000000000000 ) ;
#228 = ADVANCED_FACE ( 'NONE', ( #507 ), #359, .F. ) ;
#229 = LINE ( 'NONE', #413, #407 ) ;
#230 = DIRECTION ( 'NONE',  ( -0.000000000000000000, -0.000000000000000000, -1.000000000000000000 ) ) ;
#231 = VERTEX_POINT ( 'NONE', #547 ) ;
#232 = PLANE ( 'NONE',  #331 ) ;
#233 = VERTEX_POINT ( 'NONE', #272 ) ;
#234 = CARTESIAN_POINT ( 'NONE',  ( -15.00000000000000000, -15.00000000000000000, 135.0000000000000000 ) ) ;
#235 = EDGE_CURVE ( 'NONE', #570, #201, #451, .T. ) ;
#236 = EDGE_LOOP ( 'NONE', ( #273, #154, #297, #471 ) ) ;
#237 = LINE ( 'NONE', #61, #227 ) ;
#238 = ORIENTED_EDGE ( 'NONE', *, *, #386, .F. ) ;
#239 = LINE ( 'NONE', #373, #143 ) ;
#240 = VERTEX_POINT ( 'NONE', #369 ) ;
#241 = DIRECTION ( 'NONE',  ( 0.000000000000000000, 0.000000000000000000, -1.000000000000000000 ) ) ;
#242 = ORIENTED_EDGE ( 'NONE', *, *, #182, .F. ) ;
#243 = VECTOR ( 'NONE', #163, 1000.000000000000000 ) ;
#244 = EDGE_CURVE ( 'NONE', #19, #92, #219, .T. ) ;
#245 = CARTESIAN_POINT ( 'NONE',  ( -10.25000000000000000, 0.000000000000000000, 109.7500000000000000 ) ) ;
#246 = EDGE_LOOP ( 'NONE', ( #242, #371, #417, #202 ) ) ;
#247 = ORIENTED_EDGE ( 'NONE', *, *, #472, .F. ) ;
#248 = PLANE ( 'NONE',  #428 ) ;
#249 = ORIENTED_EDGE ( 'NONE', *, *, #125, .T. ) ;
#250 = FACE_OUTER_BOUND ( 'NONE', #594, .T. ) ;
#251 = CARTESIAN_POINT ( 'NONE',  ( 0.000000000000000000, 0.000000000000000000, 109.7500000000000000 ) ) ;
#252 = EDGE_CURVE ( 'NONE', #409, #19, #401, .T. ) ;
#253 = VECTOR ( 'NONE', #496, 1000.000000000000000 ) ;
#254 = AXIS2_PLACEMENT_3D ( 'NONE', #86, #98, #460 ) ;
#255 = CARTESIAN_POINT ( 'NONE',  ( 15.00000000000000000, 15.00000000000000000, 135.0000000000000000 ) ) ;
#256 = LINE ( 'NONE', #441, #541 ) ;
#257 = EDGE_LOOP ( 'NONE', ( #132, #556, #454, #301 ) ) ;
#258 = SURFACE_STYLE_USAGE ( .BOTH. , #304 ) ;
#259 = DIRECTION ( 'NONE',  ( -0.000000000000000000, -1.000000000000000000, -0.000000000000000000 ) ) ;
#260 = EDGE_CURVE ( 'NONE', #452, #337, #321, .T. ) ;
#261 = CARTESIAN_POINT ( 'NONE',  ( 0.000000000000000000, -10.25000000000000000, 130.2500000000000000 ) ) ;
#262 =( LENGTH_UNIT ( ) NAMED_UNIT ( * ) SI_UNIT ( .MILLI., .METRE. ) );
#263 = VECTOR ( 'NONE', #406, 1000.000000000000000 ) ;
#264 = CARTESIAN_POINT ( 'NONE',  ( 10.25000000000000000, 10.25000000000000000, 130.2500000000000000 ) ) ;
#265 = PRODUCT_CONTEXT ( 'NONE', #112, 'mechanical' ) ;
#266 = LINE ( 'NONE', #411, #456 ) ;
#267 = VERTEX_POINT ( 'NONE', #137 ) ;
#268 = DIRECTION ( 'NONE',  ( 0.000000000000000000, 0.000000000000000000, 1.000000000000000000 ) ) ;
#269 = ORIENTED_EDGE ( 'NONE', *, *, #244, .T. ) ;
#270 = EDGE_CURVE ( 'NONE', #279, #92, #43, .T. ) ;
#271 = CARTESIAN_POINT ( 'NONE',  ( -10.00000000000000000, -10.00000000000000000, 0.000000000000000000 ) ) ;
#272 = CARTESIAN_POINT ( 'NONE',  ( -10.25000000000000000, 0.000000000000000000, 109.7500000000000000 ) ) ;
#273 = ORIENTED_EDGE ( 'NONE', *, *, #581, .F. ) ;
#274 = VECTOR ( 'NONE', #475, 1000.000000000000000 ) ;
#275 = LINE ( 'NONE', #404, #532 ) ;
#276 = ORIENTED_EDGE ( 'NONE', *, *, #491, .F. ) ;
#277 = ADVANCED_FACE ( 'NONE', ( #453 ), #38, .T. ) ;
#278 = CARTESIAN_POINT ( 'NONE',  ( 10.25000000000000000, 15.00000000000000000, 109.7500000000000000 ) ) ;
#279 = VERTEX_POINT ( 'NONE', #312 ) ;
#280 = DIRECTION ( 'NONE',  ( -1.000000000000000000, 0.000000000000000000, 0.000000000000000000 ) ) ;
#281 = ORIENTED_EDGE ( 'NONE', *, *, #142, .F. ) ;
#282 = VECTOR ( 'NONE', #530, 1000.000000000000000 ) ;
#283 = PRODUCT_DEFINITION_FORMATION_WITH_SPECIFIED_SOURCE ( 'Symmetric', '', #213, .NOT_KNOWN. ) ;
#284 = LINE ( 'NONE', #565, #323 ) ;
#285 = ORIENTED_EDGE ( 'NONE', *, *, #581, .T. ) ;
#286 = CARTESIAN_POINT ( 'NONE',  ( 0.000000000000000000, 10.25000000000000000, 109.7500000000000000 ) ) ;
#287 = VERTEX_POINT ( 'NONE', #95 ) ;
#288 = EDGE_CURVE ( 'NONE', #464, #19, #266, .T. ) ;
#289 = ORIENTED_EDGE ( 'NONE', *, *, #7, .T. ) ;
#290 = DIRECTION ( 'NONE',  ( -0.000000000000000000, 1.000000000000000000, -0.000000000000000000 ) ) ;
#291 = ORIENTED_EDGE ( 'NONE', *, *, #216, .T. ) ;
#292 = AXIS2_PLACEMENT_3D ( 'NONE', #537, #122, #69 ) ;
#293 = APPLICATION_CONTEXT ( 'automotive_design' ) ;
#294 = AXIS2_PLACEMENT_3D ( 'NONE', #384, #146, #426 ) ;
#295 = FACE_BOUND ( 'NONE', #246, .T. ) ;
#296 = EDGE_LOOP ( 'NONE', ( #316, #433, #385, #223, #108, #42, #174, #56 ) ) ;
#297 = ORIENTED_EDGE ( 'NONE', *, *, #3, .T. ) ;
#298 = CARTESIAN_POINT ( 'NONE',  ( 10.24999999999999822, 10.25000000000000000, 109.7500000000000000 ) ) ;
#299 = EDGE_CURVE ( 'NONE', #233, #412, #284, .T. ) ;
#300 = CARTESIAN_POINT ( 'NONE',  ( 15.00000000000000000, -15.00000000000000000, 135.0000000000000000 ) ) ;
#301 = ORIENTED_EDGE ( 'NONE', *, *, #447, .F. ) ;
#302 = DIRECTION ( 'NONE',  ( 1.000000000000000000, 0.000000000000000000, 0.000000000000000000 ) ) ;
#303 = CARTESIAN_POINT ( 'NONE',  ( 15.00000000000000000, 10.25000000000000000, 109.7500000000000000 ) ) ;
#304 = SURFACE_SIDE_STYLE ('',( #123 ) ) ;
#305 = LINE ( 'NONE', #164, #102 ) ;
#306 =( NAMED_UNIT ( * ) PLANE_ANGLE_UNIT ( ) SI_UNIT ( $, .RADIAN. ) );
#307 = DIRECTION ( 'NONE',  ( -0.000000000000000000, 1.000000000000000000, -0.000000000000000000 ) ) ;
#308 = CARTESIAN_POINT ( 'NONE',  ( 10.00000000000000000, 10.00000000000000000, -10.00000000000000000 ) ) ;
#309 = DIRECTION ( 'NONE',  ( 0.000000000000000000, 0.000000000000000000, -1.000000000000000000 ) ) ;
#310 =( NAMED_UNIT ( * ) SI_UNIT ( $, .STERADIAN. ) SOLID_ANGLE_UNIT ( ) );
#311 = VECTOR ( 'NONE', #2, 1000.000000000000000 ) ;
#312 = CARTESIAN_POINT ( 'NONE',  ( -15.00000000000000000, -15.00000000000000000, 135.0000000000000000 ) ) ;
#313 = EDGE_LOOP ( 'NONE', ( #326, #291, #6, #16 ) ) ;
#314 = EDGE_CURVE ( 'NONE', #92, #508, #327, .T. ) ;
#315 = LINE ( 'NONE', #416, #13 ) ;
#316 = ORIENTED_EDGE ( 'NONE', *, *, #341, .F. ) ;
#317 = CARTESIAN_POINT ( 'NONE',  ( 10.00000000000000000, 10.00000000000000000, -10.00000000000000000 ) ) ;
#318 = CARTESIAN_POINT ( 'NONE',  ( 15.00000000000000000, 10.25000000000000000, 130.2500000000000000 ) ) ;
#319 = VERTEX_POINT ( 'NONE', #378 ) ;
#320 = DIRECTION ( 'NONE',  ( 0.000000000000000000, 0.000000000000000000, 1.000000000000000000 ) ) ;
#321 = LINE ( 'NONE', #408, #504 ) ;
#322 = ORIENTED_EDGE ( 'NONE', *, *, #57, .F. ) ;
#323 = VECTOR ( 'NONE', #290, 1000.000000000000000 ) ;
#324 = ADVANCED_FACE ( 'NONE', ( #568 ), #149, .F. ) ;
#325 = CARTESIAN_POINT ( 'NONE',  ( 10.25000000000000000, 0.000000000000000000, 109.7500000000000000 ) ) ;
#326 = ORIENTED_EDGE ( 'NONE', *, *, #334, .T. ) ;
#327 = LINE ( 'NONE', #200, #274 ) ;
#328 = VERTEX_POINT ( 'NONE', #336 ) ;
#329 = LINE ( 'NONE', #382, #591 ) ;
#330 = EDGE_LOOP ( 'NONE', ( #402, #39, #9, #276 ) ) ;
#331 = AXIS2_PLACEMENT_3D ( 'NONE', #91, #47, #186 ) ;
#332 = AXIS2_PLACEMENT_3D ( 'NONE', #29, #302, #536 ) ;
#333 = PLANE ( 'NONE',  #380 ) ;
#334 = EDGE_CURVE ( 'NONE', #60, #120, #116, .T. ) ;
#335 = ORIENTED_EDGE ( 'NONE', *, *, #182, .T. ) ;
#336 = CARTESIAN_POINT ( 'NONE',  ( -10.00000000000000000, 10.00000000000000000, -10.00000000000000000 ) ) ;
#337 = VERTEX_POINT ( 'NONE', #14 ) ;
#338 = DIRECTION ( 'NONE',  ( 0.000000000000000000, 1.000000000000000000, 0.000000000000000000 ) ) ;
#339 = ORIENTED_EDGE ( 'NONE', *, *, #585, .T. ) ;
#340 = AXIS2_PLACEMENT_3D ( 'NONE', #30, #212, #350 ) ;
#341 = EDGE_CURVE ( 'NONE', #231, #44, #237, .T. ) ;
#342 = ORIENTED_EDGE ( 'NONE', *, *, #105, .F. ) ;
#343 = DIRECTION ( 'NONE',  ( -1.000000000000000000, 0.000000000000000000, -0.000000000000000000 ) ) ;
#344 = CARTESIAN_POINT ( 'NONE',  ( -10.00000000000000000, 10.00000000000000000, 0.000000000000000000 ) ) ;
#345 = CARTESIAN_POINT ( 'NONE',  ( 15.00000000000000000, -15.00000000000000000, 135.0000000000000000 ) ) ;
#346 = CARTESIAN_POINT ( 'NONE',  ( 0.000000000000000000, -10.25000000000000000, 109.7500000000000000 ) ) ;
#347 = FILL_AREA_STYLE ('',( #523 ) ) ;
#348 = CARTESIAN_POINT ( 'NONE',  ( -15.00000000000000000, -15.00000000000000000, 135.0000000000000000 ) ) ;
#349 = DIRECTION ( 'NONE',  ( -0.000000000000000000, -0.000000000000000000, -1.000000000000000000 ) ) ;
#350 = DIRECTION ( 'NONE',  ( -1.000000000000000000, 0.000000000000000000, -0.000000000000000000 ) ) ;
#351 = ADVANCED_FACE ( 'NONE', ( #104 ), #517, .F. ) ;
#352 = DIRECTION ( 'NONE',  ( 0.000000000000000000, -0.000000000000000000, -1.000000000000000000 ) ) ;
#353 = PLANE ( 'NONE',  #292 ) ;
#354 = DIRECTION ( 'NONE',  ( -1.000000000000000000, 0.000000000000000000, -0.000000000000000000 ) ) ;
#355 = DIRECTION ( 'NONE',  ( -0.000000000000000000, -1.000000000000000000, -0.000000000000000000 ) ) ;
#356 = ORIENTED_EDGE ( 'NONE', *, *, #270, .T. ) ;
#357 = ADVANCED_FACE ( 'NONE', ( #53 ), #430, .F. ) ;
#358 = AXIS2_PLACEMENT_3D ( 'NONE', #410, #320, #503 ) ;
#359 = PLANE ( 'NONE',  #254 ) ;
#360 = ORIENTED_EDGE ( 'NONE', *, *, #270, .F. ) ;
#361 = DIRECTION ( 'NONE',  ( 0.000000000000000000, 0.000000000000000000, 1.000000000000000000 ) ) ;
#362 = DIRECTION ( 'NONE',  ( 0.000000000000000000, 0.000000000000000000, -1.000000000000000000 ) ) ;
#363 = ORIENTED_EDGE ( 'NONE', *, *, #12, .F. ) ;
#364 = DIRECTION ( 'NONE',  ( 0.000000000000000000, 0.000000000000000000, 1.000000000000000000 ) ) ;
#365 = CARTESIAN_POINT ( 'NONE',  ( 15.00000000000000000, -15.00000000000000000, 135.0000000000000000 ) ) ;
#366 = ADVANCED_FACE ( 'NONE', ( #562 ), #8, .F. ) ;
#367 = VERTEX_POINT ( 'NONE', #463 ) ;
#368 = DIRECTION ( 'NONE',  ( 0.000000000000000000, 0.000000000000000000, 1.000000000000000000 ) ) ;
#369 = CARTESIAN_POINT ( 'NONE',  ( 0.000000000000000000, 0.000000000000000000, 130.2500000000000000 ) ) ;
#370 = PRESENTATION_LAYER_ASSIGNMENT (  '', '', ( #486 ) ) ;
#371 = ORIENTED_EDGE ( 'NONE', *, *, #208, .F. ) ;
#372 = VECTOR ( 'NONE', #110, 1000.000000000000000 ) ;
#373 = CARTESIAN_POINT ( 'NONE',  ( 10.25000000000000000, 15.00000000000000000, 109.7500000000000000 ) ) ;
#374 = ORIENTED_EDGE ( 'NONE', *, *, #208, .T. ) ;
#375 = DIRECTION ( 'NONE',  ( 0.000000000000000000, 1.000000000000000000, -0.000000000000000000 ) ) ;
#376 = ORIENTED_EDGE ( 'NONE', *, *, #575, .T. ) ;
#377 = EDGE_CURVE ( 'NONE', #267, #240, #329, .T. ) ;
#378 = CARTESIAN_POINT ( 'NONE',  ( 10.00000000000000000, 10.00000000000000000, 0.000000000000000000 ) ) ;
#379 = ORIENTED_EDGE ( 'NONE', *, *, #535, .T. ) ;
#380 = AXIS2_PLACEMENT_3D ( 'NONE', #107, #58, #241 ) ;
#381 = PRODUCT_RELATED_PRODUCT_CATEGORY ( 'part', '', ( #213 ) ) ;
#382 = CARTESIAN_POINT ( 'NONE',  ( -10.25000000000000000, 0.000000000000000000, 130.2500000000000000 ) ) ;
#383 = ORIENTED_EDGE ( 'NONE', *, *, #442, .F. ) ;
#384 = CARTESIAN_POINT ( 'NONE',  ( 0.000000000000000000, 10.25000000000000000, 130.2500000000000000 ) ) ;
#385 = ORIENTED_EDGE ( 'NONE', *, *, #415, .T. ) ;
#386 = EDGE_CURVE ( 'NONE', #233, #267, #189, .T. ) ;
#387 = DIRECTION ( 'NONE',  ( -0.000000000000000000, -0.000000000000000000, -1.000000000000000000 ) ) ;
#388 = LINE ( 'NONE', #72, #389 ) ;
#389 = VECTOR ( 'NONE', #573, 1000.000000000000000 ) ;
#390 = VECTOR ( 'NONE', #387, 1000.000000000000000 ) ;
#391 = LINE ( 'NONE', #203, #446 ) ;
#392 = DIRECTION ( 'NONE',  ( 0.000000000000000000, 1.000000000000000000, 0.000000000000000000 ) ) ;
#393 = DIRECTION ( 'NONE',  ( 0.000000000000000000, 0.000000000000000000, -1.000000000000000000 ) ) ;
#394 = CARTESIAN_POINT ( 'NONE',  ( 15.00000000000000000, -10.25000000000000000, 130.2500000000000000 ) ) ;
#395 = EDGE_CURVE ( 'NONE', #508, #409, #17, .T. ) ;
#396 = CARTESIAN_POINT ( 'NONE',  ( 0.000000000000000000, -10.25000000000000000, 109.7500000000000000 ) ) ;
#397 = VECTOR ( 'NONE', #170, 1000.000000000000000 ) ;
#398 = AXIS2_PLACEMENT_3D ( 'NONE', #286, #375, #520 ) ;
#399 = DIRECTION ( 'NONE',  ( 0.000000000000000000, -1.000000000000000000, 0.000000000000000000 ) ) ;
#400 = LINE ( 'NONE', #168, #397 ) ;
#401 = LINE ( 'NONE', #457, #574 ) ;
#402 = ORIENTED_EDGE ( 'NONE', *, *, #3, .F. ) ;
#403 = ADVANCED_FACE ( 'NONE', ( #468 ), #515, .F. ) ;
#404 = CARTESIAN_POINT ( 'NONE',  ( 0.000000000000000000, 0.000000000000000000, 0.000000000000000000 ) ) ;
#405 = VERTEX_POINT ( 'NONE', #418 ) ;
#406 = DIRECTION ( 'NONE',  ( -0.000000000000000000, -1.000000000000000000, -0.000000000000000000 ) ) ;
#407 = VECTOR ( 'NONE', #538, 1000.000000000000000 ) ;
#408 = CARTESIAN_POINT ( 'NONE',  ( -10.00000000000000000, -10.00000000000000000, -10.00000000000000000 ) ) ;
#409 = VERTEX_POINT ( 'NONE', #55 ) ;
#410 = CARTESIAN_POINT ( 'NONE',  ( 0.000000000000000000, 0.000000000000000000, 0.000000000000000000 ) ) ;
#411 = CARTESIAN_POINT ( 'NONE',  ( -15.00000000000000000, 15.00000000000000000, 135.0000000000000000 ) ) ;
#412 = VERTEX_POINT ( 'NONE', #5 ) ;
#413 = CARTESIAN_POINT ( 'NONE',  ( 0.000000000000000000, -10.25000000000000000, 130.2500000000000000 ) ) ;
#414 = UNCERTAINTY_MEASURE_WITH_UNIT (LENGTH_MEASURE( 1.000000000000000082E-05 ), #580, 'distance_accuracy_value', 'NONE');
#415 = EDGE_CURVE ( 'NONE', #201, #412, #239, .T. ) ;
#416 = CARTESIAN_POINT ( 'NONE',  ( -15.00000000000000000, -15.00000000000000000, 135.0000000000000000 ) ) ;
#417 = ORIENTED_EDGE ( 'NONE', *, *, #546, .F. ) ;
#418 = CARTESIAN_POINT ( 'NONE',  ( -10.25000000000000000, 15.00000000000000000, 130.2500000000000000 ) ) ;
#419 = AXIS2_PLACEMENT_3D ( 'NONE', #593, #131, #362 ) ;
#420 = ORIENTED_EDGE ( 'NONE', *, *, #244, .F. ) ;
#421 = DIRECTION ( 'NONE',  ( 0.000000000000000000, 0.000000000000000000, -1.000000000000000000 ) ) ;
#422 = EDGE_LOOP ( 'NONE', ( #521, #476, #4, #597 ) ) ;
#423 = EDGE_CURVE ( 'NONE', #117, #319, #465, .T. ) ;
#424 = DIRECTION ( 'NONE',  ( 0.000000000000000000, 0.000000000000000000, 1.000000000000000000 ) ) ;
#425 = ORIENTED_EDGE ( 'NONE', *, *, #423, .T. ) ;
#426 = DIRECTION ( 'NONE',  ( 1.000000000000000000, 0.000000000000000000, -0.000000000000000000 ) ) ;
#427 = ORIENTED_EDGE ( 'NONE', *, *, #566, .T. ) ;
#428 = AXIS2_PLACEMENT_3D ( 'NONE', #576, #533, #525 ) ;
#429 = ORIENTED_EDGE ( 'NONE', *, *, #519, .T. ) ;
#430 = PLANE ( 'NONE',  #62 ) ;
#431 = ADVANCED_FACE ( 'NONE', ( #153 ), #333, .F. ) ;
#432 = EDGE_LOOP ( 'NONE', ( #335, #551, #322, #427 ) ) ;
#433 = ORIENTED_EDGE ( 'NONE', *, *, #157, .T. ) ;
#434 = CARTESIAN_POINT ( 'NONE',  ( -15.00000000000000000, 15.00000000000000000, 135.0000000000000000 ) ) ;
#435 = ORIENTED_EDGE ( 'NONE', *, *, #314, .F. ) ;
#436 = PLANE ( 'NONE',  #332 ) ;
#437 = DIRECTION ( 'NONE',  ( 1.000000000000000000, -0.000000000000000000, -0.000000000000000000 ) ) ;
#438 = VECTOR ( 'NONE', #307, 1000.000000000000000 ) ;
#439 = VECTOR ( 'NONE', #84, 1000.000000000000000 ) ;
#440 = FACE_OUTER_BOUND ( 'NONE', #296, .T. ) ;
#441 = CARTESIAN_POINT ( 'NONE',  ( -15.00000000000000000, 15.00000000000000000, 135.0000000000000000 ) ) ;
#442 = EDGE_CURVE ( 'NONE', #267, #405, #478, .T. ) ;
#443 = VERTEX_POINT ( 'NONE', #118 ) ;
#444 = DIRECTION ( 'NONE',  ( -1.000000000000000000, -0.000000000000000000, -0.000000000000000000 ) ) ;
#445 = LINE ( 'NONE', #346, #82 ) ;
#446 = VECTOR ( 'NONE', #70, 1000.000000000000000 ) ;
#447 = EDGE_CURVE ( 'NONE', #50, #231, #214, .T. ) ;
#448 = LINE ( 'NONE', #300, #196 ) ;
#449 = PRODUCT_DEFINITION_SHAPE ( 'NONE', 'NONE',  #462 ) ;
#450 = CARTESIAN_POINT ( 'NONE',  ( 10.00000000000000000, -10.00000000000000000, -10.00000000000000000 ) ) ;
#451 = LINE ( 'NONE', #36, #311 ) ;
#452 = VERTEX_POINT ( 'NONE', #480 ) ;
#453 = FACE_OUTER_BOUND ( 'NONE', #313, .T. ) ;
#454 = ORIENTED_EDGE ( 'NONE', *, *, #157, .F. ) ;
#455 = FACE_OUTER_BOUND ( 'NONE', #561, .T. ) ;
#456 = VECTOR ( 'NONE', #183, 1000.000000000000000 ) ;
#457 = CARTESIAN_POINT ( 'NONE',  ( -15.00000000000000000, 15.00000000000000000, 0.000000000000000000 ) ) ;
#458 = ORIENTED_EDGE ( 'NONE', *, *, #395, .F. ) ;
#459 = ADVANCED_FACE ( 'NONE', ( #250 ), #27, .T. ) ;
#460 = DIRECTION ( 'NONE',  ( 0.000000000000000000, 0.000000000000000000, -1.000000000000000000 ) ) ;
#461 = ORIENTED_EDGE ( 'NONE', *, *, #235, .F. ) ;
#462 = PRODUCT_DEFINITION ( 'General', '', #283, #97 ) ;
#463 = CARTESIAN_POINT ( 'NONE',  ( 15.00000000000000000, -10.25000000000000000, 109.7500000000000000 ) ) ;
#464 = VERTEX_POINT ( 'NONE', #434 ) ;
#465 = LINE ( 'NONE', #10, #52 ) ;
#466 = EDGE_CURVE ( 'NONE', #150, #508, #20, .T. ) ;
#467 = ORIENTED_EDGE ( 'NONE', *, *, #148, .F. ) ;
#468 = FACE_OUTER_BOUND ( 'NONE', #587, .T. ) ;
#469 = ORIENTED_EDGE ( 'NONE', *, *, #125, .F. ) ;
#470 = DIRECTION ( 'NONE',  ( 0.000000000000000000, 0.000000000000000000, -1.000000000000000000 ) ) ;
#471 = ORIENTED_EDGE ( 'NONE', *, *, #260, .T. ) ;
#472 = EDGE_CURVE ( 'NONE', #240, #569, #167, .T. ) ;
#473 = ORIENTED_EDGE ( 'NONE', *, *, #535, .F. ) ;
#474 = UNCERTAINTY_MEASURE_WITH_UNIT (LENGTH_MEASURE( 1.000000000000000082E-05 ), #262, 'distance_accuracy_value', 'NONE');
#475 = DIRECTION ( 'NONE',  ( 1.000000000000000000, 0.000000000000000000, 0.000000000000000000 ) ) ;
#476 = ORIENTED_EDGE ( 'NONE', *, *, #519, .F. ) ;
#477 = AXIS2_PLACEMENT_3D ( 'NONE', #78, #529, #352 ) ;
#478 = LINE ( 'NONE', #68, #243 ) ;
#479 = ORIENTED_EDGE ( 'NONE', *, *, #447, .T. ) ;
#480 = CARTESIAN_POINT ( 'NONE',  ( -10.00000000000000000, -10.00000000000000000, -10.00000000000000000 ) ) ;
#481 = DIRECTION ( 'NONE',  ( 1.000000000000000000, -0.000000000000000000, -0.000000000000000000 ) ) ;
#482 = ORIENTED_EDGE ( 'NONE', *, *, #32, .T. ) ;
#483 = PLANE ( 'NONE',  #494 ) ;
#484 = CARTESIAN_POINT ( 'NONE',  ( -15.00000000000000000, -15.00000000000000000, 0.000000000000000000 ) ) ;
#485 = ADVANCED_FACE ( 'NONE', ( #578 ), #436, .T. ) ;
#486 = STYLED_ITEM ( 'NONE', ( #211 ), #528 ) ;
#487 = DIRECTION ( 'NONE',  ( 0.000000000000000000, -0.000000000000000000, -1.000000000000000000 ) ) ;
#488 = PLANE ( 'NONE',  #590 ) ;
#489 = ADVANCED_FACE ( 'NONE', ( #23 ), #483, .T. ) ;
#490 = LINE ( 'NONE', #261, #215 ) ;
#491 = EDGE_CURVE ( 'NONE', #452, #443, #391, .T. ) ;
#492 = DIRECTION ( 'NONE',  ( 0.000000000000000000, 1.000000000000000000, 0.000000000000000000 ) ) ;
#493 = CARTESIAN_POINT ( 'NONE',  ( -10.25000000000000000, 15.00000000000000000, 130.2500000000000000 ) ) ;
#494 = AXIS2_PLACEMENT_3D ( 'NONE', #583, #206, #121 ) ;
#495 = APPLICATION_PROTOCOL_DEFINITION ( 'draft international standard', 'automotive_design', 1998, #112 ) ;
#496 = DIRECTION ( 'NONE',  ( -1.000000000000000000, 0.000000000000000000, 0.000000000000000000 ) ) ;
#497 = EDGE_LOOP ( 'NONE', ( #567, #21, #482, #96 ) ) ;
#498 = PLANE ( 'NONE',  #160 ) ;
#499 = CARTESIAN_POINT ( 'NONE',  ( -10.00000000000000000, 10.00000000000000000, -10.00000000000000000 ) ) ;
#500 = ORIENTED_EDGE ( 'NONE', *, *, #40, .F. ) ;
#501 = DIRECTION ( 'NONE',  ( 1.000000000000000000, 0.000000000000000000, 0.000000000000000000 ) ) ;
#502 = ORIENTED_EDGE ( 'NONE', *, *, #260, .F. ) ;
#503 = DIRECTION ( 'NONE',  ( 1.000000000000000000, 0.000000000000000000, 0.000000000000000000 ) ) ;
#504 = VECTOR ( 'NONE', #596, 1000.000000000000000 ) ;
#505 = DIRECTION ( 'NONE',  ( 0.000000000000000000, 0.000000000000000000, -1.000000000000000000 ) ) ;
#506 = ORIENTED_EDGE ( 'NONE', *, *, #216, .F. ) ;
#507 = FACE_OUTER_BOUND ( 'NONE', #432, .T. ) ;
#508 = VERTEX_POINT ( 'NONE', #169 ) ;
#509 = ADVANCED_FACE ( 'NONE', ( #295, #65 ), #248, .F. ) ;
#510 = DIRECTION ( 'NONE',  ( -1.000000000000000000, 0.000000000000000000, -0.000000000000000000 ) ) ;
#511 = ORIENTED_EDGE ( 'NONE', *, *, #288, .T. ) ;
#512 = CARTESIAN_POINT ( 'NONE',  ( -10.25000000000000000, 0.000000000000000000, 109.7500000000000000 ) ) ;
#513 = VECTOR ( 'NONE', #100, 1000.000000000000000 ) ;
#514 = EDGE_LOOP ( 'NONE', ( #420, #544, #458, #435 ) ) ;
#515 = PLANE ( 'NONE',  #398 ) ;
#516 = ORIENTED_EDGE ( 'NONE', *, *, #7, .F. ) ;
#517 = PLANE ( 'NONE',  #294 ) ;
#518 = ORIENTED_EDGE ( 'NONE', *, *, #386, .T. ) ;
#519 = EDGE_CURVE ( 'NONE', #287, #409, #209, .T. ) ;
#520 = DIRECTION ( 'NONE',  ( 0.000000000000000000, 0.000000000000000000, 1.000000000000000000 ) ) ;
#521 = ORIENTED_EDGE ( 'NONE', *, *, #395, .T. ) ;
#522 = VECTOR ( 'NONE', #364, 1000.000000000000000 ) ;
#523 = FILL_AREA_STYLE_COLOUR ( '', #15 ) ;
#524 = LINE ( 'NONE', #344, #531 ) ;
#525 = DIRECTION ( 'NONE',  ( 0.000000000000000000, 0.000000000000000000, 1.000000000000000000 ) ) ;
#526 = ADVANCED_FACE ( 'NONE', ( #440 ), #571, .F. ) ;
#527 = FACE_OUTER_BOUND ( 'NONE', #87, .T. ) ;
#528 = MANIFOLD_SOLID_BREP ( 'Cut-Extrude2', #141 ) ;
#529 = DIRECTION ( 'NONE',  ( 0.000000000000000000, -1.000000000000000000, 0.000000000000000000 ) ) ;
#530 = DIRECTION ( 'NONE',  ( -0.000000000000000000, -1.000000000000000000, -0.000000000000000000 ) ) ;
#531 = VECTOR ( 'NONE', #28, 1000.000000000000000 ) ;
#532 = VECTOR ( 'NONE', #268, 1000.000000000000000 ) ;
#533 = DIRECTION ( 'NONE',  ( -1.000000000000000000, 0.000000000000000000, 0.000000000000000000 ) ) ;
#534 = DIRECTION ( 'NONE',  ( 0.000000000000000000, 0.000000000000000000, 1.000000000000000000 ) ) ;
#535 = EDGE_CURVE ( 'NONE', #443, #117, #595, .T. ) ;
#536 = DIRECTION ( 'NONE',  ( 0.000000000000000000, 0.000000000000000000, -1.000000000000000000 ) ) ;
#537 = CARTESIAN_POINT ( 'NONE',  ( -15.00000000000000000, 15.00000000000000000, 135.0000000000000000 ) ) ;
#538 = DIRECTION ( 'NONE',  ( 1.000000000000000000, -0.000000000000000000, -0.000000000000000000 ) ) ;
#539 = DIRECTION ( 'NONE',  ( -1.000000000000000000, -0.000000000000000000, -0.000000000000000000 ) ) ;
#540 = EDGE_LOOP ( 'NONE', ( #247, #140, #589, #188, #363, #249, #374, #48 ) ) ;
#541 = VECTOR ( 'NONE', #210, 1000.000000000000000 ) ;
#542 = AXIS2_PLACEMENT_3D ( 'NONE', #245, #198, #424 ) ;
#543 = CARTESIAN_POINT ( 'NONE',  ( -15.00000000000000000, -15.00000000000000000, 135.0000000000000000 ) ) ;
#544 = ORIENTED_EDGE ( 'NONE', *, *, #252, .F. ) ;
#545 = PLANE ( 'NONE',  #563 ) ;
#546 = EDGE_CURVE ( 'NONE', #44, #159, #165, .T. ) ;
#547 = CARTESIAN_POINT ( 'NONE',  ( 10.25000000000000000, 10.25000000000000000, 109.7500000000000000 ) ) ;
#548 = ORIENTED_EDGE ( 'NONE', *, *, #314, .T. ) ;
#549 = FACE_OUTER_BOUND ( 'NONE', #514, .T. ) ;
#550 = FACE_OUTER_BOUND ( 'NONE', #145, .T. ) ;
#551 = ORIENTED_EDGE ( 'NONE', *, *, #80, .F. ) ;
#552 = VECTOR ( 'NONE', #259, 1000.000000000000000 ) ;
#553 = VECTOR ( 'NONE', #179, 1000.000000000000000 ) ;
#554 =( GEOMETRIC_REPRESENTATION_CONTEXT ( 3 ) GLOBAL_UNCERTAINTY_ASSIGNED_CONTEXT ( ( #414 ) ) GLOBAL_UNIT_ASSIGNED_CONTEXT ( ( #580, #306, #31 ) ) REPRESENTATION_CONTEXT ( 'NONE', 'WORKASPACE' ) );
#555 = LINE ( 'NONE', #134, #553 ) ;
#556 = ORIENTED_EDGE ( 'NONE', *, *, #235, .T. ) ;
#557 = ADVANCED_FACE ( 'NONE', ( #549, #127 ), #498, .T. ) ;
#558 = CARTESIAN_POINT ( 'NONE',  ( 0.000000000000000000, -10.25000000000000000, 109.7500000000000000 ) ) ;
#559 = VERTEX_POINT ( 'NONE', #308 ) ;
#560 = DIRECTION ( 'NONE',  ( 1.000000000000000000, -0.000000000000000000, -0.000000000000000000 ) ) ;
#561 = EDGE_LOOP ( 'NONE', ( #548, #193, #467, #356 ) ) ;
#562 = FACE_OUTER_BOUND ( 'NONE', #54, .T. ) ;
#563 = AXIS2_PLACEMENT_3D ( 'NONE', #175, #492, #221 ) ;
#564 = ORIENTED_EDGE ( 'NONE', *, *, #252, .T. ) ;
#565 = CARTESIAN_POINT ( 'NONE',  ( -10.25000000000000000, 0.000000000000000000, 109.7500000000000000 ) ) ;
#566 = EDGE_CURVE ( 'NONE', #569, #135, #229, .T. ) ;
#567 = ORIENTED_EDGE ( 'NONE', *, *, #142, .T. ) ;
#568 = FACE_OUTER_BOUND ( 'NONE', #11, .T. ) ;
#569 = VERTEX_POINT ( 'NONE', #178 ) ;
#570 = VERTEX_POINT ( 'NONE', #88 ) ;
#571 = PLANE ( 'NONE',  #133 ) ;
#572 = VECTOR ( 'NONE', #534, 1000.000000000000000 ) ;
#573 = DIRECTION ( 'NONE',  ( 0.000000000000000000, 1.000000000000000000, 0.000000000000000000 ) ) ;
#574 = VECTOR ( 'NONE', #539, 1000.000000000000000 ) ;
#575 = EDGE_CURVE ( 'NONE', #559, #319, #1, .T. ) ;
#576 = CARTESIAN_POINT ( 'NONE',  ( 15.00000000000000000, -15.00000000000000000, 135.0000000000000000 ) ) ;
#577 = CARTESIAN_POINT ( 'NONE',  ( -10.25000000000000000, 15.00000000000000000, 109.7500000000000000 ) ) ;
#578 = FACE_OUTER_BOUND ( 'NONE', #226, .T. ) ;
#579 = LINE ( 'NONE', #582, #71 ) ;
#580 =( LENGTH_UNIT ( ) NAMED_UNIT ( * ) SI_UNIT ( .MILLI., .METRE. ) );
#581 = EDGE_CURVE ( 'NONE', #220, #337, #130, .T. ) ;
#582 = CARTESIAN_POINT ( 'NONE',  ( 0.000000000000000000, 10.25000000000000000, 130.2500000000000000 ) ) ;
#583 = CARTESIAN_POINT ( 'NONE',  ( -10.00000000000000000, -10.00000000000000000, -10.00000000000000000 ) ) ;
#584 = FACE_BOUND ( 'NONE', #190, .T. ) ;
#585 = EDGE_CURVE ( 'NONE', #443, #559, #185, .T. ) ;
#586 = DIRECTION ( 'NONE',  ( 0.000000000000000000, -1.000000000000000000, 0.000000000000000000 ) ) ;
#587 = EDGE_LOOP ( 'NONE', ( #469, #479, #99, #111 ) ) ;
#588 = LINE ( 'NONE', #499, #151 ) ;
#589 = ORIENTED_EDGE ( 'NONE', *, *, #442, .T. ) ;
#590 = AXIS2_PLACEMENT_3D ( 'NONE', #207, #392, #217 ) ;
#591 = VECTOR ( 'NONE', #192, 1000.000000000000000 ) ;
#592 = ADVANCED_FACE ( 'NONE', ( #455 ), #545, .F. ) ;
#593 = CARTESIAN_POINT ( 'NONE',  ( 0.000000000000000000, 0.000000000000000000, 0.000000000000000000 ) ) ;
#594 = EDGE_LOOP ( 'NONE', ( #156, #502, #101, #379 ) ) ;
#595 = LINE ( 'NONE', #224, #115 ) ;
#596 = DIRECTION ( 'NONE',  ( 0.000000000000000000, 0.000000000000000000, 1.000000000000000000 ) ) ;
#597 = ORIENTED_EDGE ( 'NONE', *, *, #466, .T. ) ;
ENDSEC;
END-ISO-10303-21;
