ISO-10303-21;
HEADER;
FILE_DESCRIPTION (( 'STEP AP214' ),
    '1' );
FILE_NAME ('CNC_Cage_Post_Upper_UL.STEP',
    '2026-08-12T22:35:38',
    ( '' ),
    ( '' ),
    'SwSTEP 2.0',
    'SolidWorks 2026',
    '' );
FILE_SCHEMA (( 'AUTOMOTIVE_DESIGN' ));
ENDSEC;

DATA;
#1 = DIRECTION ( 'NONE',  ( 0.000000000000000000, -0.000000000000000000, 1.000000000000000000 ) ) ;
#2 = ADVANCED_FACE ( 'NONE', ( #563 ), #512, .T. ) ;
#3 = ORIENTED_EDGE ( 'NONE', *, *, #172, .T. ) ;
#4 = VECTOR ( 'NONE', #519, 1000.000000000000000 ) ;
#5 = CARTESIAN_POINT ( 'NONE',  ( -10.00000000000000000, -10.00000000000000000, -10.00000000000000000 ) ) ;
#6 = ORIENTED_EDGE ( 'NONE', *, *, #532, .T. ) ;
#7 = DIRECTION ( 'NONE',  ( -0.000000000000000000, -1.000000000000000000, -0.000000000000000000 ) ) ;
#8 = ORIENTED_EDGE ( 'NONE', *, *, #463, .F. ) ;
#9 = DIRECTION ( 'NONE',  ( -1.000000000000000000, -0.000000000000000000, -0.000000000000000000 ) ) ;
#10 = ORIENTED_EDGE ( 'NONE', *, *, #573, .F. ) ;
#11 = EDGE_CURVE ( 'NONE', #331, #46, #295, .T. ) ;
#12 = VECTOR ( 'NONE', #185, 1000.000000000000000 ) ;
#13 = DIRECTION ( 'NONE',  ( -1.000000000000000000, 0.000000000000000000, 0.000000000000000000 ) ) ;
#14 = VECTOR ( 'NONE', #131, 1000.000000000000000 ) ;
#15 = EDGE_LOOP ( 'NONE', ( #118, #232, #51, #359, #246, #475, #65, #549 ) ) ;
#16 = VERTEX_POINT ( 'NONE', #33 ) ;
#17 = LINE ( 'NONE', #459, #169 ) ;
#18 = EDGE_LOOP ( 'NONE', ( #321, #511, #267, #8 ) ) ;
#19 = VERTEX_POINT ( 'NONE', #301 ) ;
#20 = CARTESIAN_POINT ( 'NONE',  ( 15.00000000000000000, -15.00000000000000000, 135.0000000000000000 ) ) ;
#21 = ORIENTED_EDGE ( 'NONE', *, *, #402, .T. ) ;
#22 = EDGE_CURVE ( 'NONE', #431, #543, #25, .T. ) ;
#23 = PRODUCT_DEFINITION_SHAPE ( 'NONE', 'NONE',  #535 ) ;
#24 = CARTESIAN_POINT ( 'NONE',  ( 10.00000000000000000, 10.00000000000000000, -10.00000000000000000 ) ) ;
#25 = LINE ( 'NONE', #305, #570 ) ;
#26 = AXIS2_PLACEMENT_3D ( 'NONE', #233, #13, #110 ) ;
#27 = CARTESIAN_POINT ( 'NONE',  ( 0.000000000000000000, -10.25000000000000000, 109.7500000000000000 ) ) ;
#28 = CARTESIAN_POINT ( 'NONE',  ( 0.000000000000000000, -10.25000000000000000, 109.7500000000000000 ) ) ;
#29 = LINE ( 'NONE', #260, #387 ) ;
#30 = DIRECTION ( 'NONE',  ( -0.000000000000000000, -1.000000000000000000, -0.000000000000000000 ) ) ;
#31 = CARTESIAN_POINT ( 'NONE',  ( -15.00000000000000000, 15.00000000000000000, 0.000000000000000000 ) ) ;
#32 = ADVANCED_FACE ( 'NONE', ( #250 ), #161, .F. ) ;
#33 = CARTESIAN_POINT ( 'NONE',  ( -10.25000000000000000, 10.25000000000000000, 109.7500000000000000 ) ) ;
#34 = APPLICATION_PROTOCOL_DEFINITION ( 'draft international standard', 'automotive_design', 1998, #484 ) ;
#35 = FACE_OUTER_BOUND ( 'NONE', #451, .T. ) ;
#36 = APPLICATION_PROTOCOL_DEFINITION ( 'draft international standard', 'automotive_design', 1998, #504 ) ;
#37 = FACE_OUTER_BOUND ( 'NONE', #375, .T. ) ;
#38 = ORIENTED_EDGE ( 'NONE', *, *, #213, .T. ) ;
#39 = EDGE_CURVE ( 'NONE', #200, #525, #73, .T. ) ;
#40 = DIRECTION ( 'NONE',  ( 1.000000000000000000, 0.000000000000000000, 0.000000000000000000 ) ) ;
#41 = DIRECTION ( 'NONE',  ( 0.000000000000000000, -0.000000000000000000, 1.000000000000000000 ) ) ;
#42 = ORIENTED_EDGE ( 'NONE', *, *, #337, .F. ) ;
#43 = AXIS2_PLACEMENT_3D ( 'NONE', #478, #390, #547 ) ;
#44 = CARTESIAN_POINT ( 'NONE',  ( 0.000000000000000000, 10.25000000000000000, 130.2500000000000000 ) ) ;
#45 = CARTESIAN_POINT ( 'NONE',  ( 10.00000000000000000, -10.00000000000000000, -10.00000000000000000 ) ) ;
#46 = VERTEX_POINT ( 'NONE', #208 ) ;
#47 = EDGE_CURVE ( 'NONE', #240, #88, #202, .T. ) ;
#48 = CARTESIAN_POINT ( 'NONE',  ( -10.00000000000000000, 10.00000000000000000, 0.000000000000000000 ) ) ;
#49 = ORIENTED_EDGE ( 'NONE', *, *, #573, .T. ) ;
#50 = LINE ( 'NONE', #190, #253 ) ;
#51 = ORIENTED_EDGE ( 'NONE', *, *, #294, .T. ) ;
#52 = VECTOR ( 'NONE', #30, 1000.000000000000000 ) ;
#53 = VECTOR ( 'NONE', #263, 1000.000000000000000 ) ;
#54 = PLANE ( 'NONE',  #26 ) ;
#55 = ORIENTED_EDGE ( 'NONE', *, *, #276, .T. ) ;
#56 =( NAMED_UNIT ( * ) PLANE_ANGLE_UNIT ( ) SI_UNIT ( $, .RADIAN. ) );
#57 = ORIENTED_EDGE ( 'NONE', *, *, #103, .T. ) ;
#58 = ADVANCED_FACE ( 'NONE', ( #531 ), #489, .F. ) ;
#59 = DIRECTION ( 'NONE',  ( 0.000000000000000000, 0.000000000000000000, 1.000000000000000000 ) ) ;
#60 = EDGE_LOOP ( 'NONE', ( #586, #560, #588, #466 ) ) ;
#61 = EDGE_LOOP ( 'NONE', ( #221, #597, #271, #287 ) ) ;
#62 = DIRECTION ( 'NONE',  ( -1.000000000000000000, 0.000000000000000000, -0.000000000000000000 ) ) ;
#63 = VECTOR ( 'NONE', #442, 1000.000000000000000 ) ;
#64 = VERTEX_POINT ( 'NONE', #76 ) ;
#65 = ORIENTED_EDGE ( 'NONE', *, *, #480, .T. ) ;
#66 = LINE ( 'NONE', #201, #299 ) ;
#67 = EDGE_CURVE ( 'NONE', #237, #229, #389, .T. ) ;
#68 = ORIENTED_EDGE ( 'NONE', *, *, #39, .T. ) ;
#69 = CARTESIAN_POINT ( 'NONE',  ( 10.25000000000000000, 0.000000000000000000, 109.7500000000000000 ) ) ;
#70 = FACE_OUTER_BOUND ( 'NONE', #235, .T. ) ;
#71 = LINE ( 'NONE', #31, #590 ) ;
#72 = VECTOR ( 'NONE', #228, 1000.000000000000000 ) ;
#73 = LINE ( 'NONE', #438, #100 ) ;
#74 = MECHANICAL_DESIGN_GEOMETRIC_PRESENTATION_REPRESENTATION (  '', ( #225 ), #318 ) ;
#75 = DIRECTION ( 'NONE',  ( 0.000000000000000000, 0.000000000000000000, -1.000000000000000000 ) ) ;
#76 = CARTESIAN_POINT ( 'NONE',  ( -10.00000000000000000, 10.00000000000000000, -10.00000000000000000 ) ) ;
#77 = EDGE_CURVE ( 'NONE', #88, #111, #571, .T. ) ;
#78 = FACE_OUTER_BOUND ( 'NONE', #60, .T. ) ;
#79 = CARTESIAN_POINT ( 'NONE',  ( 10.00000000000000000, -10.00000000000000000, -10.00000000000000000 ) ) ;
#80 = CARTESIAN_POINT ( 'NONE',  ( -10.25000000000000000, 15.00000000000000000, 109.7500000000000000 ) ) ;
#81 = VECTOR ( 'NONE', #163, 1000.000000000000000 ) ;
#82 = VECTOR ( 'NONE', #98, 1000.000000000000000 ) ;
#83 = CARTESIAN_POINT ( 'NONE',  ( 0.000000000000000000, 0.000000000000000000, 109.7500000000000000 ) ) ;
#84 = EDGE_CURVE ( 'NONE', #111, #543, #391, .T. ) ;
#85 = CARTESIAN_POINT ( 'NONE',  ( 15.00000000000000000, -15.00000000000000000, 0.000000000000000000 ) ) ;
#86 = EDGE_LOOP ( 'NONE', ( #502, #99, #344, #314 ) ) ;
#87 = CARTESIAN_POINT ( 'NONE',  ( 10.25000000000000000, 15.00000000000000000, 130.2500000000000000 ) ) ;
#88 = VERTEX_POINT ( 'NONE', #346 ) ;
#89 = CARTESIAN_POINT ( 'NONE',  ( 0.000000000000000000, 10.25000000000000000, 109.7500000000000000 ) ) ;
#90 = LINE ( 'NONE', #134, #149 ) ;
#91 = EDGE_LOOP ( 'NONE', ( #460, #338, #568, #458 ) ) ;
#92 = VECTOR ( 'NONE', #59, 1000.000000000000000 ) ;
#93 = LINE ( 'NONE', #536, #203 ) ;
#94 = DIRECTION ( 'NONE',  ( 0.000000000000000000, 1.000000000000000000, 0.000000000000000000 ) ) ;
#95 = VERTEX_POINT ( 'NONE', #486 ) ;
#96 = LINE ( 'NONE', #183, #72 ) ;
#97 = ORIENTED_EDGE ( 'NONE', *, *, #259, .T. ) ;
#98 = DIRECTION ( 'NONE',  ( 1.000000000000000000, 0.000000000000000000, 0.000000000000000000 ) ) ;
#99 = ORIENTED_EDGE ( 'NONE', *, *, #39, .F. ) ;
#100 = VECTOR ( 'NONE', #581, 1000.000000000000000 ) ;
#101 = VECTOR ( 'NONE', #392, 1000.000000000000000 ) ;
#102 =( LENGTH_UNIT ( ) NAMED_UNIT ( * ) SI_UNIT ( .MILLI., .METRE. ) );
#103 = EDGE_CURVE ( 'NONE', #428, #112, #258, .T. ) ;
#104 = EDGE_LOOP ( 'NONE', ( #405, #454, #594, #57 ) ) ;
#105 = CARTESIAN_POINT ( 'NONE',  ( 0.000000000000000000, 0.000000000000000000, -10.00000000000000000 ) ) ;
#106 = ORIENTED_EDGE ( 'NONE', *, *, #322, .T. ) ;
#107 = EDGE_LOOP ( 'NONE', ( #6, #382, #373, #186 ) ) ;
#108 = EDGE_CURVE ( 'NONE', #521, #538, #341, .T. ) ;
#109 = AXIS2_PLACEMENT_3D ( 'NONE', #117, #479, #548 ) ;
#110 = DIRECTION ( 'NONE',  ( 0.000000000000000000, 0.000000000000000000, 1.000000000000000000 ) ) ;
#111 = VERTEX_POINT ( 'NONE', #483 ) ;
#112 = VERTEX_POINT ( 'NONE', #115 ) ;
#113 = ADVANCED_FACE ( 'NONE', ( #210 ), #441, .T. ) ;
#114 = LINE ( 'NONE', #204, #444 ) ;
#115 = CARTESIAN_POINT ( 'NONE',  ( -15.00000000000000000, 10.25000000000000000, 109.7500000000000000 ) ) ;
#116 = LINE ( 'NONE', #348, #290 ) ;
#117 = CARTESIAN_POINT ( 'NONE',  ( 0.000000000000000000, 0.000000000000000000, 0.000000000000000000 ) ) ;
#118 = ORIENTED_EDGE ( 'NONE', *, *, #555, .F. ) ;
#119 = DIRECTION ( 'NONE',  ( 0.000000000000000000, 0.000000000000000000, -1.000000000000000000 ) ) ;
#120 = CARTESIAN_POINT ( 'NONE',  ( 10.25000000000000000, 0.000000000000000000, 130.2500000000000000 ) ) ;
#121 = EDGE_CURVE ( 'NONE', #292, #546, #583, .T. ) ;
#122 = LINE ( 'NONE', #257, #63 ) ;
#123 = DIRECTION ( 'NONE',  ( 0.000000000000000000, 0.000000000000000000, 1.000000000000000000 ) ) ;
#124 = EDGE_CURVE ( 'NONE', #429, #428, #534, .T. ) ;
#125 = CARTESIAN_POINT ( 'NONE',  ( -15.00000000000000000, -10.25000000000000000, 130.2500000000000000 ) ) ;
#126 = ADVANCED_FACE ( 'NONE', ( #70, #343 ), #524, .T. ) ;
#127 = LINE ( 'NONE', #363, #347 ) ;
#128 = DIRECTION ( 'NONE',  ( 0.000000000000000000, 1.000000000000000000, 0.000000000000000000 ) ) ;
#129 = ORIENTED_EDGE ( 'NONE', *, *, #150, .F. ) ;
#130 = VECTOR ( 'NONE', #167, 1000.000000000000000 ) ;
#131 = DIRECTION ( 'NONE',  ( -1.000000000000000000, -0.000000000000000000, -0.000000000000000000 ) ) ;
#132 = DIRECTION ( 'NONE',  ( -0.000000000000000000, 1.000000000000000000, 0.000000000000000000 ) ) ;
#133 = ORIENTED_EDGE ( 'NONE', *, *, #506, .F. ) ;
#134 = CARTESIAN_POINT ( 'NONE',  ( 0.000000000000000000, 10.25000000000000000, 109.7500000000000000 ) ) ;
#135 = ORIENTED_EDGE ( 'NONE', *, *, #234, .F. ) ;
#136 = LINE ( 'NONE', #553, #12 ) ;
#137 = VERTEX_POINT ( 'NONE', #313 ) ;
#138 = CLOSED_SHELL ( 'NONE', ( #155, #126, #455, #145, #206, #189, #32, #544, #226, #113, #2, #365, #565, #251, #58, #469, #286, #445, #515 ) ) ;
#139 = EDGE_CURVE ( 'NONE', #137, #88, #400, .T. ) ;
#140 = VECTOR ( 'NONE', #187, 1000.000000000000000 ) ;
#141 = FACE_OUTER_BOUND ( 'NONE', #86, .T. ) ;
#142 = EDGE_LOOP ( 'NONE', ( #411, #157, #248, #224 ) ) ;
#143 = CARTESIAN_POINT ( 'NONE',  ( -15.00000000000000000, -15.00000000000000000, 135.0000000000000000 ) ) ;
#144 = ORIENTED_EDGE ( 'NONE', *, *, #330, .T. ) ;
#145 = ADVANCED_FACE ( 'NONE', ( #501 ), #494, .F. ) ;
#146 = PRESENTATION_STYLE_ASSIGNMENT (( #198 ) ) ;
#147 = ORIENTED_EDGE ( 'NONE', *, *, #309, .F. ) ;
#148 = AXIS2_PLACEMENT_3D ( 'NONE', #593, #277, #587 ) ;
#149 = VECTOR ( 'NONE', #270, 1000.000000000000000 ) ;
#150 = EDGE_CURVE ( 'NONE', #538, #464, #407, .T. ) ;
#151 = CARTESIAN_POINT ( 'NONE',  ( 0.000000000000000000, -10.25000000000000000, 109.7500000000000000 ) ) ;
#152 = VERTEX_POINT ( 'NONE', #414 ) ;
#153 = CARTESIAN_POINT ( 'NONE',  ( 0.000000000000000000, -10.25000000000000000, 109.7500000000000000 ) ) ;
#154 = ORIENTED_EDGE ( 'NONE', *, *, #47, .F. ) ;
#155 = ADVANCED_FACE ( 'NONE', ( #37 ), #503, .T. ) ;
#156 = LINE ( 'NONE', #329, #159 ) ;
#157 = ORIENTED_EDGE ( 'NONE', *, *, #402, .F. ) ;
#158 = EDGE_LOOP ( 'NONE', ( #288, #333, #55, #298 ) ) ;
#159 = VECTOR ( 'NONE', #556, 1000.000000000000000 ) ;
#160 = DIRECTION ( 'NONE',  ( -0.000000000000000000, 1.000000000000000000, -0.000000000000000000 ) ) ;
#161 = PLANE ( 'NONE',  #212 ) ;
#162 = LINE ( 'NONE', #522, #435 ) ;
#163 = DIRECTION ( 'NONE',  ( -0.000000000000000000, 1.000000000000000000, -0.000000000000000000 ) ) ;
#164 = ORIENTED_EDGE ( 'NONE', *, *, #439, .T. ) ;
#165 = CARTESIAN_POINT ( 'NONE',  ( 15.00000000000000000, -15.00000000000000000, 135.0000000000000000 ) ) ;
#166 = DIRECTION ( 'NONE',  ( 0.000000000000000000, 1.000000000000000000, 0.000000000000000000 ) ) ;
#167 = DIRECTION ( 'NONE',  ( 0.000000000000000000, 0.000000000000000000, 1.000000000000000000 ) ) ;
#168 = DIRECTION ( 'NONE',  ( 0.000000000000000000, 0.000000000000000000, -1.000000000000000000 ) ) ;
#169 = VECTOR ( 'NONE', #7, 1000.000000000000000 ) ;
#170 = DIRECTION ( 'NONE',  ( -0.000000000000000000, -0.000000000000000000, -1.000000000000000000 ) ) ;
#171 = CARTESIAN_POINT ( 'NONE',  ( 10.25000000000000000, 0.000000000000000000, 109.7500000000000000 ) ) ;
#172 = EDGE_CURVE ( 'NONE', #64, #137, #96, .T. ) ;
#173 = CARTESIAN_POINT ( 'NONE',  ( 10.25000000000000000, 15.00000000000000000, 130.2500000000000000 ) ) ;
#174 = LINE ( 'NONE', #85, #357 ) ;
#175 = PLANE ( 'NONE',  #462 ) ;
#176 = CARTESIAN_POINT ( 'NONE',  ( -10.00000000000000000, 10.00000000000000000, -10.00000000000000000 ) ) ;
#177 = VERTEX_POINT ( 'NONE', #320 ) ;
#178 = DIRECTION ( 'NONE',  ( 0.000000000000000000, 0.000000000000000000, 1.000000000000000000 ) ) ;
#179 = PLANE ( 'NONE',  #371 ) ;
#180 = ORIENTED_EDGE ( 'NONE', *, *, #294, .F. ) ;
#181 = DIRECTION ( 'NONE',  ( -1.000000000000000000, -0.000000000000000000, -0.000000000000000000 ) ) ;
#182 = EDGE_CURVE ( 'NONE', #380, #422, #136, .T. ) ;
#183 = CARTESIAN_POINT ( 'NONE',  ( -10.00000000000000000, -10.00000000000000000, -10.00000000000000000 ) ) ;
#184 = EDGE_LOOP ( 'NONE', ( #154, #517, #3, #199 ) ) ;
#185 = DIRECTION ( 'NONE',  ( 1.000000000000000000, 0.000000000000000000, 0.000000000000000000 ) ) ;
#186 = ORIENTED_EDGE ( 'NONE', *, *, #84, .T. ) ;
#187 = DIRECTION ( 'NONE',  ( 1.000000000000000000, 0.000000000000000000, 0.000000000000000000 ) ) ;
#188 = ORIENTED_EDGE ( 'NONE', *, *, #124, .F. ) ;
#189 = ADVANCED_FACE ( 'NONE', ( #596, #141 ), #368, .F. ) ;
#190 = CARTESIAN_POINT ( 'NONE',  ( 0.000000000000000000, 0.000000000000000000, 0.000000000000000000 ) ) ;
#191 = ORIENTED_EDGE ( 'NONE', *, *, #413, .T. ) ;
#192 = LINE ( 'NONE', #5, #140 ) ;
#193 = ORIENTED_EDGE ( 'NONE', *, *, #376, .F. ) ;
#194 = VECTOR ( 'NONE', #303, 1000.000000000000000 ) ;
#195 = AXIS2_PLACEMENT_3D ( 'NONE', #216, #403, #499 ) ;
#196 = CARTESIAN_POINT ( 'NONE',  ( 15.00000000000000000, -15.00000000000000000, 0.000000000000000000 ) ) ;
#197 = EDGE_LOOP ( 'NONE', ( #415, #566, #508, #68 ) ) ;
#198 = SURFACE_STYLE_USAGE ( .BOTH. , #516 ) ;
#199 = ORIENTED_EDGE ( 'NONE', *, *, #139, .T. ) ;
#200 = VERTEX_POINT ( 'NONE', #364 ) ;
#201 = CARTESIAN_POINT ( 'NONE',  ( 0.000000000000000000, -10.25000000000000000, 130.2500000000000000 ) ) ;
#202 = LINE ( 'NONE', #385, #52 ) ;
#203 = VECTOR ( 'NONE', #356, 1000.000000000000000 ) ;
#204 = CARTESIAN_POINT ( 'NONE',  ( 10.25000000000000000, 15.00000000000000000, 109.7500000000000000 ) ) ;
#205 = DIRECTION ( 'NONE',  ( 1.000000000000000000, 0.000000000000000000, -0.000000000000000000 ) ) ;
#206 = ADVANCED_FACE ( 'NONE', ( #545 ), #179, .F. ) ;
#207 = PLANE ( 'NONE',  #43 ) ;
#208 = CARTESIAN_POINT ( 'NONE',  ( -15.00000000000000000, -10.25000000000000000, 109.7500000000000000 ) ) ;
#209 = PLANE ( 'NONE',  #396 ) ;
#210 = FACE_OUTER_BOUND ( 'NONE', #158, .T. ) ;
#211 = DIRECTION ( 'NONE',  ( -0.000000000000000000, 1.000000000000000000, -0.000000000000000000 ) ) ;
#212 = AXIS2_PLACEMENT_3D ( 'NONE', #255, #168, #394 ) ;
#213 = EDGE_CURVE ( 'NONE', #546, #331, #90, .T. ) ;
#214 = DIRECTION ( 'NONE',  ( 0.000000000000000000, 0.000000000000000000, 1.000000000000000000 ) ) ;
#215 = AXIS2_PLACEMENT_3D ( 'NONE', #291, #384, #75 ) ;
#216 = CARTESIAN_POINT ( 'NONE',  ( 0.000000000000000000, 0.000000000000000000, 0.000000000000000000 ) ) ;
#217 = CARTESIAN_POINT ( 'NONE',  ( -10.00000000000000000, 10.00000000000000000, -10.00000000000000000 ) ) ;
#218 = EDGE_CURVE ( 'NONE', #431, #64, #450, .T. ) ;
#219 = EDGE_LOOP ( 'NONE', ( #144, #449, #191, #164 ) ) ;
#220 = CARTESIAN_POINT ( 'NONE',  ( 0.000000000000000000, 0.000000000000000000, 0.000000000000000000 ) ) ;
#221 = ORIENTED_EDGE ( 'NONE', *, *, #580, .T. ) ;
#222 = LINE ( 'NONE', #306, #282 ) ;
#223 = CARTESIAN_POINT ( 'NONE',  ( -10.25000000000000000, 15.00000000000000000, 109.7500000000000000 ) ) ;
#224 = ORIENTED_EDGE ( 'NONE', *, *, #108, .T. ) ;
#225 = STYLED_ITEM ( 'NONE', ( #146 ), #339 ) ;
#226 = ADVANCED_FACE ( 'NONE', ( #35 ), #274, .T. ) ;
#227 = LINE ( 'NONE', #44, #14 ) ;
#228 = DIRECTION ( 'NONE',  ( -0.000000000000000000, -1.000000000000000000, -0.000000000000000000 ) ) ;
#229 = VERTEX_POINT ( 'NONE', #358 ) ;
#230 = PRODUCT_CONTEXT ( 'NONE', #504, 'mechanical' ) ;
#231 = FACE_OUTER_BOUND ( 'NONE', #104, .T. ) ;
#232 = ORIENTED_EDGE ( 'NONE', *, *, #487, .T. ) ;
#233 = CARTESIAN_POINT ( 'NONE',  ( -10.25000000000000000, 0.000000000000000000, 109.7500000000000000 ) ) ;
#234 = EDGE_CURVE ( 'NONE', #264, #498, #174, .T. ) ;
#235 = EDGE_LOOP ( 'NONE', ( #147, #193, #135, #554 ) ) ;
#236 = DIRECTION ( 'NONE',  ( 0.000000000000000000, 0.000000000000000000, -1.000000000000000000 ) ) ;
#237 = VERTEX_POINT ( 'NONE', #223 ) ;
#238 = ORIENTED_EDGE ( 'NONE', *, *, #213, .F. ) ;
#239 = FILL_AREA_STYLE ('',( #374 ) ) ;
#240 = VERTEX_POINT ( 'NONE', #48 ) ;
#241 = ORIENTED_EDGE ( 'NONE', *, *, #355, .F. ) ;
#242 = AXIS2_PLACEMENT_3D ( 'NONE', #105, #467, #62 ) ;
#243 = EDGE_CURVE ( 'NONE', #64, #240, #542, .T. ) ;
#244 = LINE ( 'NONE', #279, #378 ) ;
#245 = VERTEX_POINT ( 'NONE', #45 ) ;
#246 = ORIENTED_EDGE ( 'NONE', *, *, #591, .F. ) ;
#247 = CARTESIAN_POINT ( 'NONE',  ( -15.00000000000000000, -15.00000000000000000, 135.0000000000000000 ) ) ;
#248 = ORIENTED_EDGE ( 'NONE', *, *, #322, .F. ) ;
#249 = FACE_BOUND ( 'NONE', #317, .T. ) ;
#250 = FACE_OUTER_BOUND ( 'NONE', #219, .T. ) ;
#251 = ADVANCED_FACE ( 'NONE', ( #231 ), #537, .F. ) ;
#252 = VECTOR ( 'NONE', #448, 1000.000000000000000 ) ;
#253 = VECTOR ( 'NONE', #284, 1000.000000000000000 ) ;
#254 = CARTESIAN_POINT ( 'NONE',  ( -15.00000000000000000, 10.25000000000000000, 130.2500000000000000 ) ) ;
#255 = CARTESIAN_POINT ( 'NONE',  ( 0.000000000000000000, 0.000000000000000000, 135.0000000000000000 ) ) ;
#256 = PRODUCT_RELATED_PRODUCT_CATEGORY ( 'part', '', ( #578 ) ) ;
#257 = CARTESIAN_POINT ( 'NONE',  ( 15.00000000000000000, -15.00000000000000000, 135.0000000000000000 ) ) ;
#258 = LINE ( 'NONE', #527, #289 ) ;
#259 = EDGE_CURVE ( 'NONE', #331, #95, #423, .T. ) ;
#260 = CARTESIAN_POINT ( 'NONE',  ( 15.00000000000000000, 15.00000000000000000, 135.0000000000000000 ) ) ;
#261 = DIRECTION ( 'NONE',  ( 1.000000000000000000, 0.000000000000000000, 0.000000000000000000 ) ) ;
#262 = DIRECTION ( 'NONE',  ( 0.000000000000000000, 1.000000000000000000, 0.000000000000000000 ) ) ;
#263 = DIRECTION ( 'NONE',  ( 0.000000000000000000, 0.000000000000000000, 1.000000000000000000 ) ) ;
#264 = VERTEX_POINT ( 'NONE', #196 ) ;
#265 = DIRECTION ( 'NONE',  ( 1.000000000000000000, 0.000000000000000000, 0.000000000000000000 ) ) ;
#266 = DIRECTION ( 'NONE',  ( -1.000000000000000000, 0.000000000000000000, 0.000000000000000000 ) ) ;
#267 = ORIENTED_EDGE ( 'NONE', *, *, #487, .F. ) ;
#268 = EDGE_CURVE ( 'NONE', #380, #177, #325, .T. ) ;
#269 = DIRECTION ( 'NONE',  ( 0.000000000000000000, 0.000000000000000000, -1.000000000000000000 ) ) ;
#270 = DIRECTION ( 'NONE',  ( 0.000000000000000000, -1.000000000000000000, 0.000000000000000000 ) ) ;
#271 = ORIENTED_EDGE ( 'NONE', *, *, #182, .F. ) ;
#272 = VECTOR ( 'NONE', #181, 1000.000000000000000 ) ;
#273 = CARTESIAN_POINT ( 'NONE',  ( -15.00000000000000000, 15.00000000000000000, 0.000000000000000000 ) ) ;
#274 = PLANE ( 'NONE',  #552 ) ;
#275 = ORIENTED_EDGE ( 'NONE', *, *, #427, .T. ) ;
#276 = EDGE_CURVE ( 'NONE', #245, #431, #156, .T. ) ;
#277 = DIRECTION ( 'NONE',  ( 0.000000000000000000, -1.000000000000000000, 0.000000000000000000 ) ) ;
#278 = ORIENTED_EDGE ( 'NONE', *, *, #350, .T. ) ;
#279 = CARTESIAN_POINT ( 'NONE',  ( -15.00000000000000000, -15.00000000000000000, 0.000000000000000000 ) ) ;
#280 = ORIENTED_EDGE ( 'NONE', *, *, #276, .F. ) ;
#281 = VECTOR ( 'NONE', #307, 1000.000000000000000 ) ;
#282 = VECTOR ( 'NONE', #595, 1000.000000000000000 ) ;
#283 = ORIENTED_EDGE ( 'NONE', *, *, #523, .F. ) ;
#284 = DIRECTION ( 'NONE',  ( 0.000000000000000000, 0.000000000000000000, -1.000000000000000000 ) ) ;
#285 = ORIENTED_EDGE ( 'NONE', *, *, #337, .T. ) ;
#286 = ADVANCED_FACE ( 'NONE', ( #559 ), #54, .F. ) ;
#287 = ORIENTED_EDGE ( 'NONE', *, *, #268, .T. ) ;
#288 = ORIENTED_EDGE ( 'NONE', *, *, #84, .F. ) ;
#289 = VECTOR ( 'NONE', #575, 1000.000000000000000 ) ;
#290 = VECTOR ( 'NONE', #485, 1000.000000000000000 ) ;
#291 = CARTESIAN_POINT ( 'NONE',  ( -15.00000000000000000, -15.00000000000000000, 135.0000000000000000 ) ) ;
#292 = VERTEX_POINT ( 'NONE', #426 ) ;
#293 = DIRECTION ( 'NONE',  ( 0.000000000000000000, -0.000000000000000000, -1.000000000000000000 ) ) ;
#294 = EDGE_CURVE ( 'NONE', #229, #538, #465, .T. ) ;
#295 = LINE ( 'NONE', #28, #539 ) ;
#296 = FACE_OUTER_BOUND ( 'NONE', #505, .T. ) ;
#297 = DIRECTION ( 'NONE',  ( 0.000000000000000000, 0.000000000000000000, -1.000000000000000000 ) ) ;
#298 = ORIENTED_EDGE ( 'NONE', *, *, #22, .T. ) ;
#299 = VECTOR ( 'NONE', #569, 1000.000000000000000 ) ;
#300 = CARTESIAN_POINT ( 'NONE',  ( -15.00000000000000000, -10.25000000000000000, 109.7500000000000000 ) ) ;
#301 = CARTESIAN_POINT ( 'NONE',  ( 15.00000000000000000, 15.00000000000000000, 135.0000000000000000 ) ) ;
#302 = FACE_OUTER_BOUND ( 'NONE', #142, .T. ) ;
#303 = DIRECTION ( 'NONE',  ( 1.000000000000000000, 0.000000000000000000, 0.000000000000000000 ) ) ;
#304 = DIRECTION ( 'NONE',  ( -1.000000000000000000, 0.000000000000000000, -0.000000000000000000 ) ) ;
#305 = CARTESIAN_POINT ( 'NONE',  ( 10.00000000000000000, 10.00000000000000000, -10.00000000000000000 ) ) ;
#306 = CARTESIAN_POINT ( 'NONE',  ( -10.25000000000000000, 0.000000000000000000, 109.7500000000000000 ) ) ;
#307 = DIRECTION ( 'NONE',  ( 0.000000000000000000, 0.000000000000000000, 1.000000000000000000 ) ) ;
#308 = ORIENTED_EDGE ( 'NONE', *, *, #532, .F. ) ;
#309 = EDGE_CURVE ( 'NONE', #525, #177, #244, .T. ) ;
#310 = DIRECTION ( 'NONE',  ( 0.000000000000000000, -0.000000000000000000, 1.000000000000000000 ) ) ;
#311 = ORIENTED_EDGE ( 'NONE', *, *, #218, .F. ) ;
#312 = LINE ( 'NONE', #491, #272 ) ;
#313 = CARTESIAN_POINT ( 'NONE',  ( -10.00000000000000000, -10.00000000000000000, -10.00000000000000000 ) ) ;
#314 = ORIENTED_EDGE ( 'NONE', *, *, #393, .T. ) ;
#315 = CARTESIAN_POINT ( 'NONE',  ( 10.25000000000000000, 0.000000000000000000, 130.2500000000000000 ) ) ;
#316 = DIRECTION ( 'NONE',  ( 0.000000000000000000, 0.000000000000000000, 1.000000000000000000 ) ) ;
#317 = EDGE_LOOP ( 'NONE', ( #425, #10, #335, #188 ) ) ;
#318 =( GEOMETRIC_REPRESENTATION_CONTEXT ( 3 ) GLOBAL_UNCERTAINTY_ASSIGNED_CONTEXT ( ( #470 ) ) GLOBAL_UNIT_ASSIGNED_CONTEXT ( ( #102, #56, #471 ) ) REPRESENTATION_CONTEXT ( 'NONE', 'WORKASPACE' ) );
#319 = EDGE_CURVE ( 'NONE', #245, #111, #381, .T. ) ;
#320 = CARTESIAN_POINT ( 'NONE',  ( -15.00000000000000000, -15.00000000000000000, 0.000000000000000000 ) ) ;
#321 = ORIENTED_EDGE ( 'NONE', *, *, #523, .T. ) ;
#322 = EDGE_CURVE ( 'NONE', #521, #292, #513, .T. ) ;
#323 = CARTESIAN_POINT ( 'NONE',  ( 0.000000000000000000, 10.25000000000000000, 109.7500000000000000 ) ) ;
#324 = ORIENTED_EDGE ( 'NONE', *, *, #67, .F. ) ;
#325 = LINE ( 'NONE', #143, #529 ) ;
#326 = ORIENTED_EDGE ( 'NONE', *, *, #172, .F. ) ;
#327 = AXIS2_PLACEMENT_3D ( 'NONE', #220, #361, #404 ) ;
#328 = VECTOR ( 'NONE', #410, 1000.000000000000000 ) ;
#329 = CARTESIAN_POINT ( 'NONE',  ( 10.00000000000000000, -10.00000000000000000, -10.00000000000000000 ) ) ;
#330 = EDGE_CURVE ( 'NONE', #200, #380, #17, .T. ) ;
#331 = VERTEX_POINT ( 'NONE', #153 ) ;
#332 = SURFACE_STYLE_FILL_AREA ( #239 ) ;
#333 = ORIENTED_EDGE ( 'NONE', *, *, #319, .F. ) ;
#334 = DIRECTION ( 'NONE',  ( -0.000000000000000000, -1.000000000000000000, -0.000000000000000000 ) ) ;
#335 = ORIENTED_EDGE ( 'NONE', *, *, #103, .F. ) ;
#336 = VECTOR ( 'NONE', #166, 1000.000000000000000 ) ;
#337 = EDGE_CURVE ( 'NONE', #408, #546, #50, .T. ) ;
#338 = ORIENTED_EDGE ( 'NONE', *, *, #139, .F. ) ;
#339 = MANIFOLD_SOLID_BREP ( 'Cut-Extrude3', #138 ) ;
#340 = CARTESIAN_POINT ( 'NONE',  ( 15.00000000000000000, 15.00000000000000000, 0.000000000000000000 ) ) ;
#341 = LINE ( 'NONE', #120, #81 ) ;
#342 = DIRECTION ( 'NONE',  ( -1.000000000000000000, -0.000000000000000000, -0.000000000000000000 ) ) ;
#343 = FACE_BOUND ( 'NONE', #107, .T. ) ;
#344 = ORIENTED_EDGE ( 'NONE', *, *, #439, .F. ) ;
#345 = CARTESIAN_POINT ( 'NONE',  ( -15.00000000000000000, 15.00000000000000000, 135.0000000000000000 ) ) ;
#346 = CARTESIAN_POINT ( 'NONE',  ( -10.00000000000000000, -10.00000000000000000, 0.000000000000000000 ) ) ;
#347 = VECTOR ( 'NONE', #40, 1000.000000000000000 ) ;
#348 = CARTESIAN_POINT ( 'NONE',  ( -10.24999999999999822, 10.25000000000000000, 130.2500000000000000 ) ) ;
#349 = DIRECTION ( 'NONE',  ( 0.000000000000000000, -1.000000000000000000, 0.000000000000000000 ) ) ;
#350 = EDGE_CURVE ( 'NONE', #16, #112, #421, .T. ) ;
#351 = DIRECTION ( 'NONE',  ( 1.000000000000000000, 0.000000000000000000, 0.000000000000000000 ) ) ;
#352 = DIRECTION ( 'NONE',  ( -1.000000000000000000, 0.000000000000000000, 0.000000000000000000 ) ) ;
#353 = PLANE ( 'NONE',  #452 ) ;
#354 = CARTESIAN_POINT ( 'NONE',  ( -10.00000000000000000, 10.00000000000000000, -10.00000000000000000 ) ) ;
#355 = EDGE_CURVE ( 'NONE', #137, #245, #192, .T. ) ;
#356 = DIRECTION ( 'NONE',  ( 0.000000000000000000, -1.000000000000000000, 0.000000000000000000 ) ) ;
#357 = VECTOR ( 'NONE', #128, 1000.000000000000000 ) ;
#358 = CARTESIAN_POINT ( 'NONE',  ( -10.25000000000000000, 15.00000000000000000, 130.2500000000000000 ) ) ;
#359 = ORIENTED_EDGE ( 'NONE', *, *, #108, .F. ) ;
#360 = FACE_OUTER_BOUND ( 'NONE', #184, .T. ) ;
#361 = DIRECTION ( 'NONE',  ( -1.000000000000000000, 0.000000000000000000, 0.000000000000000000 ) ) ;
#362 = ORIENTED_EDGE ( 'NONE', *, *, #393, .F. ) ;
#363 = CARTESIAN_POINT ( 'NONE',  ( -15.00000000000000000, -15.00000000000000000, 0.000000000000000000 ) ) ;
#364 = CARTESIAN_POINT ( 'NONE',  ( -15.00000000000000000, 15.00000000000000000, 135.0000000000000000 ) ) ;
#365 = ADVANCED_FACE ( 'NONE', ( #372 ), #561, .T. ) ;
#366 = EDGE_LOOP ( 'NONE', ( #326, #311, #280, #241 ) ) ;
#367 =( LENGTH_UNIT ( ) NAMED_UNIT ( * ) SI_UNIT ( .MILLI., .METRE. ) );
#368 = PLANE ( 'NONE',  #148 ) ;
#369 =( GEOMETRIC_REPRESENTATION_CONTEXT ( 3 ) GLOBAL_UNCERTAINTY_ASSIGNED_CONTEXT ( ( #412 ) ) GLOBAL_UNIT_ASSIGNED_CONTEXT ( ( #367, #447, #409 ) ) REPRESENTATION_CONTEXT ( 'NONE', 'WORKASPACE' ) );
#370 = ORIENTED_EDGE ( 'NONE', *, *, #506, .T. ) ;
#371 = AXIS2_PLACEMENT_3D ( 'NONE', #585, #266, #316 ) ;
#372 = FACE_OUTER_BOUND ( 'NONE', #366, .T. ) ;
#373 = ORIENTED_EDGE ( 'NONE', *, *, #77, .T. ) ;
#374 = FILL_AREA_STYLE_COLOUR ( '', #490 ) ;
#375 = EDGE_LOOP ( 'NONE', ( #567, #285, #38, #97 ) ) ;
#376 = EDGE_CURVE ( 'NONE', #498, #525, #71, .T. ) ;
#377 = ORIENTED_EDGE ( 'NONE', *, *, #413, .F. ) ;
#378 = VECTOR ( 'NONE', #334, 1000.000000000000000 ) ;
#379 = CARTESIAN_POINT ( 'NONE',  ( 10.25000000000000000, 0.000000000000000000, 130.2500000000000000 ) ) ;
#380 = VERTEX_POINT ( 'NONE', #247 ) ;
#381 = LINE ( 'NONE', #461, #92 ) ;
#382 = ORIENTED_EDGE ( 'NONE', *, *, #47, .T. ) ;
#383 = EDGE_CURVE ( 'NONE', #95, #408, #530, .T. ) ;
#384 = DIRECTION ( 'NONE',  ( 1.000000000000000000, 0.000000000000000000, 0.000000000000000000 ) ) ;
#385 = CARTESIAN_POINT ( 'NONE',  ( -10.00000000000000000, -10.00000000000000000, 0.000000000000000000 ) ) ;
#386 = AXIS2_PLACEMENT_3D ( 'NONE', #79, #261, #297 ) ;
#387 = VECTOR ( 'NONE', #440, 1000.000000000000000 ) ;
#388 = CARTESIAN_POINT ( 'NONE',  ( -15.00000000000000000, -10.25000000000000000, 130.2500000000000000 ) ) ;
#389 = LINE ( 'NONE', #80, #528 ) ;
#390 = DIRECTION ( 'NONE',  ( 0.000000000000000000, 1.000000000000000000, 0.000000000000000000 ) ) ;
#391 = LINE ( 'NONE', #577, #336 ) ;
#392 = DIRECTION ( 'NONE',  ( -1.000000000000000000, -0.000000000000000000, -0.000000000000000000 ) ) ;
#393 = EDGE_CURVE ( 'NONE', #19, #498, #29, .T. ) ;
#394 = DIRECTION ( 'NONE',  ( -1.000000000000000000, 0.000000000000000000, -0.000000000000000000 ) ) ;
#395 = AXIS2_PLACEMENT_3D ( 'NONE', #477, #214, #205 ) ;
#396 = AXIS2_PLACEMENT_3D ( 'NONE', #579, #351, #119 ) ;
#397 = LINE ( 'NONE', #300, #130 ) ;
#398 = DIRECTION ( 'NONE',  ( 0.000000000000000000, 0.000000000000000000, 1.000000000000000000 ) ) ;
#399 = SHAPE_DEFINITION_REPRESENTATION ( #23, #509 ) ;
#400 = LINE ( 'NONE', #457, #281 ) ;
#401 = ORIENTED_EDGE ( 'NONE', *, *, #121, .F. ) ;
#402 = EDGE_CURVE ( 'NONE', #292, #464, #582, .T. ) ;
#403 = DIRECTION ( 'NONE',  ( 0.000000000000000000, 0.000000000000000000, 1.000000000000000000 ) ) ;
#404 = DIRECTION ( 'NONE',  ( 0.000000000000000000, 0.000000000000000000, 1.000000000000000000 ) ) ;
#405 = ORIENTED_EDGE ( 'NONE', *, *, #350, .F. ) ;
#406 = VECTOR ( 'NONE', #170, 1000.000000000000000 ) ;
#407 = LINE ( 'NONE', #87, #252 ) ;
#408 = VERTEX_POINT ( 'NONE', #482 ) ;
#409 =( NAMED_UNIT ( * ) SI_UNIT ( $, .STERADIAN. ) SOLID_ANGLE_UNIT ( ) );
#410 = DIRECTION ( 'NONE',  ( -1.000000000000000000, -0.000000000000000000, -0.000000000000000000 ) ) ;
#411 = ORIENTED_EDGE ( 'NONE', *, *, #150, .T. ) ;
#412 = UNCERTAINTY_MEASURE_WITH_UNIT (LENGTH_MEASURE( 1.000000000000000082E-05 ), #367, 'distance_accuracy_value', 'NONE');
#413 = EDGE_CURVE ( 'NONE', #422, #19, #122, .T. ) ;
#414 = CARTESIAN_POINT ( 'NONE',  ( -10.25000000000000000, 10.25000000000000000, 130.2500000000000000 ) ) ;
#415 = ORIENTED_EDGE ( 'NONE', *, *, #309, .T. ) ;
#416 = VECTOR ( 'NONE', #211, 1000.000000000000000 ) ;
#417 = ORIENTED_EDGE ( 'NONE', *, *, #121, .T. ) ;
#418 = CARTESIAN_POINT ( 'NONE',  ( -10.25000000000000000, 15.00000000000000000, 130.2500000000000000 ) ) ;
#419 = ORIENTED_EDGE ( 'NONE', *, *, #218, .T. ) ;
#420 = EDGE_CURVE ( 'NONE', #46, #429, #397, .T. ) ;
#421 = LINE ( 'NONE', #323, #540 ) ;
#422 = VERTEX_POINT ( 'NONE', #20 ) ;
#423 = LINE ( 'NONE', #151, #572 ) ;
#424 = ORIENTED_EDGE ( 'NONE', *, *, #22, .F. ) ;
#425 = ORIENTED_EDGE ( 'NONE', *, *, #420, .F. ) ;
#426 = CARTESIAN_POINT ( 'NONE',  ( 10.25000000000000000, 0.000000000000000000, 109.7500000000000000 ) ) ;
#427 = EDGE_CURVE ( 'NONE', #422, #264, #576, .T. ) ;
#428 = VERTEX_POINT ( 'NONE', #254 ) ;
#429 = VERTEX_POINT ( 'NONE', #388 ) ;
#430 = LINE ( 'NONE', #345, #101 ) ;
#431 = VERTEX_POINT ( 'NONE', #24 ) ;
#432 = CARTESIAN_POINT ( 'NONE',  ( 10.25000000000000000, 15.00000000000000000, 109.7500000000000000 ) ) ;
#433 = CARTESIAN_POINT ( 'NONE',  ( -10.00000000000000000, -10.00000000000000000, -10.00000000000000000 ) ) ;
#434 = VECTOR ( 'NONE', #352, 1000.000000000000000 ) ;
#435 = VECTOR ( 'NONE', #160, 1000.000000000000000 ) ;
#436 = EDGE_LOOP ( 'NONE', ( #238, #401, #21, #370, #283, #278, #49, #514 ) ) ;
#437 = FACE_OUTER_BOUND ( 'NONE', #197, .T. ) ;
#438 = CARTESIAN_POINT ( 'NONE',  ( -15.00000000000000000, 15.00000000000000000, 135.0000000000000000 ) ) ;
#439 = EDGE_CURVE ( 'NONE', #19, #200, #430, .T. ) ;
#440 = DIRECTION ( 'NONE',  ( -0.000000000000000000, -0.000000000000000000, -1.000000000000000000 ) ) ;
#441 = PLANE ( 'NONE',  #386 ) ;
#442 = DIRECTION ( 'NONE',  ( 0.000000000000000000, 1.000000000000000000, 0.000000000000000000 ) ) ;
#443 = CARTESIAN_POINT ( 'NONE',  ( -10.00000000000000000, -10.00000000000000000, 0.000000000000000000 ) ) ;
#444 = VECTOR ( 'NONE', #574, 1000.000000000000000 ) ;
#445 = ADVANCED_FACE ( 'NONE', ( #302 ), #209, .F. ) ;
#446 = DIRECTION ( 'NONE',  ( 0.000000000000000000, -0.000000000000000000, -1.000000000000000000 ) ) ;
#447 =( NAMED_UNIT ( * ) PLANE_ANGLE_UNIT ( ) SI_UNIT ( $, .RADIAN. ) );
#448 = DIRECTION ( 'NONE',  ( 0.000000000000000000, 0.000000000000000000, -1.000000000000000000 ) ) ;
#449 = ORIENTED_EDGE ( 'NONE', *, *, #182, .T. ) ;
#450 = LINE ( 'NONE', #176, #328 ) ;
#451 = EDGE_LOOP ( 'NONE', ( #308, #424, #419, #493 ) ) ;
#452 = AXIS2_PLACEMENT_3D ( 'NONE', #496, #456, #178 ) ;
#453 = DIRECTION ( 'NONE',  ( 0.000000000000000000, 1.000000000000000000, 0.000000000000000000 ) ) ;
#454 = ORIENTED_EDGE ( 'NONE', *, *, #463, .T. ) ;
#455 = ADVANCED_FACE ( 'NONE', ( #249, #437 ), #533, .F. ) ;
#456 = DIRECTION ( 'NONE',  ( -1.000000000000000000, 0.000000000000000000, 0.000000000000000000 ) ) ;
#457 = CARTESIAN_POINT ( 'NONE',  ( -10.00000000000000000, -10.00000000000000000, -10.00000000000000000 ) ) ;
#458 = ORIENTED_EDGE ( 'NONE', *, *, #319, .T. ) ;
#459 = CARTESIAN_POINT ( 'NONE',  ( -15.00000000000000000, -15.00000000000000000, 135.0000000000000000 ) ) ;
#460 = ORIENTED_EDGE ( 'NONE', *, *, #77, .F. ) ;
#461 = CARTESIAN_POINT ( 'NONE',  ( 10.00000000000000000, -10.00000000000000000, -10.00000000000000000 ) ) ;
#462 = AXIS2_PLACEMENT_3D ( 'NONE', #89, #269, #304 ) ;
#463 = EDGE_CURVE ( 'NONE', #16, #152, #116, .T. ) ;
#464 = VERTEX_POINT ( 'NONE', #432 ) ;
#465 = LINE ( 'NONE', #418, #82 ) ;
#466 = ORIENTED_EDGE ( 'NONE', *, *, #11, .T. ) ;
#467 = DIRECTION ( 'NONE',  ( 0.000000000000000000, 0.000000000000000000, -1.000000000000000000 ) ) ;
#468 = EDGE_LOOP ( 'NONE', ( #180, #324, #133, #129 ) ) ;
#469 = ADVANCED_FACE ( 'NONE', ( #78 ), #474, .F. ) ;
#470 = UNCERTAINTY_MEASURE_WITH_UNIT (LENGTH_MEASURE( 1.000000000000000082E-05 ), #102, 'distance_accuracy_value', 'NONE');
#471 =( NAMED_UNIT ( * ) SI_UNIT ( $, .STERADIAN. ) SOLID_ANGLE_UNIT ( ) );
#472 = ORIENTED_EDGE ( 'NONE', *, *, #591, .T. ) ;
#473 = VECTOR ( 'NONE', #236, 1000.000000000000000 ) ;
#474 = PLANE ( 'NONE',  #481 ) ;
#475 = ORIENTED_EDGE ( 'NONE', *, *, #383, .F. ) ;
#476 = CARTESIAN_POINT ( 'NONE',  ( 0.000000000000000000, -10.25000000000000000, 130.2500000000000000 ) ) ;
#477 = CARTESIAN_POINT ( 'NONE',  ( 0.000000000000000000, -10.25000000000000000, 130.2500000000000000 ) ) ;
#478 = CARTESIAN_POINT ( 'NONE',  ( 0.000000000000000000, 0.000000000000000000, 0.000000000000000000 ) ) ;
#479 = DIRECTION ( 'NONE',  ( 0.000000000000000000, 0.000000000000000000, -1.000000000000000000 ) ) ;
#480 = EDGE_CURVE ( 'NONE', #95, #429, #66, .T. ) ;
#481 = AXIS2_PLACEMENT_3D ( 'NONE', #27, #526, #293 ) ;
#482 = CARTESIAN_POINT ( 'NONE',  ( 0.000000000000000000, 0.000000000000000000, 130.2500000000000000 ) ) ;
#483 = CARTESIAN_POINT ( 'NONE',  ( 10.00000000000000000, -10.00000000000000000, 0.000000000000000000 ) ) ;
#484 = APPLICATION_CONTEXT ( 'automotive_design' ) ;
#485 = DIRECTION ( 'NONE',  ( 0.000000000000000000, 0.000000000000000000, 1.000000000000000000 ) ) ;
#486 = CARTESIAN_POINT ( 'NONE',  ( 0.000000000000000000, -10.25000000000000000, 130.2500000000000000 ) ) ;
#487 = EDGE_CURVE ( 'NONE', #152, #229, #162, .T. ) ;
#488 = FACE_OUTER_BOUND ( 'NONE', #436, .T. ) ;
#489 = PLANE ( 'NONE',  #395 ) ;
#490 = COLOUR_RGB ( '',0.7921568627450980005, 0.8196078431372548767, 0.9333333333333333481 ) ;
#491 = CARTESIAN_POINT ( 'NONE',  ( -10.00000000000000000, 10.00000000000000000, 0.000000000000000000 ) ) ;
#492 = CARTESIAN_POINT ( 'NONE',  ( 0.000000000000000000, 10.25000000000000000, 130.2500000000000000 ) ) ;
#493 = ORIENTED_EDGE ( 'NONE', *, *, #243, .T. ) ;
#494 = PLANE ( 'NONE',  #551 ) ;
#495 = EDGE_LOOP ( 'NONE', ( #557, #362, #377, #275 ) ) ;
#496 = CARTESIAN_POINT ( 'NONE',  ( -10.00000000000000000, -10.00000000000000000, -10.00000000000000000 ) ) ;
#497 = CARTESIAN_POINT ( 'NONE',  ( -15.00000000000000000, -15.00000000000000000, 135.0000000000000000 ) ) ;
#498 = VERTEX_POINT ( 'NONE', #340 ) ;
#499 = DIRECTION ( 'NONE',  ( 1.000000000000000000, 0.000000000000000000, 0.000000000000000000 ) ) ;
#500 = PRESENTATION_LAYER_ASSIGNMENT (  '', '', ( #225 ) ) ;
#501 = FACE_OUTER_BOUND ( 'NONE', #61, .T. ) ;
#502 = ORIENTED_EDGE ( 'NONE', *, *, #376, .T. ) ;
#503 = PLANE ( 'NONE',  #327 ) ;
#504 = APPLICATION_CONTEXT ( 'automotive_design' ) ;
#505 = EDGE_LOOP ( 'NONE', ( #472, #106, #417, #42 ) ) ;
#506 = EDGE_CURVE ( 'NONE', #464, #237, #114, .T. ) ;
#507 = DIRECTION ( 'NONE',  ( 0.000000000000000000, 0.000000000000000000, 1.000000000000000000 ) ) ;
#508 = ORIENTED_EDGE ( 'NONE', *, *, #330, .F. ) ;
#509 = ADVANCED_BREP_SHAPE_REPRESENTATION ( 'CNC_Cage_Post_Upper_UL', ( #339, #195 ), #369 ) ;
#510 = AXIS2_PLACEMENT_3D ( 'NONE', #492, #132, #310 ) ;
#511 = ORIENTED_EDGE ( 'NONE', *, *, #67, .T. ) ;
#512 = PLANE ( 'NONE',  #550 ) ;
#513 = LINE ( 'NONE', #379, #473 ) ;
#514 = ORIENTED_EDGE ( 'NONE', *, *, #11, .F. ) ;
#515 = ADVANCED_FACE ( 'NONE', ( #296 ), #207, .T. ) ;
#516 = SURFACE_SIDE_STYLE ('',( #332 ) ) ;
#517 = ORIENTED_EDGE ( 'NONE', *, *, #243, .F. ) ;
#518 = PRODUCT_DEFINITION_FORMATION_WITH_SPECIFIED_SOURCE ( 'Symmetric', '', #578, .NOT_KNOWN. ) ;
#519 = DIRECTION ( 'NONE',  ( 0.000000000000000000, 1.000000000000000000, 0.000000000000000000 ) ) ;
#520 = DIRECTION ( 'NONE',  ( -1.000000000000000000, -0.000000000000000000, -0.000000000000000000 ) ) ;
#521 = VERTEX_POINT ( 'NONE', #315 ) ;
#522 = CARTESIAN_POINT ( 'NONE',  ( -10.25000000000000000, 0.000000000000000000, 130.2500000000000000 ) ) ;
#523 = EDGE_CURVE ( 'NONE', #16, #237, #222, .T. ) ;
#524 = PLANE ( 'NONE',  #109 ) ;
#525 = VERTEX_POINT ( 'NONE', #273 ) ;
#526 = DIRECTION ( 'NONE',  ( 0.000000000000000000, -1.000000000000000000, 0.000000000000000000 ) ) ;
#527 = CARTESIAN_POINT ( 'NONE',  ( -15.00000000000000000, 10.25000000000000000, 130.2500000000000000 ) ) ;
#528 = VECTOR ( 'NONE', #123, 1000.000000000000000 ) ;
#529 = VECTOR ( 'NONE', #564, 1000.000000000000000 ) ;
#530 = LINE ( 'NONE', #476, #4 ) ;
#531 = FACE_OUTER_BOUND ( 'NONE', #15, .T. ) ;
#532 = EDGE_CURVE ( 'NONE', #543, #240, #312, .T. ) ;
#533 = PLANE ( 'NONE',  #215 ) ;
#534 = LINE ( 'NONE', #125, #589 ) ;
#535 = PRODUCT_DEFINITION ( 'General', '', #518, #558 ) ;
#536 = CARTESIAN_POINT ( 'NONE',  ( -15.00000000000000000, 10.25000000000000000, 109.7500000000000000 ) ) ;
#537 = PLANE ( 'NONE',  #510 ) ;
#538 = VERTEX_POINT ( 'NONE', #173 ) ;
#539 = VECTOR ( 'NONE', #520, 1000.000000000000000 ) ;
#540 = VECTOR ( 'NONE', #9, 1000.000000000000000 ) ;
#541 = CARTESIAN_POINT ( 'NONE',  ( 10.00000000000000000, 10.00000000000000000, 0.000000000000000000 ) ) ;
#542 = LINE ( 'NONE', #354, #53 ) ;
#543 = VERTEX_POINT ( 'NONE', #541 ) ;
#544 = ADVANCED_FACE ( 'NONE', ( #360 ), #353, .T. ) ;
#545 = FACE_OUTER_BOUND ( 'NONE', #495, .T. ) ;
#546 = VERTEX_POINT ( 'NONE', #83 ) ;
#547 = DIRECTION ( 'NONE',  ( 0.000000000000000000, -0.000000000000000000, 1.000000000000000000 ) ) ;
#548 = DIRECTION ( 'NONE',  ( -1.000000000000000000, 0.000000000000000000, -0.000000000000000000 ) ) ;
#549 = ORIENTED_EDGE ( 'NONE', *, *, #124, .T. ) ;
#550 = AXIS2_PLACEMENT_3D ( 'NONE', #433, #349, #446 ) ;
#551 = AXIS2_PLACEMENT_3D ( 'NONE', #497, #94, #1 ) ;
#552 = AXIS2_PLACEMENT_3D ( 'NONE', #217, #453, #41 ) ;
#553 = CARTESIAN_POINT ( 'NONE',  ( -15.00000000000000000, -15.00000000000000000, 135.0000000000000000 ) ) ;
#554 = ORIENTED_EDGE ( 'NONE', *, *, #580, .F. ) ;
#555 = EDGE_CURVE ( 'NONE', #152, #428, #227, .T. ) ;
#556 = DIRECTION ( 'NONE',  ( 0.000000000000000000, 1.000000000000000000, 0.000000000000000000 ) ) ;
#557 = ORIENTED_EDGE ( 'NONE', *, *, #234, .T. ) ;
#558 = PRODUCT_DEFINITION_CONTEXT ( 'detailed design', #484, 'design' ) ;
#559 = FACE_OUTER_BOUND ( 'NONE', #18, .T. ) ;
#560 = ORIENTED_EDGE ( 'NONE', *, *, #480, .F. ) ;
#561 = PLANE ( 'NONE',  #242 ) ;
#562 = VECTOR ( 'NONE', #265, 1000.000000000000000 ) ;
#563 = FACE_OUTER_BOUND ( 'NONE', #91, .T. ) ;
#564 = DIRECTION ( 'NONE',  ( -0.000000000000000000, -0.000000000000000000, -1.000000000000000000 ) ) ;
#565 = ADVANCED_FACE ( 'NONE', ( #488 ), #175, .F. ) ;
#566 = ORIENTED_EDGE ( 'NONE', *, *, #268, .F. ) ;
#567 = ORIENTED_EDGE ( 'NONE', *, *, #383, .T. ) ;
#568 = ORIENTED_EDGE ( 'NONE', *, *, #355, .T. ) ;
#569 = DIRECTION ( 'NONE',  ( -1.000000000000000000, -0.000000000000000000, -0.000000000000000000 ) ) ;
#570 = VECTOR ( 'NONE', #398, 1000.000000000000000 ) ;
#571 = LINE ( 'NONE', #443, #194 ) ;
#572 = VECTOR ( 'NONE', #507, 1000.000000000000000 ) ;
#573 = EDGE_CURVE ( 'NONE', #112, #46, #93, .T. ) ;
#574 = DIRECTION ( 'NONE',  ( -1.000000000000000000, 0.000000000000000000, 0.000000000000000000 ) ) ;
#575 = DIRECTION ( 'NONE',  ( 0.000000000000000000, 0.000000000000000000, -1.000000000000000000 ) ) ;
#576 = LINE ( 'NONE', #165, #406 ) ;
#577 = CARTESIAN_POINT ( 'NONE',  ( 10.00000000000000000, -10.00000000000000000, 0.000000000000000000 ) ) ;
#578 = PRODUCT ( 'CNC_Cage_Post_Upper_UL', 'CNC_Cage_Post_Upper_UL', '', ( #230 ) ) ;
#579 = CARTESIAN_POINT ( 'NONE',  ( 10.25000000000000000, 0.000000000000000000, 130.2500000000000000 ) ) ;
#580 = EDGE_CURVE ( 'NONE', #177, #264, #127, .T. ) ;
#581 = DIRECTION ( 'NONE',  ( -0.000000000000000000, -0.000000000000000000, -1.000000000000000000 ) ) ;
#582 = LINE ( 'NONE', #69, #416 ) ;
#583 = LINE ( 'NONE', #171, #434 ) ;
#584 = LINE ( 'NONE', #592, #562 ) ;
#585 = CARTESIAN_POINT ( 'NONE',  ( 15.00000000000000000, -15.00000000000000000, 135.0000000000000000 ) ) ;
#586 = ORIENTED_EDGE ( 'NONE', *, *, #420, .T. ) ;
#587 = DIRECTION ( 'NONE',  ( 0.000000000000000000, -0.000000000000000000, -1.000000000000000000 ) ) ;
#588 = ORIENTED_EDGE ( 'NONE', *, *, #259, .F. ) ;
#589 = VECTOR ( 'NONE', #262, 1000.000000000000000 ) ;
#590 = VECTOR ( 'NONE', #342, 1000.000000000000000 ) ;
#591 = EDGE_CURVE ( 'NONE', #408, #521, #584, .T. ) ;
#592 = CARTESIAN_POINT ( 'NONE',  ( -10.25000000000000000, 0.000000000000000000, 130.2500000000000000 ) ) ;
#593 = CARTESIAN_POINT ( 'NONE',  ( -15.00000000000000000, 15.00000000000000000, 135.0000000000000000 ) ) ;
#594 = ORIENTED_EDGE ( 'NONE', *, *, #555, .T. ) ;
#595 = DIRECTION ( 'NONE',  ( -0.000000000000000000, 1.000000000000000000, -0.000000000000000000 ) ) ;
#596 = FACE_BOUND ( 'NONE', #468, .T. ) ;
#597 = ORIENTED_EDGE ( 'NONE', *, *, #427, .F. ) ;
ENDSEC;
END-ISO-10303-21;
