ISO-10303-21;
HEADER;
FILE_DESCRIPTION (( 'STEP AP203' ),
    '1' );
FILE_NAME ('CNC_Cage_TopRail_Female.STEP',
    '2026-08-14T20:58:37',
    ( '' ),
    ( '' ),
    'SwSTEP 2.0',
    'SolidWorks 2026',
    '' );
FILE_SCHEMA (( 'CONFIG_CONTROL_DESIGN' ));
ENDSEC;

DATA;
#1 = LINE ( 'NONE', #245, #341 ) ;
#2 =( NAMED_UNIT ( * ) PLANE_ANGLE_UNIT ( ) SI_UNIT ( $, .RADIAN. ) );
#3 = VERTEX_POINT ( 'NONE', #400 ) ;
#4 = PRODUCT_DEFINITION_FORMATION_WITH_SPECIFIED_SOURCE ( 'ANY', '', #457, .NOT_KNOWN. ) ;
#5 = DIRECTION ( 'NONE',  ( 0.000000000000000000, 4.336808689942017736E-17, -1.000000000000000000 ) ) ;
#6 = PLANE ( 'NONE',  #140 ) ;
#7 = EDGE_CURVE ( 'NONE', #77, #380, #282, .T. ) ;
#8 = PRODUCT_RELATED_PRODUCT_CATEGORY ( 'detail', '', ( #457 ) ) ;
#9 = PLANE ( 'NONE',  #272 ) ;
#10 = LINE ( 'NONE', #323, #181 ) ;
#11 = LINE ( 'NONE', #211, #254 ) ;
#12 = PERSON_AND_ORGANIZATION_ROLE ( 'design_owner' ) ;
#13 = VECTOR ( 'NONE', #144, 1000.000000000000000 ) ;
#14 = ADVANCED_FACE ( 'NONE', ( #201 ), #6, .F. ) ;
#15 = EDGE_CURVE ( 'NONE', #346, #3, #43, .T. ) ;
#16 = DIRECTION ( 'NONE',  ( -1.000000000000000000, 0.000000000000000000, 0.000000000000000000 ) ) ;
#17 = CALENDAR_DATE ( 2026, 14, 8 ) ;
#18 = CARTESIAN_POINT ( 'NONE',  ( -57.62500000000000000, 11.92241379310344840, 15.00000000000000000 ) ) ;
#19 = EDGE_CURVE ( 'NONE', #205, #320, #1, .T. ) ;
#20 = APPROVAL_DATE_TIME ( #289, #221 ) ;
#21 = CARTESIAN_POINT ( 'NONE',  ( -57.62500000000000000, 11.92241379310344840, 15.00000000000000000 ) ) ;
#22 = CARTESIAN_POINT ( 'NONE',  ( 0.000000000000000000, 0.000000000000000000, 15.00000000000000000 ) ) ;
#23 = DIRECTION ( 'NONE',  ( -1.000000000000000000, 0.000000000000000000, -0.000000000000000000 ) ) ;
#24 = ORIENTED_EDGE ( 'NONE', *, *, #55, .T. ) ;
#25 = CARTESIAN_POINT ( 'NONE',  ( -57.62500000000000000, 11.92241379310344840, 15.00000000000000000 ) ) ;
#26 = EDGE_LOOP ( 'NONE', ( #107, #24, #225, #406 ) ) ;
#27 = EDGE_CURVE ( 'NONE', #214, #288, #166, .T. ) ;
#28 = DIRECTION ( 'NONE',  ( -1.000000000000000000, 0.000000000000000000, -0.000000000000000000 ) ) ;
#29 = ADVANCED_FACE ( 'NONE', ( #127 ), #482, .F. ) ;
#30 = EDGE_CURVE ( 'NONE', #393, #41, #279, .T. ) ;
#31 = ORIENTED_EDGE ( 'NONE', *, *, #278, .F. ) ;
#32 = DIRECTION ( 'NONE',  ( 0.000000000000000000, 1.000000000000000000, 0.000000000000000000 ) ) ;
#33 = ORIENTED_EDGE ( 'NONE', *, *, #269, .F. ) ;
#34 = CC_DESIGN_PERSON_AND_ORGANIZATION_ASSIGNMENT ( #56, #493, ( #4 ) ) ;
#35 = CARTESIAN_POINT ( 'NONE',  ( -57.62500000000000000, -13.57758620689655160, -10.25000000000000000 ) ) ;
#36 = VERTEX_POINT ( 'NONE', #163 ) ;
#37 = EDGE_CURVE ( 'NONE', #346, #277, #10, .T. ) ;
#38 = CARTESIAN_POINT ( 'NONE',  ( 62.37500000000000000, -13.07758620689654983, -10.00000000000000000 ) ) ;
#39 = CARTESIAN_POINT ( 'NONE',  ( -57.62500000000000000, 6.922413793103449287, -10.25000000000000000 ) ) ;
#40 = LINE ( 'NONE', #281, #122 ) ;
#41 = VERTEX_POINT ( 'NONE', #169 ) ;
#42 = DIRECTION ( 'NONE',  ( 0.000000000000000000, 0.000000000000000000, 1.000000000000000000 ) ) ;
#43 = LINE ( 'NONE', #290, #274 ) ;
#44 = DIRECTION ( 'NONE',  ( 0.000000000000000000, -1.000000000000000000, -4.336808689942017736E-17 ) ) ;
#45 = ORIENTED_EDGE ( 'NONE', *, *, #447, .T. ) ;
#46 = PERSON ( 'UNSPECIFIED', 'UNSPECIFIED', 'UNSPECIFIED', ('UNSPECIFIED'), ('UNSPECIFIED'), ('UNSPECIFIED') ) ;
#47 = SECURITY_CLASSIFICATION ( '', '', #378 ) ;
#48 = VECTOR ( 'NONE', #370, 1000.000000000000000 ) ;
#49 = CARTESIAN_POINT ( 'NONE',  ( 62.37500000000000000, 6.922413793103449287, 10.00000000000000000 ) ) ;
#50 = DIRECTION ( 'NONE',  ( 0.000000000000000000, 0.000000000000000000, -1.000000000000000000 ) ) ;
#51 = MECHANICAL_CONTEXT ( 'NONE', #174, 'mechanical' ) ;
#52 = PLANE ( 'NONE',  #462 ) ;
#53 = EDGE_CURVE ( 'NONE', #436, #129, #328, .T. ) ;
#54 = EDGE_CURVE ( 'NONE', #431, #412, #359, .T. ) ;
#55 = EDGE_CURVE ( 'NONE', #320, #436, #257, .T. ) ;
#56 = PERSON_AND_ORGANIZATION ( #46, #98 ) ;
#57 = DIRECTION ( 'NONE',  ( -1.000000000000000000, -0.000000000000000000, -0.000000000000000000 ) ) ;
#58 = VECTOR ( 'NONE', #105, 1000.000000000000000 ) ;
#59 = PLANE ( 'NONE',  #391 ) ;
#60 = FACE_OUTER_BOUND ( 'NONE', #198, .T. ) ;
#61 = EDGE_LOOP ( 'NONE', ( #263, #222, #150, #384 ) ) ;
#62 = DATE_AND_TIME ( #455, #390 ) ;
#63 = CARTESIAN_POINT ( 'NONE',  ( 57.62500000000000000, 6.922413793103449287, 10.00000000000000000 ) ) ;
#64 = EDGE_LOOP ( 'NONE', ( #485, #125, #352, #155 ) ) ;
#65 = DIRECTION ( 'NONE',  ( 0.000000000000000000, -0.000000000000000000, 1.000000000000000000 ) ) ;
#66 = CC_DESIGN_SECURITY_CLASSIFICATION ( #47, ( #4 ) ) ;
#67 = CARTESIAN_POINT ( 'NONE',  ( -57.62500000000000000, -18.07758620689654805, -15.00000000000000000 ) ) ;
#68 = ORIENTED_EDGE ( 'NONE', *, *, #492, .T. ) ;
#69 = ADVANCED_FACE ( 'NONE', ( #377, #100 ), #372, .F. ) ;
#70 = CARTESIAN_POINT ( 'NONE',  ( -57.62500000000000000, -18.07758620689654805, 15.00000000000000000 ) ) ;
#71 = EDGE_LOOP ( 'NONE', ( #84, #243, #119, #480 ) ) ;
#72 = CARTESIAN_POINT ( 'NONE',  ( 57.62500000000000000, 11.92241379310344840, -15.00000000000000000 ) ) ;
#73 = ORIENTED_EDGE ( 'NONE', *, *, #15, .T. ) ;
#74 = AXIS2_PLACEMENT_3D ( 'NONE', #49, #44, #5 ) ;
#75 = VECTOR ( 'NONE', #57, 1000.000000000000000 ) ;
#76 = DIRECTION ( 'NONE',  ( -0.000000000000000000, -0.000000000000000000, -1.000000000000000000 ) ) ;
#77 = VERTEX_POINT ( 'NONE', #409 ) ;
#78 = CARTESIAN_POINT ( 'NONE',  ( 57.62500000000000000, -18.07758620689654805, 15.00000000000000000 ) ) ;
#79 = EDGE_LOOP ( 'NONE', ( #236, #349, #421, #465 ) ) ;
#80 = CARTESIAN_POINT ( 'NONE',  ( -57.62500000000000000, -13.57758620689655160, 10.25000000000000000 ) ) ;
#81 = ORIENTED_EDGE ( 'NONE', *, *, #27, .T. ) ;
#82 = VECTOR ( 'NONE', #481, 1000.000000000000000 ) ;
#83 = PLANE ( 'NONE',  #442 ) ;
#84 = ORIENTED_EDGE ( 'NONE', *, *, #500, .T. ) ;
#85 = APPLICATION_PROTOCOL_DEFINITION ( 'international standard', 'config_control_design', 1994, #174 ) ;
#86 = ORIENTED_EDGE ( 'NONE', *, *, #7, .F. ) ;
#87 = CARTESIAN_POINT ( 'NONE',  ( 62.37500000000000000, -13.07758620689654983, 10.00000000000000000 ) ) ;
#88 = DIRECTION ( 'NONE',  ( 0.000000000000000000, 1.000000000000000000, -4.231032868236115541E-17 ) ) ;
#89 = VECTOR ( 'NONE', #333, 1000.000000000000000 ) ;
#90 = DIRECTION ( 'NONE',  ( 1.000000000000000000, 0.000000000000000000, 0.000000000000000000 ) ) ;
#91 = DIRECTION ( 'NONE',  ( -1.000000000000000000, -0.000000000000000000, -0.000000000000000000 ) ) ;
#92 = PRODUCT_DEFINITION_SHAPE ( 'NONE', 'NONE',  #256 ) ;
#93 = EDGE_CURVE ( 'NONE', #129, #205, #95, .T. ) ;
#94 = APPROVAL_DATE_TIME ( #332, #102 ) ;
#95 = LINE ( 'NONE', #21, #75 ) ;
#96 = APPROVAL_STATUS ( 'not_yet_approved' ) ;
#97 = DIRECTION ( 'NONE',  ( 0.000000000000000000, 0.000000000000000000, -1.000000000000000000 ) ) ;
#98 = ORGANIZATION ( 'UNSPECIFIED', 'UNSPECIFIED', '' ) ;
#99 = VECTOR ( 'NONE', #249, 1000.000000000000000 ) ;
#100 = FACE_OUTER_BOUND ( 'NONE', #71, .T. ) ;
#101 = ORIENTED_EDGE ( 'NONE', *, *, #167, .T. ) ;
#102 = APPROVAL ( #297, 'UNSPECIFIED' ) ;
#103 = DIRECTION ( 'NONE',  ( 0.000000000000000000, 0.000000000000000000, 1.000000000000000000 ) ) ;
#104 = DIRECTION ( 'NONE',  ( 0.000000000000000000, 0.000000000000000000, -1.000000000000000000 ) ) ;
#105 = DIRECTION ( 'NONE',  ( -0.000000000000000000, -1.000000000000000000, -0.000000000000000000 ) ) ;
#106 = VECTOR ( 'NONE', #348, 1000.000000000000000 ) ;
#107 = ORIENTED_EDGE ( 'NONE', *, *, #19, .T. ) ;
#108 = ADVANCED_FACE ( 'NONE', ( #60 ), #460, .F. ) ;
#109 = ADVANCED_FACE ( 'NONE', ( #132, #504 ), #52, .F. ) ;
#110 = FACE_OUTER_BOUND ( 'NONE', #424, .T. ) ;
#111 = ORIENTED_EDGE ( 'NONE', *, *, #54, .T. ) ;
#112 = EDGE_CURVE ( 'NONE', #512, #36, #179, .T. ) ;
#113 = DIRECTION ( 'NONE',  ( 0.000000000000000000, -0.000000000000000000, -1.000000000000000000 ) ) ;
#114 = ORIENTED_EDGE ( 'NONE', *, *, #447, .F. ) ;
#115 = LINE ( 'NONE', #35, #106 ) ;
#116 = ORIENTED_EDGE ( 'NONE', *, *, #216, .T. ) ;
#117 = AXIS2_PLACEMENT_3D ( 'NONE', #220, #250, #298 ) ;
#118 = DIRECTION ( 'NONE',  ( -0.000000000000000000, -1.000000000000000000, -0.000000000000000000 ) ) ;
#119 = ORIENTED_EDGE ( 'NONE', *, *, #19, .F. ) ;
#120 = CARTESIAN_POINT ( 'NONE',  ( -47.62500000000000000, 6.922413793103449287, -10.25000000000000000 ) ) ;
#121 = ORIENTED_EDGE ( 'NONE', *, *, #54, .F. ) ;
#122 = VECTOR ( 'NONE', #126, 1000.000000000000000 ) ;
#123 = VECTOR ( 'NONE', #397, 1000.000000000000000 ) ;
#124 = FACE_OUTER_BOUND ( 'NONE', #308, .T. ) ;
#125 = ORIENTED_EDGE ( 'NONE', *, *, #167, .F. ) ;
#126 = DIRECTION ( 'NONE',  ( -1.000000000000000000, -0.000000000000000000, -0.000000000000000000 ) ) ;
#127 = FACE_OUTER_BOUND ( 'NONE', #241, .T. ) ;
#128 = APPROVAL_DATE_TIME ( #62, #343 ) ;
#129 = VERTEX_POINT ( 'NONE', #413 ) ;
#130 = VECTOR ( 'NONE', #189, 1000.000000000000000 ) ;
#131 = APPLICATION_PROTOCOL_DEFINITION ( 'international standard', 'config_control_design', 1994, #476 ) ;
#132 = FACE_OUTER_BOUND ( 'NONE', #508, .T. ) ;
#133 = CARTESIAN_POINT ( 'NONE',  ( -57.62500000000000000, -13.57758620689655160, -10.25000000000000000 ) ) ;
#134 = DATE_TIME_ROLE ( 'creation_date' ) ;
#135 = LINE ( 'NONE', #344, #382 ) ;
#136 = ORIENTED_EDGE ( 'NONE', *, *, #112, .T. ) ;
#137 = EDGE_CURVE ( 'NONE', #143, #393, #141, .T. ) ;
#138 = AXIS2_PLACEMENT_3D ( 'NONE', #264, #386, #28 ) ;
#139 = PERSON_AND_ORGANIZATION ( #46, #98 ) ;
#140 = AXIS2_PLACEMENT_3D ( 'NONE', #120, #88, #444 ) ;
#141 = LINE ( 'NONE', #336, #190 ) ;
#142 = LINE ( 'NONE', #302, #156 ) ;
#143 = VERTEX_POINT ( 'NONE', #496 ) ;
#144 = DIRECTION ( 'NONE',  ( 0.000000000000000000, 0.000000000000000000, -1.000000000000000000 ) ) ;
#145 = EDGE_CURVE ( 'NONE', #288, #418, #176, .T. ) ;
#146 = ORIENTED_EDGE ( 'NONE', *, *, #278, .T. ) ;
#147 = CARTESIAN_POINT ( 'NONE',  ( -47.62500000000000000, 6.922413793103450175, 10.25000000000000000 ) ) ;
#148 = ORIENTED_EDGE ( 'NONE', *, *, #55, .F. ) ;
#149 = DIRECTION ( 'NONE',  ( -1.000000000000000000, -0.000000000000000000, -0.000000000000000000 ) ) ;
#150 = ORIENTED_EDGE ( 'NONE', *, *, #137, .F. ) ;
#151 = PLANE ( 'NONE',  #426 ) ;
#152 = ORIENTED_EDGE ( 'NONE', *, *, #385, .F. ) ;
#153 = EDGE_CURVE ( 'NONE', #512, #161, #260, .T. ) ;
#154 = DIRECTION ( 'NONE',  ( 0.000000000000000000, -1.000000000000000000, 0.000000000000000000 ) ) ;
#155 = ORIENTED_EDGE ( 'NONE', *, *, #27, .F. ) ;
#156 = VECTOR ( 'NONE', #91, 1000.000000000000000 ) ;
#157 = LINE ( 'NONE', #318, #82 ) ;
#158 = LINE ( 'NONE', #173, #89 ) ;
#159 = PLANE ( 'NONE',  #306 ) ;
#160 = EDGE_CURVE ( 'NONE', #380, #277, #411, .T. ) ;
#161 = VERTEX_POINT ( 'NONE', #63 ) ;
#162 = EDGE_CURVE ( 'NONE', #431, #288, #11, .T. ) ;
#163 = CARTESIAN_POINT ( 'NONE',  ( 62.37500000000000000, -13.07758620689654983, 10.00000000000000000 ) ) ;
#164 = CC_DESIGN_APPROVAL ( #343, ( #256 ) ) ;
#165 = DIRECTION ( 'NONE',  ( -0.000000000000000000, 1.000000000000000000, 0.000000000000000000 ) ) ;
#166 = LINE ( 'NONE', #203, #316 ) ;
#167 = EDGE_CURVE ( 'NONE', #418, #161, #454, .T. ) ;
#168 = DATE_AND_TIME ( #374, #340 ) ;
#169 = CARTESIAN_POINT ( 'NONE',  ( -57.62500000000000000, 11.92241379310344840, -15.00000000000000000 ) ) ;
#170 = CC_DESIGN_PERSON_AND_ORGANIZATION_ASSIGNMENT ( #172, #223, ( #4 ) ) ;
#171 = CARTESIAN_POINT ( 'NONE',  ( 57.62500000000000000, 6.922413793103449287, 10.00000000000000000 ) ) ;
#172 = PERSON_AND_ORGANIZATION ( #46, #98 ) ;
#173 = CARTESIAN_POINT ( 'NONE',  ( 62.37500000000000000, 6.922413793103449287, 10.00000000000000000 ) ) ;
#174 = APPLICATION_CONTEXT ( 'configuration controlled 3d designs of mechanical parts and assemblies' ) ;
#175 = PERSON_AND_ORGANIZATION ( #46, #98 ) ;
#176 = LINE ( 'NONE', #464, #99 ) ;
#177 = EDGE_CURVE ( 'NONE', #412, #512, #158, .T. ) ;
#178 = CC_DESIGN_PERSON_AND_ORGANIZATION_ASSIGNMENT ( #408, #210, ( #47 ) ) ;
#179 = LINE ( 'NONE', #329, #415 ) ;
#180 = LOCAL_TIME ( 16, 58, 37.00000000000000000, #410 ) ;
#181 = VECTOR ( 'NONE', #489, 1000.000000000000000 ) ;
#182 = CARTESIAN_POINT ( 'NONE',  ( -57.62500000000000000, -18.07758620689654805, 15.00000000000000000 ) ) ;
#183 = CARTESIAN_POINT ( 'NONE',  ( 62.37500000000000000, -13.07758620689654983, 10.00000000000000000 ) ) ;
#184 = ORIENTED_EDGE ( 'NONE', *, *, #37, .F. ) ;
#185 = DESIGN_CONTEXT ( 'detailed design', #476, 'design' ) ;
#186 = CARTESIAN_POINT ( 'NONE',  ( 57.62500000000000000, -13.07758620689654983, -10.00000000000000000 ) ) ;
#187 = ORIENTED_EDGE ( 'NONE', *, *, #293, .T. ) ;
#188 = VECTOR ( 'NONE', #118, 1000.000000000000000 ) ;
#189 = DIRECTION ( 'NONE',  ( 0.000000000000000000, 1.000000000000000000, 0.000000000000000000 ) ) ;
#190 = VECTOR ( 'NONE', #213, 1000.000000000000000 ) ;
#191 = ORIENTED_EDGE ( 'NONE', *, *, #217, .T. ) ;
#192 = LINE ( 'NONE', #266, #130 ) ;
#193 = EDGE_LOOP ( 'NONE', ( #101, #303, #389, #191 ) ) ;
#194 = CC_DESIGN_DATE_AND_TIME_ASSIGNMENT ( #168, #327, ( #47 ) ) ;
#195 = LINE ( 'NONE', #25, #240 ) ;
#196 = EDGE_LOOP ( 'NONE', ( #136, #475, #111, #494 ) ) ;
#197 = PLANE ( 'NONE',  #74 ) ;
#198 = EDGE_LOOP ( 'NONE', ( #305, #258, #326, #68 ) ) ;
#199 = ADVANCED_FACE ( 'NONE', ( #295 ), #59, .F. ) ;
#200 = FACE_OUTER_BOUND ( 'NONE', #79, .T. ) ;
#201 = FACE_OUTER_BOUND ( 'NONE', #387, .T. ) ;
#202 = CARTESIAN_POINT ( 'NONE',  ( -57.62500000000000000, -18.07758620689654805, -15.00000000000000000 ) ) ;
#203 = CARTESIAN_POINT ( 'NONE',  ( 57.62500000000000000, -13.07758620689654983, 10.00000000000000000 ) ) ;
#204 = CARTESIAN_POINT ( 'NONE',  ( 62.37500000000000000, 0.000000000000000000, 0.000000000000000000 ) ) ;
#205 = VERTEX_POINT ( 'NONE', #18 ) ;
#206 = AXIS2_PLACEMENT_3D ( 'NONE', #513, #104, #23 ) ;
#207 = AXIS2_PLACEMENT_3D ( 'NONE', #300, #338, #97 ) ;
#208 = FACE_OUTER_BOUND ( 'NONE', #433, .T. ) ;
#209 = ORIENTED_EDGE ( 'NONE', *, *, #93, .F. ) ;
#210 = PERSON_AND_ORGANIZATION_ROLE ( 'classification_officer' ) ;
#211 = CARTESIAN_POINT ( 'NONE',  ( 62.37500000000000000, -13.07758620689654983, -10.00000000000000000 ) ) ;
#212 = COORDINATED_UNIVERSAL_TIME_OFFSET ( 5, 0, .BEHIND. ) ;
#213 = DIRECTION ( 'NONE',  ( 0.000000000000000000, 1.000000000000000000, 0.000000000000000000 ) ) ;
#214 = VERTEX_POINT ( 'NONE', #502 ) ;
#215 = VECTOR ( 'NONE', #361, 1000.000000000000000 ) ;
#216 = EDGE_CURVE ( 'NONE', #3, #313, #135, .T. ) ;
#217 = EDGE_CURVE ( 'NONE', #412, #418, #142, .T. ) ;
#218 = DIRECTION ( 'NONE',  ( 0.000000000000000000, 0.000000000000000000, -1.000000000000000000 ) ) ;
#219 = CALENDAR_DATE ( 2026, 14, 8 ) ;
#220 = CARTESIAN_POINT ( 'NONE',  ( -47.62500000000000000, -13.57758620689655160, 10.25000000000000000 ) ) ;
#221 = APPROVAL ( #96, 'UNSPECIFIED' ) ;
#222 = ORIENTED_EDGE ( 'NONE', *, *, #30, .F. ) ;
#223 = PERSON_AND_ORGANIZATION_ROLE ( 'design_supplier' ) ;
#224 = DIRECTION ( 'NONE',  ( 0.000000000000000000, 1.000000000000000000, 0.000000000000000000 ) ) ;
#225 = ORIENTED_EDGE ( 'NONE', *, *, #53, .T. ) ;
#226 = EDGE_CURVE ( 'NONE', #331, #143, #423, .T. ) ;
#227 = LOCAL_TIME ( 16, 58, 37.00000000000000000, #369 ) ;
#228 = FACE_OUTER_BOUND ( 'NONE', #354, .T. ) ;
#229 = LINE ( 'NONE', #428, #477 ) ;
#230 = ORIENTED_EDGE ( 'NONE', *, *, #518, .F. ) ;
#231 = CARTESIAN_POINT ( 'NONE',  ( 57.62500000000000000, -13.07758620689654983, 10.00000000000000000 ) ) ;
#232 = ORIENTED_EDGE ( 'NONE', *, *, #492, .F. ) ;
#233 = CARTESIAN_POINT ( 'NONE',  ( -47.62500000000000000, 6.922413793103449287, -10.25000000000000000 ) ) ;
#234 = ORIENTED_EDGE ( 'NONE', *, *, #246, .F. ) ;
#235 = LINE ( 'NONE', #310, #373 ) ;
#236 = ORIENTED_EDGE ( 'NONE', *, *, #268, .T. ) ;
#237 = DIRECTION ( 'NONE',  ( 0.000000000000000000, -0.000000000000000000, -1.000000000000000000 ) ) ;
#238 = CARTESIAN_POINT ( 'NONE',  ( 57.62500000000000000, -18.07758620689654805, 15.00000000000000000 ) ) ;
#239 = ORIENTED_EDGE ( 'NONE', *, *, #226, .T. ) ;
#240 = VECTOR ( 'NONE', #307, 1000.000000000000000 ) ;
#241 = EDGE_LOOP ( 'NONE', ( #187, #73, #116, #146 ) ) ;
#242 = DIRECTION ( 'NONE',  ( 0.000000000000000000, 0.000000000000000000, -1.000000000000000000 ) ) ;
#243 = ORIENTED_EDGE ( 'NONE', *, *, #287, .F. ) ;
#244 = LINE ( 'NONE', #202, #188 ) ;
#245 = CARTESIAN_POINT ( 'NONE',  ( -57.62500000000000000, -18.07758620689654805, 15.00000000000000000 ) ) ;
#246 = EDGE_CURVE ( 'NONE', #317, #380, #392, .T. ) ;
#247 = AXIS2_PLACEMENT_3D ( 'NONE', #87, #242, #490 ) ;
#248 = CARTESIAN_POINT ( 'NONE',  ( 0.000000000000000000, 0.000000000000000000, 0.000000000000000000 ) ) ;
#249 = DIRECTION ( 'NONE',  ( 0.000000000000000000, 1.000000000000000000, 0.000000000000000000 ) ) ;
#250 = DIRECTION ( 'NONE',  ( 0.000000000000000000, 0.000000000000000000, 1.000000000000000000 ) ) ;
#251 = ORIENTED_EDGE ( 'NONE', *, *, #261, .T. ) ;
#252 = CARTESIAN_POINT ( 'NONE',  ( 62.37500000000000000, 6.922413793103449287, 10.00000000000000000 ) ) ;
#253 =( GEOMETRIC_REPRESENTATION_CONTEXT ( 3 ) GLOBAL_UNCERTAINTY_ASSIGNED_CONTEXT ( ( #422 ) ) GLOBAL_UNIT_ASSIGNED_CONTEXT ( ( #321, #2, #521 ) ) REPRESENTATION_CONTEXT ( 'NONE', 'WORKASPACE' ) );
#254 = VECTOR ( 'NONE', #292, 1000.000000000000000 ) ;
#255 = APPROVAL_ROLE ( '' ) ;
#256 = PRODUCT_DEFINITION ( 'UNKNOWN', '', #4, #185 ) ;
#257 = LINE ( 'NONE', #182, #324 ) ;
#258 = ORIENTED_EDGE ( 'NONE', *, *, #416, .F. ) ;
#259 = DIRECTION ( 'NONE',  ( 0.000000000000000000, 0.000000000000000000, 1.000000000000000000 ) ) ;
#260 = LINE ( 'NONE', #252, #366 ) ;
#261 = EDGE_CURVE ( 'NONE', #36, #214, #466, .T. ) ;
#262 = FACE_OUTER_BOUND ( 'NONE', #61, .T. ) ;
#263 = ORIENTED_EDGE ( 'NONE', *, *, #500, .F. ) ;
#264 = CARTESIAN_POINT ( 'NONE',  ( 0.000000000000000000, 0.000000000000000000, -15.00000000000000000 ) ) ;
#265 = ORIENTED_EDGE ( 'NONE', *, *, #246, .T. ) ;
#266 = CARTESIAN_POINT ( 'NONE',  ( -57.62500000000000000, -13.57758620689655160, 10.25000000000000000 ) ) ;
#267 = ORIENTED_EDGE ( 'NONE', *, *, #160, .T. ) ;
#268 = EDGE_CURVE ( 'NONE', #161, #214, #515, .T. ) ;
#269 = EDGE_CURVE ( 'NONE', #277, #429, #115, .T. ) ;
#270 = LINE ( 'NONE', #183, #13 ) ;
#271 = ORIENTED_EDGE ( 'NONE', *, *, #37, .T. ) ;
#272 = AXIS2_PLACEMENT_3D ( 'NONE', #204, #325, #42 ) ;
#273 = DIRECTION ( 'NONE',  ( 1.000000000000000000, 0.000000000000000000, 0.000000000000000000 ) ) ;
#274 = VECTOR ( 'NONE', #360, 1000.000000000000000 ) ;
#275 = ORIENTED_EDGE ( 'NONE', *, *, #269, .T. ) ;
#276 = CARTESIAN_POINT ( 'NONE',  ( 62.37500000000000000, -13.07758620689654983, -10.00000000000000000 ) ) ;
#277 = VERTEX_POINT ( 'NONE', #507 ) ;
#278 = EDGE_CURVE ( 'NONE', #313, #317, #235, .T. ) ;
#279 = LINE ( 'NONE', #368, #283 ) ;
#280 = ADVANCED_BREP_SHAPE_REPRESENTATION ( 'CNC_Cage_TopRail_Female', ( #497, #322 ), #253 ) ;
#281 = CARTESIAN_POINT ( 'NONE',  ( -47.62500000000000000, -13.57758620689655160, 10.25000000000000000 ) ) ;
#282 = LINE ( 'NONE', #39, #407 ) ;
#283 = VECTOR ( 'NONE', #440, 1000.000000000000000 ) ;
#284 = CARTESIAN_POINT ( 'NONE',  ( 62.37500000000000000, 6.922413793103449287, 10.00000000000000000 ) ) ;
#285 = DIRECTION ( 'NONE',  ( 1.000000000000000000, 0.000000000000000000, 0.000000000000000000 ) ) ;
#286 = DIRECTION ( 'NONE',  ( -1.000000000000000000, -0.000000000000000000, -0.000000000000000000 ) ) ;
#287 = EDGE_CURVE ( 'NONE', #320, #331, #229, .T. ) ;
#288 = VERTEX_POINT ( 'NONE', #186 ) ;
#289 = DATE_AND_TIME ( #449, #180 ) ;
#290 = CARTESIAN_POINT ( 'NONE',  ( -47.62500000000000000, -13.57758620689655160, -10.25000000000000000 ) ) ;
#291 = PERSON_AND_ORGANIZATION ( #46, #98 ) ;
#292 = DIRECTION ( 'NONE',  ( -1.000000000000000000, -0.000000000000000000, -0.000000000000000000 ) ) ;
#293 = EDGE_CURVE ( 'NONE', #317, #346, #394, .T. ) ;
#294 = EDGE_CURVE ( 'NONE', #429, #77, #192, .T. ) ;
#295 = FACE_OUTER_BOUND ( 'NONE', #26, .T. ) ;
#296 = CC_DESIGN_PERSON_AND_ORGANIZATION_ASSIGNMENT ( #419, #12, ( #457 ) ) ;
#297 = APPROVAL_STATUS ( 'not_yet_approved' ) ;
#298 = DIRECTION ( 'NONE',  ( 1.000000000000000000, 0.000000000000000000, -0.000000000000000000 ) ) ;
#299 = CC_DESIGN_APPROVAL ( #221, ( #4 ) ) ;
#300 = CARTESIAN_POINT ( 'NONE',  ( -57.62500000000000000, -18.07758620689654805, 15.00000000000000000 ) ) ;
#301 = CC_DESIGN_DATE_AND_TIME_ASSIGNMENT ( #501, #134, ( #256 ) ) ;
#302 = CARTESIAN_POINT ( 'NONE',  ( 62.37500000000000000, 6.922413793103450175, -10.00000000000000000 ) ) ;
#303 = ORIENTED_EDGE ( 'NONE', *, *, #153, .F. ) ;
#304 = PLANE ( 'NONE',  #138 ) ;
#305 = ORIENTED_EDGE ( 'NONE', *, *, #294, .T. ) ;
#306 = AXIS2_PLACEMENT_3D ( 'NONE', #396, #404, #237 ) ;
#307 = DIRECTION ( 'NONE',  ( -0.000000000000000000, -0.000000000000000000, -1.000000000000000000 ) ) ;
#308 = EDGE_LOOP ( 'NONE', ( #403, #395, #121, #357 ) ) ;
#309 = ADVANCED_FACE ( 'NONE', ( #511 ), #151, .F. ) ;
#310 = CARTESIAN_POINT ( 'NONE',  ( -47.62500000000000000, 6.922413793103449287, -10.25000000000000000 ) ) ;
#311 = ORIENTED_EDGE ( 'NONE', *, *, #137, .T. ) ;
#312 = LINE ( 'NONE', #401, #486 ) ;
#313 = VERTEX_POINT ( 'NONE', #147 ) ;
#314 = APPROVAL_PERSON_ORGANIZATION ( #453, #221, #255 ) ;
#315 = CARTESIAN_POINT ( 'NONE',  ( 57.62500000000000000, 6.922413793103450175, -10.00000000000000000 ) ) ;
#316 = VECTOR ( 'NONE', #491, 1000.000000000000000 ) ;
#317 = VERTEX_POINT ( 'NONE', #233 ) ;
#318 = CARTESIAN_POINT ( 'NONE',  ( 57.62500000000000000, 11.92241379310344840, 15.00000000000000000 ) ) ;
#319 = ORIENTED_EDGE ( 'NONE', *, *, #53, .F. ) ;
#320 = VERTEX_POINT ( 'NONE', #345 ) ;
#321 =( LENGTH_UNIT ( ) NAMED_UNIT ( * ) SI_UNIT ( .MILLI., .METRE. ) );
#322 = AXIS2_PLACEMENT_3D ( 'NONE', #248, #259, #90 ) ;
#323 = CARTESIAN_POINT ( 'NONE',  ( -47.62500000000000000, -13.57758620689655160, -10.25000000000000000 ) ) ;
#324 = VECTOR ( 'NONE', #417, 1000.000000000000000 ) ;
#325 = DIRECTION ( 'NONE',  ( -1.000000000000000000, 0.000000000000000000, 0.000000000000000000 ) ) ;
#326 = ORIENTED_EDGE ( 'NONE', *, *, #216, .F. ) ;
#327 = DATE_TIME_ROLE ( 'classification_date' ) ;
#328 = LINE ( 'NONE', #238, #123 ) ;
#329 = CARTESIAN_POINT ( 'NONE',  ( 62.37500000000000000, -13.07758620689654983, 10.00000000000000000 ) ) ;
#330 = VECTOR ( 'NONE', #273, 1000.000000000000000 ) ;
#331 = VERTEX_POINT ( 'NONE', #383 ) ;
#332 = DATE_AND_TIME ( #219, #227 ) ;
#333 = DIRECTION ( 'NONE',  ( -0.000000000000000000, -4.336808689942017736E-17, 1.000000000000000000 ) ) ;
#334 = ORIENTED_EDGE ( 'NONE', *, *, #287, .T. ) ;
#335 = COORDINATED_UNIVERSAL_TIME_OFFSET ( 5, 0, .BEHIND. ) ;
#336 = CARTESIAN_POINT ( 'NONE',  ( 57.62500000000000000, -18.07758620689654805, -15.00000000000000000 ) ) ;
#337 = APPROVAL_STATUS ( 'not_yet_approved' ) ;
#338 = DIRECTION ( 'NONE',  ( 1.000000000000000000, 0.000000000000000000, 0.000000000000000000 ) ) ;
#339 = EDGE_LOOP ( 'NONE', ( #33, #514, #86, #438 ) ) ;
#340 = LOCAL_TIME ( 16, 58, 37.00000000000000000, #212 ) ;
#341 = VECTOR ( 'NONE', #451, 1000.000000000000000 ) ;
#342 = EDGE_CURVE ( 'NONE', #205, #41, #195, .T. ) ;
#343 = APPROVAL ( #337, 'UNSPECIFIED' ) ;
#344 = CARTESIAN_POINT ( 'NONE',  ( -47.62500000000000000, -13.57758620689655160, 10.25000000000000000 ) ) ;
#345 = CARTESIAN_POINT ( 'NONE',  ( -57.62500000000000000, -18.07758620689654805, 15.00000000000000000 ) ) ;
#346 = VERTEX_POINT ( 'NONE', #432 ) ;
#347 = ADVANCED_FACE ( 'NONE', ( #262 ), #304, .T. ) ;
#348 = DIRECTION ( 'NONE',  ( 0.000000000000000000, 0.000000000000000000, 1.000000000000000000 ) ) ;
#349 = ORIENTED_EDGE ( 'NONE', *, *, #261, .F. ) ;
#350 = AXIS2_PLACEMENT_3D ( 'NONE', #439, #165, #479 ) ;
#351 = CARTESIAN_POINT ( 'NONE',  ( -47.62500000000000000, -13.57758620689655160, -10.25000000000000000 ) ) ;
#352 = ORIENTED_EDGE ( 'NONE', *, *, #145, .F. ) ;
#353 = CARTESIAN_POINT ( 'NONE',  ( 62.37500000000000000, 6.922413793103450175, -10.00000000000000000 ) ) ;
#354 = EDGE_LOOP ( 'NONE', ( #239, #230, #148, #334 ) ) ;
#355 = ADVANCED_FACE ( 'NONE', ( #228 ), #470, .F. ) ;
#356 = PLANE ( 'NONE',  #206 ) ;
#357 = ORIENTED_EDGE ( 'NONE', *, *, #162, .T. ) ;
#358 = DIRECTION ( 'NONE',  ( 0.000000000000000000, 0.000000000000000000, 1.000000000000000000 ) ) ;
#359 = LINE ( 'NONE', #520, #505 ) ;
#360 = DIRECTION ( 'NONE',  ( 0.000000000000000000, 0.000000000000000000, 1.000000000000000000 ) ) ;
#361 = DIRECTION ( 'NONE',  ( -0.000000000000000000, -0.000000000000000000, -1.000000000000000000 ) ) ;
#362 = CARTESIAN_POINT ( 'NONE',  ( -47.62500000000000000, 0.000000000000000000, 0.000000000000000000 ) ) ;
#363 = ADVANCED_FACE ( 'NONE', ( #110 ), #356, .F. ) ;
#364 = VECTOR ( 'NONE', #430, 1000.000000000000000 ) ;
#365 = ORIENTED_EDGE ( 'NONE', *, *, #162, .F. ) ;
#366 = VECTOR ( 'NONE', #420, 1000.000000000000000 ) ;
#367 = PLANE ( 'NONE',  #247 ) ;
#368 = CARTESIAN_POINT ( 'NONE',  ( -57.62500000000000000, 11.92241379310344840, -15.00000000000000000 ) ) ;
#369 = COORDINATED_UNIVERSAL_TIME_OFFSET ( 5, 0, .BEHIND. ) ;
#370 = DIRECTION ( 'NONE',  ( -0.000000000000000000, -1.000000000000000000, -0.000000000000000000 ) ) ;
#371 = APPROVAL_ROLE ( '' ) ;
#372 = PLANE ( 'NONE',  #207 ) ;
#373 = VECTOR ( 'NONE', #474, 1000.000000000000000 ) ;
#374 = CALENDAR_DATE ( 2026, 14, 8 ) ;
#375 = DIRECTION ( 'NONE',  ( -1.000000000000000000, 0.000000000000000000, -0.000000000000000000 ) ) ;
#376 = APPROVAL_ROLE ( '' ) ;
#377 = FACE_BOUND ( 'NONE', #339, .T. ) ;
#378 = SECURITY_CLASSIFICATION_LEVEL ( 'unclassified' ) ;
#379 = DIRECTION ( 'NONE',  ( -0.000000000000000000, -4.336808689942017736E-17, 1.000000000000000000 ) ) ;
#380 = VERTEX_POINT ( 'NONE', #388 ) ;
#381 = APPROVAL_PERSON_ORGANIZATION ( #139, #102, #371 ) ;
#382 = VECTOR ( 'NONE', #506, 1000.000000000000000 ) ;
#383 = CARTESIAN_POINT ( 'NONE',  ( -57.62500000000000000, -18.07758620689654805, -15.00000000000000000 ) ) ;
#384 = ORIENTED_EDGE ( 'NONE', *, *, #226, .F. ) ;
#385 = EDGE_CURVE ( 'NONE', #36, #431, #270, .T. ) ;
#386 = DIRECTION ( 'NONE',  ( 0.000000000000000000, 0.000000000000000000, -1.000000000000000000 ) ) ;
#387 = EDGE_LOOP ( 'NONE', ( #463, #234, #31, #471 ) ) ;
#388 = CARTESIAN_POINT ( 'NONE',  ( -57.62500000000000000, 6.922413793103449287, -10.25000000000000000 ) ) ;
#389 = ORIENTED_EDGE ( 'NONE', *, *, #177, .F. ) ;
#390 = LOCAL_TIME ( 16, 58, 37.00000000000000000, #459 ) ;
#391 = AXIS2_PLACEMENT_3D ( 'NONE', #22, #218, #375 ) ;
#392 = LINE ( 'NONE', #434, #414 ) ;
#393 = VERTEX_POINT ( 'NONE', #72 ) ;
#394 = LINE ( 'NONE', #472, #364 ) ;
#395 = ORIENTED_EDGE ( 'NONE', *, *, #217, .F. ) ;
#396 = CARTESIAN_POINT ( 'NONE',  ( -57.62500000000000000, 11.92241379310344840, 15.00000000000000000 ) ) ;
#397 = DIRECTION ( 'NONE',  ( 0.000000000000000000, 1.000000000000000000, 0.000000000000000000 ) ) ;
#398 = ORIENTED_EDGE ( 'NONE', *, *, #15, .F. ) ;
#399 = FACE_OUTER_BOUND ( 'NONE', #193, .T. ) ;
#400 = CARTESIAN_POINT ( 'NONE',  ( -47.62500000000000000, -13.57758620689655160, 10.25000000000000000 ) ) ;
#401 = CARTESIAN_POINT ( 'NONE',  ( -47.62500000000000000, 6.922413793103450175, 10.25000000000000000 ) ) ;
#402 = CC_DESIGN_PERSON_AND_ORGANIZATION_ASSIGNMENT ( #291, #503, ( #256 ) ) ;
#403 = ORIENTED_EDGE ( 'NONE', *, *, #145, .T. ) ;
#404 = DIRECTION ( 'NONE',  ( 0.000000000000000000, -1.000000000000000000, 0.000000000000000000 ) ) ;
#405 = APPROVAL_PERSON_ORGANIZATION ( #175, #343, #376 ) ;
#406 = ORIENTED_EDGE ( 'NONE', *, *, #93, .T. ) ;
#407 = VECTOR ( 'NONE', #448, 1000.000000000000000 ) ;
#408 = PERSON_AND_ORGANIZATION ( #46, #98 ) ;
#409 = CARTESIAN_POINT ( 'NONE',  ( -57.62500000000000000, 6.922413793103450175, 10.25000000000000000 ) ) ;
#410 = COORDINATED_UNIVERSAL_TIME_OFFSET ( 5, 0, .BEHIND. ) ;
#411 = LINE ( 'NONE', #133, #48 ) ;
#412 = VERTEX_POINT ( 'NONE', #353 ) ;
#413 = CARTESIAN_POINT ( 'NONE',  ( 57.62500000000000000, 11.92241379310344840, 15.00000000000000000 ) ) ;
#414 = VECTOR ( 'NONE', #468, 1000.000000000000000 ) ;
#415 = VECTOR ( 'NONE', #456, 1000.000000000000000 ) ;
#416 = EDGE_CURVE ( 'NONE', #313, #77, #312, .T. ) ;
#417 = DIRECTION ( 'NONE',  ( 1.000000000000000000, 0.000000000000000000, 0.000000000000000000 ) ) ;
#418 = VERTEX_POINT ( 'NONE', #315 ) ;
#419 = PERSON_AND_ORGANIZATION ( #46, #98 ) ;
#420 = DIRECTION ( 'NONE',  ( -1.000000000000000000, -0.000000000000000000, -0.000000000000000000 ) ) ;
#421 = ORIENTED_EDGE ( 'NONE', *, *, #112, .F. ) ;
#422 = UNCERTAINTY_MEASURE_WITH_UNIT (LENGTH_MEASURE( 1.000000000000000082E-05 ), #321, 'distance_accuracy_value', 'NONE');
#423 = LINE ( 'NONE', #67, #330 ) ;
#424 = EDGE_LOOP ( 'NONE', ( #267, #184, #445, #265 ) ) ;
#425 = ADVANCED_FACE ( 'NONE', ( #399 ), #197, .F. ) ;
#426 = AXIS2_PLACEMENT_3D ( 'NONE', #351, #154, #113 ) ;
#427 = ADVANCED_FACE ( 'NONE', ( #208 ), #159, .F. ) ;
#428 = CARTESIAN_POINT ( 'NONE',  ( -57.62500000000000000, -18.07758620689654805, 15.00000000000000000 ) ) ;
#429 = VERTEX_POINT ( 'NONE', #80 ) ;
#430 = DIRECTION ( 'NONE',  ( -0.000000000000000000, -1.000000000000000000, -0.000000000000000000 ) ) ;
#431 = VERTEX_POINT ( 'NONE', #38 ) ;
#432 = CARTESIAN_POINT ( 'NONE',  ( -47.62500000000000000, -13.57758620689655160, -10.25000000000000000 ) ) ;
#433 = EDGE_LOOP ( 'NONE', ( #473, #469, #209, #45 ) ) ;
#434 = CARTESIAN_POINT ( 'NONE',  ( -47.62500000000000000, 6.922413793103449287, -10.25000000000000000 ) ) ;
#435 = ADVANCED_FACE ( 'NONE', ( #446 ), #443, .F. ) ;
#436 = VERTEX_POINT ( 'NONE', #488 ) ;
#437 = LINE ( 'NONE', #78, #215 ) ;
#438 = ORIENTED_EDGE ( 'NONE', *, *, #294, .F. ) ;
#439 = CARTESIAN_POINT ( 'NONE',  ( 62.37500000000000000, -13.07758620689654983, 10.00000000000000000 ) ) ;
#440 = DIRECTION ( 'NONE',  ( -1.000000000000000000, -0.000000000000000000, -0.000000000000000000 ) ) ;
#441 = ADVANCED_FACE ( 'NONE', ( #124 ), #83, .F. ) ;
#442 = AXIS2_PLACEMENT_3D ( 'NONE', #276, #358, #519 ) ;
#443 = PLANE ( 'NONE',  #350 ) ;
#444 = DIRECTION ( 'NONE',  ( 0.000000000000000000, 4.231032868236115541E-17, 1.000000000000000000 ) ) ;
#445 = ORIENTED_EDGE ( 'NONE', *, *, #293, .F. ) ;
#446 = FACE_OUTER_BOUND ( 'NONE', #516, .T. ) ;
#447 = EDGE_CURVE ( 'NONE', #129, #393, #157, .T. ) ;
#448 = DIRECTION ( 'NONE',  ( -0.000000000000000000, -4.231032868236114925E-17, -1.000000000000000000 ) ) ;
#449 = CALENDAR_DATE ( 2026, 14, 8 ) ;
#450 = VECTOR ( 'NONE', #149, 1000.000000000000000 ) ;
#451 = DIRECTION ( 'NONE',  ( -0.000000000000000000, -1.000000000000000000, -0.000000000000000000 ) ) ;
#452 = CLOSED_SHELL ( 'NONE', ( #109, #69, #355, #427, #199, #347, #363, #14, #108, #309, #29, #458, #435, #441, #425, #483 ) ) ;
#453 = PERSON_AND_ORGANIZATION ( #46, #98 ) ;
#454 = LINE ( 'NONE', #171, #478 ) ;
#455 = CALENDAR_DATE ( 2026, 14, 8 ) ;
#456 = DIRECTION ( 'NONE',  ( -0.000000000000000000, -1.000000000000000000, -0.000000000000000000 ) ) ;
#457 = PRODUCT ( 'CNC_Cage_TopRail_Female', 'CNC_Cage_TopRail_Female', '', ( #51 ) ) ;
#458 = ADVANCED_FACE ( 'NONE', ( #200 ), #367, .F. ) ;
#459 = COORDINATED_UNIVERSAL_TIME_OFFSET ( 5, 0, .BEHIND. ) ;
#460 = PLANE ( 'NONE',  #117 ) ;
#461 = LOCAL_TIME ( 16, 58, 37.00000000000000000, #335 ) ;
#462 = AXIS2_PLACEMENT_3D ( 'NONE', #499, #16, #103 ) ;
#463 = ORIENTED_EDGE ( 'NONE', *, *, #7, .T. ) ;
#464 = CARTESIAN_POINT ( 'NONE',  ( 57.62500000000000000, -13.07758620689654983, -10.00000000000000000 ) ) ;
#465 = ORIENTED_EDGE ( 'NONE', *, *, #153, .T. ) ;
#466 = LINE ( 'NONE', #509, #450 ) ;
#467 = ORIENTED_EDGE ( 'NONE', *, *, #518, .T. ) ;
#468 = DIRECTION ( 'NONE',  ( -1.000000000000000000, -0.000000000000000000, -0.000000000000000000 ) ) ;
#469 = ORIENTED_EDGE ( 'NONE', *, *, #342, .F. ) ;
#470 = PLANE ( 'NONE',  #495 ) ;
#471 = ORIENTED_EDGE ( 'NONE', *, *, #416, .T. ) ;
#472 = CARTESIAN_POINT ( 'NONE',  ( -47.62500000000000000, -13.57758620689655160, -10.25000000000000000 ) ) ;
#473 = ORIENTED_EDGE ( 'NONE', *, *, #30, .T. ) ;
#474 = DIRECTION ( 'NONE',  ( -0.000000000000000000, -4.231032868236114925E-17, -1.000000000000000000 ) ) ;
#475 = ORIENTED_EDGE ( 'NONE', *, *, #385, .T. ) ;
#476 = APPLICATION_CONTEXT ( 'configuration controlled 3d designs of mechanical parts and assemblies' ) ;
#477 = VECTOR ( 'NONE', #76, 1000.000000000000000 ) ;
#478 = VECTOR ( 'NONE', #379, 1000.000000000000000 ) ;
#479 = DIRECTION ( 'NONE',  ( 0.000000000000000000, -0.000000000000000000, 1.000000000000000000 ) ) ;
#480 = ORIENTED_EDGE ( 'NONE', *, *, #342, .T. ) ;
#481 = DIRECTION ( 'NONE',  ( -0.000000000000000000, -0.000000000000000000, -1.000000000000000000 ) ) ;
#482 = PLANE ( 'NONE',  #487 ) ;
#483 = ADVANCED_FACE ( 'NONE', ( #484 ), #9, .F. ) ;
#484 = FACE_OUTER_BOUND ( 'NONE', #196, .T. ) ;
#485 = ORIENTED_EDGE ( 'NONE', *, *, #268, .F. ) ;
#486 = VECTOR ( 'NONE', #286, 1000.000000000000000 ) ;
#487 = AXIS2_PLACEMENT_3D ( 'NONE', #362, #285, #50 ) ;
#488 = CARTESIAN_POINT ( 'NONE',  ( 57.62500000000000000, -18.07758620689654805, 15.00000000000000000 ) ) ;
#489 = DIRECTION ( 'NONE',  ( -1.000000000000000000, -0.000000000000000000, -0.000000000000000000 ) ) ;
#490 = DIRECTION ( 'NONE',  ( -1.000000000000000000, 0.000000000000000000, -0.000000000000000000 ) ) ;
#491 = DIRECTION ( 'NONE',  ( 0.000000000000000000, 0.000000000000000000, -1.000000000000000000 ) ) ;
#492 = EDGE_CURVE ( 'NONE', #3, #429, #40, .T. ) ;
#493 = PERSON_AND_ORGANIZATION_ROLE ( 'creator' ) ;
#494 = ORIENTED_EDGE ( 'NONE', *, *, #177, .T. ) ;
#495 = AXIS2_PLACEMENT_3D ( 'NONE', #70, #32, #65 ) ;
#496 = CARTESIAN_POINT ( 'NONE',  ( 57.62500000000000000, -18.07758620689654805, -15.00000000000000000 ) ) ;
#497 = MANIFOLD_SOLID_BREP ( 'Boss-Extrude2', #452 ) ;
#498 = SHAPE_DEFINITION_REPRESENTATION ( #92, #280 ) ;
#499 = CARTESIAN_POINT ( 'NONE',  ( 57.62500000000000000, -18.07758620689654805, 15.00000000000000000 ) ) ;
#500 = EDGE_CURVE ( 'NONE', #41, #331, #244, .T. ) ;
#501 = DATE_AND_TIME ( #17, #461 ) ;
#502 = CARTESIAN_POINT ( 'NONE',  ( 57.62500000000000000, -13.07758620689654983, 10.00000000000000000 ) ) ;
#503 = PERSON_AND_ORGANIZATION_ROLE ( 'creator' ) ;
#504 = FACE_BOUND ( 'NONE', #64, .T. ) ;
#505 = VECTOR ( 'NONE', #224, 1000.000000000000000 ) ;
#506 = DIRECTION ( 'NONE',  ( 0.000000000000000000, 1.000000000000000000, 0.000000000000000000 ) ) ;
#507 = CARTESIAN_POINT ( 'NONE',  ( -57.62500000000000000, -13.57758620689655160, -10.24999999999999822 ) ) ;
#508 = EDGE_LOOP ( 'NONE', ( #311, #114, #319, #467 ) ) ;
#509 = CARTESIAN_POINT ( 'NONE',  ( 62.37500000000000000, -13.07758620689654983, 10.00000000000000000 ) ) ;
#510 = EDGE_LOOP ( 'NONE', ( #275, #232, #398, #271 ) ) ;
#511 = FACE_OUTER_BOUND ( 'NONE', #510, .T. ) ;
#512 = VERTEX_POINT ( 'NONE', #284 ) ;
#513 = CARTESIAN_POINT ( 'NONE',  ( -47.62500000000000000, -13.57758620689655160, -10.25000000000000000 ) ) ;
#514 = ORIENTED_EDGE ( 'NONE', *, *, #160, .F. ) ;
#515 = LINE ( 'NONE', #231, #58 ) ;
#516 = EDGE_LOOP ( 'NONE', ( #81, #365, #152, #251 ) ) ;
#517 = CC_DESIGN_APPROVAL ( #102, ( #47 ) ) ;
#518 = EDGE_CURVE ( 'NONE', #436, #143, #437, .T. ) ;
#519 = DIRECTION ( 'NONE',  ( 1.000000000000000000, 0.000000000000000000, -0.000000000000000000 ) ) ;
#520 = CARTESIAN_POINT ( 'NONE',  ( 62.37500000000000000, -13.07758620689654983, -10.00000000000000000 ) ) ;
#521 =( NAMED_UNIT ( * ) SI_UNIT ( $, .STERADIAN. ) SOLID_ANGLE_UNIT ( ) );
ENDSEC;
END-ISO-10303-21;
