ISO-10303-21;
HEADER;
FILE_DESCRIPTION (( 'STEP AP214' ),
    '1' );
FILE_NAME ('CNC_Cage_TopRail_Male.STEP',
    '2026-08-12T22:35:38',
    ( '' ),
    ( '' ),
    'SwSTEP 2.0',
    'SolidWorks 2026',
    '' );
FILE_SCHEMA (( 'AUTOMOTIVE_DESIGN' ));
ENDSEC;

DATA;
#1 = FACE_OUTER_BOUND ( 'NONE', #171, .T. ) ;
#2 = ADVANCED_FACE ( 'NONE', ( #47 ), #6, .F. ) ;
#3 = ORIENTED_EDGE ( 'NONE', *, *, #361, .T. ) ;
#4 = ORIENTED_EDGE ( 'NONE', *, *, #282, .T. ) ;
#5 = CARTESIAN_POINT ( 'NONE',  ( 82.49999999999998579, 10.00000000000000000, 10.00000000000000000 ) ) ;
#6 = PLANE ( 'NONE',  #158 ) ;
#7 = CARTESIAN_POINT ( 'NONE',  ( -82.49999999999998579, -10.00000000000000000, 10.00000000000000000 ) ) ;
#8 = EDGE_CURVE ( 'NONE', #465, #73, #89, .T. ) ;
#9 = VECTOR ( 'NONE', #220, 1000.000000000000000 ) ;
#10 = CARTESIAN_POINT ( 'NONE',  ( 82.49999999999998579, 10.00000000000000000, -10.00000000000000000 ) ) ;
#11 = CARTESIAN_POINT ( 'NONE',  ( 72.50000000000000000, 10.00000000000000000, 10.00000000000000000 ) ) ;
#12 = ORIENTED_EDGE ( 'NONE', *, *, #147, .T. ) ;
#13 =( NAMED_UNIT ( * ) SI_UNIT ( $, .STERADIAN. ) SOLID_ANGLE_UNIT ( ) );
#14 = VERTEX_POINT ( 'NONE', #336 ) ;
#15 = ORIENTED_EDGE ( 'NONE', *, *, #228, .F. ) ;
#16 = DIRECTION ( 'NONE',  ( 0.000000000000000000, 1.000000000000000000, 0.000000000000000000 ) ) ;
#17 = ADVANCED_FACE ( 'NONE', ( #404 ), #296, .F. ) ;
#18 = PRODUCT ( 'CNC_Cage_TopRail_Male', 'CNC_Cage_TopRail_Male', '', ( #251 ) ) ;
#19 = ORIENTED_EDGE ( 'NONE', *, *, #361, .F. ) ;
#20 = CARTESIAN_POINT ( 'NONE',  ( 72.50000000000000000, -10.00000000000000000, -10.00000000000000000 ) ) ;
#21 = EDGE_LOOP ( 'NONE', ( #205, #180, #154, #368 ) ) ;
#22 = DIRECTION ( 'NONE',  ( 1.000000000000000000, -0.000000000000000000, -0.000000000000000000 ) ) ;
#23 = LINE ( 'NONE', #452, #50 ) ;
#24 = EDGE_CURVE ( 'NONE', #312, #359, #258, .T. ) ;
#25 = LINE ( 'NONE', #310, #226 ) ;
#26 = AXIS2_PLACEMENT_3D ( 'NONE', #104, #314, #29 ) ;
#27 = LINE ( 'NONE', #420, #166 ) ;
#28 = EDGE_LOOP ( 'NONE', ( #3, #275, #146, #193 ) ) ;
#29 = DIRECTION ( 'NONE',  ( 0.000000000000000000, 0.000000000000000000, 1.000000000000000000 ) ) ;
#30 = VERTEX_POINT ( 'NONE', #188 ) ;
#31 = PRODUCT_DEFINITION ( 'General', '', #442, #363 ) ;
#32 = CARTESIAN_POINT ( 'NONE',  ( 72.50000000000000000, -10.00000000000000000, -10.00000000000000000 ) ) ;
#33 = ORIENTED_EDGE ( 'NONE', *, *, #212, .F. ) ;
#34 = AXIS2_PLACEMENT_3D ( 'NONE', #292, #287, #397 ) ;
#35 = DIRECTION ( 'NONE',  ( 0.000000000000000000, -1.000000000000000000, 0.000000000000000000 ) ) ;
#36 = ORIENTED_EDGE ( 'NONE', *, *, #282, .F. ) ;
#37 = ADVANCED_FACE ( 'NONE', ( #227 ), #114, .F. ) ;
#38 = CARTESIAN_POINT ( 'NONE',  ( 82.49999999999998579, -10.00000000000000000, -10.00000000000000000 ) ) ;
#39 = VERTEX_POINT ( 'NONE', #185 ) ;
#40 = EDGE_LOOP ( 'NONE', ( #211, #357, #430, #386 ) ) ;
#41 = VECTOR ( 'NONE', #85, 1000.000000000000000 ) ;
#42 = CARTESIAN_POINT ( 'NONE',  ( -82.49999999999998579, 10.00000000000000000, 10.00000000000000000 ) ) ;
#43 = CARTESIAN_POINT ( 'NONE',  ( -72.50000000000000000, 10.00000000000000000, 10.00000000000000000 ) ) ;
#44 =( NAMED_UNIT ( * ) PLANE_ANGLE_UNIT ( ) SI_UNIT ( $, .RADIAN. ) );
#45 = DIRECTION ( 'NONE',  ( 0.000000000000000000, 0.000000000000000000, 1.000000000000000000 ) ) ;
#46 = EDGE_CURVE ( 'NONE', #325, #471, #373, .T. ) ;
#47 = FACE_OUTER_BOUND ( 'NONE', #302, .T. ) ;
#48 = ORIENTED_EDGE ( 'NONE', *, *, #306, .F. ) ;
#49 =( NAMED_UNIT ( * ) SI_UNIT ( $, .STERADIAN. ) SOLID_ANGLE_UNIT ( ) );
#50 = VECTOR ( 'NONE', #90, 1000.000000000000000 ) ;
#51 = LINE ( 'NONE', #366, #432 ) ;
#52 = VERTEX_POINT ( 'NONE', #401 ) ;
#53 = ADVANCED_FACE ( 'NONE', ( #262 ), #54, .F. ) ;
#54 = PLANE ( 'NONE',  #151 ) ;
#55 = CARTESIAN_POINT ( 'NONE',  ( 72.50000000000000000, -15.00000000000000000, -15.00000000000000000 ) ) ;
#56 = ORIENTED_EDGE ( 'NONE', *, *, #333, .F. ) ;
#57 = VECTOR ( 'NONE', #381, 1000.000000000000000 ) ;
#58 = DIRECTION ( 'NONE',  ( -1.000000000000000000, -0.000000000000000000, -0.000000000000000000 ) ) ;
#59 = ORIENTED_EDGE ( 'NONE', *, *, #67, .T. ) ;
#60 = CARTESIAN_POINT ( 'NONE',  ( 72.50000000000000000, -15.00000000000000000, 15.00000000000000000 ) ) ;
#61 = ADVANCED_BREP_SHAPE_REPRESENTATION ( 'CNC_Cage_TopRail_Male', ( #412, #34 ), #124 ) ;
#62 = EDGE_CURVE ( 'NONE', #359, #465, #123, .T. ) ;
#63 = CARTESIAN_POINT ( 'NONE',  ( -72.50000000000000000, 15.00000000000000000, 15.00000000000000000 ) ) ;
#64 = DIRECTION ( 'NONE',  ( -0.000000000000000000, -1.000000000000000000, -0.000000000000000000 ) ) ;
#65 = VECTOR ( 'NONE', #334, 1000.000000000000000 ) ;
#66 =( GEOMETRIC_REPRESENTATION_CONTEXT ( 3 ) GLOBAL_UNCERTAINTY_ASSIGNED_CONTEXT ( ( #438 ) ) GLOBAL_UNIT_ASSIGNED_CONTEXT ( ( #406, #44, #49 ) ) REPRESENTATION_CONTEXT ( 'NONE', 'WORKASPACE' ) );
#67 = EDGE_CURVE ( 'NONE', #137, #340, #153, .T. ) ;
#68 = CARTESIAN_POINT ( 'NONE',  ( 72.50000000000000000, -15.00000000000000000, 15.00000000000000000 ) ) ;
#69 = ORIENTED_EDGE ( 'NONE', *, *, #410, .T. ) ;
#70 = PLANE ( 'NONE',  #384 ) ;
#71 = ORIENTED_EDGE ( 'NONE', *, *, #240, .T. ) ;
#72 = CARTESIAN_POINT ( 'NONE',  ( -72.50000000000000000, -15.00000000000000000, 15.00000000000000000 ) ) ;
#73 = VERTEX_POINT ( 'NONE', #362 ) ;
#74 = AXIS2_PLACEMENT_3D ( 'NONE', #279, #102, #108 ) ;
#75 = FACE_OUTER_BOUND ( 'NONE', #109, .T. ) ;
#76 = ORIENTED_EDGE ( 'NONE', *, *, #257, .F. ) ;
#77 = LINE ( 'NONE', #68, #352 ) ;
#78 = VERTEX_POINT ( 'NONE', #43 ) ;
#79 = DIRECTION ( 'NONE',  ( -0.000000000000000000, -1.000000000000000000, -0.000000000000000000 ) ) ;
#80 = AXIS2_PLACEMENT_3D ( 'NONE', #60, #380, #130 ) ;
#81 = VECTOR ( 'NONE', #82, 1000.000000000000000 ) ;
#82 = DIRECTION ( 'NONE',  ( 1.000000000000000000, -0.000000000000000000, -0.000000000000000000 ) ) ;
#83 = DIRECTION ( 'NONE',  ( 0.000000000000000000, -0.000000000000000000, -1.000000000000000000 ) ) ;
#84 = LINE ( 'NONE', #10, #286 ) ;
#85 = DIRECTION ( 'NONE',  ( -1.000000000000000000, -0.000000000000000000, -0.000000000000000000 ) ) ;
#86 = DIRECTION ( 'NONE',  ( -1.000000000000000000, 0.000000000000000000, -0.000000000000000000 ) ) ;
#87 = AXIS2_PLACEMENT_3D ( 'NONE', #254, #155, #290 ) ;
#88 = DIRECTION ( 'NONE',  ( 1.000000000000000000, 0.000000000000000000, 0.000000000000000000 ) ) ;
#89 = LINE ( 'NONE', #190, #308 ) ;
#90 = DIRECTION ( 'NONE',  ( 0.000000000000000000, 0.000000000000000000, 1.000000000000000000 ) ) ;
#91 = EDGE_LOOP ( 'NONE', ( #143, #197, #260, #145 ) ) ;
#92 = DIRECTION ( 'NONE',  ( 1.000000000000000000, 0.000000000000000000, -0.000000000000000000 ) ) ;
#93 = PRODUCT_DEFINITION_SHAPE ( 'NONE', 'NONE',  #31 ) ;
#94 = FACE_OUTER_BOUND ( 'NONE', #225, .T. ) ;
#95 = EDGE_CURVE ( 'NONE', #128, #343, #219, .T. ) ;
#96 = LINE ( 'NONE', #165, #422 ) ;
#97 = LINE ( 'NONE', #456, #301 ) ;
#98 = CARTESIAN_POINT ( 'NONE',  ( 72.50000000000000000, 10.00000000000000000, -10.00000000000000000 ) ) ;
#99 = ORIENTED_EDGE ( 'NONE', *, *, #8, .F. ) ;
#100 = DIRECTION ( 'NONE',  ( -0.000000000000000000, -1.000000000000000000, -0.000000000000000000 ) ) ;
#101 = ORIENTED_EDGE ( 'NONE', *, *, #206, .F. ) ;
#102 = DIRECTION ( 'NONE',  ( 0.000000000000000000, 1.000000000000000000, -0.000000000000000000 ) ) ;
#103 = EDGE_LOOP ( 'NONE', ( #315, #395, #354, #428 ) ) ;
#104 = CARTESIAN_POINT ( 'NONE',  ( 82.49999999999998579, 0.000000000000000000, 0.000000000000000000 ) ) ;
#105 = ORIENTED_EDGE ( 'NONE', *, *, #313, .T. ) ;
#106 = EDGE_CURVE ( 'NONE', #73, #413, #327, .T. ) ;
#107 = MECHANICAL_DESIGN_GEOMETRIC_PRESENTATION_REPRESENTATION (  '', ( #264 ), #66 ) ;
#108 = DIRECTION ( 'NONE',  ( 0.000000000000000000, 0.000000000000000000, 1.000000000000000000 ) ) ;
#109 = EDGE_LOOP ( 'NONE', ( #267, #283, #126, #59 ) ) ;
#110 = APPLICATION_PROTOCOL_DEFINITION ( 'draft international standard', 'automotive_design', 1998, #370 ) ;
#111 = CARTESIAN_POINT ( 'NONE',  ( -82.49999999999998579, 10.00000000000000000, -10.00000000000000000 ) ) ;
#112 = ADVANCED_FACE ( 'NONE', ( #184 ), #443, .F. ) ;
#113 = CARTESIAN_POINT ( 'NONE',  ( 72.50000000000000000, -15.00000000000000000, 15.00000000000000000 ) ) ;
#114 = PLANE ( 'NONE',  #87 ) ;
#115 = AXIS2_PLACEMENT_3D ( 'NONE', #7, #150, #86 ) ;
#116 = AXIS2_PLACEMENT_3D ( 'NONE', #353, #35, #241 ) ;
#117 = DIRECTION ( 'NONE',  ( -0.000000000000000000, -1.000000000000000000, -0.000000000000000000 ) ) ;
#118 = DIRECTION ( 'NONE',  ( 0.000000000000000000, -1.000000000000000000, 0.000000000000000000 ) ) ;
#119 = CARTESIAN_POINT ( 'NONE',  ( 82.49999999999998579, 10.00000000000000000, -10.00000000000000000 ) ) ;
#120 = EDGE_CURVE ( 'NONE', #335, #14, #51, .T. ) ;
#121 = ORIENTED_EDGE ( 'NONE', *, *, #199, .T. ) ;
#122 = SURFACE_SIDE_STYLE ('',( #215 ) ) ;
#123 = LINE ( 'NONE', #293, #224 ) ;
#124 =( GEOMETRIC_REPRESENTATION_CONTEXT ( 3 ) GLOBAL_UNCERTAINTY_ASSIGNED_CONTEXT ( ( #320 ) ) GLOBAL_UNIT_ASSIGNED_CONTEXT ( ( #222, #324, #13 ) ) REPRESENTATION_CONTEXT ( 'NONE', 'WORKASPACE' ) );
#125 = FACE_OUTER_BOUND ( 'NONE', #91, .T. ) ;
#126 = ORIENTED_EDGE ( 'NONE', *, *, #410, .F. ) ;
#127 = PLANE ( 'NONE',  #371 ) ;
#128 = VERTEX_POINT ( 'NONE', #119 ) ;
#129 = CARTESIAN_POINT ( 'NONE',  ( -82.49999999999998579, 0.000000000000000000, 0.000000000000000000 ) ) ;
#130 = DIRECTION ( 'NONE',  ( 0.000000000000000000, 0.000000000000000000, 1.000000000000000000 ) ) ;
#131 = AXIS2_PLACEMENT_3D ( 'NONE', #360, #88, #439 ) ;
#132 = LINE ( 'NONE', #20, #391 ) ;
#133 = EDGE_CURVE ( 'NONE', #214, #14, #403, .T. ) ;
#134 = LINE ( 'NONE', #142, #138 ) ;
#135 = ORIENTED_EDGE ( 'NONE', *, *, #46, .F. ) ;
#136 = CARTESIAN_POINT ( 'NONE',  ( 72.50000000000000000, 10.00000000000000000, 10.00000000000000000 ) ) ;
#137 = VERTEX_POINT ( 'NONE', #331 ) ;
#138 = VECTOR ( 'NONE', #213, 1000.000000000000000 ) ;
#139 = CARTESIAN_POINT ( 'NONE',  ( 82.49999999999998579, -10.00000000000000000, -10.00000000000000000 ) ) ;
#140 = EDGE_LOOP ( 'NONE', ( #278, #36, #230, #135 ) ) ;
#141 = EDGE_CURVE ( 'NONE', #379, #335, #369, .T. ) ;
#142 = CARTESIAN_POINT ( 'NONE',  ( 72.50000000000000000, -10.00000000000000000, 10.00000000000000000 ) ) ;
#143 = ORIENTED_EDGE ( 'NONE', *, *, #62, .T. ) ;
#144 = PLANE ( 'NONE',  #453 ) ;
#145 = ORIENTED_EDGE ( 'NONE', *, *, #24, .T. ) ;
#146 = ORIENTED_EDGE ( 'NONE', *, *, #342, .F. ) ;
#147 = EDGE_CURVE ( 'NONE', #343, #335, #97, .T. ) ;
#148 = FACE_OUTER_BOUND ( 'NONE', #40, .T. ) ;
#149 = CARTESIAN_POINT ( 'NONE',  ( -72.50000000000000000, -15.00000000000000000, 15.00000000000000000 ) ) ;
#150 = DIRECTION ( 'NONE',  ( 0.000000000000000000, 0.000000000000000000, -1.000000000000000000 ) ) ;
#151 = AXIS2_PLACEMENT_3D ( 'NONE', #298, #449, #83 ) ;
#152 = VECTOR ( 'NONE', #22, 1000.000000000000000 ) ;
#153 = LINE ( 'NONE', #437, #163 ) ;
#154 = ORIENTED_EDGE ( 'NONE', *, *, #346, .F. ) ;
#155 = DIRECTION ( 'NONE',  ( -0.000000000000000000, 1.000000000000000000, 0.000000000000000000 ) ) ;
#156 = EDGE_LOOP ( 'NONE', ( #349, #177, #69, #390 ) ) ;
#157 = DIRECTION ( 'NONE',  ( -0.000000000000000000, -0.000000000000000000, -1.000000000000000000 ) ) ;
#158 = AXIS2_PLACEMENT_3D ( 'NONE', #252, #407, #259 ) ;
#159 = LINE ( 'NONE', #63, #255 ) ;
#160 = ORIENTED_EDGE ( 'NONE', *, *, #199, .F. ) ;
#161 = DIRECTION ( 'NONE',  ( -0.000000000000000000, -0.000000000000000000, 1.000000000000000000 ) ) ;
#162 = DIRECTION ( 'NONE',  ( -0.000000000000000000, -1.000000000000000000, -0.000000000000000000 ) ) ;
#163 = VECTOR ( 'NONE', #398, 1000.000000000000000 ) ;
#164 = PRODUCT_RELATED_PRODUCT_CATEGORY ( 'part', '', ( #18 ) ) ;
#165 = CARTESIAN_POINT ( 'NONE',  ( -72.50000000000000000, -15.00000000000000000, -15.00000000000000000 ) ) ;
#166 = VECTOR ( 'NONE', #424, 1000.000000000000000 ) ;
#167 = FACE_OUTER_BOUND ( 'NONE', #156, .T. ) ;
#168 = PLANE ( 'NONE',  #74 ) ;
#169 = ORIENTED_EDGE ( 'NONE', *, *, #272, .T. ) ;
#170 = DIRECTION ( 'NONE',  ( 0.000000000000000000, 0.000000000000000000, -1.000000000000000000 ) ) ;
#171 = EDGE_LOOP ( 'NONE', ( #351, #372, #175, #409 ) ) ;
#172 = VECTOR ( 'NONE', #470, 1000.000000000000000 ) ;
#173 = EDGE_CURVE ( 'NONE', #52, #325, #96, .T. ) ;
#174 = DIRECTION ( 'NONE',  ( -1.000000000000000000, 0.000000000000000000, -0.000000000000000000 ) ) ;
#175 = ORIENTED_EDGE ( 'NONE', *, *, #248, .F. ) ;
#176 = CARTESIAN_POINT ( 'NONE',  ( 82.49999999999998579, 10.00000000000000000, 10.00000000000000000 ) ) ;
#177 = ORIENTED_EDGE ( 'NONE', *, *, #342, .T. ) ;
#178 = CARTESIAN_POINT ( 'NONE',  ( -72.50000000000000000, -10.00000000000000000, 10.00000000000000000 ) ) ;
#179 = ADVANCED_FACE ( 'NONE', ( #125 ), #383, .F. ) ;
#180 = ORIENTED_EDGE ( 'NONE', *, *, #378, .F. ) ;
#181 = LINE ( 'NONE', #113, #270 ) ;
#182 = CARTESIAN_POINT ( 'NONE',  ( 82.49999999999998579, 10.00000000000000000, 10.00000000000000000 ) ) ;
#183 = DIRECTION ( 'NONE',  ( -1.000000000000000000, -0.000000000000000000, -0.000000000000000000 ) ) ;
#184 = FACE_OUTER_BOUND ( 'NONE', #388, .T. ) ;
#185 = CARTESIAN_POINT ( 'NONE',  ( -72.50000000000000000, -15.00000000000000000, 15.00000000000000000 ) ) ;
#186 = VECTOR ( 'NONE', #322, 1000.000000000000000 ) ;
#187 = ADVANCED_FACE ( 'NONE', ( #94, #266 ), #408, .F. ) ;
#188 = CARTESIAN_POINT ( 'NONE',  ( 72.50000000000000000, 15.00000000000000000, -15.00000000000000000 ) ) ;
#189 = EDGE_LOOP ( 'NONE', ( #323, #425, #76, #12 ) ) ;
#190 = CARTESIAN_POINT ( 'NONE',  ( -82.49999999999998579, -10.00000000000000000, -10.00000000000000000 ) ) ;
#191 = DIRECTION ( 'NONE',  ( 0.000000000000000000, 1.000000000000000000, 0.000000000000000000 ) ) ;
#192 = EDGE_CURVE ( 'NONE', #244, #30, #345, .T. ) ;
#193 = ORIENTED_EDGE ( 'NONE', *, *, #133, .T. ) ;
#194 = VECTOR ( 'NONE', #338, 1000.000000000000000 ) ;
#195 = COLOUR_RGB ( '',0.7921568627450980005, 0.8196078431372548767, 0.9333333333333333481 ) ;
#196 = LINE ( 'NONE', #341, #152 ) ;
#197 = ORIENTED_EDGE ( 'NONE', *, *, #248, .T. ) ;
#198 = LINE ( 'NONE', #461, #57 ) ;
#199 = EDGE_CURVE ( 'NONE', #359, #337, #307, .T. ) ;
#200 = CARTESIAN_POINT ( 'NONE',  ( 82.49999999999998579, -10.00000000000000000, 10.00000000000000000 ) ) ;
#201 = LINE ( 'NONE', #460, #209 ) ;
#202 = PLANE ( 'NONE',  #116 ) ;
#203 = EDGE_LOOP ( 'NONE', ( #280, #99, #332, #121 ) ) ;
#204 = DIRECTION ( 'NONE',  ( 0.000000000000000000, 0.000000000000000000, -1.000000000000000000 ) ) ;
#205 = ORIENTED_EDGE ( 'NONE', *, *, #382, .F. ) ;
#206 = EDGE_CURVE ( 'NONE', #455, #52, #159, .T. ) ;
#207 = LINE ( 'NONE', #238, #247 ) ;
#208 = VERTEX_POINT ( 'NONE', #236 ) ;
#209 = VECTOR ( 'NONE', #157, 1000.000000000000000 ) ;
#210 = LINE ( 'NONE', #277, #416 ) ;
#211 = ORIENTED_EDGE ( 'NONE', *, *, #141, .T. ) ;
#212 = EDGE_CURVE ( 'NONE', #244, #455, #198, .T. ) ;
#213 = DIRECTION ( 'NONE',  ( 0.000000000000000000, 0.000000000000000000, -1.000000000000000000 ) ) ;
#214 = VERTEX_POINT ( 'NONE', #200 ) ;
#215 = SURFACE_STYLE_FILL_AREA ( #364 ) ;
#216 = DIRECTION ( 'NONE',  ( 1.000000000000000000, -0.000000000000000000, -0.000000000000000000 ) ) ;
#217 = AXIS2_PLACEMENT_3D ( 'NONE', #129, #419, #235 ) ;
#218 = SURFACE_STYLE_USAGE ( .BOTH. , #122 ) ;
#219 = LINE ( 'NONE', #182, #9 ) ;
#220 = DIRECTION ( 'NONE',  ( -0.000000000000000000, -0.000000000000000000, 1.000000000000000000 ) ) ;
#221 = EDGE_CURVE ( 'NONE', #455, #39, #25, .T. ) ;
#222 =( LENGTH_UNIT ( ) NAMED_UNIT ( * ) SI_UNIT ( .MILLI., .METRE. ) );
#223 = CARTESIAN_POINT ( 'NONE',  ( 82.49999999999998579, -10.00000000000000000, 10.00000000000000000 ) ) ;
#224 = VECTOR ( 'NONE', #79, 1000.000000000000000 ) ;
#225 = EDGE_LOOP ( 'NONE', ( #169, #440, #242, #450 ) ) ;
#226 = VECTOR ( 'NONE', #64, 1000.000000000000000 ) ;
#227 = FACE_OUTER_BOUND ( 'NONE', #28, .T. ) ;
#228 = EDGE_CURVE ( 'NONE', #340, #379, #132, .T. ) ;
#229 = CARTESIAN_POINT ( 'NONE',  ( 82.49999999999998579, -10.00000000000000000, 10.00000000000000000 ) ) ;
#230 = ORIENTED_EDGE ( 'NONE', *, *, #272, .F. ) ;
#231 = LINE ( 'NONE', #377, #233 ) ;
#232 = EDGE_LOOP ( 'NONE', ( #4, #101, #33, #319 ) ) ;
#233 = VECTOR ( 'NONE', #58, 1000.000000000000000 ) ;
#234 = DIRECTION ( 'NONE',  ( -0.000000000000000000, -0.000000000000000000, -1.000000000000000000 ) ) ;
#235 = DIRECTION ( 'NONE',  ( 0.000000000000000000, 0.000000000000000000, -1.000000000000000000 ) ) ;
#236 = CARTESIAN_POINT ( 'NONE',  ( -82.49999999999998579, -10.00000000000000000, 10.00000000000000000 ) ) ;
#237 = VECTOR ( 'NONE', #318, 1000.000000000000000 ) ;
#238 = CARTESIAN_POINT ( 'NONE',  ( -72.50000000000000000, -10.00000000000000000, -10.00000000000000000 ) ) ;
#239 = VERTEX_POINT ( 'NONE', #458 ) ;
#240 = EDGE_CURVE ( 'NONE', #39, #325, #201, .T. ) ;
#241 = DIRECTION ( 'NONE',  ( 0.000000000000000000, -0.000000000000000000, -1.000000000000000000 ) ) ;
#242 = ORIENTED_EDGE ( 'NONE', *, *, #426, .F. ) ;
#243 = PLANE ( 'NONE',  #467 ) ;
#244 = VERTEX_POINT ( 'NONE', #300 ) ;
#245 = DIRECTION ( 'NONE',  ( -0.000000000000000000, -0.000000000000000000, -1.000000000000000000 ) ) ;
#246 = EDGE_LOOP ( 'NONE', ( #376, #56, #421, #71 ) ) ;
#247 = VECTOR ( 'NONE', #100, 1000.000000000000000 ) ;
#248 = EDGE_CURVE ( 'NONE', #465, #208, #23, .T. ) ;
#249 = DIRECTION ( 'NONE',  ( -1.000000000000000000, 0.000000000000000000, -0.000000000000000000 ) ) ;
#250 = ORIENTED_EDGE ( 'NONE', *, *, #378, .T. ) ;
#251 = PRODUCT_CONTEXT ( 'NONE', #370, 'mechanical' ) ;
#252 = CARTESIAN_POINT ( 'NONE',  ( 0.000000000000000000, 0.000000000000000000, 15.00000000000000000 ) ) ;
#253 = PRESENTATION_STYLE_ASSIGNMENT (( #218 ) ) ;
#254 = CARTESIAN_POINT ( 'NONE',  ( 82.49999999999998579, -10.00000000000000000, 10.00000000000000000 ) ) ;
#255 = VECTOR ( 'NONE', #234, 1000.000000000000000 ) ;
#256 = SHAPE_DEFINITION_REPRESENTATION ( #93, #61 ) ;
#257 = EDGE_CURVE ( 'NONE', #343, #214, #414, .T. ) ;
#258 = LINE ( 'NONE', #111, #451 ) ;
#259 = DIRECTION ( 'NONE',  ( -1.000000000000000000, 0.000000000000000000, -0.000000000000000000 ) ) ;
#260 = ORIENTED_EDGE ( 'NONE', *, *, #306, .T. ) ;
#261 = PLANE ( 'NONE',  #131 ) ;
#262 = FACE_OUTER_BOUND ( 'NONE', #374, .T. ) ;
#263 = VECTOR ( 'NONE', #45, 1000.000000000000000 ) ;
#264 = STYLED_ITEM ( 'NONE', ( #253 ), #412 ) ;
#265 = APPLICATION_CONTEXT ( 'automotive_design' ) ;
#266 = FACE_BOUND ( 'NONE', #463, .T. ) ;
#267 = ORIENTED_EDGE ( 'NONE', *, *, #228, .T. ) ;
#268 = CARTESIAN_POINT ( 'NONE',  ( -82.49999999999998579, -10.00000000000000000, -10.00000000000000000 ) ) ;
#269 = FACE_OUTER_BOUND ( 'NONE', #203, .T. ) ;
#270 = VECTOR ( 'NONE', #444, 1000.000000000000000 ) ;
#271 = DIRECTION ( 'NONE',  ( 1.000000000000000000, -0.000000000000000000, -0.000000000000000000 ) ) ;
#272 = EDGE_CURVE ( 'NONE', #471, #30, #375, .T. ) ;
#273 = DIRECTION ( 'NONE',  ( 0.000000000000000000, 1.000000000000000000, 0.000000000000000000 ) ) ;
#274 = CARTESIAN_POINT ( 'NONE',  ( -82.49999999999998579, -10.00000000000000000, 10.00000000000000000 ) ) ;
#275 = ORIENTED_EDGE ( 'NONE', *, *, #67, .F. ) ;
#276 = ADVANCED_FACE ( 'NONE', ( #269 ), #127, .F. ) ;
#277 = CARTESIAN_POINT ( 'NONE',  ( 82.49999999999998579, -10.00000000000000000, 10.00000000000000000 ) ) ;
#278 = ORIENTED_EDGE ( 'NONE', *, *, #173, .F. ) ;
#279 = CARTESIAN_POINT ( 'NONE',  ( -82.49999999999998579, -10.00000000000000000, -10.00000000000000000 ) ) ;
#280 = ORIENTED_EDGE ( 'NONE', *, *, #382, .T. ) ;
#281 = LINE ( 'NONE', #356, #186 ) ;
#282 = EDGE_CURVE ( 'NONE', #30, #52, #231, .T. ) ;
#283 = ORIENTED_EDGE ( 'NONE', *, *, #445, .F. ) ;
#284 = DIRECTION ( 'NONE',  ( 1.000000000000000000, 0.000000000000000000, 0.000000000000000000 ) ) ;
#285 = ORIENTED_EDGE ( 'NONE', *, *, #141, .F. ) ;
#286 = VECTOR ( 'NONE', #183, 1000.000000000000000 ) ;
#287 = DIRECTION ( 'NONE',  ( 0.000000000000000000, 0.000000000000000000, 1.000000000000000000 ) ) ;
#288 = DIRECTION ( 'NONE',  ( 0.000000000000000000, -0.000000000000000000, 1.000000000000000000 ) ) ;
#289 = CARTESIAN_POINT ( 'NONE',  ( 72.50000000000000000, -15.00000000000000000, -15.00000000000000000 ) ) ;
#290 = DIRECTION ( 'NONE',  ( 0.000000000000000000, -0.000000000000000000, 1.000000000000000000 ) ) ;
#291 = EDGE_CURVE ( 'NONE', #208, #413, #196, .T. ) ;
#292 = CARTESIAN_POINT ( 'NONE',  ( 0.000000000000000000, 0.000000000000000000, 0.000000000000000000 ) ) ;
#293 = CARTESIAN_POINT ( 'NONE',  ( -82.49999999999998579, -10.00000000000000000, -10.00000000000000000 ) ) ;
#294 = VECTOR ( 'NONE', #162, 1000.000000000000000 ) ;
#295 = CARTESIAN_POINT ( 'NONE',  ( -72.50000000000000000, 15.00000000000000000, 15.00000000000000000 ) ) ;
#296 = PLANE ( 'NONE',  #339 ) ;
#297 = ORIENTED_EDGE ( 'NONE', *, *, #120, .F. ) ;
#298 = CARTESIAN_POINT ( 'NONE',  ( -82.49999999999998579, 10.00000000000000000, -10.00000000000000000 ) ) ;
#299 = ORIENTED_EDGE ( 'NONE', *, *, #346, .T. ) ;
#300 = CARTESIAN_POINT ( 'NONE',  ( 72.50000000000000000, 15.00000000000000000, 15.00000000000000000 ) ) ;
#301 = VECTOR ( 'NONE', #417, 1000.000000000000000 ) ;
#302 = EDGE_LOOP ( 'NONE', ( #457, #105, #469, #304 ) ) ;
#303 = CARTESIAN_POINT ( 'NONE',  ( 72.50000000000000000, 15.00000000000000000, 15.00000000000000000 ) ) ;
#304 = ORIENTED_EDGE ( 'NONE', *, *, #212, .T. ) ;
#305 = LINE ( 'NONE', #274, #172 ) ;
#306 = EDGE_CURVE ( 'NONE', #208, #312, #305, .T. ) ;
#307 = LINE ( 'NONE', #344, #466 ) ;
#308 = VECTOR ( 'NONE', #216, 1000.000000000000000 ) ;
#309 = VECTOR ( 'NONE', #191, 1000.000000000000000 ) ;
#310 = CARTESIAN_POINT ( 'NONE',  ( -72.50000000000000000, -15.00000000000000000, 15.00000000000000000 ) ) ;
#311 = CARTESIAN_POINT ( 'NONE',  ( -72.50000000000000000, 10.00000000000000000, -10.00000000000000000 ) ) ;
#312 = VERTEX_POINT ( 'NONE', #392 ) ;
#313 = EDGE_CURVE ( 'NONE', #39, #239, #427, .T. ) ;
#314 = DIRECTION ( 'NONE',  ( -1.000000000000000000, 0.000000000000000000, 0.000000000000000000 ) ) ;
#315 = ORIENTED_EDGE ( 'NONE', *, *, #173, .T. ) ;
#316 = LINE ( 'NONE', #139, #237 ) ;
#317 = ORIENTED_EDGE ( 'NONE', *, *, #454, .F. ) ;
#318 = DIRECTION ( 'NONE',  ( 0.000000000000000000, 1.000000000000000000, 0.000000000000000000 ) ) ;
#319 = ORIENTED_EDGE ( 'NONE', *, *, #192, .T. ) ;
#320 = UNCERTAINTY_MEASURE_WITH_UNIT (LENGTH_MEASURE( 1.000000000000000082E-05 ), #222, 'distance_accuracy_value', 'NONE');
#321 = ADVANCED_FACE ( 'NONE', ( #167 ), #434, .F. ) ;
#322 = DIRECTION ( 'NONE',  ( 0.000000000000000000, 1.000000000000000000, 0.000000000000000000 ) ) ;
#323 = ORIENTED_EDGE ( 'NONE', *, *, #120, .T. ) ;
#324 =( NAMED_UNIT ( * ) PLANE_ANGLE_UNIT ( ) SI_UNIT ( $, .RADIAN. ) );
#325 = VERTEX_POINT ( 'NONE', #464 ) ;
#326 = PLANE ( 'NONE',  #423 ) ;
#327 = LINE ( 'NONE', #365, #263 ) ;
#328 = ADVANCED_FACE ( 'NONE', ( #1 ), #168, .F. ) ;
#329 = LINE ( 'NONE', #42, #81 ) ;
#330 = DIRECTION ( 'NONE',  ( -0.000000000000000000, -0.000000000000000000, -1.000000000000000000 ) ) ;
#331 = CARTESIAN_POINT ( 'NONE',  ( 82.49999999999998579, -10.00000000000000000, -10.00000000000000000 ) ) ;
#332 = ORIENTED_EDGE ( 'NONE', *, *, #62, .F. ) ;
#333 = EDGE_CURVE ( 'NONE', #239, #471, #77, .T. ) ;
#334 = DIRECTION ( 'NONE',  ( 1.000000000000000000, 0.000000000000000000, 0.000000000000000000 ) ) ;
#335 = VERTEX_POINT ( 'NONE', #136 ) ;
#336 = CARTESIAN_POINT ( 'NONE',  ( 72.50000000000000000, -10.00000000000000000, 10.00000000000000000 ) ) ;
#337 = VERTEX_POINT ( 'NONE', #311 ) ;
#338 = DIRECTION ( 'NONE',  ( -0.000000000000000000, -0.000000000000000000, -1.000000000000000000 ) ) ;
#339 = AXIS2_PLACEMENT_3D ( 'NONE', #149, #16, #288 ) ;
#340 = VERTEX_POINT ( 'NONE', #32 ) ;
#341 = CARTESIAN_POINT ( 'NONE',  ( -82.49999999999998579, -10.00000000000000000, 10.00000000000000000 ) ) ;
#342 = EDGE_CURVE ( 'NONE', #214, #137, #210, .T. ) ;
#343 = VERTEX_POINT ( 'NONE', #176 ) ;
#344 = CARTESIAN_POINT ( 'NONE',  ( -82.49999999999998579, 10.00000000000000000, -10.00000000000000000 ) ) ;
#345 = LINE ( 'NONE', #303, #194 ) ;
#346 = EDGE_CURVE ( 'NONE', #413, #78, #281, .T. ) ;
#347 = DIRECTION ( 'NONE',  ( -0.000000000000000000, -1.000000000000000000, -0.000000000000000000 ) ) ;
#348 = FACE_OUTER_BOUND ( 'NONE', #140, .T. ) ;
#349 = ORIENTED_EDGE ( 'NONE', *, *, #257, .T. ) ;
#350 = CARTESIAN_POINT ( 'NONE',  ( 82.49999999999998579, -10.00000000000000000, 10.00000000000000000 ) ) ;
#351 = ORIENTED_EDGE ( 'NONE', *, *, #106, .T. ) ;
#352 = VECTOR ( 'NONE', #245, 1000.000000000000000 ) ;
#353 = CARTESIAN_POINT ( 'NONE',  ( -72.50000000000000000, 15.00000000000000000, 15.00000000000000000 ) ) ;
#354 = ORIENTED_EDGE ( 'NONE', *, *, #221, .F. ) ;
#355 = ADVANCED_FACE ( 'NONE', ( #348 ), #144, .T. ) ;
#356 = CARTESIAN_POINT ( 'NONE',  ( -72.50000000000000000, -10.00000000000000000, 10.00000000000000000 ) ) ;
#357 = ORIENTED_EDGE ( 'NONE', *, *, #147, .F. ) ;
#358 = DIRECTION ( 'NONE',  ( 0.000000000000000000, -0.000000000000000000, -1.000000000000000000 ) ) ;
#359 = VERTEX_POINT ( 'NONE', #394 ) ;
#360 = CARTESIAN_POINT ( 'NONE',  ( -72.50000000000000000, -15.00000000000000000, 15.00000000000000000 ) ) ;
#361 = EDGE_CURVE ( 'NONE', #14, #340, #134, .T. ) ;
#362 = CARTESIAN_POINT ( 'NONE',  ( -72.50000000000000000, -10.00000000000000000, -10.00000000000000000 ) ) ;
#363 = PRODUCT_DEFINITION_CONTEXT ( 'detailed design', #265, 'design' ) ;
#364 = FILL_AREA_STYLE ('',( #448 ) ) ;
#365 = CARTESIAN_POINT ( 'NONE',  ( -72.50000000000000000, -10.00000000000000000, -10.00000000000000000 ) ) ;
#366 = CARTESIAN_POINT ( 'NONE',  ( 72.50000000000000000, -10.00000000000000000, 10.00000000000000000 ) ) ;
#367 = ADVANCED_FACE ( 'NONE', ( #75 ), #243, .F. ) ;
#368 = ORIENTED_EDGE ( 'NONE', *, *, #106, .F. ) ;
#369 = LINE ( 'NONE', #11, #415 ) ;
#370 = APPLICATION_CONTEXT ( 'automotive_design' ) ;
#371 = AXIS2_PLACEMENT_3D ( 'NONE', #268, #411, #92 ) ;
#372 = ORIENTED_EDGE ( 'NONE', *, *, #291, .F. ) ;
#373 = LINE ( 'NONE', #446, #65 ) ;
#374 = EDGE_LOOP ( 'NONE', ( #250, #160, #435, #393 ) ) ;
#375 = LINE ( 'NONE', #55, #309 ) ;
#376 = ORIENTED_EDGE ( 'NONE', *, *, #46, .T. ) ;
#377 = CARTESIAN_POINT ( 'NONE',  ( -72.50000000000000000, 15.00000000000000000, -15.00000000000000000 ) ) ;
#378 = EDGE_CURVE ( 'NONE', #78, #337, #27, .T. ) ;
#379 = VERTEX_POINT ( 'NONE', #98 ) ;
#380 = DIRECTION ( 'NONE',  ( -1.000000000000000000, 0.000000000000000000, 0.000000000000000000 ) ) ;
#381 = DIRECTION ( 'NONE',  ( -1.000000000000000000, -0.000000000000000000, -0.000000000000000000 ) ) ;
#382 = EDGE_CURVE ( 'NONE', #337, #73, #207, .T. ) ;
#383 = PLANE ( 'NONE',  #217 ) ;
#384 = AXIS2_PLACEMENT_3D ( 'NONE', #350, #170, #174 ) ;
#385 = FACE_OUTER_BOUND ( 'NONE', #232, .T. ) ;
#386 = ORIENTED_EDGE ( 'NONE', *, *, #445, .T. ) ;
#387 = FACE_OUTER_BOUND ( 'NONE', #189, .T. ) ;
#388 = EDGE_LOOP ( 'NONE', ( #299, #317, #48, #447 ) ) ;
#389 = DIRECTION ( 'NONE',  ( 0.000000000000000000, 0.000000000000000000, 1.000000000000000000 ) ) ;
#390 = ORIENTED_EDGE ( 'NONE', *, *, #95, .T. ) ;
#391 = VECTOR ( 'NONE', #273, 1000.000000000000000 ) ;
#392 = CARTESIAN_POINT ( 'NONE',  ( -82.49999999999998579, 10.00000000000000000, 10.00000000000000000 ) ) ;
#393 = ORIENTED_EDGE ( 'NONE', *, *, #454, .T. ) ;
#394 = CARTESIAN_POINT ( 'NONE',  ( -82.49999999999998579, 10.00000000000000000, -10.00000000000000000 ) ) ;
#395 = ORIENTED_EDGE ( 'NONE', *, *, #240, .F. ) ;
#396 = ADVANCED_FACE ( 'NONE', ( #385 ), #202, .F. ) ;
#397 = DIRECTION ( 'NONE',  ( 1.000000000000000000, 0.000000000000000000, 0.000000000000000000 ) ) ;
#398 = DIRECTION ( 'NONE',  ( -1.000000000000000000, -0.000000000000000000, -0.000000000000000000 ) ) ;
#399 = FACE_OUTER_BOUND ( 'NONE', #103, .T. ) ;
#400 = VECTOR ( 'NONE', #284, 1000.000000000000000 ) ;
#401 = CARTESIAN_POINT ( 'NONE',  ( -72.50000000000000000, 15.00000000000000000, -15.00000000000000000 ) ) ;
#402 = FACE_BOUND ( 'NONE', #21, .T. ) ;
#403 = LINE ( 'NONE', #223, #41 ) ;
#404 = FACE_OUTER_BOUND ( 'NONE', #246, .T. ) ;
#405 = ADVANCED_FACE ( 'NONE', ( #387 ), #70, .F. ) ;
#406 =( LENGTH_UNIT ( ) NAMED_UNIT ( * ) SI_UNIT ( .MILLI., .METRE. ) );
#407 = DIRECTION ( 'NONE',  ( 0.000000000000000000, 0.000000000000000000, -1.000000000000000000 ) ) ;
#408 = PLANE ( 'NONE',  #80 ) ;
#409 = ORIENTED_EDGE ( 'NONE', *, *, #8, .T. ) ;
#410 = EDGE_CURVE ( 'NONE', #137, #128, #316, .T. ) ;
#411 = DIRECTION ( 'NONE',  ( 0.000000000000000000, -0.000000000000000000, 1.000000000000000000 ) ) ;
#412 = MANIFOLD_SOLID_BREP ( 'Boss-Extrude3', #431 ) ;
#413 = VERTEX_POINT ( 'NONE', #178 ) ;
#414 = LINE ( 'NONE', #229, #294 ) ;
#415 = VECTOR ( 'NONE', #161, 1000.000000000000000 ) ;
#416 = VECTOR ( 'NONE', #204, 1000.000000000000000 ) ;
#417 = DIRECTION ( 'NONE',  ( -1.000000000000000000, -0.000000000000000000, -0.000000000000000000 ) ) ;
#418 = ADVANCED_FACE ( 'NONE', ( #399, #402 ), #261, .F. ) ;
#419 = DIRECTION ( 'NONE',  ( 1.000000000000000000, 0.000000000000000000, 0.000000000000000000 ) ) ;
#420 = CARTESIAN_POINT ( 'NONE',  ( -72.50000000000000000, 10.00000000000000000, -10.00000000000000000 ) ) ;
#421 = ORIENTED_EDGE ( 'NONE', *, *, #313, .F. ) ;
#422 = VECTOR ( 'NONE', #347, 1000.000000000000000 ) ;
#423 = AXIS2_PLACEMENT_3D ( 'NONE', #5, #118, #358 ) ;
#424 = DIRECTION ( 'NONE',  ( -0.000000000000000000, -0.000000000000000000, -1.000000000000000000 ) ) ;
#425 = ORIENTED_EDGE ( 'NONE', *, *, #133, .F. ) ;
#426 = EDGE_CURVE ( 'NONE', #239, #244, #181, .T. ) ;
#427 = LINE ( 'NONE', #72, #400 ) ;
#428 = ORIENTED_EDGE ( 'NONE', *, *, #206, .T. ) ;
#429 = CARTESIAN_POINT ( 'NONE',  ( 0.000000000000000000, 0.000000000000000000, -15.00000000000000000 ) ) ;
#430 = ORIENTED_EDGE ( 'NONE', *, *, #95, .F. ) ;
#431 = CLOSED_SHELL ( 'NONE', ( #418, #187, #17, #396, #2, #355, #405, #37, #367, #459, #321, #276, #328, #112, #53, #179 ) ) ;
#432 = VECTOR ( 'NONE', #117, 1000.000000000000000 ) ;
#433 = PRESENTATION_LAYER_ASSIGNMENT (  '', '', ( #264 ) ) ;
#434 = PLANE ( 'NONE',  #26 ) ;
#435 = ORIENTED_EDGE ( 'NONE', *, *, #24, .F. ) ;
#436 = CARTESIAN_POINT ( 'NONE',  ( -82.49999999999998579, -10.00000000000000000, -10.00000000000000000 ) ) ;
#437 = CARTESIAN_POINT ( 'NONE',  ( 82.49999999999998579, -10.00000000000000000, -10.00000000000000000 ) ) ;
#438 = UNCERTAINTY_MEASURE_WITH_UNIT (LENGTH_MEASURE( 1.000000000000000082E-05 ), #406, 'distance_accuracy_value', 'NONE');
#439 = DIRECTION ( 'NONE',  ( 0.000000000000000000, 0.000000000000000000, -1.000000000000000000 ) ) ;
#440 = ORIENTED_EDGE ( 'NONE', *, *, #192, .F. ) ;
#441 = APPLICATION_PROTOCOL_DEFINITION ( 'draft international standard', 'automotive_design', 1998, #265 ) ;
#442 = PRODUCT_DEFINITION_FORMATION_WITH_SPECIFIED_SOURCE ( 'Symmetric', '', #18, .NOT_KNOWN. ) ;
#443 = PLANE ( 'NONE',  #115 ) ;
#444 = DIRECTION ( 'NONE',  ( 0.000000000000000000, 1.000000000000000000, 0.000000000000000000 ) ) ;
#445 = EDGE_CURVE ( 'NONE', #128, #379, #84, .T. ) ;
#446 = CARTESIAN_POINT ( 'NONE',  ( -72.50000000000000000, -15.00000000000000000, -15.00000000000000000 ) ) ;
#447 = ORIENTED_EDGE ( 'NONE', *, *, #291, .T. ) ;
#448 = FILL_AREA_STYLE_COLOUR ( '', #195 ) ;
#449 = DIRECTION ( 'NONE',  ( 0.000000000000000000, -1.000000000000000000, 0.000000000000000000 ) ) ;
#450 = ORIENTED_EDGE ( 'NONE', *, *, #333, .T. ) ;
#451 = VECTOR ( 'NONE', #330, 1000.000000000000000 ) ;
#452 = CARTESIAN_POINT ( 'NONE',  ( -82.49999999999998579, -10.00000000000000000, -10.00000000000000000 ) ) ;
#453 = AXIS2_PLACEMENT_3D ( 'NONE', #429, #468, #249 ) ;
#454 = EDGE_CURVE ( 'NONE', #312, #78, #329, .T. ) ;
#455 = VERTEX_POINT ( 'NONE', #295 ) ;
#456 = CARTESIAN_POINT ( 'NONE',  ( 82.49999999999998579, 10.00000000000000000, 10.00000000000000000 ) ) ;
#457 = ORIENTED_EDGE ( 'NONE', *, *, #221, .T. ) ;
#458 = CARTESIAN_POINT ( 'NONE',  ( 72.50000000000000000, -15.00000000000000000, 15.00000000000000000 ) ) ;
#459 = ADVANCED_FACE ( 'NONE', ( #148 ), #326, .F. ) ;
#460 = CARTESIAN_POINT ( 'NONE',  ( -72.50000000000000000, -15.00000000000000000, 15.00000000000000000 ) ) ;
#461 = CARTESIAN_POINT ( 'NONE',  ( -72.50000000000000000, 15.00000000000000000, 15.00000000000000000 ) ) ;
#462 = DIRECTION ( 'NONE',  ( 1.000000000000000000, 0.000000000000000000, -0.000000000000000000 ) ) ;
#463 = EDGE_LOOP ( 'NONE', ( #297, #285, #15, #19 ) ) ;
#464 = CARTESIAN_POINT ( 'NONE',  ( -72.50000000000000000, -15.00000000000000000, -15.00000000000000000 ) ) ;
#465 = VERTEX_POINT ( 'NONE', #436 ) ;
#466 = VECTOR ( 'NONE', #271, 1000.000000000000000 ) ;
#467 = AXIS2_PLACEMENT_3D ( 'NONE', #38, #389, #462 ) ;
#468 = DIRECTION ( 'NONE',  ( 0.000000000000000000, 0.000000000000000000, -1.000000000000000000 ) ) ;
#469 = ORIENTED_EDGE ( 'NONE', *, *, #426, .T. ) ;
#470 = DIRECTION ( 'NONE',  ( 0.000000000000000000, 1.000000000000000000, 0.000000000000000000 ) ) ;
#471 = VERTEX_POINT ( 'NONE', #289 ) ;
ENDSEC;
END-ISO-10303-21;
