ISO-10303-21;
HEADER;
FILE_DESCRIPTION (( 'STEP AP214' ),
    '1' );
FILE_NAME ('CNC_Cage_Post_Lower.STEP',
    '2026-08-12T22:35:38',
    ( '' ),
    ( '' ),
    'SwSTEP 2.0',
    'SolidWorks 2026',
    '' );
FILE_SCHEMA (( 'AUTOMOTIVE_DESIGN' ));
ENDSEC;

DATA;
#1 = DIRECTION ( 'NONE',  ( 0.000000000000000000, 0.000000000000000000, 1.000000000000000000 ) ) ;
#2 = EDGE_CURVE ( 'NONE', #25, #66, #446, .T. ) ;
#3 = VERTEX_POINT ( 'NONE', #254 ) ;
#4 = VECTOR ( 'NONE', #31, 1000.000000000000000 ) ;
#5 = CARTESIAN_POINT ( 'NONE',  ( -15.00000000000000000, 15.00000000000000000, 140.0000000000000000 ) ) ;
#6 = ORIENTED_EDGE ( 'NONE', *, *, #421, .F. ) ;
#7 = SURFACE_STYLE_FILL_AREA ( #230 ) ;
#8 = CARTESIAN_POINT ( 'NONE',  ( 0.000000000000000000, 0.000000000000000000, 0.000000000000000000 ) ) ;
#9 = EDGE_CURVE ( 'NONE', #252, #35, #232, .T. ) ;
#10 = STYLED_ITEM ( 'NONE', ( #86 ), #93 ) ;
#11 = CARTESIAN_POINT ( 'NONE',  ( -10.00000000000000000, -10.00000000000000000, -5.000000000000000000 ) ) ;
#12 = VECTOR ( 'NONE', #1, 1000.000000000000000 ) ;
#13 = CARTESIAN_POINT ( 'NONE',  ( 10.25000000000000000, -10.25000000000000000, 130.0000000000000000 ) ) ;
#14 = ORIENTED_EDGE ( 'NONE', *, *, #394, .F. ) ;
#15 = PLANE ( 'NONE',  #317 ) ;
#16 = PLANE ( 'NONE',  #163 ) ;
#17 = ORIENTED_EDGE ( 'NONE', *, *, #350, .T. ) ;
#18 = DIRECTION ( 'NONE',  ( 1.000000000000000000, 0.000000000000000000, 0.000000000000000000 ) ) ;
#19 = ADVANCED_FACE ( 'NONE', ( #375 ), #224, .F. ) ;
#20 = ORIENTED_EDGE ( 'NONE', *, *, #346, .F. ) ;
#21 = CARTESIAN_POINT ( 'NONE',  ( 15.00000000000000000, -15.00000000000000000, 0.000000000000000000 ) ) ;
#22 = EDGE_CURVE ( 'NONE', #66, #3, #115, .T. ) ;
#23 = CARTESIAN_POINT ( 'NONE',  ( -10.00000000000000000, 10.00000000000000000, -5.000000000000000000 ) ) ;
#24 = PLANE ( 'NONE',  #303 ) ;
#25 = VERTEX_POINT ( 'NONE', #369 ) ;
#26 = CARTESIAN_POINT ( 'NONE',  ( 15.00000000000000000, 15.00000000000000000, 140.0000000000000000 ) ) ;
#27 = ORIENTED_EDGE ( 'NONE', *, *, #459, .F. ) ;
#28 = EDGE_CURVE ( 'NONE', #443, #249, #401, .T. ) ;
#29 = CARTESIAN_POINT ( 'NONE',  ( 15.00000000000000000, 15.00000000000000000, 140.0000000000000000 ) ) ;
#30 = EDGE_LOOP ( 'NONE', ( #277, #328, #187, #415 ) ) ;
#31 = DIRECTION ( 'NONE',  ( 0.000000000000000000, 1.000000000000000000, 0.000000000000000000 ) ) ;
#32 = ORIENTED_EDGE ( 'NONE', *, *, #459, .T. ) ;
#33 = ADVANCED_FACE ( 'NONE', ( #261 ), #147, .T. ) ;
#34 = LINE ( 'NONE', #287, #436 ) ;
#35 = VERTEX_POINT ( 'NONE', #339 ) ;
#36 = DIRECTION ( 'NONE',  ( -1.000000000000000000, 0.000000000000000000, -0.000000000000000000 ) ) ;
#37 = VERTEX_POINT ( 'NONE', #117 ) ;
#38 = VECTOR ( 'NONE', #107, 1000.000000000000000 ) ;
#39 = DIRECTION ( 'NONE',  ( -1.000000000000000000, 0.000000000000000000, -0.000000000000000000 ) ) ;
#40 = CARTESIAN_POINT ( 'NONE',  ( -10.25000000000000000, -10.25000000000000000, 140.0000000000000000 ) ) ;
#41 = ADVANCED_FACE ( 'NONE', ( #296, #365 ), #372, .T. ) ;
#42 = CARTESIAN_POINT ( 'NONE',  ( 0.000000000000000000, 0.000000000000000000, 140.0000000000000000 ) ) ;
#43 = CARTESIAN_POINT ( 'NONE',  ( 10.25000000000000000, -10.25000000000000000, 130.0000000000000000 ) ) ;
#44 = VERTEX_POINT ( 'NONE', #154 ) ;
#45 = PLANE ( 'NONE',  #380 ) ;
#46 = DIRECTION ( 'NONE',  ( 0.000000000000000000, 1.000000000000000000, 0.000000000000000000 ) ) ;
#47 = ORIENTED_EDGE ( 'NONE', *, *, #338, .F. ) ;
#48 = EDGE_CURVE ( 'NONE', #215, #433, #184, .T. ) ;
#49 = VERTEX_POINT ( 'NONE', #256 ) ;
#50 = PLANE ( 'NONE',  #52 ) ;
#51 = ORIENTED_EDGE ( 'NONE', *, *, #143, .F. ) ;
#52 = AXIS2_PLACEMENT_3D ( 'NONE', #345, #162, #349 ) ;
#53 = PLANE ( 'NONE',  #411 ) ;
#54 = VECTOR ( 'NONE', #185, 1000.000000000000000 ) ;
#55 = EDGE_LOOP ( 'NONE', ( #450, #424, #47, #228 ) ) ;
#56 = DIRECTION ( 'NONE',  ( 0.000000000000000000, 0.000000000000000000, 1.000000000000000000 ) ) ;
#57 = EDGE_CURVE ( 'NONE', #249, #270, #406, .T. ) ;
#58 = CARTESIAN_POINT ( 'NONE',  ( -15.00000000000000000, -15.00000000000000000, 0.000000000000000000 ) ) ;
#59 = DIRECTION ( 'NONE',  ( 0.000000000000000000, 1.000000000000000000, 0.000000000000000000 ) ) ;
#60 = VECTOR ( 'NONE', #76, 1000.000000000000000 ) ;
#61 = DIRECTION ( 'NONE',  ( -1.000000000000000000, -0.000000000000000000, -0.000000000000000000 ) ) ;
#62 = EDGE_LOOP ( 'NONE', ( #316, #469, #245, #325 ) ) ;
#63 = LINE ( 'NONE', #320, #12 ) ;
#64 = ORIENTED_EDGE ( 'NONE', *, *, #323, .T. ) ;
#65 = CARTESIAN_POINT ( 'NONE',  ( -10.00000000000000000, -10.00000000000000000, 0.000000000000000000 ) ) ;
#66 = VERTEX_POINT ( 'NONE', #410 ) ;
#67 = VECTOR ( 'NONE', #211, 1000.000000000000000 ) ;
#68 = CARTESIAN_POINT ( 'NONE',  ( -10.25000000000000000, -10.25000000000000000, 140.0000000000000000 ) ) ;
#69 = EDGE_LOOP ( 'NONE', ( #362, #389, #207, #152 ) ) ;
#70 = DIRECTION ( 'NONE',  ( 1.000000000000000000, 0.000000000000000000, 0.000000000000000000 ) ) ;
#71 = ORIENTED_EDGE ( 'NONE', *, *, #210, .F. ) ;
#72 = DIRECTION ( 'NONE',  ( -1.000000000000000000, -0.000000000000000000, -0.000000000000000000 ) ) ;
#73 = COLOUR_RGB ( '',0.7921568627450980005, 0.8196078431372548767, 0.9333333333333333481 ) ;
#74 = VECTOR ( 'NONE', #271, 1000.000000000000000 ) ;
#75 = CARTESIAN_POINT ( 'NONE',  ( 0.000000000000000000, 0.000000000000000000, -5.000000000000000000 ) ) ;
#76 = DIRECTION ( 'NONE',  ( -0.000000000000000000, -1.000000000000000000, -0.000000000000000000 ) ) ;
#77 =( NAMED_UNIT ( * ) SI_UNIT ( $, .STERADIAN. ) SOLID_ANGLE_UNIT ( ) );
#78 = CARTESIAN_POINT ( 'NONE',  ( -15.00000000000000000, -15.00000000000000000, 140.0000000000000000 ) ) ;
#79 = ORIENTED_EDGE ( 'NONE', *, *, #467, .F. ) ;
#80 = APPLICATION_CONTEXT ( 'automotive_design' ) ;
#81 = CARTESIAN_POINT ( 'NONE',  ( 0.000000000000000000, 0.000000000000000000, 0.000000000000000000 ) ) ;
#82 = FILL_AREA_STYLE_COLOUR ( '', #73 ) ;
#83 = ADVANCED_FACE ( 'NONE', ( #299 ), #451, .F. ) ;
#84 = AXIS2_PLACEMENT_3D ( 'NONE', #294, #367, #333 ) ;
#85 = DIRECTION ( 'NONE',  ( -1.000000000000000000, 0.000000000000000000, -0.000000000000000000 ) ) ;
#86 = PRESENTATION_STYLE_ASSIGNMENT (( #290 ) ) ;
#87 = LINE ( 'NONE', #456, #454 ) ;
#88 = ORIENTED_EDGE ( 'NONE', *, *, #384, .F. ) ;
#89 = CARTESIAN_POINT ( 'NONE',  ( -15.00000000000000000, 15.00000000000000000, 140.0000000000000000 ) ) ;
#90 = EDGE_LOOP ( 'NONE', ( #319, #452, #181, #283 ) ) ;
#91 = LINE ( 'NONE', #239, #149 ) ;
#92 = ADVANCED_FACE ( 'NONE', ( #226 ), #16, .F. ) ;
#93 = MANIFOLD_SOLID_BREP ( 'Cut-Extrude1', #105 ) ;
#94 = DIRECTION ( 'NONE',  ( 0.000000000000000000, -0.000000000000000000, 1.000000000000000000 ) ) ;
#95 = LINE ( 'NONE', #240, #272 ) ;
#96 = CARTESIAN_POINT ( 'NONE',  ( -15.00000000000000000, -15.00000000000000000, 140.0000000000000000 ) ) ;
#97 = ORIENTED_EDGE ( 'NONE', *, *, #203, .F. ) ;
#98 = VECTOR ( 'NONE', #167, 1000.000000000000000 ) ;
#99 = DIRECTION ( 'NONE',  ( 0.000000000000000000, 0.000000000000000000, -1.000000000000000000 ) ) ;
#100 = EDGE_LOOP ( 'NONE', ( #137, #321, #352, #268 ) ) ;
#101 = FACE_OUTER_BOUND ( 'NONE', #393, .T. ) ;
#102 = EDGE_LOOP ( 'NONE', ( #157, #71, #391, #286 ) ) ;
#103 = LINE ( 'NONE', #468, #98 ) ;
#104 = ORIENTED_EDGE ( 'NONE', *, *, #323, .F. ) ;
#105 = CLOSED_SHELL ( 'NONE', ( #41, #278, #19, #109, #227, #400, #455, #174, #33, #314, #413, #429, #83, #92, #135, #448 ) ) ;
#106 = EDGE_CURVE ( 'NONE', #49, #218, #263, .T. ) ;
#107 = DIRECTION ( 'NONE',  ( -0.000000000000000000, -0.000000000000000000, -1.000000000000000000 ) ) ;
#108 = ORIENTED_EDGE ( 'NONE', *, *, #118, .F. ) ;
#109 = ADVANCED_FACE ( 'NONE', ( #156 ), #461, .F. ) ;
#110 = APPLICATION_PROTOCOL_DEFINITION ( 'draft international standard', 'automotive_design', 1998, #80 ) ;
#111 = CARTESIAN_POINT ( 'NONE',  ( 10.25000000000000000, 10.25000000000000000, 130.0000000000000000 ) ) ;
#112 = VECTOR ( 'NONE', #220, 1000.000000000000000 ) ;
#113 = VECTOR ( 'NONE', #359, 1000.000000000000000 ) ;
#114 = DIRECTION ( 'NONE',  ( -1.000000000000000000, 0.000000000000000000, -0.000000000000000000 ) ) ;
#115 = LINE ( 'NONE', #111, #112 ) ;
#116 = FACE_OUTER_BOUND ( 'NONE', #378, .T. ) ;
#117 = CARTESIAN_POINT ( 'NONE',  ( 10.00000000000000000, -10.00000000000000000, -5.000000000000000000 ) ) ;
#118 = EDGE_CURVE ( 'NONE', #357, #443, #348, .T. ) ;
#119 = ORIENTED_EDGE ( 'NONE', *, *, #106, .T. ) ;
#120 = PRODUCT_CONTEXT ( 'NONE', #194, 'mechanical' ) ;
#121 = SURFACE_SIDE_STYLE ('',( #7 ) ) ;
#122 = VECTOR ( 'NONE', #264, 1000.000000000000000 ) ;
#123 = CARTESIAN_POINT ( 'NONE',  ( -15.00000000000000000, -15.00000000000000000, 140.0000000000000000 ) ) ;
#124 = ORIENTED_EDGE ( 'NONE', *, *, #350, .F. ) ;
#125 = DIRECTION ( 'NONE',  ( 0.000000000000000000, -0.000000000000000000, -1.000000000000000000 ) ) ;
#126 = DIRECTION ( 'NONE',  ( 0.000000000000000000, -1.000000000000000000, 0.000000000000000000 ) ) ;
#127 = VECTOR ( 'NONE', #61, 1000.000000000000000 ) ;
#128 = DIRECTION ( 'NONE',  ( 0.000000000000000000, 0.000000000000000000, 1.000000000000000000 ) ) ;
#129 = CARTESIAN_POINT ( 'NONE',  ( -10.00000000000000000, -10.00000000000000000, -5.000000000000000000 ) ) ;
#130 = ORIENTED_EDGE ( 'NONE', *, *, #180, .F. ) ;
#131 = CARTESIAN_POINT ( 'NONE',  ( -15.00000000000000000, 15.00000000000000000, 0.000000000000000000 ) ) ;
#132 = ORIENTED_EDGE ( 'NONE', *, *, #48, .T. ) ;
#133 = DIRECTION ( 'NONE',  ( -1.000000000000000000, -0.000000000000000000, -0.000000000000000000 ) ) ;
#134 = EDGE_LOOP ( 'NONE', ( #108, #243, #160, #381 ) ) ;
#135 = ADVANCED_FACE ( 'NONE', ( #301 ), #50, .F. ) ;
#136 = CARTESIAN_POINT ( 'NONE',  ( -10.00000000000000000, -10.00000000000000000, -5.000000000000000000 ) ) ;
#137 = ORIENTED_EDGE ( 'NONE', *, *, #57, .F. ) ;
#138 = DIRECTION ( 'NONE',  ( 0.000000000000000000, 1.000000000000000000, 0.000000000000000000 ) ) ;
#139 = ORIENTED_EDGE ( 'NONE', *, *, #370, .F. ) ;
#140 = VECTOR ( 'NONE', #422, 1000.000000000000000 ) ;
#141 = CARTESIAN_POINT ( 'NONE',  ( -10.25000000000000000, 10.25000000000000000, 140.0000000000000000 ) ) ;
#142 = VERTEX_POINT ( 'NONE', #23 ) ;
#143 = EDGE_CURVE ( 'NONE', #342, #376, #87, .T. ) ;
#144 = FACE_OUTER_BOUND ( 'NONE', #201, .T. ) ;
#145 = DIRECTION ( 'NONE',  ( 1.000000000000000000, 0.000000000000000000, 0.000000000000000000 ) ) ;
#146 = LINE ( 'NONE', #5, #122 ) ;
#147 = PLANE ( 'NONE',  #199 ) ;
#148 = VECTOR ( 'NONE', #72, 1000.000000000000000 ) ;
#149 = VECTOR ( 'NONE', #56, 1000.000000000000000 ) ;
#150 = CARTESIAN_POINT ( 'NONE',  ( 15.00000000000000000, -15.00000000000000000, 140.0000000000000000 ) ) ;
#151 = DIRECTION ( 'NONE',  ( 0.000000000000000000, 0.000000000000000000, -1.000000000000000000 ) ) ;
#152 = ORIENTED_EDGE ( 'NONE', *, *, #118, .T. ) ;
#153 = DIRECTION ( 'NONE',  ( 0.000000000000000000, 0.000000000000000000, 1.000000000000000000 ) ) ;
#154 = CARTESIAN_POINT ( 'NONE',  ( -10.25000000000000000, 10.25000000000000000, 140.0000000000000000 ) ) ;
#155 = ORIENTED_EDGE ( 'NONE', *, *, #28, .F. ) ;
#156 = FACE_OUTER_BOUND ( 'NONE', #55, .T. ) ;
#157 = ORIENTED_EDGE ( 'NONE', *, *, #9, .T. ) ;
#158 = VECTOR ( 'NONE', #276, 1000.000000000000000 ) ;
#159 = DIRECTION ( 'NONE',  ( -1.000000000000000000, 0.000000000000000000, 0.000000000000000000 ) ) ;
#160 = ORIENTED_EDGE ( 'NONE', *, *, #467, .T. ) ;
#161 = CARTESIAN_POINT ( 'NONE',  ( -10.00000000000000000, 10.00000000000000000, -5.000000000000000000 ) ) ;
#162 = DIRECTION ( 'NONE',  ( 0.000000000000000000, -1.000000000000000000, 0.000000000000000000 ) ) ;
#163 = AXIS2_PLACEMENT_3D ( 'NONE', #43, #265, #449 ) ;
#164 = EDGE_CURVE ( 'NONE', #433, #428, #165, .T. ) ;
#165 = LINE ( 'NONE', #420, #373 ) ;
#166 = VECTOR ( 'NONE', #315, 1000.000000000000000 ) ;
#167 = DIRECTION ( 'NONE',  ( -0.000000000000000000, -1.000000000000000000, -0.000000000000000000 ) ) ;
#168 = ORIENTED_EDGE ( 'NONE', *, *, #384, .T. ) ;
#169 = LINE ( 'NONE', #248, #279 ) ;
#170 = EDGE_LOOP ( 'NONE', ( #119, #20, #354, #457 ) ) ;
#171 = DIRECTION ( 'NONE',  ( 1.000000000000000000, 0.000000000000000000, 0.000000000000000000 ) ) ;
#172 = ORIENTED_EDGE ( 'NONE', *, *, #210, .T. ) ;
#173 = AXIS2_PLACEMENT_3D ( 'NONE', #409, #447, #405 ) ;
#174 = ADVANCED_FACE ( 'NONE', ( #311 ), #53, .T. ) ;
#175 = CARTESIAN_POINT ( 'NONE',  ( 10.00000000000000000, 10.00000000000000000, -5.000000000000000000 ) ) ;
#176 = ORIENTED_EDGE ( 'NONE', *, *, #2, .T. ) ;
#177 = DIRECTION ( 'NONE',  ( 0.000000000000000000, -1.000000000000000000, 0.000000000000000000 ) ) ;
#178 = ORIENTED_EDGE ( 'NONE', *, *, #164, .T. ) ;
#179 = CARTESIAN_POINT ( 'NONE',  ( -10.25000000000000000, -10.25000000000000000, 130.0000000000000000 ) ) ;
#180 = EDGE_CURVE ( 'NONE', #313, #44, #234, .T. ) ;
#181 = ORIENTED_EDGE ( 'NONE', *, *, #48, .F. ) ;
#182 = DIRECTION ( 'NONE',  ( 0.000000000000000000, -0.000000000000000000, 1.000000000000000000 ) ) ;
#183 =( LENGTH_UNIT ( ) NAMED_UNIT ( * ) SI_UNIT ( .MILLI., .METRE. ) );
#184 = LINE ( 'NONE', #330, #257 ) ;
#185 = DIRECTION ( 'NONE',  ( 0.000000000000000000, 1.000000000000000000, 0.000000000000000000 ) ) ;
#186 = ORIENTED_EDGE ( 'NONE', *, *, #274, .F. ) ;
#187 = ORIENTED_EDGE ( 'NONE', *, *, #285, .F. ) ;
#188 = VECTOR ( 'NONE', #293, 1000.000000000000000 ) ;
#189 = EDGE_CURVE ( 'NONE', #288, #443, #95, .T. ) ;
#190 = DIRECTION ( 'NONE',  ( -1.000000000000000000, 0.000000000000000000, 0.000000000000000000 ) ) ;
#191 = DIRECTION ( 'NONE',  ( 0.000000000000000000, 1.000000000000000000, 0.000000000000000000 ) ) ;
#192 = EDGE_LOOP ( 'NONE', ( #247, #51, #186, #196 ) ) ;
#193 = ADVANCED_BREP_SHAPE_REPRESENTATION ( 'CNC_Cage_Post_Lower', ( #93, #222 ), #466 ) ;
#194 = APPLICATION_CONTEXT ( 'automotive_design' ) ;
#195 = DIRECTION ( 'NONE',  ( -0.000000000000000000, -1.000000000000000000, -0.000000000000000000 ) ) ;
#196 = ORIENTED_EDGE ( 'NONE', *, *, #106, .F. ) ;
#197 = CARTESIAN_POINT ( 'NONE',  ( 15.00000000000000000, -15.00000000000000000, 140.0000000000000000 ) ) ;
#198 = EDGE_CURVE ( 'NONE', #340, #252, #202, .T. ) ;
#199 = AXIS2_PLACEMENT_3D ( 'NONE', #291, #145, #151 ) ;
#200 = DIRECTION ( 'NONE',  ( -0.000000000000000000, -1.000000000000000000, -0.000000000000000000 ) ) ;
#201 = EDGE_LOOP ( 'NONE', ( #464, #408, #104, #336 ) ) ;
#202 = LINE ( 'NONE', #307, #74 ) ;
#203 = EDGE_CURVE ( 'NONE', #142, #374, #458, .T. ) ;
#204 = DIRECTION ( 'NONE',  ( 0.000000000000000000, 1.000000000000000000, 0.000000000000000000 ) ) ;
#205 = LINE ( 'NONE', #123, #355 ) ;
#206 = DIRECTION ( 'NONE',  ( -0.000000000000000000, -1.000000000000000000, -0.000000000000000000 ) ) ;
#207 = ORIENTED_EDGE ( 'NONE', *, *, #260, .T. ) ;
#208 = CARTESIAN_POINT ( 'NONE',  ( -10.25000000000000000, -10.25000000000000000, 140.0000000000000000 ) ) ;
#209 = EDGE_LOOP ( 'NONE', ( #17, #397, #360, #172 ) ) ;
#210 = EDGE_CURVE ( 'NONE', #25, #35, #377, .T. ) ;
#211 = DIRECTION ( 'NONE',  ( -1.000000000000000000, -0.000000000000000000, -0.000000000000000000 ) ) ;
#212 = ORIENTED_EDGE ( 'NONE', *, *, #439, .T. ) ;
#213 = AXIS2_PLACEMENT_3D ( 'NONE', #295, #326, #36 ) ;
#214 = PLANE ( 'NONE',  #364 ) ;
#215 = VERTEX_POINT ( 'NONE', #453 ) ;
#216 = EDGE_CURVE ( 'NONE', #433, #49, #205, .T. ) ;
#217 = CARTESIAN_POINT ( 'NONE',  ( -10.25000000000000000, 10.25000000000000000, 130.0000000000000000 ) ) ;
#218 = VERTEX_POINT ( 'NONE', #21 ) ;
#219 = CARTESIAN_POINT ( 'NONE',  ( -10.25000000000000000, -10.25000000000000000, 130.0000000000000000 ) ) ;
#220 = DIRECTION ( 'NONE',  ( -0.000000000000000000, -0.000000000000000000, 1.000000000000000000 ) ) ;
#221 = VECTOR ( 'NONE', #204, 1000.000000000000000 ) ;
#222 = AXIS2_PLACEMENT_3D ( 'NONE', #81, #442, #332 ) ;
#223 = FACE_OUTER_BOUND ( 'NONE', #100, .T. ) ;
#224 = PLANE ( 'NONE',  #266 ) ;
#225 = DIRECTION ( 'NONE',  ( 0.000000000000000000, 0.000000000000000000, -1.000000000000000000 ) ) ;
#226 = FACE_OUTER_BOUND ( 'NONE', #209, .T. ) ;
#227 = ADVANCED_FACE ( 'NONE', ( #379 ), #414, .F. ) ;
#228 = ORIENTED_EDGE ( 'NONE', *, *, #346, .T. ) ;
#229 =( NAMED_UNIT ( * ) PLANE_ANGLE_UNIT ( ) SI_UNIT ( $, .RADIAN. ) );
#230 = FILL_AREA_STYLE ('',( #82 ) ) ;
#231 = PRESENTATION_LAYER_ASSIGNMENT (  '', '', ( #10 ) ) ;
#232 = LINE ( 'NONE', #40, #425 ) ;
#233 = PRODUCT_RELATED_PRODUCT_CATEGORY ( 'part', '', ( #386 ) ) ;
#234 = LINE ( 'NONE', #460, #140 ) ;
#235 = ORIENTED_EDGE ( 'NONE', *, *, #22, .T. ) ;
#236 = DIRECTION ( 'NONE',  ( 0.000000000000000000, 0.000000000000000000, 1.000000000000000000 ) ) ;
#237 = ORIENTED_EDGE ( 'NONE', *, *, #285, .T. ) ;
#238 = PRODUCT_DEFINITION_FORMATION_WITH_SPECIFIED_SOURCE ( 'Symmetric', '', #386, .NOT_KNOWN. ) ;
#239 = CARTESIAN_POINT ( 'NONE',  ( -10.00000000000000000, 10.00000000000000000, -5.000000000000000000 ) ) ;
#240 = CARTESIAN_POINT ( 'NONE',  ( 10.00000000000000000, 10.00000000000000000, -5.000000000000000000 ) ) ;
#241 = VECTOR ( 'NONE', #70, 1000.000000000000000 ) ;
#242 = LINE ( 'NONE', #388, #127 ) ;
#243 = ORIENTED_EDGE ( 'NONE', *, *, #308, .F. ) ;
#244 = CARTESIAN_POINT ( 'NONE',  ( -10.25000000000000000, -10.25000000000000000, 130.0000000000000000 ) ) ;
#245 = ORIENTED_EDGE ( 'NONE', *, *, #421, .T. ) ;
#246 = LINE ( 'NONE', #470, #4 ) ;
#247 = ORIENTED_EDGE ( 'NONE', *, *, #331, .F. ) ;
#248 = CARTESIAN_POINT ( 'NONE',  ( 15.00000000000000000, -15.00000000000000000, 140.0000000000000000 ) ) ;
#249 = VERTEX_POINT ( 'NONE', #417 ) ;
#250 = EDGE_CURVE ( 'NONE', #142, #249, #91, .T. ) ;
#251 = DIRECTION ( 'NONE',  ( 0.000000000000000000, -0.000000000000000000, -1.000000000000000000 ) ) ;
#252 = VERTEX_POINT ( 'NONE', #68 ) ;
#253 = PLANE ( 'NONE',  #213 ) ;
#254 = CARTESIAN_POINT ( 'NONE',  ( 10.25000000000000000, 10.25000000000000000, 140.0000000000000000 ) ) ;
#255 = LINE ( 'NONE', #141, #445 ) ;
#256 = CARTESIAN_POINT ( 'NONE',  ( -15.00000000000000000, -15.00000000000000000, 0.000000000000000000 ) ) ;
#257 = VECTOR ( 'NONE', #195, 1000.000000000000000 ) ;
#258 = VECTOR ( 'NONE', #133, 1000.000000000000000 ) ;
#259 = LINE ( 'NONE', #11, #188 ) ;
#260 = EDGE_CURVE ( 'NONE', #270, #357, #324, .T. ) ;
#261 = FACE_OUTER_BOUND ( 'NONE', #134, .T. ) ;
#262 = CARTESIAN_POINT ( 'NONE',  ( 10.00000000000000000, 10.00000000000000000, 0.000000000000000000 ) ) ;
#263 = LINE ( 'NONE', #58, #418 ) ;
#264 = DIRECTION ( 'NONE',  ( -0.000000000000000000, -0.000000000000000000, -1.000000000000000000 ) ) ;
#265 = DIRECTION ( 'NONE',  ( 1.000000000000000000, -0.000000000000000000, 0.000000000000000000 ) ) ;
#266 = AXIS2_PLACEMENT_3D ( 'NONE', #78, #46, #182 ) ;
#267 = PRODUCT_DEFINITION ( 'General', '', #238, #371 ) ;
#268 = ORIENTED_EDGE ( 'NONE', *, *, #358, .T. ) ;
#269 = DIRECTION ( 'NONE',  ( -0.000000000000000000, -0.000000000000000000, -1.000000000000000000 ) ) ;
#270 = VERTEX_POINT ( 'NONE', #65 ) ;
#271 = DIRECTION ( 'NONE',  ( -0.000000000000000000, -0.000000000000000000, 1.000000000000000000 ) ) ;
#272 = VECTOR ( 'NONE', #236, 1000.000000000000000 ) ;
#273 = CARTESIAN_POINT ( 'NONE',  ( 10.00000000000000000, -10.00000000000000000, 0.000000000000000000 ) ) ;
#274 = EDGE_CURVE ( 'NONE', #218, #342, #246, .T. ) ;
#275 = DIRECTION ( 'NONE',  ( -1.000000000000000000, -0.000000000000000000, -0.000000000000000000 ) ) ;
#276 = DIRECTION ( 'NONE',  ( -0.000000000000000000, -1.000000000000000000, -0.000000000000000000 ) ) ;
#277 = ORIENTED_EDGE ( 'NONE', *, *, #143, .T. ) ;
#278 = ADVANCED_FACE ( 'NONE', ( #351 ), #214, .F. ) ;
#279 = VECTOR ( 'NONE', #138, 1000.000000000000000 ) ;
#280 = CARTESIAN_POINT ( 'NONE',  ( 15.00000000000000000, 15.00000000000000000, 0.000000000000000000 ) ) ;
#281 = VERTEX_POINT ( 'NONE', #26 ) ;
#282 = CARTESIAN_POINT ( 'NONE',  ( -10.25000000000000000, -10.25000000000000000, 130.0000000000000000 ) ) ;
#283 = ORIENTED_EDGE ( 'NONE', *, *, #407, .T. ) ;
#284 = LINE ( 'NONE', #29, #38 ) ;
#285 = EDGE_CURVE ( 'NONE', #281, #215, #427, .T. ) ;
#286 = ORIENTED_EDGE ( 'NONE', *, *, #198, .T. ) ;
#287 = CARTESIAN_POINT ( 'NONE',  ( 10.25000000000000000, -10.25000000000000000, 140.0000000000000000 ) ) ;
#288 = VERTEX_POINT ( 'NONE', #175 ) ;
#289 = LINE ( 'NONE', #440, #54 ) ;
#290 = SURFACE_STYLE_USAGE ( .BOTH. , #121 ) ;
#291 = CARTESIAN_POINT ( 'NONE',  ( 10.00000000000000000, -10.00000000000000000, -5.000000000000000000 ) ) ;
#292 = EDGE_CURVE ( 'NONE', #281, #342, #284, .T. ) ;
#293 = DIRECTION ( 'NONE',  ( 1.000000000000000000, 0.000000000000000000, 0.000000000000000000 ) ) ;
#294 = CARTESIAN_POINT ( 'NONE',  ( -10.25000000000000000, 10.25000000000000000, 130.0000000000000000 ) ) ;
#295 = CARTESIAN_POINT ( 'NONE',  ( 0.000000000000000000, 0.000000000000000000, 130.0000000000000000 ) ) ;
#296 = FACE_OUTER_BOUND ( 'NONE', #192, .T. ) ;
#297 = ORIENTED_EDGE ( 'NONE', *, *, #394, .T. ) ;
#298 = LINE ( 'NONE', #179, #426 ) ;
#299 = FACE_OUTER_BOUND ( 'NONE', #306, .T. ) ;
#300 = EDGE_LOOP ( 'NONE', ( #97, #88, #79, #6 ) ) ;
#301 = FACE_OUTER_BOUND ( 'NONE', #102, .T. ) ;
#302 = AXIS2_PLACEMENT_3D ( 'NONE', #197, #159, #128 ) ;
#303 = AXIS2_PLACEMENT_3D ( 'NONE', #136, #177, #251 ) ;
#304 = ORIENTED_EDGE ( 'NONE', *, *, #338, .T. ) ;
#305 = DIRECTION ( 'NONE',  ( 1.000000000000000000, 0.000000000000000000, 0.000000000000000000 ) ) ;
#306 = EDGE_LOOP ( 'NONE', ( #32, #130, #14, #235 ) ) ;
#307 = CARTESIAN_POINT ( 'NONE',  ( -10.25000000000000000, -10.25000000000000000, 130.0000000000000000 ) ) ;
#308 = EDGE_CURVE ( 'NONE', #37, #357, #63, .T. ) ;
#309 = DIRECTION ( 'NONE',  ( 1.000000000000000000, 0.000000000000000000, 0.000000000000000000 ) ) ;
#310 = AXIS2_PLACEMENT_3D ( 'NONE', #8, #404, #39 ) ;
#311 = FACE_OUTER_BOUND ( 'NONE', #438, .T. ) ;
#312 = CARTESIAN_POINT ( 'NONE',  ( 15.00000000000000000, -15.00000000000000000, 140.0000000000000000 ) ) ;
#313 = VERTEX_POINT ( 'NONE', #217 ) ;
#314 = ADVANCED_FACE ( 'NONE', ( #398 ), #24, .T. ) ;
#315 = DIRECTION ( 'NONE',  ( 0.000000000000000000, 0.000000000000000000, 1.000000000000000000 ) ) ;
#316 = ORIENTED_EDGE ( 'NONE', *, *, #260, .F. ) ;
#317 = AXIS2_PLACEMENT_3D ( 'NONE', #75, #444, #85 ) ;
#318 = CARTESIAN_POINT ( 'NONE',  ( -15.00000000000000000, 15.00000000000000000, 140.0000000000000000 ) ) ;
#319 = ORIENTED_EDGE ( 'NONE', *, *, #331, .T. ) ;
#320 = CARTESIAN_POINT ( 'NONE',  ( 10.00000000000000000, -10.00000000000000000, -5.000000000000000000 ) ) ;
#321 = ORIENTED_EDGE ( 'NONE', *, *, #250, .F. ) ;
#322 = UNCERTAINTY_MEASURE_WITH_UNIT (LENGTH_MEASURE( 1.000000000000000082E-05 ), #183, 'distance_accuracy_value', 'NONE');
#323 = EDGE_CURVE ( 'NONE', #313, #340, #432, .T. ) ;
#324 = LINE ( 'NONE', #392, #241 ) ;
#325 = ORIENTED_EDGE ( 'NONE', *, *, #308, .T. ) ;
#326 = DIRECTION ( 'NONE',  ( 0.000000000000000000, 0.000000000000000000, -1.000000000000000000 ) ) ;
#327 = VECTOR ( 'NONE', #385, 1000.000000000000000 ) ;
#328 = ORIENTED_EDGE ( 'NONE', *, *, #407, .F. ) ;
#329 = CARTESIAN_POINT ( 'NONE',  ( -15.00000000000000000, -15.00000000000000000, 140.0000000000000000 ) ) ;
#330 = CARTESIAN_POINT ( 'NONE',  ( -15.00000000000000000, -15.00000000000000000, 140.0000000000000000 ) ) ;
#331 = EDGE_CURVE ( 'NONE', #376, #49, #103, .T. ) ;
#332 = DIRECTION ( 'NONE',  ( 1.000000000000000000, 0.000000000000000000, 0.000000000000000000 ) ) ;
#333 = DIRECTION ( 'NONE',  ( 0.000000000000000000, -0.000000000000000000, 1.000000000000000000 ) ) ;
#334 = SHAPE_DEFINITION_REPRESENTATION ( #416, #193 ) ;
#335 = CARTESIAN_POINT ( 'NONE',  ( -10.00000000000000000, 10.00000000000000000, 0.000000000000000000 ) ) ;
#336 = ORIENTED_EDGE ( 'NONE', *, *, #180, .T. ) ;
#337 = FACE_OUTER_BOUND ( 'NONE', #300, .T. ) ;
#338 = EDGE_CURVE ( 'NONE', #428, #281, #169, .T. ) ;
#339 = CARTESIAN_POINT ( 'NONE',  ( 10.25000000000000000, -10.25000000000000000, 140.0000000000000000 ) ) ;
#340 = VERTEX_POINT ( 'NONE', #244 ) ;
#341 =( LENGTH_UNIT ( ) NAMED_UNIT ( * ) SI_UNIT ( .MILLI., .METRE. ) );
#342 = VERTEX_POINT ( 'NONE', #280 ) ;
#343 = CARTESIAN_POINT ( 'NONE',  ( 10.25000000000000000, -10.25000000000000000, 130.0000000000000000 ) ) ;
#344 = AXIS2_PLACEMENT_3D ( 'NONE', #89, #126, #125 ) ;
#345 = CARTESIAN_POINT ( 'NONE',  ( -10.25000000000000000, -10.25000000000000000, 130.0000000000000000 ) ) ;
#346 = EDGE_CURVE ( 'NONE', #428, #218, #396, .T. ) ;
#347 = EDGE_LOOP ( 'NONE', ( #431, #139, #27, #124 ) ) ;
#348 = LINE ( 'NONE', #273, #221 ) ;
#349 = DIRECTION ( 'NONE',  ( 0.000000000000000000, -0.000000000000000000, -1.000000000000000000 ) ) ;
#350 = EDGE_CURVE ( 'NONE', #35, #3, #34, .T. ) ;
#351 = FACE_OUTER_BOUND ( 'NONE', #90, .T. ) ;
#352 = ORIENTED_EDGE ( 'NONE', *, *, #203, .T. ) ;
#353 = CARTESIAN_POINT ( 'NONE',  ( -10.25000000000000000, 10.25000000000000000, 130.0000000000000000 ) ) ;
#354 = ORIENTED_EDGE ( 'NONE', *, *, #164, .F. ) ;
#355 = VECTOR ( 'NONE', #269, 1000.000000000000000 ) ;
#356 = DIRECTION ( 'NONE',  ( 0.000000000000000000, 1.000000000000000000, 0.000000000000000000 ) ) ;
#357 = VERTEX_POINT ( 'NONE', #437 ) ;
#358 = EDGE_CURVE ( 'NONE', #374, #270, #462, .T. ) ;
#359 = DIRECTION ( 'NONE',  ( -0.000000000000000000, -0.000000000000000000, -1.000000000000000000 ) ) ;
#360 = ORIENTED_EDGE ( 'NONE', *, *, #2, .F. ) ;
#361 = DIRECTION ( 'NONE',  ( -1.000000000000000000, -0.000000000000000000, -0.000000000000000000 ) ) ;
#362 = ORIENTED_EDGE ( 'NONE', *, *, #28, .T. ) ;
#363 = DIRECTION ( 'NONE',  ( 1.000000000000000000, 0.000000000000000000, 0.000000000000000000 ) ) ;
#364 = AXIS2_PLACEMENT_3D ( 'NONE', #96, #171, #99 ) ;
#365 = FACE_BOUND ( 'NONE', #69, .T. ) ;
#366 = PLANE ( 'NONE',  #173 ) ;
#367 = DIRECTION ( 'NONE',  ( -0.000000000000000000, 1.000000000000000000, 0.000000000000000000 ) ) ;
#368 = APPLICATION_PROTOCOL_DEFINITION ( 'draft international standard', 'automotive_design', 1998, #194 ) ;
#369 = CARTESIAN_POINT ( 'NONE',  ( 10.25000000000000000, -10.25000000000000000, 130.0000000000000000 ) ) ;
#370 = EDGE_CURVE ( 'NONE', #44, #252, #463, .T. ) ;
#371 = PRODUCT_DEFINITION_CONTEXT ( 'detailed design', #80, 'design' ) ;
#372 = PLANE ( 'NONE',  #310 ) ;
#373 = VECTOR ( 'NONE', #305, 1000.000000000000000 ) ;
#374 = VERTEX_POINT ( 'NONE', #423 ) ;
#375 = FACE_OUTER_BOUND ( 'NONE', #170, .T. ) ;
#376 = VERTEX_POINT ( 'NONE', #131 ) ;
#377 = LINE ( 'NONE', #343, #327 ) ;
#378 = EDGE_LOOP ( 'NONE', ( #64, #212, #176, #297 ) ) ;
#379 = FACE_OUTER_BOUND ( 'NONE', #30, .T. ) ;
#380 = AXIS2_PLACEMENT_3D ( 'NONE', #42, #225, #114 ) ;
#381 = ORIENTED_EDGE ( 'NONE', *, *, #189, .T. ) ;
#382 = CARTESIAN_POINT ( 'NONE',  ( -10.00000000000000000, -10.00000000000000000, -5.000000000000000000 ) ) ;
#383 =( NAMED_UNIT ( * ) SI_UNIT ( $, .STERADIAN. ) SOLID_ANGLE_UNIT ( ) );
#384 = EDGE_CURVE ( 'NONE', #288, #142, #242, .T. ) ;
#385 = DIRECTION ( 'NONE',  ( -0.000000000000000000, -0.000000000000000000, 1.000000000000000000 ) ) ;
#386 = PRODUCT ( 'CNC_Cage_Post_Lower', 'CNC_Cage_Post_Lower', '', ( #120 ) ) ;
#387 = VECTOR ( 'NONE', #200, 1000.000000000000000 ) ;
#388 = CARTESIAN_POINT ( 'NONE',  ( -10.00000000000000000, 10.00000000000000000, -5.000000000000000000 ) ) ;
#389 = ORIENTED_EDGE ( 'NONE', *, *, #57, .T. ) ;
#390 = LINE ( 'NONE', #353, #258 ) ;
#391 = ORIENTED_EDGE ( 'NONE', *, *, #439, .F. ) ;
#392 = CARTESIAN_POINT ( 'NONE',  ( -10.00000000000000000, -10.00000000000000000, 0.000000000000000000 ) ) ;
#393 = EDGE_LOOP ( 'NONE', ( #132, #178, #304, #237 ) ) ;
#394 = EDGE_CURVE ( 'NONE', #66, #313, #390, .T. ) ;
#395 = VECTOR ( 'NONE', #206, 1000.000000000000000 ) ;
#396 = LINE ( 'NONE', #312, #113 ) ;
#397 = ORIENTED_EDGE ( 'NONE', *, *, #22, .F. ) ;
#398 = FACE_OUTER_BOUND ( 'NONE', #62, .T. ) ;
#399 = ORIENTED_EDGE ( 'NONE', *, *, #189, .F. ) ;
#400 = ADVANCED_FACE ( 'NONE', ( #430, #101 ), #45, .F. ) ;
#401 = LINE ( 'NONE', #335, #148 ) ;
#402 = PLANE ( 'NONE',  #419 ) ;
#403 = CARTESIAN_POINT ( 'NONE',  ( -10.00000000000000000, -10.00000000000000000, 0.000000000000000000 ) ) ;
#404 = DIRECTION ( 'NONE',  ( 0.000000000000000000, 0.000000000000000000, -1.000000000000000000 ) ) ;
#405 = DIRECTION ( 'NONE',  ( 0.000000000000000000, 0.000000000000000000, 1.000000000000000000 ) ) ;
#406 = LINE ( 'NONE', #403, #60 ) ;
#407 = EDGE_CURVE ( 'NONE', #215, #376, #146, .T. ) ;
#408 = ORIENTED_EDGE ( 'NONE', *, *, #198, .F. ) ;
#409 = CARTESIAN_POINT ( 'NONE',  ( -10.00000000000000000, -10.00000000000000000, -5.000000000000000000 ) ) ;
#410 = CARTESIAN_POINT ( 'NONE',  ( 10.25000000000000000, 10.25000000000000000, 130.0000000000000000 ) ) ;
#411 = AXIS2_PLACEMENT_3D ( 'NONE', #161, #59, #94 ) ;
#412 =( NAMED_UNIT ( * ) PLANE_ANGLE_UNIT ( ) SI_UNIT ( $, .RADIAN. ) );
#413 = ADVANCED_FACE ( 'NONE', ( #337 ), #15, .T. ) ;
#414 = PLANE ( 'NONE',  #344 ) ;
#415 = ORIENTED_EDGE ( 'NONE', *, *, #292, .T. ) ;
#416 = PRODUCT_DEFINITION_SHAPE ( 'NONE', 'NONE',  #267 ) ;
#417 = CARTESIAN_POINT ( 'NONE',  ( -10.00000000000000000, 10.00000000000000000, 0.000000000000000000 ) ) ;
#418 = VECTOR ( 'NONE', #309, 1000.000000000000000 ) ;
#419 = AXIS2_PLACEMENT_3D ( 'NONE', #219, #190, #153 ) ;
#420 = CARTESIAN_POINT ( 'NONE',  ( -15.00000000000000000, -15.00000000000000000, 140.0000000000000000 ) ) ;
#421 = EDGE_CURVE ( 'NONE', #374, #37, #259, .T. ) ;
#422 = DIRECTION ( 'NONE',  ( -0.000000000000000000, -0.000000000000000000, 1.000000000000000000 ) ) ;
#423 = CARTESIAN_POINT ( 'NONE',  ( -10.00000000000000000, -10.00000000000000000, -5.000000000000000000 ) ) ;
#424 = ORIENTED_EDGE ( 'NONE', *, *, #292, .F. ) ;
#425 = VECTOR ( 'NONE', #18, 1000.000000000000000 ) ;
#426 = VECTOR ( 'NONE', #363, 1000.000000000000000 ) ;
#427 = LINE ( 'NONE', #318, #67 ) ;
#428 = VERTEX_POINT ( 'NONE', #150 ) ;
#429 = ADVANCED_FACE ( 'NONE', ( #144 ), #402, .F. ) ;
#430 = FACE_BOUND ( 'NONE', #347, .T. ) ;
#431 = ORIENTED_EDGE ( 'NONE', *, *, #9, .F. ) ;
#432 = LINE ( 'NONE', #282, #395 ) ;
#433 = VERTEX_POINT ( 'NONE', #329 ) ;
#434 = VECTOR ( 'NONE', #191, 1000.000000000000000 ) ;
#435 = MECHANICAL_DESIGN_GEOMETRIC_PRESENTATION_REPRESENTATION (  '', ( #10 ), #465 ) ;
#436 = VECTOR ( 'NONE', #356, 1000.000000000000000 ) ;
#437 = CARTESIAN_POINT ( 'NONE',  ( 10.00000000000000000, -10.00000000000000000, 0.000000000000000000 ) ) ;
#438 = EDGE_LOOP ( 'NONE', ( #155, #399, #168, #471 ) ) ;
#439 = EDGE_CURVE ( 'NONE', #340, #25, #298, .T. ) ;
#440 = CARTESIAN_POINT ( 'NONE',  ( 10.00000000000000000, -10.00000000000000000, -5.000000000000000000 ) ) ;
#441 = UNCERTAINTY_MEASURE_WITH_UNIT (LENGTH_MEASURE( 1.000000000000000082E-05 ), #341, 'distance_accuracy_value', 'NONE');
#442 = DIRECTION ( 'NONE',  ( 0.000000000000000000, 0.000000000000000000, 1.000000000000000000 ) ) ;
#443 = VERTEX_POINT ( 'NONE', #262 ) ;
#444 = DIRECTION ( 'NONE',  ( 0.000000000000000000, 0.000000000000000000, -1.000000000000000000 ) ) ;
#445 = VECTOR ( 'NONE', #361, 1000.000000000000000 ) ;
#446 = LINE ( 'NONE', #13, #434 ) ;
#447 = DIRECTION ( 'NONE',  ( -1.000000000000000000, 0.000000000000000000, 0.000000000000000000 ) ) ;
#448 = ADVANCED_FACE ( 'NONE', ( #116 ), #253, .F. ) ;
#449 = DIRECTION ( 'NONE',  ( 0.000000000000000000, 0.000000000000000000, -1.000000000000000000 ) ) ;
#450 = ORIENTED_EDGE ( 'NONE', *, *, #274, .T. ) ;
#451 = PLANE ( 'NONE',  #84 ) ;
#452 = ORIENTED_EDGE ( 'NONE', *, *, #216, .F. ) ;
#453 = CARTESIAN_POINT ( 'NONE',  ( -15.00000000000000000, 15.00000000000000000, 140.0000000000000000 ) ) ;
#454 = VECTOR ( 'NONE', #275, 1000.000000000000000 ) ;
#455 = ADVANCED_FACE ( 'NONE', ( #223 ), #366, .T. ) ;
#456 = CARTESIAN_POINT ( 'NONE',  ( -15.00000000000000000, 15.00000000000000000, 0.000000000000000000 ) ) ;
#457 = ORIENTED_EDGE ( 'NONE', *, *, #216, .T. ) ;
#458 = LINE ( 'NONE', #382, #387 ) ;
#459 = EDGE_CURVE ( 'NONE', #3, #44, #255, .T. ) ;
#460 = CARTESIAN_POINT ( 'NONE',  ( -10.25000000000000000, 10.25000000000000000, 130.0000000000000000 ) ) ;
#461 = PLANE ( 'NONE',  #302 ) ;
#462 = LINE ( 'NONE', #129, #166 ) ;
#463 = LINE ( 'NONE', #208, #158 ) ;
#464 = ORIENTED_EDGE ( 'NONE', *, *, #370, .T. ) ;
#465 =( GEOMETRIC_REPRESENTATION_CONTEXT ( 3 ) GLOBAL_UNCERTAINTY_ASSIGNED_CONTEXT ( ( #441 ) ) GLOBAL_UNIT_ASSIGNED_CONTEXT ( ( #341, #412, #383 ) ) REPRESENTATION_CONTEXT ( 'NONE', 'WORKASPACE' ) );
#466 =( GEOMETRIC_REPRESENTATION_CONTEXT ( 3 ) GLOBAL_UNCERTAINTY_ASSIGNED_CONTEXT ( ( #322 ) ) GLOBAL_UNIT_ASSIGNED_CONTEXT ( ( #183, #229, #77 ) ) REPRESENTATION_CONTEXT ( 'NONE', 'WORKASPACE' ) );
#467 = EDGE_CURVE ( 'NONE', #37, #288, #289, .T. ) ;
#468 = CARTESIAN_POINT ( 'NONE',  ( -15.00000000000000000, -15.00000000000000000, 0.000000000000000000 ) ) ;
#469 = ORIENTED_EDGE ( 'NONE', *, *, #358, .F. ) ;
#470 = CARTESIAN_POINT ( 'NONE',  ( 15.00000000000000000, -15.00000000000000000, 0.000000000000000000 ) ) ;
#471 = ORIENTED_EDGE ( 'NONE', *, *, #250, .T. ) ;
ENDSEC;
END-ISO-10303-21;
